<?xml version="1.0" encoding="utf-8"?>
<!-- Generator: Adobe Illustrator 16.0.0, SVG Export Plug-In . SVG Version: 6.00 Build 0)  -->
<!DOCTYPE svg PUBLIC "-//W3C//DTD SVG 1.1//EN" "http://www.w3.org/Graphics/SVG/1.1/DTD/svg11.dtd">
<svg version="1.1" id="Layer_1" xmlns="http://www.w3.org/2000/svg" xmlns:xlink="http://www.w3.org/1999/xlink" x="0px" y="0px"
	 width="18.182px" height="18.18px" viewBox="0 0 18.182 18.18" enable-background="new 0 0 18.182 18.18" xml:space="preserve">
<path fill="#818282" d="M9.09,0C4.07,0,0,4.07,0,9.09c0,5.02,4.069,9.09,9.09,9.09s9.092-4.07,9.092-9.09
	C18.182,4.07,14.111,0,9.09,0z M13.432,8.754c-0.427,0.427-1.12,0.427-1.547,0l-1.699-1.699v6.713c0,0.605-0.489,1.094-1.093,1.094
	c-0.604,0-1.095-0.488-1.095-1.094V7.052l-1.7,1.701c-0.428,0.427-1.119,0.427-1.547,0c-0.427-0.428-0.427-1.12,0-1.546l3.566-3.568
	c0.428-0.427,1.119-0.427,1.547,0l3.566,3.568C13.858,7.634,13.858,8.326,13.432,8.754z"/>
</svg>
