<?xml version="1.0" encoding="utf-8"?>
<!-- Generator: Adobe Illustrator 19.0.0, SVG Export Plug-In . SVG Version: 6.00 Build 0)  -->
<svg version="1.1" id="Layer_1" xmlns="http://www.w3.org/2000/svg" xmlns:xlink="http://www.w3.org/1999/xlink" x="0px" y="0px"
	 viewBox="-362 321.9 150 150" style="enable-background:new -362 321.9 150 150;" xml:space="preserve">
<path id="XMLID_55_" d="M-222,359.4c-6.7-11.7-15.8-20.8-27.5-27.5c-11.7-6.7-24.2-10-37.5-10s-25.8,3.3-37.5,10
	c-11.7,6.7-20.8,15.8-27.5,27.5s-10,24.2-10,37.5s3.3,25.8,10,37.5c6.7,11.7,15.8,20.8,27.5,27.5s24.2,10,37.5,10s25.8-3.3,37.5-10
	c11.7-6.7,20.8-15.8,27.5-27.5s10-24.2,10-37.5S-215.3,371.1-222,359.4z M-251.2,409.4c-2.5,0-5.8-0.8-7.5-3.3l-18.3-18.3v45
	c0,5.8-5,10-10,10c-5.8,0-10-5-10-10v-45l-18.3,18.3c-1.7,1.7-4.2,3.3-7.5,3.3c-5.8,0-10-5-10-10c0-2.5,0.8-5.8,3.3-7.5l0,0
	l32.5-32.5l7.5-7.5c0.8-0.8,2.5-1.7,3.3-1.7c0.8,0,2.5,0.8,3.3,1.7l7.5,7.5l32.5,32.5l0,0c1.7,1.7,3.3,4.2,3.3,7.5
	C-240.3,404.4-245.3,409.4-251.2,409.4z"/>
</svg>
