<?xml version="1.0" encoding="utf-8"?>
<!-- Generator: Adobe Illustrator 19.0.0, SVG Export Plug-In . SVG Version: 6.00 Build 0)  -->
<svg version="1.1" id="Layer_1" xmlns="http://www.w3.org/2000/svg" xmlns:xlink="http://www.w3.org/1999/xlink" x="0px" y="0px"
	 viewBox="-361.9 321.9 150 150" style="enable-background:new -361.9 321.9 150 150;" xml:space="preserve">
<style type="text/css">
	.st0{fill:#818282;}
</style>
<path class="st0" d="M-217.3,383.4L-217.3,383.4c-7.2-7.2-18.9-7.2-26.2,0l-24.9,24.9v-67.8c0-10.2-8.3-18.5-18.5-18.5
	s-18.5,8.3-18.5,18.5v67.9l-24.9-24.9c-7.2-7.2-18.9-7.2-26.2,0c-7.2,7.2-7.2,18.9,0,26.2l55.7,55.7c3.4,3.9,8.3,6.4,13.9,6.4
	c5.9,0,11.2-2.8,14.5-7.2l55-55C-210.1,402.3-210.1,390.6-217.3,383.4"/>
</svg>
