<?xml version="1.0" encoding="utf-8"?>
<!-- Generator: Adobe Illustrator 16.0.0, SVG Export Plug-In . SVG Version: 6.00 Build 0)  -->
<!DOCTYPE svg PUBLIC "-//W3C//DTD SVG 1.1//EN" "http://www.w3.org/Graphics/SVG/1.1/DTD/svg11.dtd">
<svg version="1.1" id="Layer_1" xmlns="http://www.w3.org/2000/svg" xmlns:xlink="http://www.w3.org/1999/xlink" x="0px" y="0px"
	 width="18.212px" height="18.18px" viewBox="0 0 18.212 18.18" enable-background="new 0 0 18.212 18.18" xml:space="preserve">
<path fill="#818282" d="M17.555,7.449L17.555,7.449c-0.877-0.877-2.298-0.877-3.175,0l-3.029,3.029V2.245
	C11.351,1.005,10.346,0,9.106,0c-1.24,0-2.245,1.005-2.245,2.245v8.25L3.832,7.466c-0.877-0.876-2.298-0.876-3.175,0
	c-0.876,0.877-0.876,2.298,0,3.175l6.766,6.766c0.411,0.47,1.009,0.773,1.683,0.773c0.721,0,1.356-0.346,1.766-0.874l6.683-6.683
	C18.431,9.747,18.431,8.325,17.555,7.449"/>
</svg>
