<?xml version="1.0" encoding="utf-8"?>
<!-- Generator: Adobe Illustrator 19.0.0, SVG Export Plug-In . SVG Version: 6.00 Build 0)  -->
<svg version="1.1" id="Camada_1" xmlns="http://www.w3.org/2000/svg" xmlns:xlink="http://www.w3.org/1999/xlink" x="0px" y="0px"
	 viewBox="-362 321.9 150 150" style="enable-background:new -362 321.9 150 150;" xml:space="preserve">
<g id="XMLID_28_">
	<g id="XMLID_139_">
		<path id="XMLID_140_" d="M-218.1,367.7c4,9.2,5.9,19,5.9,29.1c0,10.2-2,19.9-5.9,29.2c-4,9.3-9.3,17.3-15.9,23.9
			c-6.7,6.7-14.6,12-23.8,16c-9.3,4-18.9,5.9-29,5.9c-10.1,0-19.8-2-29.1-5.9c-9.2-4-17.2-9.3-23.8-16c-6.7-6.7-12-14.7-15.9-23.9
			s-5.9-19-5.9-29.2c0-10.2,2-19.9,5.9-29.1c4-9.2,9.3-17.2,15.9-23.9c6.7-6.7,14.6-12,23.8-16c9.2-4,18.9-5.9,29.1-5.9
			c10.1,0,19.8,2,29,5.9c9.2,4,17.2,9.3,23.8,16C-227.4,350.5-222.1,358.5-218.1,367.7z M-331.2,426l73.5-73.4
			c-8.8-5.9-18.5-8.9-29.2-8.9c-9.6,0-18.5,2.4-26.6,7.1c-8.1,4.7-14.5,11.2-19.3,19.4c-4.7,8.2-7.1,17.1-7.1,26.7
			C-339.9,407.4-337,417.1-331.2,426z M-234,396.9c0-10.4-2.8-20-8.5-28.7l-73.4,73.3c8.9,5.8,18.5,8.7,28.9,8.7
			c7.2,0,14.1-1.4,20.6-4.2c6.5-2.8,12.2-6.6,16.9-11.3c4.7-4.7,8.5-10.4,11.3-17C-235.4,411-234,404.1-234,396.9z"/>
	</g>
</g>
</svg>
