<?xml version="1.0" encoding="utf-8"?>
<!-- Generator: Adobe Illustrator 16.0.0, SVG Export Plug-In . SVG Version: 6.00 Build 0)  -->
<!DOCTYPE svg PUBLIC "-//W3C//DTD SVG 1.1//EN" "http://www.w3.org/Graphics/SVG/1.1/DTD/svg11.dtd">
<svg version="1.1" id="Layer_1" xmlns="http://www.w3.org/2000/svg" xmlns:xlink="http://www.w3.org/1999/xlink" x="0px" y="0px"
	 width="18.009px" height="18.105px" viewBox="0 0 18.009 18.105" enable-background="new 0 0 18.009 18.105" xml:space="preserve">
<path fill-rule="evenodd" clip-rule="evenodd" fill="#818282" d="M4.493,5.489c0.001-1.254-1.004-2.26-2.26-2.256
	C0.985,3.236,0,4.224,0,5.48c0,0.003,0.001,0.006,0.001,0.009H0v10.353c-0.003,1.273,0.99,2.271,2.256,2.265
	c1.252-0.006,2.238-0.993,2.238-2.245c0-0.007-0.002-0.013-0.002-0.02h0.002L4.493,5.489L4.493,5.489z"/>
<path fill-rule="evenodd" clip-rule="evenodd" fill="#818282" d="M11.234,2.256C11.235,1.002,10.23-0.004,8.974,0
	C7.727,0.003,6.741,0.99,6.741,2.247c0,0.003,0.001,3.24,0.001,3.243H6.741v10.352c-0.003,1.274,0.99,2.271,2.256,2.264
	c1.252-0.005,2.238-0.991,2.238-2.244c0-0.008-0.002-0.013-0.002-0.02h0.002V5.49L11.234,2.256z"/>
<path fill-rule="evenodd" clip-rule="evenodd" fill="#818282" d="M18.008,6.782c0.001-1.254-1.004-2.26-2.26-2.256
	c-1.248,0.003-2.233,0.99-2.233,2.247c0,0.003,0.001,0.006,0.001,0.009l-0.001,9.06c-0.003,1.274,0.99,2.271,2.256,2.265
	c1.252-0.006,2.238-0.993,2.238-2.245c0-0.007-0.002-0.013-0.002-0.02h0.002L18.008,6.782L18.008,6.782z"/>
</svg>
