<?xml version="1.0" encoding="utf-8"?>
<!-- Generator: Adobe Illustrator 19.0.0, SVG Export Plug-In . SVG Version: 6.00 Build 0)  -->
<svg version="1.1" id="Layer_1" xmlns="http://www.w3.org/2000/svg" xmlns:xlink="http://www.w3.org/1999/xlink" x="0px" y="0px"
	 viewBox="-362 321.9 150 150" style="enable-background:new -362 321.9 150 150;" xml:space="preserve">
<style type="text/css">
	.st0{fill:#818282;}
</style>
<g>
	<path class="st0" d="M-324.4,367.4c0-10.4-8.3-18.7-18.7-18.7c-10.3,0-18.5,8.2-18.5,18.6c0,0,0,0,0,0.1h0v85.8
		c0,10.5,8.2,18.8,18.7,18.8c10.4,0,18.5-8.2,18.5-18.6c0-0.1,0-0.1,0-0.2h0L-324.4,367.4L-324.4,367.4z"/>
	<path class="st0" d="M-268.5,340.6c0-10.4-8.3-18.7-18.7-18.7c-10.3,0-18.5,8.2-18.5,18.6c0,0,0,26.8,0,26.9h0v85.8
		c0,10.6,8.2,18.8,18.7,18.8c10.4,0,18.5-8.2,18.5-18.6c0-0.1,0-0.1,0-0.2h0v-85.8L-268.5,340.6z"/>
	<path class="st0" d="M-212.4,378.1c0-10.4-8.3-18.7-18.7-18.7c-10.3,0-18.5,8.2-18.5,18.6c0,0,0,0,0,0.1l0,75.1
		c0,10.6,8.2,18.8,18.7,18.8c10.4,0,18.5-8.2,18.5-18.6c0-0.1,0-0.1,0-0.2h0L-212.4,378.1L-212.4,378.1z"/>
</g>
</svg>
