<?xml version="1.0" encoding="utf-8"?>
<!-- Generator: Adobe Illustrator 19.0.0, SVG Export Plug-In . SVG Version: 6.00 Build 0)  -->
<svg version="1.1" id="Layer_1" xmlns="http://www.w3.org/2000/svg" xmlns:xlink="http://www.w3.org/1999/xlink" x="0px" y="0px"
	 viewBox="-363.5 321.5 150 150" style="enable-background:new -363.5 321.5 150 150;" xml:space="preserve">
<style type="text/css">
	.st0{fill:#818282;}
</style>
<g>
	<path class="st0" d="M-252.4,375.8c7.9-7.9,7.9-20.5,0-28.3c-3-3-6.8-4.9-10.6-5.5v-0.6h-52.4l-13.9-13.9v0
		c-7.9-7.9-20.5-7.9-28.3,0c-7.8,7.9-7.8,20.2,0.1,28.1c0,0,0.1,0,0.1,0.1l13.9,13.9V422h0.5c0.7,3.9,2.5,7.7,5.7,10.9
		c7.9,7.8,20.3,7.8,28.1,0c0-0.1,0.1-0.1,0.1-0.2l0,0L-252.4,375.8L-252.4,375.8z"/>
	<circle class="st0" cx="-243" cy="442" r="10"/>
	<circle class="st0" cx="-263.1" cy="422" r="10"/>
	<circle class="st0" cx="-243" cy="401.9" r="10"/>
	<circle class="st0" cx="-263.1" cy="461.5" r="10"/>
	<circle class="st0" cx="-223.6" cy="422" r="10"/>
	<circle class="st0" cx="-223.6" cy="461.5" r="10"/>
	<circle class="st0" cx="-283.2" cy="442" r="10"/>
</g>
</svg>
