<?xml version="1.0" encoding="utf-8"?>
<!-- Generator: Adobe Illustrator 19.0.0, SVG Export Plug-In . SVG Version: 6.00 Build 0)  -->
<svg version="1.1" id="Layer_1" xmlns="http://www.w3.org/2000/svg" xmlns:xlink="http://www.w3.org/1999/xlink" x="0px" y="0px"
	 viewBox="-361.9 322.2 150 150" style="enable-background:new -361.9 322.2 150 150;" xml:space="preserve">
<style type="text/css">
	.st0{fill:#818282;}
</style>
<path class="st0" d="M-315.2,397.8c10.5,0,19-8.5,19-19s-8.5-19-19-19c-10.5,0-19,8.5-19,19S-325.7,397.8-315.2,397.8 M-212,396.6
	c0-20.2-16.4-36.6-36.6-36.6h-38.7v37.5h75.3V396.6z M-221.4,406.6v-0.3H-343v-65.3c-10.4,0-18.9,8.5-18.9,18.9v74.8
	c0,10.4,8.5,18.9,18.9,18.9v-28.2h112.2v28.2c10.4,0,18.9-8.5,18.9-18.9v-28H-221.4z"/>
</svg>
