<?xml version="1.0" encoding="utf-8"?>
<!-- Generator: Adobe Illustrator 16.0.0, SVG Export Plug-In . SVG Version: 6.00 Build 0)  -->
<!DOCTYPE svg PUBLIC "-//W3C//DTD SVG 1.1//EN" "http://www.w3.org/Graphics/SVG/1.1/DTD/svg11.dtd">
<svg version="1.1" id="Layer_1" xmlns="http://www.w3.org/2000/svg" xmlns:xlink="http://www.w3.org/1999/xlink" x="0px" y="0px"
	 width="18.116px" height="13.599px" viewBox="0 0 18.116 13.599" enable-background="new 0 0 18.116 13.599" xml:space="preserve">
<path fill="#818282" d="M5.65,6.873c1.27,0,2.3-1.03,2.3-2.3s-1.03-2.3-2.3-2.3c-1.271,0-2.3,1.03-2.3,2.3S4.379,6.873,5.65,6.873
	 M18.107,6.731c0-2.442-1.979-4.42-4.42-4.42h-4.67v4.525h9.09V6.731z M16.975,7.931v-0.04H2.283V0C1.022,0,0,1.022,0,2.283v9.034
	c0,1.26,1.022,2.282,2.283,2.282v-3.405h13.551v3.405c1.26,0,2.282-1.022,2.282-2.282V7.931H16.975z"/>
</svg>
