<?xml version="1.0" encoding="utf-8"?>
<!-- Generator: Adobe Illustrator 19.0.0, SVG Export Plug-In . SVG Version: 6.00 Build 0)  -->
<svg version="1.1" id="Layer_1" xmlns="http://www.w3.org/2000/svg" xmlns:xlink="http://www.w3.org/1999/xlink" x="0px" y="0px"
	 viewBox="-362 321.9 150 150" style="enable-background:new -362 321.9 150 150;" xml:space="preserve">
<style type="text/css">
	.st0{fill:#818282;}
</style>
<path class="st0" d="M-231.6,321.9l-33.4,0.3h-32.2c-10.2,0-18.5,8.1-18.5,18.3v18.9l-27.6-0.2c-10.2,0-18.5,8.4-18.5,18.6v75.5
	c0,10.2,8.3,18.5,18.5,18.5h44.7c0.4,0,0.9,0.1,1.3,0.1h66.1c10.2,0,18.6-8.4,18.6-18.6l0.3-112.2
	C-212.2,330.9-221.4,321.9-231.6,321.9z M-272.7,388.1c0,5-4,9-9,9h-10.1c-5,0-9-4.1-9-9c0-5,4-9.1,9-9.1h10.1
	C-276.7,379-272.7,383-272.7,388.1z M-300.9,415.6c0-5,4-9.1,9-9.1h10.1c5,0,9,4,9,9.1c0,5-4,9.1-9,9.1h-10.1
	C-296.8,424.7-300.9,420.6-300.9,415.6z M-300.9,443.2c0-5,4-9.1,9-9.1h10.1c5,0,9,4,9,9.1c0,5-4,9.1-9,9.1h-10.1
	C-296.8,452.2-300.9,448.2-300.9,443.2z M-291.8,351.3h10.1c5,0,9.1,4,9.1,9.1c0,2.4-1,4.6-2.5,6.2c-1.6,1.5-3.8,2.5-6.2,2.5h-10.1
	c-5,0-9-4.1-9-9c0-0.2,0.1-0.4,0.1-0.6h-0.3C-300.2,354.9-296.5,351.3-291.8,351.3z M-334.2,379h10.1c3.9,0,7.1,2.5,8.4,5.9v6.3
	c-1.3,3.4-4.5,5.9-8.4,5.9h-10.1c-5,0-9-4.1-9-9C-343.3,383-339.2,379-334.2,379z M-334.2,406.6h10.1c3.9,0,7.1,2.5,8.4,5.9v6.3
	c-1.3,3.4-4.5,5.9-8.4,5.9h-10.1c-5,0-9-4.1-9-9.1C-343.3,410.6-339.2,406.6-334.2,406.6z M-324.1,452.2h-10.1c-5,0-9-4.1-9-9.1
	c0-5,4-9.1,9-9.1h10.1c3.9,0,7.1,2.5,8.4,5.9v6.3C-317,449.7-320.2,452.2-324.1,452.2z M-239.3,452.2h-10.1c-5,0-9-4.1-9-9.1
	c0-5,4-9.1,9-9.1h10.1c5,0,9,4,9,9.1C-230.3,448.2-234.3,452.2-239.3,452.2z M-239.3,424.7h-10.1c-4.8,0-8.7-3.8-9-8.6l0-0.9
	c0.2-4.8,4.1-8.6,8.9-8.6h10.1c5,0,9,4,9,9.1C-230.3,420.6-234.3,424.7-239.3,424.7z M-239.3,397.1h-10.1c-4.7,0-8.4-3.6-8.9-8.1
	v-1.8c0.5-4.5,4.2-8.1,8.9-8.1h10.1c5,0,9,4,9,9.1C-230.3,393-234.3,397.1-239.3,397.1z M-239.3,369.4h-10.1c-5,0-9-4.1-9-9
	c0-5,4-9.1,9-9.1h10.1c5,0,9,4,9,9.1C-230.3,365.4-234.3,369.4-239.3,369.4z"/>
</svg>
