<?xml version="1.0" encoding="utf-8"?>
<!-- Generator: Adobe Illustrator 19.0.0, SVG Export Plug-In . SVG Version: 6.00 Build 0)  -->
<svg version="1.1" id="Layer_1" xmlns="http://www.w3.org/2000/svg" xmlns:xlink="http://www.w3.org/1999/xlink" x="0px" y="0px"
	 viewBox="-361.9 322.1 150 150" style="enable-background:new -361.9 322.1 150 150;" xml:space="preserve">
<style type="text/css">
	.st0{fill:#818282;}
</style>
<path class="st0" d="M-221.7,368.9L-221.7,368.9v-18.5c0-10.3-8.4-18.7-18.7-18.7c-8.2,0-15,5.3-17.6,12.6l-84.9,15.5
	c-10.5,0-19,8.5-19,19s8.5,19,19,19l9,1.6v30.8c0,5.2,2.9,9.6,7.1,12l16.3,16.3c5.4,5.4,14.2,5.4,19.6,0c5.4-5.4,5.4-14.2,0-19.6
	l-15.3-15.3v-19.4l48.2,8.5c2.6,7.2,9.4,12.4,17.5,12.4c10.3,0,18.7-8.4,18.7-18.7v-17.9c5.4,0,9.8-4.4,9.8-9.8
	S-216.3,368.9-221.7,368.9"/>
</svg>
