<?xml version="1.0" encoding="utf-8"?>
<!-- Generator: Adobe Illustrator 16.0.0, SVG Export Plug-In . SVG Version: 6.00 Build 0)  -->
<!DOCTYPE svg PUBLIC "-//W3C//DTD SVG 1.1//EN" "http://www.w3.org/Graphics/SVG/1.1/DTD/svg11.dtd">
<svg version="1.1" id="Layer_1" xmlns="http://www.w3.org/2000/svg" xmlns:xlink="http://www.w3.org/1999/xlink" x="0px" y="0px"
	 width="18.163px" height="15.843px" viewBox="0 0 18.163 15.843" enable-background="new 0 0 18.163 15.843" xml:space="preserve">
<path fill="#818282" d="M16.975,4.509L16.975,4.509V2.263c0-1.25-1.013-2.263-2.263-2.263c-0.988,0-1.82,0.637-2.128,1.52
	L2.302,3.395C1.031,3.395,0,4.426,0,5.697s1.031,2.302,2.302,2.302l1.094,0.192v3.73c0,0.626,0.348,1.166,0.856,1.455l1.977,1.976
	c0.655,0.655,1.718,0.655,2.373,0c0.656-0.655,0.656-1.718,0-2.374l-1.85-1.849V8.783l5.836,1.028
	c0.313,0.875,1.141,1.506,2.124,1.506c1.25,0,2.263-1.014,2.263-2.264V6.884c0.656,0,1.188-0.531,1.188-1.187
	C18.163,5.041,17.631,4.509,16.975,4.509"/>
</svg>
