<?xml version="1.0" encoding="utf-8"?>
<!-- Generator: Adobe Illustrator 16.0.0, SVG Export Plug-In . SVG Version: 6.00 Build 0)  -->
<!DOCTYPE svg PUBLIC "-//W3C//DTD SVG 1.1//EN" "http://www.w3.org/Graphics/SVG/1.1/DTD/svg11.dtd">
<svg version="1.1" id="Layer_1" xmlns="http://www.w3.org/2000/svg" xmlns:xlink="http://www.w3.org/1999/xlink" x="0px" y="0px"
	 width="18.107px" height="18.111px" viewBox="0 0 18.107 18.111" enable-background="new 0 0 18.107 18.111" xml:space="preserve">
<path fill="#818282" d="M15.837,2.256h-0.011c0.001-1.253-1.004-2.26-2.26-2.256c-1.248,0.003-2.233,0.99-2.233,2.247
	c0,0.003,0.001,0.006,0.001,0.009H6.773C6.774,1.003,5.769-0.004,4.513,0C3.265,0.003,2.28,0.99,2.28,2.247
	c0,0.003,0.001,0.006,0.001,0.009H2.27C1.017,2.256,0,3.272,0,4.525v11.316c0,1.253,1.018,2.27,2.271,2.27h13.566
	c1.254,0,2.271-1.017,2.271-2.27V4.525C18.107,3.272,17.091,2.256,15.837,2.256z M3.41,15.877c-0.633,0-1.146-0.513-1.146-1.146
	s0.513-1.146,1.146-1.146s1.146,0.515,1.146,1.146S4.043,15.877,3.41,15.877z M3.41,12.469c-0.633,0-1.146-0.514-1.146-1.146
	s0.513-1.146,1.146-1.146s1.146,0.514,1.146,1.146S4.043,12.469,3.41,12.469z M3.41,9.087c-0.633,0-1.146-0.513-1.146-1.146
	S2.777,6.795,3.41,6.795s1.146,0.515,1.146,1.146S4.043,9.087,3.41,9.087z M5.683,3.385c0,0.622-0.505,1.128-1.127,1.128
	S3.429,4.008,3.429,3.385V2.294c0-0.623,0.505-1.127,1.127-1.127s1.127,0.504,1.127,1.127V3.385z M7.182,15.877
	c-0.634,0-1.146-0.513-1.146-1.146s0.513-1.146,1.146-1.146c0.633,0,1.146,0.515,1.146,1.146S7.815,15.877,7.182,15.877z
	 M7.182,12.469c-0.634,0-1.146-0.514-1.146-1.146s0.513-1.146,1.146-1.146c0.633,0,1.146,0.514,1.146,1.146
	S7.815,12.469,7.182,12.469z M7.182,9.087c-0.634,0-1.146-0.513-1.146-1.146s0.513-1.146,1.146-1.146
	c0.633,0,1.146,0.515,1.146,1.146S7.815,9.087,7.182,9.087z M10.954,15.877c-0.633,0-1.146-0.513-1.146-1.146
	s0.513-1.146,1.146-1.146s1.146,0.515,1.146,1.146S11.587,15.877,10.954,15.877z M10.954,12.469c-0.633,0-1.146-0.514-1.146-1.146
	s0.513-1.146,1.146-1.146S12.1,10.69,12.1,11.323S11.587,12.469,10.954,12.469z M10.954,9.087c-0.633,0-1.146-0.513-1.146-1.146
	s0.513-1.146,1.146-1.146S12.1,7.309,12.1,7.941S11.587,9.087,10.954,9.087z M12.453,3.385V2.294c0-0.623,0.505-1.127,1.127-1.127
	c0.623,0,1.127,0.504,1.127,1.127v1.092c0,0.622-0.504,1.128-1.127,1.128C12.958,4.513,12.453,4.008,12.453,3.385z M14.726,15.877
	c-0.634,0-1.146-0.513-1.146-1.146s0.513-1.146,1.146-1.146c0.633,0,1.146,0.515,1.146,1.146S15.359,15.877,14.726,15.877z
	 M14.726,12.469c-0.634,0-1.146-0.514-1.146-1.146s0.513-1.146,1.146-1.146c0.633,0,1.146,0.514,1.146,1.146
	S15.359,12.469,14.726,12.469z M14.726,9.055c-0.634,0-1.146-0.513-1.146-1.146s0.513-1.146,1.146-1.146
	c0.633,0,1.146,0.515,1.146,1.146S15.359,9.055,14.726,9.055z"/>
</svg>
