<?xml version="1.0" encoding="utf-8"?>
<!-- Generator: Adobe Illustrator 19.0.0, SVG Export Plug-In . SVG Version: 6.00 Build 0)  -->
<svg version="1.1" id="Layer_1" xmlns="http://www.w3.org/2000/svg" xmlns:xlink="http://www.w3.org/1999/xlink" x="0px" y="0px"
	 viewBox="-361.9 321.9 150 150" style="enable-background:new -361.9 321.9 150 150;" xml:space="preserve">
<style type="text/css">
	.st0{fill:#818282;}
</style>
<path class="st0" d="M-230.8,340.6L-230.8,340.6c-0.1-10.4-8.4-18.7-18.8-18.7c-10.3,0-18.5,8.2-18.5,18.6c0,0,0,0,0,0.1h-37.8
	c0-10.4-8.3-18.7-18.7-18.7c-10.3,0-18.5,8.2-18.5,18.6c0,0,0,0,0,0.1h-0.1c-10.4,0-18.8,8.4-18.8,18.8v93.7
	c0,10.4,8.4,18.8,18.8,18.8h112.4c10.4,0,18.8-8.4,18.8-18.8v-93.7C-212,349-220.4,340.6-230.8,340.6z M-333.7,453.4
	c-5.2,0-9.5-4.2-9.5-9.5s4.2-9.5,9.5-9.5c5.2,0,9.5,4.3,9.5,9.5S-328.4,453.4-333.7,453.4z M-333.7,425.2c-5.2,0-9.5-4.3-9.5-9.5
	s4.2-9.5,9.5-9.5c5.2,0,9.5,4.3,9.5,9.5S-328.4,425.2-333.7,425.2z M-333.7,397.2c-5.2,0-9.5-4.2-9.5-9.5c0-5.2,4.2-9.5,9.5-9.5
	c5.2,0,9.5,4.3,9.5,9.5S-328.4,397.2-333.7,397.2z M-314.9,350c0,5.2-4.2,9.3-9.3,9.3s-9.3-4.2-9.3-9.3v-9c0-5.2,4.2-9.3,9.3-9.3
	c5.2,0,9.3,4.2,9.3,9.3C-314.9,340.9-314.9,350-314.9,350z M-302.5,453.4c-5.3,0-9.5-4.2-9.5-9.5s4.2-9.5,9.5-9.5
	c5.2,0,9.5,4.3,9.5,9.5S-297.2,453.4-302.5,453.4z M-302.5,425.2c-5.3,0-9.5-4.3-9.5-9.5s4.2-9.5,9.5-9.5c5.2,0,9.5,4.3,9.5,9.5
	S-297.2,425.2-302.5,425.2z M-302.5,397.2c-5.3,0-9.5-4.2-9.5-9.5c0-5.2,4.2-9.5,9.5-9.5c5.2,0,9.5,4.3,9.5,9.5
	S-297.2,397.2-302.5,397.2z M-271.2,453.4c-5.2,0-9.5-4.2-9.5-9.5s4.2-9.5,9.5-9.5c5.2,0,9.5,4.3,9.5,9.5S-266,453.4-271.2,453.4z
	 M-271.2,425.2c-5.2,0-9.5-4.3-9.5-9.5s4.2-9.5,9.5-9.5c5.2,0,9.5,4.2,9.5,9.5S-266,425.2-271.2,425.2z M-271.2,397.2
	c-5.2,0-9.5-4.2-9.5-9.5c0-5.2,4.2-9.5,9.5-9.5c5.2,0,9.5,4.3,9.5,9.5C-261.7,392.9-266,397.2-271.2,397.2z M-258.8,350v-9
	c0-5.2,4.2-9.3,9.3-9.3c5.2,0,9.3,4.2,9.3,9.3v9c0,5.2-4.2,9.3-9.3,9.3C-254.6,359.3-258.8,355.1-258.8,350z M-240,453.4
	c-5.3,0-9.5-4.2-9.5-9.5s4.2-9.5,9.5-9.5c5.2,0,9.5,4.3,9.5,9.5S-234.7,453.4-240,453.4z M-240,425.2c-5.3,0-9.5-4.3-9.5-9.5
	s4.2-9.5,9.5-9.5c5.2,0,9.5,4.3,9.5,9.5S-234.7,425.2-240,425.2z M-240,396.9c-5.3,0-9.5-4.2-9.5-9.5c0-5.2,4.2-9.5,9.5-9.5
	c5.2,0,9.5,4.3,9.5,9.5S-234.7,396.9-240,396.9z"/>
</svg>
