<?xml version="1.0" encoding="utf-8"?>
<!-- Generator: Adobe Illustrator 16.0.0, SVG Export Plug-In . SVG Version: 6.00 Build 0)  -->
<!DOCTYPE svg PUBLIC "-//W3C//DTD SVG 1.1//EN" "http://www.w3.org/Graphics/SVG/1.1/DTD/svg11.dtd">
<svg version="1.1" id="Camada_1" xmlns="http://www.w3.org/2000/svg" xmlns:xlink="http://www.w3.org/1999/xlink" x="0px" y="0px"
	 width="18.105px" height="18.109px" viewBox="0 0 18.105 18.109" enable-background="new 0 0 18.105 18.109" xml:space="preserve">
<g id="XMLID_23_">
	<path id="XMLID_290_" d="M15.836,2.256h-0.01c0.001-1.253-1.005-2.26-2.262-2.256c-1.248,0.003-2.232,0.989-2.232,2.247
		c0,0.003,0.001,0.006,0.001,0.009H6.773C6.774,1.003,5.769-0.004,4.513,0C3.265,0.003,2.281,0.99,2.281,2.247
		c0,0.003,0.002,0.006,0.002,0.009H2.27C1.017,2.256,0,3.272,0,4.524v11.318c0,1.252,1.017,2.267,2.27,2.267h13.566
		c1.254,0,2.27-1.015,2.27-2.267V4.524C18.106,3.272,17.09,2.256,15.836,2.256 M5.683,3.386c0,0.622-0.505,1.127-1.127,1.127
		S3.429,4.008,3.429,3.386V2.294c0-0.623,0.505-1.127,1.127-1.127s1.127,0.504,1.127,1.127V3.386z M12.454,3.386V2.294
		c0-0.623,0.504-1.127,1.126-1.127c0.624,0,1.126,0.504,1.126,1.127v1.092c0,0.622-0.502,1.127-1.126,1.127
		C12.958,4.513,12.454,4.008,12.454,3.386 M17.003,15.498H1.17V5.394h15.833V15.498z"/>
	<g id="XMLID_198_">
		<g>
			<path d="M4.881,10.7v3.715c0.013,0.146,0.1,0.416,0.578,0.416h2.521V10.7H4.881z"/>
			<path d="M10.124,14.831h2.525c0,0,0.284-0.001,0.425-0.221V14.61c0.046-0.07,0.074-0.164,0.074-0.289V10.7h-3.024V14.831z"/>
			<path d="M13.182,8.156H9.41C9.543,8.07,9.745,7.99,9.929,7.916c0.433-0.174,0.921-0.367,1.082-0.771
				c0.08-0.208,0.062-0.438-0.053-0.689c-0.148-0.32-0.357-0.386-0.504-0.386c-0.487,0-1.005,0.813-1.401,1.622
				c-0.395-0.809-0.913-1.622-1.4-1.622c-0.147,0-0.356,0.065-0.505,0.386C7.032,6.707,7.015,6.939,7.097,7.146
				c0.158,0.402,0.647,0.597,1.079,0.771C8.363,7.99,8.563,8.07,8.695,8.156H4.835C4.689,8.173,4.485,8.254,4.485,8.581v1.194v0.083
				c0.009,0.121,0.068,0.336,0.396,0.336h8.268c0.454,0,0.475-0.388,0.475-0.388V8.581C13.622,8.195,13.293,8.157,13.182,8.156z
				 M10.454,6.522c0.01,0,0.05,0.03,0.094,0.124c0.061,0.137,0.076,0.244,0.041,0.333c-0.087,0.221-0.479,0.377-0.827,0.517
				c-0.04,0.015-0.081,0.032-0.12,0.047C10.023,6.845,10.329,6.522,10.454,6.522z M8.344,7.496C7.998,7.357,7.604,7.2,7.517,6.979
				C7.482,6.89,7.496,6.782,7.559,6.646c0.045-0.093,0.082-0.124,0.094-0.124c0.123,0,0.433,0.323,0.812,1.021
				C8.427,7.528,8.385,7.511,8.344,7.496z"/>
		</g>
	</g>
</g>
</svg>
