<?xml version="1.0" encoding="utf-8"?>
<!-- Generator: Adobe Illustrator 19.0.0, SVG Export Plug-In . SVG Version: 6.00 Build 0)  -->
<svg version="1.1" id="Camada_1" xmlns="http://www.w3.org/2000/svg" xmlns:xlink="http://www.w3.org/1999/xlink" x="0px" y="0px"
	 viewBox="-361.9 321.9 150 150" style="enable-background:new -361.9 321.9 150 150;" xml:space="preserve">
<g id="XMLID_23_">
	<path id="XMLID_290_" d="M-230.8,340.6L-230.8,340.6c-0.1-10.4-8.4-18.7-18.8-18.7c-10.3,0-18.5,8.2-18.5,18.6c0,0,0,0,0,0.1h-37.8
		c0-10.4-8.3-18.7-18.7-18.7c-10.3,0-18.5,8.2-18.5,18.6c0,0,0,0,0,0.1h-0.1c-10.4,0-18.8,8.4-18.8,18.8v93.7
		c0,10.4,8.4,18.8,18.8,18.8h112.4c10.4,0,18.8-8.4,18.8-18.8v-93.7C-212,349-220.4,340.6-230.8,340.6 M-314.9,350
		c0,5.2-4.2,9.3-9.3,9.3s-9.3-4.2-9.3-9.3v-9c0-5.2,4.2-9.3,9.3-9.3s9.3,4.2,9.3,9.3C-314.9,340.9-314.9,350-314.9,350z M-258.8,350
		v-9c0-5.2,4.2-9.3,9.3-9.3c5.2,0,9.3,4.2,9.3,9.3v9c0,5.2-4.2,9.3-9.3,9.3C-254.6,359.3-258.8,355.1-258.8,350 M-221.1,450.3
		h-131.1v-83.7h131.1V450.3z"/>
	<g id="XMLID_198_">
		<g>
			<path d="M-321.5,410.6v30.8c0.1,1.2,0.8,3.4,4.8,3.4h20.9v-34.2H-321.5z"/>
			<path d="M-278.1,444.8h20.9c0,0,2.4,0,3.5-1.8v0c0.4-0.6,0.6-1.4,0.6-2.4v-30h-25C-278.1,410.6-278.1,444.8-278.1,444.8z"/>
			<path d="M-252.7,389.5H-284c1.1-0.7,2.8-1.4,4.3-2c3.6-1.4,7.6-3,9-6.4c0.7-1.7,0.5-3.6-0.4-5.7c-1.2-2.7-3-3.2-4.2-3.2
				c-4,0-8.3,6.7-11.6,13.4c-3.3-6.7-7.6-13.4-11.6-13.4c-1.2,0-2.9,0.5-4.2,3.2c-1,2.1-1.1,4-0.4,5.7c1.3,3.3,5.4,4.9,8.9,6.4
				c1.5,0.6,3.2,1.3,4.3,2h-32c-1.2,0.1-2.9,0.8-2.9,3.5v9.9v0.7c0.1,1,0.6,2.8,3.3,2.8h68.5c3.8,0,3.9-3.2,3.9-3.2V393
				C-249.1,389.8-251.8,389.5-252.7,389.5z M-275.3,376c0.1,0,0.4,0.2,0.8,1c0.5,1.1,0.6,2,0.3,2.8c-0.7,1.8-4,3.1-6.9,4.3
				c-0.3,0.1-0.7,0.3-1,0.4C-278.9,378.6-276.4,376-275.3,376z M-292.8,384c-2.9-1.2-6.1-2.5-6.9-4.3c-0.3-0.7-0.2-1.6,0.3-2.8
				c0.4-0.8,0.7-1,0.8-1c1,0,3.6,2.7,6.7,8.5C-292.1,384.3-292.5,384.2-292.8,384z"/>
		</g>
	</g>
</g>
</svg>
