<?xml version="1.0" encoding="utf-8"?>
<!-- Generator: Adobe Illustrator 19.0.0, SVG Export Plug-In . SVG Version: 6.00 Build 0)  -->
<svg version="1.1" id="Camada_1" xmlns="http://www.w3.org/2000/svg" xmlns:xlink="http://www.w3.org/1999/xlink" x="0px" y="0px"
	 viewBox="-361.9 321.9 150 150" style="enable-background:new -361.9 321.9 150 150;" xml:space="preserve">
<g>
	<g>
		<g>
			<path d="M-230.8,340.6L-230.8,340.6c-0.1-10.4-8.4-18.7-18.8-18.7c-10.3,0-18.5,8.2-18.5,18.6c0,0,0,0,0,0.1h-37.8
				c0-10.4-8.3-18.7-18.7-18.7c-10.3,0-18.5,8.2-18.5,18.6c0,0,0,0,0,0.1h-0.1c-10.4,0-18.8,8.4-18.8,18.8v93.7
				c0,10.4,8.4,18.8,18.8,18.8h112.3c10.4,0,18.8-8.4,18.8-18.8v-93.7C-212,349-220.4,340.6-230.8,340.6z M-258.8,340.9
				c0-5.2,4.2-9.3,9.3-9.3c5.2,0,9.3,4.2,9.3,9.3v9c0,5.1-4.2,9.3-9.3,9.3c-5.1,0-9.3-4.2-9.3-9.3V340.9z M-333.5,340.9
				c0-5.2,4.2-9.3,9.3-9.3s9.3,4.2,9.3,9.3v9c0,5.1-4.2,9.3-9.3,9.3c-5.2,0-9.3-4.2-9.3-9.3C-333.5,350-333.5,340.9-333.5,340.9z
				 M-352.2,450.3v-83.7h131.1v83.7H-352.2z"/>
		</g>
	</g>
	<path d="M-262.9,400.3L-262.9,400.3l-0.1-0.1l-5-12.4c-0.1-0.3-0.3-0.5-0.5-0.8c-2-4-6.1-6.7-10.6-6.7h-15.8
		c-4.6,0-8.6,2.6-10.6,6.7c-0.2,0.3-0.4,0.6-0.5,0.9l-4.8,12.3l-0.1,0.1h-0.1c-4.4,0-7.9,3.6-7.9,7.9v8.1c0,4.4,3.6,7.9,7.9,7.9h0.1
		v4.1c0,4.4,3.6,8,8,8c4.4,0,8-3.6,8-8v-4.1h16v4.1c0,4.4,3.6,8,8,8c4.4,0,8-3.6,8-8v-4.1h0.1c4.4,0,7.9-3.6,7.9-7.9v-8.1
		C-254.9,403.9-258.5,400.3-262.9,400.3z M-306.9,416.7c-2.2,0-4-1.8-4-4c0-2.2,1.8-4,4-4c2.2,0,4,1.8,4,4
		C-302.9,414.9-304.7,416.7-306.9,416.7z M-302.9,400.7l0.1-0.2l3.2-8.1c1.2-3,4-5,7.2-5.1c0.1,0,0.2,0,0.2,0h10.5
		c0.1,0,0.2,0,0.2,0c3.2,0.1,6,2,7.2,5l3.3,8.2l0.1,0.2L-302.9,400.7L-302.9,400.7z M-267,416.7c-2.2,0-4-1.8-4-4c0-2.2,1.8-4,4-4
		c2.2,0,4,1.8,4,4C-263,414.9-264.8,416.7-267,416.7z"/>
</g>
</svg>
