<?xml version="1.0" encoding="utf-8"?>
<!-- Generator: Adobe Illustrator 16.0.0, SVG Export Plug-In . SVG Version: 6.00 Build 0)  -->
<!DOCTYPE svg PUBLIC "-//W3C//DTD SVG 1.1//EN" "http://www.w3.org/Graphics/SVG/1.1/DTD/svg11.dtd">
<svg version="1.1" id="Camada_1" xmlns="http://www.w3.org/2000/svg" xmlns:xlink="http://www.w3.org/1999/xlink" x="0px" y="0px"
	 width="18.113px" height="18.117px" viewBox="0 0 18.113 18.117" enable-background="new 0 0 18.113 18.117" xml:space="preserve">
<g>
	<g>
		<g>
			<path d="M15.842,2.257h-0.01C15.833,1.003,14.828-0.004,13.57,0c-1.249,0.003-2.234,0.99-2.234,2.248
				c0,0.003,0.001,0.006,0.001,0.009H6.775C6.776,1.003,5.771-0.004,4.514,0C3.266,0.003,2.282,0.99,2.282,2.248
				c0,0.003,0.001,0.006,0.001,0.009H2.271C1.017,2.257,0,3.274,0,4.526v11.322c0,1.254,1.019,2.271,2.271,2.271h13.569
				c1.256,0,2.271-1.017,2.271-2.271V4.526C18.113,3.274,17.096,2.257,15.842,2.257z M12.458,2.295c0-0.624,0.504-1.127,1.126-1.127
				c0.624,0,1.127,0.504,1.127,1.127v1.092c0,0.622-0.503,1.127-1.127,1.127c-0.622,0-1.126-0.505-1.126-1.127V2.295z M3.431,2.295
				c0-0.624,0.505-1.127,1.127-1.127s1.127,0.504,1.127,1.127v1.092c0,0.622-0.505,1.127-1.127,1.127
				c-0.623,0-1.127-0.505-1.127-1.127V2.295z M1.17,15.503V5.396h15.838v10.107H1.17z"/>
		</g>
	</g>
	<path d="M11.963,9.471h-0.012l-0.006-0.016l-0.607-1.497c-0.015-0.036-0.04-0.063-0.058-0.097
		c-0.243-0.487-0.732-0.806-1.282-0.806H8.093c-0.55,0-1.038,0.32-1.281,0.806c-0.021,0.039-0.05,0.071-0.065,0.113l-0.58,1.481
		L6.16,9.471H6.147c-0.527,0-0.958,0.431-0.958,0.958v0.982c0,0.529,0.431,0.959,0.958,0.959h0.011v0.5
		c0,0.533,0.433,0.965,0.966,0.965c0.531,0,0.966-0.432,0.966-0.965v-0.5h1.932v0.5c0,0.533,0.435,0.965,0.966,0.965
		c0.533,0,0.968-0.432,0.968-0.965v-0.5h0.009c0.529,0,0.958-0.43,0.958-0.959V10.43C12.921,9.898,12.492,9.471,11.963,9.471z
		 M6.642,11.443c-0.267,0-0.482-0.217-0.482-0.482s0.217-0.482,0.482-0.482c0.267,0,0.483,0.217,0.483,0.482
		S6.909,11.443,6.642,11.443z M7.125,9.512l0.009-0.023l0.385-0.982c0.142-0.362,0.486-0.6,0.871-0.611
		c0.01,0,0.02-0.004,0.029-0.004h1.272c0.01,0,0.02,0.004,0.029,0.004c0.383,0.012,0.725,0.244,0.869,0.6l0.402,0.994l0.01,0.023
		H7.125z M11.469,11.443c-0.268,0-0.484-0.217-0.484-0.482s0.219-0.482,0.484-0.482s0.482,0.217,0.482,0.482
		S11.734,11.443,11.469,11.443z"/>
</g>
</svg>
