<?xml version="1.0" encoding="utf-8"?>
<!-- Generator: Adobe Illustrator 19.0.0, SVG Export Plug-In . SVG Version: 6.00 Build 0)  -->
<svg version="1.1" id="Camada_1" xmlns="http://www.w3.org/2000/svg" xmlns:xlink="http://www.w3.org/1999/xlink" x="0px" y="0px"
	 viewBox="-361.9 321.9 150 150" style="enable-background:new -361.9 321.9 150 150;" xml:space="preserve">
<g id="XMLID_3151_">
	<g id="XMLID_181_">
		<path id="XMLID_183_" d="M-230.8,340.6L-230.8,340.6c-0.1-10.4-8.4-18.7-18.8-18.7c-10.3,0-18.5,8.2-18.5,18.6c0,0,0,0,0,0.1
			h-37.8c0-10.4-8.3-18.7-18.7-18.7c-10.3,0-18.5,8.2-18.5,18.6c0,0,0,0,0,0.1h-0.1c-10.4,0-18.8,8.4-18.8,18.8v93.7
			c0,10.4,8.4,18.8,18.8,18.8h112.4c10.4,0,18.8-8.4,18.8-18.8v-93.7C-212,349-220.4,340.6-230.8,340.6 M-314.9,350
			c0,5.2-4.2,9.3-9.3,9.3s-9.3-4.2-9.3-9.3v-9c0-5.2,4.2-9.3,9.3-9.3s9.3,4.2,9.3,9.3C-314.9,340.9-314.9,350-314.9,350z
			 M-258.8,350v-9c0-5.2,4.2-9.3,9.3-9.3c5.2,0,9.3,4.2,9.3,9.3v9c0,5.2-4.2,9.3-9.3,9.3C-254.6,359.3-258.8,355.1-258.8,350
			 M-221.1,450.3h-131.1v-83.7h131.1V450.3z M-323.1,400.3c3.7-3.6,9.6-3.6,13.3,0l11.9,11.8l30.4-29.9c3.7-3.6,9.6-3.6,13.3,0
			s3.7,9.5,0,13.1l-36.9,36.4c0,0,0,0,0,0c0,0,0,0.1-0.1,0.1c-3.7,3.6-9.6,3.6-13.3,0l-18.6-18.3
			C-326.8,409.8-326.8,404-323.1,400.3"/>
	</g>
</g>
</svg>
