<?xml version="1.0" encoding="utf-8"?>
<!-- Generator: Adobe Illustrator 16.0.0, SVG Export Plug-In . SVG Version: 6.00 Build 0)  -->
<!DOCTYPE svg PUBLIC "-//W3C//DTD SVG 1.1//EN" "http://www.w3.org/Graphics/SVG/1.1/DTD/svg11.dtd">
<svg version="1.1" id="Camada_1" xmlns="http://www.w3.org/2000/svg" xmlns:xlink="http://www.w3.org/1999/xlink" x="0px" y="0px"
	 width="18.106px" height="18.109px" viewBox="0 0 18.106 18.109" enable-background="new 0 0 18.106 18.109" xml:space="preserve">
<path id="XMLID_87_" fill-rule="evenodd" clip-rule="evenodd" fill="#010101" d="M15.836,2.255h-0.01
	C15.827,1.003,14.822-0.004,13.565,0c-1.248,0.003-2.233,0.989-2.233,2.247c0,0.003,0.001,0.005,0.001,0.008H6.772
	C6.773,1.003,5.769-0.004,4.513,0C3.265,0.003,2.281,0.989,2.281,2.247c0,0.003,0.001,0.005,0.001,0.008H2.27
	C1.017,2.255,0,3.272,0,4.524v11.318c0,1.253,1.017,2.268,2.27,2.268h13.566c1.254,0,2.27-1.015,2.27-2.268V4.524
	C18.106,3.272,17.09,2.255,15.836,2.255 M5.683,3.385c0,0.622-0.505,1.127-1.127,1.127S3.429,4.007,3.429,3.385V2.293
	c0-0.623,0.505-1.126,1.127-1.126s1.127,0.504,1.127,1.126V3.385z M12.454,3.385V2.293c0-0.623,0.503-1.126,1.125-1.126
	c0.624,0,1.127,0.504,1.127,1.126v1.092c0,0.622-0.503,1.127-1.127,1.127C12.957,4.512,12.454,4.007,12.454,3.385 M17.002,15.497
	H1.17V5.394h15.833V15.497z"/>
</svg>
