<?xml version="1.0" encoding="utf-8"?>
<!-- Generator: Adobe Illustrator 19.0.0, SVG Export Plug-In . SVG Version: 6.00 Build 0)  -->
<svg version="1.1" id="Layer_1" xmlns="http://www.w3.org/2000/svg" xmlns:xlink="http://www.w3.org/1999/xlink" x="0px" y="0px"
	 viewBox="-361.9 321.6 150 150" style="enable-background:new -361.9 321.6 150 150;" xml:space="preserve">
<style type="text/css">
	.st0{fill:#818282;}
</style>
<g>
	<circle class="st0" cx="-286.9" cy="406.2" r="28.3"/>
	<path class="st0" d="M-230.8,354.7h-37.7v-0.4c0-10.4-8.2-18.8-18.6-18.8h-27.8c-10.4,0-18.8,8.4-18.8,18.8v0.4h-9.4
		c-10.4,0-18.8,8.4-18.8,18.8v65.4c0,10.4,8.4,18.8,18.8,18.8h112.4c10.4,0,18.8-8.4,18.8-18.8v-65.4
		C-211.9,363.1-220.4,354.7-230.8,354.7z M-286.9,444c-20.9,0-37.7-16.9-37.7-37.7s16.9-37.7,37.7-37.7c20.8,0,37.7,16.9,37.7,37.7
		S-266.1,444-286.9,444z M-240.4,382.5c-5.1,0-9.2-4.1-9.2-9.2s4.1-9.2,9.2-9.2c5.1,0,9.2,4.1,9.2,9.2S-235.3,382.5-240.4,382.5z"/>
</g>
</svg>
