<?xml version="1.0" encoding="utf-8"?>
<!-- Generator: Adobe Illustrator 19.2.1, SVG Export Plug-In . SVG Version: 6.00 Build 0)  -->
<svg version="1.1" id="Camada_1" xmlns="http://www.w3.org/2000/svg" xmlns:xlink="http://www.w3.org/1999/xlink" x="0px" y="0px"
	 width="150px" height="150px" viewBox="0 0 150 150" enable-background="new 0 0 150 150" xml:space="preserve">
<g>
	<path fill="#353535" d="M74,62c-6.7,0-12.3,2.3-17,7c-4.7,4.7-7,10.7-7,18c0,6.7,2.3,12.3,7,17c4.7,4.7,10.3,7,17,7
		c6.7,0,12.3-2.3,17-7c4.7-4.7,7-10.5,7-17.5c0-7-2.3-12.8-7-17.5C86.3,64.3,80.7,62,74,62z"/>
	<path fill="#353535" d="M144.5,35.5c-3.7-4.3-8.2-6.5-13.5-6.5H93v-1c0-6-1.7-10.7-5-14c-3.3-3.3-7.7-5-13-5H47
		c-5.3,0-9.8,1.7-13.5,5c-3.7,3.3-5.5,8-5.5,14v1h-9c-5.3,0-9.8,2.2-13.5,6.5C1.8,39.9,0,45.3,0,52v66c0,6.7,1.8,12.2,5.5,16.5
		c3.6,4.3,8.2,6.5,13.5,6.5h112c5.3,0,9.8-2.2,13.5-6.5c3.7-4.3,5.5-9.8,5.5-16.5V52C150,45.3,148.2,39.9,144.5,35.5z M107,105.5
		c-3.3,5.7-8,10.2-14,13.5c-6,3.3-12.3,5-19,5c-6.7,0-13-1.7-19-5c-6-3.3-10.7-7.8-14-13.5c-3.3-5.7-5-12-5-19c0-7,1.7-13.3,5-19
		c3.3-5.7,8-10.2,14-13.5c6-3.3,12.3-5,19-5c6.7,0,13,1.7,19,5c6,3.3,10.7,7.8,14,13.5c3.3,5.7,5,12,5,19
		C112,93.5,110.3,99.8,107,105.5z M126.8,61.8c-5.2,0-9.4-4.2-9.4-9.4s4.2-9.4,9.4-9.4c5.2,0,9.4,4.2,9.4,9.4S132,61.8,126.8,61.8z"
		/>
</g>
</svg>
