<?xml version="1.0" encoding="utf-8"?>
<!-- Generator: Adobe Illustrator 19.2.1, SVG Export Plug-In . SVG Version: 6.00 Build 0)  -->
<svg version="1.1" id="camera" xmlns="http://www.w3.org/2000/svg" xmlns:xlink="http://www.w3.org/1999/xlink" x="0px" y="0px"
	 width="150px" height="150px" viewBox="0 0 150 150" enable-background="new 0 0 150 150" xml:space="preserve">
<circle id="center-circle" fill="#232323" cx="75" cy="84.6" r="24.4"/>
<path id="camera-out" fill="#232323" d="M131.1,21.7H93.4v-0.5c0-12.8-8.5-19.3-18.9-19.3H46.7c-10.4,0-18.5,6.6-18.5,19.3v0.5h-9.4
	C8.4,21.7,0,32,0,44.8V125c0,12.8,8.4,23.1,18.8,23.1h112.4c10.4,0,18.8-10.3,18.8-23.1V44.8C150,32,141.5,21.7,131.1,21.7z
	 M75,122.4c-20.9,0-37.7-16.9-37.7-37.7C37.3,63.9,54.2,47,75,47c20.8,0,37.7,16.9,37.7,37.7C112.7,105.5,95.8,122.4,75,122.4z
	 M121.5,50.9c-5.1,0-9.2-4.1-9.2-9.2c0-5.1,4.1-9.2,9.2-9.2c5.1,0,9.2,4.1,9.2,9.2C130.7,46.8,126.6,50.9,121.5,50.9z"/>
</svg>
