<?xml version="1.0" encoding="utf-8"?>
<!-- Generator: Adobe Illustrator 16.0.0, SVG Export Plug-In . SVG Version: 6.00 Build 0)  -->
<!DOCTYPE svg PUBLIC "-//W3C//DTD SVG 1.1//EN" "http://www.w3.org/Graphics/SVG/1.1/DTD/svg11.dtd">
<svg version="1.1" id="Layer_1" xmlns="http://www.w3.org/2000/svg" xmlns:xlink="http://www.w3.org/1999/xlink" x="0px" y="0px"
	 width="18.113px" height="14.769px" viewBox="0 0 18.113 14.769" enable-background="new 0 0 18.113 14.769" xml:space="preserve">
<g>
	<circle fill="#818282" cx="9.057" cy="8.544" r="3.416"/>
	<path fill="#818282" d="M15.84,2.319h-4.557V2.273C11.283,1.018,10.289,0,9.033,0H5.68C4.424,0,3.406,1.018,3.406,2.273v0.046
		H2.272C1.018,2.319,0,3.337,0,4.593v7.902c0,1.256,1.018,2.273,2.272,2.273H15.84c1.256,0,2.273-1.018,2.273-2.273V4.593
		C18.113,3.337,17.096,2.319,15.84,2.319z M9.057,13.101c-2.518,0-4.557-2.04-4.557-4.557s2.039-4.557,4.557-4.557
		c2.517,0,4.557,2.04,4.557,4.557S11.573,13.101,9.057,13.101z M14.674,5.68c-0.615,0-1.113-0.499-1.113-1.114
		s0.498-1.114,1.113-1.114s1.115,0.499,1.115,1.114S15.289,5.68,14.674,5.68z"/>
</g>
</svg>
