<?xml version="1.0" encoding="utf-8"?>
<!-- Generator: Adobe Illustrator 19.0.0, SVG Export Plug-In . SVG Version: 6.00 Build 0)  -->
<svg version="1.1" id="Layer_1" xmlns="http://www.w3.org/2000/svg" xmlns:xlink="http://www.w3.org/1999/xlink" x="0px" y="0px"
	 viewBox="-361.9 321.6 150 150" style="enable-background:new -361.9 321.6 150 150;" xml:space="preserve">
<style type="text/css">
	.st0{fill:#818282;}
</style>
<g>
	<path class="st0" d="M-230.8,354.7h-37.7v-0.4c0-10.4-8.2-18.8-18.6-18.8h-27.8c-10.4,0-18.8,8.4-18.8,18.8v0.4h-0.4l22.9,22.9
		c6.6-5.6,15-9.1,24.3-9.1c20.8,0,37.7,16.9,37.7,37.7c0,9.3-3.5,17.7-9.1,24.3l27.3,27.3h0.2c10.4,0,18.8-8.4,18.8-18.8v-65.4
		C-211.9,363.1-220.4,354.7-230.8,354.7z M-240.4,382.5c-5.1,0-9.2-4.1-9.2-9.2s4.1-9.2,9.2-9.2c5.1,0,9.2,4.1,9.2,9.2
		S-235.3,382.5-240.4,382.5z"/>
	<path class="st0" d="M-286.9,444c-20.9,0-37.7-16.9-37.7-37.7c0-8.1,2.6-15.7,7-21.8l-29.3-29.3c-8.6,1.8-15,9.3-15,18.4v65.4
		c0,10.4,8.4,18.8,18.8,18.8h98.9l-20.9-20.9C-271.3,441.3-278.8,444-286.9,444z"/>
	<path class="st0" d="M-258.7,406.2c0-15.6-12.7-28.3-28.3-28.3c-6.7,0-12.8,2.4-17.6,6.3l39.6,39.6
		C-261.1,419-258.7,412.9-258.7,406.2z"/>
	<path class="st0" d="M-315.2,406.2c0,15.6,12.7,28.3,28.3,28.3c5.5,0,10.6-1.6,15-4.4l-38.9-38.9
		C-313.6,395.6-315.2,400.7-315.2,406.2z"/>
</g>
</svg>
