<?xml version="1.0" encoding="utf-8"?>
<!-- Generator: Adobe Illustrator 19.2.1, SVG Export Plug-In . SVG Version: 6.00 Build 0)  -->
<svg version="1.1" id="Camada_1" xmlns="http://www.w3.org/2000/svg" xmlns:xlink="http://www.w3.org/1999/xlink" x="0px" y="0px"
	 width="150px" height="150px" viewBox="0 0 150 150" enable-background="new 0 0 150 150" xml:space="preserve">
<g>
	<g>
		<path fill="#353535" d="M96.4,95.8c1.1-2.8,1.6-5.9,1.6-9.3c0-7-2.3-12.8-7-17.5c-4.7-4.7-10.4-7-17-7c-3.5,0-6.6,0.6-9.6,1.9
			L96.4,95.8z"/>
		<path fill="#353535" d="M51.8,76.8c-1.2,3-1.8,6.4-1.8,10.2c0,6.7,2.3,12.3,7,17c4.7,4.7,10.3,7,17,7c3.6,0,6.9-0.7,9.9-2.1
			L51.8,76.8z"/>
	</g>
	<g>
		<path fill="#353535" d="M54.7,54.2c0.1-0.1,0.2-0.1,0.3-0.2c6-3.3,12.3-5,19-5c6.7,0,13,1.7,19,5c6,3.3,10.7,7.8,14,13.5
			c3.3,5.7,5,12,5,19c0,7-1.7,13.3-5,19c-0.1,0.2-0.2,0.4-0.4,0.6l32.7,32.7c1.9-1.1,3.6-2.5,5.1-4.3c3.7-4.3,5.5-9.8,5.5-16.5V52
			c0-6.7-1.8-12.2-5.5-16.5c-3.7-4.3-8.2-6.5-13.5-6.5H93v-1c0-6-1.7-10.7-5-14c-3.3-3.3-7.7-5-13-5H47c-5.3,0-9.8,1.7-13.5,5
			c-3.5,3.2-5.4,7.7-5.5,13.5L54.7,54.2z M126.8,43c5.2,0,9.4,4.2,9.4,9.4s-4.2,9.4-9.4,9.4c-5.2,0-9.4-4.2-9.4-9.4
			S121.7,43,126.8,43z"/>
		<path fill="#353535" d="M93.6,118.6c-0.2,0.1-0.4,0.3-0.6,0.4c-6,3.3-12.3,5-19,5c-6.7,0-13-1.7-19-5c-6-3.3-10.7-7.8-14-13.5
			c-3.3-5.7-5-12-5-19c0-7,1.7-13.3,5-19c0.2-0.3,0.4-0.6,0.6-0.9L8,33c-0.9,0.7-1.7,1.5-2.5,2.5C1.8,39.9,0,45.3,0,52v66
			c0,6.7,1.8,12.2,5.5,16.5c3.6,4.3,8.2,6.5,13.5,6.5h97L93.6,118.6z"/>
	</g>
</g>
</svg>
