<?xml version="1.0" encoding="utf-8"?>
<!-- Generator: Adobe Illustrator 19.2.1, SVG Export Plug-In . SVG Version: 6.00 Build 0)  -->
<svg version="1.1" id="Layer_1" xmlns="http://www.w3.org/2000/svg" xmlns:xlink="http://www.w3.org/1999/xlink" x="0px" y="0px"
	 width="150px" height="150px" viewBox="0 0 150 150" enable-background="new 0 0 150 150" xml:space="preserve">
<g>
	<g>
		<path fill="#232323" d="M97.2,94.7c1.4-3.1,2.2-6.5,2.2-10.1c0-13.5-10.9-24.4-24.4-24.4c-3.6,0-7.1,0.8-10.1,2.2L97.2,94.7z"/>
		<path fill="#232323" d="M52.7,74.6c-1.4,3.1-2.1,6.4-2.1,10C50.6,98.1,61.5,109,75,109c3.6,0,7-0.8,10-2.1L52.7,74.6z"/>
	</g>
	<g>
		<path fill="#232323" d="M94.9,116.7c-5.8,3.6-12.6,5.7-19.9,5.7c-20.9,0-37.7-16.9-37.7-37.7c0-7.3,2.1-14.1,5.7-19.9l-37-37
			c-3.7,4.2-6,10.2-6,16.9V125c0,12.8,8.4,23.1,18.8,23.1h107.5L94.9,116.7z"/>
		<path fill="#232323" d="M131.1,21.7H93.4v-0.5c0-12.8-8.5-19.3-18.9-19.3H46.7c-10.4,0-18.5,6.6-18.5,19.3v0.5h-4l31,31
			C60.9,49.1,67.7,47,75,47c20.8,0,37.7,16.9,37.7,37.7c0,7.3-2.1,14.1-5.7,19.9l37.2,37.2c3.6-4.2,5.8-10.1,5.8-16.7V44.8
			C150,32,141.5,21.7,131.1,21.7z M121.5,50.9c-5.1,0-9.2-4.1-9.2-9.2c0-5.1,4.1-9.2,9.2-9.2c5.1,0,9.2,4.1,9.2,9.2
			C130.7,46.8,126.6,50.9,121.5,50.9z"/>
	</g>
</g>
</svg>
