<?xml version="1.0" encoding="utf-8"?>
<!-- Generator: Adobe Illustrator 19.0.0, SVG Export Plug-In . SVG Version: 6.00 Build 0)  -->
<svg version="1.1" id="Layer_1" xmlns="http://www.w3.org/2000/svg" xmlns:xlink="http://www.w3.org/1999/xlink" x="0px" y="0px"
	 viewBox="-361.9 322.1 150 150" style="enable-background:new -361.9 322.1 150 150;" xml:space="preserve">
<style type="text/css">
	.st0{fill:#818282;}
</style>
<path class="st0" d="M-230.5,378.2h-0.2l-11.9-29.4c-4.3-10.6-14.6-17.5-26-17.5h-37c-11.6,0-21.9,7.1-26.1,17.8l-11.4,29h-0.2
	c-10.3,0-18.6,8.3-18.6,18.6v19.1c0,10.3,8.3,18.6,18.6,18.6h0.2v9.7c0,10.4,8.4,18.7,18.7,18.7c10.4,0,18.8-8.4,18.8-18.7v-9.7
	h37.5v9.7c0,10.4,8.4,18.7,18.8,18.7c10.4,0,18.8-8.4,18.8-18.7v-9.7h0.2c10.3,0,18.6-8.3,18.6-18.6v-19.1
	C-212,386.5-220.3,378.2-230.5,378.2z M-333.8,415.8c-5.2,0-9.4-4.2-9.4-9.4c0-5.2,4.2-9.4,9.4-9.4s9.4,4.2,9.4,9.4
	C-324.5,411.6-328.6,415.8-333.8,415.8z M-324.5,378.3l7.7-19.5c2.8-7.2,9.8-11.9,17.5-11.9h24.7c7.6,0,14.5,4.6,17.4,11.7l8,19.7
	C-249.2,378.3-324.5,378.3-324.5,378.3z M-239.6,415.8c-5.2,0-9.4-4.2-9.4-9.4c0-5.2,4.2-9.4,9.4-9.4s9.4,4.2,9.4,9.4
	C-230.2,411.6-234.4,415.8-239.6,415.8z"/>
</svg>
