<?xml version="1.0" encoding="utf-8"?>
<!-- Generator: Adobe Illustrator 19.0.0, SVG Export Plug-In . SVG Version: 6.00 Build 0)  -->
<svg version="1.1" id="Layer_1" xmlns="http://www.w3.org/2000/svg" xmlns:xlink="http://www.w3.org/1999/xlink" x="0px" y="0px"
	 viewBox="235.3 321.7 150 150" style="enable-background:new 235.3 321.7 150 150;" xml:space="preserve">
<style type="text/css">
	.st0{fill:#00A1C1;}
</style>
<g>
	<path class="st0" d="M375.3,359.2c6.6,11,9.9,24.3,9.9,37.5s-3.3,25.4-9.9,37.5c-6.6,11-15.4,19.9-27.6,27.6
		c-11,6.6-24.3,9.9-37.5,9.9s-25.4-3.3-37.5-9.9c-11-6.6-19.9-15.4-27.6-27.6c-6.6-11-9.9-24.3-9.9-37.5s3.3-25.4,9.9-37.5
		c6.6-11,15.4-19.9,27.6-27.6c11-6.6,24.3-9.9,37.5-9.9s25.4,3.3,37.5,9.9C358.8,338.3,368.7,347.1,375.3,359.2z M361,380.2
		c0-2.2-1.1-3.3-2.2-4.4L350,367c-1.1-1.1-2.2-2.2-4.4-2.2s-3.3,1.1-4.4,2.2l-39.7,39.7l-22.1-22.1c-1.1-1.1-2.2-2.2-4.4-2.2
		s-3.3,1.1-4.4,2.2l-8.8,8.8c-1.1,1.1-2.2,2.2-2.2,4.4s1.1,3.3,2.2,4.4l35.3,35.3c1.1,1.1,2.2,2.2,4.4,2.2c2.2,0,3.3-1.1,4.4-2.2
		l52.9-52.9C359.9,383.5,361,382.4,361,380.2z"/>
</g>
</svg>
