<?xml version="1.0" encoding="utf-8"?>
<!-- Generator: Adobe Illustrator 16.0.0, SVG Export Plug-In . SVG Version: 6.00 Build 0)  -->
<!DOCTYPE svg PUBLIC "-//W3C//DTD SVG 1.1//EN" "http://www.w3.org/Graphics/SVG/1.1/DTD/svg11.dtd">
<svg version="1.1" id="Layer_1" xmlns="http://www.w3.org/2000/svg" xmlns:xlink="http://www.w3.org/1999/xlink" x="0px" y="0px"
	 width="14.061px" height="14.059px" viewBox="0 0 14.061 14.059" enable-background="new 0 0 14.061 14.059" xml:space="preserve">
<g>
	<path fill="#00A2C2" d="M2.718,2.993L7.03,7.306l4.313-4.313c0.104-0.102,0.225-0.154,0.365-0.154c0.142,0,0.264,0.052,0.366,0.154
		l1.348,1.349c0.103,0.103,0.154,0.225,0.154,0.365c0,0.141-0.052,0.263-0.154,0.366l-6.025,6.025
		c-0.104,0.104-0.225,0.154-0.366,0.154c-0.141,0-0.262-0.051-0.365-0.154L0.639,5.073C0.536,4.97,0.485,4.848,0.485,4.707
		c0-0.141,0.052-0.262,0.154-0.365l1.348-1.349C2.09,2.891,2.212,2.84,2.353,2.84S2.615,2.891,2.718,2.993z"/>
</g>
</svg>
