<?xml version="1.0" encoding="utf-8"?>
<!-- Generator: Adobe Illustrator 19.0.0, SVG Export Plug-In . SVG Version: 6.00 Build 0)  -->
<svg version="1.1" id="Layer_1" xmlns="http://www.w3.org/2000/svg" xmlns:xlink="http://www.w3.org/1999/xlink" x="0px" y="0px"
	 viewBox="-366 322 150 150" style="enable-background:new -366 322 150 150;" xml:space="preserve">
<style type="text/css">
	.st0{fill:#00A2C2;}
</style>
<g>
	<path class="st0" d="M-244.5,347.5l-49.4,49.4l49.4,49.4c1.2,1.2,1.8,2.6,1.8,4.2c0,1.6-0.6,3-1.8,4.2l-15.4,15.5
		c-1.2,1.2-2.6,1.8-4.2,1.8c-1.6,0-3-0.6-4.2-1.8l-69.1-69.1c-1.2-1.2-1.8-2.6-1.8-4.2c0-1.6,0.6-3,1.8-4.2l69-69
		c1.2-1.2,2.6-1.8,4.2-1.8s3,0.6,4.2,1.8l15.4,15.4c1.2,1.2,1.8,2.6,1.8,4.2C-242.8,345-243.3,346.4-244.5,347.5z"/>
</g>
</svg>
