<?xml version="1.0" encoding="utf-8"?>
<!-- Generator: Adobe Illustrator 16.0.0, SVG Export Plug-In . SVG Version: 6.00 Build 0)  -->
<!DOCTYPE svg PUBLIC "-//W3C//DTD SVG 1.1//EN" "http://www.w3.org/Graphics/SVG/1.1/DTD/svg11.dtd">
<svg version="1.1" id="Layer_1" xmlns="http://www.w3.org/2000/svg" xmlns:xlink="http://www.w3.org/1999/xlink" x="0px" y="0px"
	 width="14.061px" height="14.059px" viewBox="0 0 14.061 14.059" enable-background="new 0 0 14.061 14.059" xml:space="preserve">
<g>
	<path fill="#00A2C2" d="M11.347,5.246c0,0.075-0.029,0.142-0.087,0.199L7.229,9.477C7.171,9.534,7.105,9.563,7.03,9.563
		S6.888,9.534,6.83,9.477L2.799,5.445C2.741,5.387,2.712,5.321,2.712,5.246c0-0.075,0.029-0.141,0.087-0.199l0.433-0.433
		c0.058-0.058,0.124-0.086,0.199-0.086c0.074,0,0.141,0.029,0.198,0.086l3.4,3.399l3.4-3.399c0.058-0.058,0.124-0.086,0.198-0.086
		c0.075,0,0.142,0.029,0.199,0.086l0.433,0.433C11.318,5.105,11.347,5.171,11.347,5.246z"/>
</g>
</svg>
