<?xml version="1.0" encoding="utf-8"?>
<!-- Generator: Adobe Illustrator 16.0.0, SVG Export Plug-In . SVG Version: 6.00 Build 0)  -->
<!DOCTYPE svg PUBLIC "-//W3C//DTD SVG 1.1//EN" "http://www.w3.org/Graphics/SVG/1.1/DTD/svg11.dtd">
<svg version="1.1" id="Layer_1" xmlns="http://www.w3.org/2000/svg" xmlns:xlink="http://www.w3.org/1999/xlink" x="0px" y="0px"
	 width="14.061px" height="14.059px" viewBox="0 0 14.061 14.059" enable-background="new 0 0 14.061 14.059" xml:space="preserve">
<g>
	<path fill="#00A2C2" d="M8.83,11.363c-0.076,0-0.143-0.028-0.199-0.086L4.598,7.244C4.541,7.187,4.512,7.12,4.512,7.046
		c0-0.075,0.028-0.142,0.086-0.199L8.63,2.815c0.058-0.058,0.124-0.086,0.199-0.086s0.142,0.028,0.198,0.086l0.434,0.433
		c0.057,0.058,0.086,0.124,0.086,0.199S9.518,3.588,9.461,3.646l-3.4,3.4l3.4,3.399c0.057,0.058,0.086,0.124,0.086,0.199
		s-0.029,0.142-0.086,0.199l-0.434,0.433C8.971,11.334,8.905,11.363,8.83,11.363z"/>
</g>
</svg>
