<?xml version="1.0" encoding="utf-8"?>
<!-- Generator: Adobe Illustrator 19.0.0, SVG Export Plug-In . SVG Version: 6.00 Build 0)  -->
<svg version="1.1" id="Layer_1" xmlns="http://www.w3.org/2000/svg" xmlns:xlink="http://www.w3.org/1999/xlink" x="0px" y="0px"
	 viewBox="-366 322 150 150" style="enable-background:new -366 322 150 150;" xml:space="preserve">
<style type="text/css">
	.st0{fill:#00A2C2;}
</style>
<g>
	<path class="st0" d="M-270.1,447c-0.9,0-1.7-0.3-2.3-1l-46.7-46.7c-0.7-0.7-1-1.4-1-2.3c0-0.9,0.3-1.6,1-2.3l46.7-46.7
		c0.7-0.7,1.4-1,2.3-1c0.9,0,1.6,0.3,2.3,1l5,5c0.7,0.7,1,1.4,1,2.3c0,0.9-0.3,1.6-1,2.3l-39.4,39.4l39.4,39.4c0.7,0.7,1,1.4,1,2.3
		c0,0.9-0.3,1.6-1,2.3l-5,5C-268.5,446.6-269.2,447-270.1,447z"/>
</g>
</svg>
