<?xml version="1.0" encoding="utf-8"?>
<!-- Generator: Adobe Illustrator 16.0.0, SVG Export Plug-In . SVG Version: 6.00 Build 0)  -->
<!DOCTYPE svg PUBLIC "-//W3C//DTD SVG 1.1//EN" "http://www.w3.org/Graphics/SVG/1.1/DTD/svg11.dtd">
<svg version="1.1" id="Layer_1" xmlns="http://www.w3.org/2000/svg" xmlns:xlink="http://www.w3.org/1999/xlink" x="0px" y="0px"
	 width="14.061px" height="14.059px" viewBox="0 0 14.061 14.059" enable-background="new 0 0 14.061 14.059" xml:space="preserve">
<g>
	<path fill="#00A2C2" d="M5.23,2.729c0.075,0,0.142,0.028,0.199,0.086l4.032,4.032c0.058,0.058,0.086,0.124,0.086,0.198
		c0,0.075-0.028,0.142-0.086,0.199L5.43,11.277c-0.058,0.058-0.124,0.086-0.199,0.086s-0.142-0.028-0.199-0.086l-0.433-0.433
		c-0.058-0.058-0.086-0.124-0.086-0.199s0.028-0.142,0.086-0.199l3.399-3.4L4.599,3.646C4.541,3.588,4.512,3.522,4.512,3.447
		s0.029-0.142,0.087-0.199l0.433-0.433C5.089,2.757,5.156,2.729,5.23,2.729z"/>
</g>
</svg>
