<?xml version="1.0" encoding="utf-8"?>
<!-- Generator: Adobe Illustrator 16.0.0, SVG Export Plug-In . SVG Version: 6.00 Build 0)  -->
<!DOCTYPE svg PUBLIC "-//W3C//DTD SVG 1.1//EN" "http://www.w3.org/Graphics/SVG/1.1/DTD/svg11.dtd">
<svg version="1.1" id="Layer_1" xmlns="http://www.w3.org/2000/svg" xmlns:xlink="http://www.w3.org/1999/xlink" x="0px" y="0px"
	 width="14.061px" height="14.059px" viewBox="0 0 14.061 14.059" enable-background="new 0 0 14.061 14.059" xml:space="preserve">
<g>
	<path fill="#00A2C2" d="M11.341,11.098L7.03,6.786l-4.312,4.312c-0.103,0.103-0.225,0.154-0.366,0.154S2.09,11.2,1.987,11.098
		L0.639,9.75C0.536,9.647,0.485,9.526,0.485,9.385c0-0.142,0.052-0.263,0.154-0.366l6.025-6.025C6.768,2.891,6.889,2.839,7.03,2.839
		s0.262,0.052,0.366,0.154l6.025,6.025c0.102,0.104,0.154,0.225,0.154,0.366c0,0.141-0.053,0.262-0.154,0.365l-1.348,1.348
		c-0.104,0.103-0.225,0.154-0.365,0.154C11.566,11.252,11.445,11.2,11.341,11.098z"/>
</g>
</svg>
