<?xml version="1.0" encoding="utf-8"?>
<!-- Generator: Adobe Illustrator 16.0.0, SVG Export Plug-In . SVG Version: 6.00 Build 0)  -->
<!DOCTYPE svg PUBLIC "-//W3C//DTD SVG 1.1//EN" "http://www.w3.org/Graphics/SVG/1.1/DTD/svg11.dtd">
<svg version="1.1" id="Layer_1" xmlns="http://www.w3.org/2000/svg" xmlns:xlink="http://www.w3.org/1999/xlink" x="0px" y="0px"
	 width="616.532px" height="616.531px" viewBox="-2.532 82.4 616.532 616.531" enable-background="new -2.532 82.4 616.532 616.531"
	 xml:space="preserve">
<g>
	<path fill="#00A1C1" d="M573.201,236.533C600.402,281.867,614,336.268,614,390.666c0,54.4-13.598,104.266-40.799,154.133
		c-27.201,45.334-63.467,81.6-113.334,113.334c-45.332,27.199-99.732,40.799-154.132,40.799c-54.4,0-104.267-13.6-154.133-40.799
		c-45.334-27.201-81.6-63.467-113.334-113.334c-27.2-45.332-40.8-99.734-40.8-154.133c0-54.4,13.6-104.266,40.8-154.133
		c27.2-45.334,63.467-81.6,113.334-113.334C196.935,96,251.335,82.4,305.735,82.4c54.4,0,104.265,13.6,154.132,40.799
		C505.201,150.4,546,186.668,573.201,236.533z M414.535,200.268c-31.734-18.133-68-27.201-108.8-27.201
		c-40.8,0-77.067,9.068-108.8,27.201c-31.733,18.133-58.933,45.332-77.067,77.066c-18.133,31.734-27.2,68-27.2,108.801
		c0,40.799,9.067,77.066,27.2,108.799C138,526.668,165.202,553.867,196.935,572c31.734,18.135,68,27.201,108.8,27.201
		c40.8,0,77.068-9.066,108.8-27.201c31.732-18.133,58.932-45.332,77.066-77.066c18.133-31.734,27.201-68,27.201-108.799
		c0-40.801-9.068-77.068-27.201-108.801S450.801,222.934,414.535,200.268z"/>
</g>
</svg>
