<?xml version="1.0" encoding="utf-8"?>
<!-- Generator: Adobe Illustrator 19.0.0, SVG Export Plug-In . SVG Version: 6.00 Build 0)  -->
<svg version="1.1" id="Camada_1" xmlns="http://www.w3.org/2000/svg" xmlns:xlink="http://www.w3.org/1999/xlink" x="0px" y="0px"
	 viewBox="-367.6 321.9 150 150" style="enable-background:new -367.6 321.9 150 150;" xml:space="preserve">
<path id="XMLID_4_" d="M-240.1,419.5v-45c0-29-23.6-52.6-52.6-52.6c-29,0-52.6,23.6-52.6,52.6v60c0,20.7,16.8,37.4,37.5,37.4
	c20.7,0,37.5-16.7,37.5-37.4v-60c0.2-12.4-9.9-22.5-22.3-22.5c-12.4,0-22.5,10.1-22.5,22.5v45h14.9v-45c0-4.2,3.4-7.6,7.6-7.6
	c4.1,0,7.6,3.4,7.6,7.6v60c0,12.4-10.1,22.5-22.5,22.5c-12.4,0-22.5-10.1-22.5-22.5v-60c0-20.7,16.8-37.5,37.5-37.5
	c20.7,0,37.4,16.8,37.4,37.5v45H-240.1z"/>
</svg>
