<?xml version="1.0" encoding="utf-8"?>
<!-- Generator: Adobe Illustrator 16.0.0, SVG Export Plug-In . SVG Version: 6.00 Build 0)  -->
<!DOCTYPE svg PUBLIC "-//W3C//DTD SVG 1.1//EN" "http://www.w3.org/Graphics/SVG/1.1/DTD/svg11.dtd">
<svg version="1.1" id="Camada_1" xmlns="http://www.w3.org/2000/svg" xmlns:xlink="http://www.w3.org/1999/xlink" x="0px" y="0px"
	 width="12.713px" height="18.133px" viewBox="0 0 12.713 18.133" enable-background="new 0 0 12.713 18.133" xml:space="preserve">
<path id="XMLID_4_" d="M12.713,11.798v-5.44C12.713,2.851,9.861,0,6.357,0C2.851,0,0,2.851,0,6.358v7.248
	c0,2.503,2.025,4.527,4.528,4.527c2.504,0,4.528-2.024,4.528-4.527V6.358c0.021-1.502-1.198-2.722-2.7-2.722
	c-1.502,0-2.721,1.22-2.721,2.722v5.44h1.807v-5.44c0-0.502,0.415-0.916,0.915-0.916c0.5,0,0.915,0.414,0.915,0.916v7.248
	c0,1.502-1.221,2.722-2.723,2.722c-1.501,0-2.721-1.22-2.721-2.722V6.358c0-2.504,2.025-4.532,4.529-4.532
	c2.502,0,4.527,2.027,4.527,4.532v5.44H12.713z"/>
</svg>
