<?xml version="1.0" encoding="utf-8"?>
<!-- Generator: Adobe Illustrator 19.0.0, SVG Export Plug-In . SVG Version: 6.00 Build 0)  -->
<svg version="1.1" id="Layer_1" xmlns="http://www.w3.org/2000/svg" xmlns:xlink="http://www.w3.org/1999/xlink" x="0px" y="0px"
	 viewBox="-361.9 321.9 150 150" style="enable-background:new -361.9 321.9 150 150;" xml:space="preserve">
<style type="text/css">
	.st0{fill:#676767;}
</style>
<g>
	<path class="st0" d="M-259.3,414.1l-18.7-18.8v-32.9h0c0-5.3-4.3-9.6-9.6-9.6c-5.3,0-9.5,4.2-9.5,9.6v0v37.1c0,3,1.4,5.4,3.4,7.1
		l20.9,20.9c3.8,3.8,10.6,4.5,14.4,0.7C-254.7,424.5-255.5,417.9-259.3,414.1C-259.3,414.1-259.3,414.1-259.3,414.1"/>
	<path class="st0" d="M-286.9,321.9c-41.4,0-75,33.6-75,75c0,41.4,33.6,75,75,75s75-33.6,75-75
		C-211.9,355.5-245.5,321.9-286.9,321.9z M-286.9,453.6c-31.3,0-56.7-25.4-56.7-56.7s25.4-56.7,56.7-56.7s56.7,25.4,56.7,56.7
		S-255.6,453.6-286.9,453.6z"/>
</g>
</svg>
