<?xml version="1.0" encoding="utf-8"?>
<!-- Generator: Adobe Illustrator 19.0.0, SVG Export Plug-In . SVG Version: 6.00 Build 0)  -->
<svg version="1.1" id="Layer_1" xmlns="http://www.w3.org/2000/svg" xmlns:xlink="http://www.w3.org/1999/xlink" x="0px" y="0px"
	 viewBox="235.3 322.1 150 150" style="enable-background:new 235.3 322.1 150 150;" xml:space="preserve">
<style type="text/css">
	.st0{fill:#00A1C1;}
</style>
<g id="XMLID_378_">
	<g>
		<g id="XMLID_46_">
			<path id="XMLID_47_" class="st0" d="M310.3,472.1c-40.8,0-73.9-33.1-73.9-75c0-41.9,33.1-75,73.9-75c40.8,0,73.9,33.1,73.9,75
				C384.2,439,350,472.1,310.3,472.1z M310.3,335.3c-33.1,0-60.7,27.6-60.7,61.8s27.6,61.8,60.7,61.8c33.1,0,60.7-27.6,60.7-61.8
				S343.4,335.3,310.3,335.3z"/>
		</g>
		<g id="XMLID_44_">
			<polygon id="XMLID_45_" class="st0" points="346.7,408.1 301.5,408.1 301.5,353 314.7,353 314.7,394.9 346.7,394.9 			"/>
		</g>
	</g>
</g>
</svg>
