<?xml version="1.0" encoding="utf-8"?>
<!-- Generator: Adobe Illustrator 19.0.0, SVG Export Plug-In . SVG Version: 6.00 Build 0)  -->
<svg version="1.1" id="Layer_1" xmlns="http://www.w3.org/2000/svg" xmlns:xlink="http://www.w3.org/1999/xlink" x="0px" y="0px"
	 viewBox="-230 322 150 150" style="enable-background:new -230 322 150 150;" xml:space="preserve">
<style type="text/css">
	.st0{fill:#222222;}
</style>
<path class="st0" d="M-88,430.9l-33.9-33.9l33.9-33.9c8.5-8.5,8.5-25.4,0-33.9s-23.3-8.5-33.9,0l-33.9,33.9l-33.9-33.9
	c-8.5-8.5-23.3-8.5-33.9,0c-8.5,8.5-8.5,25.4,0,33.9l33.9,33.9l-33.9,33.9c-8.5,8.5-8.5,23.3,0,33.9c8.5,8.5,23.3,8.5,33.9,0
	l33.9-33.9l33.9,33.9c8.5,8.5,23.3,8.5,33.9,0C-77.3,456.4-77.3,439.4-88,430.9"/>
</svg>
