<?xml version="1.0" encoding="utf-8"?>
<!-- Generator: Adobe Illustrator 16.0.0, SVG Export Plug-In . SVG Version: 6.00 Build 0)  -->
<!DOCTYPE svg PUBLIC "-//W3C//DTD SVG 1.1//EN" "http://www.w3.org/Graphics/SVG/1.1/DTD/svg11.dtd">
<svg version="1.1" id="Layer_1" xmlns="http://www.w3.org/2000/svg" xmlns:xlink="http://www.w3.org/1999/xlink" x="0px" y="0px"
	 width="18.107px" height="15.844px" viewBox="0 0 18.107 15.844" enable-background="new 0 0 18.107 15.844" xml:space="preserve">
<path fill="#818282" d="M15.875,0H2.232C1,0,0,0.999,0,2.232v11.379c0,1.231,1,2.231,2.232,2.231h13.643
	c1.232,0,2.232-1,2.232-2.231V2.232C18.107,0.999,17.107,0,15.875,0z M4.546,13.479H3.321c-0.604,0-1.093-0.49-1.093-1.095
	c0-0.604,0.488-1.094,1.093-1.094h1.225c0.604,0,1.094,0.489,1.094,1.094C5.639,12.986,5.149,13.479,4.546,13.479z M4.546,10.146
	H3.321c-0.604,0-1.093-0.489-1.093-1.094c0-0.604,0.488-1.094,1.093-1.094h1.225c0.604,0,1.094,0.489,1.094,1.094
	S5.149,10.146,4.546,10.146z M4.546,6.816H3.321c-0.604,0-1.093-0.49-1.093-1.093c0-0.604,0.488-1.094,1.093-1.094h1.225
	c0.604,0,1.094,0.489,1.094,1.094C5.639,6.326,5.149,6.816,4.546,6.816z M9.666,13.479H8.441c-0.604,0-1.093-0.49-1.093-1.095
	c0-0.604,0.488-1.094,1.093-1.094h1.225c0.604,0,1.093,0.489,1.093,1.094C10.759,12.986,10.27,13.479,9.666,13.479z M9.666,10.146
	H8.441c-0.604,0-1.093-0.489-1.093-1.094c0-0.604,0.488-1.094,1.093-1.094h1.225c0.604,0,1.093,0.489,1.093,1.094
	S10.27,10.146,9.666,10.146z M9.666,6.816H8.441c-0.604,0-1.093-0.49-1.093-1.094s0.488-1.094,1.093-1.094h1.225
	c0.604,0,1.093,0.489,1.093,1.094C10.759,6.326,10.27,6.816,9.666,6.816z"/>
</svg>
