<?xml version="1.0" encoding="utf-8"?>
<!-- Generator: Adobe Illustrator 19.0.0, SVG Export Plug-In . SVG Version: 6.00 Build 0)  -->
<svg version="1.1" id="Layer_1" xmlns="http://www.w3.org/2000/svg" xmlns:xlink="http://www.w3.org/1999/xlink" x="0px" y="0px"
	 viewBox="-361.9 322.1 150 150" style="enable-background:new -361.9 322.1 150 150;" xml:space="preserve">
<style type="text/css">
	.st0{fill:#818282;}
</style>
<path class="st0" d="M-230.4,331.5h-113c-10.2,0-18.5,8.3-18.5,18.5v94.3c0,10.2,8.3,18.5,18.5,18.5h113c10.2,0,18.5-8.3,18.5-18.5
	v-94.3C-211.9,339.7-220.2,331.5-230.4,331.5z M-324.3,443.1h-10.1c-5,0-9.1-4.1-9.1-9.1c0-5,4-9.1,9.1-9.1h10.1
	c5,0,9.1,4.1,9.1,9.1C-315.2,439-319.3,443.1-324.3,443.1z M-324.3,415.5h-10.1c-5,0-9.1-4.1-9.1-9.1c0-5,4-9.1,9.1-9.1h10.1
	c5,0,9.1,4.1,9.1,9.1S-319.3,415.5-324.3,415.5z M-324.3,387.9h-10.1c-5,0-9.1-4.1-9.1-9.1c0-5,4-9.1,9.1-9.1h10.1
	c5,0,9.1,4.1,9.1,9.1C-315.2,383.9-319.3,387.9-324.3,387.9z M-281.9,443.1H-292c-5,0-9.1-4.1-9.1-9.1c0-5,4-9.1,9.1-9.1h10.1
	c5,0,9.1,4.1,9.1,9.1C-272.8,439-276.9,443.1-281.9,443.1z M-281.9,415.5H-292c-5,0-9.1-4.1-9.1-9.1c0-5,4-9.1,9.1-9.1h10.1
	c5,0,9.1,4.1,9.1,9.1S-276.9,415.5-281.9,415.5z M-281.9,387.9H-292c-5,0-9.1-4.1-9.1-9.1c0-5,4-9.1,9.1-9.1h10.1
	c5,0,9.1,4.1,9.1,9.1C-272.8,383.9-276.9,387.9-281.9,387.9z"/>
</svg>
