<?xml version="1.0" encoding="utf-8"?>
<!-- Generator: Adobe Illustrator 19.0.0, SVG Export Plug-In . SVG Version: 6.00 Build 0)  -->
<svg version="1.1" id="Layer_1" xmlns="http://www.w3.org/2000/svg" xmlns:xlink="http://www.w3.org/1999/xlink" x="0px" y="0px"
	 viewBox="-362 321.9 150 150" style="enable-background:new -362 321.9 150 150;" xml:space="preserve">
<style type="text/css">
	.st0{opacity:0.6;}
</style>
<path id="XMLID_15_" class="st0" d="M-222,362.9c6.7,8.3,10,17.4,10,27.2c0,9.8-3.3,18.8-10,27.1c-6.7,8.3-15.8,14.8-27.3,19.7
	c-11.5,4.8-24.1,7.3-37.7,7.3c-6.1,0-12.4-0.5-18.8-1.6c-8.8,6.2-18.6,10.8-29.6,13.6c-2.4,0.6-5.5,1.2-9.2,1.7h-0.3
	c-0.8,0-1.6-0.3-2.2-0.8c-0.6-0.6-1.1-1.3-1.3-2.3c0-0.1,0-0.4,0-0.7v-0.5c0-0.3,0-0.5,0.2-0.7l0.8-1.1l3.7-4.2
	c1.2-1.2,2.1-2.2,2.9-2.9l2.4-3.1c1-1.3,1.8-2.7,2.5-4c0.7-1.3,1.5-2.9,2.2-4.6c-8.8-5.1-15.7-11.4-20.7-18.8
	c-5-7.4-7.5-15.3-7.5-23.6c0-9.8,3.3-18.8,10-27.1c6.7-8.3,15.8-14.8,27.3-19.7c11.5-4.8,24.1-7.3,37.7-7.3
	c13.6,0,26.1,2.4,37.6,7.3C-237.9,348.2-228.8,354.7-222,362.9z"/>
</svg>
