<?xml version="1.0" encoding="utf-8"?>
<!-- Generator: Adobe Illustrator 16.0.0, SVG Export Plug-In . SVG Version: 6.00 Build 0)  -->
<!DOCTYPE svg PUBLIC "-//W3C//DTD SVG 1.1//EN" "http://www.w3.org/Graphics/SVG/1.1/DTD/svg11.dtd">
<svg version="1.1" id="Layer_1" xmlns="http://www.w3.org/2000/svg" xmlns:xlink="http://www.w3.org/1999/xlink" x="0px" y="0px"
	 width="612px" height="515.831px" viewBox="-1.501 0 612 515.831" enable-background="new -1.501 0 612 515.831"
	 xml:space="preserve">
<g id="XMLID_82_">
	<path id="XMLID_235_" fill="#00A1C1" d="M571.157,109.287c26.229,34.972,39.342,69.943,39.342,109.285
		c0,39.344-13.113,74.316-39.342,109.287c-26.23,34.971-65.572,61.199-113.658,78.686c-48.086,17.484-100.541,30.601-153,30.601
		c-26.229,0-48.086,0-74.314-4.371c-39.343,39.342-87.429,65.57-148.629,78.684c-13.113,4.373-21.857,4.373-30.601,4.373
		c-4.371,0-4.371,0-8.743,0s-4.372-4.373-4.372-4.373c0-4.371,0-8.742,8.744-13.112c0,0,4.371-4.371,8.743-8.742
		c4.371-4.373,8.743-4.373,8.743-8.744c0,0,4.372-4.371,8.743-8.744c4.372-4.371,4.372-8.742,8.744-8.742
		c0-4.373,4.371-8.744,8.743-13.112c4.371-4.373,4.371-13.115,8.743-17.486c0-4.371,4.372-13.113,4.372-21.857
		c0-8.742,4.371-17.483,4.371-26.229c-34.971-21.857-61.199-43.715-78.685-74.314c-17.485-30.602-30.601-61.199-30.601-91.801
		c0-39.342,13.113-74.314,39.342-109.285s65.572-61.201,113.658-78.686C199.585,13.116,247.671,0,304.499,0
		c56.83,0,104.916,8.744,153,30.602C505.584,48.086,544.928,74.314,571.157,109.287z M203.957,249.173
		c8.743-8.742,13.113-17.484,13.113-30.601s-4.372-21.856-13.113-30.603c-8.744-8.742-17.485-13.112-30.601-13.112
		c-13.116,0-21.857,4.37-30.601,13.112c-8.744,8.742-13.114,17.486-13.114,30.603s4.372,21.856,13.114,30.601
		c8.743,8.743,17.485,13.112,30.601,13.112C186.472,262.285,195.212,257.916,203.957,249.173z M339.469,249.173
		c8.744-8.742,13.115-17.484,13.115-30.601s-4.373-21.856-13.115-30.603c-8.742-8.742-17.484-13.112-30.6-13.112
		c-13.117,0-21.859,4.37-30.602,13.112c-8.743,8.742-13.113,17.486-13.113,30.603s4.371,21.856,13.113,30.601
		c8.743,8.743,17.485,13.112,30.602,13.112C321.985,262.285,330.727,257.916,339.469,249.173z M470.612,249.173
		c8.744-8.742,13.113-17.484,13.113-30.601s-4.373-21.856-13.113-30.603c-8.74-8.742-17.484-13.112-30.602-13.112
		c-13.111,0-21.855,4.37-30.6,13.112c-8.744,8.744-13.115,17.486-13.115,30.603s4.373,21.856,13.115,30.601
		c8.742,8.743,17.484,13.112,30.6,13.112C448.756,262.287,461.872,257.916,470.612,249.173z"/>
</g>
</svg>
