<?xml version="1.0" encoding="utf-8"?>
<!-- Generator: Adobe Illustrator 19.0.0, SVG Export Plug-In . SVG Version: 6.00 Build 0)  -->
<svg version="1.1" id="Layer_1" xmlns="http://www.w3.org/2000/svg" xmlns:xlink="http://www.w3.org/1999/xlink" x="0px" y="0px"
	 viewBox="231 322.3 150 150" style="enable-background:new 231 322.3 150 150;" xml:space="preserve">
<style type="text/css">
	.st0{fill:#00A1C1;}
</style>
<g id="XMLID_508_">
	<g>
		<path id="XMLID_33_" class="st0" d="M306,358.5c-10.5,0-20.1,8.7-20.1,20.1c0,6.1,2.6,11.3,7,14.8l0,0c5.2,4.4,7.8,10.5,8.7,16.6
			h7.8c0.9-6.1,3.5-12.2,8.7-16.6l0,0c4.4-3.5,7-9.6,7-14.8C326.1,367.2,317.3,358.5,306,358.5z"/>
		<path id="XMLID_30_" class="st0" d="M372.3,337.5H239.7c-5.2,0-8.7,4.4-8.7,8.7v85.5c0,5.2,4.4,8.7,8.7,8.7h20.9V457l21.8-16.6
			h89.8c5.2,0,8.7-4.4,8.7-8.7v-85.5C381,341,377.5,337.5,372.3,337.5z M323.4,398.6L323.4,398.6c-4.4,3.5-7,9.6-6.1,14.8l0,0v3.5
			l0,0v0.9c0,6.1-7.8,10.5-11.3,10.5c-3.5,0-11.3-3.5-11.3-10.5v-0.9l0,0v-2.6c0.9-6.1-1.7-11.3-6.1-14.8l0,0
			c-6.1-5.2-9.6-12.2-9.6-20.9c0-14.8,12.2-27,27-27c14.8,0,27,12.2,27,27C333,386.4,329.5,394.2,323.4,398.6z"/>
	</g>
</g>
</svg>
