<?xml version="1.0" encoding="utf-8"?>
<!-- Generator: Adobe Illustrator 19.0.0, SVG Export Plug-In . SVG Version: 6.00 Build 0)  -->
<svg version="1.1" id="Layer_1" xmlns="http://www.w3.org/2000/svg" xmlns:xlink="http://www.w3.org/1999/xlink" x="0px" y="0px"
	 viewBox="-361.9 321.9 150 150" style="enable-background:new -361.9 321.9 150 150;" xml:space="preserve">
<style type="text/css">
	.st0{fill:#818282;}
</style>
<path class="st0" d="M-240.1,397.2v-56.7c0-10.2-8.3-18.5-18.5-18.5h-84.8c-10.2,0-18.5,8.3-18.5,18.5v56.7
	c0,10.2,8.3,18.5,18.5,18.5h0.2v28.1l18.7-28.1h65.8C-248.4,415.7-240.1,407.4-240.1,397.2 M-230.5,350.1h-0.4v47
	c0,15.4-12.5,28-28,28H-315v0.3c0,10.2,8.3,18.5,18.5,18.5h47l18.8,28.1v-28.1h0.2c10.2,0,18.5-8.3,18.5-18.5v-56.7
	C-212,358.4-220.3,350.1-230.5,350.1"/>
</svg>
