<?xml version="1.0" encoding="utf-8"?>
<!-- Generator: Adobe Illustrator 19.0.0, SVG Export Plug-In . SVG Version: 6.00 Build 0)  -->
<svg version="1.1" id="Camada_1" xmlns="http://www.w3.org/2000/svg" xmlns:xlink="http://www.w3.org/1999/xlink" x="0px" y="0px"
	 viewBox="-361.9 321.9 150 150" style="enable-background:new -361.9 321.9 150 150;" xml:space="preserve">
<g id="XMLID_3_">
	<g id="XMLID_127_">
		<path id="XMLID_129_" d="M-252,364.7c5.2,5.7,7.9,11.8,7.9,18.4c0,6.7-2.6,12.8-7.9,18.4c-5.3,5.7-12.4,10.1-21.5,13.4
			c-9.1,3.3-18.9,4.9-29.6,4.9c-4.8,0-9.7-0.4-14.7-1.2c-6.9,4.2-14.7,7.3-23.3,9.2c-2,0.4-4.4,0.8-7.2,1.2h-0.2
			c-0.6,0-1.2-0.2-1.7-0.6c-0.5-0.4-0.9-0.9-1-1.5c-0.1-0.1-0.1-0.3-0.1-0.5c0-0.2,0-0.3,0-0.5c0-0.1,0.1-0.3,0.2-0.4
			c0.1-0.1,0.1-0.3,0.2-0.4s0.1-0.2,0.3-0.4c0.1-0.2,0.2-0.3,0.3-0.4c0.1-0.1,0.2-0.2,0.4-0.4c0.2-0.2,0.3-0.3,0.3-0.3
			c0.3-0.3,0.9-0.9,1.9-1.8c1-0.9,1.7-1.6,2.2-2.1c0.4-0.5,1.1-1.2,1.9-2.1c0.8-0.9,1.5-1.8,2.1-2.8c0.6-1,1.2-2,1.7-3.2
			c-6.9-3.4-12.4-7.7-16.3-12.7c-4-5-5.9-10.4-5.9-16.1c0-6.7,2.6-12.8,7.9-18.4c5.2-5.6,12.4-10.1,21.5-13.4
			c9.1-3.3,18.9-4.9,29.6-4.9c10.7,0,20.5,1.6,29.6,4.9C-264.4,354.6-257.2,359-252,364.7z M-211.9,401.5c0,5.7-2,11.1-5.9,16.1
			c-4,5-9.4,9.2-16.3,12.7c0.6,1.2,1.1,2.2,1.7,3.2c0.6,1,1.3,1.9,2.1,2.8c0.8,0.9,1.4,1.6,1.9,2.1s1.2,1.2,2.2,2.1
			c1,0.9,1.6,1.5,1.9,1.8c0,0,0.2,0.2,0.3,0.3c0.2,0.2,0.3,0.3,0.4,0.4s0.2,0.2,0.3,0.4c0.1,0.2,0.2,0.3,0.3,0.4
			c0.1,0.1,0.1,0.2,0.2,0.4c0.1,0.1,0.1,0.3,0.2,0.4c0,0.1,0,0.3,0,0.5c0,0.2,0,0.3-0.1,0.5c-0.2,0.7-0.5,1.2-1.1,1.6
			c-0.6,0.4-1.2,0.5-1.8,0.5c-2.8-0.3-5.2-0.7-7.2-1.2c-8.6-1.9-16.4-5-23.3-9.2c-5,0.8-9.9,1.2-14.7,1.2c-15.1,0-28.3-3.2-39.5-9.5
			c3.2,0.2,5.7,0.3,7.4,0.3c9,0,17.6-1.1,25.9-3.2c8.3-2.2,15.6-5.2,22.1-9.3c7-4.4,12.3-9.5,16.1-15.2s5.6-11.8,5.6-18.2
			c0-3.7-0.6-7.3-1.9-10.9c7.2,3.4,12.9,7.7,17.1,12.8C-214,390.1-211.9,395.6-211.9,401.5z"/>
	</g>
</g>
</svg>
