<?xml version="1.0" encoding="utf-8"?>
<!-- Generator: Adobe Illustrator 16.0.0, SVG Export Plug-In . SVG Version: 6.00 Build 0)  -->
<!DOCTYPE svg PUBLIC "-//W3C//DTD SVG 1.1//EN" "http://www.w3.org/Graphics/SVG/1.1/DTD/svg11.dtd">
<svg version="1.1" id="Camada_1" xmlns="http://www.w3.org/2000/svg" xmlns:xlink="http://www.w3.org/1999/xlink" x="0px" y="0px"
	 width="18.106px" height="12.198px" viewBox="0 0 18.106 12.198" enable-background="new 0 0 18.106 12.198" xml:space="preserve">
<g id="XMLID_3_">
	<g id="XMLID_127_">
		<path id="XMLID_129_" d="M13.277,2.208c0.633,0.682,0.95,1.424,0.95,2.227s-0.317,1.545-0.95,2.226
			c-0.634,0.682-1.498,1.22-2.592,1.616C9.59,8.672,8.399,8.87,7.113,8.87c-0.58,0-1.172-0.046-1.778-0.139
			C4.5,9.24,3.563,9.609,2.526,9.84C2.284,9.893,1.994,9.938,1.657,9.979h-0.03c-0.074,0-0.144-0.023-0.207-0.07
			C1.355,9.864,1.316,9.803,1.304,9.728C1.296,9.71,1.293,9.691,1.293,9.671s0.001-0.039,0.005-0.056
			c0.003-0.017,0.01-0.035,0.021-0.052c0.01-0.018,0.018-0.031,0.025-0.043s0.018-0.027,0.036-0.048
			c0.017-0.02,0.03-0.035,0.04-0.043c0.01-0.008,0.025-0.023,0.045-0.043c0.021-0.021,0.033-0.033,0.041-0.039
			C1.539,9.312,1.617,9.24,1.738,9.13c0.121-0.109,0.208-0.195,0.263-0.255C2.055,8.814,2.13,8.73,2.228,8.623
			C2.325,8.516,2.409,8.405,2.48,8.29c0.071-0.115,0.14-0.243,0.207-0.381C1.852,7.493,1.195,6.982,0.717,6.375
			C0.239,5.769,0,5.122,0,4.435c0-0.803,0.316-1.544,0.95-2.227c0.633-0.681,1.497-1.22,2.591-1.615C4.636,0.198,5.826,0,7.113,0
			c1.286,0,2.477,0.198,3.571,0.593C11.779,0.989,12.643,1.528,13.277,2.208z M18.106,6.652c0,0.693-0.239,1.341-0.718,1.945
			c-0.478,0.603-1.135,1.113-1.97,1.528c0.067,0.139,0.136,0.266,0.207,0.381c0.071,0.116,0.156,0.227,0.252,0.333
			c0.098,0.107,0.174,0.19,0.228,0.251s0.142,0.146,0.263,0.256c0.121,0.109,0.198,0.182,0.232,0.216
			c0.006,0.006,0.02,0.019,0.041,0.039c0.02,0.02,0.036,0.035,0.045,0.043s0.023,0.023,0.04,0.043
			c0.017,0.02,0.029,0.036,0.036,0.047c0.007,0.012,0.015,0.026,0.025,0.043c0.011,0.017,0.017,0.035,0.021,0.052
			c0.003,0.017,0.005,0.036,0.005,0.056c0,0.021-0.004,0.039-0.011,0.057c-0.02,0.081-0.063,0.145-0.131,0.19
			c-0.068,0.046-0.142,0.066-0.222,0.061c-0.337-0.04-0.627-0.086-0.87-0.139c-1.038-0.231-1.974-0.601-2.809-1.108
			c-0.606,0.092-1.199,0.139-1.778,0.139c-1.826,0-3.416-0.381-4.769-1.144c0.39,0.023,0.687,0.035,0.889,0.035
			c1.084,0,2.125-0.13,3.122-0.39c0.997-0.26,1.886-0.633,2.668-1.118c0.841-0.531,1.488-1.144,1.939-1.836s0.677-1.426,0.677-2.2
			c0-0.445-0.077-0.884-0.232-1.317c0.869,0.411,1.556,0.924,2.061,1.542C17.854,5.278,18.106,5.942,18.106,6.652z"/>
	</g>
</g>
</svg>
