<?xml version="1.0" encoding="utf-8"?>
<!-- Generator: Adobe Illustrator 19.0.0, SVG Export Plug-In . SVG Version: 6.00 Build 0)  -->
<svg version="1.1" id="Layer_1" xmlns="http://www.w3.org/2000/svg" xmlns:xlink="http://www.w3.org/1999/xlink" x="0px" y="0px"
	 viewBox="-230 322 150 150" style="enable-background:new -230 322 150 150;" xml:space="preserve">
<style type="text/css">
	.st0{fill:#818282;}
</style>
<path class="st0" d="M-108.1,443.8h-93.6c-5.2,0-9.4,4.2-9.4,9.4s4.2,9.4,9.4,9.4h93.6c5.2,0,9.4-4.2,9.4-9.4
	C-98.8,448-102.9,443.8-108.1,443.8 M-98.5,331.4h-113c-10.2,0-18.5,8.3-18.5,18.5v75.3c0,10.2,8.3,18.5,18.5,18.5h113
	c10.2,0,18.5-8.3,18.5-18.5v-75.3C-80,339.7-88.3,331.4-98.5,331.4 M-89.4,406.7c0,5-4.1,9.1-9.1,9.1h-112.4c-5,0-9.1-4.1-9.1-9.1
	v-56.4c0-5,4.1-9.1,9.1-9.1h112.4c5,0,9.1,4.1,9.1,9.1C-89.4,350.3-89.4,406.7-89.4,406.7z"/>
</svg>
