<?xml version="1.0" encoding="utf-8"?>
<!-- Generator: Adobe Illustrator 19.0.0, SVG Export Plug-In . SVG Version: 6.00 Build 0)  -->
<svg version="1.1" id="Layer_1" xmlns="http://www.w3.org/2000/svg" xmlns:xlink="http://www.w3.org/1999/xlink" x="0px" y="0px"
	 viewBox="-361.9 321.9 150 150" style="enable-background:new -361.9 321.9 150 150;" xml:space="preserve">
<style type="text/css">
	.st0{fill:#676767;}
</style>
<path class="st0" d="M-286.9,321.9c-41.4,0-75,33.6-75,75s33.6,75,75,75c41.4,0,75-33.6,75-75S-245.5,321.9-286.9,321.9z
	 M-311.5,436.7c-4.8,4.8-12.3,3.7-15.2-2.2c-0.6-1.3-1-2.7-1-4.3c0.1-2.6,1.3-4.9,3.3-6.8c8.1-8.1,16.2-16.3,24.4-24.3
	c1.1-1.1,1.1-1.7,0-2.7c-8.2-8.2-16.4-16.4-24.6-24.6c-4.4-4.4-3.9-11,0.9-14.4c3.8-2.6,8.6-2.2,12.1,1.2c3.9,3.9,7.8,7.8,11.7,11.7
	c6.7,6.7,13.4,13.4,20.1,20.1c4.7,4.7,4.7,10,0,14.7C-290.4,415.6-300.9,426.2-311.5,436.7z M-237.8,405
	c-10.5,10.5-20.9,20.9-31.3,31.4c-2,2-4.3,3.3-7.5,3.3c-3.6-0.2-6.5-1.9-8.1-5.5c-1.6-3.7-1-7.2,1.7-10.2c2.7-2.9,5.5-5.6,8.3-8.3
	c5.7-5.7,11.3-11.4,17-17c0.9-0.9,0.9-1.4,0-2.3c-8.3-8.2-16.5-16.4-24.8-24.7c-4.2-4.2-4-10.4,0.2-14c3.7-3.1,8.9-2.9,12.5,0.5
	c2.8,2.7,5.6,5.5,8.3,8.3c7.9,7.9,15.8,15.8,23.7,23.7C-233,395.1-233,400.3-237.8,405z"/>
</svg>
