<?xml version="1.0" encoding="utf-8"?>
<!-- Generator: Adobe Illustrator 16.0.0, SVG Export Plug-In . SVG Version: 6.00 Build 0)  -->
<!DOCTYPE svg PUBLIC "-//W3C//DTD SVG 1.1//EN" "http://www.w3.org/Graphics/SVG/1.1/DTD/svg11.dtd">
<svg version="1.1" id="Layer_1" xmlns="http://www.w3.org/2000/svg" xmlns:xlink="http://www.w3.org/1999/xlink" x="0px" y="0px"
	 width="18.182px" height="18.18px" viewBox="0 0 18.182 18.18" enable-background="new 0 0 18.182 18.18" xml:space="preserve">
<path fill="#676767" d="M9.091,0C4.07,0,0.001,4.07,0.001,9.09c0,5.02,4.069,9.09,9.09,9.09c5.02,0,9.09-4.07,9.09-9.09
	C18.181,4.07,14.111,0,9.091,0z M6.107,13.911c-0.587,0.583-1.488,0.449-1.84-0.264C4.19,13.492,4.15,13.324,4.15,13.123
	c0.008-0.315,0.154-0.591,0.396-0.829C5.531,11.313,6.51,10.323,7.5,9.347c0.134-0.133,0.132-0.2-0.002-0.332
	C6.5,8.027,5.505,7.032,4.515,6.034C3.983,5.497,4.04,4.702,4.63,4.287c0.456-0.32,1.04-0.269,1.461,0.145
	c0.478,0.469,0.947,0.945,1.421,1.42C8.325,6.664,9.14,7.479,9.951,8.291c0.568,0.57,0.568,1.208,0,1.777
	C8.671,11.35,7.392,12.634,6.107,13.911z M15.043,10.076c-1.267,1.267-2.534,2.53-3.798,3.801c-0.243,0.244-0.523,0.397-0.909,0.403
	c-0.431-0.026-0.79-0.231-0.983-0.664c-0.199-0.448-0.125-0.874,0.208-1.232c0.322-0.348,0.668-0.673,1.002-1.007
	c0.687-0.688,1.369-1.376,2.062-2.057c0.114-0.113,0.106-0.174-0.003-0.283c-1.006-0.995-2.004-1.993-3.002-2.998
	C9.115,5.531,9.131,4.778,9.65,4.347c0.451-0.377,1.077-0.356,1.517,0.063c0.344,0.327,0.674,0.668,1.008,1.003
	c0.957,0.958,1.915,1.915,2.872,2.872C15.623,8.865,15.622,9.496,15.043,10.076z"/>
</svg>
