<?xml version="1.0" encoding="utf-8"?>
<!-- Generator: Adobe Illustrator 16.0.0, SVG Export Plug-In . SVG Version: 6.00 Build 0)  -->
<!DOCTYPE svg PUBLIC "-//W3C//DTD SVG 1.1//EN" "http://www.w3.org/Graphics/SVG/1.1/DTD/svg11.dtd">
<svg version="1.1" id="Layer_1" xmlns="http://www.w3.org/2000/svg" xmlns:xlink="http://www.w3.org/1999/xlink" x="0px" y="0px"
	 width="18.109px" height="18.122px" viewBox="0 0 18.109 18.122" enable-background="new 0 0 18.109 18.122" xml:space="preserve">
<g>
	<path fill="#818282" d="M7.145,12.534c0.087,0.137,0.188,0.27,0.308,0.389c0.448,0.449,1.041,0.666,1.63,0.654
		c0.588,0.012,1.18-0.205,1.629-0.654c0.12-0.119,0.22-0.252,0.307-0.389l4.184-4.182c0.877-0.877,0.877-2.298,0-3.175
		c-0.877-0.877-2.301-0.877-3.178,0l-0.735,0.738V2.246C11.286,1.005,10.279,0,9.04,0C7.8,0,6.795,1.005,6.795,2.246v3.587
		L6.124,5.162c-0.877-0.876-2.298-0.876-3.175,0c-0.878,0.877-0.878,2.299,0,3.176L7.145,12.534z"/>
	<path fill="#818282" d="M15.815,11.318h-1.986l-2.522,2.488c-0.603,0.554-1.401,0.901-2.285,0.901
		c-0.879,0-1.673-0.344-2.273-0.893l-0.009,0.008l-0.081-0.082c-0.021-0.02-0.039-0.039-0.06-0.059l-2.364-2.364H2.295
		C1.027,11.318,0,12.344,0,13.613v2.216c0,1.266,1.026,2.293,2.295,2.293h13.521c1.269,0,2.295-1.027,2.295-2.293v-2.216
		C18.11,12.344,17.083,11.318,15.815,11.318z M16.168,17.225c-0.625,0-1.132-0.508-1.132-1.133s0.507-1.131,1.132-1.131
		s1.131,0.506,1.131,1.131S16.793,17.225,16.168,17.225z"/>
</g>
</svg>
