<?xml version="1.0" encoding="utf-8"?>
<!-- Generator: Adobe Illustrator 19.0.0, SVG Export Plug-In . SVG Version: 6.00 Build 0)  -->
<svg version="1.1" id="Layer_1" xmlns="http://www.w3.org/2000/svg" xmlns:xlink="http://www.w3.org/1999/xlink" x="0px" y="0px"
	 viewBox="-361.9 321.9 150 150" style="enable-background:new -361.9 321.9 150 150;" xml:space="preserve">
<style type="text/css">
	.st0{fill:#818282;}
</style>
<g>
	<path class="st0" d="M-302.8,425.7c0.7,1.1,1.6,2.2,2.5,3.2c3.7,3.7,8.6,5.5,13.5,5.4c4.9,0.1,9.8-1.7,13.5-5.4
		c1-1,1.8-2.1,2.5-3.2l34.6-34.6c7.3-7.3,7.3-19,0-26.3c-7.3-7.3-19-7.3-26.3,0l-6.1,6.1v-30.4c0-10.3-8.4-18.6-18.6-18.6
		c-10.3,0-18.6,8.3-18.6,18.6v29.7l-5.6-5.6c-7.3-7.3-19-7.3-26.3,0c-7.3,7.3-7.3,19,0,26.3L-302.8,425.7z"/>
	<path class="st0" d="M-231,415.6h-16.4l-20.9,20.6c-5,4.6-11.6,7.5-18.9,7.5c-7.3,0-13.8-2.8-18.8-7.4l-0.1,0.1l-0.7-0.7
		c-0.2-0.2-0.3-0.3-0.5-0.5l-19.6-19.6h-16.1c-10.5,0-19,8.5-19,19V453c0,10.5,8.5,19,19,19H-231c10.5,0,19-8.5,19-19v-18.3
		C-212,424.1-220.5,415.6-231,415.6z M-228.1,464.5c-5.2,0-9.4-4.2-9.4-9.4s4.2-9.4,9.4-9.4c5.2,0,9.4,4.2,9.4,9.4
		S-222.9,464.5-228.1,464.5z"/>
</g>
</svg>
