<?xml version="1.0" encoding="utf-8"?>
<!-- Generator: Adobe Illustrator 19.0.0, SVG Export Plug-In . SVG Version: 6.00 Build 0)  -->
<svg version="1.1" id="Layer_1" xmlns="http://www.w3.org/2000/svg" xmlns:xlink="http://www.w3.org/1999/xlink" x="0px" y="0px"
	 viewBox="-230 322 150 150" style="enable-background:new -230 322 150 150;" xml:space="preserve">
<style type="text/css">
	.st0{fill:#818282;}
</style>
<path class="st0" d="M-144.1,450.5l-42.6-0.1v-42.6l79.6-79.7c2.8-2.8,6.2-4.6,9.9-5.3c-1.7-0.4-3.4-0.7-5.3-0.7h-105.1
	c-12.4,0-22.4,10-22.4,22.4v105.1c0,12.4,10,22.4,22.4,22.4h105.1c12.4,0,22.4-10,22.4-22.4v-63.2L-144.1,450.5z M-176.8,428.5
	l10.3,0.1l0.4,11h21.3c0-17.7-14.3-32-32-32C-176.8,407.8-176.8,428.5-176.8,428.5z"/>
</svg>
