<?xml version="1.0" encoding="utf-8"?>
<!-- Generator: Adobe Illustrator 19.0.0, SVG Export Plug-In . SVG Version: 6.00 Build 0)  -->
<svg version="1.1" id="Layer_1" xmlns="http://www.w3.org/2000/svg" xmlns:xlink="http://www.w3.org/1999/xlink" x="0px" y="0px"
	 viewBox="-361.9 321.9 150 150" style="enable-background:new -361.9 321.9 150 150;" xml:space="preserve">
<style type="text/css">
	.st0{fill:#818282;}
</style>
<path class="st0" d="M-343.4,387.6h112.4c0.1,0,0.1,0,0.2,0c4.9,0.1,9.8-1.7,13.5-5.5c7.3-7.3,7.3-19.2,0-26.5l-28.2-28.2
	c-7.3-7.3-19.2-7.3-26.5,0c-6.2,6.2-7.1,15.5-2.9,22.7h-68.6c-10.3,0-18.7,8.4-18.7,18.7S-353.7,387.6-343.4,387.6 M-230.5,406.3
	h-112.4c-0.1,0-0.1,0-0.2,0c-4.9-0.1-9.8,1.7-13.5,5.5c-7.3,7.3-7.3,19.2,0,26.5l28.2,28.2c7.3,7.3,19.2,7.3,26.5,0
	c6.2-6.2,7.1-15.5,2.9-22.7h68.6c10.3,0,18.7-8.4,18.7-18.7S-220.1,406.3-230.5,406.3"/>
</svg>
