<?xml version="1.0" encoding="utf-8"?>
<!-- Generator: Adobe Illustrator 16.0.0, SVG Export Plug-In . SVG Version: 6.00 Build 0)  -->
<!DOCTYPE svg PUBLIC "-//W3C//DTD SVG 1.1//EN" "http://www.w3.org/Graphics/SVG/1.1/DTD/svg11.dtd">
<svg version="1.1" id="Layer_1" xmlns="http://www.w3.org/2000/svg" xmlns:xlink="http://www.w3.org/1999/xlink" x="0px" y="0px"
	 width="15.843px" height="15.843px" viewBox="0 0 15.843 15.843" enable-background="new 0 0 15.843 15.843" xml:space="preserve">
<path fill="#818282" d="M7.922,0C3.547,0,0,3.547,0,7.921c0,4.375,3.547,7.922,7.922,7.922s7.921-3.547,7.921-7.922
	C15.843,3.547,12.297,0,7.922,0 M7.935,13.589c-0.63,0-1.14-0.511-1.14-1.141s0.51-1.14,1.14-1.14s1.142,0.51,1.142,1.14
	S8.564,13.589,7.935,13.589 M9.076,9.06c0,0.621-0.504,1.125-1.125,1.125S6.826,9.681,6.826,9.06V3.377
	c0-0.621,0.504-1.125,1.125-1.125s1.125,0.504,1.125,1.125V9.06z"/>
</svg>
