<?xml version="1.0" encoding="utf-8"?>
<!-- Generator: Adobe Illustrator 16.0.0, SVG Export Plug-In . SVG Version: 6.00 Build 0)  -->
<!DOCTYPE svg PUBLIC "-//W3C//DTD SVG 1.1//EN" "http://www.w3.org/Graphics/SVG/1.1/DTD/svg11.dtd">
<svg version="1.1" id="Layer_1" xmlns="http://www.w3.org/2000/svg" xmlns:xlink="http://www.w3.org/1999/xlink" x="0px" y="0px"
	 width="16.625px" height="15.825px" viewBox="0 0 16.625 15.825" enable-background="new 0 0 16.625 15.825" xml:space="preserve">
<path fill="#E52325" d="M16.267,12.302l0.013-0.01L10.418,1.42C10.074,0.587,9.261,0,8.313,0C7.364,0,6.552,0.586,6.208,1.419
	L0.32,12.342l0.013,0.008C0.126,12.697,0,13.1,0,13.535c0,1.275,1.022,2.308,2.281,2.308c0.062,0,0.12-0.013,0.18-0.018h11.703
	c0.061,0.005,0.118,0.018,0.181,0.018c1.26,0,2.28-1.033,2.28-2.308C16.625,13.08,16.49,12.659,16.267,12.302 M8.326,13.589
	c-0.63,0-1.14-0.511-1.14-1.141c0-0.629,0.51-1.14,1.14-1.14s1.142,0.511,1.142,1.14C9.468,13.078,8.956,13.589,8.326,13.589
	 M9.468,9.114c0,0.621-0.505,1.125-1.125,1.125c-0.623,0-1.125-0.504-1.125-1.125V4.552c0-0.622,0.502-1.125,1.125-1.125
	c0.62,0,1.125,0.503,1.125,1.125V9.114z"/>
</svg>
