<?xml version="1.0" encoding="utf-8"?>
<!-- Generator: Adobe Illustrator 19.0.0, SVG Export Plug-In . SVG Version: 6.00 Build 0)  -->
<svg version="1.1" id="Layer_1" xmlns="http://www.w3.org/2000/svg" xmlns:xlink="http://www.w3.org/1999/xlink" x="0px" y="0px"
	 viewBox="-363.7 322.1 150 150" style="enable-background:new -363.7 322.1 150 150;" xml:space="preserve">
<style type="text/css">
	.st0{fill:#E52325;}
</style>
<path class="st0" d="M-216.9,436.6l0.1-0.1l-52.9-98.1c-3.1-7.5-10.4-12.8-19-12.8c-8.6,0-15.9,5.3-19,12.8l-53.1,98.6l0.1,0.1
	c-1.9,3.1-3,6.8-3,10.7c0,11.5,9.2,20.8,20.6,20.8c0.6,0,1.1-0.1,1.6-0.2h105.6c0.6,0,1.1,0.2,1.6,0.2c11.4,0,20.6-9.3,20.6-20.8
	C-213.7,443.6-214.9,439.8-216.9,436.6 M-288.6,448.2c-5.7,0-10.3-4.6-10.3-10.3c0-5.7,4.6-10.3,10.3-10.3c5.7,0,10.3,4.6,10.3,10.3
	C-278.3,443.6-282.9,448.2-288.6,448.2 M-278.3,407.8c0,5.6-4.6,10.2-10.2,10.2c-5.6,0-10.2-4.5-10.2-10.2v-41.2
	c0-5.6,4.5-10.2,10.2-10.2c5.6,0,10.2,4.5,10.2,10.2V407.8z"/>
</svg>
