<?xml version="1.0" encoding="utf-8"?>
<!-- Generator: Adobe Illustrator 19.0.0, SVG Export Plug-In . SVG Version: 6.00 Build 0)  -->
<svg version="1.1" id="Layer_1" xmlns="http://www.w3.org/2000/svg" xmlns:xlink="http://www.w3.org/1999/xlink" x="0px" y="0px"
	 viewBox="-361.9 321.9 150 150" style="enable-background:new -361.9 321.9 150 150;" xml:space="preserve">
<style type="text/css">
	.st0{fill:#676767;}
</style>
<g>
	<path class="st0" d="M-240.1,321.9c7.7,0,14.4,2.8,19.9,8.3c5.5,5.5,8.3,12.1,8.3,19.9v93.7c0,7.7-2.8,14.4-8.3,19.9
		c-5.5,5.5-12.1,8.3-19.9,8.3h-18.4v-58.1h19.4l2.9-22.6h-22.4v-14.4c0-3.6,0.8-6.4,2.3-8.2c1.5-1.8,4.5-2.7,8.9-2.7l11.9-0.1v-20.2
		c-4.1-0.6-9.9-0.9-17.4-0.9c-8.8,0-15.9,2.6-21.2,7.8c-5.3,5.2-8,12.6-8,22.1v16.7h-19.5v22.6h19.5v58.1h-52
		c-7.7,0-14.4-2.7-19.9-8.3c-5.5-5.5-8.2-12.1-8.2-19.9v-93.8c0-7.7,2.7-14.4,8.2-19.9c5.5-5.5,12.1-8.3,19.9-8.3H-240.1z"/>
</g>
</svg>
