<?xml version="1.0" encoding="utf-8"?>
<!-- Generator: Adobe Illustrator 16.0.0, SVG Export Plug-In . SVG Version: 6.00 Build 0)  -->
<!DOCTYPE svg PUBLIC "-//W3C//DTD SVG 1.1//EN" "http://www.w3.org/Graphics/SVG/1.1/DTD/svg11.dtd">
<svg version="1.1" id="Layer_1" xmlns="http://www.w3.org/2000/svg" xmlns:xlink="http://www.w3.org/1999/xlink" x="0px" y="0px"
	 width="18.105px" height="18.105px" viewBox="0 0 18.105 18.105" enable-background="new 0 0 18.105 18.105" xml:space="preserve">
<g>
	<path fill="#676767" d="M14.765,0c0.938,0,1.74,0.334,2.406,1c0.666,0.667,1.001,1.469,1.001,2.407v11.357
		c0,0.938-0.335,1.74-1.001,2.406c-0.666,0.668-1.468,1.001-2.406,1.001h-2.224v-7.041h2.353l0.355-2.743h-2.708V6.637
		c0-0.441,0.091-0.772,0.277-0.994c0.185-0.221,0.545-0.331,1.082-0.331L15.344,5.3V2.851c-0.496-0.071-1.198-0.106-2.106-0.106
		c-1.072,0-1.93,0.316-2.572,0.946c-0.644,0.632-0.964,1.523-0.964,2.674v2.023H7.334v2.743h2.367v7.041H3.407
		c-0.938,0-1.741-0.333-2.408-1.001C0.333,16.505,0,15.703,0,14.765V3.407C0,2.469,0.333,1.667,0.999,1c0.667-0.666,1.47-1,2.408-1
		H14.765z"/>
</g>
</svg>
