<?xml version="1.0" encoding="utf-8"?>
<!-- Generator: Adobe Illustrator 19.0.0, SVG Export Plug-In . SVG Version: 6.00 Build 0)  -->
<svg version="1.1" id="Layer_1" xmlns="http://www.w3.org/2000/svg" xmlns:xlink="http://www.w3.org/1999/xlink" x="0px" y="0px"
	 viewBox="-230 322 150 150" style="enable-background:new -230 322 150 150;" xml:space="preserve">
<style type="text/css">
	.st0{fill:#5BB65B;}
</style>
<g>
	<path class="st0" d="M-117.5,368.9c-15.6,0-28.1-12.5-28.1-28.1V322H-192c-10.6,0-19.3,8.6-19.3,19.3v111.4
		c0,10.6,8.6,19.3,19.3,19.3h74c10.6,0,19.3-8.6,19.3-19.3v-83.8H-117.5z M-140.1,403.1h-5.2l-15.1,21.8l14.8,21.1h5.3v8.2h-22.5
		V446h5.9l-8.3-12.4c-0.2-0.2-0.3-0.4-0.5-0.7c-0.2-0.2-0.3-0.4-0.5-0.6c-0.1-0.2-0.2-0.4-0.3-0.6c-0.2-0.3-0.3-0.6-0.4-0.8h-0.2
		c-0.1,0-0.1,0.1-0.3,0.3c-0.1,0.2-0.3,0.6-0.6,1c-0.3,0.5-0.5,0.9-0.8,1.3l-8,12.4h5.8v8.2h-21.7V446h5.3l15-21.9l-14.6-21h-5.3
		v-8.3h22.4v8.3h-5.9l8.2,12.3c0.6,0.6,1,1.2,1.3,1.8c0.2,0.3,0.3,0.6,0.4,0.8h0.2l0.2-0.2c0.2-0.2,0.4-0.6,0.7-1
		c0.3-0.5,0.6-0.9,0.8-1.3l8-12.3h-5.7v-8.3h21.6V403.1z"/>
	<path class="st0" d="M-117.7,359.5h18.9l-37.5-37.5v18.9C-136.3,351.2-127.9,359.5-117.7,359.5z"/>
</g>
</svg>
