<?xml version="1.0" encoding="utf-8"?>
<!-- Generator: Adobe Illustrator 19.0.0, SVG Export Plug-In . SVG Version: 6.00 Build 0)  -->
<svg version="1.1" id="Layer_1" xmlns="http://www.w3.org/2000/svg" xmlns:xlink="http://www.w3.org/1999/xlink" x="0px" y="0px"
	 viewBox="-366.2 321.9 150 150" style="enable-background:new -366.2 321.9 150 150;" xml:space="preserve">
<style type="text/css">
	.st0{fill:#5BB65B;}
</style>
<path class="st0" d="M-281.8,340.7v-18.8h-46.4c-10.6,0-19.3,8.6-19.3,19.3v111.4c0,10.6,8.6,19.3,19.3,19.3h74
	c10.6,0,19.3-8.6,19.3-19.3v-83.8h-18.8C-269.3,368.8-281.8,356.3-281.8,340.7 M-256.6,436.3c3.9,3.9,3.9,10.1,0,14
	c-3.9,3.9-10.1,3.9-14,0l-11.2-11.2l-11.2,11.2c-3.9,3.9-10.1,3.9-14,0c-3.9-3.9-3.9-10.1,0-14l11.2-11.2l-11.2-11.2
	c-3.9-3.9-3.9-10.1,0-14c3.9-3.9,10.1-3.9,14,0l11.2,11.2l11.2-11.2c3.9-3.9,10.1-3.9,14,0c3.9,3.9,3.9,10.1,0,14l-11.2,11.2
	L-256.6,436.3z M-253.9,359.4h18.9l-37.5-37.5v18.9C-272.5,351.1-264.1,359.4-253.9,359.4"/>
</svg>
