<?xml version="1.0" encoding="utf-8"?>
<!-- Generator: Adobe Illustrator 16.0.0, SVG Export Plug-In . SVG Version: 6.00 Build 0)  -->
<!DOCTYPE svg PUBLIC "-//W3C//DTD SVG 1.1//EN" "http://www.w3.org/Graphics/SVG/1.1/DTD/svg11.dtd">
<svg version="1.1" id="Layer_1" xmlns="http://www.w3.org/2000/svg" xmlns:xlink="http://www.w3.org/1999/xlink" x="0px" y="0px"
	 width="13.58px" height="18.106px" viewBox="0 0 13.58 18.106" enable-background="new 0 0 13.58 18.106" xml:space="preserve">
<path fill-rule="evenodd" clip-rule="evenodd" fill="#5BB65B" d="M7.922,2.269V0H2.327C1.042,0,0,1.042,0,2.327v13.452
	c0,1.285,1.042,2.327,2.327,2.327h8.927c1.284,0,2.326-1.042,2.326-2.327V5.658h-2.268C9.44,5.658,7.922,4.141,7.922,2.269
	 M10.968,13.803c0.466,0.467,0.466,1.224,0,1.689c-0.467,0.466-1.224,0.466-1.689,0l-1.356-1.356l-1.355,1.356
	c-0.467,0.466-1.223,0.466-1.69,0c-0.466-0.466-0.466-1.223,0-1.689l1.357-1.355l-1.357-1.356c-0.466-0.466-0.466-1.222,0-1.688
	c0.468-0.466,1.224-0.466,1.69,0l1.355,1.355l1.356-1.355c0.466-0.466,1.223-0.466,1.689,0c0.466,0.467,0.466,1.223,0,1.688
	l-1.356,1.356L10.968,13.803z M11.299,4.526h2.281L9.054,0v2.282C9.054,3.521,10.059,4.526,11.299,4.526"/>
</svg>
