<?xml version="1.0" encoding="utf-8"?>
<!-- Generator: Adobe Illustrator 16.0.0, SVG Export Plug-In . SVG Version: 6.00 Build 0)  -->
<!DOCTYPE svg PUBLIC "-//W3C//DTD SVG 1.1//EN" "http://www.w3.org/Graphics/SVG/1.1/DTD/svg11.dtd">
<svg version="1.1" id="Layer_1" xmlns="http://www.w3.org/2000/svg" xmlns:xlink="http://www.w3.org/1999/xlink" x="0px" y="0px"
	 width="606.726px" height="712.242px" viewBox="2.637 39.879 606.726 712.242"
	 enable-background="new 2.637 39.879 606.726 712.242" xml:space="preserve">
<g>
	<path fill="#00A1C1" d="M577.707,187.602c5.277,5.277,15.828,15.828,21.104,31.656s10.553,26.379,10.553,36.932v459
		c0,10.553-5.277,21.104-10.553,26.381c-5.275,5.275-15.826,10.551-26.379,10.551H39.569c-10.552,0-21.103-5.275-26.379-10.551
		c-5.276-5.277-10.553-15.828-10.553-26.381V76.811c0-10.553,5.276-21.104,10.553-26.379c5.276-5.277,15.827-10.553,26.379-10.553
		h358.757c10.553,0,21.104,5.275,36.932,10.553c15.83,5.275,21.104,10.553,31.656,21.104L577.707,187.602z M551.328,699.361V293.119
		H387.775c-10.551,0-21.102-5.275-26.379-10.553c-5.275-5.275-10.553-15.826-10.553-26.379V92.637H44.845v606.725H551.328z
		 M224.224,419.742c-15.827,15.826-31.655,21.102-52.759,21.102c-21.103,0-36.932-5.275-52.759-21.102
		c-15.826-15.828-21.103-31.656-21.103-52.76s5.276-36.932,21.103-52.758c15.827-15.828,31.656-21.104,52.759-21.104
		c21.104,0,36.932,5.275,52.759,21.104c15.827,15.826,21.104,31.654,21.104,52.758S240.051,403.912,224.224,419.742z
		 M503.844,519.982v126.621H97.602V572.74l73.862-73.861l52.758,52.76l153-153L503.844,519.982z M398.326,87.361v147.723h147.725
		c-5.277-5.275-5.277-10.551-10.553-15.826L408.877,92.637C414.156,92.637,408.879,92.637,398.326,87.361z"/>
</g>
</svg>
