<?xml version="1.0" encoding="utf-8"?>
<!-- Generator: Adobe Illustrator 19.0.0, SVG Export Plug-In . SVG Version: 6.00 Build 0)  -->
<svg version="1.1" id="Camada_1" xmlns="http://www.w3.org/2000/svg" xmlns:xlink="http://www.w3.org/1999/xlink" x="0px" y="0px"
	 viewBox="-361.9 321.9 150 150" style="enable-background:new -361.9 321.9 150 150;" xml:space="preserve">
<g id="XMLID_26_">
	<path id="XMLID_52_" d="M-218.6,353.8c1.8,1.6,3.4,3.7,4.7,6.4c1.3,2.7,2,5.1,2,7.4v96.4c0,2.2-0.9,4.1-2.7,5.7
		c-1.8,1.6-4,2.3-6.6,2.3h-131.2c-2.6,0-4.8-0.8-6.6-2.3c-1.8-1.6-2.7-3.5-2.7-5.7V330c0-2.2,0.9-4.1,2.7-5.7c1.8-1.6,4-2.3,6.6-2.3
		h87.5c2.6,0,5.5,0.5,8.6,1.7c3.1,1.1,5.6,2.5,7.4,4L-218.6,353.8z M-224.5,461.2v-85.7h-40.6c-2.6,0-4.8-0.8-6.6-2.3
		c-1.8-1.6-2.7-3.5-2.7-5.7v-34.8h-75v128.6H-224.5z M-274.6,411.6c2.1,1.4,4.9,3,8.2,4.7c3.8-0.4,7.6-0.6,11.4-0.6
		c9.6,0,15.3,1.4,17.3,4.1c1,1.2,1.1,2.7,0.2,4.3c0,0.1,0,0.1-0.1,0.2c-0.1,0.1-0.1,0.1-0.2,0.2v0.1c-0.4,2.1-2.7,3.2-6.9,3.2
		c-3.1,0-6.9-0.6-11.2-1.7c-4.4-1.1-8.6-2.6-12.7-4.4c-14.4,1.3-27.1,3.7-38.3,6.9c-10,14.6-17.8,21.9-23.6,21.9
		c-1,0-1.9-0.2-2.7-0.6l-2.3-1c-0.1-0.1-0.2-0.2-0.6-0.4c-0.7-0.6-0.8-1.6-0.6-3c0.6-2.2,2.4-4.8,5.5-7.7c3.1-2.9,7.4-5.6,12.9-8.1
		c0.9-0.5,1.7-0.3,2.2,0.5c0.1,0.1,0.2,0.2,0.2,0.3c3.4-4.7,6.9-10.2,10.5-16.5c4.4-7.6,7.8-14.9,10.2-21.9c-1.6-4.6-2.6-9-3-13.4
		c-0.4-4.3-0.2-7.9,0.6-10.7c0.7-2.2,2.1-3.3,4.1-3.3h2.1h0.1c1.5,0,2.6,0.4,3.4,1.3c1.2,1.2,1.5,3.1,0.9,5.7
		c-0.1,0.3-0.3,0.6-0.4,0.7c0.1,0.2,0.1,0.4,0.1,0.7v2.5c-0.1,6.9-0.6,12.2-1.4,16.1C-285.3,400.8-280.6,407.4-274.6,411.6z
		 M-330.9,446c3.4-1.3,7.8-5.7,13.4-13.2c-3.3,2.2-6.2,4.6-8.5,7C-328.4,442.2-330,444.3-330.9,446z M-304.1,424.3
		c8.8-3,18-5.3,27.7-6.8c-0.1-0.1-0.6-0.3-1.3-0.8c-0.7-0.5-1.2-0.9-1.6-1.1c-4.9-3.7-9.1-8.7-12.4-14.7c-1.8,4.8-4.5,10.3-8.1,16.5
		C-301.7,420.5-303.2,422.8-304.1,424.3z M-292,369c-1,2.3-1,6-0.2,11c0.1-0.4,0.3-1.6,0.7-3.7c0-0.2,0.2-1.4,0.7-3.6
		c0.1-0.2,0.2-0.4,0.4-0.7c-0.1,0-0.1-0.1-0.1-0.2c0-0.1,0-0.1,0-0.1c0,0,0-0.1,0-0.1c-0.1-1.2-0.5-2.2-1.3-3c0,0,0,0.1-0.1,0.2V369
		z M-262,333.3v31.5h36.7c-0.7-1.6-1.4-2.8-2.1-3.4l-30.6-26.2C-258.7,334.5-260.1,333.9-262,333.3z M-241.1,423
		c-1.6-1.3-6.1-2-13.7-2c5,1.6,9,2.3,12.1,2.3c0.9,0,1.5,0,1.8-0.1C-240.9,423.2-240.9,423.1-241.1,423z"/>
</g>
</svg>
