<?xml version="1.0" encoding="utf-8"?>
<!-- Generator: Adobe Illustrator 16.0.0, SVG Export Plug-In . SVG Version: 6.00 Build 0)  -->
<!DOCTYPE svg PUBLIC "-//W3C//DTD SVG 1.1//EN" "http://www.w3.org/Graphics/SVG/1.1/DTD/svg11.dtd">
<svg version="1.1" id="Layer_1" xmlns="http://www.w3.org/2000/svg" xmlns:xlink="http://www.w3.org/1999/xlink" x="0px" y="0px"
	 width="18.217px" height="18.124px" viewBox="0 0 18.217 18.124" enable-background="new 0 0 18.217 18.124" xml:space="preserve">
<path fill-rule="evenodd" clip-rule="evenodd" fill="#818282" d="M4.6,2.276v-2.312L0,4.526h2.332C3.584,4.526,4.6,3.519,4.6,2.276
	 M15.888,2.282h-3.329v2.262c0,1.876-1.532,3.396-3.421,3.396H6.9v7.871c0,1.277,1.043,2.313,2.329,2.313h6.659
	c1.286,0,2.329-1.036,2.329-2.313V4.595C18.217,3.317,17.174,2.282,15.888,2.282 M11.427,4.559V2.246l-4.6,4.563h2.331
	C10.411,6.809,11.427,5.801,11.427,4.559 M9.061,0H5.732v2.262c0,1.876-1.532,3.396-3.421,3.396H0.074v7.871
	c0,1.277,1.043,2.312,2.329,2.312h3.329V6.214l5.23-5.231C10.541,0.39,9.848,0,9.061,0"/>
</svg>
