<?xml version="1.0" encoding="utf-8"?>
<!-- Generator: Adobe Illustrator 19.0.0, SVG Export Plug-In . SVG Version: 6.00 Build 0)  -->
<svg version="1.1" id="Layer_1" xmlns="http://www.w3.org/2000/svg" xmlns:xlink="http://www.w3.org/1999/xlink" x="0px" y="0px"
	 viewBox="-361.9 321.9 150 150" style="enable-background:new -361.9 321.9 150 150;" xml:space="preserve">
<style type="text/css">
	.st0{fill:#818282;}
</style>
<path class="st0" d="M-324,341.2v-19l-37.9,37.6h19.2C-332.4,359.7-324,351.4-324,341.2 M-231.1,341.3h-27.4v18.6
	c0,15.4-12.6,28-28.2,28h-18.4v64.8c0,10.5,8.6,19,19.2,19h54.8c10.6,0,19.2-8.5,19.2-19v-92.4
	C-211.9,349.8-220.5,341.3-231.1,341.3 M-267.8,360v-19l-37.9,37.6h19.2C-276.2,378.5-267.8,370.2-267.8,360 M-287.3,322.5h-27.4
	v18.6c0,15.4-12.6,28-28.2,28h-18.4v64.8c0,10.5,8.6,19,19.2,19h27.4v-79.3l43.1-43.1C-275.1,325.7-280.8,322.5-287.3,322.5"/>
</svg>
