<?xml version="1.0" encoding="utf-8"?>
<!-- Generator: Adobe Illustrator 16.0.0, SVG Export Plug-In . SVG Version: 6.00 Build 0)  -->
<!DOCTYPE svg PUBLIC "-//W3C//DTD SVG 1.1//EN" "http://www.w3.org/Graphics/SVG/1.1/DTD/svg11.dtd">
<svg version="1.1" id="Layer_1" xmlns="http://www.w3.org/2000/svg" xmlns:xlink="http://www.w3.org/1999/xlink" x="0px" y="0px"
	 width="13.58px" height="18.105px" viewBox="0 0 13.58 18.105" enable-background="new 0 0 13.58 18.105" xml:space="preserve">
<g>
	<path fill="#818282" d="M11.298,4.527h2.282L9.054,0v2.282C9.054,3.522,10.058,4.527,11.298,4.527z"/>
	<path fill="#818282" d="M7.922,2.269V0H2.327C1.042,0,0,1.042,0,2.327v13.453c0,1.284,1.041,2.325,2.326,2.325h8.927
		c1.285,0,2.327-1.041,2.327-2.327V5.658h-2.269C9.438,5.658,7.922,4.141,7.922,2.269z M10.176,15.811H3.365
		c-0.625,0-1.13-0.506-1.13-1.13c0-0.625,0.505-1.131,1.13-1.131h6.811c0.625,0,1.13,0.506,1.13,1.131
		C11.306,15.305,10.801,15.811,10.176,15.811z M10.176,12.446H3.365c-0.625,0-1.13-0.506-1.13-1.13c0-0.625,0.505-1.131,1.13-1.131
		h6.811c0.625,0,1.13,0.506,1.13,1.131C11.306,11.94,10.801,12.446,10.176,12.446z M10.195,9.053H3.385
		c-0.625,0-1.13-0.506-1.13-1.13c0-0.625,0.505-1.131,1.13-1.131h6.811c0.625,0,1.13,0.506,1.13,1.131
		C11.325,8.547,10.82,9.053,10.195,9.053z"/>
</g>
</svg>
