<?xml version="1.0" encoding="utf-8"?>
<!-- Generator: Adobe Illustrator 19.0.0, SVG Export Plug-In . SVG Version: 6.00 Build 0)  -->
<svg version="1.1" id="Layer_1" xmlns="http://www.w3.org/2000/svg" xmlns:xlink="http://www.w3.org/1999/xlink" x="0px" y="0px"
	 viewBox="-366.2 321.9 150 150" style="enable-background:new -366.2 321.9 150 150;" xml:space="preserve">
<style type="text/css">
	.st0{fill:#818282;}
</style>
<g>
	<path class="st0" d="M-253.9,359.5h18.9l-37.5-37.5v18.9C-272.5,351.1-264.1,359.5-253.9,359.5z"/>
	<path class="st0" d="M-281.8,340.7v-18.8h-46.4c-10.6,0-19.3,8.6-19.3,19.3v111.5c0,10.6,8.6,19.3,19.3,19.3h74
		c10.6,0,19.3-8.6,19.3-19.3v-83.8h-18.8C-269.3,368.8-281.8,356.3-281.8,340.7z M-263.2,452.9h-56.4c-5.2,0-9.4-4.2-9.4-9.4
		c0-5.2,4.2-9.4,9.4-9.4h56.4c5.2,0,9.4,4.2,9.4,9.4C-253.8,448.7-258,452.9-263.2,452.9z M-263.2,425.1h-56.4
		c-5.2,0-9.4-4.2-9.4-9.4c0-5.2,4.2-9.4,9.4-9.4h56.4c5.2,0,9.4,4.2,9.4,9.4C-253.8,420.9-258,425.1-263.2,425.1z M-263,397h-56.4
		c-5.2,0-9.4-4.2-9.4-9.4c0-5.2,4.2-9.4,9.4-9.4h56.4c5.2,0,9.4,4.2,9.4,9.4C-253.6,392.8-257.8,397-263,397z"/>
</g>
</svg>
