<?xml version="1.0" encoding="utf-8"?>
<!-- Generator: Adobe Illustrator 19.0.0, SVG Export Plug-In . SVG Version: 6.00 Build 0)  -->
<svg version="1.1" id="Layer_1" xmlns="http://www.w3.org/2000/svg" xmlns:xlink="http://www.w3.org/1999/xlink" x="0px" y="0px"
	 viewBox="-366.2 321.9 150 150" style="enable-background:new -366.2 321.9 150 150;" xml:space="preserve">
<style type="text/css">
	.st0{fill:#3689C9;}
</style>
<g>
	<path class="st0" d="M-253.9,359.4h18.9l-37.5-37.5v18.9C-272.5,351.1-264.1,359.4-253.9,359.4z"/>
	<path class="st0" d="M-281.8,340.7v-18.8h-46.3c-10.7,0-19.3,8.6-19.3,19.3v111.4c0,10.7,8.6,19.3,19.3,19.3h74
		c10.6,0,19.3-8.6,19.3-19.3v-83.9h-18.8C-269.3,368.8-281.8,356.2-281.8,340.7z M-248.8,397.4c4.4,1.6,6.7,6.3,5.1,10.7l-14.8,41.1
		c-1.6,4.4-6.4,6.6-10.8,5.1c-1.2-0.4-2.2-1.1-3-1.9c-1.2-0.8-2.2-1.9-2.9-3.3l-1.5-3.2l-1.5,3.2c-0.6,1.4-1.6,2.5-2.8,3.3
		c-0.8,0.8-1.8,1.5-3,1.9c-4.3,1.6-9.1-0.7-10.7-5.1l-14.6-41.1c-1.5-4.4,0.7-9.2,5.1-10.7c4.3-1.5,9.1,0.7,10.7,5.1l8.1,22.9l1-2.1
		c1.4-2.9,4.3-4.7,7.4-4.7c0.1,0,0.2,0,0.4,0c0.1,0,0.2,0,0.4,0c3.1,0.1,6,1.8,7.4,4.7l1,2.1l8.2-22.9
		C-258.1,398.2-253.2,395.9-248.8,397.4z"/>
</g>
</svg>
