<?xml version="1.0" encoding="utf-8"?>
<!-- Generator: Adobe Illustrator 19.2.1, SVG Export Plug-In . SVG Version: 6.00 Build 0)  -->
<svg version="1.1" id="Camada_1" xmlns="http://www.w3.org/2000/svg" xmlns:xlink="http://www.w3.org/1999/xlink" x="0px" y="0px"
	 width="150px" height="150px" viewBox="0 0 150 150" enable-background="new 0 0 150 150" xml:space="preserve">
<g>
	<path fill="#212121" d="M99.1,32.6c-3.6-3.3-5.5-7.6-5.5-12.9V0.9l36.7,36.7h-18.8C106.8,37.6,102.7,35.9,99.1,32.6z"/>
	<path fill="#212121" d="M112.4,46c-7.9,0-14.6-2.1-20.2-7.7C86.6,32.7,84,27,84,19.7V0H38.1c-5.3,0-9.4,2.3-13,5.9
		C21.4,9.5,20,14.4,20,19.7v111c0,5.3,1.4,10,5.1,13.6c3.6,3.6,7.7,5.7,13,5.7h73.3c5.3,0,9.6-2,13.2-5.7c3.6-3.6,5.3-8.3,5.3-13.6
		V46H112.4z M94,83h-3.7l-8.8,50h-8.2l-6.4-39.3l0.1-4.3v1.8L58,133h-8.2l-8.8-50H37V73h17v10h-5.9l5.5,32.4l0.5,5l0.5-5.7L62.3,73
		h6l8.8,47.6l6-37.6H77V73h17V83z"/>
</g>
</svg>
