<?xml version="1.0" encoding="utf-8"?>
<!-- Generator: Adobe Illustrator 16.0.0, SVG Export Plug-In . SVG Version: 6.00 Build 0)  -->
<!DOCTYPE svg PUBLIC "-//W3C//DTD SVG 1.1//EN" "http://www.w3.org/Graphics/SVG/1.1/DTD/svg11.dtd">
<svg version="1.1" id="Camada_1" xmlns="http://www.w3.org/2000/svg" xmlns:xlink="http://www.w3.org/1999/xlink" x="0px" y="0px"
	 width="18.106px" height="18.109px" viewBox="0 0 18.106 18.109" enable-background="new 0 0 18.106 18.109" xml:space="preserve">
<g id="XMLID_2_" enable-background="new    ">
	<path id="XMLID_13_" d="M17.305,3.84c0.22,0.188,0.408,0.445,0.565,0.768c0.157,0.324,0.236,0.621,0.236,0.89V17.14
		c0,0.27-0.11,0.499-0.33,0.687c-0.22,0.189-0.487,0.283-0.801,0.283H1.131c-0.314,0-0.582-0.094-0.801-0.283
		C0.11,17.639,0,17.409,0,17.14V0.97C0,0.7,0.11,0.472,0.33,0.282C0.55,0.095,0.817,0,1.131,0h10.562
		c0.314,0,0.66,0.067,1.038,0.202c0.377,0.135,0.675,0.296,0.896,0.484L17.305,3.84z M16.598,16.816V6.468h-4.904
		c-0.314,0-0.582-0.095-0.802-0.283s-0.33-0.417-0.33-0.688V1.293H1.509v15.523H16.598z M2.747,7.761v1.082h0.825l1.933,6.68h1.875
		l1.509-4.901c0.055-0.135,0.094-0.29,0.118-0.465C9.022,10.049,9.03,9.968,9.03,9.913h0.047l0.036,0.243
		c0.007,0.021,0.021,0.088,0.041,0.202c0.02,0.115,0.042,0.202,0.065,0.263l1.509,4.901h1.875l1.933-6.68h0.825V7.761h-3.537v1.082
		h1.061l-1.167,4.426c-0.04,0.135-0.066,0.29-0.083,0.465l-0.023,0.213h-0.047l-0.036-0.213c-0.008-0.033-0.023-0.104-0.047-0.212
		c-0.023-0.107-0.043-0.192-0.059-0.253L9.725,7.761H8.381l-1.697,5.508c-0.016,0.061-0.034,0.144-0.053,0.248
		s-0.034,0.177-0.042,0.217l-0.047,0.213H6.495l-0.023-0.213c-0.016-0.175-0.043-0.33-0.083-0.465L5.222,8.843h1.061V7.761H2.747z
		 M12.071,1.374v3.8h4.432c-0.079-0.195-0.165-0.334-0.259-0.414l-3.69-3.163C12.46,1.516,12.299,1.441,12.071,1.374z"/>
</g>
</svg>
