<?xml version="1.0" encoding="utf-8"?>
<!-- Generator: Adobe Illustrator 19.0.0, SVG Export Plug-In . SVG Version: 6.00 Build 0)  -->
<svg version="1.1" id="Camada_1" xmlns="http://www.w3.org/2000/svg" xmlns:xlink="http://www.w3.org/1999/xlink" x="0px" y="0px"
	 viewBox="-361.9 321.9 150 150" style="enable-background:new -361.9 321.9 150 150;" xml:space="preserve">
<style type="text/css">
	.st0{enable-background:new    ;}
</style>
<g id="XMLID_2_" class="st0">
	<path id="XMLID_13_" d="M-218.6,353.8c1.8,1.6,3.4,3.7,4.7,6.4c1.3,2.7,2,5.1,2,7.4v96.4c0,2.2-0.9,4.1-2.7,5.7
		c-1.8,1.6-4,2.3-6.6,2.3h-131.2c-2.6,0-4.8-0.8-6.6-2.3c-1.8-1.6-2.7-3.5-2.7-5.7V330c0-2.2,0.9-4.1,2.7-5.7c1.8-1.5,4-2.3,6.6-2.3
		h87.5c2.6,0,5.5,0.6,8.6,1.7c3.1,1.1,5.6,2.5,7.4,4L-218.6,353.8z M-224.5,461.2v-85.7h-40.6c-2.6,0-4.8-0.8-6.6-2.3
		s-2.7-3.5-2.7-5.7v-34.8h-75v128.6H-224.5z M-339.2,386.2v9h6.8l16,55.3h15.5l12.5-40.6c0.5-1.1,0.8-2.4,1-3.9
		c0.1-0.9,0.2-1.6,0.2-2h0.4l0.3,2c0.1,0.2,0.2,0.7,0.3,1.7c0.2,1,0.3,1.7,0.5,2.2l12.5,40.6h15.5l16-55.3h6.8v-9H-264v9h8.8
		l-9.7,36.7c-0.3,1.1-0.5,2.4-0.7,3.9l-0.2,1.8h-0.4l-0.3-1.8c-0.1-0.3-0.2-0.9-0.4-1.8c-0.2-0.9-0.4-1.6-0.5-2.1l-14.1-45.6h-11.1
		l-14.1,45.6c-0.1,0.5-0.3,1.2-0.4,2.1c-0.2,0.9-0.3,1.5-0.3,1.8l-0.4,1.8h-0.4l-0.2-1.8c-0.1-1.4-0.4-2.7-0.7-3.9l-9.7-36.7h8.8v-9
		H-339.2z M-261.9,333.3v31.5h36.7c-0.7-1.6-1.4-2.8-2.1-3.4l-30.6-26.2C-258.7,334.5-260.1,333.9-261.9,333.3z"/>
</g>
</svg>
