<?xml version="1.0" encoding="utf-8"?>
<!-- Generator: Adobe Illustrator 16.0.0, SVG Export Plug-In . SVG Version: 6.00 Build 0)  -->
<!DOCTYPE svg PUBLIC "-//W3C//DTD SVG 1.1//EN" "http://www.w3.org/Graphics/SVG/1.1/DTD/svg11.dtd">
<svg version="1.1" id="Layer_1" xmlns="http://www.w3.org/2000/svg" xmlns:xlink="http://www.w3.org/1999/xlink" x="0px" y="0px"
	 width="14.061px" height="14.059px" viewBox="0 0 14.061 14.059" enable-background="new 0 0 14.061 14.059" xml:space="preserve">
<g>
	<path d="M2.249,2.19c0,0.375-0.167,0.662-0.5,0.859v9.891c0,0.067-0.025,0.126-0.074,0.176c-0.05,0.049-0.108,0.074-0.176,0.074
		h-0.5c-0.068,0-0.126-0.025-0.176-0.074c-0.05-0.05-0.074-0.108-0.074-0.176V3.049c-0.333-0.198-0.5-0.484-0.5-0.859
		c0-0.276,0.098-0.512,0.293-0.707S0.973,1.19,1.249,1.19c0.276,0,0.512,0.098,0.707,0.293S2.249,1.914,2.249,2.19z M13.749,2.69
		v5.961c0,0.131-0.032,0.23-0.098,0.301s-0.168,0.143-0.309,0.215c-1.12,0.604-2.081,0.906-2.883,0.906
		c-0.317,0-0.64-0.057-0.965-0.172C9.17,9.786,8.887,9.661,8.648,9.526c-0.24-0.135-0.541-0.26-0.902-0.375
		C7.383,9.036,7.012,8.979,6.632,8.979c-1,0-2.208,0.381-3.625,1.141c-0.089,0.047-0.175,0.07-0.258,0.07
		c-0.136,0-0.253-0.049-0.352-0.148C2.299,9.943,2.249,9.825,2.249,9.69V3.893c0-0.167,0.081-0.31,0.242-0.43
		C2.601,3.39,2.806,3.279,3.109,3.127C4.338,2.502,5.434,2.19,6.398,2.19c0.557,0,1.078,0.076,1.563,0.227
		c0.484,0.151,1.055,0.38,1.711,0.688c0.198,0.099,0.427,0.148,0.688,0.148c0.281,0,0.587-0.055,0.918-0.164
		s0.617-0.231,0.859-0.367c0.242-0.135,0.472-0.258,0.688-0.367s0.358-0.164,0.426-0.164c0.136,0,0.253,0.05,0.352,0.148
		C13.699,2.437,13.749,2.554,13.749,2.69z"/>
</g>
</svg>
