<?xml version="1.0" encoding="utf-8"?>
<!-- Generator: Adobe Illustrator 19.0.0, SVG Export Plug-In . SVG Version: 6.00 Build 0)  -->
<svg version="1.1" id="Layer_1" xmlns="http://www.w3.org/2000/svg" xmlns:xlink="http://www.w3.org/1999/xlink" x="0px" y="0px"
	 viewBox="-366 322 150 150" style="enable-background:new -366 322 150 150;" xml:space="preserve">
<g>
	<path d="M-343.7,341.4c0,4.2-1.9,7.4-5.6,9.5v109.9c0,0.7-0.3,1.4-0.8,2c-0.6,0.5-1.2,0.8-2,0.8h-5.6c-0.8,0-1.4-0.3-2-0.8
		c-0.6-0.6-0.8-1.2-0.8-2V351c-3.7-2.2-5.6-5.4-5.6-9.5c0-3.1,1.1-5.7,3.3-7.9c2.2-2.2,4.8-3.3,7.9-3.3c3.1,0,5.7,1.1,7.9,3.3
		C-344.8,335.7-343.7,338.3-343.7,341.4z M-216,347v66.2c0,1.5-0.4,2.6-1.1,3.3c-0.7,0.8-1.9,1.6-3.4,2.4
		c-12.4,6.7-23.1,10.1-32,10.1c-3.5,0-7.1-0.6-10.7-1.9c-3.6-1.3-6.7-2.7-9.4-4.2c-2.7-1.5-6-2.9-10-4.2c-4-1.3-8.2-1.9-12.4-1.9
		c-11.1,0-24.5,4.2-40.3,12.7c-1,0.5-1.9,0.8-2.9,0.8c-1.5,0-2.8-0.5-3.9-1.6c-1.1-1.1-1.6-2.4-1.6-3.9v-64.4c0-1.9,0.9-3.4,2.7-4.8
		c1.2-0.8,3.5-2,6.9-3.7c13.7-6.9,25.8-10.4,36.5-10.4c6.2,0,12,0.8,17.4,2.5c5.4,1.7,11.7,4.2,19,7.6c2.2,1.1,4.7,1.6,7.6,1.6
		c3.1,0,6.5-0.6,10.2-1.8c3.7-1.2,6.9-2.6,9.5-4.1c2.7-1.5,5.2-2.9,7.6-4.1s4-1.8,4.7-1.8c1.5,0,2.8,0.6,3.9,1.6
		C-216.5,344.2-216,345.5-216,347z"/>
</g>
</svg>
