<?xml version="1.0" encoding="utf-8"?>
<!-- Generator: Adobe Illustrator 16.0.0, SVG Export Plug-In . SVG Version: 6.00 Build 0)  -->
<!DOCTYPE svg PUBLIC "-//W3C//DTD SVG 1.1//EN" "http://www.w3.org/Graphics/SVG/1.1/DTD/svg11.dtd">
<svg version="1.1" id="Layer_1" xmlns="http://www.w3.org/2000/svg" xmlns:xlink="http://www.w3.org/1999/xlink" x="0px" y="0px"
	 width="14.061px" height="14.059px" viewBox="0 0 14.061 14.059" enable-background="new 0 0 14.061 14.059" xml:space="preserve">
<g>
	<path d="M2.267,2.19c0,0.183-0.046,0.349-0.137,0.5C2.039,2.841,1.918,2.961,1.767,3.049v9.891c0,0.073-0.023,0.133-0.07,0.18
		s-0.107,0.07-0.18,0.07h-0.5c-0.073,0-0.133-0.023-0.18-0.07s-0.07-0.106-0.07-0.18V3.049C0.615,2.961,0.494,2.841,0.404,2.69
		c-0.091-0.151-0.137-0.317-0.137-0.5c0-0.276,0.098-0.512,0.293-0.707S0.99,1.19,1.267,1.19c0.276,0,0.512,0.098,0.707,0.293
		S2.267,1.914,2.267,2.19z M13.767,2.69v5.961c0,0.203-0.091,0.352-0.273,0.445c-0.052,0.026-0.097,0.05-0.133,0.07
		c-1.136,0.604-2.097,0.906-2.883,0.906c-0.458,0-0.87-0.091-1.234-0.273L9.025,9.69C8.691,9.518,8.433,9.393,8.251,9.315
		C8.069,9.237,7.831,9.161,7.54,9.088C7.248,9.015,6.951,8.979,6.65,8.979c-0.531,0-1.145,0.114-1.84,0.344
		s-1.291,0.495-1.785,0.797c-0.078,0.047-0.164,0.07-0.258,0.07c-0.083,0-0.167-0.021-0.25-0.063
		c-0.167-0.099-0.25-0.245-0.25-0.438V3.893c0-0.182,0.081-0.325,0.242-0.43c0.182-0.109,0.387-0.22,0.613-0.332
		c0.227-0.112,0.523-0.247,0.891-0.406C4.38,2.566,4.777,2.437,5.204,2.338C5.631,2.24,6.035,2.19,6.415,2.19
		c0.583,0,1.127,0.081,1.633,0.242c0.505,0.162,1.049,0.386,1.633,0.672c0.198,0.099,0.43,0.148,0.695,0.148
		c0.636,0,1.442-0.292,2.422-0.875c0.114-0.063,0.195-0.106,0.242-0.133c0.161-0.083,0.323-0.078,0.484,0.016
		C13.686,2.365,13.767,2.508,13.767,2.69z M12.767,8.354V3.541c-0.88,0.474-1.677,0.711-2.391,0.711
		c-0.427,0-0.805-0.083-1.133-0.25c-0.521-0.255-1-0.454-1.438-0.598C7.368,3.261,6.905,3.19,6.415,3.19
		c-0.901,0-1.951,0.331-3.148,0.992v4.68C4.543,8.273,5.67,7.979,6.65,7.979c0.286,0,0.556,0.02,0.809,0.059
		C7.71,8.076,7.966,8.144,8.224,8.24s0.458,0.177,0.602,0.242C8.968,8.548,9.184,8.651,9.47,8.791l0.219,0.109
		c0.229,0.114,0.492,0.172,0.789,0.172C11.103,9.073,11.865,8.833,12.767,8.354z"/>
</g>
</svg>
