<?xml version="1.0" encoding="utf-8"?>
<!-- Generator: Adobe Illustrator 19.0.0, SVG Export Plug-In . SVG Version: 6.00 Build 0)  -->
<svg version="1.1" id="Layer_1" xmlns="http://www.w3.org/2000/svg" xmlns:xlink="http://www.w3.org/1999/xlink" x="0px" y="0px"
	 viewBox="-366 322 150 150" style="enable-background:new -366 322 150 150;" xml:space="preserve">
<g>
	<path d="M-343.7,341.4c0,2-0.5,3.9-1.5,5.6c-1,1.7-2.4,3-4,4v109.9c0,0.8-0.3,1.5-0.8,2s-1.2,0.8-2,0.8h-5.6c-0.8,0-1.5-0.3-2-0.8
		c-0.5-0.5-0.8-1.2-0.8-2V351c-1.7-1-3-2.3-4-4c-1-1.7-1.5-3.5-1.5-5.6c0-3.1,1.1-5.7,3.3-7.9s4.8-3.3,7.9-3.3
		c3.1,0,5.7,1.1,7.9,3.3C-344.8,335.7-343.7,338.3-343.7,341.4z M-216,347v66.2c0,2.3-1,3.9-3,4.9c-0.6,0.3-1.1,0.6-1.5,0.8
		c-12.6,6.7-23.3,10.1-32,10.1c-5.1,0-9.7-1-13.7-3l-2.4-1.2c-3.7-1.9-6.6-3.3-8.6-4.2s-4.7-1.7-7.9-2.5c-3.2-0.8-6.5-1.2-9.9-1.2
		c-5.9,0-12.7,1.3-20.4,3.8c-7.7,2.6-14.3,5.5-19.8,8.9c-0.9,0.5-1.8,0.8-2.9,0.8c-0.9,0-1.9-0.2-2.8-0.7c-1.9-1.1-2.8-2.7-2.8-4.9
		v-64.4c0-2,0.9-3.6,2.7-4.8c2-1.2,4.3-2.4,6.8-3.7c2.5-1.2,5.8-2.7,9.9-4.5c4.1-1.8,8.5-3.2,13.2-4.3c4.7-1.1,9.2-1.6,13.5-1.6
		c6.5,0,12.5,0.9,18.1,2.7c5.6,1.8,11.7,4.3,18.1,7.5c2.2,1.1,4.8,1.6,7.7,1.6c7.1,0,16-3.2,26.9-9.7c1.3-0.7,2.2-1.2,2.7-1.5
		c1.8-0.9,3.6-0.9,5.4,0.2C-216.9,343.4-216,344.9-216,347z M-227.1,409.9v-53.5c-9.8,5.3-18.6,7.9-26.6,7.9
		c-4.7,0-8.9-0.9-12.6-2.8c-5.8-2.8-11.1-5-16-6.6c-4.9-1.6-10-2.4-15.4-2.4c-10,0-21.7,3.7-35,11v52c14.2-6.5,26.7-9.8,37.6-9.8
		c3.2,0,6.2,0.2,9,0.7c2.8,0.4,5.6,1.2,8.5,2.2c2.9,1.1,5.1,2,6.7,2.7c1.6,0.7,4,1.9,7.2,3.4l2.4,1.2c2.5,1.3,5.5,1.9,8.8,1.9
		C-245.6,417.9-237.1,415.2-227.1,409.9z"/>
</g>
</svg>
