<?xml version="1.0" encoding="utf-8"?>
<!-- Generator: Adobe Illustrator 19.0.0, SVG Export Plug-In . SVG Version: 6.00 Build 0)  -->
<svg version="1.1" id="Layer_1" xmlns="http://www.w3.org/2000/svg" xmlns:xlink="http://www.w3.org/1999/xlink" x="0px" y="0px"
	 viewBox="-361.9 321.9 150 150" style="enable-background:new -361.9 321.9 150 150;" xml:space="preserve">
<style type="text/css">
	.st0{fill:#818282;}
</style>
<path class="st0" d="M-217.4,439.9l-24.2-24.2c-4.9-4.9-11.8-6.4-18.1-4.8l-28.8-28.8l4.3-4.3c3.7-3.7,3.7-9.6,0-13.3
	c3.7,3.7,9.6,3.7,13.3,0c3.7-3.7,3.7-9.6,0-13.3l-26.5-26.5c-3.7-3.7-9.6-3.7-13.3,0c-3.7,3.7-3.7,9.6,0,13.3
	c-3.7-3.7-9.6-3.7-13.3,0l-22.5,22.5c-3.2,3.2-3.4,8.2-1,11.8c-3.6-2.5-8.6-2.3-11.8,1c-3.7,3.7-3.7,9.6,0,13.3l26.5,26.5
	c3.7,3.7,9.6,3.7,13.3,0c3.2-3.2,3.4-8.2,1-11.8c3.6,2.5,8.6,2.3,11.8-1l4.8-4.8l28.8,28.8c-1.6,6.2-0.1,13.2,4.8,18.1l24.2,24.2
	c7.3,7.3,19.2,7.3,26.5,0C-210.1,459.1-210.1,447.3-217.4,439.9"/>
</svg>
