<?xml version="1.0" encoding="utf-8"?>
<!-- Generator: Adobe Illustrator 19.0.0, SVG Export Plug-In . SVG Version: 6.00 Build 0)  -->
<svg version="1.1" id="Layer_1" xmlns="http://www.w3.org/2000/svg" xmlns:xlink="http://www.w3.org/1999/xlink" x="0px" y="0px"
	 viewBox="-361.9 321.9 150 150" style="enable-background:new -361.9 321.9 150 150;" xml:space="preserve">
<style type="text/css">
	.st0{fill:#676767;}
</style>
<g>
	<path class="st0" d="M-211.9,386.3V408c0,0.8-0.3,1.5-0.8,2.2c-0.5,0.7-1.2,1.1-2,1.3l-18.1,2.7c-1.3,3.5-2.5,6.5-3.8,8.9
		c2.3,3.3,5.8,7.8,10.4,13.5c0.7,0.8,1,1.6,1,2.4c0,0.9-0.3,1.6-0.9,2.2c-1.7,2.4-5,5.9-9.6,10.5c-4.7,4.6-7.7,6.9-9.2,6.9
		c-0.8,0-1.7-0.3-2.6-0.9l-13.5-10.6c-2.8,1.5-5.8,2.7-8.9,3.7c-1,8.8-2,14.9-2.8,18.1c-0.5,1.8-1.6,2.7-3.5,2.7h-21.7
		c-0.9,0-1.7-0.3-2.4-0.8c-0.7-0.5-1.1-1.3-1.1-2.1l-2.7-18c-3.2-1.1-6.1-2.3-8.8-3.6l-13.8,10.4c-0.7,0.6-1.5,0.9-2.5,0.9
		c-0.9,0-1.7-0.4-2.5-1.1c-8.2-7.4-13.6-12.9-16.1-16.4c-0.5-0.6-0.7-1.4-0.7-2.2c0-0.8,0.3-1.5,0.8-2.3c1-1.4,2.6-3.5,5-6.5
		c2.3-3,4.1-5.3,5.3-6.9c-1.8-3.3-3.1-6.5-4-9.7l-17.9-2.6c-0.9-0.1-1.5-0.5-2-1.2c-0.5-0.7-0.8-1.4-0.8-2.3v-21.7
		c0-0.8,0.3-1.5,0.8-2.2c0.5-0.7,1.1-1.1,1.8-1.3l18.2-2.7c0.9-3,2.2-6,3.8-9c-2.6-3.7-6.1-8.2-10.5-13.5c-0.7-0.8-1-1.6-1-2.3
		c0-0.6,0.3-1.4,0.9-2.2c1.7-2.3,4.9-5.8,9.6-10.5c4.7-4.6,7.8-7,9.2-7c0.9,0,1.7,0.3,2.5,1l13.5,10.4c2.9-1.5,5.8-2.7,8.9-3.7
		c1.1-8.8,2-14.9,2.9-18.2c0.5-1.8,1.6-2.7,3.5-2.7h21.7c0.9,0,1.7,0.3,2.4,0.8c0.7,0.6,1.1,1.3,1.1,2.1l2.7,18
		c3.2,1,6.1,2.2,8.8,3.6l13.9-10.5c0.6-0.6,1.4-0.9,2.4-0.9c0.8,0,1.6,0.3,2.4,1c8.4,7.7,13.8,13.3,16.1,16.6
		c0.5,0.5,0.7,1.2,0.7,2.1c0,0.8-0.3,1.5-0.8,2.2c-1,1.4-2.7,3.5-5,6.5c-2.4,3-4.1,5.3-5.3,6.9c1.7,3.3,3,6.4,4,9.6l17.9,2.7
		c0.8,0.1,1.5,0.5,2.1,1.2C-212.2,384.7-211.9,385.5-211.9,386.3z M-269.3,414.6c4.9-4.9,7.4-10.8,7.4-17.7s-2.5-12.8-7.4-17.7
		c-4.9-4.9-10.8-7.3-17.7-7.3c-6.9,0-12.8,2.4-17.7,7.3c-4.9,4.9-7.3,10.8-7.3,17.7c0,6.9,2.5,12.8,7.3,17.7
		c4.9,4.9,10.8,7.3,17.7,7.3C-280.1,422-274.2,419.5-269.3,414.6z"/>
</g>
</svg>
