<?xml version="1.0" encoding="utf-8"?>
<!-- Generator: Adobe Illustrator 19.0.0, SVG Export Plug-In . SVG Version: 6.00 Build 0)  -->
<svg version="1.1" id="Layer_1" xmlns="http://www.w3.org/2000/svg" xmlns:xlink="http://www.w3.org/1999/xlink" x="0px" y="0px"
	 viewBox="-361.9 321.9 150 150" style="enable-background:new -361.9 321.9 150 150;" xml:space="preserve">
<style type="text/css">
	.st0{fill:#676767;}
</style>
<g>
	<path class="st0" d="M-261.9,389.8v14.4c0,0.5-0.2,1-0.6,1.5c-0.4,0.5-0.8,0.8-1.2,0.8l-12.1,1.9c-0.6,1.8-1.4,3.8-2.5,5.9
		c1.8,2.5,4.1,5.5,7,9c0.4,0.5,0.5,1,0.5,1.6c0,0.6-0.2,1.1-0.5,1.5c-1.2,1.6-3.4,3.9-6.4,7c-3.1,3.1-5.2,4.6-6.1,4.6
		c-0.6,0-1.1-0.2-1.6-0.5l-9-7c-1.9,1-3.9,1.8-6,2.4c-0.6,5.6-1.2,9.7-1.8,12.1c-0.4,1.3-1.1,1.9-2.3,1.9h-14.5
		c-0.6,0-1.1-0.2-1.6-0.6c-0.5-0.4-0.7-0.8-0.8-1.4l-1.8-12c-1.8-0.5-3.7-1.3-5.9-2.4l-9.2,6.9c-0.4,0.4-0.9,0.5-1.6,0.5
		c-0.6,0-1.1-0.2-1.6-0.6c-7.5-6.9-11.3-11.1-11.3-12.5c0-0.5,0.2-1,0.5-1.5c0.5-0.7,1.6-2.1,3.2-4.2c1.6-2,2.8-3.6,3.7-4.8
		c-1.2-2.3-2.1-4.4-2.7-6.4l-11.9-1.9c-0.5-0.1-1-0.3-1.3-0.7c-0.4-0.4-0.5-0.9-0.5-1.5v-14.4c0-0.5,0.2-1,0.5-1.5
		c0.4-0.5,0.8-0.8,1.3-0.8l12.1-1.9c0.6-1.8,1.4-3.8,2.5-5.9c-1.8-2.5-4.1-5.5-7-9c-0.4-0.6-0.5-1.1-0.5-1.6c0-0.6,0.2-1.1,0.5-1.6
		c1.1-1.6,3.3-3.9,6.4-6.9c3.1-3.1,5.2-4.6,6.2-4.6c0.6,0,1.1,0.2,1.6,0.5l9,7c1.8-0.9,3.8-1.8,6-2.5c0.6-5.6,1.2-9.6,1.8-12
		c0.4-1.3,1.2-1.9,2.3-1.9h14.5c0.6,0,1.1,0.2,1.6,0.6c0.5,0.4,0.7,0.8,0.8,1.4l1.8,12c1.8,0.5,3.7,1.3,5.9,2.4l9.2-7
		c0.4-0.4,0.9-0.5,1.6-0.5c0.6,0,1.1,0.2,1.6,0.6c7.5,6.9,11.3,11.1,11.3,12.5c0,0.5-0.2,1-0.5,1.5c-0.6,0.8-1.7,2.2-3.3,4.2
		c-1.6,2-2.7,3.5-3.5,4.7c1.2,2.5,2.1,4.6,2.7,6.4l11.9,1.8c0.5,0.1,1,0.4,1.3,0.8C-262.1,388.7-261.9,389.2-261.9,389.8z
		 M-297.8,411.1c3.9-3.9,5.9-8.6,5.9-14.1c0-5.5-1.9-10.2-5.9-14.1c-3.9-3.9-8.6-5.9-14.1-5.9c-5.5,0-10.2,1.9-14.1,5.9
		c-3.9,3.9-5.9,8.6-5.9,14.1c0,5.5,2,10.2,5.9,14.1c3.9,3.9,8.6,5.9,14.1,5.9C-306.4,416.9-301.7,415-297.8,411.1z M-211.9,351.5
		v10.9c0,0.8-3.9,1.6-11.6,2.4c-0.6,1.4-1.4,2.8-2.3,4.1c2.7,5.9,4,9.5,4,10.8c0,0.2-0.1,0.4-0.3,0.5c-6.4,3.7-9.6,5.5-9.7,5.5
		c-0.4,0-1.6-1.2-3.6-3.7c-2-2.5-3.3-4.2-4.1-5.3c-1,0.1-1.8,0.2-2.3,0.2c-0.5,0-1.3-0.1-2.3-0.2c-0.7,1.1-2.1,2.9-4.1,5.3
		c-2,2.4-3.2,3.7-3.6,3.7c-0.1,0-3.3-1.8-9.7-5.5c-0.2-0.1-0.3-0.3-0.3-0.5c0-1.3,1.3-4.9,4-10.8c-0.9-1.3-1.7-2.7-2.3-4.1
		c-7.8-0.8-11.6-1.6-11.6-2.4v-10.9c0-0.8,3.9-1.6,11.6-2.4c0.7-1.5,1.5-2.9,2.3-4.1c-2.7-5.9-4-9.5-4-10.8c0-0.2,0.1-0.4,0.3-0.5
		c0.2-0.1,1.1-0.6,2.7-1.6c1.6-0.9,3.1-1.8,4.6-2.7c1.5-0.8,2.2-1.3,2.3-1.3c0.4,0,1.6,1.2,3.6,3.6c2,2.4,3.4,4.2,4.1,5.3
		c1-0.1,1.8-0.2,2.3-0.2c0.5,0,1.3,0.1,2.3,0.2c2.7-3.7,5.1-6.6,7.2-8.8l0.5-0.2c0.2,0,3.4,1.8,9.7,5.5c0.2,0.2,0.3,0.3,0.3,0.5
		c0,1.3-1.3,4.9-4,10.8c0.9,1.2,1.7,2.5,2.3,4.1C-215.8,349.8-211.9,350.6-211.9,351.5z M-211.9,431.5v10.9c0,0.8-3.9,1.6-11.6,2.4
		c-0.6,1.4-1.4,2.7-2.3,4.1c2.7,5.9,4,9.5,4,10.8c0,0.2-0.1,0.4-0.3,0.5c-6.4,3.7-9.6,5.6-9.7,5.6c-0.4,0-1.6-1.2-3.6-3.7
		c-2-2.5-3.3-4.2-4.1-5.3c-1,0.1-1.8,0.1-2.3,0.1c-0.5,0-1.3-0.1-2.3-0.1c-0.7,1.1-2.1,2.9-4.1,5.3c-2,2.4-3.2,3.7-3.6,3.7
		c-0.1,0-3.3-1.9-9.7-5.6c-0.2-0.2-0.3-0.3-0.3-0.5c0-1.3,1.3-4.9,4-10.8c-0.9-1.3-1.7-2.6-2.3-4.1c-7.8-0.8-11.6-1.6-11.6-2.4
		v-10.9c0-0.8,3.9-1.6,11.6-2.4c0.7-1.5,1.5-2.8,2.3-4.1c-2.7-5.9-4-9.5-4-10.8c0-0.2,0.1-0.4,0.3-0.6c0.2-0.1,1.1-0.6,2.7-1.6
		c1.6-0.9,3.1-1.8,4.6-2.7c1.5-0.8,2.2-1.3,2.3-1.3c0.4,0,1.6,1.2,3.6,3.6c2,2.4,3.4,4.2,4.1,5.3c1-0.1,1.8-0.2,2.3-0.2
		c0.5,0,1.3,0.1,2.3,0.2c2.7-3.7,5.1-6.6,7.2-8.7l0.5-0.2c0.2,0,3.4,1.8,9.7,5.5c0.2,0.2,0.3,0.3,0.3,0.6c0,1.3-1.3,4.9-4,10.8
		c0.9,1.2,1.7,2.6,2.3,4.1C-215.8,429.8-211.9,430.6-211.9,431.5z M-232,356.9c0-2.7-1-5.1-3-7c-2-2-4.3-3-7-3c-2.7,0-5.1,1-7.1,3
		c-2,2-3,4.3-3,7c0,2.8,1,5.1,2.9,7.1c2,2,4.3,2.9,7.1,2.9c2.7,0,5.1-1,7.1-2.9C-232.9,362-232,359.7-232,356.9z M-232,436.9
		c0-2.7-1-5.1-3-7c-2-2-4.3-3-7-3c-2.7,0-5.1,1-7.1,3c-2,2-3,4.3-3,7c0,2.7,1,5.1,2.9,7.1c2,2,4.3,2.9,7.1,2.9c2.7,0,5.1-1,7.1-2.9
		C-232.9,442-232,439.7-232,436.9z"/>
</g>
</svg>
