<?xml version="1.0" encoding="utf-8"?>
<!-- Generator: Adobe Illustrator 19.0.0, SVG Export Plug-In . SVG Version: 6.00 Build 0)  -->
<svg version="1.1" id="Layer_1" xmlns="http://www.w3.org/2000/svg" xmlns:xlink="http://www.w3.org/1999/xlink" x="0px" y="0px"
	 viewBox="-366 322 150 150" style="enable-background:new -366 322 150 150;" xml:space="preserve">
<g>
	<path d="M-216,398.8c0,16.3-4.8,31-14.3,44.1s-21.9,22.1-37,27.1c-1.8,0.3-3.1,0.1-3.8-0.7c-0.8-0.8-1.2-1.8-1.2-2.9v-20.6
		c0-6.3-1.7-11-5.1-13.9c3.7-0.4,7.1-1,10-1.8c3-0.8,6-2,9.2-3.8c3.2-1.7,5.8-3.9,7.9-6.5c2.1-2.6,3.9-6,5.2-10.3
		c1.3-4.2,2-9.1,2-14.7c0-7.9-2.6-14.6-7.7-20.1c2.4-5.9,2.1-12.6-0.8-19.9c-1.8-0.6-4.5-0.2-7.9,1.1c-3.5,1.3-6.5,2.7-9,4.3
		l-3.7,2.3c-6-1.7-12.3-2.5-18.8-2.5s-12.7,0.8-18.7,2.5c-1-0.7-2.4-1.6-4.2-2.6c-1.7-1.1-4.4-2.3-8.1-3.8c-3.7-1.5-6.5-1.9-8.4-1.3
		c-2.9,7.4-3.1,14-0.7,19.9c-5.1,5.5-7.7,12.2-7.7,20.1c0,5.5,0.7,10.4,2,14.7c1.3,4.2,3,7.6,5.1,10.2c2.1,2.6,4.7,4.8,7.9,6.5
		c3.2,1.8,6.2,3,9.2,3.8s6.3,1.4,10,1.8c-2.6,2.3-4.2,5.7-4.8,10.1c-1.4,0.7-2.8,1.1-4.4,1.5c-1.6,0.3-3.4,0.5-5.6,0.5
		s-4.3-0.7-6.4-2.1c-2.1-1.4-3.9-3.4-5.4-6.1c-1.2-2.1-2.8-3.8-4.7-5.1c-1.9-1.3-3.5-2.1-4.8-2.3l-2-0.3c-1.4,0-2.3,0.2-2.8,0.4
		c-0.5,0.3-0.7,0.7-0.5,1.1c0.2,0.5,0.5,0.9,0.9,1.4c0.4,0.4,0.8,0.8,1.3,1.2l0.7,0.5c1.4,0.7,2.8,1.9,4.2,3.7
		c1.4,1.8,2.4,3.5,3.1,5l1,2.2c0.8,2.5,2.3,4.5,4.3,6c2,1.5,4.2,2.5,6.6,2.9c2.3,0.4,4.6,0.7,6.8,0.7c2.2,0,4-0.1,5.4-0.3l2.3-0.4
		c0,2.5,0,5.4,0,8.7c0,3.3,0,5.1,0,5.3c0,1.2-0.4,2.1-1.3,2.9c-0.8,0.8-2.1,1-3.9,0.7c-15.1-5-27.4-14.1-37-27.1
		c-9.6-13.1-14.3-27.8-14.3-44.1c0-13.6,3.3-26.2,10-37.6c6.7-11.5,15.8-20.6,27.3-27.3c11.5-6.7,24-10.1,37.6-10.1
		c13.6,0,26.2,3.3,37.7,10.1c11.5,6.7,20.6,15.8,27.3,27.3C-219.3,372.6-216,385.2-216,398.8z"/>
</g>
</svg>
