<?xml version="1.0" encoding="utf-8"?>
<!-- Generator: Adobe Illustrator 19.0.0, SVG Export Plug-In . SVG Version: 6.00 Build 0)  -->
<svg version="1.1" id="Layer_1" xmlns="http://www.w3.org/2000/svg" xmlns:xlink="http://www.w3.org/1999/xlink" x="0px" y="0px"
	 viewBox="-364 322 150 150" style="enable-background:new -364 322 150 150;" xml:space="preserve">
<style type="text/css">
	.st0{fill:#818282;}
</style>
<path class="st0" d="M-264.5,438.1c-7.4,3.5-15.6,5.5-24.3,5.5c-8.8,0-17.2-2.1-24.6-5.7c-11.7,4-22.2,10.8-30.5,19.6
	c-5.2,5.5-1.4,14.5,6.1,14.5h97.4c7.5,0,11.3-9,6.1-14.5C-242.7,448.8-253,442.1-264.5,438.1 M-226.9,352l-58.8-29.3
	c-2.1-1-4.6-1-6.7,0l-58.8,29.3c-5.5,2.8-5.5,10.7,0,13.4l1.2,0.6v22.4c-2.7,1.7-4.7,4.5-4.7,8c0,3.1,1.6,5.8,4,7.5
	c-0.3,0.6-0.5,1.1-0.6,1.8l-3.5,20.8c-0.7,4,2.2,7.6,6.1,7.6h6.7c3.8,0,6.7-3.6,6.1-7.5l-3.2-20.8c-0.1-0.7-0.4-1.3-0.6-1.9
	c2.3-1.7,4-4.3,4-7.5c0-3.6-2.1-6.7-5.1-8.2v-17.6l48.5,24.2c2.1,1.1,4.6,1.1,6.7,0l58.8-29.3C-221.4,362.7-221.4,354.8-226.9,352
	 M-241.7,387c0-1.6-0.1-3.1-0.2-4.6l-43.8,21.8c-2.1,1-4.6,1-6.7,0l-43.4-21.6c-0.1,1.5-0.2,2.9-0.2,4.4c0,26,21.1,47.1,47.1,47.1
	S-241.7,413-241.7,387"/>
</svg>
