<?xml version="1.0" encoding="utf-8"?>
<!-- Generator: Adobe Illustrator 19.0.0, SVG Export Plug-In . SVG Version: 6.00 Build 0)  -->
<svg version="1.1" id="Layer_1" xmlns="http://www.w3.org/2000/svg" xmlns:xlink="http://www.w3.org/1999/xlink" x="0px" y="0px"
	 viewBox="-366 322 150 150" style="enable-background:new -366 322 150 150;" xml:space="preserve">
<style type="text/css">
	.st0{fill:#676767;}
	.st1{fill:#FFFFFF;}
</style>
<g>
	<rect x="-366" y="340.8" class="st0" width="150" height="112.3"/>
	<g>
		<circle class="st1" cx="-328" cy="385.5" r="11.5"/>
		<path class="st1" d="M-321,398.1c-2.1,1.1-4.4,1.8-6.9,1.8c-2.5,0-4.9-0.7-7-1.8c-9.4,2.9-16.1,11.6-16.2,22h46.2
			C-305,409.7-311.7,401-321,398.1z"/>
	</g>
	<g>
		<path class="st1" d="M-289.3,382.9c0,1.9,5,3.5,11.1,3.5h36.3c6.1,0,11.1-1.6,11.1-3.5c0-1.9-5-3.5-11.1-3.5h-36.3
			C-284.3,379.4-289.3,381-289.3,382.9z"/>
	</g>
	<g>
		<path class="st1" d="M-289.3,414.2c0,1.9,5,3.5,11.1,3.5h36.3c6.1,0,11.1-1.6,11.1-3.5s-5-3.5-11.1-3.5h-36.3
			C-284.3,410.7-289.3,412.3-289.3,414.2z"/>
	</g>
	<g>
		<path class="st1" d="M-289.3,398.5c0,1.9,5,3.5,11.1,3.5h36.3c6.1,0,11.1-1.6,11.1-3.5c0-1.9-5-3.5-11.1-3.5h-36.3
			C-284.3,395.1-289.3,396.6-289.3,398.5z"/>
	</g>
</g>
</svg>
