<?xml version="1.0" encoding="utf-8"?>
<!-- Generator: Adobe Illustrator 19.0.0, SVG Export Plug-In . SVG Version: 6.00 Build 0)  -->
<svg version="1.1" id="Layer_1" xmlns="http://www.w3.org/2000/svg" xmlns:xlink="http://www.w3.org/1999/xlink" x="0px" y="0px"
	 viewBox="-361.9 321.6 150 150" style="enable-background:new -361.9 321.6 150 150;" xml:space="preserve">
<style type="text/css">
	.st0{fill:#0B355E;}
</style>
<g>
	<path class="st0" d="M-247.1,331.8c4.5,0,8.1,3.7,8.1,8.2c0,4.4-3.7,8-8.1,8c-4.5,0-8.2-3.8-8.1-8.2
		C-255.2,335.4-251.6,331.8-247.1,331.8"/>
	<path class="st0" d="M-271.4,327.4c4.4,0,8.1,3.6,8.1,8.1c0,4.5-3.7,8.1-8.2,8.1c-4.5,0-8.1-3.6-8.1-8.1
		C-279.6,331.1-275.9,327.4-271.4,327.4"/>
	<path class="st0" d="M-255.4,430.9c0,4.4-3.8,8.1-8,8c-4.9-0.2-8.1-3.4-8.2-8.3c-0.1-4.3,3.9-8.1,8.2-8
		C-258.9,422.7-255.3,426.4-255.4,430.9"/>
	<path class="st0" d="M-361.9,414.7c0-0.6,0-1.2,0-1.7c0.8-4.4,3-6.7,7-7.4c3.7-0.6,7.2,1.5,8.8,5.2c1.3,3.2,0.1,7.2-2.7,9.2
		c-4.9,3.5-11.2,1.2-12.7-4.7C-361.7,415.2-361.8,415-361.9,414.7"/>
	<path class="st0" d="M-224.4,411.6c-4.5,0-8.2-3.7-8.1-8.1c0-4.4,3.7-8.1,8.1-8.1c4.5,0,8.2,3.7,8.1,8.2
		C-216.3,407.9-219.9,411.6-224.4,411.6"/>
	<path class="st0" d="M-287.5,449.4c0-4.6,3.6-8.1,8.2-8.1c4.4,0,8,3.7,7.9,8.2c0,4.5-3.6,8-8.1,8C-284,457.6-287.5,454-287.5,449.4
		"/>
	<path class="st0" d="M-353.7,436.9c0-4.5,3.7-8.1,8.2-8.1c4.3,0,8,3.8,8,8.1c0,4.6-3.6,8.3-8.1,8.2
		C-350.1,445-353.7,441.3-353.7,436.9"/>
	<path class="st0" d="M-325.6,371.3c0.2,4-3.1,7.9-8,8.1c-4.5,0.1-8.1-3.7-8.1-8.2c0-4.4,3.6-8.1,8.1-8
		C-329.1,363.1-325.6,366.7-325.6,371.3"/>
	<path class="st0" d="M-248.4,422.1c0.1-4.6,3.7-8.1,8.3-8c4.4,0.1,8,3.8,7.9,8.2c-0.1,4.5-3.7,8-8.3,8
		C-245,430.2-248.5,426.5-248.4,422.1"/>
	<path class="st0" d="M-302.7,343.8c0-4.5,3.6-8,8.1-8c4.5,0,8.1,3.7,8.1,8.2c0,4.5-3.7,8.1-8.3,8
		C-299.2,351.9-302.7,348.3-302.7,343.8"/>
	<path class="st0" d="M-220.2,356.1c0,4.5-3.7,8.1-8.3,8c-4.4-0.1-8-3.8-7.9-8.2c0.1-4.5,3.6-8,8.1-8
		C-223.7,347.9-220.2,351.5-220.2,356.1"/>
	<path class="st0" d="M-267.1,406.5c0-4.6,3.4-8.1,7.9-8.1c4.5,0,8.2,3.6,8.2,8.1c0,4.5-3.5,8-8,8.1
		C-263.5,414.6-267.1,411.1-267.1,406.5"/>
	<path class="st0" d="M-310.5,371c-4.5,0-8.1-3.7-8.1-8.2c0-4.4,3.8-8.1,8.2-8c4.6,0.1,8.2,3.7,8.1,8.2
		C-302.4,367.4-306.1,371-310.5,371"/>
	<path class="st0" d="M-286.2,375.4c-4.4,0-8.2-3.7-8.1-8c0.1-4.6,3.6-8.2,8.1-8.2c4.5,0,8.1,3.7,8.1,8.2
		C-278.1,371.8-281.8,375.4-286.2,375.4"/>
	<path class="st0" d="M-267.4,391.4c-4.4,0-8.1-3.6-8.1-8c0-4.5,3.5-8.2,8.1-8.2c4.4-0.1,8.2,3.8,8.2,8.2
		C-259.3,387.8-262.9,391.4-267.4,391.4"/>
	<path class="st0" d="M-326.9,461.2c-4.5,0-8.1-3.7-8.1-8.2c0-4.6,3.6-8,8.4-8c4.2,0,7.9,3.9,7.8,8.2
		C-318.9,457.6-322.5,461.2-326.9,461.2"/>
	<path class="st0" d="M-211.9,379.3c0,4.5-3.7,8.1-8.3,8c-4.4-0.1-8-3.8-7.9-8.2c0.1-4.5,3.7-8,8.2-8
		C-215.4,371.1-211.8,374.7-211.9,379.3"/>
	<path class="st0" d="M-310.8,457.5c0.1-4.5,3.7-8,8.2-8c4.5,0,8.1,3.8,8,8.3c-0.1,4.5-3.8,8.1-8.3,7.9
		C-307.4,465.7-310.9,462.1-310.8,457.5"/>
	<path class="st0" d="M-357.2,389.3c0-4.5,3.6-8.1,8-8.1c4.5,0,8.1,3.6,8.1,8.2c0,4.5-3.6,8.1-8,8.1
		C-353.6,397.5-357.2,393.9-357.2,389.3"/>
</g>
</svg>
