<?xml version="1.0" encoding="utf-8"?>
<!-- Generator: Adobe Illustrator 16.0.0, SVG Export Plug-In . SVG Version: 6.00 Build 0)  -->
<!DOCTYPE svg PUBLIC "-//W3C//DTD SVG 1.1//EN" "http://www.w3.org/Graphics/SVG/1.1/DTD/svg11.dtd">
<svg version="1.1" id="Layer_1" xmlns="http://www.w3.org/2000/svg" xmlns:xlink="http://www.w3.org/1999/xlink" x="0px" y="0px"
	 width="18.211px" height="16.756px" viewBox="0 0.574 18.211 16.756" enable-background="new 0 0.574 18.211 16.756"
	 xml:space="preserve">
<g>
	<path fill-rule="evenodd" clip-rule="evenodd" fill="#0B355E" d="M13.902,1.141c0.542,0,0.979,0.442,0.978,0.99
		c-0.002,0.533-0.445,0.97-0.979,0.967c-0.54-0.003-0.988-0.455-0.98-0.989C12.93,1.571,13.366,1.141,13.902,1.141"/>
	<path fill-rule="evenodd" clip-rule="evenodd" fill="#0B355E" d="M10.977,0.61c0.535,0,0.974,0.439,0.977,0.973
		c0.001,0.542-0.441,0.981-0.984,0.979C10.432,2.558,9.996,2.124,9.993,1.59C9.991,1.049,10.432,0.609,10.977,0.61"/>
	<path fill-rule="evenodd" clip-rule="evenodd" fill="#0B355E" d="M12.909,13.086c-0.006,0.525-0.456,0.98-0.968,0.967
		c-0.59-0.02-0.972-0.416-0.988-1c-0.018-0.518,0.465-0.971,0.984-0.965C12.482,12.096,12.913,12.541,12.909,13.086"/>
	<path fill-rule="evenodd" clip-rule="evenodd" fill="#0B355E" d="M0.065,11.137c0-0.07-0.002-0.143-0.004-0.211
		c0.102-0.525,0.365-0.803,0.842-0.887c0.443-0.078,0.873,0.178,1.057,0.627c0.156,0.383,0.012,0.871-0.328,1.113
		c-0.596,0.426-1.355,0.148-1.537-0.561C0.087,11.192,0.074,11.164,0.065,11.137"/>
	<path fill-rule="evenodd" clip-rule="evenodd" fill="#0B355E" d="M16.646,10.754c-0.542,0.002-0.984-0.441-0.979-0.982
		C15.669,9.237,16.108,8.8,16.641,8.8c0.542-0.001,0.984,0.441,0.982,0.986C17.623,10.317,17.182,10.754,16.646,10.754"/>
	<path fill-rule="evenodd" clip-rule="evenodd" fill="#0B355E" d="M9.034,15.323c0.004-0.549,0.438-0.977,0.988-0.975
		c0.525,0.004,0.959,0.451,0.955,0.992c-0.004,0.539-0.436,0.969-0.977,0.969C9.456,16.309,9.03,15.877,9.034,15.323"/>
	<path fill-rule="evenodd" clip-rule="evenodd" fill="#0B355E" d="M1.049,13.805c0.002-0.543,0.449-0.982,0.989-0.975
		C2.552,12.834,3.004,13.291,3,13.801c-0.002,0.553-0.438,0.996-0.974,0.992C1.487,14.791,1.047,14.346,1.049,13.805"/>
	<path fill-rule="evenodd" clip-rule="evenodd" fill="#0B355E" d="M4.435,5.894c0.021,0.482-0.368,0.958-0.97,0.975
		c-0.54,0.015-0.975-0.441-0.975-0.988c0.002-0.534,0.439-0.971,0.974-0.97C4.011,4.911,4.435,5.34,4.435,5.894"/>
	<path fill-rule="evenodd" clip-rule="evenodd" fill="#0B355E" d="M13.743,12.024c0.009-0.549,0.452-0.975,0.998-0.963
		c0.536,0.012,0.959,0.453,0.952,0.992c-0.009,0.545-0.448,0.969-1,0.959C14.156,13.002,13.731,12.559,13.743,12.024"/>
	<path fill-rule="evenodd" clip-rule="evenodd" fill="#0B355E" d="M7.204,2.583c0.006-0.537,0.44-0.967,0.978-0.969
		c0.539,0,0.979,0.446,0.974,0.991C9.151,3.149,8.706,3.581,8.161,3.572C7.625,3.563,7.198,3.123,7.204,2.583"/>
	<path fill-rule="evenodd" clip-rule="evenodd" fill="#0B355E" d="M17.145,4.061c-0.006,0.547-0.446,0.971-0.996,0.962
		c-0.534-0.009-0.962-0.453-0.956-0.991c0.008-0.538,0.44-0.964,0.981-0.961C16.722,3.074,17.151,3.512,17.145,4.061"/>
	<path fill-rule="evenodd" clip-rule="evenodd" fill="#0B355E" d="M11.496,10.143c-0.001-0.549,0.416-0.975,0.957-0.977
		c0.545-0.002,0.984,0.432,0.984,0.977c0.001,0.543-0.42,0.969-0.963,0.975C11.925,11.123,11.496,10.696,11.496,10.143"/>
	<path fill-rule="evenodd" clip-rule="evenodd" fill="#0B355E" d="M6.256,5.857c-0.542-0.002-0.98-0.448-0.979-0.989
		c0.003-0.53,0.455-0.973,0.983-0.964C6.809,3.912,7.243,4.35,7.241,4.893C7.237,5.423,6.792,5.86,6.256,5.857"/>
	<path fill-rule="evenodd" clip-rule="evenodd" fill="#0B355E" d="M9.185,6.389C8.649,6.388,8.202,5.942,8.209,5.419
		c0.008-0.555,0.438-0.985,0.982-0.984c0.542,0,0.979,0.446,0.975,0.991C10.162,5.962,9.723,6.391,9.185,6.389"/>
	<path fill-rule="evenodd" clip-rule="evenodd" fill="#0B355E" d="M11.46,8.319c-0.535,0.002-0.977-0.433-0.979-0.965
		c-0.005-0.548,0.422-0.985,0.971-0.994c0.526-0.007,0.987,0.454,0.983,0.986C12.432,7.883,11.997,8.317,11.46,8.319"/>
	<path fill-rule="evenodd" clip-rule="evenodd" fill="#0B355E" d="M4.278,16.735c-0.545-0.002-0.979-0.443-0.977-0.986
		c0.004-0.553,0.438-0.969,1.014-0.965c0.504,0.002,0.953,0.469,0.944,0.984C5.251,16.305,4.813,16.737,4.278,16.735"/>
	<path fill-rule="evenodd" clip-rule="evenodd" fill="#0B355E" d="M18.15,6.859c-0.005,0.546-0.445,0.971-0.997,0.961
		c-0.533-0.01-0.96-0.453-0.955-0.991c0.007-0.538,0.441-0.964,0.983-0.961C17.727,5.871,18.156,6.309,18.15,6.859"/>
	<path fill-rule="evenodd" clip-rule="evenodd" fill="#0B355E" d="M6.223,16.299c0.008-0.539,0.443-0.963,0.984-0.961
		c0.537,0,0.972,0.453,0.964,1c-0.009,0.543-0.454,0.971-1.005,0.957C6.631,17.285,6.215,16.844,6.223,16.299"/>
	<path fill-rule="evenodd" clip-rule="evenodd" fill="#0B355E" d="M0.624,8.075C0.625,7.537,1.057,7.1,1.592,7.095
		c0.541-0.004,0.98,0.438,0.979,0.984c0,0.541-0.43,0.976-0.965,0.977C1.059,9.058,0.624,8.621,0.624,8.075"/>
</g>
</svg>
