<?xml version="1.0" encoding="utf-8"?>
<!-- Generator: Adobe Illustrator 19.0.0, SVG Export Plug-In . SVG Version: 6.00 Build 0)  -->
<svg version="1.1" id="Layer_1" xmlns="http://www.w3.org/2000/svg" xmlns:xlink="http://www.w3.org/1999/xlink" x="0px" y="0px"
	 viewBox="-436.9 247.1 300 300" style="enable-background:new -436.9 247.1 300 300;" xml:space="preserve">
<style type="text/css">
	.st0{fill:#0B355E;}
</style>
<g>
	<path class="st0" d="M-436.9,360.9c0-2.5,0.7-4.6,1.9-6c1.3-1.4,3.4-2.1,6.2-2.1c2.8,0,4.9,0.7,6.2,2.1c1.3,1.4,1.9,3.4,1.9,6
		c0,2.6-0.6,4.6-1.9,6c-1.3,1.4-3.4,2.1-6.2,2.1c-2.9,0-4.9-0.7-6.2-2.1C-436.2,365.5-436.9,363.5-436.9,360.9 M-435.6,380.4
		c0-0.7,0.2-1.2,0.7-1.6c0.5-0.4,1-0.6,1.6-0.6h9.1c0.6,0,1.1,0.2,1.6,0.6c0.5,0.4,0.7,1,0.7,1.6v57.2c0,0.7-0.2,1.3-0.7,1.7
		c-0.4,0.4-1,0.6-1.6,0.6h-9.1c-0.6,0-1.1-0.2-1.6-0.6c-0.5-0.4-0.7-1-0.7-1.7V380.4z"/>
	<path class="st0" d="M-384.7,387.9c-2.6,0-5.1,0.5-7.5,1.4c-2.4,0.9-4.4,2.4-6.1,4.2v44.1c0,0.7-0.2,1.3-0.7,1.7
		c-0.5,0.4-1,0.6-1.6,0.6h-9.2c-0.6,0-1.1-0.2-1.5-0.6c-0.4-0.4-0.6-1-0.6-1.7v-57.2c0-0.6,0.2-1.1,0.6-1.6c0.4-0.5,0.9-0.7,1.5-0.7
		h9.2c0.6,0,1.1,0.2,1.6,0.7c0.5,0.4,0.7,0.9,0.7,1.6v1.4c2.4-1.9,4.9-3.2,7.6-4c2.7-0.8,5.3-1.2,8.1-1.2c3.9,0,7.4,0.6,10.6,1.8
		c3.1,1.2,5.8,3,8,5.4c2.2,2.3,3.9,5.3,5.1,8.9c1.2,3.5,1.8,7.6,1.8,12.3v32.6c0,0.7-0.2,1.3-0.6,1.7c-0.4,0.5-0.9,0.6-1.5,0.6h-9.4
		c-0.6,0-1.1-0.2-1.5-0.6c-0.4-0.4-0.6-1-0.6-1.6v-32.7c0-5.9-1.1-10.2-3.4-12.9C-376.4,389.3-379.9,387.9-384.7,387.9"/>
	<path class="st0" d="M-282.7,359.2c1,0.5,1.5,1.2,1.4,2.4l-0.8,9.4c-0.1,0.8-0.4,1.3-0.8,1.5c-0.5,0.3-1.1,0.2-1.9-0.3
		c-1.6-0.8-3.3-1.5-5.1-2c-1.8-0.6-3.6-1.1-5.5-1.6c-1.9-0.4-3.8-0.7-5.6-0.9c-1.9-0.2-3.7-0.3-5.4-0.3c-4.6,0-8.9,0.7-12.6,2.3
		c-3.7,1.5-6.9,3.7-9.6,6.3c-2.7,2.8-4.8,6-6.2,9.8c-1.4,3.8-2.2,7.9-2.2,12.4c0,4.7,0.7,8.9,2.2,12.7s3.5,7,6.3,9.7
		c2.7,2.7,6.1,4.8,10,6.2c4,1.5,8.4,2.2,13.4,2.2c2.1,0,4.1-0.1,6-0.3s3.7-0.6,5.4-1.2v-22.8h-19.6c-0.6,0-1.2-0.3-1.6-0.7
		c-0.5-0.5-0.7-0.9-0.7-1.6v-7.6c0-0.7,0.2-1.2,0.7-1.7c0.5-0.4,1-0.6,1.6-0.6h31.5c0.6,0,1.2,0.2,1.6,0.6c0.4,0.5,0.7,1,0.7,1.7
		v39.7c0,0.7-0.2,1.2-0.5,1.7c-0.3,0.5-0.7,0.7-1.2,1c-3.8,1.4-7.6,2.5-11.6,3.1s-8.2,1-12.8,1c-6.9,0-13.2-1-18.8-3.2
		c-5.6-2.2-10.4-5.1-14.4-9c-4-3.8-7-8.4-9.2-13.6c-2.2-5.3-3.2-11.1-3.2-17.4c0-6.1,1-11.8,3.1-17c2.1-5.3,5.1-9.8,8.9-13.7
		c3.9-3.9,8.5-6.9,13.9-9.1c5.4-2.2,11.6-3.3,18.3-3.3c4.3,0,8.5,0.3,12.6,1C-290.3,356.7-286.4,357.7-282.7,359.2"/>
	<path class="st0" d="M-250.7,441.4c-3.3,0-6.4-0.5-9.2-1.3c-2.8-0.8-5.3-2.2-7.5-3.8c-2.1-1.7-3.8-3.7-5-6.3
		c-1.2-2.5-1.9-5.4-1.9-8.6c0-3.2,0.6-6.1,1.8-8.7c1.2-2.6,3-4.8,5.3-6.6c2.4-1.8,5.3-3.2,8.7-4.2c3.4-1,7.4-1.5,11.9-1.5h12.7v-2.9
		c0-1.8-0.3-3.3-0.7-4.5c-0.5-1.2-1.3-2.2-2.3-2.9c-1.1-0.7-2.5-1.3-4.1-1.6c-1.7-0.3-3.6-0.5-5.9-0.5c-3.3,0-6.5,0.4-9.8,1.2
		c-3.3,0.8-6.2,1.8-8.9,3.3c-1.6,0.7-2.4,0.2-2.7-1.6l-0.8-7.2c-0.1-1,0.3-1.7,1.2-2.2c1.4-0.7,2.9-1.4,4.6-1.9s3.5-1.1,5.3-1.5
		c1.9-0.4,3.8-0.7,5.7-0.9c2-0.2,3.9-0.3,5.9-0.3c4.4,0,8.4,0.4,11.6,1.2c3.3,0.8,6,2.1,8.1,3.9c2.2,1.8,3.8,4.2,4.8,7.2
		c1.1,3,1.6,6.6,1.6,11v37.7c0,0.7-0.3,1.3-0.7,1.7c-0.5,0.5-1,0.6-1.6,0.6h-9.1c-0.6,0-1.1-0.2-1.6-0.6c-0.5-0.4-0.7-1-0.7-1.7
		v-1.4c-1.2,1-2.5,1.8-3.9,2.5c-1.4,0.7-2.8,1.2-4.3,1.6c-1.4,0.3-2.9,0.7-4.4,0.8C-247.7,441.3-249.2,441.4-250.7,441.4
		 M-248.7,430.1c3.1,0,6-0.4,8.6-1.3c2.6-0.9,4.8-2.3,6.5-4.2v-13.2H-246c-2.6,0-4.8,0.2-6.6,0.7c-1.8,0.4-3.3,1-4.5,1.9
		s-2,1.8-2.5,3.1c-0.6,1.2-0.8,2.6-0.8,4.1c0,3.2,1.1,5.5,3.2,6.9C-255.2,429.4-252.3,430.1-248.7,430.1"/>
	<path class="st0" d="M-211.9,360.9c0-2.5,0.6-4.6,1.9-6c1.2-1.4,3.3-2.1,6.3-2.1c2.8,0,4.8,0.7,6.1,2.1c1.3,1.4,2,3.4,2,6
		c0,2.6-0.7,4.6-2,6c-1.3,1.4-3.3,2.1-6.1,2.1c-2.9,0-5-0.7-6.3-2.1C-211.3,365.5-211.9,363.5-211.9,360.9 M-210.6,380.4
		c0-0.7,0.3-1.2,0.7-1.6c0.4-0.4,1-0.6,1.6-0.6h9c0.6,0,1.2,0.2,1.6,0.6c0.5,0.4,0.7,1,0.7,1.6v57.2c0,0.7-0.3,1.3-0.7,1.7
		c-0.5,0.5-1,0.6-1.6,0.6h-9c-0.6,0-1.2-0.2-1.6-0.6c-0.5-0.4-0.7-1-0.7-1.7V380.4z"/>
	<path class="st0" d="M-167.4,441.4c-3.3,0-6.4-0.5-9.2-1.3c-2.9-0.8-5.4-2.2-7.5-3.8s-3.9-3.7-5.1-6.3c-1.2-2.5-1.8-5.4-1.8-8.6
		c0-3.2,0.6-6.1,1.8-8.7c1.2-2.6,3-4.8,5.4-6.6c2.3-1.8,5.3-3.2,8.7-4.2c3.4-1,7.4-1.5,11.9-1.5h12.7v-2.9c0-1.8-0.3-3.3-0.7-4.5
		c-0.5-1.2-1.3-2.2-2.3-2.9c-1-0.7-2.5-1.3-4.1-1.6c-1.6-0.3-3.7-0.5-5.9-0.5c-3.3,0-6.6,0.4-9.8,1.2c-3.2,0.8-6.2,1.8-9,3.3
		c-1.5,0.7-2.3,0.2-2.6-1.6l-0.8-7.2c-0.1-1,0.3-1.7,1.2-2.2c1.3-0.7,2.8-1.4,4.5-1.9c1.8-0.6,3.6-1.1,5.4-1.5
		c1.8-0.4,3.8-0.7,5.7-0.9c2-0.2,3.9-0.3,5.9-0.3c4.5,0,8.4,0.4,11.7,1.2c3.3,0.8,6,2.1,8.1,3.9c2.1,1.8,3.7,4.2,4.8,7.2
		c1,3,1.6,6.6,1.6,11v37.7c0,0.7-0.3,1.3-0.7,1.7c-0.5,0.5-1,0.6-1.6,0.6h-9.1c-0.6,0-1.2-0.2-1.6-0.6c-0.5-0.4-0.7-1-0.7-1.6v-1.4
		c-1.2,1-2.5,1.8-3.9,2.5s-2.8,1.2-4.2,1.6c-1.5,0.3-2.9,0.7-4.4,0.8C-164.5,441.3-165.9,441.4-167.4,441.4 M-165.5,430.1
		c3.1,0,6-0.4,8.6-1.3c2.6-0.9,4.7-2.3,6.5-4.2v-13.2h-12.3c-2.6,0-4.8,0.2-6.6,0.7c-1.8,0.4-3.4,1-4.5,1.9c-1.1,0.8-2,1.8-2.5,3.1
		c-0.6,1.2-0.8,2.6-0.8,4.1c0,3.2,1.1,5.5,3.2,6.9C-171.9,429.4-169.1,430.1-165.5,430.1"/>
</g>
</svg>
