<?xml version="1.0" encoding="utf-8"?>
<!-- Generator: Adobe Illustrator 19.0.0, SVG Export Plug-In . SVG Version: 6.00 Build 0)  -->
<svg version="1.1" id="Layer_1" xmlns="http://www.w3.org/2000/svg" xmlns:xlink="http://www.w3.org/1999/xlink" x="0px" y="0px"
	 viewBox="-80 322 150 150" style="enable-background:new -80 322 150 150;" xml:space="preserve">
<style type="text/css">
	.st0{fill:#0B355E;}
</style>
<g>
	<path class="st0" d="M-80,378.9c0-1.2,0.3-2.3,0.9-3c0.6-0.7,1.7-1,3.1-1c1.4,0,2.4,0.3,3.1,1c0.6,0.7,0.9,1.7,0.9,3
		c0,1.3-0.3,2.3-0.9,3c-0.6,0.7-1.7,1-3.1,1c-1.4,0-2.4-0.3-3.1-1C-79.7,381.2-80,380.2-80,378.9 M-79.4,388.6
		c0-0.3,0.1-0.6,0.3-0.8c0.2-0.2,0.5-0.3,0.8-0.3h4.5c0.3,0,0.5,0.1,0.8,0.3c0.2,0.2,0.3,0.5,0.3,0.8v28.6c0,0.3-0.1,0.6-0.3,0.8
		c-0.2,0.2-0.5,0.3-0.8,0.3h-4.5c-0.3,0-0.5-0.1-0.8-0.3c-0.2-0.2-0.3-0.5-0.3-0.8V388.6z"/>
	<path class="st0" d="M-53.9,392.4c-1.3,0-2.5,0.2-3.7,0.7c-1.2,0.4-2.2,1.2-3,2.1v22c0,0.3-0.1,0.6-0.3,0.8
		c-0.2,0.2-0.5,0.3-0.8,0.3h-4.6c-0.3,0-0.5-0.1-0.7-0.3c-0.2-0.2-0.3-0.5-0.3-0.8v-28.6c0-0.3,0.1-0.5,0.3-0.8
		c0.2-0.2,0.4-0.3,0.7-0.3h4.6c0.3,0,0.5,0.1,0.8,0.3c0.2,0.2,0.3,0.4,0.3,0.8v0.7c1.2-0.9,2.4-1.6,3.8-2c1.3-0.4,2.6-0.6,4-0.6
		c1.9,0,3.7,0.3,5.3,0.9c1.5,0.6,2.9,1.5,4,2.7c1.1,1.1,1.9,2.6,2.5,4.4c0.6,1.7,0.9,3.8,0.9,6.1v16.3c0,0.3-0.1,0.6-0.3,0.8
		c-0.2,0.2-0.4,0.3-0.7,0.3h-4.7c-0.3,0-0.5-0.1-0.7-0.3c-0.2-0.2-0.3-0.5-0.3-0.8v-16.3c0-2.9-0.5-5.1-1.7-6.4
		C-49.8,393.1-51.5,392.4-53.9,392.4"/>
	<path class="st0" d="M-2.9,378c0.5,0.2,0.7,0.6,0.7,1.2l-0.4,4.7c0,0.4-0.2,0.6-0.4,0.7c-0.2,0.1-0.5,0.1-0.9-0.1
		c-0.8-0.4-1.6-0.7-2.5-1c-0.9-0.3-1.8-0.5-2.7-0.8c-0.9-0.2-1.9-0.3-2.8-0.4c-0.9-0.1-1.8-0.1-2.7-0.1c-2.3,0-4.4,0.3-6.3,1.1
		c-1.8,0.7-3.4,1.8-4.8,3.1c-1.3,1.4-2.4,3-3.1,4.9c-0.7,1.9-1.1,3.9-1.1,6.2c0,2.3,0.3,4.4,1.1,6.3c0.7,1.9,1.7,3.5,3.1,4.8
		c1.3,1.3,3,2.4,5,3.1c2,0.7,4.2,1.1,6.7,1.1c1,0,2,0,3-0.1c0.9-0.1,1.8-0.3,2.7-0.6v-11.4h-9.8c-0.3,0-0.6-0.1-0.8-0.3
		c-0.2-0.2-0.3-0.4-0.3-0.8v-3.8c0-0.3,0.1-0.6,0.3-0.8c0.2-0.2,0.5-0.3,0.8-0.3h15.7c0.3,0,0.6,0.1,0.8,0.3
		c0.2,0.2,0.3,0.5,0.3,0.8v19.8c0,0.3-0.1,0.6-0.2,0.8c-0.1,0.2-0.3,0.3-0.6,0.5c-1.9,0.7-3.8,1.2-5.8,1.5s-4.1,0.5-6.4,0.5
		c-3.4,0-6.6-0.5-9.4-1.6c-2.8-1.1-5.2-2.5-7.2-4.5c-2-1.9-3.5-4.2-4.6-6.8c-1.1-2.6-1.6-5.5-1.6-8.7c0-3,0.5-5.9,1.5-8.5
		c1-2.6,2.5-4.9,4.4-6.8c1.9-1.9,4.2-3.4,6.9-4.5s5.8-1.6,9.1-1.6c2.1,0,4.2,0.1,6.3,0.5C-6.7,376.8-4.8,377.3-2.9,378"/>
	<path class="st0" d="M13.1,419.1c-1.6,0-3.2-0.2-4.6-0.6c-1.4-0.4-2.6-1.1-3.7-1.9c-1-0.8-1.9-1.8-2.5-3.1
		c-0.6-1.2-0.9-2.7-0.9-4.3c0-1.6,0.3-3,0.9-4.3c0.6-1.3,1.5-2.4,2.6-3.3c1.2-0.9,2.6-1.6,4.3-2.1c1.7-0.5,3.7-0.7,5.9-0.7h6.3v-1.4
		c0-0.9-0.1-1.6-0.3-2.2c-0.2-0.6-0.6-1.1-1.1-1.4c-0.5-0.3-1.2-0.6-2-0.8c-0.8-0.1-1.8-0.2-2.9-0.2c-1.6,0-3.2,0.2-4.9,0.6
		c-1.6,0.4-3.1,0.9-4.4,1.6c-0.8,0.3-1.2,0.1-1.3-0.8l-0.4-3.6c0-0.5,0.1-0.8,0.6-1.1c0.7-0.3,1.4-0.7,2.3-0.9s1.7-0.5,2.6-0.7
		c0.9-0.2,1.9-0.3,2.8-0.4c1-0.1,1.9-0.1,2.9-0.1c2.2,0,4.2,0.2,5.8,0.6c1.6,0.4,3,1,4,1.9c1.1,0.9,1.9,2.1,2.4,3.6
		c0.5,1.5,0.8,3.3,0.8,5.5v18.8c0,0.3-0.1,0.6-0.3,0.8c-0.2,0.2-0.5,0.3-0.8,0.3h-4.5c-0.3,0-0.5-0.1-0.8-0.3
		c-0.2-0.2-0.3-0.5-0.3-0.8v-0.7c-0.6,0.5-1.2,0.9-1.9,1.2c-0.7,0.3-1.4,0.6-2.1,0.8c-0.7,0.1-1.4,0.3-2.2,0.4
		C14.6,419.1,13.8,419.1,13.1,419.1 M14.1,413.5c1.5,0,3-0.2,4.3-0.6s2.4-1.1,3.2-2.1v-6.6h-6.2c-1.3,0-2.4,0.1-3.3,0.3
		c-0.9,0.2-1.6,0.5-2.2,0.9c-0.6,0.4-1,0.9-1.2,1.5c-0.3,0.6-0.4,1.3-0.4,2c0,1.6,0.5,2.7,1.6,3.4C10.8,413.1,12.3,413.5,14.1,413.5
		"/>
	<path class="st0" d="M32.5,378.9c0-1.2,0.3-2.3,0.9-3c0.6-0.7,1.6-1,3.1-1c1.4,0,2.4,0.3,3,1c0.6,0.7,1,1.7,1,3c0,1.3-0.3,2.3-1,3
		c-0.6,0.7-1.6,1-3,1c-1.4,0-2.5-0.3-3.1-1S32.5,380.2,32.5,378.9 M33.1,388.6c0-0.3,0.1-0.6,0.3-0.8c0.2-0.2,0.5-0.3,0.8-0.3h4.5
		c0.3,0,0.6,0.1,0.8,0.3c0.2,0.2,0.3,0.5,0.3,0.8v28.6c0,0.3-0.1,0.6-0.3,0.8c-0.2,0.2-0.5,0.3-0.8,0.3h-4.5c-0.3,0-0.6-0.1-0.8-0.3
		c-0.2-0.2-0.3-0.5-0.3-0.8V388.6z"/>
	<path class="st0" d="M54.7,419.1c-1.6,0-3.2-0.2-4.6-0.6c-1.4-0.4-2.7-1.1-3.7-1.9s-1.9-1.8-2.5-3.1c-0.6-1.2-0.9-2.7-0.9-4.3
		c0-1.6,0.3-3,0.9-4.3c0.6-1.3,1.5-2.4,2.7-3.3c1.1-0.9,2.6-1.6,4.3-2.1c1.7-0.5,3.7-0.7,5.9-0.7h6.3v-1.4c0-0.9-0.1-1.6-0.3-2.2
		c-0.2-0.6-0.6-1.1-1.1-1.4s-1.2-0.6-2-0.8c-0.8-0.1-1.8-0.2-2.9-0.2c-1.6,0-3.3,0.2-4.9,0.6c-1.6,0.4-3.1,0.9-4.5,1.6
		c-0.7,0.3-1.1,0.1-1.3-0.8l-0.4-3.6c0-0.5,0.1-0.8,0.6-1.1c0.6-0.3,1.4-0.7,2.2-0.9c0.9-0.3,1.8-0.5,2.7-0.7
		c0.9-0.2,1.9-0.3,2.8-0.4c1-0.1,1.9-0.1,2.9-0.1c2.2,0,4.2,0.2,5.8,0.6c1.6,0.4,3,1,4,1.9s1.8,2.1,2.4,3.6c0.5,1.5,0.8,3.3,0.8,5.5
		v18.8c0,0.3-0.1,0.6-0.3,0.8c-0.2,0.2-0.5,0.3-0.8,0.3h-4.5c-0.3,0-0.6-0.1-0.8-0.3c-0.2-0.2-0.3-0.5-0.3-0.8v-0.7
		c-0.6,0.5-1.2,0.9-1.9,1.2c-0.7,0.3-1.4,0.6-2.1,0.8c-0.7,0.1-1.4,0.3-2.2,0.4C56.2,419.1,55.5,419.1,54.7,419.1 M55.7,413.5
		c1.5,0,3-0.2,4.3-0.6c1.3-0.4,2.3-1.1,3.2-2.1v-6.6h-6.1c-1.3,0-2.4,0.1-3.3,0.3c-0.9,0.2-1.7,0.5-2.2,0.9c-0.5,0.4-1,0.9-1.2,1.5
		c-0.3,0.6-0.4,1.3-0.4,2c0,1.6,0.5,2.7,1.6,3.4C52.5,413.1,53.9,413.5,55.7,413.5"/>
</g>
</svg>
