<?xml version="1.0" encoding="utf-8"?>
<!-- Generator: Adobe Illustrator 19.0.0, SVG Export Plug-In . SVG Version: 6.00 Build 0)  -->
<svg version="1.1" id="Layer_1" xmlns="http://www.w3.org/2000/svg" xmlns:xlink="http://www.w3.org/1999/xlink" x="0px" y="0px"
	 viewBox="-362 322 150 150" style="enable-background:new -362 322 150 150;" xml:space="preserve">
<style type="text/css">
	.st0{fill:#818282;}
</style>
<path class="st0" d="M-259.5,322c-26.2,0-47.5,21.3-47.5,47.4c0,6.2,1.2,12,3.3,17.4l-52.9,52.9c-7.4,7.4-7.4,19.3,0,26.7
	c7.4,7.4,19.3,7.4,26.7,0l15.4-15.4c-1.4-1.7-2.4-3.8-2.4-6.2c0-5.5,4.4-9.9,9.9-9.9c2.4,0,4.5,1,6.2,2.4l23.8-23.8
	c5.4,2.1,11.3,3.4,17.4,3.4c26.2,0,47.4-21.3,47.4-47.5C-212,343.2-233.2,322-259.5,322z M-240.6,360.1c-5.5,0-9.9-4.4-9.9-9.9
	c0-5.5,4.4-9.9,9.9-9.9c5.5,0,9.9,4.4,9.9,9.9C-230.7,355.7-235.2,360.1-240.6,360.1z"/>
</svg>
