<?xml version="1.0" encoding="utf-8"?>
<!-- Generator: Adobe Illustrator 19.0.0, SVG Export Plug-In . SVG Version: 6.00 Build 0)  -->
<svg version="1.1" id="Layer_1" xmlns="http://www.w3.org/2000/svg" xmlns:xlink="http://www.w3.org/1999/xlink" x="0px" y="0px"
	 viewBox="-366.1 322.1 150 150" style="enable-background:new -366.1 322.1 150 150;" xml:space="preserve">
<style type="text/css">
	.st0{fill:#676767;}
</style>
<path class="st0" d="M-234.9,322.2h-75c-10.4,0-18.8,8.4-18.8,18.8s8.4,18.7,18.8,18.7h75c10.4,0,18.8-8.4,18.8-18.7
	S-224.6,322.2-234.9,322.2 M-253.7,378.4h-75c-10.4,0-18.8,8.4-18.8,18.7c0,10.4,8.4,18.8,18.8,18.8h75c10.3,0,18.7-8.4,18.7-18.8
	C-234.9,386.8-243.3,378.4-253.7,378.4 M-272.4,434.6h-75c-10.4,0-18.7,8.4-18.7,18.8c0,10.3,8.4,18.7,18.7,18.7h75
	c10.4,0,18.8-8.4,18.8-18.7C-253.7,443-262.1,434.6-272.4,434.6"/>
</svg>
