<?xml version="1.0" encoding="utf-8"?>
<!-- Generator: Adobe Illustrator 16.0.0, SVG Export Plug-In . SVG Version: 6.00 Build 0)  -->
<!DOCTYPE svg PUBLIC "-//W3C//DTD SVG 1.1//EN" "http://www.w3.org/Graphics/SVG/1.1/DTD/svg11.dtd">
<svg version="1.1" id="Layer_1" xmlns="http://www.w3.org/2000/svg" xmlns:xlink="http://www.w3.org/1999/xlink" x="0px" y="0px"
	 width="13.708px" height="13.707px" viewBox="0 0 13.708 13.707" enable-background="new 0 0 13.708 13.707" xml:space="preserve">
<path fill="#676767" d="M11.994,0H5.14C4.193,0,3.426,0.768,3.426,1.714S4.193,3.426,5.14,3.426h6.854
	c0.946,0,1.715-0.766,1.715-1.712S12.94,0,11.994,0 M10.281,5.141H3.426c-0.946,0-1.714,0.768-1.714,1.713
	c0,0.946,0.768,1.715,1.714,1.715h6.854c0.945,0,1.713-0.769,1.713-1.715C11.994,5.908,11.227,5.141,10.281,5.141 M8.566,10.279
	H1.712C0.766,10.279,0,11.048,0,11.994c0,0.945,0.767,1.713,1.713,1.713h6.854c0.946,0,1.715-0.768,1.715-1.713
	C10.281,11.048,9.513,10.279,8.566,10.279"/>
</svg>
