<?xml version="1.0" encoding="utf-8"?>
<!-- Generator: Adobe Illustrator 19.0.0, SVG Export Plug-In . SVG Version: 6.00 Build 0)  -->
<svg version="1.1" id="Layer_1" xmlns="http://www.w3.org/2000/svg" xmlns:xlink="http://www.w3.org/1999/xlink" x="0px" y="0px"
	 viewBox="230.5 322.2 150 150" style="enable-background:new 230.5 322.2 150 150;" xml:space="preserve">
<style type="text/css">
	.st0{fill:#00A1C1;}
	.st1{fill:#00A2C2;}
</style>
<g>
	<path class="st0" d="M252,357.6c0,1.1-0.9,2-2,2h-17.6c-1.1,0-2-0.9-2-2V340c0-1.1,0.9-2,2-2h17.6c1.1,0,2,0.9,2,2V357.6z"/>
	<path class="st0" d="M252,389.5c0,1.1-0.9,2-2,2h-17.6c-1.1,0-2-0.9-2-2v-17.6c0-1.1,0.9-2,2-2h17.6c1.1,0,2,0.9,2,2V389.5z"/>
	<path class="st1" d="M252,422.4c0,1.1-0.9,2-2,2h-17.6c-1.1,0-2-0.9-2-2v-17.6c0-1.1,0.9-2,2-2h17.6c1.1,0,2,0.9,2,2V422.4z"/>
	<path class="st0" d="M252,454.3c0,1.1-0.9,2-2,2h-17.6c-1.1,0-2-0.9-2-2v-17.6c0-1.1,0.9-2,2-2h17.6c1.1,0,2,0.9,2,2V454.3z"/>
	<path class="st0" d="M380.5,357.6c0,1.1-0.9,2-2,2H265.3c-1.1,0-2-0.9-2-2V340c0-1.1,0.9-2,2-2h113.2c1.1,0,2,0.9,2,2V357.6z"/>
	<path class="st0" d="M380.5,389.5c0,1.1-0.9,2-2,2H265.3c-1.1,0-2-0.9-2-2v-17.6c0-1.1,0.9-2,2-2h113.2c1.1,0,2,0.9,2,2V389.5z"/>
	<path class="st0" d="M380.5,422.4c0,1.1-0.9,2-2,2H265.3c-1.1,0-2-0.9-2-2v-17.6c0-1.1,0.9-2,2-2h113.2c1.1,0,2,0.9,2,2V422.4z"/>
	<path class="st0" d="M380.5,454.3c0,1.1-0.9,2-2,2H265.3c-1.1,0-2-0.9-2-2v-17.6c0-1.1,0.9-2,2-2h113.2c1.1,0,2,0.9,2,2V454.3z"/>
</g>
</svg>
