<?xml version="1.0" encoding="utf-8"?>
<!-- Generator: Adobe Illustrator 16.0.0, SVG Export Plug-In . SVG Version: 6.00 Build 0)  -->
<!DOCTYPE svg PUBLIC "-//W3C//DTD SVG 1.1//EN" "http://www.w3.org/Graphics/SVG/1.1/DTD/svg11.dtd">
<svg version="1.1" id="Layer_1" xmlns="http://www.w3.org/2000/svg" xmlns:xlink="http://www.w3.org/1999/xlink" x="0px" y="0px"
	 width="611px" height="481.665px" viewBox="0 147.127 611 481.665" enable-background="new 0 147.127 611 481.665"
	 xml:space="preserve">
<g>
	<path fill="#00A1C1" d="M87.75,226.75c0,4.418-3.582,8-8,8H8c-4.418,0-8-3.582-8-8v-71.623c0-4.418,3.582-8,8-8h71.75
		c4.418,0,8,3.582,8,8V226.75z"/>
	<path fill="#00A1C1" d="M87.75,356.75c0,4.418-3.582,8-8,8H8c-4.418,0-8-3.582-8-8v-71.623c0-4.418,3.582-8,8-8h71.75
		c4.418,0,8,3.582,8,8V356.75z"/>
	<path fill="#00A2C2" d="M87.75,490.75c0,4.418-3.582,8-8,8H8c-4.418,0-8-3.582-8-8v-71.623c0-4.418,3.582-8,8-8h71.75
		c4.418,0,8,3.582,8,8V490.75z"/>
	<path fill="#00A1C1" d="M87.75,620.75c0,4.418-3.582,8-8,8H8c-4.418,0-8-3.582-8-8v-71.623c0-4.418,3.582-8,8-8h71.75
		c4.418,0,8,3.582,8,8V620.75z"/>
	<path fill="#00A1C1" d="M611,226.792c0,4.418-3.581,8-8,8H141.792c-4.418,0-8-3.582-8-8v-71.623c0-4.418,3.582-8,8-8H603
		c4.419,0,8,3.582,8,8V226.792z"/>
	<path fill="#00A1C1" d="M611,356.792c0,4.418-3.581,8-8,8H141.792c-4.418,0-8-3.582-8-8v-71.623c0-4.418,3.582-8,8-8H603
		c4.419,0,8,3.582,8,8V356.792z"/>
	<path fill="#00A1C1" d="M611,490.792c0,4.419-3.581,8-8,8H141.792c-4.418,0-8-3.581-8-8v-71.623c0-4.419,3.582-8,8-8H603
		c4.419,0,8,3.581,8,8V490.792z"/>
	<path fill="#00A1C1" d="M611,620.792c0,4.419-3.581,8-8,8H141.792c-4.418,0-8-3.581-8-8v-71.623c0-4.419,3.582-8,8-8H603
		c4.419,0,8,3.581,8,8V620.792z"/>
</g>
</svg>
