<?xml version="1.0" encoding="utf-8"?>
<!-- Generator: Adobe Illustrator 19.0.0, SVG Export Plug-In . SVG Version: 6.00 Build 0)  -->
<svg version="1.1" id="Layer_1" xmlns="http://www.w3.org/2000/svg" xmlns:xlink="http://www.w3.org/1999/xlink" x="0px" y="0px"
	 viewBox="-361.9 322.1 150 150" style="enable-background:new -361.9 322.1 150 150;" xml:space="preserve">
<style type="text/css">
	.st0{fill:#818282;}
</style>
<path class="st0" d="M-230.4,350.5h-56.5c0-10.3-8.4-18.7-18.7-18.7h-37.1c-10.3,0-18.7,8.4-18.7,18.7h-0.7V444
	c0,10.2,8.2,18.4,18.4,18.4h113.2c10.2,0,18.4-8.2,18.4-18.4v-75.2C-211.9,358.7-220.2,350.5-230.4,350.5z M-333.6,444.4
	c-5.3,0-9.6-4.3-9.6-9.6c0-5.3,4.3-9.6,9.6-9.6s9.6,4.3,9.6,9.6C-324,440.1-328.3,444.4-333.6,444.4z M-333.6,416.2
	c-5.3,0-9.6-4.3-9.6-9.6c0-5.3,4.3-9.6,9.6-9.6s9.6,4.3,9.6,9.6C-324,411.9-328.3,416.2-333.6,416.2z M-333.6,388.1
	c-5.3,0-9.6-4.3-9.6-9.6c0-5.3,4.3-9.6,9.6-9.6s9.6,4.3,9.6,9.6C-324,383.8-328.3,388.1-333.6,388.1z M-307.1,369.1h65.9
	c5.2,0,9.4,4.2,9.4,9.4c0,5.2-4.2,9.4-9.4,9.4h-65.9c-5.2,0-9.4-4.2-9.4-9.4C-316.4,373.3-312.2,369.1-307.1,369.1z M-240.1,444
	H-306c-5.2,0-9.4-4.2-9.4-9.4c0-5.2,4.2-9.4,9.4-9.4h65.9c5.2,0,9.4,4.2,9.4,9.4C-230.7,439.7-234.9,444-240.1,444z M-240.1,415.8
	H-306c-5.2,0-9.4-4.2-9.4-9.4c0-5.2,4.2-9.4,9.4-9.4h65.9c5.2,0,9.4,4.2,9.4,9.4C-230.7,411.6-234.9,415.8-240.1,415.8z"/>
</svg>
