<?xml version="1.0" encoding="utf-8"?>
<!-- Generator: Adobe Illustrator 19.0.0, SVG Export Plug-In . SVG Version: 6.00 Build 0)  -->
<svg version="1.1" id="Layer_1" xmlns="http://www.w3.org/2000/svg" xmlns:xlink="http://www.w3.org/1999/xlink" x="0px" y="0px"
	 viewBox="236.5 321.5 150 150" style="enable-background:new 236.5 321.5 150 150;" xml:space="preserve">
<style type="text/css">
	.st0{fill:#00A1C1;}
</style>
<g>
	<g>
		<path id="XMLID_2970_" class="st0" d="M254.7,331.5c-10.5,0-18.2,8.6-18.2,18.2c0,10.5,8.6,18.2,18.2,18.2
			c10.5,0,18.2-8.6,18.2-18.2C272.8,339,265.2,331.5,254.7,331.5z M260.4,349.7c0,3.2-2.6,5.7-5.7,5.7s-5.7-2.6-5.7-5.7
			c0-3.2,2.6-5.7,5.7-5.7S260.4,346.5,260.4,349.7z"/>
		<path id="XMLID_2969_" class="st0" d="M386.5,349.7c0,2.9-1.9,4.8-4.8,4.8H291c-2.9,0-4.8-1.9-4.8-4.8l0,0c0-2.9,1.9-4.8,4.8-4.8
			h90.8C384.6,344.9,386.5,346.8,386.5,349.7L386.5,349.7z"/>
	</g>
	<g>
		<path id="XMLID_2974_" class="st0" d="M386.5,396.5c0,2.9-1.9,4.8-4.8,4.8H291c-2.9,0-4.8-1.9-4.8-4.8l0,0c0-2.9,1.9-4.8,4.8-4.8
			h90.8C384.6,391.7,386.5,394.6,386.5,396.5L386.5,396.5z"/>
		<path id="XMLID_1_" class="st0" d="M254.7,378.3c-10.5,0-18.2,8.6-18.2,18.2c0,10.5,8.6,18.2,18.2,18.2c10.5,0,18.2-8.6,18.2-18.2
			C272.8,385.8,265.2,378.3,254.7,378.3z M260.4,396.5c0,3.2-2.6,5.7-5.7,5.7s-5.7-2.6-5.7-5.7c0-3.2,2.6-5.7,5.7-5.7
			S260.4,393.3,260.4,396.5z"/>
	</g>
	<g>
		<path id="XMLID_2979_" class="st0" d="M386.5,443.3c0,2.9-1.9,4.8-4.8,4.8H291c-2.9,0-4.8-1.9-4.8-4.8l0,0c0-2.9,1.9-4.8,4.8-4.8
			h90.8C384.6,438.5,386.5,440.5,386.5,443.3L386.5,443.3z"/>
		<path id="XMLID_2_" class="st0" d="M254.7,425.2c-10.5,0-18.2,8.6-18.2,18.2c0,10.5,8.6,18.2,18.2,18.2c10.5,0,18.2-8.6,18.2-18.2
			C272.8,432.6,265.2,425.2,254.7,425.2z M260.4,443.3c0,3.2-2.6,5.7-5.7,5.7s-5.7-2.6-5.7-5.7s2.6-5.7,5.7-5.7
			S260.4,440.2,260.4,443.3z"/>
	</g>
</g>
</svg>
