<?xml version="1.0" encoding="utf-8"?>
<!-- Generator: Adobe Illustrator 19.0.0, SVG Export Plug-In . SVG Version: 6.00 Build 0)  -->
<svg version="1.1" id="Layer_1" xmlns="http://www.w3.org/2000/svg" xmlns:xlink="http://www.w3.org/1999/xlink" x="0px" y="0px"
	 viewBox="-230 322 150 150" style="enable-background:new -230 322 150 150;" xml:space="preserve">
<style type="text/css">
	.st0{fill:#00A1C1;}
</style>
<g>
	<g>
		<path id="XMLID_2970_" class="st0" d="M-211.8,331.9c-10.5,0-18.2,8.6-18.2,18.2c0,10.5,8.6,18.2,18.2,18.2
			c10.5,0,18.2-8.6,18.2-18.2C-193.7,339.4-201.3,331.9-211.8,331.9z M-206.1,350.1c0,3.2-2.6,5.7-5.7,5.7s-5.7-2.6-5.7-5.7
			c0-3.2,2.6-5.7,5.7-5.7S-206.1,346.9-206.1,350.1z"/>
		<path id="XMLID_2969_" class="st0" d="M-80,350.1c0,2.9-1.9,4.8-4.8,4.8h-90.7c-2.9,0-4.8-1.9-4.8-4.8l0,0c0-2.9,1.9-4.8,4.8-4.8
			h90.8C-81.9,345.3-80,347.2-80,350.1L-80,350.1z"/>
	</g>
	<g>
		<path id="XMLID_2974_" class="st0" d="M-80,396.9c0,2.9-1.9,4.8-4.8,4.8h-90.7c-2.9,0-4.8-1.9-4.8-4.8l0,0c0-2.9,1.9-4.8,4.8-4.8
			h90.8C-81.9,392.1-80,395-80,396.9L-80,396.9z"/>
		<path id="XMLID_1_" class="st0" d="M-211.8,378.7c-10.5,0-18.2,8.6-18.2,18.2c0,10.5,8.6,18.2,18.2,18.2
			c10.5,0,18.2-8.6,18.2-18.2C-193.7,386.2-201.3,378.7-211.8,378.7z M-206.1,396.9c0,3.2-2.6,5.7-5.7,5.7s-5.7-2.6-5.7-5.7
			c0-3.2,2.6-5.7,5.7-5.7S-206.1,393.7-206.1,396.9z"/>
	</g>
	<g>
		<path id="XMLID_2979_" class="st0" d="M-80,443.7c0,2.9-1.9,4.8-4.8,4.8h-90.7c-2.9,0-4.8-1.9-4.8-4.8l0,0c0-2.9,1.9-4.8,4.8-4.8
			h90.8C-81.9,438.9-80,440.9-80,443.7L-80,443.7z"/>
		<path id="XMLID_2_" class="st0" d="M-211.8,425.6c-10.5,0-18.2,8.6-18.2,18.2c0,10.5,8.6,18.2,18.2,18.2
			c10.5,0,18.2-8.6,18.2-18.2C-193.7,433-201.3,425.6-211.8,425.6z M-206.1,443.7c0,3.2-2.6,5.7-5.7,5.7s-5.7-2.6-5.7-5.7
			s2.6-5.7,5.7-5.7S-206.1,440.6-206.1,443.7z"/>
	</g>
</g>
</svg>
