<?xml version="1.0" encoding="utf-8"?>
<!-- Generator: Adobe Illustrator 16.0.0, SVG Export Plug-In . SVG Version: 6.00 Build 0)  -->
<!DOCTYPE svg PUBLIC "-//W3C//DTD SVG 1.1//EN" "http://www.w3.org/Graphics/SVG/1.1/DTD/svg11.dtd">
<svg version="1.1" id="Layer_1" xmlns="http://www.w3.org/2000/svg" xmlns:xlink="http://www.w3.org/1999/xlink" x="0px" y="0px"
	 width="617px" height="535px" viewBox="-4 122.5 617 535" enable-background="new -4 122.5 617 535" xml:space="preserve">
<g>
	<g>
		<path id="XMLID_2970_" fill="#00A1C1" d="M72.065,125.28c-42.88,0-74.063,35.082-74.063,74.063
			c0,42.879,35.082,74.063,74.063,74.063c42.879,0,74.063-34.907,74.063-74.063C146.128,155.833,114.944,125.28,72.065,125.28z
			 M95.495,199.43c0,12.94-10.49,23.43-23.43,23.43s-23.43-10.49-23.43-23.43S59.125,176,72.065,176S95.495,186.49,95.495,199.43z"
			/>
		<path id="XMLID_2969_" fill="#00A1C1" d="M610,199.345c0,11.693-7.797,19.49-19.49,19.49H220.192
			c-11.694,0-19.491-7.797-19.491-19.49l0,0c0-11.694,7.797-19.49,19.491-19.49H590.51C602.205,179.854,610,187.649,610,199.345
			L610,199.345z"/>
	</g>
	<g>
		<path id="XMLID_2974_" fill="#00A1C1" d="M610,390.351c0,11.693-7.797,19.49-19.49,19.49H220.192
			c-11.694,0-19.491-7.797-19.491-19.49l0,0c0-11.693,7.797-19.49,19.491-19.49H590.51C602.205,370.86,610,382.554,610,390.351
			L610,390.351z"/>
		<path id="XMLID_1_" fill="#00A1C1" d="M72.065,316.28c-42.88,0-74.063,35.082-74.063,74.063c0,42.879,35.082,74.063,74.063,74.063
			c42.879,0,74.063-34.907,74.063-74.063C146.128,346.833,114.944,316.28,72.065,316.28z M95.495,390.43
			c0,12.939-10.49,23.43-23.43,23.43s-23.43-10.49-23.43-23.43c0-12.94,10.49-23.43,23.43-23.43S95.495,377.49,95.495,390.43z"/>
	</g>
	<g>
		<path id="XMLID_2979_" fill="#00A1C1" d="M610,581.356c0,11.694-7.797,19.491-19.49,19.491H220.192
			c-11.694,0-19.491-7.797-19.491-19.491l0,0c0-11.693,7.797-19.49,19.491-19.49H590.51C602.205,561.866,610,569.663,610,581.356
			L610,581.356z"/>
		<path id="XMLID_2_" fill="#00A1C1" d="M72.065,507.28c-42.88,0-74.063,35.082-74.063,74.063c0,42.879,35.082,74.063,74.063,74.063
			c42.879,0,74.063-34.907,74.063-74.063C146.128,537.834,114.944,507.28,72.065,507.28z M95.495,581.43
			c0,12.939-10.49,23.43-23.43,23.43s-23.43-10.49-23.43-23.43S59.125,558,72.065,558S95.495,568.49,95.495,581.43z"/>
	</g>
</g>
</svg>
