<?xml version="1.0" encoding="utf-8"?>
<!-- Generator: Adobe Illustrator 19.0.0, SVG Export Plug-In . SVG Version: 6.00 Build 0)  -->
<svg version="1.1" id="Layer_1" xmlns="http://www.w3.org/2000/svg" xmlns:xlink="http://www.w3.org/1999/xlink" x="0px" y="0px"
	 viewBox="-361.9 322.1 150 150" style="enable-background:new -361.9 322.1 150 150;" xml:space="preserve">
<style type="text/css">
	.st0{fill:#676767;}
</style>
<path class="st0" d="M-240.3,378.4v-36.6c0-10.9-8.9-19.8-19.7-19.8h-54.1c-10.9,0-19.8,8.9-19.8,19.8v36.6
	c-10.4,1.3-18.6,10.2-18.6,21v51.3c0,11.7,9.6,21.3,21.3,21.3h88.4c11.7,0,21.3-9.6,21.3-21.3v-51.3
	C-221.5,388.6-229.7,379.7-240.3,378.4 M-305.4,340.8h36.6c5.5,0,10,4.5,10,10v27.5h-56.6v-27.5
	C-315.3,345.2-310.8,340.8-305.4,340.8 M-277.7,434.5c0,5.1-4.2,9.3-9.3,9.3c-5.1,0-9.4-4.2-9.4-9.3v-18.7c0-5.1,4.2-9.4,9.4-9.4
	c5.1,0,9.3,4.2,9.3,9.4V434.5z"/>
</svg>
