<?xml version="1.0" encoding="utf-8"?>
<!-- Generator: Adobe Illustrator 19.0.0, SVG Export Plug-In . SVG Version: 6.00 Build 0)  -->
<svg version="1.1" id="Camada_1" xmlns="http://www.w3.org/2000/svg" xmlns:xlink="http://www.w3.org/1999/xlink" x="0px" y="0px"
	 viewBox="-361.9 321.9 150 150" style="enable-background:new -361.9 321.9 150 150;" xml:space="preserve">
<g>
	<g>
		<path d="M-271.7,471.9h-74.9c-8.4,0-15.3-6.8-15.3-15.3V337.2c0-8.4,6.9-15.3,15.3-15.3h74.9c8.4,0,15.3,6.9,15.3,15.3v21.4
			c0,3.8-3.1,7-7,7c-3.9,0-7-3.1-7-7v-21.4c0-0.7-0.6-1.3-1.3-1.3h-74.9c-0.7,0-1.3,0.6-1.3,1.3v119.4c0,0.7,0.6,1.3,1.3,1.3h74.9
			c0.7,0,1.3-0.6,1.3-1.3v-23.2c0-3.9,3.1-7,7-7c3.8,0,7,3.1,7,7v23.2C-256.4,465.1-263.3,471.9-271.7,471.9z"/>
	</g>
	<g>
		<path d="M-242.7,427.9c-1.8,0-3.6-0.7-4.9-2c-2.8-2.8-2.8-7.2,0-9.9l12.1-12.1H-315c-3.9,0-7-3.1-7-7c0-3.9,3.1-7,7-7h79.4
			l-12.1-12.1c-2.7-2.7-2.7-7.1,0-9.8c2.7-2.7,7.3-2.6,9.9,0l23.8,23.8c1.4,1.4,2.1,3.2,2,5.2c0.1,1.7-0.6,3.5-2,4.9l-23.9,23.8
			C-239.1,427.1-240.9,427.9-242.7,427.9z"/>
	</g>
</g>
</svg>
