<?xml version="1.0" encoding="utf-8"?>
<!-- Generator: Adobe Illustrator 16.0.0, SVG Export Plug-In . SVG Version: 6.00 Build 0)  -->
<!DOCTYPE svg PUBLIC "-//W3C//DTD SVG 1.1//EN" "http://www.w3.org/Graphics/SVG/1.1/DTD/svg11.dtd">
<svg version="1.1" id="Camada_1" xmlns="http://www.w3.org/2000/svg" xmlns:xlink="http://www.w3.org/1999/xlink" x="0px" y="0px"
	 width="18.115px" height="18.115px" viewBox="0 0 18.115 18.115" enable-background="new 0 0 18.115 18.115" xml:space="preserve">
<g>
	<g>
		<path d="M10.896,18.115H1.846C0.828,18.115,0,17.288,0,16.271V1.846C0,0.828,0.828,0,1.846,0h9.049
			c1.018,0,1.846,0.828,1.846,1.846v2.59c0,0.464-0.378,0.842-0.842,0.842c-0.465,0-0.844-0.377-0.844-0.842v-2.59
			c0-0.09-0.07-0.161-0.16-0.161H1.846c-0.089,0-0.161,0.072-0.161,0.161v14.424c0,0.087,0.074,0.16,0.161,0.16h9.049
			c0.088,0,0.16-0.072,0.16-0.16v-2.797c0-0.465,0.379-0.843,0.844-0.843c0.464,0,0.842,0.378,0.842,0.843v2.797
			C12.741,17.288,11.913,18.115,10.896,18.115z"/>
	</g>
	<g>
		<path d="M14.394,12.795c-0.222,0-0.432-0.086-0.593-0.242c-0.333-0.333-0.333-0.867-0.005-1.195L15.253,9.9H5.669
			c-0.465,0-0.843-0.378-0.843-0.842c0-0.465,0.378-0.843,0.843-0.843h9.585l-1.458-1.458c-0.325-0.325-0.327-0.858-0.003-1.188
			c0.332-0.329,0.88-0.32,1.195-0.002l2.88,2.879c0.166,0.168,0.25,0.392,0.24,0.632c0.01,0.2-0.075,0.424-0.24,0.589l-2.881,2.88
			C14.83,12.705,14.614,12.795,14.394,12.795z"/>
	</g>
</g>
</svg>
