<?xml version="1.0" encoding="utf-8"?>
<!-- Generator: Adobe Illustrator 19.0.0, SVG Export Plug-In . SVG Version: 6.00 Build 0)  -->
<svg version="1.1" id="Layer_1" xmlns="http://www.w3.org/2000/svg" xmlns:xlink="http://www.w3.org/1999/xlink" x="0px" y="0px"
	 viewBox="-230 322 150 150" style="enable-background:new -230 322 150 150;" xml:space="preserve">
<g>
	<path d="M-104.7,372c0,6.9-0.9,12.9-3.4,17.2l-35.3,75.9c-0.9,1.7-2.6,3.4-4.3,5.2c-1.7,0.9-4.3,1.7-6.9,1.7s-4.3-0.9-6.9-1.7
		c-1.7-0.9-3.4-2.6-4.3-5.2l-36.2-75.9c-2.6-4.3-3.4-10.3-3.4-17.2c0-13.8,5.2-25.9,14.7-35.3c9.5-9.5,21.6-14.7,35.3-14.7
		c13.8,0,25.9,5.2,35.3,14.7C-109.8,346.1-104.7,358.2-104.7,372z M-136.6,390.1c5.2-5.2,7.8-11.2,7.8-18.1s-2.6-12.9-7.8-18.1
		c-5.2-5.2-11.2-7.8-18.1-7.8s-12.9,2.6-18.1,7.8s-7.8,11.2-7.8,18.1s2.6,12.9,7.8,18.1c5.2,5.2,11.2,7.8,18.1,7.8
		C-147.8,397-141.7,394.4-136.6,390.1z"/>
</g>
</svg>
