<?xml version="1.0" encoding="utf-8"?>
<!-- Generator: Adobe Illustrator 19.0.0, SVG Export Plug-In . SVG Version: 6.00 Build 0)  -->
<svg version="1.1" id="Layer_1" xmlns="http://www.w3.org/2000/svg" xmlns:xlink="http://www.w3.org/1999/xlink" x="0px" y="0px"
	 viewBox="-295.9 387.8 18 18.2" style="enable-background:new -295.9 387.8 18 18.2;" xml:space="preserve">
<g>
	<path d="M-281.1,394c0,0.8-0.1,1.5-0.4,2l-4.1,8.8c-0.1,0.2-0.3,0.4-0.5,0.6c-0.2,0.1-0.5,0.2-0.8,0.2c-0.3,0-0.5-0.1-0.8-0.2
		c-0.2-0.1-0.4-0.3-0.5-0.6l-4.2-8.8c-0.3-0.5-0.4-1.2-0.4-2c0-1.6,0.6-3,1.7-4.1c1.1-1.1,2.5-1.7,4.1-1.7c1.6,0,3,0.6,4.1,1.7
		C-281.7,391-281.1,392.4-281.1,394z M-284.8,396.1c0.6-0.6,0.9-1.3,0.9-2.1c0-0.8-0.3-1.5-0.9-2.1c-0.6-0.6-1.3-0.9-2.1-0.9
		c-0.8,0-1.5,0.3-2.1,0.9c-0.6,0.6-0.9,1.3-0.9,2.1c0,0.8,0.3,1.5,0.9,2.1c0.6,0.6,1.3,0.9,2.1,0.9
		C-286.1,396.9-285.4,396.6-284.8,396.1z"/>
</g>
</svg>
