<?xml version="1.0" encoding="utf-8"?>
<!-- Generator: Adobe Illustrator 19.0.0, SVG Export Plug-In . SVG Version: 6.00 Build 0)  -->
<svg version="1.1" id="Camada_1" xmlns="http://www.w3.org/2000/svg" xmlns:xlink="http://www.w3.org/1999/xlink" x="0px" y="0px"
	 viewBox="-362.4 321.9 150 150" style="enable-background:new -362.4 321.9 150 150;" xml:space="preserve">
<g id="XMLID_3513_">
	<path id="XMLID_3460_" d="M-252.7,332.4l-5.9,18.8l-1.8,5.8l-2.8,9h-48.5l-2.8-9l-1.8-5.8l-5.8-18.5c-1.7-5.5,2.6-10.4,9.8-10.4
		c5.4,0,10.4,2.8,12.7,6.6c0.1,0,0.3-0.1,0.4-0.1c1.5-3.9,6-6.8,11.5-6.8c2.7,0,5.2,0.7,7.2,1.9c2,1.2,3.5,2.9,4.3,4.8
		c0.2,0.1,0.4,0.1,0.6,0.2c2.3-3.9,7.4-6.9,13-6.9C-255.4,321.9-251,326.9-252.7,332.4z"/>
	<path id="XMLID_3514_" d="M-264,371.7l-44.3-0.1c-13.7,0-26.2,5.6-35.3,14.7c-9.1,9.1-14.7,21.6-14.7,35.4
		c0,27.6,22.6,50.1,50.1,50.1h41.7c13.8,0,26.3-5.6,35.4-14.7c9.1-9.1,14.7-21.6,14.7-35.4C-216.4,395.1-237.6,373.1-264,371.7z
		 M-280.3,447.9l-1.4,0.3v6.3c0,1.5-1.2,2.7-2.7,2.7h-6.6c-1.5,0-2.7-1.2-2.7-2.7v-5.8l-1.6-0.2c-5-0.6-9.7-1.9-12.9-3.8
		c-1.2-0.7-1.7-2.2-1.1-3.5l2.5-5.6c0.3-0.7,0.9-1.2,1.6-1.5c0.3-0.1,0.6-0.1,0.9-0.1c0.4,0,0.9,0.1,1.3,0.3c3.8,2,8.9,3.3,13.7,3.3
		c5.7,0,9.7-2.2,9.7-5.4c0-2-1.2-4.5-9.9-7.3c-6.2-1.9-19-6-19-17c0-7.4,5.4-13.1,14.3-15.4l1.4-0.3v-6.1c0-1.5,1.2-2.7,2.7-2.7h6.5
		c1.5,0,2.7,1.2,2.7,2.7v5.5l1.6,0.2c3.8,0.5,7.2,1.4,10.4,2.9c0.7,0.3,1.1,0.9,1.4,1.5c0.2,0.7,0.2,1.4-0.1,2.1l-2.6,5.5
		c-0.4,0.9-1.4,1.6-2.5,1.6c-0.4,0-0.8-0.1-1.1-0.3c-1.9-0.8-5.7-2.6-12-2.6c-5.7,0-8.3,2.2-8.3,4.4c0,2.5,2.7,4.1,11,6.9
		c8.9,2.9,18,7.3,18,17.8C-265.2,437.5-269.2,445.1-280.3,447.9z"/>
</g>
</svg>
