<?xml version="1.0" encoding="utf-8"?>
<!-- Generator: Adobe Illustrator 19.0.0, SVG Export Plug-In . SVG Version: 6.00 Build 0)  -->
<svg version="1.1" id="Layer_1" xmlns="http://www.w3.org/2000/svg" xmlns:xlink="http://www.w3.org/1999/xlink" x="0px" y="0px"
	 viewBox="-370 321.7 150 150" style="enable-background:new -370 321.7 150 150;" xml:space="preserve">
<style type="text/css">
	.st0{fill:#00A2C2;}
</style>
<g>
	<path class="st0" d="M-338.4,471.4c-2-0.4-3.7-0.9-5.4-1.8c-5.6-2.3-9.8-5.8-10.4-12.3c-0.4-4.7,1.3-8.7,4.4-12.1
		c5.5-6.2,12.7-8.8,20.9-9c2.3,0,4.6,0.3,6.8,1c0.9,0.2,1.2,0,1.2-0.9c0-0.5,0-1.1,0-1.6c0-32.5,0-65,0-97.5c0-1.5,0.3-2.1,2-2.4
		c18.9-3,37.9-6.2,56.8-9.3c8.1-1.3,16.2-2.6,24.4-4c1.3-0.2,1.9-0.2,1.9,1.5c0,37.5,0,75,0,112.5c0,9.1-5.2,16.4-14.1,19.7
		c-5.1,1.9-10.3,2.8-15.7,1.7c-5.7-1.1-10.7-3.6-13.5-9c-2.7-5.1-1.8-10.1,1.2-14.6c4.9-7.4,12.3-10.6,20.9-11.3
		c2.9-0.2,5.7,0,8.4,0.9c1.5,0.5,1.7,0,1.7-1.3c0-13.4,0-26.9,0-40.3c0-8.6,0-17.1,0-25.6c0-1.4-0.2-1.8-1.8-1.6
		c-13.1,2.5-26.2,4.9-39.3,7.3c-6.5,1.2-13,2.4-19.5,3.5c-1.5,0.2-2,0.7-2,2.3c0,27.5-0.2,55-0.2,82.5c0,8.6-4.3,14.1-11.3,18.2
		c-3.3,1.9-6.8,2.7-10.4,3.5C-334,471.8-336.1,471.7-338.4,471.4z"/>
</g>
</svg>
