<?xml version="1.0" encoding="utf-8"?>
<!-- Generator: Adobe Illustrator 16.0.0, SVG Export Plug-In . SVG Version: 6.00 Build 0)  -->
<!DOCTYPE svg PUBLIC "-//W3C//DTD SVG 1.1//EN" "http://www.w3.org/Graphics/SVG/1.1/DTD/svg11.dtd">
<svg version="1.1" id="Layer_1" xmlns="http://www.w3.org/2000/svg" xmlns:xlink="http://www.w3.org/1999/xlink" x="0px" y="0px"
	 width="9.987px" height="12.667px" viewBox="2.041 0.689 9.987 12.667" enable-background="new 2.041 0.689 9.987 12.667"
	 xml:space="preserve">
<g>
	<path fill="#00A2C2" d="M3.373,13.335c-0.169-0.036-0.314-0.077-0.454-0.148c-0.476-0.194-0.829-0.488-0.874-1.039
		c-0.033-0.395,0.113-0.734,0.369-1.021c0.467-0.526,1.073-0.742,1.762-0.757c0.193-0.004,0.388,0.028,0.574,0.087
		c0.074,0.021,0.104,0.004,0.1-0.076c-0.003-0.045-0.001-0.092-0.001-0.137c0-2.743,0.001-5.485-0.003-8.229
		c0-0.13,0.028-0.177,0.168-0.2c1.6-0.255,3.197-0.521,4.796-0.782c0.688-0.112,1.372-0.223,2.06-0.335
		c0.109-0.02,0.159-0.014,0.158,0.127c-0.004,3.167-0.002,6.334-0.003,9.501c-0.001,0.772-0.441,1.386-1.193,1.662
		c-0.43,0.158-0.868,0.234-1.323,0.146c-0.485-0.094-0.901-0.306-1.142-0.764c-0.224-0.43-0.152-0.853,0.102-1.234
		c0.414-0.626,1.035-0.899,1.764-0.958c0.242-0.019,0.482-0.003,0.711,0.073c0.127,0.041,0.146,0.002,0.146-0.113
		c-0.004-1.135-0.003-2.271-0.003-3.407c0-0.722-0.002-1.442,0.003-2.164c0-0.117-0.019-0.156-0.15-0.131
		C9.834,3.646,8.729,3.85,7.624,4.053c-0.547,0.101-1.097,0.2-1.646,0.292C5.852,4.365,5.813,4.408,5.813,4.539
		c-0.004,2.321-0.02,4.645-0.02,6.969c0.001,0.723-0.363,1.192-0.957,1.535c-0.275,0.158-0.576,0.231-0.879,0.292
		C3.74,13.365,3.567,13.359,3.373,13.335z"/>
</g>
</svg>
