<?xml version="1.0" encoding="utf-8"?>
<!-- Generator: Adobe Illustrator 19.0.0, SVG Export Plug-In . SVG Version: 6.00 Build 0)  -->
<svg version="1.1" id="Layer_1" xmlns="http://www.w3.org/2000/svg" xmlns:xlink="http://www.w3.org/1999/xlink" x="0px" y="0px"
	 viewBox="-366 322 150 150" style="enable-background:new -366 322 150 150;" xml:space="preserve">
<style type="text/css">
	.st0{fill:#00A2C2;}
</style>
<path class="st0" d="M-294.6,322c0.7,2.5,2.7,4.2,4.4,5.9c8.3,8.3,17.8,14.9,27.2,21.7c9.8,7.1,15.7,16.6,17.7,28.5
	c0.1,0.7,0.2,1.5,0.2,2.3c-0.9-0.3-1.2-1-1.5-1.5c-5.4-8.2-11.8-15.5-19.6-21.5c-6.3-4.8-13.2-8.2-21.1-9.3
	c-2.2-0.3-2.2-0.4-2.2,1.8c-0.1,33.2-0.2,66.4-0.3,99.5c0,7.7-3.6,13.3-9.8,17.5c-5.5,3.7-11.5,5.4-18.1,5
	c-6.4-0.4-12.4-2.3-16.6-7.5c-3-3.8-3.6-8.3-2.1-13c2.3-7.3,7.6-11.7,14.5-14.4c6-2.4,12.1-3,18.4-1.3c1.6,0.5,1.8-0.2,1.8-1.6
	c0-34.3,0.1-68.7-0.1-103c0-4.7,1.5-7.7,6-9.1C-295.3,322-294.9,322-294.6,322z"/>
</svg>
