<?xml version="1.0" encoding="utf-8"?>
<!-- Generator: Adobe Illustrator 16.0.0, SVG Export Plug-In . SVG Version: 6.00 Build 0)  -->
<!DOCTYPE svg PUBLIC "-//W3C//DTD SVG 1.1//EN" "http://www.w3.org/Graphics/SVG/1.1/DTD/svg11.dtd">
<svg version="1.1" id="Layer_1" xmlns="http://www.w3.org/2000/svg" xmlns:xlink="http://www.w3.org/1999/xlink" x="0px" y="0px"
	 width="14.061px" height="14.059px" viewBox="0 0 14.061 14.059" enable-background="new 0 0 14.061 14.059" xml:space="preserve">
<path fill-rule="evenodd" clip-rule="evenodd" fill="#00A2C2" d="M6.754,1.195c0.055,0.198,0.208,0.327,0.344,0.462
	C7.74,2.298,8.48,2.815,9.212,3.343c0.76,0.55,1.221,1.289,1.377,2.215c0.008,0.057,0.012,0.115,0.018,0.18
	c-0.072-0.023-0.09-0.076-0.119-0.12c-0.422-0.635-0.914-1.208-1.525-1.67C8.474,3.578,7.941,3.31,7.326,3.225
	C7.158,3.201,7.158,3.197,7.158,3.363C7.15,5.942,7.141,8.519,7.136,11.096c0,0.601-0.277,1.037-0.76,1.363
	c-0.426,0.286-0.896,0.417-1.404,0.385c-0.499-0.03-0.961-0.176-1.286-0.584c-0.236-0.297-0.279-0.648-0.165-1.007
	c0.179-0.565,0.593-0.907,1.126-1.12c0.463-0.188,0.941-0.232,1.428-0.1c0.126,0.035,0.138-0.018,0.138-0.126
	C6.211,7.239,6.218,4.57,6.205,1.901c-0.002-0.369,0.115-0.6,0.467-0.706C6.699,1.195,6.726,1.195,6.754,1.195z"/>
</svg>
