<?xml version="1.0" encoding="utf-8"?>
<!-- Generator: Adobe Illustrator 19.0.0, SVG Export Plug-In . SVG Version: 6.00 Build 0)  -->
<svg version="1.1"
	 id="Layer_1" xmlns:rdf="http://www.w3.org/1999/02/22-rdf-syntax-ns#" xmlns:svg="http://www.w3.org/2000/svg" xmlns:dc="http://purl.org/dc/elements/1.1/" xmlns:cc="http://creativecommons.org/ns#"
	 xmlns="http://www.w3.org/2000/svg" xmlns:xlink="http://www.w3.org/1999/xlink" x="0px" y="0px" viewBox="-230 322 150 150"
	 style="enable-background:new -230 322 150 150;" xml:space="preserve">
<style type="text/css">
	.st0{fill:#818282;}
</style>
<g>
	<g id="g66" transform="translate(58.829335,-120.38301)">
		<path id="path68" class="st0" d="M-241.6,543.9l28,48.5l0.4-0.7l27.1-47c-8.1,4-17.3,6.3-27,6.3
			C-223.3,551.1-233,548.5-241.6,543.9"/>
	</g>
	<path id="path72" class="st0" d="M-126.7,382.2c0-3.9-0.7-7.7-2.2-11.2c-1.4-3.5-3.5-6.7-6.2-9.4c-2.6-2.7-5.7-4.8-9.1-6.3
		c-3.5-1.5-7.1-2.2-10.9-2.2c-3.8,0-7.5,0.7-10.9,2.2c-3.4,1.4-6.5,3.5-9.2,6.3c-2.7,2.7-4.8,5.9-6.2,9.4c-1.4,3.5-2.1,7.3-2.1,11.2
		s0.7,7.6,2.1,11.1s3.5,6.6,6.2,9.4c2.7,2.8,5.7,4.9,9.2,6.3c3.4,1.4,7.1,2.2,10.9,2.2c3.8,0,7.4-0.7,10.8-2.2
		c3.4-1.4,6.5-3.6,9.2-6.3c2.7-2.8,4.7-5.9,6.2-9.4C-127.4,389.8-126.7,386.1-126.7,382.2 M-113.5,382.2c0,5.5-1,10.7-3.1,15.7
		c-2.1,4.9-5.1,9.3-9.1,13.2c-4,3.9-8.5,6.8-13.5,8.9c-5,2-10.3,3.1-15.8,3.1c-5.6,0-10.9-1-16-3.1s-9.6-5-13.4-8.8
		c-4-3.9-7-8.2-9-13.1c-2.1-4.9-3.1-10.1-3.1-15.7c0-5.6,1-10.8,3.1-15.7c2-4.9,5-9.3,9-13.2c4-3.9,8.5-6.8,13.5-8.8
		c5-2,10.3-3,16-3c5.6,0,10.9,1,15.9,3c5,2,9.5,5,13.4,8.8c4,3.9,7,8.4,9.1,13.3C-114.5,371.5-113.5,376.7-113.5,382.2 M-155,330.5
		l19.2-8.5v11l-19.2,3V330.5L-155,330.5z"/>
</g>
</svg>
