<?xml version="1.0" encoding="utf-8"?>
<!-- Generator: Adobe Illustrator 16.0.0, SVG Export Plug-In . SVG Version: 6.00 Build 0)  -->
<!DOCTYPE svg PUBLIC "-//W3C//DTD SVG 1.1//EN" "http://www.w3.org/Graphics/SVG/1.1/DTD/svg11.dtd">
<svg version="1.1" id="Layer_1" xmlns="http://www.w3.org/2000/svg" xmlns:xlink="http://www.w3.org/1999/xlink" x="0px" y="0px"
	 width="15.843px" height="15.843px" viewBox="0 0 15.843 15.843" enable-background="new 0 0 15.843 15.843" xml:space="preserve">
<path fill="#818282" d="M15.843,13.199c0.004-0.817-0.429-1.52-1.077-1.909l0.003-0.005c-0.484-0.267-0.971-0.532-1.444-0.811
	c-0.299-0.184-0.667-0.53-1.024-0.53c-0.702,0-1.726,2.086-2.347,2.086c-0.311,0-0.714-0.289-0.99-0.45
	C6.87,10.416,5.42,8.965,4.258,6.868c-0.161-0.277-0.449-0.68-0.449-0.991c0-0.622,2.083-1.648,2.083-2.351
	c0-0.357-0.346-0.725-0.53-1.025C5.114,2.078,4.877,1.643,4.638,1.21C4.272,0.491,3.535-0.003,2.668,0
	C1.86,0.002,1.171,0.428,0.791,1.07L0.773,1.059c-0.065,0.11-0.129,0.22-0.186,0.324C0.219,2.063,0,2.754,0,3.526
	c0,1.072,0.437,2.04,0.794,3.019c0.253,0.703,0.564,1.383,0.955,2.016c1.208,1.959,3.567,4.321,5.524,5.531
	c0.632,0.392,1.311,0.703,2.013,0.956c0.978,0.357,1.945,0.795,3.015,0.795c0.771,0,1.462-0.219,2.141-0.587
	c0.003-0.003,0.008-0.005,0.012-0.008C15.272,14.928,15.843,14.142,15.843,13.199"/>
</svg>
