<?xml version="1.0" encoding="utf-8"?>
<!-- Generator: Adobe Illustrator 19.0.0, SVG Export Plug-In . SVG Version: 6.00 Build 0)  -->
<svg version="1.1" id="Layer_1" xmlns="http://www.w3.org/2000/svg" xmlns:xlink="http://www.w3.org/1999/xlink" x="0px" y="0px"
	 viewBox="-364.1 322.1 150 150" style="enable-background:new -364.1 322.1 150 150;" xml:space="preserve">
<style type="text/css">
	.st0{fill:#818282;}
</style>
<path class="st0" d="M-214.1,447c0-7.7-4.1-14.4-10.2-18.1l0,0c-4.6-2.5-9.2-5-13.7-7.7c-2.8-1.7-6.3-5-9.7-5
	c-6.6,0-16.3,19.8-22.2,19.8c-2.9,0-6.8-2.7-9.4-4.3c-19.8-11-33.6-24.8-44.6-44.6c-1.5-2.6-4.3-6.4-4.3-9.4
	c0-5.9,19.7-15.6,19.7-22.3c0-3.4-3.3-6.9-5-9.7c-2.3-4-4.6-8.1-6.9-12.2c-3.5-6.8-10.4-11.5-18.7-11.5c-7.7,0-14.2,4.1-17.8,10.1
	l-0.2-0.1c-0.6,1-1.2,2.1-1.8,3.1c-3.5,6.4-5.6,13-5.6,20.3c0,10.1,4.1,19.3,7.5,28.6c2.4,6.7,5.3,13.1,9,19.1
	c11.4,18.5,33.8,40.9,52.3,52.4c6,3.7,12.4,6.7,19.1,9.1c9.3,3.4,18.4,7.5,28.5,7.5c7.3,0,13.8-2.1,20.3-5.6c0,0,0.1,0,0.1-0.1
	C-219.5,463.4-214.1,456-214.1,447"/>
</svg>
