<?xml version="1.0" encoding="utf-8"?>
<!-- Generator: Adobe Illustrator 19.0.0, SVG Export Plug-In . SVG Version: 6.00 Build 0)  -->
<svg version="1.1" id="Layer_1" xmlns="http://www.w3.org/2000/svg" xmlns:xlink="http://www.w3.org/1999/xlink" x="0px" y="0px"
	 viewBox="-361.9 321.9 150 150" style="enable-background:new -361.9 321.9 150 150;" xml:space="preserve">
<style type="text/css">
	.st0{fill:#818282;}
</style>
<path class="st0" d="M-231.2,321.9h-111.4c-10.7,0-19.3,8.6-19.3,19.3v111.4c0,10.7,8.6,19.3,19.3,19.3h111.4
	c10.7,0,19.3-8.6,19.3-19.3V341.2C-211.9,330.6-220.6,321.9-231.2,321.9z M-248.8,440C-248.9,440-248.9,440-248.8,440
	c-4,2.2-8.1,3.5-12.6,3.5c-6.2,0-11.9-2.6-17.6-4.7c-4.1-1.5-8.1-3.3-11.7-5.6c-11.4-7.1-25.2-21-32.2-32.5
	c-2.3-3.7-4.1-7.7-5.6-11.9c-2.1-5.8-4.6-11.4-4.6-17.7c0-4.5,1.3-8.6,3.4-12.6c0.3-0.6,0.7-1.3,1.1-1.9l0.1,0.1
	c2.2-3.8,6.2-6.3,10.9-6.3c5,0,9.4,2.9,11.5,7.1c1.4,2.5,2.8,5.1,4.2,7.6c1.1,1.8,3.1,3.9,3.1,6c0,4.1-12.1,10.2-12.1,13.8
	c0,1.8,1.7,4.2,2.6,5.8c6.8,12.3,15.2,20.8,27.4,27.7c1.6,0.9,4,2.6,5.8,2.6c3.6,0,9.6-12.3,13.7-12.3c2.1,0,4.2,2,6,3.1
	c2.8,1.6,5.6,3.2,8.4,4.8l0,0c3.8,2.3,6.3,6.4,6.3,11.2C-240.7,433.5-244.1,438.1-248.8,440z"/>
</svg>
