<?xml version="1.0" encoding="utf-8"?>
<!-- Generator: Adobe Illustrator 16.0.0, SVG Export Plug-In . SVG Version: 6.00 Build 0)  -->
<!DOCTYPE svg PUBLIC "-//W3C//DTD SVG 1.1//EN" "http://www.w3.org/Graphics/SVG/1.1/DTD/svg11.dtd">
<svg version="1.1" id="Layer_1" xmlns="http://www.w3.org/2000/svg" xmlns:xlink="http://www.w3.org/1999/xlink" x="0px" y="0px"
	 width="18.182px" height="18.18px" viewBox="0 0 18.182 18.18" enable-background="new 0 0 18.182 18.18" xml:space="preserve">
<path fill="#818282" d="M15.842,0H2.34C1.048,0,0,1.047,0,2.339v13.502c0,1.292,1.048,2.339,2.34,2.339h13.502
	c1.291,0,2.34-1.047,2.34-2.339V2.339C18.181,1.047,17.133,0,15.842,0z M13.707,14.309c-0.004,0-0.006,0.002-0.01,0.004
	c-0.479,0.264-0.967,0.418-1.512,0.418c-0.756,0-1.439-0.311-2.131-0.566c-0.496-0.18-0.977-0.4-1.424-0.68
	c-1.383-0.863-3.049-2.543-3.902-3.938C4.451,9.095,4.232,8.61,4.054,8.11C3.802,7.412,3.492,6.723,3.492,5.96
	c0-0.549,0.154-1.042,0.414-1.525C3.947,4.36,3.992,4.281,4.038,4.203l0.014,0.009C4.32,3.755,4.807,3.45,5.378,3.449
	C5.99,3.447,6.512,3.799,6.771,4.31c0.168,0.309,0.335,0.619,0.511,0.92C7.413,5.443,7.657,5.706,7.657,5.96
	c0,0.502-1.472,1.231-1.472,1.675c0,0.221,0.203,0.509,0.315,0.706c0.821,1.492,1.848,2.527,3.325,3.355
	c0.195,0.115,0.48,0.32,0.699,0.32c0.439,0,1.164-1.486,1.66-1.486c0.252,0,0.512,0.248,0.723,0.379
	c0.334,0.197,0.678,0.387,1.021,0.578l-0.002,0.002c0.457,0.277,0.764,0.779,0.762,1.359C14.689,13.52,14.285,14.078,13.707,14.309z
	"/>
</svg>
