<?xml version="1.0" encoding="utf-8"?>
<!-- Generator: Adobe Illustrator 16.0.0, SVG Export Plug-In . SVG Version: 6.00 Build 0)  -->
<!DOCTYPE svg PUBLIC "-//W3C//DTD SVG 1.1//EN" "http://www.w3.org/Graphics/SVG/1.1/DTD/svg11.dtd">
<svg version="1.1" id="Layer_1" xmlns="http://www.w3.org/2000/svg" xmlns:xlink="http://www.w3.org/1999/xlink" x="0px" y="0px"
	 width="14.627px" height="14.627px" viewBox="0 0 14.627 14.627" enable-background="new 0 0 14.627 14.627" xml:space="preserve">
<g>
	<path fill="#676767" d="M5.419,7.304c0-0.914,0.002-1.827-0.002-2.741c0-0.205,0.047-0.377,0.237-0.476
		c0.194-0.102,0.366-0.045,0.542,0.074c1.316,0.889,2.639,1.771,3.958,2.653c0.024,0.017,0.052,0.03,0.078,0.046
		c0.394,0.215,0.415,0.623,0.046,0.87C9.642,8.156,9.005,8.583,8.366,9.009C7.63,9.503,6.89,9.997,6.153,10.492
		c-0.154,0.104-0.313,0.134-0.48,0.054c-0.176-0.086-0.254-0.233-0.254-0.43C5.421,9.179,5.419,8.241,5.419,7.304z"/>
	<path fill="#676767" d="M7.313,0.001c-4.039,0-7.313,3.273-7.313,7.313s3.273,7.313,7.313,7.313s7.313-3.273,7.313-7.313
		C14.628,3.274,11.353,0.001,7.313,0.001z M7.313,12.841c-3.055,0-5.529-2.475-5.529-5.527s2.475-5.529,5.529-5.529
		c3.054,0,5.529,2.475,5.529,5.529C12.843,10.367,10.367,12.841,7.313,12.841z"/>
</g>
</svg>
