<?xml version="1.0" encoding="utf-8"?>
<!-- Generator: Adobe Illustrator 19.0.0, SVG Export Plug-In . SVG Version: 6.00 Build 0)  -->
<svg version="1.1" id="Layer_1" xmlns="http://www.w3.org/2000/svg" xmlns:xlink="http://www.w3.org/1999/xlink" x="0px" y="0px"
	 viewBox="-230 322 150 150" style="enable-background:new -230 322 150 150;" xml:space="preserve">
<g>
	<path d="M-174.4,396.9c0-9.4,0-18.7,0-28.1c0-2.1,0.5-3.9,2.4-4.9c2-1,3.8-0.5,5.6,0.8c13.5,9.1,27.1,18.2,40.6,27.2
		c0.2,0.2,0.5,0.3,0.8,0.5c4,2.2,4.3,6.4,0.5,8.9c-6.5,4.4-13.1,8.7-19.6,13.1c-7.5,5.1-15.1,10.1-22.7,15.2
		c-1.6,1.1-3.2,1.4-4.9,0.6c-1.8-0.9-2.6-2.4-2.6-4.4C-174.4,416.1-174.4,406.5-174.4,396.9z"/>
	<path d="M-155,322c-41.4,0-75,33.6-75,75s33.6,75,75,75s75-33.6,75-75C-80,355.6-113.6,322-155,322z M-155,453.7
		c-31.3,0-56.7-25.4-56.7-56.7s25.4-56.7,56.7-56.7s56.7,25.4,56.7,56.7C-98.3,428.3-123.7,453.7-155,453.7z"/>
</g>
</svg>
