<?xml version="1.0" encoding="utf-8"?>
<!-- Generator: Adobe Illustrator 16.0.0, SVG Export Plug-In . SVG Version: 6.00 Build 0)  -->
<!DOCTYPE svg PUBLIC "-//W3C//DTD SVG 1.1//EN" "http://www.w3.org/Graphics/SVG/1.1/DTD/svg11.dtd">
<svg version="1.1" id="Layer_1" xmlns="http://www.w3.org/2000/svg" xmlns:xlink="http://www.w3.org/1999/xlink" x="0px" y="0px"
	 width="18.18px" height="18.182px" viewBox="0 0 18.18 18.182" enable-background="new 0 0 18.18 18.182" xml:space="preserve">
<path fill-rule="evenodd" clip-rule="evenodd" fill="#818282" d="M15.899,6.81h-4.491V2.282C11.408,1.022,10.387,0,9.127,0
	c-1.26,0-2.281,1.022-2.281,2.282V6.81H2.281C1.022,6.81,0,7.83,0,9.09c0,1.262,1.022,2.281,2.281,2.281h4.565v4.528
	c0,1.26,1.021,2.282,2.281,2.282c1.26,0,2.281-1.022,2.281-2.282v-4.528h4.491c1.26,0,2.281-1.02,2.281-2.281
	C18.18,7.83,17.159,6.81,15.899,6.81"/>
</svg>
