<?xml version="1.0" encoding="utf-8"?>
<!-- Generator: Adobe Illustrator 16.0.0, SVG Export Plug-In . SVG Version: 6.00 Build 0)  -->
<!DOCTYPE svg PUBLIC "-//W3C//DTD SVG 1.1//EN" "http://www.w3.org/Graphics/SVG/1.1/DTD/svg11.dtd">
<svg version="1.1" id="Layer_1" xmlns="http://www.w3.org/2000/svg" xmlns:xlink="http://www.w3.org/1999/xlink" x="0px" y="0px"
	 width="18.106px" height="18.106px" viewBox="0 0 18.106 18.106" enable-background="new 0 0 18.106 18.106" xml:space="preserve">
<path fill-rule="evenodd" clip-rule="evenodd" fill="#818282" d="M15.868,6.79h-1.157V5.659h-2.268c-1.872,0-3.39-1.518-3.39-3.39
	V0.001H5.722c-1.285,0-2.327,1.042-2.327,2.327V6.79H2.238C1.002,6.79,0,7.792,0,9.028v6.84c0,1.236,1.002,2.238,2.238,2.238h13.63
	c1.236,0,2.238-1.002,2.238-2.238v-6.84C18.106,7.792,17.104,6.79,15.868,6.79 M9.053,15.825c-0.615,0-1.114-0.498-1.114-1.113
	c0-0.616,0.499-1.114,1.114-1.114c0.615,0,1.114,0.498,1.114,1.114C10.167,15.327,9.668,15.825,9.053,15.825 M15.842,11.317
	c0,0.625-0.506,1.13-1.131,1.13v0.001H3.395l-0.002-0.001c-0.624,0-1.13-0.505-1.13-1.13V9.052c0-0.624,0.506-1.13,1.13-1.13h0.002
	v3.395h11.316V7.922c0.625,0,1.131,0.506,1.131,1.13V11.317z M12.429,4.527h2.282L10.184,0v2.282
	C10.184,3.522,11.189,4.527,12.429,4.527"/>
</svg>
