<?xml version="1.0" encoding="utf-8"?>
<!-- Generator: Adobe Illustrator 19.0.0, SVG Export Plug-In . SVG Version: 6.00 Build 0)  -->
<svg version="1.1" id="Layer_1" xmlns="http://www.w3.org/2000/svg" xmlns:xlink="http://www.w3.org/1999/xlink" x="0px" y="0px"
	 viewBox="-361.9 321.9 150 150" style="enable-background:new -361.9 321.9 150 150;" xml:space="preserve">
<style type="text/css">
	.st0{fill:#818282;}
</style>
<path class="st0" d="M-230.5,378.2h-9.6v-9.4h-18.8c-15.5,0-28.1-12.6-28.1-28.1V322h-27.6c-10.6,0-19.3,8.6-19.3,19.3v37h-9.6
	c-10.2,0-18.5,8.3-18.5,18.5v56.7c0,10.2,8.3,18.5,18.5,18.5h112.9c10.2,0,18.5-8.3,18.5-18.5v-56.7
	C-211.9,386.5-220.2,378.2-230.5,378.2 M-286.9,453c-5.1,0-9.2-4.1-9.2-9.2c0-5.1,4.1-9.2,9.2-9.2s9.2,4.1,9.2,9.2
	C-277.7,448.9-281.9,453-286.9,453 M-230.7,415.7c0,5.2-4.2,9.4-9.4,9.4v0h-93.7l0,0c-5.2,0-9.4-4.2-9.4-9.4v-18.8
	c0-5.2,4.2-9.4,9.4-9.4h0v28.1h93.7v-28.1c5.2,0,9.4,4.2,9.4,9.4C-230.7,396.9-230.7,415.7-230.7,415.7z M-259,359.5h18.9
	l-37.5-37.5v18.9C-277.6,351.1-269.3,359.5-259,359.5"/>
</svg>
