<?xml version="1.0" encoding="utf-8"?>
<!-- Generator: Adobe Illustrator 16.0.0, SVG Export Plug-In . SVG Version: 6.00 Build 0)  -->
<!DOCTYPE svg PUBLIC "-//W3C//DTD SVG 1.1//EN" "http://www.w3.org/Graphics/SVG/1.1/DTD/svg11.dtd">
<svg version="1.1" id="Layer_1" xmlns="http://www.w3.org/2000/svg" xmlns:xlink="http://www.w3.org/1999/xlink" x="0px" y="0px"
	 width="18.18px" height="18.18px" viewBox="0 0 18.18 18.18" enable-background="new 0 0 18.18 18.18" xml:space="preserve">
<path fill="#818282" d="M9.089,0C4.069,0,0,4.07,0,9.09s4.068,9.09,9.089,9.09s9.091-4.068,9.091-9.09C18.18,4.07,14.11,0,9.089,0z
	 M9.191,15.292c-0.623,0-1.128-0.504-1.128-1.127s0.505-1.127,1.128-1.127c0.622,0,1.127,0.504,1.127,1.127
	S9.813,15.292,9.191,15.292z M10.258,9.388v1.41c0,0.594-0.482,1.073-1.075,1.073c-0.593,0-1.074-0.479-1.074-1.073V8.4
	c0-0.575,0.456-1.038,1.025-1.064v-0.01C9.143,7.326,9.15,7.328,9.158,7.33c0.01,0,0.017-0.005,0.025-0.005S9.199,7.33,9.209,7.33
	c0.567-0.016,1.024-0.567,1.024-1.138c0-0.577-0.469-1.047-1.047-1.047c-0.385,0-0.721,0.208-0.903,0.518
	c-0.188,0.32-0.513,0.533-0.885,0.533c-0.115,0-0.236-0.002-0.359-0.002C6.296,6.193,5.802,5.417,6.119,4.746
	c0.629-1.331,2.098-2.188,3.723-1.882c1.289,0.241,2.357,1.261,2.645,2.541C12.899,7.228,11.832,8.86,10.258,9.388z"/>
</svg>
