<?xml version="1.0" encoding="utf-8"?>
<!-- Generator: Adobe Illustrator 19.0.0, SVG Export Plug-In . SVG Version: 6.00 Build 0)  -->
<svg version="1.1" id="Layer_1" xmlns="http://www.w3.org/2000/svg" xmlns:xlink="http://www.w3.org/1999/xlink" x="0px" y="0px"
	 viewBox="-361.9 321.9 150 150" style="enable-background:new -361.9 321.9 150 150;" xml:space="preserve">
<style type="text/css">
	.st0{fill:#818282;}
</style>
<path class="st0" d="M-286.9,321.9c-41.4,0-75,33.6-75,75s33.6,75,75,75s75-33.6,75-75C-211.9,355.5-245.5,321.9-286.9,321.9z
	 M-286.1,448.1c-5.1,0-9.3-4.2-9.3-9.3c0-5.1,4.2-9.3,9.3-9.3c5.1,0,9.3,4.2,9.3,9.3C-276.8,443.9-280.9,448.1-286.1,448.1z
	 M-277.3,399.4V411c0,4.9-4,8.9-8.9,8.9c-4.9,0-8.9-4-8.9-8.9v-19.8c0-4.7,3.8-8.6,8.5-8.8v-0.1c0.1,0,0.1,0,0.2,0
	c0.1,0,0.1,0,0.2,0c0.1,0,0.1,0,0.2,0c4.7-0.1,8.4-4.7,8.4-9.4c0-4.8-3.9-8.6-8.6-8.6c-3.2,0-5.9,1.7-7.5,4.3
	c-1.6,2.6-4.2,4.4-7.3,4.4c-0.9,0-1.9,0-3,0c-6.1,0-10.2-6.4-7.6-11.9c5.2-11,17.3-18.1,30.7-15.5c10.6,2,19.4,10.4,21.8,21
	C-255.5,381.5-264.3,395-277.3,399.4z"/>
</svg>
