<?xml version="1.0" encoding="utf-8"?>
<!-- Generator: Adobe Illustrator 19.0.0, SVG Export Plug-In . SVG Version: 6.00 Build 0)  -->
<svg version="1.1" id="Layer_1" xmlns="http://www.w3.org/2000/svg" xmlns:xlink="http://www.w3.org/1999/xlink" x="0px" y="0px"
	 viewBox="-230 322 150 150" style="enable-background:new -230 322 150 150;" xml:space="preserve">
<style type="text/css">
	.st0{fill:#00A2C2;}
</style>
<g>
	<g>
		<path class="st0" d="M-155,402.1c0.9-0.9,1.7-1.7,2.7-2.4c-12.2-16.2-31.5-26.7-53.5-26.9c-0.1,0-0.2,0-0.4,0
			c-9.4,0-16.7,7.8-16.7,17.2c0,9.6,7.4,17.4,16.9,17.4l0,0c18,0,32.4,13.7,33.4,31.7l0,0c-0.1,0.4,0.2,0.9,0.2,1.6
			c0,8.3,5.7,14.9,13.4,16.5C-171.5,440.4-170.1,417.2-155,402.1z"/>
		<path class="st0" d="M-206.2,423.4c-9.4,0-16.7,7.4-16.7,16.9s7.4,17,16.9,17c9.4-0.1,16.8-7.4,16.8-16.8
			C-189.2,431-196.8,423.4-206.2,423.4z"/>
		<path class="st0" d="M-94.7,402.1C-94.7,402.2-94.6,402.2-94.7,402.1c-15.5-46.4-59.1-79.7-110.9-80c-0.2,0-0.4-0.1-0.6-0.1
			c-9.4,0-18.8,7.4-18.8,16.8c0,9.5-0.2,17,14.8,17l0,0c30.1,0.1,55.5,14.1,70.7,35.6C-124.9,386.9-106.3,390.5-94.7,402.1z"/>
	</g>
	<path class="st0" d="M-124.4,393.3c-21.8,0-39.4,17.6-39.4,39.4s17.6,39.4,39.4,39.4S-85,454.4-85,432.6
		C-85,410.8-102.7,393.3-124.4,393.3z M-111.3,437.6c-2.5-0.1-5.1,0-7.6,0c-0.5,0-0.6,0.2-0.6,0.6c0,2.6,0,5.2,0,7.8
		c0,2.4-1.8,4.3-4.2,4.6c-2.3,0.3-4.6-1.2-5.2-3.4c-0.1-0.5-0.1-0.9-0.1-1.4c0-2.5,0-5,0-7.4c0-0.6-0.2-0.7-0.7-0.7
		c-1.4,0-2.8,0-4.1,0c-1.2,0-2.4-0.1-3.6,0c-3.3,0.3-5.8-3.5-4.8-6.6c0.8-2.2,2.5-3.5,4.8-3.5c2.5,0,5,0,7.6,0
		c0.6,0,0.8-0.1,0.8-0.8c0-2.5,0-5,0-7.5c0-2.4,1.8-4.3,4.1-4.6c2.3-0.3,4.6,1.2,5.2,3.5c0.1,0.4,0.1,0.9,0.1,1.3c0,2.4,0,4.8,0,7.1
		c0,0.7,0.1,0.9,0.9,0.9c2.5-0.1,4.9,0,7.4,0c2.7,0,4.8,2.2,4.9,5C-106.4,434.8-108.3,437.7-111.3,437.6z"/>
</g>
</svg>
