<?xml version="1.0" encoding="utf-8"?>
<!-- Generator: Adobe Illustrator 16.0.0, SVG Export Plug-In . SVG Version: 6.00 Build 0)  -->
<!DOCTYPE svg PUBLIC "-//W3C//DTD SVG 1.1//EN" "http://www.w3.org/Graphics/SVG/1.1/DTD/svg11.dtd">
<svg version="1.1" id="Layer_1" xmlns="http://www.w3.org/2000/svg" xmlns:xlink="http://www.w3.org/1999/xlink" x="0px" y="0px"
	 width="14.061px" height="14.059px" viewBox="0 0 14.061 14.059" enable-background="new 0 0 14.061 14.059" xml:space="preserve">
<g>
	<g>
		<path fill="#00A2C2" d="M7.382,7.453C7.461,7.374,7.542,7.3,7.626,7.229c-1.117-1.487-2.89-2.447-4.905-2.46
			c-0.011,0-0.021-0.002-0.033-0.002C1.83,4.768,1.155,5.48,1.155,6.342c-0.002,0.875,0.68,1.59,1.549,1.59l0,0
			c1.651,0,2.969,1.251,3.062,2.905l0,0c-0.005,0.039,0.019,0.086,0.019,0.147c-0.001,0.764,0.518,1.368,1.228,1.509
			C5.875,10.967,5.999,8.839,7.382,7.453z"/>
		<path fill="#00A2C2" d="M2.688,9.412c-0.858,0-1.534,0.68-1.534,1.544c-0.002,0.874,0.68,1.56,1.549,1.555
			c0.86-0.005,1.537-0.681,1.537-1.542C4.246,10.104,3.553,9.409,2.688,9.412z"/>
		<path fill="#00A2C2" d="M12.917,7.461c0.003,0.002,0.006,0.005,0.008,0.008c-1.43-4.263-5.419-7.315-10.181-7.349
			C2.725,0.118,2.708,0.115,2.688,0.115C1.83,0.116,0.969,0.795,0.969,1.658C0.968,2.531,0.95,3.214,2.328,3.213v0.002
			c2.755,0.008,5.088,1.289,6.479,3.258C10.151,6.055,11.854,6.384,12.917,7.461z"/>
	</g>
	<path fill="#00A2C2" d="M10.194,6.641c-1.993,0-3.609,1.616-3.609,3.608c0,1.994,1.616,3.609,3.609,3.609s3.609-1.615,3.609-3.609
		C13.803,8.257,12.187,6.641,10.194,6.641z M11.398,10.709c-0.233-0.008-0.466,0-0.7-0.003c-0.046-0.001-0.058,0.014-0.058,0.059
		c0.003,0.238,0.003,0.475,0.001,0.713c-0.002,0.216-0.165,0.393-0.383,0.419c-0.213,0.025-0.419-0.112-0.475-0.316
		c-0.012-0.043-0.012-0.086-0.012-0.129c0-0.228-0.002-0.454,0.002-0.682c0-0.053-0.017-0.064-0.066-0.063
		c-0.126,0.003-0.253,0.001-0.379,0.001c-0.109,0-0.22-0.007-0.327,0.002c-0.3,0.024-0.535-0.317-0.436-0.609
		c0.07-0.205,0.225-0.317,0.441-0.317c0.23,0,0.462-0.003,0.693,0c0.056,0.002,0.074-0.011,0.073-0.07
		C9.77,9.483,9.771,9.254,9.772,9.026c0.002-0.218,0.162-0.395,0.38-0.422c0.214-0.028,0.424,0.112,0.479,0.319
		c0.011,0.04,0.011,0.081,0.011,0.123c0,0.219,0.003,0.436-0.001,0.653c-0.001,0.064,0.011,0.086,0.081,0.085
		c0.226-0.006,0.453-0.002,0.679-0.002c0.247,0,0.44,0.206,0.445,0.46C11.848,10.449,11.672,10.719,11.398,10.709z"/>
</g>
</svg>
