<?xml version="1.0" encoding="utf-8"?>
<!-- Generator: Adobe Illustrator 16.0.0, SVG Export Plug-In . SVG Version: 6.00 Build 0)  -->
<!DOCTYPE svg PUBLIC "-//W3C//DTD SVG 1.1//EN" "http://www.w3.org/Graphics/SVG/1.1/DTD/svg11.dtd">
<svg version="1.1" id="Layer_1" xmlns="http://www.w3.org/2000/svg" xmlns:xlink="http://www.w3.org/1999/xlink" x="0px" y="0px"
	 width="14.061px" height="14.059px" viewBox="0 0 14.061 14.059" enable-background="new 0 0 14.061 14.059" xml:space="preserve">
<path fill="#676767" d="M7.031,0C3.148,0,0,3.146,0,7.029c0,3.883,3.147,7.03,7.03,7.03c3.88,0,7.029-3.146,7.029-7.03
	C14.059,3.147,10.911,0,7.031,0z M6.753,11.272c-0.973,0-2.037-0.193-2.839-0.73v0.037c0,0.488-0.144,0.883-0.632,0.883
	s-0.757-0.395-0.757-0.883l0.043-2.598c-0.003-0.033,0.03-0.109,0.03-0.145c0-0.489,0.429-0.963,0.915-0.963H6.18
	c0.488,0,0.882,0.281,0.882,0.77c0,0.484-0.394,0.766-0.882,0.766H5.082C5.559,9.143,6.24,9.326,7.004,9.326
	c1.153,0,2.12-0.918,2.473-1.719h1.82C10.901,9.946,8.88,11.272,6.753,11.272z M10.528,6.874H7.862
	c-0.488,0-0.886-0.297-0.886-0.786c0-0.485,0.397-0.785,0.886-0.785h1.066C8.45,4.534,7.77,4.388,7.005,4.388
	c-1.134,0-2.093,0.146-2.458,1.682H2.721c0.412-2.305,2.042-3.45,4.153-3.45c0.994,0,1.685,0.375,2.488,0.935V3.48
	c0-0.489,0.525-0.883,1.016-0.883c0.486,0,0.947,0.394,0.947,0.883l0.053,2.588C11.376,6.557,11.014,6.874,10.528,6.874z"/>
</svg>
