<?xml version="1.0" encoding="utf-8"?>
<!-- Generator: Adobe Illustrator 19.0.0, SVG Export Plug-In . SVG Version: 6.00 Build 0)  -->
<svg version="1.1" id="Layer_1" xmlns="http://www.w3.org/2000/svg" xmlns:xlink="http://www.w3.org/1999/xlink" x="0px" y="0px"
	 viewBox="172.1 312.9 150 150" style="enable-background:new 172.1 312.9 150 150;" xml:space="preserve">
<style type="text/css">
	.st0{fill:#00A1C1;}
</style>
<g>
	<path id="XMLID_2825_" class="st0" d="M262.4,411.1C261.4,410.1,261.4,410.1,262.4,411.1l-29.6-1.1l-1.1,1.1c0,0-2.1,3.2-4.2,9.5
		c-2.1,5.3-4.2,2.1-4.2,13.7c0,0,0,1.1,1.1,1.1h1.1l5.3-4.2c-1.1,3.2-2.1,9.5-1.1,16.9c0,0,0,1.1,1.1,1.1h1.1l5.3-5.3
		c0,1.1,0,2.1,0,4.2c1.1,5.3,4.2,10.6,8.5,13.7c0,0,0,1.1,1.1,1.1l0,0c0,0,0,0,1.1-1.1c4.2-3.2,7.4-8.5,8.5-13.7c0-1.1,0-3.2,0-4.2
		l5.3,5.3h1.1c0,0,1.1,0,1.1-1.1c1.1-6.3,0-12.7-1.1-16.9l5.3,4.2h1.1l1.1-1.1c0-10.6-2.1-8.5-4.2-13.7
		C264.5,414.3,262.4,411.1,262.4,411.1z"/>
	<path id="XMLID_2787_" class="st0" d="M232.8,403.8h28.5c1.1,0,1.1,0,1.1-1.1c3.2-16.9,4.2-21.1,3.2-35.9
		c-1.1-11.6-2.1-22.2-5.3-31.7c-5.3-15.8-12.7-22.2-12.7-22.2s-1.1,0-2.1,0c0,0-7.4,7.4-12.7,23.2c-3.2,9.5-5.3,20.1-5.3,31.7
		c-1.1,14.8,0,19,3.2,35.9C231.8,403.8,231.8,403.8,232.8,403.8z M246.6,355.2c5.3,0,9.5,4.2,9.5,9.5c0,5.3-4.2,9.5-9.5,9.5
		c-5.3,0-9.5-4.2-9.5-9.5C237.1,359.4,241.3,355.2,246.6,355.2z"/>
	<path id="XMLID_1248_" class="st0" d="M225.4,403.8c0,0,0-1.1,0-2.1c-1.1-6.3-2.1-13.7-3.2-20.1c0,0,0-1.1-1.1-1.1h-1.1l-15.8,9.5
		l-2.1,1.1v10.6c0,1.1,2.1,4.2,3.2,4.2h18C224.4,405.9,225.4,403.8,225.4,403.8z"/>
	<path id="XMLID_348_" class="st0" d="M268.8,403.8c0,0,0-1.1,0-2.1c1.1-6.3,2.1-13.7,3.2-20.1c0,0,0-1.1,1.1-1.1h1.1l15.8,9.5
		l2.1,1.1v10.6c0,1.1-2.1,4.2-3.2,4.2h-18C268.8,405.9,268.8,403.8,268.8,403.8z"/>
</g>
</svg>
