<?xml version="1.0" encoding="utf-8"?>
<!-- Generator: Adobe Illustrator 19.0.0, SVG Export Plug-In . SVG Version: 6.00 Build 0)  -->
<svg version="1.1" id="Layer_1" xmlns="http://www.w3.org/2000/svg" xmlns:xlink="http://www.w3.org/1999/xlink" x="0px" y="0px"
	 viewBox="-230 322 150 150" style="enable-background:new -230 322 150 150;" xml:space="preserve">
<style type="text/css">
	.st0{fill:#00A1C1;}
</style>
<g>
	<path id="XMLID_2825_" class="st0" d="M-139.7,420.2C-140.7,419.2-140.7,419.2-139.7,420.2l-29.6-1.1l-1.1,1.1c0,0-2.1,3.2-4.2,9.5
		c-2.1,5.3-4.2,2.1-4.2,13.7c0,0,0,1.1,1.1,1.1h1.1l5.3-4.2c-1.1,3.2-2.1,9.5-1.1,16.9c0,0,0,1.1,1.1,1.1h1.1l5.3-5.3
		c0,1.1,0,2.1,0,4.2c1.1,5.3,4.2,10.6,8.5,13.7c0,0,0,1.1,1.1,1.1l0,0c0,0,0,0,1.1-1.1c4.2-3.2,7.4-8.5,8.5-13.7c0-1.1,0-3.2,0-4.2
		l5.3,5.3h1.1c0,0,1.1,0,1.1-1.1c1.1-6.3,0-12.7-1.1-16.9l5.3,4.2h1.1l1.1-1.1c0-10.6-2.1-8.5-4.2-13.7
		C-137.6,423.4-139.7,420.2-139.7,420.2z"/>
	<path id="XMLID_2787_" class="st0" d="M-169.3,412.9h28.5c1.1,0,1.1,0,1.1-1.1c3.2-16.9,4.2-21.1,3.2-35.9
		c-1.1-11.6-2.1-22.2-5.3-31.7c-5.3-15.8-12.7-22.2-12.7-22.2s-1.1,0-2.1,0c0,0-7.4,7.4-12.7,23.2c-3.2,9.5-5.3,20.1-5.3,31.7
		c-1.1,14.8,0,19,3.2,35.9C-170.3,412.9-170.3,412.9-169.3,412.9z M-155.5,364.3c5.3,0,9.5,4.2,9.5,9.5s-4.2,9.5-9.5,9.5
		s-9.5-4.2-9.5-9.5S-160.8,364.3-155.5,364.3z"/>
	<path id="XMLID_1248_" class="st0" d="M-176.7,412.9c0,0,0-1.1,0-2.1c-1.1-6.3-2.1-13.7-3.2-20.1c0,0,0-1.1-1.1-1.1h-1.1l-15.8,9.5
		l-2.1,1.1v10.6c0,1.1,2.1,4.2,3.2,4.2h18C-177.7,415-176.7,412.9-176.7,412.9z"/>
	<path id="XMLID_348_" class="st0" d="M-133.3,412.9c0,0,0-1.1,0-2.1c1.1-6.3,2.1-13.7,3.2-20.1c0,0,0-1.1,1.1-1.1h1.1l15.8,9.5
		l2.1,1.1v10.6c0,1.1-2.1,4.2-3.2,4.2h-18C-133.3,415-133.3,412.9-133.3,412.9z"/>
</g>
</svg>
