<?xml version="1.0" encoding="utf-8"?>
<!-- Generator: Adobe Illustrator 16.0.0, SVG Export Plug-In . SVG Version: 6.00 Build 0)  -->
<!DOCTYPE svg PUBLIC "-//W3C//DTD SVG 1.1//EN" "http://www.w3.org/Graphics/SVG/1.1/DTD/svg11.dtd">
<svg version="1.1" id="Layer_1" xmlns="http://www.w3.org/2000/svg" xmlns:xlink="http://www.w3.org/1999/xlink" x="0px" y="0px"
	 width="17.976px" height="18.048px" viewBox="0 0 17.976 18.048" enable-background="new 0 0 17.976 18.048" xml:space="preserve">
<path fill-rule="evenodd" clip-rule="evenodd" fill="#818282" d="M2.233,13.537C0.985,13.539,0,14.527,0,15.784
	c-0.003,1.274,0.99,2.271,2.256,2.264c1.252-0.005,2.238-0.991,2.238-2.244C4.501,14.545,3.493,13.533,2.233,13.537 M17.95,15.527
	h0.011C17.826,6.929,10.94,0.068,2.315,0.008C2.287,0.007,2.261,0,2.233,0C0.985,0.002,0,0.99,0,2.247
	c-0.003,1.271,0.986,2.266,2.247,2.265v0.004c6.159,0.018,11.085,4.89,11.221,11.012h0.039c-0.009,0.085-0.025,0.168-0.025,0.257
	c-0.002,1.274,0.99,2.271,2.257,2.264c1.251-0.005,2.237-0.991,2.237-2.244C17.977,15.709,17.961,15.619,17.95,15.527
	 M11.218,15.527c-0.136-4.859-4.046-8.718-8.937-8.75C2.265,6.776,2.25,6.772,2.233,6.772C0.985,6.774,0,7.763,0,9.02
	c-0.003,1.273,0.99,2.271,2.256,2.265h0.001c2.403,0.012,4.32,1.875,4.457,4.243h0.052c-0.009,0.085-0.025,0.168-0.025,0.257
	c-0.002,1.274,0.99,2.271,2.256,2.264c1.252-0.005,2.238-0.991,2.238-2.244c0.001-0.095-0.016-0.185-0.026-0.276H11.218z"/>
</svg>
