<?xml version="1.0" encoding="utf-8"?>
<!-- Generator: Adobe Illustrator 19.0.0, SVG Export Plug-In . SVG Version: 6.00 Build 0)  -->
<svg version="1.1" id="Layer_1" xmlns="http://www.w3.org/2000/svg" xmlns:xlink="http://www.w3.org/1999/xlink" x="0px" y="0px"
	 viewBox="-362 322 150 150" style="enable-background:new -362 322 150 150;" xml:space="preserve">
<style type="text/css">
	.st0{fill:#818282;}
</style>
<path class="st0" d="M-343.2,434.5c-10.4,0-18.6,8.2-18.6,18.7c0,10.6,8.2,18.9,18.7,18.8c10.4,0,18.6-8.2,18.6-18.6
	C-324.3,442.9-332.7,434.4-343.2,434.5 M-212.5,451L-212.5,451c-1-71.5-58.3-128.5-129.9-129c-0.2,0-0.4-0.1-0.7-0.1
	c-10.4,0-18.6,8.2-18.6,18.7c0,10.6,8.2,18.8,18.7,18.8v0c51.2,0.1,92.1,40.6,93.3,91.5h0.3c-0.1,0.7-0.2,1.4-0.2,2.1
	c0,10.6,8.2,18.9,18.8,18.8c10.4,0,18.6-8.2,18.6-18.6C-212.3,452.5-212.4,451.8-212.5,451 M-268.5,451
	c-1.1-40.4-33.6-72.5-74.3-72.7c-0.1,0-0.3,0-0.4,0c-10.4,0-18.6,8.2-18.6,18.7c0,10.6,8.2,18.9,18.7,18.8h0
	c20,0.1,35.9,15.6,37,35.3h0.4c-0.1,0.7-0.2,1.4-0.2,2.1c0,10.6,8.2,18.9,18.7,18.8c10.4,0,18.6-8.2,18.6-18.6
	C-268.3,452.5-268.5,451.8-268.5,451L-268.5,451L-268.5,451z"/>
</svg>
