<?xml version="1.0" encoding="utf-8"?>
<!-- Generator: Adobe Illustrator 16.0.0, SVG Export Plug-In . SVG Version: 6.00 Build 0)  -->
<!DOCTYPE svg PUBLIC "-//W3C//DTD SVG 1.1//EN" "http://www.w3.org/Graphics/SVG/1.1/DTD/svg11.dtd">
<svg version="1.1" id="Layer_1" xmlns="http://www.w3.org/2000/svg" xmlns:xlink="http://www.w3.org/1999/xlink" x="0px" y="0px"
	 width="14.061px" height="14.059px" viewBox="0 0 14.061 14.059" enable-background="new 0 0 14.061 14.059" xml:space="preserve">
<path fill="#089EBF" d="M7.064,0.822c-3.455,0-6.256,2.801-6.256,6.256c0,3.454,2.801,6.255,6.256,6.255s6.255-2.801,6.255-6.255
	C13.32,3.622,10.519,0.822,7.064,0.822z M5.007,3.863c0.571,0,1.029,0.457,1.029,1.028c0,0.57-0.458,1.028-1.029,1.028
	c-0.57,0-1.028-0.458-1.028-1.028C3.978,4.32,4.436,3.863,5.007,3.863z M9.675,10.743c-0.273,0.088-0.563-0.064-0.65-0.338
	C8.759,9.546,7.964,8.967,7.064,8.967c-0.899,0-1.695,0.579-1.96,1.438c-0.088,0.273-0.377,0.426-0.643,0.338
	c-0.273-0.089-0.425-0.37-0.337-0.644c0.402-1.294,1.583-2.162,2.94-2.162c1.358,0,2.539,0.868,2.941,2.162
	C10.094,10.373,9.941,10.655,9.675,10.743z M9.12,5.919c-0.57,0-1.027-0.458-1.027-1.028c0-0.571,0.457-1.028,1.027-1.028
	c0.571,0,1.029,0.457,1.029,1.028C10.15,5.461,9.692,5.919,9.12,5.919z"/>
</svg>
