<?xml version="1.0" encoding="utf-8"?>
<!-- Generator: Adobe Illustrator 19.0.0, SVG Export Plug-In . SVG Version: 6.00 Build 0)  -->
<svg version="1.1" id="Camada_1" xmlns="http://www.w3.org/2000/svg" xmlns:xlink="http://www.w3.org/1999/xlink" x="0px" y="0px"
	 viewBox="-361.9 321.9 150 150" style="enable-background:new -361.9 321.9 150 150;" xml:space="preserve">
<path id="XMLID_56_" d="M-222,359.3c6.7,11.5,10.1,24,10.1,37.6c0,13.6-3.3,26.2-10.1,37.6c-6.7,11.5-15.8,20.6-27.3,27.3
	c-11.5,6.7-24,10.1-37.7,10.1s-26.2-3.4-37.6-10.1c-11.5-6.7-20.6-15.8-27.3-27.3c-6.7-11.5-10.1-24-10.1-37.6
	c0-13.6,3.3-26.2,10.1-37.6c6.7-11.5,15.8-20.6,27.3-27.3c11.5-6.7,24-10.1,37.6-10.1c13.6,0,26.2,3.4,37.7,10.1
	C-237.8,338.7-228.7,347.8-222,359.3z M-229.4,421.2c3.3-7.7,5-15.8,5-24.3s-1.7-16.6-5-24.3c-3.3-7.7-7.8-14.4-13.3-19.9
	c-5.6-5.6-12.2-10-19.9-13.3c-7.7-3.3-15.8-5-24.3-5c-8.5,0-16.6,1.7-24.3,5c-7.7,3.3-14.4,7.8-19.9,13.3
	c-5.6,5.6-10,12.2-13.3,19.9c-3.3,7.7-5,15.8-5,24.3s1.7,16.6,5,24.3c3.3,7.7,7.8,14.4,13.3,19.9c5.6,5.6,12.2,10,19.9,13.3
	c7.7,3.3,15.8,5,24.3,5c8.5,0,16.6-1.7,24.3-5c7.7-3.3,14.4-7.8,19.9-13.3C-237.2,435.6-232.7,428.9-229.4,421.2z M-303.1,363.1
	c2.4,2.4,3.7,5.4,3.7,8.8c0,3.5-1.2,6.4-3.7,8.8s-5.4,3.7-8.8,3.7c-3.4,0-6.4-1.2-8.8-3.7s-3.7-5.4-3.7-8.8s1.2-6.4,3.7-8.8
	c2.4-2.4,5.4-3.7,8.8-3.7C-308.5,359.4-305.5,360.7-303.1,363.1z M-322.7,432.6c2.4-7.9,6.9-14.2,13.5-19s14-7.2,22.3-7.2
	c8.3,0,15.7,2.4,22.3,7.2c6.6,4.8,11.1,11.2,13.5,19c0.5,1.6,0.4,3.2-0.4,4.7c-0.8,1.5-2,2.6-3.7,3.1c-1.6,0.5-3.2,0.4-4.7-0.4
	c-1.5-0.8-2.6-2-3.1-3.7c-1.6-5.2-4.6-9.4-9-12.6c-4.4-3.2-9.3-4.8-14.8-4.8s-10.4,1.6-14.8,4.8c-4.4,3.2-7.4,7.4-9,12.6
	c-0.5,1.7-1.6,2.9-3.1,3.7c-1.6,0.8-3.2,0.9-4.8,0.4c-1.6-0.5-2.8-1.5-3.6-3.1C-323.1,435.8-323.2,434.2-322.7,432.6z M-253.1,363.1
	c2.4,2.4,3.7,5.4,3.7,8.8c0,3.5-1.2,6.4-3.7,8.8c-2.4,2.4-5.4,3.7-8.8,3.7s-6.4-1.2-8.8-3.7c-2.4-2.4-3.7-5.4-3.7-8.8
	c0-3.5,1.2-6.4,3.7-8.8c2.4-2.4,5.4-3.7,8.8-3.7C-258.5,359.4-255.6,360.7-253.1,363.1z"/>
</svg>
