<?xml version="1.0" encoding="utf-8"?>
<!-- Generator: Adobe Illustrator 16.0.0, SVG Export Plug-In . SVG Version: 6.00 Build 0)  -->
<!DOCTYPE svg PUBLIC "-//W3C//DTD SVG 1.1//EN" "http://www.w3.org/Graphics/SVG/1.1/DTD/svg11.dtd">
<svg version="1.1" id="Camada_1" xmlns="http://www.w3.org/2000/svg" xmlns:xlink="http://www.w3.org/1999/xlink" x="0px" y="0px"
	 width="18.106px" height="18.107px" viewBox="0 0 18.106 18.107" enable-background="new 0 0 18.106 18.107" xml:space="preserve">
<path id="XMLID_56_" d="M16.893,4.509c0.81,1.388,1.214,2.902,1.214,4.544c0,1.643-0.404,3.158-1.214,4.544
	c-0.81,1.387-1.907,2.486-3.294,3.295c-1.388,0.81-2.903,1.214-4.545,1.214s-3.157-0.405-4.544-1.214
	c-1.387-0.809-2.485-1.908-3.295-3.295C0.404,12.211,0,10.696,0,9.053c0-1.642,0.404-3.157,1.214-4.544
	c0.81-1.387,1.908-2.485,3.295-3.295C5.896,0.405,7.411,0,9.053,0s3.157,0.405,4.545,1.214C14.985,2.023,16.083,3.122,16.893,4.509z
	 M15.997,11.982c0.4-0.931,0.601-1.908,0.601-2.929s-0.2-1.998-0.601-2.93c-0.401-0.931-0.938-1.733-1.609-2.404
	c-0.672-0.672-1.474-1.208-2.405-1.609c-0.932-0.401-1.907-0.602-2.93-0.602c-1.021,0-1.998,0.2-2.929,0.602
	c-0.932,0.4-1.733,0.937-2.405,1.609C3.047,4.391,2.511,5.193,2.11,6.124c-0.401,0.932-0.601,1.908-0.601,2.93
	s0.2,1.999,0.601,2.929c0.4,0.932,0.937,1.733,1.609,2.405c0.672,0.672,1.473,1.208,2.405,1.609
	c0.931,0.401,1.908,0.602,2.929,0.602c1.022,0,1.998-0.201,2.93-0.602c0.931-0.401,1.733-0.937,2.405-1.609
	C15.06,13.715,15.596,12.914,15.997,11.982z M7.103,4.968c0.294,0.295,0.442,0.65,0.442,1.067c0,0.417-0.147,0.772-0.442,1.067
	C6.808,7.397,6.452,7.544,6.035,7.544c-0.416,0-0.771-0.147-1.066-0.442c-0.295-0.295-0.441-0.65-0.441-1.067
	c0-0.417,0.146-0.772,0.441-1.067C5.264,4.674,5.62,4.526,6.035,4.526C6.452,4.526,6.808,4.674,7.103,4.968z M4.739,13.354
	c0.291-0.951,0.833-1.717,1.627-2.299c0.794-0.582,1.689-0.872,2.688-0.872s1.894,0.291,2.688,0.872
	c0.793,0.582,1.336,1.348,1.626,2.299c0.063,0.196,0.046,0.387-0.047,0.572s-0.243,0.309-0.448,0.372
	c-0.197,0.063-0.387,0.047-0.572-0.048c-0.185-0.094-0.309-0.243-0.372-0.448c-0.196-0.629-0.559-1.138-1.09-1.526
	c-0.53-0.389-1.125-0.584-1.785-0.584s-1.255,0.195-1.787,0.584c-0.53,0.389-0.894,0.897-1.09,1.526
	c-0.063,0.205-0.188,0.354-0.376,0.448c-0.189,0.095-0.382,0.111-0.578,0.048c-0.197-0.063-0.342-0.187-0.437-0.372
	C4.691,13.741,4.676,13.55,4.739,13.354z M13.138,4.968c0.295,0.295,0.442,0.65,0.442,1.067c0,0.417-0.147,0.772-0.442,1.067
	c-0.295,0.294-0.65,0.442-1.067,0.442c-0.417,0-0.772-0.147-1.066-0.442c-0.295-0.295-0.442-0.65-0.442-1.067
	c0-0.417,0.147-0.772,0.442-1.067c0.294-0.294,0.65-0.442,1.066-0.442C12.488,4.526,12.843,4.674,13.138,4.968z"/>
</svg>
