<?xml version="1.0" encoding="utf-8"?>
<!-- Generator: Adobe Illustrator 16.0.0, SVG Export Plug-In . SVG Version: 6.00 Build 0)  -->
<!DOCTYPE svg PUBLIC "-//W3C//DTD SVG 1.1//EN" "http://www.w3.org/Graphics/SVG/1.1/DTD/svg11.dtd">
<svg version="1.1" id="Layer_1" xmlns="http://www.w3.org/2000/svg" xmlns:xlink="http://www.w3.org/1999/xlink" x="0px" y="0px"
	 width="18.105px" height="18.105px" viewBox="0 0 18.105 18.105" enable-background="new 0 0 18.105 18.105" xml:space="preserve">
<g>
	<path fill="#676767" d="M17.946,16.568c0,0.371-0.137,0.695-0.409,0.969c-0.273,0.273-0.598,0.409-0.97,0.409
		c-0.389,0-0.713-0.136-0.973-0.409l-3.699-3.688c-1.286,0.892-2.721,1.338-4.303,1.338c-1.027,0-2.01-0.201-2.949-0.599
		c-0.938-0.399-1.747-0.938-2.427-1.618c-0.679-0.679-1.219-1.488-1.617-2.427C0.2,9.605,0,8.621,0,7.593
		c0-1.028,0.2-2.012,0.599-2.95c0.398-0.938,0.938-1.746,1.617-2.426c0.68-0.679,1.488-1.219,2.427-1.618C5.582,0.2,6.565,0,7.592,0
		c1.028,0,2.012,0.2,2.95,0.599c0.938,0.399,1.748,0.939,2.427,1.618c0.68,0.68,1.219,1.488,1.617,2.426
		c0.399,0.938,0.6,1.922,0.6,2.95c0,1.582-0.447,3.017-1.337,4.303l3.699,3.7C17.814,15.864,17.946,16.184,17.946,16.568z
		 M11.006,11.006c0.945-0.945,1.417-2.083,1.417-3.413s-0.472-2.468-1.417-3.413c-0.945-0.946-2.083-1.419-3.414-1.419
		c-1.329,0-2.468,0.473-3.413,1.419C3.234,5.125,2.76,6.263,2.76,7.593s0.473,2.468,1.418,3.413s2.084,1.418,3.413,1.418
		C8.923,12.424,10.061,11.951,11.006,11.006z"/>
</g>
</svg>
