<?xml version="1.0" encoding="utf-8"?>
<!-- Generator: Adobe Illustrator 19.0.0, SVG Export Plug-In . SVG Version: 6.00 Build 0)  -->
<svg version="1.1" id="Layer_1" xmlns="http://www.w3.org/2000/svg" xmlns:xlink="http://www.w3.org/1999/xlink" x="0px" y="0px"
	 viewBox="-280 322 150 150" style="enable-background:new -280 322 150 150;" xml:space="preserve">
<style type="text/css">
	.st0{fill:#5E5E5E;}
</style>
<g>
	<g>
		<path class="st0" d="M-157.9,369.1c-7.8,0-14.3,3.2-19.5,7.8l-46.7-23.4c0-1.3,0-2,0-3.2c0.7-15.6-12.3-27.9-27.9-27.9
			s-27.9,12.3-27.9,27.9c0,15.6,12.3,27.9,27.9,27.9c7.8,0,14.3-3.2,19.5-7.8l46.7,23.4c0,1.3,0,2,0,3.2c0,1.3,0,1.9,0,3.2
			l-46.7,23.4c-5.2-4.5-11.7-7.8-19.5-7.8c-15.6,0-27.9,12.3-27.9,27.9c0,15.6,12.3,27.9,27.9,27.9c15.6,0,27.9-12.3,27.9-27.9
			c0-1.3,0-1.9,0-3.2l46.7-23.4c5.2,4.6,11.7,7.8,19.5,7.8c15.6,0,27.9-12.3,27.9-27.9C-129.4,382.1-142.4,369.1-157.9,369.1z"/>
	</g>
</g>
</svg>
