<?xml version="1.0" encoding="utf-8"?>
<!-- Generator: Adobe Illustrator 19.0.0, SVG Export Plug-In . SVG Version: 6.00 Build 0)  -->
<svg version="1.1" id="Layer_1" xmlns="http://www.w3.org/2000/svg" xmlns:xlink="http://www.w3.org/1999/xlink" x="0px" y="0px"
	 viewBox="-363.5 322 150 150" style="enable-background:new -363.5 322 150 150;" xml:space="preserve">
<style type="text/css">
	.st0{fill:#676767;}
</style>
<g>
	<g>
		<g>
			<g>
				<path class="st0" d="M-216.6,352.7h-87.5c-2.8,0-4.5,2.3-3.6,5.2l13.8,42.8c0.7,2.3,3.1,4.2,5.4,4.2h57.4c2.3,0,4.7-1.9,5.4-4.2
					l12.1-43.8C-213,354.6-214.3,352.7-216.6,352.7z"/>
				<ellipse class="st0" cx="-296.2" cy="454.1" rx="13.1" ry="13.8"/>
				<ellipse class="st0" cx="-240.8" cy="454.3" rx="13.1" ry="13.8"/>
				<path class="st0" d="M-225.1,418.9h-76.5l-30.6-93h-23.9c-4.1,0-7.4,3.5-7.4,7.8c0,4.3,3.3,7.8,7.4,7.8h13.3l30.6,93h87.1
					c4.1,0,7.4-3.5,7.4-7.8C-217.7,422.4-221,418.9-225.1,418.9z"/>
			</g>
		</g>
	</g>
</g>
</svg>
