<?xml version="1.0" encoding="utf-8"?>
<!-- Generator: Adobe Illustrator 16.0.0, SVG Export Plug-In . SVG Version: 6.00 Build 0)  -->
<!DOCTYPE svg PUBLIC "-//W3C//DTD SVG 1.1//EN" "http://www.w3.org/Graphics/SVG/1.1/DTD/svg11.dtd">
<svg version="1.1" id="Layer_1" xmlns="http://www.w3.org/2000/svg" xmlns:xlink="http://www.w3.org/1999/xlink" x="0px" y="0px"
	 width="16.902px" height="15.992px" viewBox="0 0.125 16.902 15.992" enable-background="new 0 0.125 16.902 15.992"
	 xml:space="preserve">
<g>
	<g>
		<g>
			<g>
				<path fill="#676767" d="M16.547,3.146H6.699c-0.32,0-0.504,0.261-0.409,0.584l1.558,4.817c0.077,0.259,0.349,0.469,0.607,0.469
					h6.457c0.258,0,0.528-0.21,0.604-0.469l1.357-4.931C16.951,3.356,16.805,3.146,16.547,3.146z"/>
				<ellipse fill="#676767" cx="7.591" cy="14.563" rx="1.472" ry="1.555"/>
				<ellipse fill="#676767" cx="13.823" cy="14.584" rx="1.473" ry="1.554"/>
				<path fill="#676767" d="M15.591,10.598H6.977L3.528,0.125H0.842c-0.46,0-0.834,0.394-0.834,0.88
					c0,0.487,0.374,0.881,0.834,0.881h1.5L5.79,12.359h9.801c0.462,0,0.834-0.396,0.834-0.88
					C16.425,10.992,16.053,10.598,15.591,10.598z"/>
			</g>
		</g>
	</g>
</g>
</svg>
