<?xml version="1.0" encoding="utf-8"?>
<!-- Generator: Adobe Illustrator 19.0.0, SVG Export Plug-In . SVG Version: 6.00 Build 0)  -->
<svg version="1.1" id="Layer_1" xmlns="http://www.w3.org/2000/svg" xmlns:xlink="http://www.w3.org/1999/xlink" x="0px" y="0px"
	 viewBox="-366 322 150 150" style="enable-background:new -366 322 150 150;" xml:space="preserve">
<style type="text/css">
	.st0{fill:#089EBF;}
</style>
<path class="st0" d="M-291,322c-41.4,0-75,33.6-75,75s33.6,75,75,75c41.4,0,75-33.6,75-75C-216,355.6-249.6,322-291,322z
	 M-315.6,358.4c6.8,0,12.3,5.5,12.3,12.3s-5.5,12.3-12.3,12.3c-6.8,0-12.3-5.5-12.3-12.3C-328,363.9-322.5,358.4-315.6,358.4z
	 M-255.7,415.3c-4.8,15.5-19,25.9-35.3,25.9c-16.3,0-30.4-10.4-35.3-25.9c-1.1-3.3,0.8-6.7,4-7.7c3.3-1.1,6.8,0.8,7.8,4.1
	c3.2,10.3,12.7,17.2,23.5,17.2c10.8,0,20.3-6.9,23.5-17.2c1.1-3.3,4.5-5.1,7.7-4.1C-256.5,408.7-254.7,412-255.7,415.3z
	 M-266.3,383.1c-6.8,0-12.3-5.5-12.3-12.3s5.5-12.3,12.3-12.3s12.3,5.5,12.3,12.3C-254,377.6-259.5,383.1-266.3,383.1z"/>
</svg>
