<?xml version="1.0" encoding="utf-8"?>
<!-- Generator: Adobe Illustrator 16.0.0, SVG Export Plug-In . SVG Version: 6.00 Build 0)  -->
<!DOCTYPE svg PUBLIC "-//W3C//DTD SVG 1.1//EN" "http://www.w3.org/Graphics/SVG/1.1/DTD/svg11.dtd">
<svg version="1.1" id="Camada_1" xmlns="http://www.w3.org/2000/svg" xmlns:xlink="http://www.w3.org/1999/xlink" x="0px" y="0px"
	 width="18.106px" height="18.107px" viewBox="0 0 18.106 18.107" enable-background="new 0 0 18.106 18.107" xml:space="preserve">
<g id="XMLID_21_">
	<g id="XMLID_171_">
		<path id="XMLID_172_" d="M16.893,4.509c0.81,1.388,1.214,2.902,1.214,4.544c0,1.643-0.404,3.158-1.214,4.545
			c-0.81,1.387-1.907,2.485-3.294,3.294c-1.388,0.81-2.903,1.214-4.545,1.214s-3.157-0.405-4.544-1.214
			c-1.387-0.809-2.485-1.908-3.295-3.294C0.404,12.211,0,10.696,0,9.053c0-1.642,0.404-3.157,1.214-4.544
			c0.81-1.387,1.908-2.485,3.295-3.295C5.896,0.405,7.411,0,9.053,0s3.157,0.405,4.545,1.214
			C14.985,2.024,16.083,3.122,16.893,4.509z M15.997,11.983c0.4-0.931,0.601-1.908,0.601-2.93c0-1.021-0.2-1.998-0.601-2.929
			c-0.401-0.931-0.938-1.733-1.609-2.405c-0.672-0.672-1.474-1.208-2.405-1.609c-0.932-0.401-1.907-0.602-2.93-0.602
			c-1.021,0-1.998,0.2-2.929,0.602C5.192,2.511,4.391,3.047,3.719,3.719C3.047,4.391,2.511,5.193,2.11,6.124
			C1.709,7.055,1.509,8.032,1.509,9.053c0,1.021,0.2,1.999,0.601,2.93c0.4,0.931,0.937,1.733,1.609,2.405
			c0.672,0.672,1.473,1.208,2.405,1.609c0.931,0.401,1.908,0.602,2.929,0.602c1.022,0,1.998-0.201,2.93-0.602
			c0.931-0.401,1.733-0.937,2.405-1.609C15.06,13.716,15.596,12.914,15.997,11.983z M7.103,4.969
			c0.294,0.295,0.442,0.65,0.442,1.067S7.397,6.808,7.103,7.103C6.808,7.397,6.452,7.545,6.035,7.545
			c-0.416,0-0.771-0.147-1.066-0.442s-0.441-0.65-0.441-1.067s0.146-0.772,0.441-1.067C5.264,4.674,5.62,4.527,6.035,4.527
			C6.452,4.527,6.808,4.674,7.103,4.969z M13.368,11.164c-0.291,0.951-0.833,1.717-1.627,2.299
			c-0.794,0.582-1.689,0.872-2.688,0.872s-1.894-0.291-2.688-0.872c-0.793-0.582-1.336-1.348-1.626-2.299
			c-0.063-0.196-0.046-0.387,0.047-0.572s0.243-0.309,0.448-0.372c0.197-0.063,0.387-0.047,0.572,0.047
			c0.185,0.095,0.309,0.244,0.372,0.448c0.196,0.629,0.559,1.138,1.09,1.527c0.53,0.389,1.125,0.584,1.786,0.584
			s1.255-0.195,1.787-0.584c0.53-0.389,0.893-0.897,1.09-1.527c0.063-0.204,0.188-0.353,0.376-0.448
			c0.189-0.094,0.382-0.11,0.578-0.047c0.197,0.063,0.342,0.187,0.437,0.372C13.416,10.776,13.431,10.967,13.368,11.164z
			 M13.138,4.969c0.295,0.295,0.442,0.65,0.442,1.067s-0.147,0.772-0.442,1.067c-0.295,0.295-0.65,0.442-1.067,0.442
			c-0.417,0-0.772-0.147-1.066-0.442c-0.295-0.295-0.442-0.65-0.442-1.067s0.147-0.772,0.442-1.067
			c0.294-0.294,0.65-0.442,1.066-0.442C12.488,4.527,12.843,4.674,13.138,4.969z"/>
	</g>
</g>
</svg>
