<?xml version="1.0" encoding="utf-8"?>
<!-- Generator: Adobe Illustrator 19.0.0, SVG Export Plug-In . SVG Version: 6.00 Build 0)  -->
<svg version="1.1" id="Layer_1" xmlns="http://www.w3.org/2000/svg" xmlns:xlink="http://www.w3.org/1999/xlink" x="0px" y="0px"
	 viewBox="-361.9 321.9 150 150" style="enable-background:new -361.9 321.9 150 150;" xml:space="preserve">
<style type="text/css">
	.st0{fill:#818282;}
</style>
<path class="st0" d="M-214.3,384.6l-32.7,33.5l7.8,47.3c0.1,0.7,0.1,1.2,0.1,1.9c0,2.5-1.1,4.7-3.7,4.7c-1.3,0-2.5-0.5-3.6-1.1
	l-40.5-22.3l-40.5,22.3c-1.2,0.7-2.3,1.1-3.6,1.1c-2.6,0-3.8-2.3-3.8-4.7c0-0.7,0.1-1.2,0.2-1.9l7.7-47.3l-32.8-33.5
	c-1.1-1.2-2.3-2.8-2.3-4.5c0-2.8,2.8-4,5-4.3l45.3-6.9l20.3-43c0.8-1.8,2.3-3.9,4.4-3.9s3.6,2.1,4.4,3.9l20.3,43l45.3,6.9
	c2.2,0.4,5,1.5,5,4.3C-211.9,381.8-213.1,383.4-214.3,384.6"/>
</svg>
