<?xml version="1.0" encoding="utf-8"?>
<!-- Generator: Adobe Illustrator 19.0.0, SVG Export Plug-In . SVG Version: 6.00 Build 0)  -->
<svg version="1.1" id="Layer_1" xmlns="http://www.w3.org/2000/svg" xmlns:xlink="http://www.w3.org/1999/xlink" x="0px" y="0px"
	 viewBox="-361.9 322.1 150 150" style="enable-background:new -361.9 322.1 150 150;" xml:space="preserve">
<style type="text/css">
	.st0{fill:#818282;}
</style>
<g>
	<path class="st0" d="M-324.5,378.3c5.2,0,9.4-4.2,9.4-9.4c0-5.2-4.2-9.4-9.4-9.4c-5.2,0-9.3,4.2-9.4,9.4
		C-333.8,374.1-329.6,378.3-324.5,378.3z"/>
	<path class="st0" d="M-291.8,368.9c7.8,0,14.1-6.3,14.1-14.1c0-7.8-6.3-14.1-14.1-14.1c-7.8,0-14.1,6.3-14.1,14.1
		C-305.9,362.6-299.6,368.9-291.8,368.9z"/>
	<path class="st0" d="M-268.1,387.7c5.2,0,9.4-4.2,9.4-9.4c0-5.2-4.2-9.4-9.4-9.4c-5.2,0-9.3,4.2-9.4,9.4
		C-277.4,383.5-273.2,387.7-268.1,387.7z"/>
	<circle class="st0" cx="-301.1" cy="383.1" r="4.6"/>
	<circle class="st0" cx="-319.9" cy="336" r="4.6"/>
	<path class="st0" d="M-230.6,397.2c0,0-0.1,0-0.3,0v9.2h0c0,0.1,0,0.1,0,0.2c0,5.6-2.4,10.5-6.2,13.8c-0.8,0.7-1.7,1.4-2.6,2
		c0,0,0,0-0.1,0c-0.9,0.6-1.8,1-2.8,1.4c-0.3,0.1-0.6,0.2-0.9,0.3c-0.8,0.3-1.6,0.5-2.4,0.7c-1.2,0.2-2.3,0.4-3.6,0.4
		c-1.6,0-3.1-0.2-4.6-0.6c-0.4-0.1-0.7-0.2-1.1-0.3c-1.2-0.4-2.4-0.9-3.5-1.5c-0.2-0.1-0.4-0.2-0.6-0.3c-2.7-1.6-4.9-3.9-6.5-6.7
		l0,0c-1.6-2.8-2.5-5.9-2.5-9.4v-9.2h-75.1c-10.6,0-18.8,8.2-18.8,18.7c0,10.4,8.2,18.5,18.6,18.5c0.1,0,0.1,0,0.2,0
		c0,0,0,0.1,0,0.1c0,10.4,8.2,18.5,18.6,18.5c0.1,0,0.1,0,0.2,0v0h0c0,0.1,0,0.1,0,0.2c0,5.2,4.2,9.5,9.5,9.5c5.2,0,9.5-4.2,9.5-9.5
		c0-0.1,0-0.1,0-0.2h37.6c0,0.1-0.1,0.2-0.1,0.4c0,5.1,4.2,9.3,9.3,9.3c5.1,0,9.3-4.2,9.3-9.3c0-0.1-0.1-0.2-0.1-0.4h0.2l0,0
		c10.3,0,18.6-8.3,18.7-18.6h0.1c10.4,0,18.7-8.3,18.7-18.7C-212,405.4-220.1,397.2-230.6,397.2z"/>
</g>
</svg>
