<?xml version="1.0" encoding="utf-8"?>
<!-- Generator: Adobe Illustrator 19.0.0, SVG Export Plug-In . SVG Version: 6.00 Build 0)  -->
<svg version="1.1" id="Layer_1" xmlns="http://www.w3.org/2000/svg" xmlns:xlink="http://www.w3.org/1999/xlink" x="0px" y="0px"
	 viewBox="-361.9 321.9 150 150" style="enable-background:new -361.9 321.9 150 150;" xml:space="preserve">
<style type="text/css">
	.st0{fill:#818282;}
</style>
<path class="st0" d="M-296.6,327.9c-3.8-3.8-9-5.9-14.3-5.9h-30.6c-11.2,0-20.3,9.1-20.3,20.2v30.7c0,5.4,2.1,10.5,5.9,14.3
	l78.6,78.8c7.9,7.9,20.8,7.9,28.7,0l30.7-30.9c7.9-7.9,7.9-20.7,0-28.6L-296.6,327.9z M-332.5,361.3c-5.4,0-9.8-4.4-9.8-9.8
	c0-5.4,4.4-9.8,9.8-9.8s9.8,4.4,9.8,9.8S-327,361.3-332.5,361.3z"/>
</svg>
