<?xml version="1.0" encoding="utf-8"?>
<!-- Generator: Adobe Illustrator 19.0.0, SVG Export Plug-In . SVG Version: 6.00 Build 0)  -->
<svg version="1.1" id="Layer_1" xmlns="http://www.w3.org/2000/svg" xmlns:xlink="http://www.w3.org/1999/xlink" x="0px" y="0px"
	 viewBox="231.1 322.5 150 150" style="enable-background:new 231.1 322.5 150 150;" xml:space="preserve">
<style type="text/css">
	.st0{fill:#00A1C1;}
</style>
<path id="XMLID_2677_" class="st0" d="M344.3,403.6l-37.7,65.6c-2.2,3.2-5.4,4.3-8.6,2.2l-52.7-30.1c-3.2-2.2-4.3-5.4-2.2-8.6
	l37.7-65.6l31.2-19.4l15.1,8.6c1.1-3.2,1.1-3.2,1.1-5.4c1.1-6.5,3.2-17.2,15.1-25.8c4.3-3.2,10.8-3.2,16.1-1.1
	c3.2,1.1,5.4,3.2,7.5,6.5c2.2,3.2,3.2,6.5,3.2,8.6c0,3.2-2.2,8.6-9.7,12.9c-6.5,3.2-11.8,3.2-17.2,4.3c-4.3,1.1-7.5,1.1-10.8,3.2
	l14,8.6L344.3,403.6z M329.3,384.2c3.2-5.4,2.2-11.8-1.1-16.1l-6.5-4.3c-5.4-2.2-12.9,1.1-16.1,6.5c-3.2,6.5-1.1,15.1,5.4,19.4
	C317.4,392.8,326,390.7,329.3,384.2z M331.4,350.8c0,1.1,0,1.1,0,2.2c0,1.1,0,1.1,0,3.2c3.2-2.2,7.5-2.2,11.8-3.2
	c4.3-1.1,9.7-1.1,16.1-4.3c5.4-2.2,8.6-5.4,8.6-9.7c0-4.3-3.2-9.7-8.6-11.8c0,0-1.1,0-1.1-1.1c-4.3-2.2-9.7-2.2-12.9,0
	C333.6,334.7,332.5,344.4,331.4,350.8z"/>
</svg>
