<?xml version="1.0" encoding="utf-8"?>
<!-- Generator: Adobe Illustrator 19.0.0, SVG Export Plug-In . SVG Version: 6.00 Build 0)  -->
<svg version="1.1" id="Layer_1" xmlns="http://www.w3.org/2000/svg" xmlns:xlink="http://www.w3.org/1999/xlink" x="0px" y="0px"
	 viewBox="234.6 321.8 150 150" style="enable-background:new 234.6 321.8 150 150;" xml:space="preserve">
<style type="text/css">
	.st0{fill:#00A1C1;}
</style>
<path id="XMLID_507_" class="st0" d="M314.3,321.8L242,394.2c-9.6,9.6-9.6,24.5,0,34l36.2,36.2c4.3,4.3,10.6,7.4,17,7.4
	c6.4,0,11.7-2.1,17-7.4l72.3-72.3v-70.2H314.3z M299.4,451.6c-2.1,2.1-3.2,2.1-4.3,2.1s-3.2,0-4.3-2.1l-36.2-36.2
	c-2.1-2.1-2.1-3.2-2.1-4.3c0-1.1,0-3.2,2.1-4.3l67-67h45.7v45.7l0,0L299.4,451.6z M338.8,353.7c6.4,0,12.8,5.3,12.8,12.8
	c0,7.4-5.3,12.8-12.8,12.8c-7.4,0-12.8-5.3-12.8-12.8C326,359,332.4,353.7,338.8,353.7z"/>
</svg>
