<?xml version="1.0" encoding="utf-8"?>
<!-- Generator: Adobe Illustrator 16.0.0, SVG Export Plug-In . SVG Version: 6.00 Build 0)  -->
<!DOCTYPE svg PUBLIC "-//W3C//DTD SVG 1.1//EN" "http://www.w3.org/Graphics/SVG/1.1/DTD/svg11.dtd">
<svg version="1.1" id="Layer_1" xmlns="http://www.w3.org/2000/svg" xmlns:xlink="http://www.w3.org/1999/xlink" x="0px" y="0px"
	 width="615.278px" height="616.371px" viewBox="-1.639 97 615.278 616.371" enable-background="new -1.639 97 615.278 616.371"
	 xml:space="preserve">
<path id="XMLID_507_" fill="#00A1C1" d="M325.125,97L27.868,394.256c-39.343,39.344-39.343,100.543,0,139.887l148.628,148.629
	c17.485,17.484,43.715,30.6,69.943,30.6s48.086-8.744,69.943-30.6l297.256-297.258V97H325.125z M263.925,630.314
	c-8.743,8.744-13.113,8.744-17.485,8.744s-13.113,0-17.485-8.744L80.326,481.686c-8.744-8.742-8.744-13.113-8.744-17.484
	c0-4.373,0-13.115,8.744-17.486l275.398-275.398h187.971v187.971l0,0L263.925,630.314z M425.666,228.143
	c26.229,0,52.459,21.857,52.459,52.457c0,30.602-21.857,52.459-52.459,52.459c-30.6,0-52.457-21.857-52.457-52.459
	C373.209,250,399.439,228.143,425.666,228.143z"/>
</svg>
