<?xml version="1.0" encoding="utf-8"?>
<!-- Generator: Adobe Illustrator 19.0.0, SVG Export Plug-In . SVG Version: 6.00 Build 0)  -->
<svg version="1.1" id="Layer_1" xmlns="http://www.w3.org/2000/svg" xmlns:xlink="http://www.w3.org/1999/xlink" x="0px" y="0px"
	 viewBox="-363.9 321.9 150 150" style="enable-background:new -363.9 321.9 150 150;" xml:space="preserve">
<style type="text/css">
	.st0{fill:#818282;}
</style>
<g>
	<path class="st0" d="M-363.6,342.6c0-11.6,9.1-20.8,20.7-20.8c11.7,0,21,9.3,20.9,21c0,11.6-9.1,20.7-20.7,20.8
		C-354.4,363.7-363.6,354.4-363.6,342.6"/>
	<path class="st0" d="M-309.7,342.6c0-11.6,9.1-20.8,20.7-20.8c11.7,0,21,9.3,20.9,21c0,11.6-9.1,20.7-20.7,20.8
		C-300.6,363.7-309.7,354.4-309.7,342.6"/>
	<path class="st0" d="M-255.9,342.6c0-11.6,9.1-20.8,20.7-20.8c11.7,0,21,9.3,20.9,21c0,11.6-9.1,20.7-20.7,20.8
		C-246.7,363.7-255.9,354.4-255.9,342.6"/>
	<path class="st0" d="M-363.6,396.7c0-11.6,9.1-20.8,20.7-20.8c11.7,0,21,9.3,20.9,21c0,11.6-9.1,20.7-20.7,20.8
		C-354.4,417.7-363.6,408.5-363.6,396.7"/>
	<path class="st0" d="M-309.7,396.7c0-11.6,9.1-20.8,20.7-20.8c11.7,0,21,9.3,20.9,21c0,11.6-9.1,20.7-20.7,20.8
		C-300.6,417.7-309.7,408.5-309.7,396.7"/>
	<path class="st0" d="M-255.9,396.7c0-11.6,9.1-20.8,20.7-20.8c11.7,0,21,9.3,20.9,21c0,11.6-9.1,20.7-20.7,20.8
		C-246.7,417.7-255.9,408.5-255.9,396.7"/>
	<path class="st0" d="M-363.6,450.9c0-11.6,9.1-20.8,20.7-20.8c11.7,0,21,9.3,20.9,21c0,11.6-9.1,20.7-20.7,20.8
		C-354.4,471.9-363.6,462.7-363.6,450.9"/>
	<path class="st0" d="M-309.7,450.9c0-11.6,9.1-20.8,20.7-20.8c11.7,0,21,9.3,20.9,21c0,11.6-9.1,20.7-20.7,20.8
		C-300.6,471.9-309.7,462.7-309.7,450.9"/>
	<path class="st0" d="M-255.9,450.9c0-11.6,9.1-20.8,20.7-20.8c11.7,0,21,9.3,20.9,21c0,11.6-9.1,20.7-20.7,20.8
		C-246.7,471.9-255.9,462.7-255.9,450.9"/>
</g>
</svg>
