<?xml version="1.0" encoding="utf-8"?>
<!-- Generator: Adobe Illustrator 16.0.0, SVG Export Plug-In . SVG Version: 6.00 Build 0)  -->
<!DOCTYPE svg PUBLIC "-//W3C//DTD SVG 1.1//EN" "http://www.w3.org/Graphics/SVG/1.1/DTD/svg11.dtd">
<svg version="1.1" id="Layer_1" xmlns="http://www.w3.org/2000/svg" xmlns:xlink="http://www.w3.org/1999/xlink" x="0px" y="0px"
	 width="215.469px" height="791.998px" viewBox="198.266 0.001 215.469 791.998"
	 enable-background="new 198.266 0.001 215.469 791.998" xml:space="preserve">
<g id="XMLID_3363_">
	<path id="XMLID_3574_" fill="#00A1C1" d="M413.734,163.06c0,29.117-23.293,52.41-52.412,52.41H250.676
		c-29.117,0-52.41-23.293-52.41-52.41V52.413c0-29.119,23.293-52.412,52.41-52.412h110.646c29.119,0,52.412,23.293,52.412,52.412
		V163.06z M413.734,454.235c0,29.117-23.293,52.412-52.412,52.412H250.676c-29.117,0-52.41-23.295-52.41-52.412V343.589
		c0-29.117,23.293-52.412,52.41-52.412h110.646c29.119,0,52.412,23.295,52.412,52.412V454.235z M413.734,739.589
		c0,29.117-23.293,52.41-52.412,52.41H250.676c-29.117,0-52.41-23.293-52.41-52.41V628.942c0-29.119,23.293-52.412,52.41-52.412
		h110.646c29.119,0,52.412,23.293,52.412,52.412V739.589z"/>
</g>
</svg>
