<?xml version="1.0" encoding="utf-8"?>
<!-- Generator: Adobe Illustrator 19.0.0, SVG Export Plug-In . SVG Version: 6.00 Build 0)  -->
<svg version="1.1" id="Layer_1" xmlns="http://www.w3.org/2000/svg" xmlns:xlink="http://www.w3.org/1999/xlink" x="0px" y="0px"
	 viewBox="-230 322 150 150" style="enable-background:new -230 322 150 150;" xml:space="preserve">
<style type="text/css">
	.st0{fill:#818282;}
</style>
<path class="st0" d="M-98.4,419.4l-24.3,5.5l3.2,11.4c1,2.1,1.7,4.3,1.9,6.7l0.1,0.3l0,0c0,0.5,0.1,0.9,0.1,1.4
	c0,10.4-8.4,19-18.7,19c-5.4,0-10.3-2.4-13.7-6.1l0,0l-39.4-39.2l-22.4-2.2c-10.1,0-18.3-8.3-18.3-18.6v-39
	c0-10.3,8.2-18.6,18.3-18.6h17.2c1.2,0,2.4-0.1,3.6-0.4l80.1-8.8c10-2.1,19.7,4.5,21.6,14.6l8.8,51.8
	C-78.2,408.7-86.5,416.2-98.4,419.4 M-192.7,360.2c0-5.4-4.3-9.8-9.7-9.8h-9.7c-5.4,0-9.7,4.4-9.7,9.8v36.4c0,5.4,4.3,9.8,9.7,9.8
	h9.7c5.4,0,9.7-4.4,9.7-9.8V360.2z"/>
</svg>
