<?xml version="1.0" encoding="utf-8"?>
<!-- Generator: Adobe Illustrator 16.0.0, SVG Export Plug-In . SVG Version: 6.00 Build 0)  -->
<!DOCTYPE svg PUBLIC "-//W3C//DTD SVG 1.1//EN" "http://www.w3.org/Graphics/SVG/1.1/DTD/svg11.dtd">
<svg version="1.1" id="Layer_1" xmlns="http://www.w3.org/2000/svg" xmlns:xlink="http://www.w3.org/1999/xlink" x="0px" y="0px"
	 width="18.065px" height="16.039px" viewBox="0 0 18.065 16.039" enable-background="new 0 0 18.065 16.039" xml:space="preserve">
<path fill="#818282" d="M15.854,10.697l-2.926,0.668l0.383,1.374c0.123,0.249,0.2,0.521,0.225,0.81l0.009,0.032l-0.005,0.001
	c0.004,0.058,0.017,0.113,0.017,0.171c0,1.257-1.015,2.286-2.256,2.286c-0.651,0-1.235-0.288-1.648-0.738L9.65,15.303l-4.749-4.724
	l-2.692-0.264C0.99,10.315,0,9.314,0,8.078V3.383c0-1.236,0.99-2.237,2.209-2.237h2.07c0.146,0,0.295-0.015,0.438-0.045l9.635-1.056
	c1.199-0.247,2.367,0.54,2.606,1.755l1.061,6.223C18.293,9.406,17.286,10.315,15.854,10.697 M4.515,3.576
	c0-0.652-0.522-1.181-1.167-1.181H2.182c-0.645,0-1.167,0.529-1.167,1.181v4.389c0,0.652,0.522,1.181,1.167,1.181h1.166
	c0.645,0,1.167-0.529,1.167-1.181V3.576z"/>
</svg>
