<?xml version="1.0" encoding="utf-8"?>
<!-- Generator: Adobe Illustrator 19.0.0, SVG Export Plug-In . SVG Version: 6.00 Build 0)  -->
<svg version="1.1" id="Layer_1" xmlns="http://www.w3.org/2000/svg" xmlns:xlink="http://www.w3.org/1999/xlink" x="0px" y="0px"
	 viewBox="-230 322 150 150" style="enable-background:new -230 322 150 150;" xml:space="preserve">
<style type="text/css">
	.st0{fill:#00A1C1;}
</style>
<g>
	<path class="st0" d="M-223.5,403.9c0-5.3,1.1-10.6,4.3-14.9c-1.1-2.1-1.1-4.3-1.1-6.4c0-4.3,1.1-8.5,3.2-12.8c0-1.1,0-2.1,0-4.3
		c0-6.4,2.1-11.7,5.3-16c0-8.5,2.1-14.9,7.4-20.2c5.3-5.3,11.7-7.4,20.2-7.4h3.2h8.5c5.3,0,11.7,1.1,17,2.1
		c5.3,1.1,11.7,3.2,19.1,6.4c7.4,2.1,10.6,3.2,12.8,3.2h25.5c3.2,0,6.4,1.1,8.5,3.2c2.1,2.1,3.2,5.3,3.2,8.5v57.6
		c0,3.2-1.1,6.4-3.2,8.5c-2.1,2.1-5.3,3.2-8.5,3.2h-24.5c-2.1,1.1-6.4,6.4-12.8,13.8c-3.2,4.3-6.4,8.5-9.6,11.7
		c-1.1,1.1-2.1,4.3-3.2,7.4c-1.1,3.2-1.1,7.4-3.2,11.7c-1.1,4.3-3.2,7.4-5.3,9.6c-2.1,2.1-5.3,3.2-8.5,3.2c-5.3,0-9.6-1.1-13.8-3.2
		c-4.3-2.1-7.4-5.3-9.6-9.6c-2.1-4.3-3.2-9.6-3.2-17c0-5.3,1.1-11.7,4.3-17h-16c-6.4,0-11.7-2.1-16-6.4
		C-221.3,415.6-223.5,410.3-223.5,403.9z M-211.8,403.9c0,3.2,1.1,5.3,3.2,8.5c2.1,2.1,5.3,3.2,8.5,3.2h31.9c0,3.2-1.1,8.5-4.3,13.8
		c-3.2,6.4-4.3,10.6-4.3,14.9c0,6.4,1.1,10.6,3.2,12.8c2.1,3.2,5.3,4.3,11.7,4.3c1.1-1.1,3.2-4.3,3.2-7.4c1.1-3.2,2.1-7.4,3.2-11.7
		c1.1-4.3,3.2-7.4,5.3-9.6c1.1-1.1,3.2-4.3,6.4-8.5c0,0,1.1-1.1,2.1-3.2c1.1-1.1,2.1-3.2,3.2-3.2c1.1-1.1,2.1-2.1,3.2-4.3
		c1.1-1.1,2.1-3.2,3.2-4.3c1.1-1.1,2.1-2.1,3.2-3.2c1.1-1.1,2.1-2.1,3.2-2.1s2.1-1.1,3.2-1.1h3.2v-57.4h-3.2c-1.1,0-2.1,0-3.2,0
		s-2.1,0-3.2-1.1c-1.1,0-2.1-1.1-3.2-1.1s-2.1-1.1-3.2-1.1s-2.1-1.1-3.2-1.1s-2.1-1.1-2.1-1.1c-12.8-4.3-22.3-6.4-30.9-6.4h-10.6
		c-11.7,0-17,5.3-17,14.9c0,1.1,0,3.2,0,5.3c-2.1,1.1-3.2,2.1-4.3,4.3c-1.1,2.2-1.1,4.3-1.1,6.4c0,2.1,1.1,4.3,2.1,6.4
		c-3.2,3.2-4.3,6.4-4.3,10.6c0,1.1,0,3.2,1.1,5.3c1.1,2.1,1.1,3.2,2.1,4.3c-2.1,0-3.2,1.1-5.3,4.3
		C-210.7,399.7-211.8,401.8-211.8,403.9z M-106.7,348.8c-1.1,1.1-2.1,2.1-2.1,4.3c0,1.1,1.1,3.2,2.1,4.3c1.1,1.1,2.1,2.1,4.3,2.1
		c1.1,0,3.2-1.1,4.3-2.1c1.1-1.1,2.1-2.1,2.1-4.3c0-1.1-1.1-3.2-2.1-4.3c-1.1-1.1-2.1-2.1-4.3-2.1
		C-104.5,346.7-105.6,347.7-106.7,348.8z"/>
</g>
</svg>
