<?xml version="1.0" encoding="utf-8"?>
<!-- Generator: Adobe Illustrator 19.0.0, SVG Export Plug-In . SVG Version: 6.00 Build 0)  -->
<svg version="1.1" id="Layer_1" xmlns="http://www.w3.org/2000/svg" xmlns:xlink="http://www.w3.org/1999/xlink" x="0px" y="0px"
	 viewBox="227.6 322.1 150 150" style="enable-background:new 227.6 322.1 150 150;" xml:space="preserve">
<style type="text/css">
	.st0{fill:#00A1C1;}
</style>
<g>
	<path class="st0" d="M371.3,390.2c0,5.3-1.1,10.6-4.3,14.9c1.1,2.1,1.1,4.3,1.1,6.4c0,4.3-1.1,8.5-3.2,12.8c0,1.1,0,2.1,0,4.3
		c0,6.4-2.1,11.7-5.3,16c0,8.5-2.1,14.9-7.4,20.2c-5.3,5.3-11.7,7.4-20.2,7.4h-3.2h-8.5c-5.3,0-11.7-1.1-17-2.1
		c-5.3-1.1-11.7-3.2-19.1-6.4c-7.4-2.1-10.6-3.2-12.8-3.2h-25.5c-3.2,0-6.4-1.1-8.5-3.2c-2.1-2.1-3.2-5.3-3.2-8.5v-57.4
		c0-3.2,1.1-6.4,3.2-8.5c2.1-2.1,5.3-3.2,8.5-3.2h24.5c2.1-1.1,6.4-6.4,12.8-13.8c3.2-4.3,6.4-8.5,9.6-11.7c1.1-1.1,2.1-4.3,3.2-7.4
		c1.1-3.2,2.1-7.4,3.2-11.7c1.1-4.3,3.2-7.4,5.3-9.6c2.1-2.1,5.3-3.2,8.5-3.2c5.3,0,9.6,1.1,13.8,3.2c4.3,2.1,7.4,5.3,9.6,9.6
		c2.1,4.3,3.2,9.6,3.2,17c0,5.3-1.1,11.7-4.3,17h16c6.4,0,11.7,2.1,16,6.4C369.1,379.6,371.3,384.9,371.3,390.2z M254.2,446.6
		c1.1-1.1,2.1-2.1,2.1-4.3c0-1.1-1.1-3.2-2.1-4.3c-1.1-1.1-2.1-2.1-4.3-2.1c-1.1,0-3.2,1.1-4.3,2.1c-1.1,1.1-2.1,2.1-2.1,4.3
		c0,1.1,1.1,3.2,2.1,4.3c1.1,1.1,2.1,2.1,4.3,2.1C252.1,448.7,253.2,447.6,254.2,446.6z M359.6,391.3c0-3.2-1.1-5.3-3.2-8.5
		c-2.1-2.1-5.3-3.2-8.5-3.2h-31.9c0-3.2,1.1-8.5,4.3-13.8c3.2-6.4,4.3-10.6,4.3-14.9c0-6.4-1.1-10.6-3.2-12.8
		c-2.1-3.2-5.3-4.3-11.7-4.3c-1.1,1.1-3.2,4.3-3.2,7.4c-1.1,3.2-2.1,7.4-3.2,11.7c-1.1,4.3-3.2,7.4-5.3,9.6
		c-1.1,1.1-3.2,4.3-6.4,8.5c0,0-1.1,1.1-2.1,3.2c-1.1,2.1-2.1,3.2-3.2,3.2c-1.1,1.1-2.1,2.1-3.2,4.3c-1.1,1.1-2.1,3.2-3.2,4.3
		c-1.1,1.1-2.1,2.1-3.2,3.2c-1.1,1.1-2.1,2.1-3.2,2.1c-1.1,1.1-2.1,1.1-3.2,1.1H267v57.4h3.2c1.1,0,2.1,0,3.2,0c1.1,0,2.1,0,3.2,1.1
		c1.1,0,2.1,1.1,3.2,1.1c1.1,0,2.1,1.1,3.2,1.1c1.1,0,2.1,1.1,3.2,1.1c1.1,0,2.1,1.1,2.1,1.1c12.8,4.3,22.3,6.4,30.9,6.4h10.6
		c11.7,0,17-5.3,17-14.9c0-1.1,0-3.2,0-5.3c2.1-1.1,3.2-2.1,4.3-4.3c1.1-2.1,1.1-4.3,1.1-6.4s0-4.3-2.1-6.4
		c3.2-3.2,4.3-6.4,4.3-10.6c0-1.1,0-3.2-1.1-5.3c-1.1-2.1-1.1-3.2-2.1-4.3c2.1,0,3.2-1.1,5.3-4.3
		C358.5,395.5,359.6,392.3,359.6,391.3z"/>
</g>
</svg>
