<?xml version="1.0" encoding="utf-8"?>
<!-- Generator: Adobe Illustrator 16.0.0, SVG Export Plug-In . SVG Version: 6.00 Build 0)  -->
<!DOCTYPE svg PUBLIC "-//W3C//DTD SVG 1.1//EN" "http://www.w3.org/Graphics/SVG/1.1/DTD/svg11.dtd">
<svg version="1.1" id="Layer_1" xmlns="http://www.w3.org/2000/svg" xmlns:xlink="http://www.w3.org/1999/xlink" x="0px" y="0px"
	 width="18.182px" height="18.18px" viewBox="0 0 18.182 18.18" enable-background="new 0 0 18.182 18.18" xml:space="preserve">
<g>
	<path d="M18.052,14.55c0,0.405-0.143,0.746-0.422,1.027l-2.053,2.053c-0.281,0.279-0.625,0.42-1.025,0.42
		c-0.402,0-0.745-0.141-1.027-0.42L9.09,13.195L4.655,17.63c-0.281,0.279-0.623,0.42-1.025,0.42c-0.403,0-0.744-0.141-1.025-0.42
		l-2.052-2.053C0.271,15.296,0.13,14.955,0.13,14.55c0-0.4,0.141-0.743,0.422-1.025L4.988,9.09L0.552,4.655
		C0.271,4.374,0.13,4.032,0.13,3.63c0-0.403,0.141-0.744,0.422-1.025l2.052-2.052C2.886,0.271,3.227,0.13,3.63,0.13
		c0.402,0,0.744,0.141,1.025,0.422L9.09,4.988l4.435-4.435c0.282-0.282,0.625-0.422,1.027-0.422c0.4,0,0.744,0.141,1.025,0.422
		l2.053,2.052c0.279,0.282,0.422,0.623,0.422,1.025c0,0.402-0.143,0.744-0.422,1.025L13.195,9.09l4.436,4.435
		C17.909,13.807,18.052,14.15,18.052,14.55z"/>
</g>
</svg>
