<?xml version="1.0" encoding="utf-8"?>
<!-- Generator: Adobe Illustrator 19.0.0, SVG Export Plug-In . SVG Version: 6.00 Build 0)  -->
<svg version="1.1" id="Layer_1" xmlns="http://www.w3.org/2000/svg" xmlns:xlink="http://www.w3.org/1999/xlink" x="0px" y="0px"
	 viewBox="-361.9 321.9 150 150" style="enable-background:new -361.9 321.9 150 150;" xml:space="preserve">
<g>
	<path d="M-211.9,442.6c0,3.4-1.2,6.2-3.5,8.6l-17.2,17.2c-2.4,2.3-5.2,3.5-8.6,3.5c-3.4,0-6.2-1.2-8.6-3.5l-37.1-37.1l-37.1,37.1
		c-2.4,2.3-5.2,3.5-8.6,3.5c-3.4,0-6.2-1.2-8.6-3.5l-17.2-17.2c-2.4-2.4-3.5-5.2-3.5-8.6c0-3.3,1.2-6.2,3.5-8.6l37.1-37.1
		l-37.1-37.1c-2.4-2.4-3.5-5.2-3.5-8.6c0-3.4,1.2-6.2,3.5-8.6l17.2-17.2c2.4-2.4,5.2-3.5,8.6-3.5c3.4,0,6.2,1.2,8.6,3.5l37.1,37.1
		l37.1-37.1c2.4-2.4,5.2-3.5,8.6-3.5c3.3,0,6.2,1.2,8.6,3.5l17.2,17.2c2.3,2.4,3.5,5.2,3.5,8.6c0,3.4-1.2,6.2-3.5,8.6l-37.1,37.1
		l37.1,37.1C-213.1,436.4-211.9,439.3-211.9,442.6z"/>
</g>
</svg>
