<?xml version="1.0" encoding="utf-8"?>
<!-- Generator: Adobe Illustrator 19.0.0, SVG Export Plug-In . SVG Version: 6.00 Build 0)  -->
<svg version="1.1" id="Camada_1" xmlns="http://www.w3.org/2000/svg" xmlns:xlink="http://www.w3.org/1999/xlink" x="0px" y="0px"
	 viewBox="-363.7 321.9 150 150" style="enable-background:new -363.7 321.9 150 150;" xml:space="preserve">
<g id="XMLID_1_">
	<path id="XMLID_43_" d="M-219.9,350.1v6.3c0,0.9-0.3,1.7-0.9,2.2c-0.6,0.6-1.3,0.9-2.3,0.9h-9.4V452c0,5.4-1.5,10.1-4.6,14
		c-3.1,3.9-6.7,5.9-11,5.9h-81.2c-4.3,0-8-1.9-11-5.7c-3.1-3.8-4.6-8.4-4.6-13.8v-93h-9.4c-0.9,0-1.7-0.3-2.2-0.9
		c-0.6-0.6-0.9-1.3-0.9-2.3v-6.3c0-0.9,0.3-1.7,0.9-2.2c0.6-0.6,1.3-0.9,2.2-0.9h30.2l6.8-16.3c1-2.4,2.7-4.5,5.3-6.2
		c2.5-1.7,5.1-2.5,7.7-2.5h31.3c2.6,0,5.2,0.9,7.7,2.5c2.5,1.7,4.3,3.7,5.3,6.2l6.8,16.3h30.2c0.9,0,1.7,0.3,2.3,0.9
		C-220.2,348.4-219.9,349.1-219.9,350.1z M-307.4,443.8v-68.8c0-0.9-0.3-1.7-0.9-2.2c-0.6-0.6-1.3-0.9-2.2-0.9h-6.2
		c-0.9,0-1.7,0.3-2.3,0.9c-0.6,0.6-0.9,1.3-0.9,2.2v68.8c0,0.9,0.3,1.7,0.9,2.2c0.6,0.6,1.3,0.9,2.3,0.9h6.2c0.9,0,1.7-0.3,2.3-0.9
		C-307.7,445.5-307.4,444.7-307.4,443.8z M-310.6,346.9h43.8l-4.7-11.4c-0.5-0.6-1-0.9-1.7-1.1h-31c-0.7,0.1-1.2,0.5-1.7,1.1
		L-310.6,346.9z M-282.4,443.8v-68.8c0-0.9-0.3-1.7-0.9-2.2c-0.6-0.6-1.3-0.9-2.3-0.9h-6.2c-0.9,0-1.7,0.3-2.3,0.9
		c-0.6,0.6-0.9,1.3-0.9,2.2v68.8c0,0.9,0.3,1.7,0.9,2.2c0.6,0.6,1.3,0.9,2.3,0.9h6.2c0.9,0,1.7-0.3,2.3-0.9
		C-282.7,445.5-282.4,444.7-282.4,443.8z M-257.4,443.8v-68.8c0-0.9-0.3-1.7-0.9-2.2c-0.6-0.6-1.3-0.9-2.3-0.9h-6.2
		c-0.9,0-1.7,0.3-2.2,0.9c-0.6,0.6-0.9,1.3-0.9,2.2v68.8c0,0.9,0.3,1.7,0.9,2.2c0.6,0.6,1.3,0.9,2.2,0.9h6.2c0.9,0,1.7-0.3,2.3-0.9
		C-257.7,445.5-257.4,444.7-257.4,443.8z"/>
</g>
</svg>
