<?xml version="1.0" encoding="utf-8"?>
<!-- Generator: Adobe Illustrator 19.0.0, SVG Export Plug-In . SVG Version: 6.00 Build 0)  -->
<svg version="1.1" id="Camada_1" xmlns="http://www.w3.org/2000/svg" xmlns:xlink="http://www.w3.org/1999/xlink" x="0px" y="0px"
	 viewBox="-361.9 322.1 150 150" style="enable-background:new -361.9 322.1 150 150;" xml:space="preserve">
<g id="XMLID_20_">
	<path id="XMLID_41_" d="M-248.7,435.6v-0.5c-11.1-1.3-19.8-10.6-19.8-22.1c0-11.5,8.7-20.8,19.8-22.1V357h8.5c0.8,0,1.5-0.3,2-0.8
		c0.5-0.5,0.8-1.2,0.8-2v-5.7c0-0.8-0.3-1.5-0.8-2c-0.5-0.5-1.2-0.8-2-0.8h-27.3l-6.2-14.8c-0.9-2.2-2.5-4-4.8-5.6
		c-2.3-1.5-4.6-2.3-7-2.3h-28.3c-2.4,0-4.7,0.8-7,2.3c-2.3,1.5-3.9,3.4-4.8,5.6l-6.2,14.8h-27.3c-0.8,0-1.5,0.3-2,0.8
		c-0.5,0.5-0.8,1.2-0.8,2v5.7c0,0.8,0.3,1.5,0.8,2c0.5,0.5,1.2,0.8,2,0.8h8.5v84.3c0,4.9,1.4,9.1,4.2,12.5c2.8,3.4,6.1,5.2,10,5.2
		h51.3C-278,445.7-264.5,436.6-248.7,435.6z M-274.2,368.3c0.8,0,1.5,0.3,2,0.8s0.8,1.2,0.8,2v62.3c0,0.8-0.3,1.5-0.8,2
		c-0.5,0.5-1.2,0.8-2,0.8h-5.7c-0.8,0-1.5-0.3-2-0.8c-0.5-0.5-0.8-1.2-0.8-2v-62.3c0-0.8,0.3-1.5,0.8-2c0.5-0.5,1.2-0.8,2-0.8
		H-274.2z M-315.1,335.3c0.4-0.5,0.9-0.9,1.5-1h28.1c0.6,0.1,1.1,0.4,1.5,1l4.3,10.4h-39.7L-315.1,335.3z M-316.6,433.4
		c0,0.8-0.3,1.5-0.8,2s-1.2,0.8-2,0.8h-5.7c-0.8,0-1.5-0.3-2-0.8c-0.5-0.5-0.8-1.2-0.8-2v-62.3c0-0.8,0.3-1.5,0.8-2
		c0.5-0.5,1.2-0.8,2-0.8h5.7c0.8,0,1.5,0.3,2,0.8c0.5,0.5,0.8,1.2,0.8,2V433.4z M-294.8,435.5c-0.5,0.5-1.2,0.8-2,0.8h-5.7
		c-0.8,0-1.5-0.3-2-0.8c-0.5-0.5-0.8-1.2-0.8-2v-62.3c0-0.8,0.3-1.5,0.8-2s1.2-0.8,2-0.8h5.7c0.8,0,1.5,0.3,2,0.8s0.8,1.2,0.8,2
		v62.3C-294,434.3-294.2,434.9-294.8,435.5z"/>
	<circle id="XMLID_10_" cx="-246.8" cy="413" r="13.7"/>
	<path id="XMLID_29_" d="M-211.9,471.1c-3.4-15.4-17.7-27.1-35-27.1s-31.6,11.6-35,27.1H-211.9z"/>
</g>
</svg>
