<?xml version="1.0" encoding="utf-8"?>
<!-- Generator: Adobe Illustrator 19.0.0, SVG Export Plug-In . SVG Version: 6.00 Build 0)  -->
<svg version="1.1" id="Layer_1" xmlns="http://www.w3.org/2000/svg" xmlns:xlink="http://www.w3.org/1999/xlink" x="0px" y="0px"
	 viewBox="235.2 322 150 150" style="enable-background:new 235.2 322 150 150;" xml:space="preserve">
<style type="text/css">
	.st0{fill:#00A1C1;}
</style>
<path id="XMLID_84_" class="st0" d="M326.7,331c-1.1-1.1-1.1-2.1-2.1-3.2c-3.2-3.2-8.5-5.3-13.8-5.3c-5.3,0-9.6,2.1-13.8,5.3
	c-1.1,1.1-2.1,2.1-2.1,3.2l-34,34c-7.4,7.4-7.4,19.1,0,26.6c7.4,7.4,19.1,7.4,26.6,0l6.4-6.4v29.8c0,10.6,8.5,18.1,18.1,18.1
	c10.6,0,18.1-8.5,18.1-18.1v-28.7l5.3,5.3c7.4,7.4,19.1,7.4,26.6,0c7.4-7.4,7.4-19.1,0-26.6L326.7,331z M366,415.1h-16l-21.3,20.2
	c-5.3,4.3-11.7,7.4-19.1,7.4c-7.4,0-13.8-3.2-19.1-7.4l0,0l-1.1-1.1l0,0l-19.1-19.1h-16c-10.6,0-19.1,8.5-19.1,19.1v18.1
	c0,10.6,8.5,19.1,19.1,19.1H366c10.6,0,19.1-8.5,19.1-19.1v-18.1C385.2,423.6,376.7,415.1,366,415.1 M366,461.9
	c-5.3,0-9.6-4.3-9.6-9.6c0-5.3,4.3-9.6,9.6-9.6c5.3,0,9.6,4.3,9.6,9.6C375.6,457.6,371.4,461.9,366,461.9"/>
</svg>
