<?xml version="1.0" encoding="utf-8"?>
<!-- Generator: Adobe Illustrator 19.0.0, SVG Export Plug-In . SVG Version: 6.00 Build 0)  -->
<svg version="1.1" id="Layer_1" xmlns="http://www.w3.org/2000/svg" xmlns:xlink="http://www.w3.org/1999/xlink" x="0px" y="0px"
	 viewBox="-361.9 321.9 150 150" style="enable-background:new -361.9 321.9 150 150;" xml:space="preserve">
<style type="text/css">
	.st0{fill:#818282;}
</style>
<path class="st0" d="M-287,322c-41.4,0-75,33.6-75,75s33.6,75,75,75s75-33.6,75-75S-245.5,322-287,322 M-260.4,387.7
	c0.5-0.1,1-0.3,1.6-0.3c5.1,0,9.3,4.2,9.3,9.3v0.1c0,0.1,0,0.1,0,0.2c0,0.1,0,0.1,0,0.2v36.8c0,0.1,0,0.1,0,0.2
	c0,3.9-2.4,7.2-5.7,8.6c-1.1,0.5-2.3,0.7-3.6,0.7c0,0,0,0,0,0H-278v0.1c0,5.1-4.2,9.3-9.3,9.3c-5.1,0-9.3-4.2-9.3-9.3v-0.1h-18.7
	c-5.1,0-9.3-4.2-9.3-9.3c0-5.1,4.2-9.3,9.3-9.3h18.7v-18.6h-18.7c-5.1,0-9.3-4.2-9.3-9.3c0-0.3,0.1-0.5,0.2-0.8v-36
	c0-0.3-0.2-0.5-0.2-0.8c0-5.1,4.2-9.3,9.3-9.3h18.7c0.1-5.1,4.2-9.1,9.3-9.1c5.1,0,9.2,4.1,9.3,9.1h19.2c5.1,0,9.3,4.2,9.3,9.3
	c0,5.1-4.2,9.3-9.3,9.3H-278v19.1L-260.4,387.7L-260.4,387.7z M-305.8,387.7h9.2v-19.1h-9.2V387.7z M-278,424.8h9.8v-18.6h-9.8
	V424.8z"/>
</svg>
