<?xml version="1.0" encoding="utf-8"?>
<!-- Generator: Adobe Illustrator 19.0.0, SVG Export Plug-In . SVG Version: 6.00 Build 0)  -->
<svg version="1.1" id="Camada_1" xmlns="http://www.w3.org/2000/svg" xmlns:xlink="http://www.w3.org/1999/xlink" x="0px" y="0px"
	 viewBox="-362 322 150 150" style="enable-background:new -362 322 150 150;" xml:space="preserve">
<style type="text/css">
	.st0{fill:#030104;}
</style>
<g>
	<path id="XMLID_7_" class="st0" d="M-303.4,413.4c16.8,0,29.3-13.4,29.3-29.3c0-16.8-13.4-29.3-29.3-29.3
		c-16.8,0-29.3,13.4-29.3,29.3C-331.9,400.8-319.3,413.4-303.4,413.4 M-285.8,415.9c-5.9,3.4-10.9,5-17.6,5c-6.7,0-12.6-1.7-18.4-5
		c-22.6,7.5-40.2,30.2-40.2,56.1h117.3C-244.7,446.1-262.3,424.3-285.8,415.9"/>
	<path id="XMLID_42_" class="st0" d="M-214.6,364.8l-13.4-13.4l13.4-13.4c3.4-3.4,3.4-10.1,0-13.4c-3.4-3.4-9.2-3.4-13.4,0
		l-13.4,13.4l-13.4-13.4c-3.4-3.4-9.2-3.4-13.4,0c-3.4,3.4-3.4,10.1,0,13.4l13.4,13.4l-13.4,13.4c-3.4,3.4-3.4,9.2,0,13.4
		c3.4,3.4,9.2,3.4,13.4,0l13.4-13.4l13.4,13.4c3.4,3.4,9.2,3.4,13.4,0C-211.2,374-211.2,368.1-214.6,364.8"/>
</g>
</svg>
