<?xml version="1.0" encoding="utf-8"?>
<!-- Generator: Adobe Illustrator 19.0.0, SVG Export Plug-In . SVG Version: 6.00 Build 0)  -->
<svg version="1.1" id="Camada_1" xmlns="http://www.w3.org/2000/svg" xmlns:xlink="http://www.w3.org/1999/xlink" x="0px" y="0px"
	 viewBox="0 0 17.9 17.9" style="enable-background:new 0 0 17.9 17.9;" xml:space="preserve">
<style type="text/css">
	.st0{fill:#030104;}
</style>
<g>
	<path id="XMLID_7_" class="st0" d="M7,10.9c2,0,3.5-1.6,3.5-3.5c0-2-1.6-3.5-3.5-3.5c-2,0-3.5,1.6-3.5,3.5C3.6,9.4,5.1,10.9,7,10.9
		 M9.1,11.2c-0.7,0.4-1.3,0.6-2.1,0.6c-0.8,0-1.5-0.2-2.2-0.6C2.1,12.1,0,14.8,0,17.9h14C14,14.8,11.9,12.2,9.1,11.2"/>
	<path id="XMLID_42_" class="st0" d="M17.6,5.1L16,3.5l1.6-1.6c0.4-0.4,0.4-1.2,0-1.6c-0.4-0.4-1.1-0.4-1.6,0l-1.6,1.6l-1.6-1.6
		c-0.4-0.4-1.1-0.4-1.6,0c-0.4,0.4-0.4,1.2,0,1.6l1.6,1.6l-1.6,1.6c-0.4,0.4-0.4,1.1,0,1.6c0.4,0.4,1.1,0.4,1.6,0l1.6-1.6L16,6.7
		c0.4,0.4,1.1,0.4,1.6,0C18,6.2,18,5.5,17.6,5.1"/>
</g>
</svg>
