<?xml version="1.0" encoding="utf-8"?>
<!-- Generator: Adobe Illustrator 19.0.0, SVG Export Plug-In . SVG Version: 6.00 Build 0)  -->
<svg version="1.1" id="Camada_1" xmlns="http://www.w3.org/2000/svg" xmlns:xlink="http://www.w3.org/1999/xlink" x="0px" y="0px"
	 viewBox="-362 322 150 150" style="enable-background:new -362 322 150 150;" xml:space="preserve">
<g>
	<path id="XMLID_7_" d="M-302.9,412.9c16.7,0,29.2-13.3,29.2-29.2c0-16.7-13.3-29.2-29.2-29.2c-16.7,0-29.2,13.3-29.2,29.2
		C-331.2,400.4-318.7,412.9-302.9,412.9 M-285.4,415.4c-5.8,3.3-10.8,5-17.5,5s-12.5-1.7-18.3-5c-23.3,6.7-40.8,30-40.8,55.8h116.7
		C-244.5,445.4-262,423.7-285.4,415.4"/>
	<path id="XMLID_6_" d="M-220.4,347h-15.8v-15.8c0-5-4.2-8.3-8.3-8.3c-5,0-8.3,4.2-8.3,8.3V347h-15.8c-5,0-8.3,4.2-8.3,8.3
		c0,4.2,4.2,8.3,8.3,8.3h15.8v15.8c0,5,4.2,8.3,8.3,8.3c5,0,8.3-4.2,8.3-8.3v-15.8h15.8c5,0,8.3-4.2,8.3-8.3
		C-212.9,350.4-217,347-220.4,347"/>
</g>
</svg>
