<?xml version="1.0" encoding="utf-8"?>
<!-- Generator: Adobe Illustrator 19.0.0, SVG Export Plug-In . SVG Version: 6.00 Build 0)  -->
<svg version="1.1" id="Layer_1" xmlns="http://www.w3.org/2000/svg" xmlns:xlink="http://www.w3.org/1999/xlink" x="0px" y="0px"
	 viewBox="-230 322 150 150" style="enable-background:new -230 322 150 150;" xml:space="preserve">
<style type="text/css">
	.st0{fill:#818282;}
</style>
<path class="st0" d="M-192.5,360c10.5,0,19-8.5,19-19c0-10.5-8.5-19-19-19s-19,8.5-19,19C-211.5,351.5-203,360-192.5,360
	 M-117.5,360c10.5,0,19-8.5,19-19c0-10.5-8.5-19-19-19s-19,8.5-19,19C-136.5,351.5-128,360-117.5,360 M-183.4,387.6
	c0,15.5,12.6,28.1,28.1,28.1s28.1-12.6,28.1-28.1s-12.6-28.1-28.1-28.1C-170.9,359.5-183.4,372.1-183.4,387.6 M-192.5,387.6
	c0-7,2.1-13.5,5.4-19.2c-1.8,0.4-3.6,0.6-5.4,0.6c-6.2,0-11.8-2-16.4-5.4c-12.4,6.1-21,18.7-21,33.5h38.8
	C-191.9,394-192.5,390.9-192.5,387.6 M-117.5,369c-1.9,0-3.7-0.2-5.4-0.6c3.4,5.6,5.4,12.1,5.4,19.2c0,3.3-0.6,6.5-1.4,9.5h38.8
	c0-14.7-8.6-27.4-21-33.5C-105.7,367-111.4,369-117.5,369 M-155.2,415.7c-31.1,0-56.3,25.2-56.3,56.3h112.7
	C-98.8,440.9-124,415.7-155.2,415.7"/>
</svg>
