<?xml version="1.0" encoding="utf-8"?>
<!-- Generator: Adobe Illustrator 16.0.0, SVG Export Plug-In . SVG Version: 6.00 Build 0)  -->
<!DOCTYPE svg PUBLIC "-//W3C//DTD SVG 1.1//EN" "http://www.w3.org/Graphics/SVG/1.1/DTD/svg11.dtd">
<svg version="1.1" id="Layer_1" xmlns="http://www.w3.org/2000/svg" xmlns:xlink="http://www.w3.org/1999/xlink" x="0px" y="0px"
	 width="18.107px" height="18.143px" viewBox="0 0 18.107 18.143" enable-background="new 0 0 18.107 18.143" xml:space="preserve">
<path fill="#818282" d="M4.527,4.6c1.271,0,2.3-1.03,2.3-2.3S5.797,0,4.527,0c-1.27,0-2.3,1.03-2.3,2.3S3.257,4.6,4.527,4.6
	 M13.58,4.6c1.27,0,2.3-1.03,2.3-2.3S14.85,0,13.58,0s-2.3,1.03-2.3,2.3S12.31,4.6,13.58,4.6 M5.622,7.94
	c0,1.875,1.52,3.395,3.394,3.395c1.875,0,3.395-1.52,3.395-3.395s-1.52-3.395-3.395-3.395C7.142,4.545,5.622,6.065,5.622,7.94
	 M4.527,7.94c0-0.851,0.249-1.638,0.657-2.318C4.971,5.665,4.753,5.695,4.527,5.695c-0.745,0-1.428-0.247-1.988-0.653
	C1.041,5.779,0,7.307,0,9.09h4.693C4.595,8.721,4.527,8.34,4.527,7.94 M13.58,5.695c-0.226,0-0.444-0.03-0.657-0.073
	c0.408,0.68,0.657,1.467,0.657,2.318c0,0.4-0.068,0.781-0.166,1.15h4.693c0-1.783-1.04-3.311-2.539-4.048
	C15.008,5.448,14.325,5.695,13.58,5.695 M9.035,11.335c-3.76,0-6.808,3.048-6.808,6.808h13.617
	C15.844,14.383,12.795,11.335,9.035,11.335"/>
</svg>
