<?xml version="1.0" encoding="utf-8"?>
<!-- Generator: Adobe Illustrator 16.0.0, SVG Export Plug-In . SVG Version: 6.00 Build 0)  -->
<!DOCTYPE svg PUBLIC "-//W3C//DTD SVG 1.1//EN" "http://www.w3.org/Graphics/SVG/1.1/DTD/svg11.dtd">
<svg version="1.1" id="Layer_1" xmlns="http://www.w3.org/2000/svg" xmlns:xlink="http://www.w3.org/1999/xlink" x="0px" y="0px"
	 width="14.061px" height="14.059px" viewBox="0 0 14.061 14.059" enable-background="new 0 0 14.061 14.059" xml:space="preserve">
<g>
	<path fill="#00A2C2" d="M7.507,1.999v10.046c0,0.16-0.059,0.299-0.176,0.416c-0.117,0.115-0.255,0.174-0.416,0.174
		s-0.299-0.059-0.415-0.174L2.383,9.385H1.007c-0.16,0-0.299-0.059-0.415-0.176C0.474,9.094,0.416,8.955,0.416,8.795V5.249
		c0-0.16,0.059-0.299,0.176-0.416c0.116-0.117,0.255-0.175,0.415-0.175h1.376l4.118-3.075c0.116-0.116,0.255-0.175,0.415-0.175
		s0.298,0.059,0.416,0.175C7.448,1.7,7.507,1.839,7.507,1.999z"/>
	<path fill="#00A2C2" d="M10.868,4.833c0.439,0.669,0.66,1.399,0.66,2.189s-0.221,1.52-0.66,2.189
		c-0.439,0.67-1.021,1.156-1.744,1.461c-0.066,0.025-0.131,0.039-0.193,0.039c-0.141,0-0.26-0.049-0.357-0.148
		c-0.098-0.096-0.146-0.213-0.146-0.348c0-0.201,0.1-0.354,0.303-0.457c0.289-0.15,0.484-0.264,0.588-0.342
		c0.383-0.278,0.682-0.629,0.896-1.05c0.213-0.421,0.32-0.869,0.32-1.344c0-0.476-0.107-0.924-0.32-1.345
		C9.999,5.256,9.7,4.906,9.318,4.627C9.214,4.549,9.019,4.435,8.73,4.286C8.527,4.182,8.427,4.03,8.427,3.829
		c0-0.135,0.049-0.251,0.146-0.35c0.098-0.098,0.215-0.146,0.35-0.146c0.066,0,0.135,0.013,0.201,0.038
		C9.847,3.676,10.429,4.163,10.868,4.833z"/>
	<path fill="#00A2C2" d="M8.529,6.856c0-0.637-0.434-1.168-1.021-1.326v2.652C8.095,8.024,8.529,7.492,8.529,6.856z"/>
</g>
</svg>
