<?xml version="1.0" encoding="utf-8"?>
<!-- Generator: Adobe Illustrator 19.0.0, SVG Export Plug-In . SVG Version: 6.00 Build 0)  -->
<svg version="1.1" id="Layer_1" xmlns="http://www.w3.org/2000/svg" xmlns:xlink="http://www.w3.org/1999/xlink" x="0px" y="0px"
	 viewBox="-230 322 150 150" style="enable-background:new -230 322 150 150;" xml:space="preserve">
<style type="text/css">
	.st0{fill:#00A2C2;}
</style>
<g>
	<path class="st0" d="M-150.6,340.7v112.5c0,1.8-0.7,3.3-2,4.7c-1.3,1.3-2.9,1.9-4.7,1.9c-1.8,0-3.3-0.7-4.6-1.9l-46.1-34.5h-15.4
		c-1.8,0-3.3-0.7-4.7-2c-1.3-1.3-2-2.8-2-4.6v-39.7c0-1.8,0.7-3.3,2-4.7c1.3-1.3,2.9-2,4.7-2h15.4l46.1-34.4c1.3-1.3,2.9-2,4.7-2
		c1.8,0,3.3,0.7,4.7,2C-151.2,337.4-150.6,338.9-150.6,340.7z"/>
	<path class="st0" d="M-112.9,372.5c4.9,7.5,7.4,15.7,7.4,24.5c0,8.9-2.5,17-7.4,24.5c-4.9,7.5-11.4,12.9-19.5,16.4
		c-0.8,0.3-1.5,0.4-2.2,0.4c-1.6,0-2.9-0.5-4-1.7c-1.1-1.1-1.7-2.4-1.7-3.9c0-2.3,1.1-4,3.4-5.1c3.2-1.7,5.4-3,6.6-3.8
		c4.3-3.1,7.6-7,10-11.8c2.4-4.7,3.6-9.7,3.6-15.1s-1.2-10.3-3.6-15.1c-2.4-4.7-5.8-8.6-10-11.8c-1.2-0.9-3.4-2.1-6.6-3.8
		c-2.3-1.2-3.4-2.9-3.4-5.1c0-1.5,0.6-2.8,1.7-3.9c1.1-1.1,2.4-1.6,3.9-1.6c0.8,0,1.5,0.1,2.3,0.4
		C-124.4,359.5-117.8,365-112.9,372.5z"/>
	<path class="st0" d="M-139.1,395.1c0-7.1-4.9-13.1-11.4-14.9V410C-144,408.2-139.1,402.3-139.1,395.1z"/>
</g>
</svg>
