<?xml version="1.0" encoding="utf-8"?>
<!-- Generator: Adobe Illustrator 16.0.0, SVG Export Plug-In . SVG Version: 6.00 Build 0)  -->
<!DOCTYPE svg PUBLIC "-//W3C//DTD SVG 1.1//EN" "http://www.w3.org/Graphics/SVG/1.1/DTD/svg11.dtd">
<svg version="1.1" id="Layer_1" xmlns="http://www.w3.org/2000/svg" xmlns:xlink="http://www.w3.org/1999/xlink" x="0px" y="0px"
	 width="14.061px" height="14.059px" viewBox="0 0 14.061 14.059" enable-background="new 0 0 14.061 14.059" xml:space="preserve">
<g>
	<path fill="#00A2C2" d="M7.507,1.998v10.046c0,0.16-0.059,0.299-0.176,0.416c-0.117,0.116-0.254,0.175-0.415,0.175
		c-0.16,0-0.299-0.059-0.415-0.175L2.383,9.385H1.007c-0.161,0-0.299-0.059-0.416-0.176C0.474,9.093,0.416,8.954,0.416,8.794V5.249
		c0-0.16,0.059-0.299,0.176-0.416c0.116-0.117,0.255-0.175,0.416-0.175h1.376l4.118-3.075c0.116-0.116,0.255-0.175,0.415-0.175
		c0.161,0,0.298,0.059,0.415,0.175C7.448,1.7,7.507,1.839,7.507,1.998z"/>
	<path fill="#00A2C2" d="M8.529,6.856c0-0.638-0.434-1.168-1.022-1.326v2.651C8.095,8.023,8.529,7.492,8.529,6.856z"/>
</g>
</svg>
