<?xml version="1.0" encoding="utf-8"?>
<!-- Generator: Adobe Illustrator 19.0.0, SVG Export Plug-In . SVG Version: 6.00 Build 0)  -->
<svg version="1.1" id="Layer_1" xmlns="http://www.w3.org/2000/svg" xmlns:xlink="http://www.w3.org/1999/xlink" x="0px" y="0px"
	 viewBox="-366 322 150 150" style="enable-background:new -366 322 150 150;" xml:space="preserve">
<style type="text/css">
	.st0{fill:#00A2C2;}
</style>
<path class="st0" d="M-286.5,340.7v112.5c0,1.8-0.7,3.3-2,4.7c-1.3,1.3-2.9,1.9-4.7,1.9c-1.8,0-3.3-0.7-4.6-1.9l-46.1-34.5h-15.4
	c-1.8,0-3.3-0.7-4.7-2c-1.3-1.3-2-2.8-2-4.6v-39.7c0-1.8,0.7-3.3,2-4.7c1.3-1.3,2.9-2,4.7-2h15.4l46.1-34.4c1.3-1.3,2.9-2,4.7-2
	c1.8,0,3.3,0.7,4.7,2C-287.2,337.4-286.5,338.9-286.5,340.7z"/>
<path class="st0" d="M-275.1,395.1c0-7.1-4.9-13.1-11.4-14.9V410C-280,408.2-275.1,402.2-275.1,395.1z"/>
</svg>
