<?xml version="1.0" encoding="utf-8"?>
<!-- Generator: Adobe Illustrator 19.0.0, SVG Export Plug-In . SVG Version: 6.00 Build 0)  -->
<svg version="1.1" id="Layer_1" xmlns="http://www.w3.org/2000/svg" xmlns:xlink="http://www.w3.org/1999/xlink" x="0px" y="0px"
	 viewBox="-366 322 150 150" style="enable-background:new -366 322 150 150;" xml:space="preserve">
<style type="text/css">
	.st0{fill:#089EBF;}
</style>
<g>
	<path class="st0" d="M-317.9,327.8c9-3.9,18.5-5.8,28.3-5.8s19.3,1.9,28.3,5.8c9,3.9,16.8,9.1,23.3,15.6
		c6.5,6.5,11.7,14.3,15.6,23.3c3.9,9,5.8,18.5,5.8,28.3s-2,19.3-5.8,28.3c-3.9,9-9.1,16.8-15.6,23.3c-6.5,6.5-14.3,11.7-23.3,15.6
		c-9,3.9-18.5,5.8-28.3,5.8c-12.6,0-24.4-3.1-35.4-9.1l-40.4,13l13.2-39.3c-7-11.5-10.5-24-10.5-37.7c0-9.9,1.9-19.3,5.8-28.3
		c3.9-9,9.1-16.8,15.6-23.3C-334.7,336.8-327,331.7-317.9,327.8z M-289.6,455.9c8.2,0,16.1-1.6,23.6-4.9c7.5-3.2,14-7.5,19.4-13
		c5.4-5.4,9.7-11.9,13-19.4c3.2-7.5,4.8-15.4,4.8-23.6c0-8.2-1.6-16.1-4.8-23.6c-3.2-7.5-7.5-14-13-19.4c-5.4-5.4-11.9-9.8-19.4-13
		c-7.5-3.2-15.4-4.8-23.6-4.8c-8.2,0-16.1,1.6-23.6,4.8s-14,7.6-19.4,13c-5.4,5.4-9.8,11.9-13,19.4c-3.2,7.5-4.8,15.4-4.8,23.6
		c0,13.1,3.9,25,11.6,35.6l-7.7,22.6l23.5-7.5C-312.8,452.5-301.7,455.9-289.6,455.9z M-275,409.2c2.5-3.1,4.2-4.7,5.1-4.7
		c0.8,0,4,1.4,9.4,4.3c5.5,2.9,8.3,4.6,8.7,5.1c0.1,0.3,0.2,0.8,0.2,1.5c0,2.1-0.6,4.6-1.7,7.4c-1,2.5-3.3,4.6-6.9,6.4
		c-3.6,1.7-6.8,2.6-9.9,2.6c-3.7,0-9.8-2-18.4-6c-6.3-2.9-11.8-6.7-16.5-11.4s-9.4-10.7-14.3-17.9c-4.7-6.9-6.9-13.2-6.9-18.8v-0.8
		c0.2-5.9,2.6-11,7.2-15.3c1.6-1.4,3.2-2.1,5-2.1c0.4,0,1,0,1.7,0.2c0.8,0.1,1.4,0.1,1.8,0.1c1.2,0,2.1,0.2,2.6,0.6
		c0.5,0.4,1,1.3,1.5,2.7c0.5,1.3,1.6,4.1,3.2,8.5c1.6,4.4,2.4,6.8,2.4,7.3c0,1.4-1.1,3.2-3.3,5.6c-2.2,2.4-3.4,3.9-3.4,4.5
		c0,0.5,0.2,0.9,0.5,1.5c2.2,4.7,5.5,9.1,9.9,13.3c3.6,3.4,8.5,6.7,14.7,9.8c0.8,0.5,1.5,0.7,2.1,0.7
		C-279.2,413.9-277.5,412.4-275,409.2z"/>
</g>
</svg>
