<?xml version="1.0" encoding="utf-8"?>
<!-- Generator: Adobe Illustrator 16.0.0, SVG Export Plug-In . SVG Version: 6.00 Build 0)  -->
<!DOCTYPE svg PUBLIC "-//W3C//DTD SVG 1.1//EN" "http://www.w3.org/Graphics/SVG/1.1/DTD/svg11.dtd">
<svg version="1.1" id="Layer_1" xmlns="http://www.w3.org/2000/svg" xmlns:xlink="http://www.w3.org/1999/xlink" x="0px" y="0px"
	 width="18.105px" height="18.105px" viewBox="0 0 18.105 18.105" enable-background="new 0 0 18.105 18.105" xml:space="preserve">
<g>
	<path fill="#676767" d="M16.47,12.857c0,1.563-0.087,2.73-0.26,3.503c-0.094,0.395-0.286,0.725-0.58,0.991
		c-0.294,0.269-0.635,0.419-1.021,0.46c-1.228,0.141-3.08,0.211-5.557,0.211c-2.475,0-4.326-0.07-5.554-0.211
		c-0.389-0.041-0.73-0.191-1.026-0.46c-0.297-0.267-0.489-0.597-0.577-0.991c-0.173-0.746-0.26-1.914-0.26-3.503
		c0-1.562,0.086-2.729,0.26-3.503C1.99,8.959,2.184,8.63,2.477,8.363s0.638-0.425,1.03-0.472C4.73,7.759,6.578,7.692,9.053,7.692
		c2.477,0,4.329,0.066,5.557,0.199c0.386,0.046,0.728,0.205,1.026,0.472c0.296,0.267,0.488,0.596,0.574,0.991
		C16.383,10.101,16.47,11.269,16.47,12.857z M4.8,10.365h1.072v-0.94H2.747v0.94h1.051v5.696H4.8V10.365z M6.482,0.084h1.02
		l-1.21,3.994v2.712H5.29V4.078C5.197,3.584,4.993,2.877,4.68,1.956C4.433,1.269,4.216,0.645,4.029,0.084H5.09l0.711,2.633
		L6.482,0.084z M7.683,16.061h0.891v-4.947H7.683v3.784c-0.201,0.281-0.392,0.421-0.571,0.421c-0.119,0-0.189-0.07-0.21-0.21
		c-0.007-0.019-0.01-0.137-0.01-0.351v-3.645H6.001v3.916c0,0.327,0.027,0.569,0.081,0.729c0.08,0.248,0.273,0.372,0.579,0.372
		c0.322,0,0.662-0.205,1.022-0.611V16.061z M10.185,3.418V5.17c0,0.541-0.093,0.935-0.28,1.18c-0.247,0.342-0.6,0.511-1.062,0.511
		c-0.446,0-0.797-0.169-1.051-0.511c-0.187-0.252-0.28-0.647-0.28-1.18V3.418c0-0.534,0.094-0.923,0.28-1.171
		c0.254-0.34,0.604-0.51,1.051-0.51c0.462,0,0.814,0.17,1.062,0.51C10.092,2.494,10.185,2.884,10.185,3.418z M9.274,5.339V3.238
		c0-0.46-0.144-0.69-0.431-0.69c-0.286,0-0.43,0.23-0.43,0.69v2.102c0,0.468,0.144,0.701,0.43,0.701
		C9.13,6.04,9.274,5.807,9.274,5.339z M11.978,14.579v-1.973c0-0.487-0.031-0.819-0.091-0.989c-0.114-0.374-0.35-0.562-0.712-0.562
		c-0.333,0-0.643,0.18-0.932,0.541V9.424H9.355v6.637h0.889v-0.482c0.303,0.368,0.613,0.553,0.932,0.553
		c0.362,0,0.598-0.185,0.712-0.553C11.947,15.401,11.978,15.067,11.978,14.579z M11.086,12.536v2.112c0,0.448-0.131,0.67-0.391,0.67
		c-0.152,0-0.303-0.073-0.452-0.219v-3.013c0.149-0.147,0.3-0.222,0.452-0.222C10.955,11.865,11.086,12.09,11.086,12.536z
		 M13.538,1.796v4.995h-0.911V6.24c-0.354,0.413-0.696,0.62-1.03,0.62c-0.308,0-0.504-0.123-0.592-0.371
		c-0.054-0.158-0.079-0.408-0.079-0.75V1.796h0.91v3.673c0,0.22,0.003,0.337,0.009,0.351c0.021,0.147,0.092,0.22,0.211,0.22
		c0.181,0,0.37-0.143,0.571-0.431V1.796H13.538z M15.359,14.478v-0.129h-0.91c0,0.338-0.005,0.543-0.019,0.61
		c-0.047,0.24-0.182,0.359-0.401,0.359c-0.307,0-0.46-0.229-0.46-0.688v-0.872h1.79v-1.032c0-0.525-0.088-0.914-0.269-1.159
		c-0.261-0.342-0.615-0.511-1.062-0.511c-0.454,0-0.812,0.169-1.07,0.511c-0.188,0.245-0.28,0.634-0.28,1.159v1.732
		c0,0.527,0.096,0.914,0.289,1.161c0.26,0.342,0.622,0.512,1.082,0.512c0.48,0,0.84-0.179,1.082-0.532
		c0.119-0.179,0.189-0.359,0.209-0.54C15.353,14.998,15.359,14.804,15.359,14.478z M14.469,12.546v0.461h-0.9v-0.461
		c0-0.453,0.15-0.681,0.449-0.681C14.319,11.865,14.469,12.093,14.469,12.546z"/>
</g>
</svg>
