<?xml version="1.0" encoding="utf-8"?>
<!-- Generator: Adobe Illustrator 19.0.0, SVG Export Plug-In . SVG Version: 6.00 Build 0)  -->
<svg version="1.1" id="Layer_1" xmlns="http://www.w3.org/2000/svg" xmlns:xlink="http://www.w3.org/1999/xlink" x="0px" y="0px"
	 viewBox="-361.9 321.9 150 150" style="enable-background:new -361.9 321.9 150 150;" xml:space="preserve">
<style type="text/css">
	.st0{fill:#676767;}
</style>
<g>
	<path class="st0" d="M-224.9,428.8c0,13.1-0.7,22.8-2.2,29.3c-0.8,3.3-2.4,6.1-4.9,8.3c-2.5,2.2-5.3,3.5-8.5,3.8
		c-10.3,1.2-25.8,1.8-46.5,1.8c-20.7,0-36.2-0.6-46.4-1.8c-3.3-0.3-6.1-1.6-8.6-3.8c-2.5-2.2-4.1-5-4.8-8.3
		c-1.4-6.2-2.2-16-2.2-29.3c0-13.1,0.7-22.8,2.2-29.3c0.8-3.3,2.4-6.1,4.9-8.3s5.3-3.6,8.6-3.9c10.2-1.1,25.7-1.7,46.4-1.7
		c20.7,0,36.2,0.6,46.5,1.7c3.2,0.4,6.1,1.7,8.6,3.9c2.5,2.2,4.1,5,4.8,8.3C-225.6,405.7-224.9,415.5-224.9,428.8z M-322.5,407.9h9
		v-7.9h-26.1v7.9h8.8v47.6h8.4V407.9z M-308.4,321.9h8.5l-10.1,33.4V378h-8.4v-22.7c-0.8-4.1-2.5-10-5.1-17.7
		c-2.1-5.7-3.9-11-5.4-15.7h8.9l5.9,22L-308.4,321.9z M-298.4,455.5h7.5v-41.4h-7.5v31.6c-1.7,2.3-3.3,3.5-4.8,3.5
		c-1,0-1.6-0.6-1.8-1.8c-0.1-0.2-0.1-1.1-0.1-2.9v-30.5h-7.5v32.7c0,2.7,0.2,4.8,0.7,6.1c0.7,2.1,2.3,3.1,4.8,3.1
		c2.7,0,5.5-1.7,8.5-5.1C-298.4,451-298.4,455.5-298.4,455.5z M-277.5,349.8v14.7c0,4.5-0.8,7.8-2.3,9.9c-2.1,2.9-5,4.3-8.9,4.3
		c-3.7,0-6.7-1.4-8.8-4.3c-1.6-2.1-2.3-5.4-2.3-9.9v-14.7c0-4.5,0.8-7.7,2.3-9.8c2.1-2.8,5.1-4.3,8.8-4.3c3.9,0,6.8,1.4,8.9,4.3
		C-278.3,342.1-277.5,345.4-277.5,349.8z M-285.1,365.9v-17.6c0-3.8-1.2-5.8-3.6-5.8c-2.4,0-3.6,1.9-3.6,5.8v17.6
		c0,3.9,1.2,5.9,3.6,5.9C-286.3,371.8-285.1,369.8-285.1,365.9z M-262.5,443.2v-16.5c0-4.1-0.3-6.8-0.8-8.3c-1-3.1-2.9-4.7-6-4.7
		c-2.8,0-5.4,1.5-7.8,4.5V400h-7.4v55.5h7.4v-4c2.5,3.1,5.1,4.6,7.8,4.6c3,0,5-1.5,6-4.6C-262.7,450-262.5,447.2-262.5,443.2z
		 M-269.9,426.1v17.7c0,3.7-1.1,5.6-3.3,5.6c-1.3,0-2.5-0.6-3.8-1.8v-25.2c1.2-1.2,2.5-1.9,3.8-1.9
		C-271,420.5-269.9,422.3-269.9,426.1z M-249.4,336.3V378h-7.6v-4.6c-3,3.5-5.8,5.2-8.6,5.2c-2.6,0-4.2-1-5-3.1
		c-0.5-1.3-0.7-3.4-0.7-6.3v-33h7.6V367c0,1.8,0,2.8,0.1,2.9c0.2,1.2,0.8,1.8,1.8,1.8c1.5,0,3.1-1.2,4.8-3.6v-31.9H-249.4z
		 M-234.2,442.3v-1.1h-7.6c0,2.8,0,4.5-0.2,5.1c-0.4,2-1.5,3-3.4,3c-2.6,0-3.8-1.9-3.8-5.8v-7.3h15v-8.6c0-4.4-0.7-7.6-2.2-9.7
		c-2.2-2.9-5.1-4.3-8.9-4.3c-3.8,0-6.8,1.4-8.9,4.3c-1.6,2-2.3,5.3-2.3,9.7v14.5c0,4.4,0.8,7.6,2.4,9.7c2.2,2.9,5.2,4.3,9,4.3
		c4,0,7-1.5,9-4.4c1-1.5,1.6-3,1.7-4.5C-234.3,446.7-234.2,445-234.2,442.3z M-241.7,426.2v3.9h-7.5v-3.9c0-3.8,1.3-5.7,3.8-5.7
		C-242.9,420.5-241.7,422.4-241.7,426.2z"/>
</g>
</svg>
