<?xml version="1.0" encoding="utf-8"?>
<!-- Generator: Adobe Illustrator 16.0.0, SVG Export Plug-In . SVG Version: 6.00 Build 0)  -->
<!DOCTYPE svg PUBLIC "-//W3C//DTD SVG 1.1//EN" "http://www.w3.org/Graphics/SVG/1.1/DTD/svg11.dtd">
<svg version="1.1" id="Layer_1" xmlns="http://www.w3.org/2000/svg" xmlns:xlink="http://www.w3.org/1999/xlink" x="0px" y="0px"
	 width="18.105px" height="18.105px" viewBox="0 0 18.105 18.105" enable-background="new 0 0 18.105 18.105" xml:space="preserve">
<g>
	<path fill="#676767" d="M18.032,7.549c0.008,0.359,0.011,0.861,0.011,1.504s-0.003,1.145-0.011,1.504
		c-0.006,0.363-0.035,0.819-0.085,1.37c-0.05,0.553-0.126,1.046-0.225,1.48c-0.108,0.489-0.339,0.9-0.694,1.235
		c-0.354,0.333-0.768,0.526-1.243,0.581c-1.485,0.168-3.729,0.25-6.732,0.25s-5.247-0.082-6.732-0.25
		c-0.476-0.055-0.891-0.248-1.25-0.581c-0.357-0.335-0.59-0.746-0.697-1.235c-0.095-0.435-0.167-0.928-0.216-1.48
		c-0.05-0.551-0.079-1.007-0.085-1.37c-0.007-0.359-0.01-0.861-0.01-1.504s0.003-1.145,0.01-1.504
		C0.079,7.187,0.108,6.73,0.158,6.178c0.05-0.552,0.125-1.045,0.225-1.48c0.107-0.488,0.338-0.9,0.694-1.234
		C1.431,3.13,1.845,2.936,2.321,2.883c1.485-0.167,3.729-0.251,6.732-0.251s5.247,0.083,6.732,0.251
		c0.476,0.053,0.891,0.247,1.249,0.582c0.357,0.334,0.59,0.746,0.697,1.234c0.093,0.435,0.166,0.928,0.216,1.48
		C17.997,6.73,18.027,7.187,18.032,7.549z M12.906,9.053c0-0.247-0.1-0.428-0.302-0.541L7.468,5.301
		C7.26,5.167,7.042,5.16,6.816,5.28C6.594,5.401,6.485,5.588,6.485,5.842v6.421c0,0.255,0.11,0.442,0.331,0.563
		c0.106,0.054,0.21,0.08,0.31,0.08c0.135,0,0.248-0.033,0.342-0.101l5.136-3.211C12.806,9.481,12.906,9.3,12.906,9.053z"/>
</g>
</svg>
