<?xml version="1.0" encoding="utf-8"?>
<!-- Generator: Adobe Illustrator 19.0.0, SVG Export Plug-In . SVG Version: 6.00 Build 0)  -->
<svg version="1.1" id="Layer_1" xmlns="http://www.w3.org/2000/svg" xmlns:xlink="http://www.w3.org/1999/xlink" x="0px" y="0px"
	 viewBox="-361.9 321.9 150 150" style="enable-background:new -361.9 321.9 150 150;" xml:space="preserve">
<style type="text/css">
	.st0{fill:#676767;}
</style>
<g>
	<path class="st0" d="M-212,384.4c0.1,3,0.1,7.2,0.1,12.5s0,9.6-0.1,12.5c-0.1,3-0.3,6.8-0.7,11.4c-0.4,4.6-1.1,8.7-1.9,12.3
		c-0.9,4.1-2.8,7.5-5.8,10.3c-3,2.8-6.4,4.4-10.4,4.8c-12.4,1.4-31.1,2.1-56.2,2.1s-43.8-0.7-56.2-2.1c-4-0.5-7.4-2.1-10.4-4.8
		c-3-2.8-4.9-6.2-5.8-10.3c-0.8-3.6-1.4-7.7-1.8-12.3c-0.4-4.6-0.7-8.4-0.7-11.4c-0.1-3-0.1-7.2-0.1-12.5s0-9.6,0.1-12.5
		c0.1-3,0.3-6.8,0.7-11.4c0.4-4.6,1-8.7,1.9-12.3c0.9-4.1,2.8-7.5,5.8-10.3c3-2.8,6.4-4.4,10.4-4.8c12.4-1.4,31.1-2.1,56.2-2.1
		s43.8,0.7,56.2,2.1c4,0.4,7.4,2.1,10.4,4.9c3,2.8,4.9,6.2,5.8,10.3c0.8,3.6,1.4,7.7,1.8,12.3C-212.3,377.6-212.1,381.4-212,384.4z
		 M-254.8,397c0-2.1-0.8-3.6-2.5-4.5l-42.8-26.8c-1.7-1.1-3.6-1.2-5.4-0.2c-1.9,1-2.8,2.6-2.8,4.7v53.6c0,2.1,0.9,3.7,2.8,4.7
		c0.9,0.5,1.8,0.7,2.6,0.7c1.1,0,2.1-0.3,2.9-0.8l42.8-26.8C-255.6,400.5-254.8,399-254.8,397z"/>
</g>
</svg>
