<?xml version="1.0" encoding="utf-8"?>
<!-- Generator: Adobe Illustrator 19.0.0, SVG Export Plug-In . SVG Version: 6.00 Build 0)  -->
<svg version="1.1" id="Layer_1" xmlns="http://www.w3.org/2000/svg" xmlns:xlink="http://www.w3.org/1999/xlink" x="0px" y="0px"
	 viewBox="-361.9 321.9 150 150" style="enable-background:new -361.9 321.9 150 150;" xml:space="preserve">
<style type="text/css">
	.st0{fill:#676767;}
</style>
<g>
	<path class="st0" d="M-211.9,350.1v93.8c0,7.7-2.8,14.3-8.3,19.8c-5.5,5.5-12.1,8.3-19.9,8.3h-93.8c-7.7,0-14.4-2.7-19.9-8.3
		c-5.5-5.5-8.3-12.1-8.3-19.8v-93.8c0-7.7,2.7-14.4,8.2-19.9c5.5-5.5,12.1-8.3,19.9-8.3h93.7c7.7,0,14.4,2.8,19.9,8.3
		C-214.7,335.7-211.9,342.3-211.9,350.1z M-233.2,423.7c0-11.5-0.6-20-1.9-25.4c-0.6-2.9-2.1-5.3-4.2-7.2c-2.2-1.9-4.6-3-7.4-3.4
		c-8.8-1-22.3-1.5-40.2-1.5c-17.9,0-31.3,0.5-40.1,1.5c-2.9,0.3-5.3,1.4-7.5,3.4c-2.1,1.9-3.5,4.3-4.1,7.2c-1.3,5.7-2,14.1-2,25.4
		c0,11.5,0.6,19.9,2,25.4c0.7,2.8,2,5.2,4.1,7.1c2.1,2,4.6,3.1,7.4,3.4c8.9,1,22.3,1.5,40.2,1.5c17.9,0,31.3-0.5,40.2-1.5
		c2.8-0.3,5.3-1.5,7.4-3.4c2.1-1.9,3.5-4.3,4.2-7.1C-233.9,443.6-233.2,435.2-233.2,423.7z M-310,398.8v6.8h-7.8V447h-7.2v-41.3
		h-7.6v-6.8H-310z M-307,360.2l8.8-28.9h-7.3l-5,19l-5.2-19h-7.6c0.5,1.5,1.3,3.8,2.4,6.7c1,3,1.8,5.2,2.2,6.7
		c2.3,6.7,3.8,11.8,4.5,15.4v19.6h7.2V360.2z M-290.4,411.1V447h-6.5V443c-2.5,2.9-5,4.4-7.4,4.4c-2.2,0-3.5-0.9-4.1-2.7
		c-0.4-1-0.6-2.8-0.6-5.3v-28.3h6.4v26.4c0,1.6,0,2.4,0.1,2.5c0.1,1,0.6,1.5,1.5,1.5c1.3,0,2.7-1,4.1-3v-27.3H-290.4z M-278.8,368
		v-12.7c0-3.8-0.7-6.6-2-8.5c-1.9-2.5-4.4-3.7-7.6-3.7c-3.3,0-5.9,1.2-7.6,3.7c-1.4,1.9-2.1,4.7-2.1,8.5V368c0,3.8,0.7,6.6,2.1,8.5
		c1.7,2.5,4.3,3.7,7.6,3.7c3.2,0,5.7-1.2,7.6-3.7C-279.4,374.8-278.8,372-278.8,368z M-285.3,354.1v15.2c0,3.3-1,5-3.1,5
		c-2.1,0-3.1-1.7-3.1-5v-15.2c0-3.4,1-5.1,3.1-5.1C-286.3,349-285.3,350.7-285.3,354.1z M-265.8,422v14.2c0,3.4-0.2,5.8-0.7,7.1
		c-0.8,2.7-2.5,4.1-5.2,4.1c-2.3,0-4.5-1.3-6.6-4v3.5h-6.5v-48.2h6.6v15.7c2.1-2.6,4.3-3.9,6.6-3.9c2.7,0,4.4,1.4,5.2,4.1
		C-266,416.1-265.8,418.5-265.8,422z M-272.2,436.7v-15.3c0-3.3-1-4.9-2.8-4.9c-1.1,0-2.2,0.5-3.2,1.6v21.9c1,1,2.1,1.6,3.2,1.6
		C-273.1,441.5-272.2,439.9-272.2,436.7z M-261.1,379.8h6.6v-36.1h-6.6v27.6c-1.4,2-2.8,3-4.1,3c-1,0-1.5-0.5-1.6-1.6
		c-0.1-0.1-0.1-1-0.1-2.5v-26.6h-6.6v28.6c0,2.4,0.2,4.2,0.6,5.4c0.7,1.8,2.1,2.6,4.2,2.6c2.4,0,4.9-1.5,7.5-4.4L-261.1,379.8
		L-261.1,379.8z M-241.3,434.6v0.9c0,1.9-0.1,3.3-0.2,4.2c-0.2,1.4-0.7,2.7-1.5,3.9c-1.8,2.6-4.4,3.9-7.8,3.9c-3.4,0-6-1.2-7.9-3.7
		c-1.4-1.8-2-4.6-2-8.4v-12.6c0-3.8,0.6-6.6,1.9-8.4c1.9-2.5,4.5-3.7,7.8-3.7c3.3,0,5.9,1.2,7.6,3.7c1.4,1.8,2.1,4.6,2.1,8.4v7.4
		h-13v6.3c0,3.3,1.1,5,3.3,5c1.6,0,2.5-0.8,2.9-2.5c0-0.1,0-0.3,0.1-0.7c0-0.4,0-0.9,0-1.6c0-0.7,0-1.4,0-2.1L-241.3,434.6
		L-241.3,434.6z M-254.2,424.8h6.4v-3.3c0-3.3-1.1-5-3.2-5s-3.2,1.7-3.2,5L-254.2,424.8L-254.2,424.8z"/>
</g>
</svg>
