<?xml version="1.0" encoding="utf-8"?>
<!-- Generator: Adobe Illustrator 19.0.0, SVG Export Plug-In . SVG Version: 6.00 Build 0)  -->
<svg version="1.1" id="Layer_1" xmlns="http://www.w3.org/2000/svg" xmlns:xlink="http://www.w3.org/1999/xlink" x="0px" y="0px"
	 viewBox="-296 387.8 18 18.2" style="enable-background:new -296 387.8 18 18.2;" xml:space="preserve">
<g>
	<path d="M-293.5,393.7c0.3,0,0.6,0.1,0.8,0.3c0.2,0.2,0.3,0.5,0.3,0.8v4.7c0,0.3-0.1,0.6-0.3,0.8c-0.2,0.2-0.5,0.3-0.8,0.3
		c-0.3,0-0.6-0.1-0.8-0.3c-0.2-0.2-0.3-0.5-0.3-0.8v-4.7c0-0.3,0.1-0.6,0.3-0.8C-294.1,393.8-293.8,393.7-293.5,393.7z"/>
	<path d="M-282,393.9v7.2c0,0.3-0.1,0.6-0.3,0.8c-0.2,0.2-0.5,0.3-0.8,0.3h-0.8v2.5c0,0.3-0.1,0.6-0.3,0.8c-0.2,0.2-0.5,0.3-0.8,0.3
		c-0.3,0-0.6-0.1-0.8-0.3c-0.2-0.2-0.3-0.5-0.3-0.8v-2.5h-1.5v2.5c0,0.3-0.1,0.6-0.3,0.8c-0.2,0.2-0.5,0.3-0.8,0.3
		c-0.3,0-0.6-0.1-0.8-0.3c-0.2-0.2-0.3-0.5-0.3-0.8l0-2.5h-0.8c-0.3,0-0.6-0.1-0.8-0.3c-0.2-0.2-0.3-0.5-0.3-0.8v-7.2H-282z"/>
	<path d="M-282.7,391.2c-0.5-0.7-1.1-1.3-1.8-1.7l0.8-1.4c0.1-0.1,0-0.2-0.1-0.2c-0.1,0-0.2,0-0.2,0.1l-0.8,1.4
		c-0.7-0.3-1.4-0.5-2.2-0.5s-1.5,0.2-2.2,0.5l-0.8-1.4c-0.1-0.1-0.1-0.1-0.2-0.1c-0.1,0.1-0.1,0.1-0.1,0.2l0.8,1.4
		c-0.8,0.4-1.4,1-1.9,1.7c-0.5,0.7-0.7,1.5-0.7,2.3h10C-282,392.7-282.2,391.9-282.7,391.2z M-289,391.6c-0.1,0.1-0.2,0.1-0.3,0.1
		s-0.2,0-0.3-0.1c-0.1-0.1-0.1-0.2-0.1-0.3c0-0.1,0-0.2,0.1-0.3c0.1-0.1,0.2-0.1,0.3-0.1s0.2,0,0.3,0.1c0.1,0.1,0.1,0.2,0.1,0.3
		C-288.9,391.4-288.9,391.5-289,391.6z M-284.4,391.6c-0.1,0.1-0.2,0.1-0.3,0.1c-0.1,0-0.2,0-0.3-0.1c-0.1-0.1-0.1-0.2-0.1-0.3
		c0-0.1,0-0.2,0.1-0.3c0.1-0.1,0.2-0.1,0.3-0.1c0.1,0,0.2,0,0.3,0.1c0.1,0.1,0.1,0.2,0.1,0.3C-284.3,391.4-284.3,391.5-284.4,391.6z
		"/>
	<path d="M-279.4,394.8v4.7c0,0.3-0.1,0.6-0.3,0.8c-0.2,0.2-0.5,0.3-0.8,0.3c-0.3,0-0.6-0.1-0.8-0.3c-0.2-0.2-0.3-0.5-0.3-0.8v-4.7
		c0-0.3,0.1-0.6,0.3-0.8s0.5-0.3,0.8-0.3c0.3,0,0.6,0.1,0.8,0.3C-279.5,394.3-279.4,394.5-279.4,394.8z"/>
</g>
</svg>
