<?xml version="1.0" encoding="utf-8"?>
<!-- Generator: Adobe Illustrator 19.0.0, SVG Export Plug-In . SVG Version: 6.00 Build 0)  -->
<svg version="1.1" id="Layer_1" xmlns="http://www.w3.org/2000/svg" xmlns:xlink="http://www.w3.org/1999/xlink" x="0px" y="0px"
	 viewBox="-362 321.9 150 150" style="enable-background:new -362 321.9 150 150;" xml:space="preserve">
<g>
	<path d="M-341.5,370.5c2.5,0,5,0.8,6.7,2.5c1.7,1.7,2.5,4.2,2.5,6.7v39.4c0,2.5-0.8,5-2.5,6.7c-1.7,1.7-4.2,2.5-6.7,2.5
		s-5-0.8-6.7-2.5c-1.7-1.7-2.5-4.2-2.5-6.7v-39.4c0-2.5,0.8-5,2.5-6.7C-346.5,371.3-344,370.5-341.5,370.5z"/>
	<path d="M-245.1,372.2v60.3c0,2.5-0.8,5-2.5,6.7c-1.7,1.7-4.2,2.5-6.7,2.5h-6.7v20.9c0,2.5-0.8,5-2.5,6.7c-1.7,1.7-4.2,2.5-6.7,2.5
		c-2.5,0-5-0.8-6.7-2.5c-1.7-1.7-2.5-4.2-2.5-6.7v-20.9H-292v20.9c0,2.5-0.8,5-2.5,6.7c-1.7,1.7-4.2,2.5-6.7,2.5
		c-2.5,0-5-0.8-6.7-2.5c-1.7-1.7-2.5-4.2-2.5-6.7v-20.9h-6.7c-2.5,0-5-0.8-6.7-2.5c-1.7-1.7-2.5-4.2-2.5-6.7v-60.3H-245.1z"/>
	<path d="M-251,349.6c-4.2-5.9-9.2-10.9-15.1-14.2l6.7-11.7c0.8-0.8,0-1.7-0.8-1.7s-1.7,0-1.7,0.8l-6.7,11.7
		c-5.9-2.5-11.7-4.2-18.4-4.2c-6.7,0-12.6,1.7-18.4,4.2l-6.7-11.7c-0.8-0.8-0.8-0.8-1.7-0.8c-0.8,0.8-0.8,0.8-0.8,1.7l6.7,11.7
		c-6.7,3.4-11.7,8.4-15.9,14.2c-4.2,5.9-5.9,12.6-5.9,19.3h83.8C-245.1,362.1-246.8,355.4-251,349.6z M-303.8,352.9
		c-0.8,0.8-1.7,0.8-2.5,0.8c-0.8,0-1.7,0-2.5-0.8c-0.8-0.8-0.8-1.7-0.8-2.5c0-0.8,0-1.7,0.8-2.5c0.8-0.8,1.7-0.8,2.5-0.8
		c0.8,0,1.7,0,2.5,0.8c0.8,0.8,0.8,1.7,0.8,2.5S-302.9,352.1-303.8,352.9z M-265.2,352.9c-0.8,0.8-1.7,0.8-2.5,0.8
		c-0.8,0-1.7,0-2.5-0.8c-0.8-0.8-0.8-1.7-0.8-2.5c0-0.8,0-1.7,0.8-2.5c0.8-0.8,1.7-0.8,2.5-0.8c0.8,0,1.7,0,2.5,0.8
		c0.8,0.8,0.8,1.7,0.8,2.5S-264.4,352.1-265.2,352.9z"/>
	<path d="M-223.3,379.7v39.4c0,2.5-0.8,5-2.5,6.7c-1.7,1.7-4.2,2.5-6.7,2.5s-5-0.8-6.7-2.5c-1.7-1.7-2.5-4.2-2.5-6.7v-39.4
		c0-2.5,0.8-5,2.5-6.7c1.7-1.7,4.2-2.5,6.7-2.5s5,0.8,6.7,2.5C-224.2,375.5-223.3,377.2-223.3,379.7z"/>
</g>
</svg>
