<?xml version="1.0" encoding="utf-8"?>
<!-- Generator: Adobe Illustrator 19.0.0, SVG Export Plug-In . SVG Version: 6.00 Build 0)  -->
<svg version="1.1" id="Layer_1" xmlns="http://www.w3.org/2000/svg" xmlns:xlink="http://www.w3.org/1999/xlink" x="0px" y="0px"
	 viewBox="-296 387.8 18 18.2" style="enable-background:new -296 387.8 18 18.2;" xml:space="preserve">
<path id="XMLID_54_" d="M-279.2,392.4c-0.8-1.4-1.9-2.5-3.3-3.3c-1.4-0.8-2.9-1.2-4.5-1.2c-1.6,0-3.1,0.4-4.5,1.2
	c-1.4,0.8-2.5,1.9-3.3,3.3c-0.8,1.4-1.2,2.9-1.2,4.5c0,1.6,0.4,3.1,1.2,4.5c0.8,1.4,1.9,2.5,3.3,3.3c1.4,0.8,2.9,1.2,4.5,1.2
	c1.6,0,3.1-0.4,4.5-1.2c1.4-0.8,2.5-1.9,3.3-3.3c0.8-1.4,1.2-2.9,1.2-4.5C-278,395.3-278.4,393.8-279.2,392.4z M-281.8,397.5
	C-281.8,397.5-281.8,397.5-281.8,397.5l-3.9,3.9l-0.9,0.9c-0.1,0.1-0.3,0.2-0.4,0.2s-0.3-0.1-0.4-0.2l-0.9-0.9l-3.9-3.9c0,0,0,0,0,0
	c-0.2-0.2-0.4-0.5-0.4-0.9c0-0.7,0.6-1.2,1.2-1.2c0.3,0,0.7,0.1,0.9,0.4l2.2,2.2v-5.4c0-0.7,0.6-1.2,1.2-1.2c0.7,0,1.2,0.6,1.2,1.2
	v5.4l2.2-2.2c0.2-0.2,0.5-0.4,0.9-0.4c0.7,0,1.2,0.6,1.2,1.2C-281.4,397-281.6,397.3-281.8,397.5z"/>
</svg>
