<?xml version="1.0" encoding="utf-8"?>
<!-- Generator: Adobe Illustrator 19.0.0, SVG Export Plug-In . SVG Version: 6.00 Build 0)  -->
<svg version="1.1" id="Layer_1" xmlns="http://www.w3.org/2000/svg" xmlns:xlink="http://www.w3.org/1999/xlink" x="0px" y="0px"
	 viewBox="-362 321.9 150 150" style="enable-background:new -362 321.9 150 150;" xml:space="preserve">
<path id="XMLID_42_" d="M-249.5,461.9c11.7-6.7,20.8-15.8,27.5-27.5s10-24.2,10-37.5s-3.3-25.8-10-37.5
	c-6.7-11.7-15.8-20.8-27.5-27.5c-11.7-6.7-24.2-10-37.5-10s-25.8,3.3-37.5,10c-11.7,6.7-20.8,15.8-27.5,27.5s-10,24.2-10,37.5
	s3.3,25.8,10,37.5c6.7,11.7,15.8,20.8,27.5,27.5s24.2,10,37.5,10C-273.7,471.9-261.2,468.6-249.5,461.9z M-292,440.2L-292,440.2
	l-32.5-32.5l-7.5-7.5c-0.8-0.8-1.7-2.5-1.7-3.3c0-1.7,0.8-2.5,1.7-3.3l7.5-7.5l32.5-32.5l0,0c1.7-1.7,4.2-3.3,7.5-3.3
	c5.8,0,10,5,10,10c0,2.5-0.8,5.8-3.3,7.5l-18.3,18.3h45c5.8,0,10,5,10,10c0,5.8-5,10-10,10h-45l18.3,18.3c1.7,1.7,3.3,4.2,3.3,7.5
	c0,5.8-5,10-10,10C-287.8,443.6-290.3,441.9-292,440.2z"/>
</svg>
