<?xml version="1.0" encoding="utf-8"?>
<!-- Generator: Adobe Illustrator 19.0.0, SVG Export Plug-In . SVG Version: 6.00 Build 0)  -->
<svg version="1.1" id="Layer_1" xmlns="http://www.w3.org/2000/svg" xmlns:xlink="http://www.w3.org/1999/xlink" x="0px" y="0px"
	 viewBox="-362 321.9 150 150" style="enable-background:new -362 321.9 150 150;" xml:space="preserve">
<path id="XMLID_30_" d="M-324.5,331.9c-11.7,6.7-20.8,15.8-27.5,27.5s-10,24.2-10,37.5s3.3,25.8,10,37.5
	c6.7,11.7,15.8,20.8,27.5,27.5s24.2,10,37.5,10s25.8-3.3,37.5-10c11.7-6.7,20.8-15.8,27.5-27.5s10-24.2,10-37.5s-3.3-25.8-10-37.5
	c-6.7-11.7-15.8-20.8-27.5-27.5c-11.7-6.7-24.2-10-37.5-10S-312.8,325.2-324.5,331.9z M-282,353.6L-282,353.6l32.5,32.5l7.5,7.5
	c0.8,0.8,1.7,2.5,1.7,3.3s-0.8,2.5-1.7,3.3l-7.5,7.5l-32.5,32.5l0,0c-1.7,1.7-4.2,3.3-7.5,3.3c-5.8,0-10-5-10-10
	c0-2.5,0.8-5.8,3.3-7.5l18.3-18.3h-45c-5.8,0-10-5-10-10c0-5.8,5-10,10-10h45l-18.3-18.3c-1.7-1.7-3.3-4.2-3.3-7.5c0-5.8,5-10,10-10
	C-286.2,350.2-283.7,351.9-282,353.6z"/>
</svg>
