<?xml version="1.0" encoding="utf-8"?>
<!-- Generator: Adobe Illustrator 19.0.0, SVG Export Plug-In . SVG Version: 6.00 Build 0)  -->
<svg version="1.1" id="Layer_1" xmlns="http://www.w3.org/2000/svg" xmlns:xlink="http://www.w3.org/1999/xlink" x="0px" y="0px"
	 viewBox="-296 387.8 18 18.2" style="enable-background:new -296 387.8 18 18.2;" xml:space="preserve">
<path id="XMLID_66_" d="M-279.6,401.2c-0.3-0.3-0.6-0.7-0.9-1.2c-0.3-0.5-0.5-1-0.7-1.6s-0.4-1.3-0.5-2.1s-0.2-1.7-0.2-2.6
	c0-1-0.4-2-1.2-2.8c-0.8-0.9-1.8-1.4-3.1-1.6c0.1-0.1,0.1-0.3,0.1-0.4c0-0.3-0.1-0.5-0.3-0.7c-0.2-0.2-0.4-0.3-0.7-0.3
	s-0.5,0.1-0.7,0.3c-0.2,0.2-0.3,0.4-0.3,0.7c0,0.1,0,0.3,0.1,0.4c-1.3,0.2-2.3,0.7-3.1,1.6c-0.8,0.9-1.2,1.8-1.2,2.8
	c0,0.9-0.1,1.8-0.2,2.6s-0.3,1.5-0.5,2.1c-0.2,0.6-0.5,1.1-0.7,1.6c-0.3,0.5-0.6,0.9-0.9,1.2c-0.3,0.3-0.6,0.6-0.9,0.9
	c0,0.3,0.1,0.6,0.4,0.9c0.3,0.3,0.6,0.4,0.9,0.4h4.5c0,0.7,0.3,1.3,0.8,1.8c0.5,0.5,1.1,0.8,1.8,0.8s1.3-0.3,1.8-0.8
	c0.5-0.5,0.8-1.1,0.8-1.8h4.5c0.3,0,0.6-0.1,0.9-0.4s0.4-0.6,0.4-0.9C-279,401.8-279.3,401.5-279.6,401.2z M-287.7,390.9
	c-0.7,0-1.4,0.3-1.9,0.8c-0.5,0.5-0.8,1.2-0.8,1.9c0,0.2-0.1,0.3-0.3,0.3s-0.3-0.1-0.3-0.3c0-0.9,0.3-1.7,1-2.4c0.7-0.7,1.4-1,2.4-1
	c0.2,0,0.3,0.1,0.3,0.3C-287.4,390.8-287.5,390.9-287.7,390.9z"/>
</svg>
