<?xml version="1.0" encoding="utf-8"?>
<!-- Generator: Adobe Illustrator 19.0.0, SVG Export Plug-In . SVG Version: 6.00 Build 0)  -->
<svg version="1.1" id="Layer_1" xmlns="http://www.w3.org/2000/svg" xmlns:xlink="http://www.w3.org/1999/xlink" x="0px" y="0px"
	 viewBox="-362 321.9 150 150" style="enable-background:new -362 321.9 150 150;" xml:space="preserve">
<path id="XMLID_66_" d="M-224.8,432.1c-2.5-2.5-5-5.8-7.5-9.9c-2.5-4.1-4.1-8.3-5.8-13.3s-3.3-10.8-4.1-17.4
	c-0.8-6.6-1.7-14.1-1.7-21.5c0-8.3-3.3-16.6-9.9-23.2c-6.6-7.5-14.9-11.6-25.7-13.3c0.8-0.8,0.8-2.5,0.8-3.3c0-2.5-0.8-4.1-2.5-5.8
	c-1.7-1.7-3.3-2.5-5.8-2.5c-2.5,0-4.1,0.8-5.8,2.5c-1.7,1.7-2.5,3.3-2.5,5.8c0,0.8,0,2.5,0.8,3.3c-10.8,1.7-19.1,5.8-25.7,13.3
	c-6.6,7.5-9.9,14.9-9.9,23.2c0,7.5-0.8,14.9-1.7,21.5c-0.8,6.6-2.5,12.4-4.1,17.4s-4.1,9.1-5.8,13.3c-2.5,4.1-5,7.5-7.5,9.9
	c-2.5,2.5-5,5-7.5,7.5c0,2.5,0.8,5,3.3,7.5s5,3.3,7.5,3.3h37.3c0,5.8,2.5,10.8,6.6,14.9c4.1,4.1,9.1,6.6,14.9,6.6s10.8-2.5,14.9-6.6
	c4.1-4.1,6.6-9.1,6.6-14.9h37.3c2.5,0,5-0.8,7.5-3.3c2.5-2.5,3.3-5,3.3-7.5C-219.9,437.1-222.4,434.6-224.8,432.1z M-292,346.8
	c-5.8,0-11.6,2.5-15.7,6.6c-4.1,4.1-6.6,9.9-6.6,15.7c0,1.7-0.8,2.5-2.5,2.5c-1.7,0-2.5-0.8-2.5-2.5c0-7.5,2.5-14.1,8.3-19.9
	c5.8-5.8,11.6-8.3,19.9-8.3c1.7,0,2.5,0.8,2.5,2.5C-289.5,345.9-290.3,346.8-292,346.8z"/>
</svg>
