<?xml version="1.0" encoding="utf-8"?>
<!-- Generator: Adobe Illustrator 19.0.0, SVG Export Plug-In . SVG Version: 6.00 Build 0)  -->
<svg version="1.1" id="Layer_1" xmlns="http://www.w3.org/2000/svg" xmlns:xlink="http://www.w3.org/1999/xlink" x="0px" y="0px"
	 viewBox="-230 322 150 150" style="enable-background:new -230 322 150 150;" xml:space="preserve">
<path id="XMLID_99_" d="M-155,322c-41.7,0-75,33.3-75,75s33.3,75,75,75s75-33.3,75-75S-113.3,322-155,322z M-207.5,397
	c0-29.2,23.3-52.5,52.5-52.5c10.8,0,20,3.3,28.3,8.3l-72.5,72.5C-205,417-207.5,407.8-207.5,397z M-155,449.5
	c-10.8,0-20-3.3-28.3-8.3l72.5-72.5c5,8.3,8.3,18.3,8.3,28.3C-102.5,426.2-125.8,449.5-155,449.5z"/>
</svg>
