<?xml version="1.0" encoding="utf-8"?>
<!-- Generator: Adobe Illustrator 19.0.0, SVG Export Plug-In . SVG Version: 6.00 Build 0)  -->
<svg version="1.1" id="Layer_1" xmlns="http://www.w3.org/2000/svg" xmlns:xlink="http://www.w3.org/1999/xlink" x="0px" y="0px"
	 viewBox="-296 387.8 18 18.2" style="enable-background:new -296 387.8 18 18.2;" xml:space="preserve">
<path id="XMLID_99_" d="M-287,387.9c-5,0-9,4-9,9s4,9,9,9c5,0,9-4,9-9S-282,387.9-287,387.9z M-293.3,396.9c0-3.5,2.8-6.3,6.3-6.3
	c1.3,0,2.4,0.4,3.4,1l-8.7,8.7C-293,399.3-293.3,398.2-293.3,396.9z M-287,403.2c-1.3,0-2.4-0.4-3.4-1l8.7-8.7c0.6,1,1,2.2,1,3.4
	C-280.7,400.4-283.5,403.2-287,403.2z"/>
</svg>
