<?xml version="1.0" encoding="utf-8"?>
<!-- Generator: Adobe Illustrator 19.0.0, SVG Export Plug-In . SVG Version: 6.00 Build 0)  -->
<svg version="1.1" id="Layer_1" xmlns="http://www.w3.org/2000/svg" xmlns:xlink="http://www.w3.org/1999/xlink" x="0px" y="0px"
	 viewBox="-362 321.9 150 150" style="enable-background:new -362 321.9 150 150;" xml:space="preserve">
<g>
	<path d="M-287,361.9c-19.5,0-35,15.5-35,35c0,7.2,1.7,13.3,5.5,18.9l48.3-48.3C-273.7,364.1-279.8,361.9-287,361.9z"/>
	<path d="M-305.9,426.4c5.5,3.3,11.7,5.5,18.9,5.5c19.5,0,35-15.5,35-35c0-6.7-2.2-13.3-5.5-18.9L-305.9,426.4z"/>
	<path d="M-287,321.9c-41.4,0-75,33.6-75,75c0,41.4,33.6,75,75,75c41.4,0,75-33.6,75-75C-212,355.5-245.6,321.9-287,321.9z
		 M-287,446.9c-27.8,0-50-22.2-50-50s22.2-50,50-50c27.8,0,50,22.2,50,50S-259.2,446.9-287,446.9z"/>
</g>
</svg>
