<?xml version="1.0" encoding="utf-8"?>
<!-- Generator: Adobe Illustrator 19.0.0, SVG Export Plug-In . SVG Version: 6.00 Build 0)  -->
<svg version="1.1" id="Layer_1" xmlns="http://www.w3.org/2000/svg" xmlns:xlink="http://www.w3.org/1999/xlink" x="0px" y="0px"
	 viewBox="-296 387.8 18 18.2" style="enable-background:new -296 387.8 18 18.2;" xml:space="preserve">
<g id="XMLID_75_">
	<path id="XMLID_77_" d="M-287,392.8c-2.3,0-4.3,1.9-4.3,4.3c0,0.8,0.3,1.6,0.7,2.3l5.9-5.9C-285.4,393-286.2,392.8-287,392.8z"/>
	<path id="XMLID_80_" d="M-289.3,400.6c0.7,0.4,1.5,0.7,2.3,0.7c2.3,0,4.3-1.9,4.3-4.3c0-0.8-0.3-1.6-0.7-2.3L-289.3,400.6z"/>
	<path id="XMLID_103_" d="M-287,387.9c-5,0-9,4-9,9c0,5,4,9,9,9c5,0,9-4,9-9C-278,391.9-282,387.9-287,387.9z M-287,403.1
		c-3.3,0-6-2.7-6-6s2.7-6,6-6c3.3,0,6,2.7,6,6S-283.7,403.1-287,403.1z"/>
</g>
</svg>
