<?xml version="1.0" encoding="utf-8"?>
<!-- Generator: Adobe Illustrator 19.2.1, SVG Export Plug-In . SVG Version: 6.00 Build 0)  -->
<svg version="1.1" id="Camada_1" xmlns="http://www.w3.org/2000/svg" xmlns:xlink="http://www.w3.org/1999/xlink" x="0px" y="0px"
	 width="150px" height="150px" viewBox="0 0 150 150" enable-background="new 0 0 150 150" xml:space="preserve">
<path fill="#353535" d="M133.9,0H16.1C10,0,5,5,5,11.1v127.8C5,145,10,150,16.1,150h117.8c6.1,0,11.1-5,11.1-11.1V11.1
	C145,5,140,0,133.9,0z M26.5,139.5c-6.1,0-11-4.9-11-11c0-6.1,4.9-11,11-11s11,4.9,11,11C37.5,134.6,32.6,139.5,26.5,139.5z
	 M26.5,108.6c-6.1,0-11-4.9-11-11c0-6.1,4.9-11,11-11s11,4.9,11,11C37.5,103.7,32.6,108.6,26.5,108.6z M26.5,75.5
	c-6.1,0-11-4.9-11-11c0-6.1,4.9-11,11-11s11,4.9,11,11C37.5,70.6,32.6,75.5,26.5,75.5z M59.3,139.5c-6.1,0-11-4.9-11-11
	c0-6.1,4.9-11,11-11c6.1,0,11,4.9,11,11C70.3,134.6,65.4,139.5,59.3,139.5z M59.3,108.6c-6.1,0-11-4.9-11-11c0-6.1,4.9-11,11-11
	c6.1,0,11,4.9,11,11C70.3,103.7,65.4,108.6,59.3,108.6z M59.3,75.5c-6.1,0-11-4.9-11-11c0-6.1,4.9-11,11-11c6.1,0,11,4.9,11,11
	C70.3,70.6,65.4,75.5,59.3,75.5z M91.2,139.5c-6.1,0-11-4.9-11-11c0-6.1,4.9-11,11-11c6.1,0,11,4.9,11,11
	C102.2,134.6,97.2,139.5,91.2,139.5z M91.2,108.6c-6.1,0-11-4.9-11-11c0-6.1,4.9-11,11-11c6.1,0,11,4.9,11,11
	C102.2,103.7,97.2,108.6,91.2,108.6z M91.2,75.5c-6.1,0-11-4.9-11-11c0-6.1,4.9-11,11-11c6.1,0,11,4.9,11,11
	C102.2,70.6,97.2,75.5,91.2,75.5z M134.5,128.5c0,6.1-4.9,11-11,11s-11-4.9-11-11v-32c0-6.1,4.9-11,11-11s11,4.9,11,11V128.5z
	 M123.5,75.5c-6.1,0-11-4.9-11-11c0-6.1,4.9-11,11-11s11,4.9,11,11C134.5,70.6,129.6,75.5,123.5,75.5z M134.5,37.9
	c0,3.1-2.5,5.6-5.6,5.6H21.1c-3.1,0-5.6-2.5-5.6-5.6V16.1c0-3.1,2.5-5.6,5.6-5.6h107.7c3.1,0,5.6,2.5,5.6,5.6V37.9z"/>
</svg>
