<?xml version="1.0" encoding="utf-8"?>
<!-- Generator: Adobe Illustrator 19.0.0, SVG Export Plug-In . SVG Version: 6.00 Build 0)  -->
<svg version="1.1" id="Layer_1" xmlns="http://www.w3.org/2000/svg" xmlns:xlink="http://www.w3.org/1999/xlink" x="0px" y="0px"
	 viewBox="-296 387.8 18 18.2" style="enable-background:new -296 387.8 18 18.2;" xml:space="preserve">
<g id="XMLID_67_">
	<path id="XMLID_173_" d="M-292.8,400.5c-0.1,0-0.3,0.1-0.3,0.3v3.1c0,0.1,0.1,0.3,0.3,0.3h1.9c0.1,0,0.3-0.1,0.3-0.3v-3.1
		c0-0.1-0.1-0.3-0.3-0.3H-292.8z"/>
	<path id="XMLID_172_" d="M-287.5,397.8h-1.9c-0.1,0-0.3,0.1-0.3,0.3v5.7c0,0.1,0.1,0.3,0.3,0.3h1.9c0.1,0,0.3-0.1,0.3-0.3v-5.7
		C-287.3,397.9-287.4,397.8-287.5,397.8z"/>
	<path id="XMLID_171_" d="M-286,395.2c-0.1,0-0.3,0.1-0.3,0.3v8.4c0,0.1,0.1,0.3,0.3,0.3h1.9c0.1,0,0.3-0.1,0.3-0.3v-8.4
		c0-0.1-0.1-0.3-0.3-0.3H-286z"/>
	<path id="XMLID_170_" d="M-282.8,392.8v11c0,0.1,0.1,0.3,0.3,0.3h1.9c0.1,0,0.3-0.1,0.3-0.3v-11c0-0.1-0.1-0.3-0.3-0.3h-1.9
		C-282.7,392.5-282.8,392.6-282.8,392.8z"/>
	<path id="XMLID_166_" d="M-295.7,405h17.5c0.1,0,0.3-0.1,0.3-0.3s-0.1-0.3-0.3-0.3h-17.5c-0.1,0-0.3,0.1-0.3,0.3
		S-295.9,405-295.7,405z"/>
	<path id="XMLID_68_" d="M-293.8,399.5c0,0,0.1,0,0.1,0c0,0,3.8-1.9,6.4-4.1c1.9-1.7,3.5-4.2,4.2-5.4l0,0.2c0,0.1,0.1,0.2,0.3,0.2
		c0,0,0,0,0,0c0.1,0,0.2-0.2,0.2-0.3l-0.1-1c0-0.1-0.1-0.1-0.1-0.2c0,0,0,0,0,0c0,0-0.1,0-0.1,0c0,0-0.1,0-0.1,0l-0.9,0.4
		c-0.1,0.1-0.2,0.2-0.1,0.3c0.1,0.1,0.2,0.2,0.3,0.1l0.2-0.1c-0.7,1.2-2.3,3.7-4.1,5.3c-2.5,2.2-6.2,4-6.3,4.1
		c-0.1,0.1-0.2,0.2-0.1,0.4C-294,399.4-293.9,399.5-293.8,399.5z"/>
</g>
</svg>
