<?xml version="1.0" encoding="utf-8"?>
<!-- Generator: Adobe Illustrator 19.0.0, SVG Export Plug-In . SVG Version: 6.00 Build 0)  -->
<svg version="1.1" id="Layer_1" xmlns="http://www.w3.org/2000/svg" xmlns:xlink="http://www.w3.org/1999/xlink" x="0px" y="0px"
	 viewBox="-362 321.9 150 150" style="enable-background:new -362 321.9 150 150;" xml:space="preserve">
<g id="XMLID_67_">
	<path id="XMLID_173_" d="M-335.5,426.3c-0.8,0-2.5,0.8-2.5,2.5v25.7c0,0.8,0.8,2.5,2.5,2.5h15.7c0.8,0,2.5-0.8,2.5-2.5v-25.7
		c0-0.8-0.8-2.5-2.5-2.5H-335.5z"/>
	<path id="XMLID_172_" d="M-291.6,403.9h-15.7c-0.8,0-2.5,0.8-2.5,2.5v47.2c0,0.8,0.8,2.5,2.5,2.5h15.7c0.8,0,2.5-0.8,2.5-2.5v-47.2
		C-289.9,404.8-290.7,403.9-291.6,403.9z"/>
	<path id="XMLID_171_" d="M-279.1,382.4c-0.8,0-2.5,0.8-2.5,2.5v69.6c0,0.8,0.8,2.5,2.5,2.5h15.7c0.8,0,2.5-0.8,2.5-2.5v-69.6
		c0-0.8-0.8-2.5-2.5-2.5H-279.1z"/>
	<path id="XMLID_170_" d="M-252.6,362.5v91.2c0,0.8,0.8,2.5,2.5,2.5h15.7c0.8,0,2.5-0.8,2.5-2.5v-91.2c0-0.8-0.8-2.5-2.5-2.5h-15.7
		C-251.8,360-252.6,360.9-252.6,362.5z"/>
	<path id="XMLID_166_" d="M-359.5,463.6h145c0.8,0,2.5-0.8,2.5-2.5c0-1.7-0.8-2.5-2.5-2.5h-145c-0.8,0-2.5,0.8-2.5,2.5
		C-362,462.8-361.2,463.6-359.5,463.6z"/>
	<path id="XMLID_68_" d="M-343.8,418h0.8c0,0,31.5-15.7,53-34c15.7-14.1,29-34.8,34.8-44.8v1.7c0,0.8,0.8,1.7,2.5,1.7l0,0
		c0.8,0,1.7-1.7,1.7-2.5l-0.8-8.3c0-0.8-0.8-0.8-0.8-1.7l0,0h-0.8h-0.8l-7.5,3.3c-0.8,0.8-1.7,1.7-0.8,2.5c0.8,0.8,1.7,1.7,2.5,0.8
		l1.7-0.8c-5.8,9.9-19.1,30.7-34,43.9c-20.7,18.2-51.4,33.1-52.2,34c-0.8,0.8-1.7,1.7-0.8,3.3C-345.4,417.2-344.6,418-343.8,418z"/>
</g>
</svg>
