<?xml version="1.0" encoding="utf-8"?>
<!-- Generator: Adobe Illustrator 19.0.0, SVG Export Plug-In . SVG Version: 6.00 Build 0)  -->
<svg version="1.1" id="Layer_1" xmlns="http://www.w3.org/2000/svg" xmlns:xlink="http://www.w3.org/1999/xlink" x="0px" y="0px"
	 viewBox="-362 321.9 150 150" style="enable-background:new -362 321.9 150 150;" xml:space="preserve">
<g id="XMLID_72_">
	<path id="XMLID_133_" d="M-212,391.1h-69.2v-69.2c12.5,0,24.2,3.3,35,9.2c10.8,5.8,19.2,15,25,25C-215.3,366.9-212,378.6-212,391.1
		z"/>
	<path id="XMLID_129_" d="M-223.7,401.9h-69.2v-68.3c-12.5,0-24.2,3.3-35,9.2c-10.8,5.8-19.2,15-25,25c-5.8,10-9.2,22.5-9.2,35
		s3.3,24.2,9.2,35s15,19.2,25,25s22.5,9.2,35,9.2c9.2,0,18.3-1.7,26.7-5s15.8-8.3,21.7-15l0,0l0,0l0,0l0,0
		c5.8-6.7,10.8-13.3,15-21.7C-225.3,421.1-223.7,411.9-223.7,401.9z"/>
</g>
</svg>
