<?xml version="1.0" encoding="utf-8"?>
<!-- Generator: Adobe Illustrator 19.0.0, SVG Export Plug-In . SVG Version: 6.00 Build 0)  -->
<svg version="1.1" id="Layer_1" xmlns="http://www.w3.org/2000/svg" xmlns:xlink="http://www.w3.org/1999/xlink" x="0px" y="0px"
	 viewBox="-296 387.8 18 18.2" style="enable-background:new -296 387.8 18 18.2;" xml:space="preserve">
<g id="XMLID_72_">
	<path id="XMLID_133_" d="M-278,396.2h-8.3v-8.3c1.5,0,2.9,0.4,4.2,1.1c1.3,0.7,2.3,1.8,3,3C-278.4,393.3-278,394.7-278,396.2z"/>
	<path id="XMLID_129_" d="M-279.4,397.5h-8.3v-8.2c-1.5,0-2.9,0.4-4.2,1.1c-1.3,0.7-2.3,1.8-3,3s-1.1,2.7-1.1,4.2
		c0,1.5,0.4,2.9,1.1,4.2s1.8,2.3,3,3s2.7,1.1,4.2,1.1c1.1,0,2.2-0.2,3.2-0.6c1-0.4,1.9-1,2.6-1.8l0,0c0,0,0,0,0,0c0,0,0,0,0,0l0,0
		c0.7-0.8,1.3-1.6,1.8-2.6C-279.6,399.8-279.4,398.7-279.4,397.5z"/>
</g>
</svg>
