<?xml version="1.0" encoding="utf-8"?>
<!-- Generator: Adobe Illustrator 19.0.0, SVG Export Plug-In . SVG Version: 6.00 Build 0)  -->
<svg version="1.1" id="Layer_1" xmlns="http://www.w3.org/2000/svg" xmlns:xlink="http://www.w3.org/1999/xlink" x="0px" y="0px"
	 viewBox="-362 321.9 150 150" style="enable-background:new -362 321.9 150 150;" xml:space="preserve">
<path id="XMLID_116_" d="M-287,321.9c-41.7,0-75,33.3-75,75s33.3,75,75,75s75-33.3,75-75S-245.3,321.9-287,321.9z M-252.8,414.4
	c5,5,5,12.5,0,17.5c-5,5-12.5,5-17.5,0l-16.7-16.7l-17.5,17.5c-5,5-12.5,5-17.5,0c-5-5-5-12.5,0-17.5l17.5-17.5l-17.5-17.5
	c-5-5-5-12.5,0-17.5c5-5,12.5-5,17.5,0l17.5,17.5l17.5-17.5c5-5,12.5-5,17.5,0s5,12.5,0,17.5l-17.5,17.5L-252.8,414.4z"/>
</svg>
