<?xml version="1.0" encoding="utf-8"?>
<!-- Generator: Adobe Illustrator 19.0.0, SVG Export Plug-In . SVG Version: 6.00 Build 0)  -->
<svg version="1.1" id="Layer_1" xmlns="http://www.w3.org/2000/svg" xmlns:xlink="http://www.w3.org/1999/xlink" x="0px" y="0px"
	 viewBox="-362 321.9 150 150" style="enable-background:new -362 321.9 150 150;" xml:space="preserve">
<g id="XMLID_160_">
	<g id="XMLID_161_">
		<g id="XMLID_162_">
			<g id="XMLID_163_">
				<path id="XMLID_158_" d="M-357.6,447.7c-5.8,5.8-5.8,14.1,0,20c2.5,2.5,6.7,4.2,10,4.2s7.5-1.7,10-4.2l45.8-45.8l-20-20
					L-357.6,447.7z"/>
				<polygon id="XMLID_157_" points="-242.8,362.8 -222.8,352 -212,332 -222,322 -242,332.8 -252.8,352.8 -276.9,376.9 
					-266.9,386.9 				"/>
				<path id="XMLID_155_" d="M-237.8,416h-1.7c-3.3,0-6.7,0.8-10,1.7l-57.4-57.4c0.8-3.3,1.7-6.7,1.7-10v-1.7
					c-0.8-15-13.3-25.8-27.5-25.8c-4.2,0-8.3,0.8-11.7,2.5l18.3,18.3c0.8,0.8,1.7,2.5,2.5,3.3c0.8,3.3,0.8,7.5-2.5,10
					c-1.7,1.7-4.2,2.5-6.7,2.5c-0.8,0-2.5,0-3.3-0.8c-0.8-0.8-2.5-0.8-3.3-2.5l-18.3-18.3c-1.7,3.3-2.5,7.5-2.5,11.7
					c0,15,11.7,26.6,25.8,27.5h1.7c3.3,0,6.7-0.8,10-1.7l57.4,57.4c-0.8,3.3-1.7,6.7-1.7,10v1.7c0.8,15,13.3,25.8,27.5,25.8
					c4.2,0,8.3-0.8,11.7-2.5l-18.3-18.3c-0.8-0.8-1.7-2.5-2.5-3.3c-0.8-3.3-0.8-7.5,2.5-10c1.7-1.7,4.2-2.5,6.7-2.5
					c0.8,0,2.5,0,3.3,0.8c0.8,0.8,2.5,0.8,3.3,2.5l18.3,18.3c1.7-3.3,2.5-7.5,2.5-11.7C-212,428.5-223.7,416.9-237.8,416z"/>
			</g>
		</g>
	</g>
</g>
</svg>
