<?xml version="1.0" encoding="utf-8"?>
<!-- Generator: Adobe Illustrator 19.0.0, SVG Export Plug-In . SVG Version: 6.00 Build 0)  -->
<svg version="1.1" id="Layer_1" xmlns="http://www.w3.org/2000/svg" xmlns:xlink="http://www.w3.org/1999/xlink" x="0px" y="0px"
	 viewBox="-296 387.8 18 18.2" style="enable-background:new -296 387.8 18 18.2;" xml:space="preserve">
<g id="XMLID_160_">
	<g id="XMLID_161_">
		<g id="XMLID_162_">
			<g id="XMLID_163_">
				<path id="XMLID_158_" d="M-295.5,403c-0.7,0.7-0.7,1.7,0,2.4c0.3,0.3,0.8,0.5,1.2,0.5s0.9-0.2,1.2-0.5l5.5-5.5l-2.4-2.4
					L-295.5,403z"/>
				<polygon id="XMLID_157_" points="-281.7,392.8 -279.3,391.5 -278,389.1 -279.2,387.9 -281.6,389.2 -282.9,391.6 -285.8,394.5 
					-284.6,395.7 				"/>
				<path id="XMLID_155_" d="M-281.1,399.2l-0.2,0c-0.4,0-0.8,0.1-1.2,0.2l-6.9-6.9c0.1-0.4,0.2-0.8,0.2-1.2l0-0.2
					c-0.1-1.8-1.6-3.1-3.3-3.1c-0.5,0-1,0.1-1.4,0.3l2.2,2.2c0.1,0.1,0.2,0.3,0.3,0.4c0.1,0.4,0.1,0.9-0.3,1.2
					c-0.2,0.2-0.5,0.3-0.8,0.3c-0.1,0-0.3,0-0.4-0.1c-0.1-0.1-0.3-0.1-0.4-0.3l-2.2-2.2c-0.2,0.4-0.3,0.9-0.3,1.4
					c0,1.8,1.4,3.2,3.1,3.3l0.2,0c0.4,0,0.8-0.1,1.2-0.2l6.9,6.9c-0.1,0.4-0.2,0.8-0.2,1.2l0,0.2c0.1,1.8,1.6,3.1,3.3,3.1
					c0.5,0,1-0.1,1.4-0.3l-2.2-2.2c-0.1-0.1-0.2-0.3-0.3-0.4c-0.1-0.4-0.1-0.9,0.3-1.2c0.2-0.2,0.5-0.3,0.8-0.3c0.1,0,0.3,0,0.4,0.1
					c0.1,0.1,0.3,0.1,0.4,0.3l2.2,2.2c0.2-0.4,0.3-0.9,0.3-1.4C-278,400.7-279.4,399.3-281.1,399.2z"/>
			</g>
		</g>
	</g>
</g>
</svg>
