<?xml version="1.0" encoding="utf-8"?>
<!-- Generator: Adobe Illustrator 19.0.0, SVG Export Plug-In . SVG Version: 6.00 Build 0)  -->
<svg version="1.1" id="Layer_1" xmlns="http://www.w3.org/2000/svg" xmlns:xlink="http://www.w3.org/1999/xlink" x="0px" y="0px"
	 viewBox="-362 321.9 150 150" style="enable-background:new -362 321.9 150 150;" xml:space="preserve">
<g id="XMLID_154_">
	<path id="XMLID_175_" d="M-234.1,411.2v-0.8c0-0.8,0-0.8,0-1.6c0-26.2,0-53.3,0-79.5c0-3.3-2.5-5.7-6.6-5.7
		c-13.9,0.8-25.4,9-29.5,23.8c-1.6,6.6-0.8,13.9-1.6,20.5c-0.8,7.4,0,15.6,0,23c0,6.6,0,12.3,0,18.9c0,1.6,0,3.3,1.6,4.1
		c3.3,0,5.7,0,9,0c0,14.8,0,28.7,0,43.4c0,1.6,0,3.3,0.8,4.9c2.5,7.4,7.4,9.8,13.1,9.8c7.4,0,12.3-5.7,12.3-13.1s0-15.6,0-23l0,0
		C-234.1,426.8-234.1,419.4-234.1,411.2z"/>
	<path id="XMLID_176_" d="M-303.8,323.5c-3.3,0-5.7,3.3-5.7,8.2c0,7.4,0,15.6,0,23c0,1.6,0.8,3.3-1.6,3.3c-3.3,0-1.6-2.5-1.6-4.1
		c0-7.4,0-15.6,0-23c0-5.7-2.5-9-5.7-9c-3.3,0-5.7,3.3-5.7,8.2c0,9,0.8,16.4,0,26.2c-0.8,1.6-4.1,1.6-4.1-0.8c0-8.2,0-15.6,0-23.8
		c0-0.8,0-1.6,0-3.3c0-3.3-3.3-6.6-6.6-6.6s-4.9,2.5-4.9,6.6c0,11.5,0,23,0,33.6c0,8.2,4.9,14.8,12.3,17.2c2.5,0.8,3.3,1.6,2.5,4.1
		c0,6.6,0,13.1,0,19.7c-0.8,0-0.8,0-1.6,0c-4.1,0-5.7,1.6-5.7,6.6c0,15.6,0,31.1,0,46.7c0,3.3,0.8,6.6,3.3,9
		c6.6,6.6,13.9,5.7,19.7,0.8c3.3-2.5,4.1-7.4,4.1-11.5c0-7.4,0-14.8,0-21.3c0-7.4,0-14.8,0-22.1c0-4.1-1.6-6.6-6.6-6.6
		c-0.8,0-0.8,0-1.6,0c0-6.6,0-12.3,0-18.9c0-3.3,0.8-4.9,4.1-4.9c0.8,0,2.5-0.8,3.3-1.6c6.6-4.1,9-10.7,9-17.2c0-9.8,0-19.7,0-30.3
		C-298.1,326.8-300.5,323.5-303.8,323.5z"/>
</g>
</svg>
