<?xml version="1.0" encoding="utf-8"?>
<!-- Generator: Adobe Illustrator 19.0.0, SVG Export Plug-In . SVG Version: 6.00 Build 0)  -->
<svg version="1.1" id="Layer_1" xmlns="http://www.w3.org/2000/svg" xmlns:xlink="http://www.w3.org/1999/xlink" x="0px" y="0px"
	 viewBox="-296 387.8 18 18.2" style="enable-background:new -296 387.8 18 18.2;" xml:space="preserve">
<g id="XMLID_154_">
	<path id="XMLID_175_" d="M-280.5,398.6c0,0,0-0.1,0-0.1c0-0.1,0-0.1,0-0.2c0-3.2,0-6.5,0-9.7c0-0.4-0.3-0.7-0.8-0.7
		c-1.7,0.1-3.1,1.1-3.6,2.9c-0.2,0.8-0.1,1.7-0.2,2.5c-0.1,0.9,0,1.9,0,2.8c0,0.8,0,1.5,0,2.3c0,0.2,0,0.4,0.2,0.5
		c0.4,0,0.7,0,1.1,0c0,1.8,0,3.5,0,5.3c0,0.2,0,0.4,0.1,0.6c0.3,0.9,0.9,1.2,1.6,1.2c0.9,0,1.5-0.7,1.5-1.6c0-0.9,0-1.9,0-2.8
		c0,0,0,0,0,0C-280.5,400.5-280.5,399.6-280.5,398.6z"/>
	<path id="XMLID_176_" d="M-289,387.9c-0.4,0-0.7,0.4-0.7,1c0,0.9,0,1.9,0,2.8c0,0.2,0.1,0.4-0.2,0.4c-0.4,0-0.2-0.3-0.2-0.5
		c0-0.9,0-1.9,0-2.8c0-0.7-0.3-1.1-0.7-1.1c-0.4,0-0.7,0.4-0.7,1c0,1.1,0.1,2,0,3.2c-0.1,0.2-0.5,0.2-0.5-0.1c0-1,0-1.9,0-2.9
		c0-0.1,0-0.2,0-0.4c0-0.4-0.4-0.8-0.8-0.8c-0.4,0-0.6,0.3-0.6,0.8c0,1.4,0,2.8,0,4.1c0,1,0.6,1.8,1.5,2.1c0.3,0.1,0.4,0.2,0.3,0.5
		c0,0.8,0,1.6,0,2.4c-0.1,0-0.1,0-0.2,0c-0.5,0-0.7,0.2-0.7,0.8c0,1.9,0,3.8,0,5.7c0,0.4,0.1,0.8,0.4,1.1c0.8,0.8,1.7,0.7,2.4,0.1
		c0.4-0.3,0.5-0.9,0.5-1.4c0-0.9,0-1.8,0-2.6c0-0.9,0-1.8,0-2.7c0-0.5-0.2-0.8-0.8-0.8c-0.1,0-0.1,0-0.2,0c0-0.8,0-1.5,0-2.3
		c0-0.4,0.1-0.6,0.5-0.6c0.1,0,0.3-0.1,0.4-0.2c0.8-0.5,1.1-1.3,1.1-2.1c0-1.2,0-2.4,0-3.7C-288.3,388.3-288.6,387.9-289,387.9z"/>
</g>
</svg>
