<?xml version="1.0" encoding="utf-8"?>
<!-- Generator: Adobe Illustrator 19.0.0, SVG Export Plug-In . SVG Version: 6.00 Build 0)  -->
<svg version="1.1" id="Layer_1" xmlns="http://www.w3.org/2000/svg" xmlns:xlink="http://www.w3.org/1999/xlink" x="0px" y="0px"
	 viewBox="-296 387.8 18 18.2" style="enable-background:new -296 387.8 18 18.2;" xml:space="preserve">
<style type="text/css">
	.st0{fill-rule:evenodd;clip-rule:evenodd;}
</style>
<g id="XMLID_64_">
	<path id="XMLID_85_" class="st0" d="M-278,393.6c-0.7,0.7-1.4,1.4-2.1,2.1c-0.1,0.1-0.1,0.2-0.1,0.3c0,2.2,0,4.4,0,6.6
		c0,0.7-0.5,1.2-1.1,1.2c-3.7,0-7.5,0-11.2,0c-0.7,0-1.2-0.5-1.2-1.2c0-4.1,0-8.1,0-12.2c0-0.1,0-0.2,0.2-0.2c2.5,0,5,0,7.5,0
		c0.1,0,0.2,0,0.3-0.1c0.7-0.7,1.3-1.4,2-2c0,0,0.1-0.1,0.1-0.1c-3.5,0-6.9,0-10.4,0c-0.1,0-0.3,0-0.4,0.1c-0.8,0.3-1.4,0.9-1.5,1.8
		c0,4.4,0,8.7,0,13.1c0,0,0,0,0,0.1c0.3,1.7,1.6,2.9,3.4,2.9c3.7,0,7.4,0,11.1,0c1.9,0,3.4-1.5,3.4-3.4c0-2.9,0-5.9,0-8.8
		C-278,393.7-278,393.6-278,393.6z"/>
	<path id="XMLID_86_" class="st0" d="M-289.1,396.1c1,1,2,1.9,2.9,2.9c0.1,0.1,0.2,0.1,0.3,0c2.5-2.5,5.1-5.1,7.6-7.6
		c0,0,0.1-0.1,0.1-0.1c0.2-0.3,0.2-0.6,0-0.9c-0.7-0.7-1.4-1.4-2.2-2.2c-0.1-0.1-0.2-0.2-0.4-0.3c-0.1,0-0.2,0-0.3,0
		c-0.2,0.1-0.4,0.3-0.5,0.4c-2.5,2.5-5,5-7.5,7.5C-289.2,395.9-289.2,396-289.1,396.1z"/>
	<path id="XMLID_87_" class="st0" d="M-291.3,401.1c1.5-0.4,3-0.7,4.5-1.1c-1.1-1.1-2.2-2.2-3.4-3.3
		C-290.5,398.1-290.9,399.6-291.3,401.1z"/>
</g>
</svg>
