<?xml version="1.0" encoding="utf-8"?>
<!-- Generator: Adobe Illustrator 19.2.1, SVG Export Plug-In . SVG Version: 6.00 Build 0)  -->
<svg version="1.1" id="Camada_1" xmlns="http://www.w3.org/2000/svg" xmlns:xlink="http://www.w3.org/1999/xlink" x="0px" y="0px"
	 width="150px" height="150px" viewBox="0 0 150 150" enable-background="new 0 0 150 150" xml:space="preserve">
<g>
	<g>
		<path fill="#353535" d="M147.5,21L129,2.5c-3.3-3.3-8.7-3.3-12,0l-4.2,4.3l30.6,30.4l4.2-4.3C150.8,29.7,150.8,24.3,147.5,21z"/>
		<path fill="#353535" d="M108.9,10.8L47.2,72.9l-8,37.1c-0.2,0.9,0.3,1.4,1.2,1.2l37.2-8l61.8-62.1L108.9,10.8z M70.8,102.1
			l-15.6,3.3l-1-9.4l-9.4-1L48,79.5c0.1-0.6,0.9-0.8,1.3-0.3l21.8,21.7C71.5,101.3,71.3,102,70.8,102.1z M109.5,15.7l3.3,3.3
			L56.5,75.6l-3.3-3.3L109.5,15.7z"/>
	</g>
	<g>
		<path fill="#353535" d="M126.3,67.3v59.2c0,2.9-2.4,5.3-5.3,5.3H23.3c-2.9,0-5.3-2.4-5.3-5.3V28.9c0-2.9,2.4-5.3,5.3-5.3h58.9
			l18-18H14.3C6.4,5.6,0,12,0,19.9v115.8c0,7.9,6.4,14.3,14.3,14.3h115.8c7.9,0,14.3-6.4,14.3-14.3V49.2L126.3,67.3z"/>
	</g>
</g>
</svg>
