<?xml version="1.0" encoding="utf-8"?>
<!-- Generator: Adobe Illustrator 19.0.0, SVG Export Plug-In . SVG Version: 6.00 Build 0)  -->
<svg version="1.1" id="Layer_1" xmlns="http://www.w3.org/2000/svg" xmlns:xlink="http://www.w3.org/1999/xlink" x="0px" y="0px"
	 viewBox="-362 321.9 150 150" style="enable-background:new -362 321.9 150 150;" xml:space="preserve">
<g id="XMLID_64_">
	<path id="XMLID_85_" d="M-212.8,369.1c-5.8,5.8-11.6,11.6-17.4,17.4c-0.8,0.8-0.8,1.7-0.8,2.5c0,18.2,0,36.5,0,54.7
		c0,5.8-4.1,9.9-9.1,9.9c-30.7,0-62.2,0-92.8,0c-5.8,0-9.9-4.1-9.9-9.9c0-34,0-67.1,0-101.1c0-0.8,0-1.7,1.7-1.7
		c20.7,0,41.4,0,62.2,0c0.8,0,1.7,0,2.5-0.8c5.8-5.8,10.8-11.6,16.6-16.6l0.8-0.8c-29,0-57.2,0-86.2,0c-0.8,0-2.5,0-3.3,0.8
		c-6.6,2.5-11.6,7.5-12.4,14.9c0,36.5,0,72.1,0,108.6c0,0,0,0,0,0.8c2.5,14.1,13.3,24,28.2,24c30.7,0,61.3,0,92,0
		c15.7,0,28.2-12.4,28.2-28.2c0-24,0-48.9,0-72.9C-212.8,370-212.8,369.1-212.8,369.1z"/>
	<path id="XMLID_86_" d="M-304.8,389.9c8.3,8.3,16.6,15.7,24,24c0.8,0.8,1.7,0.8,2.5,0c20.7-20.7,42.3-42.3,63-63l0.8-0.8
		c1.7-2.5,1.7-5,0-7.5c-5.8-5.8-11.6-11.6-18.2-18.2c-0.8-0.8-1.7-1.7-3.3-2.5c-0.8,0-1.7,0-2.5,0c-1.7,0.8-3.3,2.5-4.1,3.3
		c-20.7,20.7-41.4,41.4-62.2,62.2C-305.6,388.2-305.6,389-304.8,389.9z"/>
	<path id="XMLID_87_" d="M-323,431.3c12.4-3.3,24.9-5.8,37.3-9.1c-9.1-9.1-18.2-18.2-28.2-27.3C-316.4,406.4-319.7,418.9-323,431.3z
		"/>
</g>
</svg>
