<?xml version="1.0" encoding="utf-8"?>
<!-- Generator: Adobe Illustrator 19.0.0, SVG Export Plug-In . SVG Version: 6.00 Build 0)  -->
<svg version="1.1" id="Layer_1" xmlns="http://www.w3.org/2000/svg" xmlns:xlink="http://www.w3.org/1999/xlink" x="0px" y="0px"
	 viewBox="-296 387.8 18 18.2" style="enable-background:new -296 387.8 18 18.2;" xml:space="preserve">
<g id="XMLID_156_">
	<path id="XMLID_180_" d="M-291.9,404.6C-292,404.6-291.9,404.6-291.9,404.6l-2.9-2.9l-1-1c-0.1-0.1-0.2-0.3-0.2-0.5
		c0-0.2,0.1-0.3,0.2-0.5l1-1l2.9-2.9c0,0,0,0,0,0c0.2-0.2,0.6-0.4,1-0.4c0.7,0,1.3,0.6,1.3,1.3c0,0.4-0.2,0.7-0.4,1l-1.1,1.1h11.8
		c0.7,0,1.3,0.6,1.3,1.3c0,0.7-0.6,1.3-1.3,1.3h-11.8l1.1,1.1c0.3,0.2,0.4,0.6,0.4,1c0,0.7-0.6,1.3-1.3,1.3
		C-291.4,405-291.7,404.9-291.9,404.6z"/>
	<path id="XMLID_182_" d="M-282.1,389.2C-282,389.2-282.1,389.2-282.1,389.2l2.9,2.9l1,1c0.1,0.1,0.2,0.3,0.2,0.5s-0.1,0.3-0.2,0.5
		l-1,1l-2.9,2.9c0,0,0,0,0,0c-0.2,0.2-0.6,0.4-1,0.4c-0.7,0-1.3-0.6-1.3-1.3c0-0.4,0.2-0.7,0.4-1l1.1-1.1h-11.8
		c-0.7,0-1.3-0.6-1.3-1.3c0-0.7,0.6-1.3,1.3-1.3h11.8l-1.1-1.1c-0.3-0.2-0.4-0.6-0.4-1c0-0.7,0.6-1.3,1.3-1.3
		C-282.6,388.8-282.3,388.9-282.1,389.2z"/>
</g>
</svg>
