<?xml version="1.0" encoding="utf-8"?>
<!-- Generator: Adobe Illustrator 19.0.0, SVG Export Plug-In . SVG Version: 6.00 Build 0)  -->
<svg version="1.1" id="Layer_1" xmlns="http://www.w3.org/2000/svg" xmlns:xlink="http://www.w3.org/1999/xlink" x="0px" y="0px"
	 viewBox="-230 322 150 150" style="enable-background:new -230 322 150 150;" xml:space="preserve">
<style type="text/css">
	.st0{fill:#00A2C2;}
</style>
<g>
	<g>
		<path class="st0" d="M-130.9,329.9c2-2,4.8-2.7,7.8-2.7s5.7,1,8.1,3l30.8,31.4c1.2,0.8,2.2,2,3,3.6c0.8,1.6,1.2,3.2,1.2,4.8
			c0,3.2-1.4,6-4.2,8.4l-29.2,29.7c-2.4,2-5.1,3-8.1,3c-3,0-5.6-1.1-7.8-3.3c-2.2-2.2-3.3-4.8-3.3-7.8c0-3,1.2-5.7,3.6-8.1
			l10.5-11.1h-100.2c-3.2,0-5.9-1-8.1-3c-2.2-2-3.3-4.6-3.3-7.8c0-3.2,1.1-5.8,3.3-7.8c2.2-2,4.9-3.2,8.1-3.6h100.2l-12.2-12.2
			c-2.4-2.4-3.6-5.1-3.6-8.1c0-3,1-5.7,3-8.1L-130.9,329.9z"/>
	</g>
	<g>
		<path class="st0" d="M-179.1,464.1c-2,2-4.8,2.7-7.8,2.7s-5.7-1-8.1-3l-30.8-31.4c-1.2-0.8-2.2-2-3-3.6c-0.8-1.6-1.2-3.2-1.2-4.8
			c0-3.2,1.4-6,4.2-8.4l29.2-29.7c2.4-2,5.1-3,8.1-3s5.6,1.1,7.8,3.3c2.2,2.2,3.3,4.8,3.3,7.8c0,3-1.2,5.7-3.6,8.1l-10.5,11.1h100.2
			c3.2,0,5.9,1,8.1,3c2.2,2,3.3,4.6,3.3,7.8c0,3.2-1.1,5.8-3.3,7.8c-2.2,2-4.9,3.2-8.1,3.6h-100.2l12.2,12.2
			c2.4,2.4,3.6,5.1,3.6,8.1c0,3-1,5.7-3,8.1L-179.1,464.1z"/>
	</g>
</g>
</svg>
