<?xml version="1.0" encoding="utf-8"?>
<!-- Generator: Adobe Illustrator 19.0.0, SVG Export Plug-In . SVG Version: 6.00 Build 0)  -->
<svg version="1.1" id="Layer_1" xmlns="http://www.w3.org/2000/svg" xmlns:xlink="http://www.w3.org/1999/xlink" x="0px" y="0px"
	 viewBox="-296 387.8 18 18.2" style="enable-background:new -296 387.8 18 18.2;" xml:space="preserve">
<g id="XMLID_12_">
	<path id="XMLID_24_" d="M-295,391.4h9c0.3,1.3,1.4,2.3,2.8,2.3c1.4,0,2.6-1,2.8-2.3h1.4c0.4,0,0.6-0.3,0.6-0.6
		c0-0.4-0.3-0.6-0.6-0.6h-1.5c-0.3-1.3-1.5-2.2-2.8-2.2c-1.4,0-2.5,0.9-2.8,2.2h-9c-0.4,0-0.6,0.3-0.6,0.6
		C-295.7,391.1-295.4,391.4-295,391.4z M-283.2,389.2c0.9,0,1.6,0.7,1.6,1.6c0,0.9-0.7,1.6-1.6,1.6c-0.9,0-1.6-0.7-1.6-1.6
		C-284.8,389.9-284.1,389.2-283.2,389.2z"/>
	<path id="XMLID_45_" d="M-279,402.3h-1.5c-0.3-1.3-1.5-2.2-2.8-2.2s-2.5,0.9-2.8,2.2h-9c-0.4,0-0.6,0.3-0.6,0.6
		c0,0.4,0.3,0.6,0.6,0.6h9c0.3,1.3,1.4,2.3,2.8,2.3c1.4,0,2.6-1,2.8-2.3h1.4c0.4,0,0.6-0.3,0.6-0.6
		C-278.3,402.6-278.6,402.3-279,402.3z M-283.2,404.6c-0.9,0-1.6-0.7-1.6-1.6s0.7-1.6,1.6-1.6c0.9,0,1.6,0.7,1.6,1.6
		S-282.3,404.6-283.2,404.6z"/>
	<path id="XMLID_48_" d="M-279,396.3h-9c-0.3-1.3-1.4-2.3-2.8-2.3c-1.4,0-2.6,1-2.8,2.3h-1.4c-0.4,0-0.6,0.3-0.6,0.6
		c0,0.4,0.3,0.6,0.6,0.6h1.5c0.3,1.3,1.5,2.2,2.8,2.2c1.4,0,2.5-0.9,2.8-2.2h9c0.4,0,0.6-0.3,0.6-0.6
		C-278.3,396.6-278.6,396.3-279,396.3z M-290.8,398.5c-0.9,0-1.6-0.7-1.6-1.6s0.7-1.6,1.6-1.6c0.9,0,1.6,0.7,1.6,1.6
		S-289.9,398.5-290.8,398.5z"/>
</g>
</svg>
