<?xml version="1.0" encoding="utf-8"?>
<!-- Generator: Adobe Illustrator 19.0.0, SVG Export Plug-In . SVG Version: 6.00 Build 0)  -->
<svg version="1.1" id="Layer_1" xmlns="http://www.w3.org/2000/svg" xmlns:xlink="http://www.w3.org/1999/xlink" x="0px" y="0px"
	 viewBox="-362 321.9 150 150" style="enable-background:new -362 321.9 150 150;" xml:space="preserve">
<g id="XMLID_12_">
	<path id="XMLID_24_" d="M-354.4,350.6h75.8c2.5,11,11.8,19.4,23.6,19.4c11.8,0,21.9-8.4,23.6-19.4h11.8c3.4,0,5.1-2.5,5.1-5.1
		c0-3.4-2.5-5.1-5.1-5.1h-12.6c-2.5-11-12.6-18.5-23.6-18.5c-11.8,0-21.1,7.6-23.6,18.5h-75.8c-3.4,0-5.1,2.5-5.1,5.1
		C-360.3,348-357.8,350.6-354.4,350.6z M-255,332c7.6,0,13.5,5.9,13.5,13.5c0,7.6-5.9,13.5-13.5,13.5c-7.6,0-13.5-5.9-13.5-13.5
		C-268.5,337.9-262.6,332-255,332z"/>
	<path id="XMLID_45_" d="M-219.6,442.4h-12.6c-2.5-11-12.6-18.5-23.6-18.5c-11,0-21.1,7.6-23.6,18.5h-75.8c-3.4,0-5.1,2.5-5.1,5.1
		c0,3.4,2.5,5.1,5.1,5.1h75.8c2.5,11,11.8,19.4,23.6,19.4c11.8,0,21.9-8.4,23.6-19.4h11.8c3.4,0,5.1-2.5,5.1-5.1
		C-213.7,444.9-216.2,442.4-219.6,442.4z M-255,461.8c-7.6,0-13.5-5.9-13.5-13.5c0-7.6,5.9-13.5,13.5-13.5c7.6,0,13.5,5.9,13.5,13.5
		C-241.5,455.9-247.4,461.8-255,461.8z"/>
	<path id="XMLID_48_" d="M-219.6,391.8h-75.8c-2.5-11-11.8-19.4-23.6-19.4s-21.9,8.4-23.6,19.4h-11.8c-3.4,0-5.1,2.5-5.1,5.1
		c0,3.4,2.5,5.1,5.1,5.1h12.6c2.5,11,12.6,18.5,23.6,18.5c11.8,0,21.1-7.6,23.6-18.5h75.8c3.4,0,5.1-2.5,5.1-5.1
		C-213.7,394.4-216.2,391.8-219.6,391.8z M-319,410.4c-7.6,0-13.5-5.9-13.5-13.5c0-7.6,5.9-13.5,13.5-13.5s13.5,5.9,13.5,13.5
		C-305.5,404.5-311.4,410.4-319,410.4z"/>
</g>
</svg>
