<?xml version="1.0" encoding="utf-8"?>
<!-- Generator: Adobe Illustrator 19.0.0, SVG Export Plug-In . SVG Version: 6.00 Build 0)  -->
<svg version="1.1" id="Layer_1" xmlns="http://www.w3.org/2000/svg" xmlns:xlink="http://www.w3.org/1999/xlink" x="0px" y="0px"
	 viewBox="-296 387.8 18 18.2" style="enable-background:new -296 387.8 18 18.2;" xml:space="preserve">
<g id="XMLID_25_">
	<path id="XMLID_26_" d="M-289.6,394.1c0,0.2-0.1,0.4-0.3,0.5v5.5c0,0,0,0.1,0,0.1c0,0-0.1,0-0.1,0h-0.3c0,0-0.1,0-0.1,0
		c0,0,0-0.1,0-0.1v-5.5c-0.2-0.1-0.3-0.3-0.3-0.5c0-0.2,0.1-0.3,0.2-0.4c0.1-0.1,0.2-0.2,0.4-0.2c0.2,0,0.3,0.1,0.4,0.2
		C-289.7,393.8-289.6,394-289.6,394.1z M-283.3,394.4v3.3c0,0.1,0,0.1-0.1,0.2c0,0-0.1,0.1-0.2,0.1c-0.6,0.3-1.2,0.5-1.6,0.5
		c-0.2,0-0.4,0-0.5-0.1c-0.2-0.1-0.3-0.1-0.5-0.2c-0.1-0.1-0.3-0.1-0.5-0.2c-0.2-0.1-0.4-0.1-0.6-0.1c-0.6,0-1.2,0.2-2,0.6
		c0,0-0.1,0-0.1,0c-0.1,0-0.1,0-0.2-0.1c-0.1-0.1-0.1-0.1-0.1-0.2v-3.2c0-0.1,0-0.2,0.1-0.2c0.1,0,0.2-0.1,0.3-0.2
		c0.7-0.3,1.3-0.5,1.8-0.5c0.3,0,0.6,0,0.9,0.1c0.3,0.1,0.6,0.2,1,0.4c0.1,0.1,0.2,0.1,0.4,0.1c0.2,0,0.3,0,0.5-0.1
		c0.2-0.1,0.3-0.1,0.5-0.2c0.1-0.1,0.3-0.1,0.4-0.2c0.1-0.1,0.2-0.1,0.2-0.1c0.1,0,0.1,0,0.2,0.1
		C-283.3,394.3-283.3,394.3-283.3,394.4z"/>
</g>
<path id="XMLID_41_" d="M-287,387.9c-5,0-9,4-9,9c0,5,4,9,9,9s9-4,9-9C-278,391.9-282,387.9-287,387.9z M-287,405.4
	c-4.7,0-8.5-3.8-8.5-8.5c0-4.7,3.8-8.5,8.5-8.5s8.5,3.8,8.5,8.5C-278.5,401.6-282.3,405.4-287,405.4z"/>
</svg>
