<?xml version="1.0" encoding="utf-8"?>
<!-- Generator: Adobe Illustrator 19.0.0, SVG Export Plug-In . SVG Version: 6.00 Build 0)  -->
<svg version="1.1" id="Layer_1" xmlns="http://www.w3.org/2000/svg" xmlns:xlink="http://www.w3.org/1999/xlink" x="0px" y="0px"
	 viewBox="-362 321.9 150 150" style="enable-background:new -362 321.9 150 150;" xml:space="preserve">
<g id="XMLID_25_">
	<path id="XMLID_26_" d="M-308.7,374c0,1.7-0.8,3.3-2.5,4.2V424v0.8h-0.8h-2.5h-0.8V424v-45.8c-1.7-0.8-2.5-2.5-2.5-4.2
		c0-1.7,0.8-2.5,1.7-3.3c0.8-0.8,1.7-1.7,3.3-1.7c1.7,0,2.5,0.8,3.3,1.7C-309.5,371.5-308.7,373.1-308.7,374z M-256.2,376.5V404
		c0,0.8,0,0.8-0.8,1.7c0,0-0.8,0.8-1.7,0.8c-5,2.5-10,4.2-13.3,4.2c-1.7,0-3.3,0-4.2-0.8c-1.7-0.8-2.5-0.8-4.2-1.7
		c-0.8-0.8-2.5-0.8-4.2-1.7c-1.7-0.8-3.3-0.8-5-0.8c-5,0-10,1.7-16.7,5h-0.8c-0.8,0-0.8,0-1.7-0.8c-0.8-0.8-0.8-0.8-0.8-1.7v-26.7
		c0-0.8,0-1.7,0.8-1.7c0.8,0,1.7-0.8,2.5-1.7c5.8-2.5,10.8-4.2,15-4.2c2.5,0,5,0,7.5,0.8c2.5,0.8,5,1.7,8.3,3.3
		c0.8,0.8,1.7,0.8,3.3,0.8c1.7,0,2.5,0,4.2-0.8s2.5-0.8,4.2-1.7c0.8-0.8,2.5-0.8,3.3-1.7c0.8-0.8,1.7-0.8,1.7-0.8
		c0.8,0,0.8,0,1.7,0.8C-256.2,375.6-256.2,375.6-256.2,376.5z"/>
</g>
<path id="XMLID_41_" d="M-287,321.9c-41.7,0-75,33.3-75,75s33.3,75,75,75s75-33.3,75-75S-245.3,321.9-287,321.9z M-287,467.7
	c-39.2,0-70.8-31.7-70.8-70.8s31.7-70.8,70.8-70.8s70.8,31.7,70.8,70.8S-247.8,467.7-287,467.7z"/>
</svg>
