<?xml version="1.0" encoding="utf-8"?>
<!-- Generator: Adobe Illustrator 19.0.0, SVG Export Plug-In . SVG Version: 6.00 Build 0)  -->
<svg version="1.1" id="Layer_1" xmlns="http://www.w3.org/2000/svg" xmlns:xlink="http://www.w3.org/1999/xlink" x="0px" y="0px"
	 viewBox="-296 387.8 18 18.2" style="enable-background:new -296 387.8 18 18.2;" xml:space="preserve">
<g id="XMLID_76_">
	<path id="XMLID_107_" d="M-284.2,396.9l-1.4-0.2c-0.1-0.2-0.2-0.5-0.3-0.8c0.1-0.1,0.2-0.3,0.4-0.6c0.2-0.2,0.3-0.4,0.4-0.5
		c0-0.1,0.1-0.1,0.1-0.2c0-0.2-0.4-0.7-1.4-1.5c-0.1,0-0.1-0.1-0.2-0.1c-0.1,0-0.1,0-0.2,0.1l-1.1,0.8c-0.3-0.1-0.5-0.2-0.7-0.3
		l-0.2-1.4c0-0.1,0-0.1-0.1-0.2c-0.1,0-0.1-0.1-0.2-0.1h-1.7c-0.1,0-0.2,0.1-0.3,0.2c-0.1,0.3-0.1,0.8-0.2,1.4
		c-0.3,0.1-0.5,0.2-0.7,0.3l-1.1-0.8c-0.1,0-0.1-0.1-0.2-0.1c-0.1,0-0.4,0.2-0.7,0.6c-0.4,0.4-0.6,0.6-0.8,0.8
		c0,0.1-0.1,0.1-0.1,0.2c0,0.1,0,0.1,0.1,0.2c0.3,0.4,0.6,0.8,0.8,1.1c-0.1,0.3-0.2,0.5-0.3,0.7l-1.5,0.2c-0.1,0-0.1,0-0.2,0.1
		c0,0.1-0.1,0.1-0.1,0.2v1.7c0,0.1,0,0.1,0.1,0.2c0,0.1,0.1,0.1,0.2,0.1l1.4,0.2c0.1,0.2,0.2,0.5,0.3,0.8c-0.1,0.1-0.2,0.3-0.4,0.6
		c-0.2,0.2-0.3,0.4-0.4,0.5c0,0.1-0.1,0.1-0.1,0.2c0,0.2,0.5,0.7,1.4,1.5c0.1,0,0.1,0.1,0.2,0.1c0.1,0,0.1,0,0.2-0.1l1.1-0.8
		c0.3,0.1,0.5,0.2,0.7,0.3l0.2,1.4c0,0.1,0,0.1,0.1,0.2c0.1,0,0.1,0.1,0.2,0.1h1.7c0.1,0,0.2-0.1,0.3-0.2c0.1-0.3,0.1-0.8,0.2-1.5
		c0.2-0.1,0.5-0.2,0.7-0.3l1.1,0.8c0.1,0,0.1,0.1,0.2,0.1c0.1,0,0.4-0.2,0.7-0.6c0.4-0.4,0.6-0.7,0.8-0.8c0,0,0.1-0.1,0.1-0.2
		c0-0.1,0-0.1-0.1-0.2c-0.3-0.4-0.6-0.8-0.8-1.1c0.1-0.3,0.2-0.5,0.3-0.7l1.5-0.2c0.1,0,0.1,0,0.2-0.1c0-0.1,0.1-0.1,0.1-0.2v-1.7
		c0-0.1,0-0.1-0.1-0.2C-284.1,396.9-284.2,396.9-284.2,396.9z M-288.3,399.7c-0.5,0.5-1,0.7-1.7,0.7c-0.7,0-1.2-0.2-1.7-0.7
		c-0.5-0.5-0.7-1-0.7-1.7c0-0.7,0.2-1.2,0.7-1.7c0.5-0.5,1-0.7,1.7-0.7c0.7,0,1.2,0.2,1.7,0.7c0.5,0.5,0.7,1,0.7,1.7
		C-287.6,398.7-287.8,399.3-288.3,399.7z"/>
	<path id="XMLID_114_" d="M-279.4,392.3c-0.1-0.2-0.2-0.3-0.3-0.5c0.3-0.7,0.5-1.1,0.5-1.3c0,0,0,0,0-0.1c-0.8-0.4-1.1-0.7-1.2-0.7
		l-0.1,0c-0.3,0.3-0.5,0.6-0.9,1c-0.1,0-0.2,0-0.3,0c-0.1,0-0.2,0-0.3,0c-0.1-0.1-0.3-0.3-0.5-0.6c-0.2-0.3-0.4-0.4-0.4-0.4
		c0,0-0.1,0.1-0.3,0.2c-0.2,0.1-0.4,0.2-0.6,0.3c-0.2,0.1-0.3,0.2-0.3,0.2c0,0,0,0,0,0.1c0,0.2,0.2,0.6,0.5,1.3
		c-0.1,0.1-0.2,0.3-0.3,0.5c-0.9,0.1-1.4,0.2-1.4,0.3v1.3c0,0.1,0.5,0.2,1.4,0.3c0.1,0.2,0.2,0.3,0.3,0.5c-0.3,0.7-0.5,1.1-0.5,1.3
		c0,0,0,0,0,0.1c0.8,0.4,1.1,0.7,1.2,0.7c0,0,0.2-0.1,0.4-0.4c0.2-0.3,0.4-0.5,0.5-0.6c0.1,0,0.2,0,0.3,0c0.1,0,0.2,0,0.3,0
		c0.1,0.1,0.3,0.3,0.5,0.6c0.2,0.3,0.4,0.4,0.4,0.4c0,0,0.4-0.2,1.2-0.7c0,0,0,0,0-0.1c0-0.2-0.2-0.6-0.5-1.3
		c0.1-0.2,0.2-0.3,0.3-0.5c0.9-0.1,1.4-0.2,1.4-0.3v-1.3C-278,392.5-278.5,392.4-279.4,392.3z M-280.8,394.1
		c-0.2,0.2-0.5,0.4-0.8,0.4c-0.3,0-0.6-0.1-0.8-0.4c-0.2-0.2-0.4-0.5-0.4-0.8c0-0.3,0.1-0.6,0.4-0.8c0.2-0.2,0.5-0.4,0.8-0.4
		c0.3,0,0.6,0.1,0.8,0.4c0.2,0.2,0.4,0.5,0.4,0.8C-280.4,393.6-280.5,393.8-280.8,394.1z"/>
</g>
</svg>
