<?xml version="1.0" encoding="utf-8"?>
<!-- Generator: Adobe Illustrator 19.0.0, SVG Export Plug-In . SVG Version: 6.00 Build 0)  -->
<svg version="1.1" id="Layer_1" xmlns="http://www.w3.org/2000/svg" xmlns:xlink="http://www.w3.org/1999/xlink" x="0px" y="0px"
	 viewBox="-362 321.9 150 150" style="enable-background:new -362 321.9 150 150;" xml:space="preserve">
<g id="XMLID_76_">
	<path id="XMLID_107_" d="M-262.9,397.3l-11.7-1.7c-0.8-1.7-1.7-4.2-2.5-6.7c0.8-0.8,1.7-2.5,3.3-5c1.7-1.7,2.5-3.3,3.3-4.2
		c0-0.8,0.8-0.8,0.8-1.7c0-1.7-3.3-5.8-11.7-12.5c-0.8,0-0.8-0.8-1.7-0.8s-0.8,0-1.7,0.8l-9.2,6.7c-2.5-0.8-4.2-1.7-5.8-2.5
		l-1.7-11.7c0-0.8,0-0.8-0.8-1.7c-0.8,0-0.8-0.8-1.7-0.8h-14.2c-0.8,0-1.7,0.8-2.5,1.7c-0.8,2.5-0.8,6.7-1.7,11.7
		c-2.5,0.8-4.2,1.7-5.8,2.5l-9.2-6.7c-0.8,0-0.8-0.8-1.7-0.8s-3.3,1.7-5.8,5c-3.3,3.3-5,5-6.7,6.7c0,0.8-0.8,0.8-0.8,1.7
		s0,0.8,0.8,1.7c2.5,3.3,5,6.7,6.7,9.2c-0.8,2.5-1.7,4.2-2.5,5.8l-12.5,1.7c-0.8,0-0.8,0-1.7,0.8c0,0.8-0.8,0.8-0.8,1.7v14.2
		c0,0.8,0,0.8,0.8,1.7c0,0.8,0.8,0.8,1.7,0.8l11.7,1.7c0.8,1.7,1.7,4.2,2.5,6.7c-0.8,0.8-1.7,2.5-3.3,5c-1.7,1.7-2.5,3.3-3.3,4.2
		c0,0.8-0.8,0.8-0.8,1.7c0,1.7,4.2,5.8,11.7,12.5c0.8,0,0.8,0.8,1.7,0.8s0.8,0,1.7-0.8l9.2-6.7c2.5,0.8,4.2,1.7,5.8,2.5l1.7,11.7
		c0,0.8,0,0.8,0.8,1.7c0.8,0,0.8,0.8,1.7,0.8h14.2c0.8,0,1.7-0.8,2.5-1.7c0.8-2.5,0.8-6.7,1.7-12.5c1.7-0.8,4.2-1.7,5.8-2.5l9.2,6.7
		c0.8,0,0.8,0.8,1.7,0.8s3.3-1.7,5.8-5c3.3-3.3,5-5.8,6.7-6.7c0,0,0.8-0.8,0.8-1.7s0-0.8-0.8-1.7c-2.5-3.3-5-6.7-6.7-9.2
		c0.8-2.5,1.7-4.2,2.5-5.8l12.5-1.7c0.8,0,0.8,0,1.7-0.8c0-0.8,0.8-0.8,0.8-1.7V399c0-0.8,0-0.8-0.8-1.7
		C-262.1,397.3-262.9,397.3-262.9,397.3z M-297,420.6c-4.2,4.2-8.3,5.8-14.2,5.8c-5.8,0-10-1.7-14.2-5.8c-4.2-4.2-5.8-8.3-5.8-14.2
		c0-5.8,1.7-10,5.8-14.2c4.2-4.2,8.3-5.8,14.2-5.8c5.8,0,10,1.7,14.2,5.8c4.2,4.2,5.8,8.3,5.8,14.2
		C-291.2,412.3-292.9,417.3-297,420.6z"/>
	<path id="XMLID_114_" d="M-222.9,359c-0.8-1.7-1.7-2.5-2.5-4.2c2.5-5.8,4.2-9.2,4.2-10.8c0,0,0,0,0-0.8c-6.7-3.3-9.2-5.8-10-5.8
		h-0.8c-2.5,2.5-4.2,5-7.5,8.3c-0.8,0-1.7,0-2.5,0c-0.8,0-1.7,0-2.5,0c-0.8-0.8-2.5-2.5-4.2-5c-1.7-2.5-3.3-3.3-3.3-3.3
		s-0.8,0.8-2.5,1.7c-1.7,0.8-3.3,1.7-5,2.5c-1.7,0.8-2.5,1.7-2.5,1.7s0,0,0,0.8c0,1.7,1.7,5,4.2,10.8c-0.8,0.8-1.7,2.5-2.5,4.2
		c-7.5,0.8-11.7,1.7-11.7,2.5v10.8c0,0.8,4.2,1.7,11.7,2.5c0.8,1.7,1.7,2.5,2.5,4.2c-2.5,5.8-4.2,9.2-4.2,10.8c0,0,0,0,0,0.8
		c6.7,3.3,9.2,5.8,10,5.8c0,0,1.7-0.8,3.3-3.3c1.7-2.5,3.3-4.2,4.2-5c0.8,0,1.7,0,2.5,0c0.8,0,1.7,0,2.5,0c0.8,0.8,2.5,2.5,4.2,5
		c1.7,2.5,3.3,3.3,3.3,3.3s3.3-1.7,10-5.8c0,0,0,0,0-0.8c0-1.7-1.7-5-4.2-10.8c0.8-1.7,1.7-2.5,2.5-4.2c7.5-0.8,11.7-1.7,11.7-2.5
		v-10.8C-211.3,360.7-215.4,359.8-222.9,359z M-234.6,374c-1.7,1.7-4.2,3.3-6.7,3.3c-2.5,0-5-0.8-6.7-3.3c-1.7-1.7-3.3-4.2-3.3-6.7
		c0-2.5,0.8-5,3.3-6.7c1.7-1.7,4.2-3.3,6.7-3.3c2.5,0,5,0.8,6.7,3.3c1.7,1.7,3.3,4.2,3.3,6.7C-231.3,369.8-232.1,371.5-234.6,374z"
		/>
</g>
</svg>
