<?xml version="1.0" encoding="utf-8"?>
<!-- Generator: Adobe Illustrator 19.0.0, SVG Export Plug-In . SVG Version: 6.00 Build 0)  -->
<svg version="1.1" id="Layer_1" xmlns="http://www.w3.org/2000/svg" xmlns:xlink="http://www.w3.org/1999/xlink" x="0px" y="0px"
	 viewBox="-362 321.9 150 150" style="enable-background:new -362 321.9 150 150;" xml:space="preserve">
<g id="XMLID_4_">
	<path id="XMLID_125_" d="M-279.8,355.1c3.3-0.8,6.7-1.7,10-1.7c6.7,0,13.4,1.7,20.1,5c2.5,1.7,5,3.3,6.7,5.9
		c1.7,2.5,3.3,6.7,0.8,6.7c-3.3,0.8-3.3-2.5-4.2-4.2c-3.3-5.9-10-7.5-15.9-8.4c-5-0.8-10.9-0.8-15.9,0c-1.7,0-3.3,0-4.2-1.7
		C-283.1,355.9-281.4,355.1-279.8,355.1z"/>
	<path id="XMLID_124_" d="M-269.7,380.2c5,0.8,10.9,0.8,15.9,0c1.7,0,3.3,0,4.2,1.7c0.8,2.5-1.7,2.5-3.3,3.3
		c-3.3,0.8-6.7,0.8-10,0.8c-6.7,0-13.4-1.7-20.1-5c-2.5-1.7-5-3.3-6.7-5.9c-1.7-2.5-4.2-5-1.7-6.7c3.3-1.7,4.2,2.5,5,4.2
		C-282.3,377.7-275.6,379.3-269.7,380.2z"/>
	<path id="XMLID_123_" d="M-303.2,406.1c-3.3,0-6.7-0.8-9.2-2.5l-14.2,12.5c-0.8-0.8-1.7-1.7-3.3-1.7c-3.3,0-5.9,1.7-5.9,5
		c0,1.7,0,2.5,0.8,3.3l-9.2,7.5c-4.2,4.2-10.9,3.3-15.1-0.8s-3.3-10.9,0.8-15.1l31.8-27.6c-0.8-3.3-1.7-6.7-0.8-10
		c0.8-14.2,14.2-25.9,28.4-24.3c13.4,0.8,23.4,10.9,25.1,23.4c-4.2-0.8-6.7-2.5-9.2-5.9c0-0.8,0-0.8-0.8-0.8c-0.8-3.3-1.7-5-5-5.9
		c-3.3,0-5.9,1.7-5.9,5c0,2.5,0.8,4.2,3.3,5.9l0.8,0.8c3.3,5,7.5,7.5,11.7,9.2c1.7,0.8,3.3,1.7,4.2,1.7
		C-278.1,399.4-289.8,406.9-303.2,406.1z"/>
	<path id="XMLID_121_" d="M-217,405.3c-6.7,0.8-5.9,4.2-5,8.4c1.7,5,3.3,9.2,1.7,15.1c-0.8,2.5-2.5,4.2-5,5
		c-10.9,2.5-21.8,5.9-33.5,7.5c-5,0.8-8.4-1.7-9.2-6.7c-0.8-2.5-0.8-5-1.7-7.5c-0.8-5.9-0.8-10.9-10-9.2c-5,0.8-7.5-4.2-4.2-8.4
		c3.3-5.9,6.7-10.9,10-16.7c1.7-2.5,3.3-5,5.9-5c5,0.8,9.2,0,14.2-0.8s7.5-3.3,5.9-7.5c-0.8-4.2-5-3.3-9.2-2.5
		c-1.7,0.8-6.7,1.7-7.5,0c0.8-2.5,10-8.4,15.1-5c11.7,7.5,23.4,15.1,34.3,22.6c2.5,1.7,3.3,3.3,3.3,5.9
		C-212,403.6-214.5,405.3-217,405.3z"/>
</g>
</svg>
