<?xml version="1.0" encoding="utf-8"?>
<!-- Generator: Adobe Illustrator 19.0.0, SVG Export Plug-In . SVG Version: 6.00 Build 0)  -->
<svg version="1.1" id="Layer_1" xmlns="http://www.w3.org/2000/svg" xmlns:xlink="http://www.w3.org/1999/xlink" x="0px" y="0px"
	 viewBox="-296 387.8 18 18.2" style="enable-background:new -296 387.8 18 18.2;" xml:space="preserve">
<g id="XMLID_4_">
	<path id="XMLID_125_" d="M-286.2,391.8c0.4-0.1,0.8-0.2,1.2-0.2c0.8,0,1.6,0.2,2.4,0.6c0.3,0.2,0.6,0.4,0.8,0.7
		c0.2,0.3,0.4,0.8,0.1,0.8c-0.4,0.1-0.4-0.3-0.5-0.5c-0.4-0.7-1.2-0.9-1.9-1c-0.6-0.1-1.3-0.1-1.9,0c-0.2,0-0.4,0-0.5-0.2
		C-286.6,391.9-286.4,391.8-286.2,391.8z"/>
	<path id="XMLID_124_" d="M-285,394.8c0.6,0.1,1.3,0.1,1.9,0c0.2,0,0.4,0,0.5,0.2c0.1,0.3-0.2,0.3-0.4,0.4c-0.4,0.1-0.8,0.1-1.2,0.1
		c-0.8,0-1.6-0.2-2.4-0.6c-0.3-0.2-0.6-0.4-0.8-0.7c-0.2-0.3-0.5-0.6-0.2-0.8c0.4-0.2,0.5,0.3,0.6,0.5
		C-286.5,394.5-285.7,394.7-285,394.8z"/>
	<path id="XMLID_123_" d="M-289,397.9c-0.4,0-0.8-0.1-1.1-0.3l-1.7,1.5c-0.1-0.1-0.2-0.2-0.4-0.2c-0.4,0-0.7,0.2-0.7,0.6
		c0,0.2,0,0.3,0.1,0.4l-1.1,0.9c-0.5,0.5-1.3,0.4-1.8-0.1c-0.5-0.5-0.4-1.3,0.1-1.8l3.8-3.3c-0.1-0.4-0.2-0.8-0.1-1.2
		c0.1-1.7,1.7-3.1,3.4-2.9c1.6,0.1,2.8,1.3,3,2.8c-0.5-0.1-0.8-0.3-1.1-0.7c0-0.1,0-0.1-0.1-0.1c-0.1-0.4-0.2-0.6-0.6-0.7
		c-0.4,0-0.7,0.2-0.7,0.6c0,0.3,0.1,0.5,0.4,0.7c0,0,0.1,0.1,0.1,0.1c0.4,0.6,0.9,0.9,1.4,1.1c0.2,0.1,0.4,0.2,0.5,0.2
		C-286,397.1-287.4,398-289,397.9z"/>
	<path id="XMLID_121_" d="M-278.7,397.8c-0.8,0.1-0.7,0.5-0.6,1c0.2,0.6,0.4,1.1,0.2,1.8c-0.1,0.3-0.3,0.5-0.6,0.6
		c-1.3,0.3-2.6,0.7-4,0.9c-0.6,0.1-1-0.2-1.1-0.8c-0.1-0.3-0.1-0.6-0.2-0.9c-0.1-0.7-0.1-1.3-1.2-1.1c-0.6,0.1-0.9-0.5-0.5-1
		c0.4-0.7,0.8-1.3,1.2-2c0.2-0.3,0.4-0.6,0.7-0.6c0.6,0.1,1.1,0,1.7-0.1c0.6-0.1,0.9-0.4,0.7-0.9c-0.1-0.5-0.6-0.4-1.1-0.3
		c-0.2,0.1-0.8,0.2-0.9,0c0.1-0.3,1.2-1,1.8-0.6c1.4,0.9,2.8,1.8,4.1,2.7c0.3,0.2,0.4,0.4,0.4,0.7
		C-278.1,397.6-278.4,397.8-278.7,397.8z"/>
</g>
</svg>
