<?xml version="1.0" encoding="utf-8"?>
<!-- Generator: Adobe Illustrator 19.0.0, SVG Export Plug-In . SVG Version: 6.00 Build 0)  -->
<svg version="1.1" id="Layer_1" xmlns="http://www.w3.org/2000/svg" xmlns:xlink="http://www.w3.org/1999/xlink" x="0px" y="0px"
	 viewBox="-296 387.8 18 18.2" style="enable-background:new -296 387.8 18 18.2;" xml:space="preserve">
<path id="XMLID_73_" d="M-287,387.9c-5,0-9,3.9-9,9c0,5.2,4.1,9,8.9,9c4.8,0,9-3.8,9.1-9C-278.1,391.9-281.9,387.9-287,387.9z
	 M-286.3,392.8c0.3-0.1,0.6-0.1,1-0.1c0.7,0,1.3,0.1,1.9,0.5c0.3,0.2,0.5,0.3,0.6,0.6c0.1,0.2,0.3,0.6,0,0.7c-0.3,0-0.3-0.2-0.4-0.4
	c-0.4-0.5-0.9-0.8-1.5-0.8c-0.5-0.1-1,0-1.5,0c-0.2,0-0.3,0-0.4-0.2C-286.7,392.9-286.5,392.9-286.3,392.8z M-285.4,395.2
	c0.5,0.1,1,0,1.5,0c0.2,0,0.3,0,0.4,0.2c0.1,0.2-0.1,0.3-0.3,0.3c-0.3,0.1-0.6,0.1-1,0.1c-0.7,0-1.3-0.1-1.9-0.5
	c-0.3-0.2-0.5-0.3-0.6-0.6c-0.1-0.2-0.4-0.5-0.1-0.6c0.3-0.2,0.4,0.2,0.5,0.4C-286.6,395-286,395.2-285.4,395.2z M-288.6,397.7
	c-0.3,0-0.6-0.1-0.9-0.2l-1.4,1.2c-0.1-0.1-0.2-0.1-0.3-0.2c-0.3,0-0.5,0.2-0.6,0.5c0,0.1,0,0.2,0.1,0.3l-0.9,0.8
	c-0.4,0.4-1.1,0.3-1.4-0.1c-0.4-0.4-0.3-1.1,0.1-1.4l3-2.6c-0.1-0.3-0.1-0.6-0.1-0.9c0.1-1.4,1.3-2.4,2.7-2.3
	c1.2,0.1,2.3,1.1,2.4,2.3c-0.4-0.1-0.7-0.2-0.9-0.6c0-0.1,0,0,0-0.1c-0.1-0.3-0.2-0.5-0.5-0.5c-0.3,0-0.5,0.2-0.6,0.5
	c0,0.2,0.1,0.4,0.3,0.5c0,0,0.1,0,0.1,0.1c0.3,0.5,0.7,0.7,1.1,0.9c0.1,0,0.3,0.1,0.4,0.2C-286.2,397.1-287.3,397.8-288.6,397.7z
	 M-280.4,397.7c-0.6,0-0.6,0.4-0.4,0.8c0.1,0.5,0.4,0.9,0.2,1.4c-0.1,0.3-0.2,0.4-0.5,0.5c-1.1,0.2-2.1,0.5-3.1,0.7
	c-0.5,0.1-0.8-0.1-0.9-0.6c0-0.2-0.1-0.5-0.1-0.7c-0.1-0.6-0.1-1.1-1-0.9c-0.5,0.1-0.7-0.4-0.4-0.8c0.3-0.5,0.6-1.1,0.9-1.6
	c0.1-0.2,0.3-0.5,0.6-0.5c0.5,0,0.9,0,1.3-0.1c0.5,0,0.7-0.3,0.6-0.7c-0.1-0.4-0.5-0.3-0.9-0.3c-0.2,0-0.6,0.1-0.7,0
	c0.1-0.3,0.9-0.8,1.5-0.5c1.1,0.7,2.2,1.4,3.3,2.2c0.2,0.1,0.3,0.3,0.3,0.6C-279.9,397.5-280.1,397.6-280.4,397.7z"/>
</svg>
