<?xml version="1.0" encoding="utf-8"?>
<!-- Generator: Adobe Illustrator 19.0.0, SVG Export Plug-In . SVG Version: 6.00 Build 0)  -->
<svg version="1.1" id="Layer_1" xmlns="http://www.w3.org/2000/svg" xmlns:xlink="http://www.w3.org/1999/xlink" x="0px" y="0px"
	 viewBox="-362 321.9 150 150" style="enable-background:new -362 321.9 150 150;" xml:space="preserve">
<path id="XMLID_73_" d="M-287,321.9c-41.7,0-75,32.5-75,75c0,43.3,34.2,75,74.2,75s75-31.7,75.8-75
	C-212.8,355.2-244.5,321.9-287,321.9z M-281.2,362.7c2.5-0.8,5-0.8,8.3-0.8c5.8,0,10.8,0.8,15.8,4.2c2.5,1.7,4.2,2.5,5,5
	c0.8,1.7,2.5,5,0,5.8c-2.5,0-2.5-1.7-3.3-3.3c-3.3-4.2-7.5-6.7-12.5-6.7c-4.2-0.8-8.3,0-12.5,0c-1.7,0-2.5,0-3.3-1.7
	C-284.5,363.6-282.8,363.6-281.2,362.7z M-273.7,382.7c4.2,0.8,8.3,0,12.5,0c1.7,0,2.5,0,3.3,1.7c0.8,1.7-0.8,2.5-2.5,2.5
	c-2.5,0.8-5,0.8-8.3,0.8c-5.8,0-10.8-0.8-15.8-4.2c-2.5-1.7-4.2-2.5-5-5c-0.8-1.7-3.3-4.2-0.8-5c2.5-1.7,3.3,1.7,4.2,3.3
	C-283.7,381.1-278.7,382.7-273.7,382.7z M-300.3,403.6c-2.5,0-5-0.8-7.5-1.7l-11.7,10c-0.8-0.8-1.7-0.8-2.5-1.7
	c-2.5,0-4.2,1.7-5,4.2c0,0.8,0,1.7,0.8,2.5l-7.5,6.7c-3.3,3.3-9.2,2.5-11.7-0.8c-3.3-3.3-2.5-9.2,0.8-11.7l25-21.7
	c-0.8-2.5-0.8-5-0.8-7.5c0.8-11.7,10.8-20,22.5-19.2c10,0.8,19.2,9.2,20,19.2c-3.3-0.8-5.8-1.7-7.5-5c0-0.8,0,0,0-0.8
	c-0.8-2.5-1.7-4.2-4.2-4.2c-2.5,0-4.2,1.7-5,4.2c0,1.7,0.8,3.3,2.5,4.2c0,0,0.8,0,0.8,0.8c2.5,4.2,5.8,5.8,9.2,7.5
	c0.8,0,2.5,0.8,3.3,1.7C-280.3,398.6-289.5,404.4-300.3,403.6z M-232,403.6c-5,0-5,3.3-3.3,6.7c0.8,4.2,3.3,7.5,1.7,11.7
	c-0.8,2.5-1.7,3.3-4.2,4.2c-9.2,1.7-17.5,4.2-25.8,5.8c-4.2,0.8-6.7-0.8-7.5-5c0-1.7-0.8-4.2-0.8-5.8c-0.8-5-0.8-9.2-8.3-7.5
	c-4.2,0.8-5.8-3.3-3.3-6.7c2.5-4.2,5-9.2,7.5-13.3c0.8-1.7,2.5-4.2,5-4.2c4.2,0,7.5,0,10.8-0.8c4.2,0,5.8-2.5,5-5.8
	c-0.8-3.3-4.2-2.5-7.5-2.5c-1.7,0-5,0.8-5.8,0c0.8-2.5,7.5-6.7,12.5-4.2c9.2,5.8,18.3,11.7,27.5,18.3c1.7,0.8,2.5,2.5,2.5,5
	C-227.8,401.9-229.5,402.7-232,403.6z"/>
</svg>
