<?xml version="1.0" encoding="utf-8"?>
<!-- Generator: Adobe Illustrator 19.0.0, SVG Export Plug-In . SVG Version: 6.00 Build 0)  -->
<svg version="1.1" id="Layer_1" xmlns="http://www.w3.org/2000/svg" xmlns:xlink="http://www.w3.org/1999/xlink" x="0px" y="0px"
	 viewBox="-362 321.9 150 150" style="enable-background:new -362 321.9 150 150;" xml:space="preserve">
<path id="XMLID_82_" d="M-228.8,393.2c-1.6-1.6-4.1-3.3-7.4-3.3h-3.3v-20.5c0-13.1-4.9-23.8-13.9-33.6c-9-9-20.5-13.9-33.6-13.9
	s-23.8,4.9-33.6,13.9c-9,9-13.9,20.5-13.9,33.6v20.5h-3.3c-2.5,0-4.9,0.8-7.4,3.3c-1.6,1.6-3.3,4.1-3.3,7.4v60.7
	c0,2.5,0.8,4.9,3.3,7.4c1.6,1.6,4.1,3.3,7.4,3.3h101.6c2.5,0,4.9-0.8,7.4-3.3c1.6-1.6,3.3-4.1,3.3-7.4v-60.7
	C-226.3,397.3-227.2,394.9-228.8,393.2z M-260,389.9H-314v-20.5c0-7.4,2.5-13.9,8.2-18.9c4.9-4.9,11.5-8.2,18.9-8.2
	s13.9,2.5,18.9,8.2c4.9,4.9,8.2,11.5,8.2,18.9L-260,389.9L-260,389.9z"/>
</svg>
