<?xml version="1.0" encoding="utf-8"?>
<!-- Generator: Adobe Illustrator 19.0.0, SVG Export Plug-In . SVG Version: 6.00 Build 0)  -->
<svg version="1.1" id="Layer_1" xmlns="http://www.w3.org/2000/svg" xmlns:xlink="http://www.w3.org/1999/xlink" x="0px" y="0px"
	 viewBox="-296 387.8 18 18.2" style="enable-background:new -296 387.8 18 18.2;" xml:space="preserve">
<path id="XMLID_82_" d="M-279.9,396.5c-0.2-0.2-0.5-0.4-0.9-0.4h-0.4v-2.5c0-1.6-0.6-2.9-1.7-4.1c-1.1-1.1-2.5-1.7-4.1-1.7
	c-1.6,0-2.9,0.6-4.1,1.7c-1.1,1.1-1.7,2.5-1.7,4.1v2.5h-0.4c-0.3,0-0.6,0.1-0.9,0.4c-0.2,0.2-0.4,0.5-0.4,0.9v7.4
	c0,0.3,0.1,0.6,0.4,0.9c0.2,0.2,0.5,0.4,0.9,0.4h12.4c0.3,0,0.6-0.1,0.9-0.4c0.2-0.2,0.4-0.5,0.4-0.9v-7.4
	C-279.6,397-279.7,396.7-279.9,396.5z M-283.7,396.1h-6.6v-2.5c0-0.9,0.3-1.7,1-2.3c0.6-0.6,1.4-1,2.3-1c0.9,0,1.7,0.3,2.3,1
	c0.6,0.6,1,1.4,1,2.3V396.1z"/>
</svg>
