<?xml version="1.0" encoding="utf-8"?>
<!-- Generator: Adobe Illustrator 19.0.0, SVG Export Plug-In . SVG Version: 6.00 Build 0)  -->
<svg version="1.1" id="Layer_1" xmlns="http://www.w3.org/2000/svg" xmlns:xlink="http://www.w3.org/1999/xlink" x="0px" y="0px"
	 viewBox="-296 387.8 18 18.2" style="enable-background:new -296 387.8 18 18.2;" xml:space="preserve">
<g id="XMLID_57_">
	<path id="XMLID_89_" d="M-287,392.9c-0.5,0-0.9,0.2-1.3,0.5c-0.4,0.4-0.5,0.8-0.5,1.3v1.4h3.7v-1.4c0-0.5-0.2-0.9-0.5-1.3
		C-286.1,393.1-286.5,392.9-287,392.9z"/>
	<path id="XMLID_97_" d="M-287,387.9c-5,0-9,4-9,9c0,5,4,9,9,9s9-4,9-9C-278,391.9-282,387.9-287,387.9z M-282.9,400.9
		c0,0.2-0.1,0.4-0.2,0.5c-0.1,0.1-0.3,0.2-0.5,0.2h-6.9c-0.2,0-0.4-0.1-0.5-0.2c-0.1-0.1-0.2-0.3-0.2-0.5v-4.1
		c0-0.2,0.1-0.4,0.2-0.5s0.3-0.2,0.5-0.2h0.2v-1.4c0-0.9,0.3-1.6,0.9-2.3c0.6-0.6,1.4-0.9,2.3-0.9c0.9,0,1.6,0.3,2.3,0.9
		c0.6,0.6,0.9,1.4,0.9,2.3v1.4h0.2c0.2,0,0.4,0.1,0.5,0.2c0.1,0.1,0.2,0.3,0.2,0.5V400.9z"/>
</g>
</svg>
