<?xml version="1.0" encoding="utf-8"?>
<!-- Generator: Adobe Illustrator 19.0.0, SVG Export Plug-In . SVG Version: 6.00 Build 0)  -->
<svg version="1.1" id="Layer_1" xmlns="http://www.w3.org/2000/svg" xmlns:xlink="http://www.w3.org/1999/xlink" x="0px" y="0px"
	 viewBox="-362 321.9 150 150" style="enable-background:new -362 321.9 150 150;" xml:space="preserve">
<g id="XMLID_57_">
	<path id="XMLID_89_" d="M-287,363.6c-4.2,0-7.5,1.7-10.8,4.2c-3.3,3.3-4.2,6.7-4.2,10.8v11.7h30.8v-11.7c0-4.2-1.7-7.5-4.2-10.8
		C-279.5,365.2-282.8,363.6-287,363.6z"/>
	<path id="XMLID_97_" d="M-287,321.9c-41.7,0-75,33.3-75,75s33.3,75,75,75s75-33.3,75-75S-245.3,321.9-287,321.9z M-252.8,430.2
		c0,1.7-0.8,3.3-1.7,4.2c-0.8,0.8-2.5,1.7-4.2,1.7h-57.5c-1.7,0-3.3-0.8-4.2-1.7c-0.8-0.8-1.7-2.5-1.7-4.2v-34.2
		c0-1.7,0.8-3.3,1.7-4.2c0.8-0.8,2.5-1.7,4.2-1.7h1.7v-11.7c0-7.5,2.5-13.3,7.5-19.2c5-5,11.7-7.5,19.2-7.5c7.5,0,13.3,2.5,19.2,7.5
		c5,5,7.5,11.7,7.5,19.2v11.7h1.7c1.7,0,3.3,0.8,4.2,1.7c0.8,0.8,1.7,2.5,1.7,4.2v34.2H-252.8z"/>
</g>
</svg>
