<?xml version="1.0" encoding="utf-8"?>
<!-- Generator: Adobe Illustrator 19.0.0, SVG Export Plug-In . SVG Version: 6.00 Build 0)  -->
<svg version="1.1" id="Layer_1" xmlns="http://www.w3.org/2000/svg" xmlns:xlink="http://www.w3.org/1999/xlink" x="0px" y="0px"
	 viewBox="-362 321.9 150 150" style="enable-background:new -362 321.9 150 150;" xml:space="preserve">
<g id="XMLID_111_">
	<path id="XMLID_117_" d="M-287,321.9c-27.5,0-50,22.5-50,50s50,100,50,100s50-72.5,50-100S-259.5,321.9-287,321.9z M-287,404.4
		c-18.3,0-32.5-15-32.5-32.5c0-18.3,15-32.5,32.5-32.5c18.3,0,32.5,15,32.5,32.5S-268.7,404.4-287,404.4z"/>
	<path id="XMLID_115_" d="M-274.5,363.6v-7.5c0-2.5-1.7-4.2-4.2-4.2c-2.5,0-4.2,1.7-4.2,4.2v0.8l-0.8-0.8c-2.5-2.5-5.8-2.5-7.5,0
		l-16.7,14.2h5v13.3c0,2.5,2.5,5,5,5c2.5,0,5-2.5,5-5v-2.5c0-2.5,1.7-5,5-5.8c3.3,0,5.8,2.5,5.8,5v2.5c0,2.5,2.5,5,5,5s5-2.5,5-5
		v-12.5h5L-274.5,363.6z"/>
</g>
</svg>
