<?xml version="1.0" encoding="utf-8"?>
<!-- Generator: Adobe Illustrator 19.0.0, SVG Export Plug-In . SVG Version: 6.00 Build 0)  -->
<svg version="1.1" id="Layer_1" xmlns="http://www.w3.org/2000/svg" xmlns:xlink="http://www.w3.org/1999/xlink" x="0px" y="0px"
	 viewBox="-296 387.8 18 18.2" style="enable-background:new -296 387.8 18 18.2;" xml:space="preserve">
<path id="XMLID_169_" d="M-287,387.9c-5,0-9,4-9,9c0,5,4,9,9,9c5,0,9-4,9-9C-278,391.9-282,387.9-287,387.9z M-283.3,401.1
	C-283.3,401.1-283.3,401.1-283.3,401.1c-0.4,0.2-0.8,0.3-1.2,0.3c-0.6,0-1.2-0.2-1.7-0.5c-0.4-0.1-0.8-0.3-1.1-0.5
	c-1.1-0.7-2.5-2-3.1-3.2c-0.2-0.4-0.4-0.7-0.5-1.1c-0.2-0.6-0.5-1.1-0.5-1.7c0-0.4,0.1-0.8,0.3-1.2c0-0.1,0.1-0.1,0.1-0.2l0,0
	c0.2-0.4,0.6-0.6,1.1-0.6c0.5,0,0.9,0.3,1.1,0.7c0.1,0.2,0.3,0.5,0.4,0.7c0.1,0.2,0.3,0.4,0.3,0.6c0,0.4-1.2,1-1.2,1.3
	c0,0.2,0.2,0.4,0.3,0.6c0.7,1.2,1.5,2,2.7,2.7c0.2,0.1,0.4,0.3,0.6,0.3c0.4,0,0.9-1.2,1.3-1.2c0.2,0,0.4,0.2,0.6,0.3
	c0.3,0.2,0.5,0.3,0.8,0.5l0,0c0.4,0.2,0.6,0.6,0.6,1.1C-282.5,400.4-282.8,400.9-283.3,401.1z"/>
</svg>
