<?xml version="1.0" encoding="utf-8"?>
<!-- Generator: Adobe Illustrator 19.0.0, SVG Export Plug-In . SVG Version: 6.00 Build 0)  -->
<svg version="1.1" id="Layer_1" xmlns="http://www.w3.org/2000/svg" xmlns:xlink="http://www.w3.org/1999/xlink" x="0px" y="0px"
	 viewBox="-362 321.9 150 150" style="enable-background:new -362 321.9 150 150;" xml:space="preserve">
<path id="XMLID_169_" d="M-287,321.9c-41.7,0-75,33.3-75,75s33.3,75,75,75s75-33.3,75-75S-245.3,321.9-287,321.9z M-256.2,431.9
	L-256.2,431.9c-3.3,1.7-6.7,2.5-10,2.5c-5,0-10-1.7-14.2-4.2c-3.3-0.8-6.7-2.5-9.2-4.2c-9.2-5.8-20.8-16.7-25.8-26.7
	c-1.7-3.3-3.3-5.8-4.2-9.2c-1.7-5-4.2-9.2-4.2-14.2c0-3.3,0.8-6.7,2.5-10c0-0.8,0.8-0.8,0.8-1.7l0,0c1.7-3.3,5-5,9.2-5
	s7.5,2.5,9.2,5.8c0.8,1.7,2.5,4.2,3.3,5.8c0.8,1.7,2.5,3.3,2.5,5c0,3.3-10,8.3-10,10.8c0,1.7,1.7,3.3,2.5,5
	c5.8,10,12.5,16.7,22.5,22.5c1.7,0.8,3.3,2.5,5,2.5c3.3,0,7.5-10,10.8-10c1.7,0,3.3,1.7,5,2.5c2.5,1.7,4.2,2.5,6.7,4.2l0,0
	c3.3,1.7,5,5,5,9.2C-249.5,426.1-252,430.2-256.2,431.9z"/>
</svg>
