<?xml version="1.0" encoding="utf-8"?>
<!-- Generator: Adobe Illustrator 19.0.0, SVG Export Plug-In . SVG Version: 6.00 Build 0)  -->
<svg version="1.1" id="Layer_1" xmlns="http://www.w3.org/2000/svg" xmlns:xlink="http://www.w3.org/1999/xlink" x="0px" y="0px"
	 viewBox="-362 321.9 150 150" style="enable-background:new -362 321.9 150 150;" xml:space="preserve">
<path id="XMLID_184_" d="M-219.5,423.8h-4.1v-16.6c0-6.6-5.8-12.4-12.4-12.4h-46.4v-18.2h21.5c3.3,0,6.6-2.5,6.6-6.6v-26.5
	c0-3.3-2.5-6.6-6.6-6.6h-52.2c-3.3,0-6.6,2.5-6.6,6.6V370c0,3.3,2.5,6.6,6.6,6.6h21.5v18.2H-338c-6.6,0-12.4,5.8-12.4,12.4v16.6
	h-4.1c-4.1,0-7.5,3.3-7.5,7.5v17.4c0,4.1,3.3,7.5,7.5,7.5h17.4c4.1,0,7.5-3.3,7.5-7.5v-17.4c0-4.1-3.3-7.5-7.5-7.5h-4.1v-16.6
	c0-1.7,1.7-3.3,3.3-3.3h46.4v20.7h-4.1c-4.1,0-7.5,3.3-7.5,7.5v17.4c0,4.1,3.3,7.5,7.5,7.5h17.4c4.1,0,7.5-3.3,7.5-7.5v-18.2
	c0-4.1-3.3-7.5-7.5-7.5h-4.1v-20.7h46.4c1.7,0,3.3,1.7,3.3,3.3V423h-4.1c-4.1,0-7.5,3.3-7.5,7.5v17.4c0,4.1,3.3,7.5,7.5,7.5h17.4
	c4.1,0,7.5-3.3,7.5-7.5v-16.6C-212,427.1-215.3,423.8-219.5,423.8z"/>
</svg>
