<?xml version="1.0" encoding="utf-8"?>
<!-- Generator: Adobe Illustrator 19.0.0, SVG Export Plug-In . SVG Version: 6.00 Build 0)  -->
<svg version="1.1" id="Layer_1" xmlns="http://www.w3.org/2000/svg" xmlns:xlink="http://www.w3.org/1999/xlink" x="0px" y="0px"
	 viewBox="-296 387.8 18 18.2" style="enable-background:new -296 387.8 18 18.2;" xml:space="preserve">
<path id="XMLID_184_" d="M-278.9,400.1h-0.5v-2c0-0.8-0.7-1.5-1.5-1.5h-5.6v-2.2h2.6c0.4,0,0.8-0.3,0.8-0.8v-3.2
	c0-0.4-0.3-0.8-0.8-0.8h-6.3c-0.4,0-0.8,0.3-0.8,0.8v3.2c0,0.4,0.3,0.8,0.8,0.8h2.6v2.2h-5.6c-0.8,0-1.5,0.7-1.5,1.5v2h-0.5
	c-0.5,0-0.9,0.4-0.9,0.9v2.1c0,0.5,0.4,0.9,0.9,0.9h2.1c0.5,0,0.9-0.4,0.9-0.9V401c0-0.5-0.4-0.9-0.9-0.9h-0.5v-2
	c0-0.2,0.2-0.4,0.4-0.4h5.6v2.5h-0.5c-0.5,0-0.9,0.4-0.9,0.9v2.1c0,0.5,0.4,0.9,0.9,0.9h2.1c0.5,0,0.9-0.4,0.9-0.9V401
	c0-0.5-0.4-0.9-0.9-0.9h-0.5v-2.5h5.6c0.2,0,0.4,0.2,0.4,0.4v2h-0.5c-0.5,0-0.9,0.4-0.9,0.9v2.1c0,0.5,0.4,0.9,0.9,0.9h2.1
	c0.5,0,0.9-0.4,0.9-0.9V401C-278,400.5-278.4,400.1-278.9,400.1z"/>
</svg>
