<?xml version="1.0" encoding="utf-8"?>
<!-- Generator: Adobe Illustrator 19.0.0, SVG Export Plug-In . SVG Version: 6.00 Build 0)  -->
<svg version="1.1" id="Layer_1" xmlns="http://www.w3.org/2000/svg" xmlns:xlink="http://www.w3.org/1999/xlink" x="0px" y="0px"
	 viewBox="-296 387.8 18 18.2" style="enable-background:new -296 387.8 18 18.2;" xml:space="preserve">
<g id="XMLID_132_">
	<path id="XMLID_152_" d="M-286.9,388c-0.2,0-0.4,0.2-0.4,0.4v5.7c0,0.2,0.2,0.4,0.4,0.4s0.4-0.2,0.4-0.4v-5.7
		C-286.6,388.2-286.7,388-286.9,388z"/>
	<path id="XMLID_151_" d="M-278.4,396.6h-5.7c-0.2,0-0.4,0.2-0.4,0.4c0,0.2,0.2,0.4,0.4,0.4h5.7c0.2,0,0.4-0.2,0.4-0.4
		C-278,396.8-278.2,396.6-278.4,396.6z"/>
	<path id="XMLID_150_" d="M-286.9,399.4c-0.2,0-0.4,0.2-0.4,0.4v5.7c0,0.2,0.2,0.4,0.4,0.4s0.4-0.2,0.4-0.4v-5.7
		C-286.6,399.6-286.7,399.4-286.9,399.4z"/>
	<path id="XMLID_149_" d="M-290,396.6h-5.7c-0.2,0-0.4,0.2-0.4,0.4c0,0.2,0.2,0.4,0.4,0.4h5.7c0.2,0,0.4-0.2,0.4-0.4
		C-289.6,396.8-289.8,396.6-290,396.6z"/>
	<path id="XMLID_144_" d="M-281.5,391.5c-1.2-1.2-2.8-2-4.5-2.2v0.7c1.5,0.2,2.9,0.9,4,2c1.1,1.1,1.7,2.5,1.9,4h0.7
		C-279.6,394.4-280.3,392.8-281.5,391.5z M-293.9,397.9h-0.7c0.5,3.5,3.2,6.2,6.7,6.6v-0.7C-291,403.4-293.4,401-293.9,397.9z
		 M-292.4,391.4c-1.3,1.3-2.1,2.9-2.3,4.6h0.7c0.2-1.6,0.9-3,2-4.1c1.1-1.1,2.5-1.7,4-1.9v-0.7
		C-289.6,389.5-291.1,390.2-292.4,391.4z M-280.1,397.9c-0.4,3-2.8,5.4-5.9,5.8v0.7c3.4-0.4,6.2-3.2,6.6-6.6L-280.1,397.9
		L-280.1,397.9z"/>
	<path id="XMLID_134_" d="M-286,392.4v0.3c1.6,0.4,2.9,1.7,3.2,3.3h0.3C-282.8,394.3-284.2,392.8-286,392.4z M-291.2,397.9h-0.3
		c0.4,1.8,1.8,3.1,3.6,3.5v-0.3C-289.5,400.8-290.8,399.5-291.2,397.9z M-291.5,396h0.3c0.3-1.7,1.7-3,3.3-3.3v-0.3
		C-289.7,392.8-291.1,394.2-291.5,396z M-282.8,397.9c-0.4,1.6-1.6,2.8-3.2,3.2v0.3c1.7-0.4,3.1-1.7,3.5-3.4H-282.8z"/>
</g>
</svg>
