<?xml version="1.0" encoding="utf-8"?>
<!-- Generator: Adobe Illustrator 19.0.0, SVG Export Plug-In . SVG Version: 6.00 Build 0)  -->
<svg version="1.1" id="Layer_1" xmlns="http://www.w3.org/2000/svg" xmlns:xlink="http://www.w3.org/1999/xlink" x="0px" y="0px"
	 viewBox="-362 321.9 150 150" style="enable-background:new -362 321.9 150 150;" xml:space="preserve">
<g id="XMLID_132_">
	<path id="XMLID_152_" d="M-285.8,322.7c-1.7,0-3.3,1.7-3.3,3.3v47.2c0,1.7,1.7,3.3,3.3,3.3c1.7,0,3.3-1.7,3.3-3.3V326
		C-283.3,324.4-284.1,322.7-285.8,322.7z"/>
	<path id="XMLID_151_" d="M-215.3,394h-47.2c-1.7,0-3.3,1.7-3.3,3.3c0,1.7,1.7,3.3,3.3,3.3h47.2c1.7,0,3.3-1.7,3.3-3.3
		C-212,395.7-213.7,394-215.3,394z"/>
	<path id="XMLID_150_" d="M-285.8,417.2c-1.7,0-3.3,1.7-3.3,3.3v47.2c0,1.7,1.7,3.3,3.3,3.3c1.7,0,3.3-1.7,3.3-3.3v-47.2
		C-283.3,418.9-284.1,417.2-285.8,417.2z"/>
	<path id="XMLID_149_" d="M-311.4,394h-47.2c-1.7,0-3.3,1.7-3.3,3.3c0,1.7,1.7,3.3,3.3,3.3h47.2c1.7,0,3.3-1.7,3.3-3.3
		C-308.1,395.7-309.8,394-311.4,394z"/>
	<path id="XMLID_144_" d="M-241,351.7c-9.9-9.9-23.2-16.6-37.3-18.2v5.8c12.4,1.7,24,7.5,33.1,16.6c9.1,9.1,14.1,20.7,15.7,33.1h5.8
		C-225.3,375.8-231.1,362.5-241,351.7z M-343.8,404.8h-5.8c4.1,29,26.5,51.4,55.5,54.7v-5.8C-319.7,450.4-339.6,430.5-343.8,404.8z
		 M-331.3,350.9c-10.8,10.8-17.4,24-19.1,38.1h5.8c1.7-13.3,7.5-24.9,16.6-34c9.1-9.1,20.7-14.1,33.1-15.7v-5.8
		C-308.1,335.2-320.6,341-331.3,350.9z M-229.4,404.8c-3.3,24.9-23.2,44.8-48.9,48.1v5.8c28.2-3.3,51.4-26.5,54.7-54.7L-229.4,404.8
		L-229.4,404.8z"/>
	<path id="XMLID_134_" d="M-278.3,359.2v2.5c13.3,3.3,24,14.1,26.5,27.3h2.5C-251.8,374.9-263.4,362.5-278.3,359.2z M-321.4,404.8
		h-2.5c3.3,14.9,14.9,25.7,29.8,29v-2.5C-307.3,428.8-318.1,418-321.4,404.8z M-323.9,389h2.5c2.5-14.1,14.1-24.9,27.3-27.3v-2.5
		C-309,362.5-320.6,374.1-323.9,389z M-251.8,404.8c-3.3,13.3-13.3,23.2-26.5,26.5v2.5c14.1-3.3,25.7-14.1,29-28.2h-2.5V404.8z"/>
</g>
</svg>
