<?xml version="1.0" encoding="utf-8"?>
<!-- Generator: Adobe Illustrator 19.0.0, SVG Export Plug-In . SVG Version: 6.00 Build 0)  -->
<svg version="1.1" id="Layer_1" xmlns="http://www.w3.org/2000/svg" xmlns:xlink="http://www.w3.org/1999/xlink" x="0px" y="0px"
	 viewBox="-362 321.9 150 150" style="enable-background:new -362 321.9 150 150;" xml:space="preserve">
<style type="text/css">
	.st0{opacity:0.6;}
</style>
<path id="XMLID_2_" class="st0" d="M-222,362.9c-6.8-8.2-15.9-14.7-27.4-19.6c-11.5-4.8-24-7.3-37.6-7.3c-13.6,0-26.1,2.4-37.7,7.3
	c-11.5,4.8-20.7,11.4-27.3,19.7c-6.7,8.3-10,17.3-10,27.1c0,8.3,2.5,16.2,7.5,23.6c5,7.4,11.9,13.7,20.7,18.8
	c-0.7,1.7-1.5,3.3-2.2,4.6c-0.7,1.4-1.6,2.7-2.5,4l-2.4,3.1c-0.7,0.7-1.7,1.7-2.9,2.9l-3.7,4.2l-0.8,1.1c-0.1,0.2-0.2,0.5-0.2,0.7
	v0.5c0,0.4,0,0.6,0,0.7c0.2,1,0.6,1.7,1.3,2.3c0.6,0.5,1.4,0.8,2.2,0.8h0.3c3.7-0.5,6.8-1,9.2-1.7c10.9-2.8,20.8-7.3,29.6-13.6
	c6.4,1.1,12.6,1.6,18.8,1.6c13.6,0,26.1-2.4,37.7-7.3c11.5-4.8,20.7-11.4,27.3-19.7c6.7-8.3,10-17.3,10-27.1
	C-212,380.3-215.3,371.2-222,362.9z M-319.6,401.6c-5.9,0-10.7-4.8-10.7-10.7c0-5.9,4.8-10.7,10.7-10.7c5.9,0,10.7,4.8,10.7,10.7
	C-308.9,396.8-313.7,401.6-319.6,401.6z M-287,401.6c-5.9,0-10.7-4.8-10.7-10.7c0-5.9,4.8-10.7,10.7-10.7c5.9,0,10.7,4.8,10.7,10.7
	C-276.3,396.8-281.1,401.6-287,401.6z M-254.4,401.6c-5.9,0-10.7-4.8-10.7-10.7c0-5.9,4.8-10.7,10.7-10.7c5.9,0,10.7,4.8,10.7,10.7
	C-243.7,396.8-248.5,401.6-254.4,401.6z"/>
</svg>
