<?xml version="1.0" encoding="utf-8"?>
<!-- Generator: Adobe Illustrator 19.0.0, SVG Export Plug-In . SVG Version: 6.00 Build 0)  -->
<svg version="1.1" id="Camada_1" xmlns="http://www.w3.org/2000/svg" xmlns:xlink="http://www.w3.org/1999/xlink" x="0px" y="0px"
	 viewBox="-230 322 150 150" style="enable-background:new -230 322 150 150;" xml:space="preserve">
<g id="XMLID_1_">
	<g id="XMLID_3_">
		<path id="XMLID_4_" d="M-85.4,346.2c3.6,3.6,5.4,8.1,5.4,13.3v93.8c0,5.2-1.8,9.7-5.4,13.3c-3.6,3.6-8.1,5.4-13.3,5.4h-112.6
			c-5.2,0-9.7-1.8-13.3-5.4s-5.4-8.1-5.4-13.3v-93.8c0-5.2,1.8-9.7,5.4-13.3c3.6-3.6,8.1-5.4,13.3-5.4l0.2-0.2
			c0-5.2,1.8-9.6,5.3-13.2c3.6-3.6,8-5.3,13.2-5.3c5.2,0,9.7,1.8,13.3,5.4c3.6,3.6,5.4,8.1,5.4,13.3h37.7v-0.2
			c0-5.2,1.8-9.6,5.3-13.2c3.6-3.6,8-5.3,13.2-5.3s9.7,1.8,13.3,5.4c3.6,3.6,5.4,8.1,5.4,13.3h0.2
			C-93.5,340.7-89.1,342.5-85.4,346.2z M-89.1,366.7h-131.4v83.7h131.4V366.7z M-182.9,340.9c0-2.5-0.9-4.6-2.8-6.4
			c-1.9-1.8-4-2.9-6.5-2.9s-4.7,0.9-6.5,2.7s-2.8,4-2.8,6.5v9.1c0,2.6,0.9,4.8,2.8,6.5c1.8,1.8,4,2.7,6.5,2.7s4.7-0.9,6.5-2.7
			c1.8-1.8,2.8-4,2.8-6.5V340.9z M-124.1,356.5c1.8,1.8,4.1,2.7,6.6,2.7s4.8-0.9,6.5-2.7c1.8-1.8,2.7-4,2.7-6.5v-9.1
			c0-2.5-0.9-4.6-2.7-6.4c-1.8-1.8-4-2.8-6.5-2.8s-4.8,0.9-6.6,2.7c-1.8,1.8-2.8,4-2.8,6.5v9.1C-126.9,352.6-126,354.7-124.1,356.5z
			"/>
	</g>
	<rect id="XMLID_2_" x="-186.2" y="401.8" width="62.4" height="12.9"/>
</g>
</svg>
