<?xml version="1.0" encoding="utf-8"?>
<!-- Generator: Adobe Illustrator 19.0.0, SVG Export Plug-In . SVG Version: 6.00 Build 0)  -->
<svg version="1.1" id="Camada_1" xmlns="http://www.w3.org/2000/svg" xmlns:xlink="http://www.w3.org/1999/xlink" x="0px" y="0px"
	 viewBox="0 0 150 150" style="enable-background:new 0 0 150 150;" xml:space="preserve">
<g id="XMLID_1_">
	<g id="XMLID_3_">
		<path id="XMLID_4_" d="M144.1,24.5c3.6,3.6,5.4,8,5.4,13.2v93.2c0,5.2-1.8,9.6-5.4,13.2c-3.6,3.6-8,5.4-13.2,5.4H19.1
			c-5.2,0-9.6-1.8-13.2-5.4c-3.6-3.6-5.4-8-5.4-13.2V37.7c0-5.2,1.8-9.6,5.4-13.2c3.6-3.6,8-5.4,13.2-5.4l0.2-0.2
			c0-5.2,1.8-9.5,5.3-13.1c3.6-3.6,7.9-5.3,13.1-5.3s9.6,1.8,13.2,5.4c3.6,3.6,5.4,8,5.4,13.2h37.4v-0.2c0-5.2,1.8-9.5,5.3-13.1
			c3.6-3.6,7.9-5.3,13.1-5.3c5.2,0,9.6,1.8,13.2,5.4c3.6,3.6,5.4,8,5.4,13.2h0.2C136.1,19.1,140.5,20.9,144.1,24.5z M140.5,44.9H10
			V128h130.5V44.9z M47.3,19.3c0-2.5-0.9-4.6-2.8-6.4S40.5,10,38,10c-2.5,0-4.7,0.9-6.5,2.7c-1.8,1.8-2.8,4-2.8,6.5v9
			c0,2.6,0.9,4.8,2.8,6.5c1.8,1.8,4,2.7,6.5,2.7c2.5,0,4.7-0.9,6.5-2.7c1.8-1.8,2.8-4,2.8-6.5V19.3z M105.7,34.8
			c1.8,1.8,4.1,2.7,6.6,2.7s4.8-0.9,6.5-2.7c1.8-1.8,2.7-4,2.7-6.5v-9c0-2.5-0.9-4.6-2.7-6.4c-1.8-1.8-4-2.8-6.5-2.8
			s-4.8,0.9-6.6,2.7c-1.8,1.8-2.8,4-2.8,6.5v9C102.9,30.9,103.8,33,105.7,34.8z"/>
	</g>
	<rect id="XMLID_2_" x="44" y="79.8" width="62" height="12.8"/>
</g>
</svg>
