<?xml version="1.0" encoding="utf-8"?>
<!-- Generator: Adobe Illustrator 19.0.0, SVG Export Plug-In . SVG Version: 6.00 Build 0)  -->
<svg version="1.1" id="Camada_1" xmlns="http://www.w3.org/2000/svg" xmlns:xlink="http://www.w3.org/1999/xlink" x="0px" y="0px"
	 viewBox="0 0 150 150" style="enable-background:new 0 0 150 150;" xml:space="preserve">
<path id="XMLID_11_" d="M75,0C33.6,0,0,33.6,0,75c0,41.4,33.6,75,75,75c41.4,0,75-33.6,75-75C150,33.6,116.4,0,75,0z M109.6,81.6
	c-1.8,1.8-4,2.8-6.7,2.8H84.5v18.5c0,2.6-0.9,4.8-2.8,6.6c-1.8,1.8-4.1,2.8-6.6,2.8c-2.6,0-4.8-0.9-6.6-2.8
	c-1.8-1.8-2.7-4.1-2.7-6.6V84.4H47.1c-2.6,0-4.9-0.9-6.7-2.7c-1.8-1.8-2.7-4-2.7-6.6c0-2.6,0.9-4.8,2.7-6.6c1.8-1.8,4-2.7,6.7-2.7
	h18.7V47c0-2.6,0.9-4.8,2.7-6.6c1.8-1.8,4-2.7,6.6-2.7c2.6,0,4.8,0.9,6.6,2.7c1.8,1.8,2.8,4,2.8,6.6v18.6h18.4
	c2.6,0,4.9,0.9,6.7,2.7c1.8,1.8,2.7,4,2.7,6.6C112.3,77.5,111.4,79.7,109.6,81.6z"/>
</svg>
