<?xml version="1.0" encoding="utf-8"?>
<!-- Generator: Adobe Illustrator 19.0.0, SVG Export Plug-In . SVG Version: 6.00 Build 0)  -->
<svg version="1.1" id="Layer_1" xmlns="http://www.w3.org/2000/svg" xmlns:xlink="http://www.w3.org/1999/xlink" x="0px" y="0px"
	 viewBox="25 -25 150 150" style="enable-background:new 25 -25 150 150;" xml:space="preserve">
<g>
	<g>
		<path d="M61.6,0c0.9,0,1.7,0.3,2.2,1l46.7,46.7c0.7,0.7,1,1.4,1,2.3c0,0.9-0.3,1.6-1,2.3L63.9,99c-0.5,0.7-1.3,1-2.2,1
			c-0.9,0-1.7-0.3-2.2-1l-5-5c-0.7-0.7-1-1.4-1-2.3s0.3-1.6,1-2.3L93.7,50L54.4,10.7c-0.7-0.7-1-1.4-1-2.3s0.3-1.6,1-2.3l5-5
			C60,0.3,60.7,0,61.6,0z"/>
	</g>
	<g>
		<path d="M96.7,0c0.9,0,1.7,0.3,2.2,1l46.7,46.7c0.7,0.7,1,1.4,1,2.3c0,0.9-0.3,1.6-1,2.3L98.9,99c-0.5,0.7-1.3,1-2.2,1
			c-0.9,0-1.7-0.3-2.2-1l-5-5c-0.7-0.7-1-1.4-1-2.3s0.3-1.6,1-2.3L128.7,50L89.5,10.7c-0.7-0.7-1-1.4-1-2.3s0.3-1.6,1-2.3l5-5
			C95,0.3,95.8,0,96.7,0z"/>
	</g>
</g>
</svg>
