<?xml version="1.0" encoding="utf-8"?>
<!-- Generator: Adobe Illustrator 19.0.0, SVG Export Plug-In . SVG Version: 6.00 Build 0)  -->
<svg version="1.1" id="Layer_1" xmlns="http://www.w3.org/2000/svg" xmlns:xlink="http://www.w3.org/1999/xlink" x="0px" y="0px"
	 viewBox="-230 322 150 150" style="enable-background:new -230 322 150 150;" xml:space="preserve">
<g>
	<g>
		<path d="M-193.4,347c0.9,0,1.7,0.3,2.2,1l46.7,46.7c0.7,0.7,1,1.4,1,2.3s-0.3,1.6-1,2.3l-46.6,46.7c-0.5,0.7-1.3,1-2.2,1
			c-0.9,0-1.7-0.3-2.2-1l-5-5c-0.7-0.7-1-1.4-1-2.3c0-0.9,0.3-1.6,1-2.3l39.2-39.4l-39.3-39.3c-0.7-0.7-1-1.4-1-2.3s0.3-1.6,1-2.3
			l5-5C-195,347.3-194.3,347-193.4,347z"/>
	</g>
	<g>
		<path d="M-158.3,347c0.9,0,1.7,0.3,2.2,1l46.7,46.7c0.7,0.7,1,1.4,1,2.3s-0.3,1.6-1,2.3l-46.7,46.7c-0.5,0.7-1.3,1-2.2,1
			c-0.9,0-1.7-0.3-2.2-1l-5-5c-0.7-0.7-1-1.4-1-2.3c0-0.9,0.3-1.6,1-2.3l39.2-39.4l-39.2-39.3c-0.7-0.7-1-1.4-1-2.3s0.3-1.6,1-2.3
			l5-5C-160,347.3-159.2,347-158.3,347z"/>
	</g>
</g>
</svg>
