<?xml version="1.0" encoding="utf-8"?>
<!-- Generator: Adobe Illustrator 19.0.0, SVG Export Plug-In . SVG Version: 6.00 Build 0)  -->
<svg version="1.1" id="Layer_1" xmlns="http://www.w3.org/2000/svg" xmlns:xlink="http://www.w3.org/1999/xlink" x="0px" y="0px"
	 viewBox="-230 322 150 150" style="enable-background:new -230 322 150 150;" xml:space="preserve">
<g>
	<g>
		<path d="M-116.7,447c-0.9,0-1.7-0.3-2.2-1l-46.6-46.7c-0.7-0.7-1-1.4-1-2.3s0.3-1.6,1-2.3l46.6-46.7c0.5-0.7,1.3-1,2.2-1
			s1.7,0.3,2.2,1l5,5c0.7,0.7,1,1.4,1,2.3c0,0.9-0.3,1.6-1,2.3l-39.2,39.4l39.2,39.2c0.7,0.7,1,1.4,1,2.3s-0.3,1.6-1,2.3l-5,5
			C-114.9,446.7-115.7,447-116.7,447z"/>
	</g>
	<g>
		<path d="M-151.6,447c-0.9,0-1.7-0.3-2.2-1l-46.7-46.7c-0.7-0.7-1-1.4-1-2.3s0.3-1.6,1-2.3L-154,348c0.5-0.7,1.3-1,2.2-1
			s1.7,0.3,2.2,1l5,5c0.7,0.7,1,1.4,1,2.3c0,0.9-0.3,1.6-1,2.3l-39.1,39.5l39.2,39.2c0.7,0.7,1,1.4,1,2.3s-0.3,1.6-1,2.3l-5,5
			C-150,446.7-150.8,447-151.6,447z"/>
	</g>
</g>
</svg>
