<?xml version="1.0" encoding="utf-8"?>
<!-- Generator: Adobe Illustrator 19.0.0, SVG Export Plug-In . SVG Version: 6.00 Build 0)  -->
<svg version="1.1" id="Layer_1" xmlns="http://www.w3.org/2000/svg" xmlns:xlink="http://www.w3.org/1999/xlink" x="0px" y="0px"
	 viewBox="25 -25 150 150" style="enable-background:new 25 -25 150 150;" xml:space="preserve">
<g>
	<g>
		<path d="M138.4,100c-0.9,0-1.7-0.3-2.2-1L89.6,52.3c-0.7-0.7-1-1.4-1-2.3c0-0.9,0.3-1.6,1-2.3L136.2,1c0.5-0.7,1.3-1,2.2-1
			s1.7,0.3,2.2,1l5,5c0.7,0.7,1,1.4,1,2.3s-0.3,1.6-1,2.3L106.4,50l39.2,39.2c0.7,0.7,1,1.4,1,2.3s-0.3,1.6-1,2.3l-5,5
			C140.1,99.7,139.4,100,138.4,100z"/>
	</g>
	<g>
		<path d="M103.4,100c-0.9,0-1.7-0.3-2.2-1L54.5,52.3c-0.7-0.7-1-1.4-1-2.3c0-0.9,0.3-1.6,1-2.3L101.1,1c0.5-0.7,1.3-1,2.2-1
			c0.9,0,1.7,0.3,2.2,1l5,5c0.7,0.7,1,1.4,1,2.3s-0.3,1.6-1,2.3L71.4,50.1l39.2,39.2c0.7,0.7,1,1.4,1,2.3s-0.3,1.6-1,2.3l-5,5
			C105.1,99.7,104.3,100,103.4,100z"/>
	</g>
</g>
</svg>
