<?xml version="1.0" encoding="utf-8"?>
<!-- Generator: Adobe Illustrator 19.0.0, SVG Export Plug-In . SVG Version: 6.00 Build 0)  -->
<svg version="1.1" id="Layer_1" xmlns="http://www.w3.org/2000/svg" xmlns:xlink="http://www.w3.org/1999/xlink" x="0px" y="0px"
	 viewBox="-230 322 150 150" style="enable-background:new -230 322 150 150;" xml:space="preserve">
<g>
	<g>
		<path d="M-205,435.4c0-0.9,0.3-1.7,1-2.2l46.7-46.7c0.7-0.7,1.4-1,2.3-1s1.6,0.3,2.3,1l46.7,46.6c0.7,0.5,1,1.3,1,2.2
			c0,0.9-0.3,1.7-1,2.2l-5,5c-0.7,0.7-1.4,1-2.3,1c-0.9,0-1.6-0.3-2.3-1l-39.5-39.1l-39.2,39.2c-0.7,0.7-1.4,1-2.3,1
			c-0.9,0-1.6-0.3-2.3-1l-5-5C-204.7,437-205,436.3-205,435.4z"/>
	</g>
	<g>
		<path d="M-205,400.3c0-0.9,0.3-1.7,1-2.2l46.7-46.7c0.7-0.7,1.4-1,2.3-1s1.6,0.3,2.3,1l46.7,46.7c0.7,0.5,1,1.3,1,2.2
			c0,0.9-0.3,1.7-1,2.2l-5,5c-0.7,0.7-1.4,1-2.3,1c-0.9,0-1.6-0.3-2.3-1l-39.5-39.2l-39.2,39.2c-0.7,0.7-1.4,1-2.3,1
			c-0.9,0-1.6-0.3-2.3-1l-5-5C-204.7,402-205,401.2-205,400.3z"/>
	</g>
</g>
</svg>
