<?xml version="1.0" encoding="utf-8"?>
<!-- Generator: Adobe Illustrator 19.0.0, SVG Export Plug-In . SVG Version: 6.00 Build 0)  -->
<svg version="1.1" id="Layer_1" xmlns="http://www.w3.org/2000/svg" xmlns:xlink="http://www.w3.org/1999/xlink" x="0px" y="0px"
	 viewBox="25 -25 150 150" style="enable-background:new 25 -25 150 150;" xml:space="preserve">
<g>
	<g>
		<path d="M50,88.4c0-0.9,0.3-1.7,1-2.2l46.7-46.7c0.7-0.7,1.4-1,2.3-1s1.6,0.3,2.3,1L149,86.1c0.7,0.5,1,1.3,1,2.2
			c0,0.9-0.3,1.7-1,2.2l-5,5c-0.7,0.7-1.4,1-2.3,1c-0.9,0-1.6-0.3-2.3-1L99.9,56.4L60.7,95.6c-0.7,0.7-1.4,1-2.3,1
			c-0.9,0-1.6-0.3-2.3-1l-5-5C50.3,90,50,89.3,50,88.4z"/>
	</g>
	<g>
		<path d="M50,53.3c0-0.9,0.3-1.7,1-2.2L97.7,4.4c0.7-0.7,1.4-1,2.3-1s1.6,0.3,2.3,1L149,51.1c0.7,0.5,1,1.3,1,2.2s-0.3,1.7-1,2.2
			l-5,5c-0.7,0.7-1.4,1-2.3,1c-0.9,0-1.6-0.3-2.3-1L99.9,21.3L60.7,60.5c-0.7,0.7-1.4,1-2.3,1c-0.9,0-1.6-0.3-2.3-1l-5-5
			C50.3,55,50,54.2,50,53.3z"/>
	</g>
</g>
</svg>
