<?xml version="1.0" encoding="utf-8"?>
<!-- Generator: Adobe Illustrator 19.0.0, SVG Export Plug-In . SVG Version: 6.00 Build 0)  -->
<svg version="1.1" id="Layer_1" xmlns="http://www.w3.org/2000/svg" xmlns:xlink="http://www.w3.org/1999/xlink" x="0px" y="0px"
	 viewBox="25 -25 150 150" style="enable-background:new 25 -25 150 150;" xml:space="preserve">
<g>
	<g>
		<path d="M150,11.5c0,0.9-0.3,1.7-1,2.2l-46.7,46.7c-0.7,0.7-1.4,1-2.3,1s-1.6-0.3-2.3-1L51,13.8c-0.7-0.5-1-1.3-1-2.2
			s0.3-1.7,1-2.2l5-5c0.7-0.7,1.4-1,2.3-1c0.9,0,1.6,0.3,2.3,1L100,43.6l39.2-39.2c0.7-0.7,1.4-1,2.3-1c0.9,0,1.6,0.3,2.3,1l5,5
			C149.7,9.9,150,10.6,150,11.5z"/>
	</g>
	<g>
		<path d="M150,46.6c0,0.9-0.3,1.7-1,2.2l-46.7,46.7c-0.7,0.7-1.4,1-2.3,1s-1.6-0.3-2.3-1L51,48.8c-0.7-0.5-1-1.3-1-2.2
			s0.3-1.7,1-2.2l5-5c0.7-0.7,1.4-1,2.3-1c0.9,0,1.6,0.3,2.3,1L100,78.6l39.2-39.2c0.7-0.7,1.4-1,2.3-1c0.9,0,1.6,0.3,2.3,1l5,5
			C149.7,44.9,150,45.7,150,46.6z"/>
	</g>
</g>
</svg>
