<?xml version="1.0" encoding="utf-8"?>
<!-- Generator: Adobe Illustrator 19.0.0, SVG Export Plug-In . SVG Version: 6.00 Build 0)  -->
<svg version="1.1" id="Layer_1" xmlns="http://www.w3.org/2000/svg" xmlns:xlink="http://www.w3.org/1999/xlink" x="0px" y="0px"
	 viewBox="-230 322 150 150" style="enable-background:new -230 322 150 150;" xml:space="preserve">
<g>
	<g>
		<path d="M-105,358.5c0,0.9-0.3,1.7-1,2.2l-46.7,46.7c-0.7,0.7-1.4,1-2.3,1s-1.6-0.3-2.3-1l-46.7-46.6c-0.7-0.5-1-1.3-1-2.2
			s0.3-1.7,1-2.2l5-5c0.7-0.7,1.4-1,2.3-1c0.9,0,1.6,0.3,2.3,1l39.4,39.2l39.2-39.2c0.7-0.7,1.4-1,2.3-1c0.9,0,1.6,0.3,2.3,1l5,5
			C-105.3,357-105,357.6-105,358.5z"/>
	</g>
	<g>
		<path d="M-105,393.6c0,0.9-0.3,1.7-1,2.2l-46.7,46.7c-0.7,0.7-1.4,1-2.3,1s-1.6-0.3-2.3-1l-46.7-46.7c-0.7-0.5-1-1.3-1-2.2
			s0.3-1.7,1-2.2l5-5c0.7-0.7,1.4-1,2.3-1c0.9,0,1.6,0.3,2.3,1l39.4,39.2l39.2-39.2c0.7-0.7,1.4-1,2.3-1c0.9,0,1.6,0.3,2.3,1l5,5
			C-105.3,392-105,392.8-105,393.6z"/>
	</g>
</g>
</svg>
