<?xml version="1.0" encoding="utf-8"?>
<!-- Generator: Adobe Illustrator 19.0.0, SVG Export Plug-In . SVG Version: 6.00 Build 0)  -->
<svg version="1.1" id="Layer_1" xmlns="http://www.w3.org/2000/svg" xmlns:xlink="http://www.w3.org/1999/xlink" x="0px" y="0px"
	 viewBox="-230 322 150 150" style="enable-background:new -230 322 150 150;" xml:space="preserve">
<style type="text/css">
	.st0{fill:#00A2C2;}
	.st1{fill:#00A2B9;}
</style>
<g>
	<path class="st0" d="M-85.3,372.3c0,2.7-0.8,5.1-2.5,7.2c-2.2,1.7-4.6,2.5-7.2,2.5c-2.7,0-4.9-0.8-6.7-2.5l-13.7-13.9l-13.7,13.9
		c-2.2,1.7-4.6,2.5-7.2,2.5c-2.7,0-4.9-0.8-6.7-2.5c-1.7-2.1-2.5-4.6-2.5-7.2c0-2.7,0.8-4.9,2.5-6.7l13.9-13.7l-13.9-13.6
		c-1.7-1.8-2.5-4.1-2.5-6.9c0-2.8,0.8-5.2,2.5-6.9c2.2-1.6,4.6-2.5,7.2-2.5c2.7,0,4.9,0.8,6.7,2.5l13.7,13.9l13.7-13.9
		c2.2-1.6,4.6-2.5,7.2-2.5c2.7,0,4.8,0.9,6.6,2.6c1.7,1.7,2.6,4,2.6,6.8c0,2.8-0.8,5.2-2.5,6.9l-13.9,13.6l13.9,13.7
		C-86.2,367.4-85.3,369.6-85.3,372.3"/>
	<path class="st1" d="M-192.4,409.5h-32.3c0-6,1.6-11.5,4.8-16.5c3.2-5,7.4-8.8,12.7-11.4c4.1,3,8.7,4.5,13.8,4.5
		c1.3,0,2.8-0.2,4.5-0.5c-3,4.9-4.5,10.3-4.5,15.9C-193.4,403.9-193.1,406.6-192.4,409.5"/>
	<path class="st1" d="M-204.7,373.9c-3.1-3.1-4.6-6.8-4.6-11.2c0-4.4,1.6-8.1,4.6-11.2c3.1-3.1,6.8-4.6,11.2-4.6
		c4.4,0,8.1,1.6,11.2,4.6c3.1,3.1,4.6,6.8,4.6,11.2c0,4.4-1.5,8.1-4.6,11.2c-3.1,3.1-6.8,4.6-11.1,4.6
		C-197.9,378.5-201.6,377-204.7,373.9"/>
	<path class="st1" d="M-138.7,431.4c7.1,4.1,12.7,9.7,16.9,16.9c4.3,7.3,6.5,15.2,6.5,23.7h-94c0-8.5,2.2-16.3,6.5-23.7
		c4.1-7.1,9.7-12.7,16.8-16.9c7.2-4.3,15.1-6.5,23.7-6.5C-153.9,424.9-146,427.1-138.7,431.4"/>
	<path class="st1" d="M-182.8,389.8c2.1-3.6,4.9-6.4,8.5-8.5c3.6-2.1,7.5-3.1,11.7-3.1s8.1,1,11.8,3.1c3.6,2.1,6.4,4.9,8.5,8.5
		c2.1,3.6,3.1,7.5,3.1,11.7s-1,8.1-3.1,11.8c-2.1,3.6-4.9,6.4-8.5,8.5c-3.6,2.1-7.5,3.1-11.7,3.1s-8.1-1-11.7-3.1
		c-3.6-2.1-6.4-4.9-8.5-8.5c-2.1-3.6-3.1-7.5-3.1-11.8C-185.9,397.3-184.8,393.4-182.8,389.8"/>
</g>
</svg>
