<?xml version="1.0" encoding="utf-8"?>
<!-- Generator: Adobe Illustrator 19.0.0, SVG Export Plug-In . SVG Version: 6.00 Build 0)  -->
<svg version="1.1" id="Layer_1" xmlns="http://www.w3.org/2000/svg" xmlns:xlink="http://www.w3.org/1999/xlink" x="0px" y="0px"
	 viewBox="25 -25 150 150" style="enable-background:new 25 -25 150 150;" xml:space="preserve">
<style type="text/css">
	.st0{fill:#00A2C2;}
	.st1{fill:#00A2B9;}
</style>
<g>
	<path class="st0" d="M169.7,25.3c0,2.7-0.8,5.1-2.5,7.2c-2.2,1.7-4.6,2.5-7.2,2.5c-2.7,0-4.9-0.8-6.7-2.5l-13.7-13.9l-13.7,13.9
		c-2.2,1.7-4.6,2.5-7.2,2.5c-2.7,0-4.9-0.8-6.7-2.5c-1.7-2.1-2.5-4.6-2.5-7.2c0-2.7,0.8-4.9,2.5-6.7l13.9-13.7L112-8.7
		c-1.7-1.8-2.5-4.1-2.5-6.9s0.8-5.2,2.5-6.9c2.2-1.6,4.6-2.5,7.2-2.5c2.7,0,4.9,0.8,6.7,2.5l13.7,13.9l13.7-13.9
		c2.2-1.6,4.6-2.5,7.2-2.5c2.7,0,4.8,0.9,6.6,2.6c1.7,1.7,2.6,4,2.6,6.8s-0.8,5.2-2.5,6.9L153.3,4.9l13.9,13.7
		C168.8,20.4,169.7,22.6,169.7,25.3"/>
	<path class="st1" d="M62.6,62.5H30.3c0-6,1.6-11.5,4.8-16.5c3.2-5,7.4-8.8,12.7-11.4c4.1,3,8.7,4.5,13.8,4.5c1.3,0,2.8-0.2,4.5-0.5
		c-3,4.9-4.5,10.3-4.5,15.9C61.6,56.9,61.9,59.6,62.6,62.5"/>
	<path class="st1" d="M50.3,26.9c-3.1-3.1-4.6-6.8-4.6-11.2s1.6-8.1,4.6-11.2c3.1-3.1,6.8-4.6,11.2-4.6s8.1,1.6,11.2,4.6
		c3.1,3.1,4.6,6.8,4.6,11.2s-1.5,8.1-4.6,11.2s-6.8,4.6-11.1,4.6C57.1,31.5,53.4,30,50.3,26.9"/>
	<path class="st1" d="M116.3,84.4c7.1,4.1,12.7,9.7,16.9,16.9c4.3,7.3,6.5,15.2,6.5,23.7h-94c0-8.5,2.2-16.3,6.5-23.7
		c4.1-7.1,9.7-12.7,16.8-16.9c7.2-4.3,15.1-6.5,23.7-6.5C101.1,77.9,109,80.1,116.3,84.4"/>
	<path class="st1" d="M72.2,42.8c2.1-3.6,4.9-6.4,8.5-8.5s7.5-3.1,11.7-3.1s8.1,1,11.8,3.1c3.6,2.1,6.4,4.9,8.5,8.5
		s3.1,7.5,3.1,11.7s-1,8.1-3.1,11.8c-2.1,3.6-4.9,6.4-8.5,8.5s-7.5,3.1-11.7,3.1s-8.1-1-11.7-3.1s-6.4-4.9-8.5-8.5
		c-2.1-3.6-3.1-7.5-3.1-11.8C69.1,50.3,70.2,46.4,72.2,42.8"/>
</g>
</svg>
