<?xml version="1.0" encoding="utf-8"?>
<!-- Generator: Adobe Illustrator 19.0.0, SVG Export Plug-In . SVG Version: 6.00 Build 0)  -->
<svg version="1.1" id="Layer_1" xmlns="http://www.w3.org/2000/svg" xmlns:xlink="http://www.w3.org/1999/xlink" x="0px" y="0px"
	 viewBox="25 -25 150 150" style="enable-background:new 25 -25 150 150;" xml:space="preserve">
<g>
	<path d="M56.5-9.4c3.4,3.4,5.1,7.7,5.1,12.9c0,3.2-0.8,6.2-2.3,8.9c-1.6,2.7-3.7,4.9-6.4,6.6c-2.7,1.7-5.7,2.5-9,2.5
		c-3.3,0-6.3-0.8-9.1-2.3c-2.8-1.6-5-3.7-6.7-6.4c-1.7-2.7-2.5-5.7-2.5-9c0-3.3,0.8-6.3,2.3-9.1c1.6-2.8,3.7-5,6.5-6.7
		c2.8-1.7,5.8-2.5,9.2-2.5C48.8-14.5,53.1-12.8,56.5-9.4z"/>
	<path d="M56.5,37.1c3.4,3.4,5.1,7.7,5.1,12.9c0,3.1-0.8,6.1-2.3,8.8c-1.6,2.8-3.7,5-6.4,6.7c-2.7,1.7-5.7,2.5-9,2.5
		c-3.3,0-6.3-0.8-9.1-2.3c-2.8-1.6-5-3.7-6.7-6.5c-1.7-2.8-2.5-5.8-2.5-9c0-3.2,0.8-6.2,2.3-9c1.6-2.8,3.7-5,6.5-6.7
		c2.8-1.7,5.8-2.5,9.2-2.5C48.8,32,53.1,33.7,56.5,37.1z"/>
	<path d="M56.5,83.5c3.4,3.4,5.1,7.7,5.1,12.9c0,3.1-0.8,6.1-2.3,8.8c-1.6,2.8-3.7,5-6.4,6.7c-2.7,1.7-5.7,2.5-9,2.5
		c-3.3,0-6.3-0.8-9.1-2.3c-2.8-1.6-5-3.7-6.7-6.5c-1.7-2.8-2.5-5.8-2.5-9.1c0-3.3,0.8-6.3,2.3-9c1.6-2.7,3.7-4.9,6.5-6.6
		c2.8-1.7,5.8-2.5,9.2-2.5C48.8,78.5,53.1,80.1,56.5,83.5z"/>
	<path d="M174.4,3.5c0-1.4-0.5-2.5-1.4-3.4c-0.9-0.9-2.1-1.3-3.5-1.3h-90c-1.4,0-2.5,0.4-3.4,1.3c-0.9,0.9-1.3,2-1.3,3.4
		c0,1.4,0.4,2.5,1.3,3.5c0.9,0.9,2,1.4,3.4,1.4h90c1.4,0,2.5-0.5,3.5-1.4C174,6.1,174.4,4.9,174.4,3.5z"/>
	<path d="M174.4,50c0-1.1-0.5-2.1-1.4-3.1c-1-1-2.1-1.5-3.4-1.5h-90c-1.4,0-2.5,0.4-3.4,1.3c-0.9,0.9-1.3,2-1.3,3.4
		c0,1.4,0.4,2.5,1.3,3.4c0.9,0.9,2,1.3,3.4,1.3h90c1.4,0,2.5-0.4,3.5-1.3C174,52.5,174.4,51.4,174.4,50z"/>
	<path d="M174.4,96.5c0-1.4-0.5-2.5-1.4-3.5c-0.9-0.9-2.1-1.4-3.5-1.4h-90c-1.4,0-2.5,0.5-3.4,1.4c-0.9,0.9-1.3,2.1-1.3,3.5
		c0,1.4,0.4,2.5,1.3,3.4c0.9,0.9,2,1.3,3.4,1.3h90c1.4,0,2.5-0.4,3.5-1.3C174,99,174.4,97.9,174.4,96.5z"/>
</g>
</svg>
