<?xml version="1.0" encoding="utf-8"?>
<!-- Generator: Adobe Illustrator 19.0.0, SVG Export Plug-In . SVG Version: 6.00 Build 0)  -->
<svg version="1.1" id="Layer_1" xmlns="http://www.w3.org/2000/svg" xmlns:xlink="http://www.w3.org/1999/xlink" x="0px" y="0px"
	 viewBox="-230 322 150 150" style="enable-background:new -230 322 150 150;" xml:space="preserve">
<g>
	<path d="M-198.9,337.2c3.4,3.4,5.1,7.8,5.1,13c0,3.2-0.8,6.3-2.3,9c-1.6,2.7-3.7,4.9-6.5,6.7c-2.7,1.7-5.7,2.5-9.1,2.5
		s-6.4-0.8-9.2-2.3c-2.8-1.6-5-3.7-6.8-6.5c-1.7-2.7-2.5-5.7-2.5-9.1c0-3.3,0.8-6.4,2.3-9.2c1.6-2.8,3.7-5,6.6-6.8
		c2.8-1.7,5.8-2.5,9.3-2.5C-206.6,332-202.3,333.7-198.9,337.2z"/>
	<path d="M-198.9,384c3.4,3.4,5.1,7.8,5.1,13c0,3.1-0.8,6.1-2.3,8.9c-1.6,2.8-3.7,5-6.5,6.8c-2.7,1.7-5.7,2.5-9.1,2.5
		s-6.4-0.8-9.2-2.3c-2.8-1.6-5-3.7-6.8-6.6c-1.7-2.8-2.5-5.8-2.5-9.1s0.8-6.3,2.3-9.1c1.6-2.8,3.7-5,6.6-6.8
		c2.8-1.7,5.8-2.5,9.3-2.5C-206.6,378.9-202.3,380.6-198.9,384z"/>
	<path d="M-198.9,430.8c3.4,3.4,5.1,7.8,5.1,13c0,3.1-0.8,6.1-2.3,8.9c-1.6,2.8-3.7,5-6.5,6.8c-2.7,1.7-5.7,2.5-9.1,2.5
		s-6.4-0.8-9.2-2.3c-2.8-1.6-5-3.7-6.8-6.6c-1.7-2.8-2.5-5.8-2.5-9.2c0-3.3,0.8-6.4,2.3-9.1c1.6-2.7,3.7-4.9,6.6-6.7
		c2.8-1.7,5.8-2.5,9.3-2.5C-206.6,425.8-202.3,427.4-198.9,430.8z"/>
	<path d="M-80,350.2c0-1.4-0.5-2.5-1.4-3.4s-2.1-1.3-3.5-1.3h-90.7c-1.4,0-2.5,0.4-3.4,1.3s-1.3,2-1.3,3.4c0,1.4,0.4,2.5,1.3,3.5
		c0.9,0.9,2,1.4,3.4,1.4h90.7c1.4,0,2.5-0.5,3.5-1.4S-80,351.6-80,350.2z"/>
	<path d="M-80,397.1c0-1.1-0.5-2.1-1.4-3.1c-1-1-2.1-1.5-3.4-1.5h-90.7c-1.4,0-2.5,0.4-3.4,1.3s-1.3,2-1.3,3.4s0.4,2.5,1.3,3.4
		s2,1.3,3.4,1.3h90.7c1.4,0,2.5-0.4,3.5-1.3C-80.4,399.6-80,398.5-80,397.1z"/>
	<path d="M-80,443.9c0-1.4-0.5-2.5-1.4-3.5c-0.9-0.9-2.1-1.4-3.5-1.4h-90.7c-1.4,0-2.5,0.5-3.4,1.4s-1.3,2.1-1.3,3.5
		c0,1.4,0.4,2.5,1.3,3.4s2,1.3,3.4,1.3h90.7c1.4,0,2.5-0.4,3.5-1.3S-80,445.3-80,443.9z"/>
</g>
</svg>
