<?xml version="1.0" encoding="utf-8"?>
<!-- Generator: Adobe Illustrator 19.0.0, SVG Export Plug-In . SVG Version: 6.00 Build 0)  -->
<svg version="1.1" id="Layer_1" xmlns="http://www.w3.org/2000/svg" xmlns:xlink="http://www.w3.org/1999/xlink" x="0px" y="0px"
	 viewBox="-230 322 150 150" style="enable-background:new -230 322 150 150;" xml:space="preserve">
<g>
	<g>
		<path d="M-191.7,392.2c1.6-1.6,3.9-2.5,6.7-2.5c2.8,0,5.4,0.8,7.7,2.5l12.2,12.2l32.1-31.2c1.7-1.6,4-2.5,6.9-2.5
			c2.8,0,5.4,0.8,7.7,2.5c1.6,1.6,2.5,3.9,2.5,6.7c0,2.8-0.8,5-2.5,6.7l-39,39c-1.6,1.6-3.9,2.5-6.8,2.5c-2.9,0-5.4-0.8-7.6-2.5
			l-19.9-19c-1.7-2.2-2.6-4.7-2.6-7.6C-194.3,396.1-193.5,393.8-191.7,392.2z"/>
	</g>
	<g>
		<path d="M-89.8,359.4c3.2,5.4,5.7,11.4,7.3,17.8c1.7,6.4,2.5,13,2.5,19.7c0,13-3.3,25.5-9.8,37.6c-6.6,10.8-15.8,19.9-27.6,27.4
			c-5.4,3.3-11.4,5.8-17.8,7.5c-6.4,1.7-13,2.5-19.7,2.5c-13,0-25.5-3.3-37.6-10c-10.8-6.4-19.9-15.6-27.4-27.4
			c-3.3-5.4-5.8-11.4-7.5-17.8c-1.7-6.4-2.5-13-2.5-19.8c0-12.9,3.3-25.3,10-37.5c6.4-10.8,15.6-20,27.4-27.6
			c5.4-3.2,11.4-5.7,17.8-7.3c6.4-1.7,13-2.5,19.8-2.5c12.9,0,25.3,3.3,37.5,9.8C-105.1,339.3-95.9,348.5-89.8,359.4z M-128.6,350.6
			c-7.7-4.4-16.5-6.7-26.4-6.7c-10,0-18.9,2.2-26.7,6.7c-7.9,4.5-14,10.6-18.4,18.4c-4.4,7.9-6.7,16.8-6.7,26.7
			c0,10,2.2,18.9,6.7,26.7c4.5,7.9,10.6,14,18.4,18.4c7.8,4.4,16.7,6.7,26.7,6.7c9.9,0,18.8-2.2,26.7-6.7c7.8-4.5,14-10.6,18.4-18.4
			c4.4-7.8,6.7-16.7,6.7-26.7c0-9.9-2.2-18.8-6.7-26.4c-2.1-4-4.6-7.4-7.6-10.3C-120.4,356.2-124.1,353.4-128.6,350.6z"/>
	</g>
</g>
</svg>
