<?xml version="1.0" encoding="utf-8"?>
<!-- Generator: Adobe Illustrator 19.0.0, SVG Export Plug-In . SVG Version: 6.00 Build 0)  -->
<svg version="1.1" id="Layer_1" xmlns="http://www.w3.org/2000/svg" xmlns:xlink="http://www.w3.org/1999/xlink" x="0px" y="0px"
	 viewBox="-230 322 150 150" style="enable-background:new -230 322 150 150;" xml:space="preserve">
<style type="text/css">
	.st0{fill:#222222;}
</style>
<path class="st0" d="M-110.3,419.7l-22.6-22.7l22.6-22.7c5.7-5.7,5.7-17,0-22.6c-5.7-5.6-15.6-5.7-22.6,0l-22.7,22.6l-22.6-22.6
	c-5.7-5.7-15.5-5.7-22.6,0c-5.7,5.7-5.7,17,0,22.6l22.6,22.7l-22.6,22.7c-5.7,5.7-5.7,15.5,0,22.6c5.7,5.7,15.5,5.7,22.6,0
	l22.6-22.6l22.7,22.6c5.7,5.7,15.6,5.7,22.6,0C-103.2,436.7-103.2,425.3-110.3,419.7"/>
</svg>
