<?xml version="1.0" encoding="utf-8"?>
<!-- Generator: Adobe Illustrator 19.0.0, SVG Export Plug-In . SVG Version: 6.00 Build 0)  -->
<svg version="1.1" id="Layer_1" xmlns="http://www.w3.org/2000/svg" xmlns:xlink="http://www.w3.org/1999/xlink" x="0px" y="0px"
	 viewBox="-230 322 150 150" style="enable-background:new -230 322 150 150;" xml:space="preserve">
<style type="text/css">
	.st0{fill:#222222;}
</style>
<path class="st0" d="M-121.5,414l-16.9-17l16.9-17c4.3-4.3,4.3-12.7,0-16.9s-11.7-4.3-16.9,0l-17,16.9l-16.9-16.9
	c-4.3-4.3-11.6-4.3-16.9,0c-4.3,4.3-4.3,12.7,0,16.9l16.9,17l-16.9,17c-4.3,4.3-4.3,11.6,0,16.9c4.3,4.3,11.6,4.3,16.9,0l16.9-16.9
	l17,16.9c4.3,4.3,11.7,4.3,16.9,0C-116.2,426.7-116.2,418.2-121.5,414"/>
</svg>
