<?xml version="1.0" encoding="utf-8"?>
<!-- Generator: Adobe Illustrator 19.0.0, SVG Export Plug-In . SVG Version: 6.00 Build 0)  -->
<svg version="1.1" id="Layer_1" xmlns="http://www.w3.org/2000/svg" xmlns:xlink="http://www.w3.org/1999/xlink" x="0px" y="0px"
	 viewBox="-230 322 150 150" style="enable-background:new -230 322 150 150;" xml:space="preserve">
<path d="M-213.6,396.7c0-20.9,0-41.8,0-62.7c0-4.7,1.1-8.6,5.4-10.9c4.4-2.3,8.4-1,12.4,1.7c30.1,20.3,60.4,40.5,90.5,60.7
	c0.5,0.4,1.2,0.7,1.8,1.1c9,4.9,9.5,14.3,1.1,19.9c-14.5,9.7-29.1,19.5-43.7,29.3c-16.8,11.3-33.8,22.6-50.6,33.9
	c-3.5,2.4-7.2,3.1-11,1.2c-4-2-5.8-5.3-5.8-9.8C-213.5,439.6-213.6,418.1-213.6,396.7z"/>
</svg>
