<?xml version="1.0" encoding="utf-8"?>
<!-- Generator: Adobe Illustrator 19.0.0, SVG Export Plug-In . SVG Version: 6.00 Build 0)  -->
<svg version="1.1" id="Layer_1" xmlns="http://www.w3.org/2000/svg" xmlns:xlink="http://www.w3.org/1999/xlink" x="0px" y="0px"
	 viewBox="-230 322 150 150" style="enable-background:new -230 322 150 150;" xml:space="preserve">
<path d="M-86.6,430.8c-4.4,4.5-9.8,6.7-16.2,6.7h-81l-23.1,34.5v-34.5h-0.2c-6.2,0-11.6-2.2-16.1-6.7c-4.5-4.5-6.7-9.9-6.7-16.1
	v-69.9c0-6.4,2.2-11.8,6.7-16.2c4.5-4.4,9.9-6.6,16.1-6.6h104.3c6.4,0,11.8,2.2,16.2,6.6c4.4,4.4,6.6,9.8,6.6,16.2v69.9
	C-80,420.9-82.2,426.3-86.6,430.8z"/>
</svg>
