<?xml version="1.0" encoding="utf-8"?>
<!-- Generator: Adobe Illustrator 19.0.0, SVG Export Plug-In . SVG Version: 6.00 Build 0)  -->
<svg version="1.1" id="Layer_1" xmlns="http://www.w3.org/2000/svg" xmlns:xlink="http://www.w3.org/1999/xlink" x="0px" y="0px"
	 viewBox="-230 322 150 150" style="enable-background:new -230 322 150 150;" xml:space="preserve">
<g>
	<path d="M-167.8,391.7c1.1,7.9,5,13.8,12.6,16.7c7.3,2.8,14.5,1.8,20.1-3.5c10.2-9.7,20.2-19.7,29.9-29.9
		c7.4-7.8,6.8-19.9-0.8-27.3c-7.6-7.4-19.5-7.7-27.4-0.4c-4.3,4-8.3,8.3-12.5,12.4c-0.6,0.6-1,1.2-2.1,0.9
		c-11.5-2.8-14.5-2.9-25.7-0.8c0.3-0.9,1-1.3,1.6-1.9c8.1-8.2,16.1-16.4,24.4-24.4c11.5-10.9,25.1-14.1,40.1-9.2
		c15.1,4.9,24.2,15.7,26.7,31.4c2.2,13.4-1.8,25-11.4,34.6c-9.3,9.4-18.7,18.8-28.1,28.1c-18.9,18.7-51.2,13.4-63.1-10.2
		c-0.6-1.2-0.7-1.9,0.4-2.9c3.7-3.5,7.2-7.2,10.8-10.8C-170.9,393.2-169.6,392.1-167.8,391.7z"/>
	<path d="M-142.2,402.5c-1.8-12.1-10.1-19-21.6-18.2c-4.9,0.3-9,2.4-12.5,5.8c-9.3,9.3-18.7,18.5-27.9,27.9
		c-7.8,7.9-7.7,20.1-0.1,27.9c7.7,7.8,19.9,8,28.1,0.3c4.1-3.9,8-7.9,12-11.9c0.7-0.7,1.3-1.2,2.6-0.9c9.4,2.6,15.8,2.8,25.3,0.7
		c-0.1,0.2-0.1,0.4-0.2,0.5c-9,9-17.7,18.2-27,26.8c-11.5,10.5-25.1,13.1-39.7,8c-14.6-5.1-23.4-15.8-26-31.1
		c-2.2-13.5,1.9-25.2,11.5-34.9c9.5-9.6,19-19.3,28.8-28.7c18.8-18,50.8-12.3,62.3,11.1c0.4,0.8,1,1.5,0,2.4c-4.1,4-8.1,8-12.2,12
		C-139.7,401.2-140.8,401.9-142.2,402.5z"/>
</g>
</svg>
