<?xml version="1.0" encoding="utf-8"?>
<!-- Generator: Adobe Illustrator 19.0.0, SVG Export Plug-In . SVG Version: 6.00 Build 0)  -->
<svg version="1.1" id="Layer_1" xmlns="http://www.w3.org/2000/svg" xmlns:xlink="http://www.w3.org/1999/xlink" x="0px" y="0px"
	 viewBox="-230 322 150 150" style="enable-background:new -230 322 150 150;" xml:space="preserve">
<style type="text/css">
	.st0{fill:#231F20;}
</style>
<g>
	<path class="st0" d="M-80,340.7v12.5c0,1.7-0.6,3.2-1.9,4.4c-1.2,1.2-2.7,1.9-4.4,1.9h-137.5c-1.7,0-3.2-0.6-4.4-1.9
		c-1.2-1.2-1.9-2.7-1.9-4.4v-12.5c0-1.7,0.6-3.2,1.9-4.4c1.2-1.2,2.7-1.9,4.4-1.9h137.5c1.7,0,3.2,0.6,4.4,1.9
		C-80.6,337.6-80,339.1-80,340.7z M-80,390.7v12.5c0,1.7-0.6,3.2-1.9,4.4c-1.2,1.2-2.7,1.9-4.4,1.9h-137.5c-1.7,0-3.2-0.6-4.4-1.9
		c-1.2-1.2-1.9-2.7-1.9-4.4v-12.5c0-1.7,0.6-3.2,1.9-4.4c1.2-1.2,2.7-1.9,4.4-1.9h137.5c1.7,0,3.2,0.6,4.4,1.9
		C-80.6,387.6-80,389.1-80,390.7z M-80,440.7v12.5c0,1.7-0.6,3.2-1.9,4.4c-1.2,1.2-2.7,1.9-4.4,1.9h-137.5c-1.7,0-3.2-0.6-4.4-1.9
		c-1.2-1.2-1.9-2.7-1.9-4.4v-12.5c0-1.7,0.6-3.2,1.9-4.4c1.2-1.2,2.7-1.9,4.4-1.9h137.5c1.7,0,3.2,0.6,4.4,1.9
		C-80.6,437.6-80,439.1-80,440.7z"/>
</g>
</svg>
