<?xml version="1.0" encoding="utf-8"?>
<!-- Generator: Adobe Illustrator 19.0.0, SVG Export Plug-In . SVG Version: 6.00 Build 0)  -->
<svg version="1.1" id="Layer_1" xmlns="http://www.w3.org/2000/svg" xmlns:xlink="http://www.w3.org/1999/xlink" x="0px" y="0px"
	 viewBox="-230 322 150 150" style="enable-background:new -230 322 150 150;" xml:space="preserve">
<g>
	<path d="M-151.5,442.2c0,0.7-0.4,1.4-1,2.1l-26.7,26.7c-0.7,0.7-1.4,1-2.1,1c-0.7,0-1.4-0.3-2.1-1l-26.7-26.7
		c-0.7-0.7-0.9-1.5-0.5-2.6c0.3-1,1.2-1.5,2.6-1.5h15.4V324.1c0-0.7,0.3-1.4,1-2.1h2.1h16.4c0.7,0,1.2,0.2,1.5,0.5
		c0.3,0.4,0.5,0.9,0.5,1.5v116.1h16.4c0.7,0,1.4,0.2,2.1,0.5C-151.9,441-151.5,441.5-151.5,442.2z"/>
	<g>
		<path d="M-102.2,375.8v7.9h-34.1v-7.9h12.5v-35.9c0-1.4,0-2.9,0.1-4.4l-8.9,7.4c-0.5,0.4-1,0.6-1.5,0.7c-0.5,0.1-1,0.1-1.4,0
			c-0.4-0.1-0.8-0.2-1.2-0.4c-0.3-0.2-0.6-0.4-0.8-0.7l-3.3-4.6l18.8-16h8.7v53.8H-102.2z"/>
	</g>
	<g>
		<path d="M-116.3,448.1c0.5-0.6,0.9-1.2,1.4-1.7c0.4-0.6,0.8-1.1,1.2-1.7c-1.4,0.9-3,1.6-4.7,2.1c-1.7,0.5-3.5,0.7-5.4,0.7
			c-2.1,0-4.2-0.4-6.3-1.1c-2-0.7-3.9-1.9-5.5-3.3c-1.6-1.5-2.9-3.3-3.9-5.5c-1-2.2-1.5-4.8-1.5-7.7c0-2.8,0.5-5.3,1.5-7.8
			c1-2.4,2.5-4.5,4.3-6.4c1.8-1.8,4.1-3.3,6.6-4.3c2.6-1.1,5.4-1.6,8.6-1.6c3.2,0,6,0.5,8.5,1.5c2.5,1,4.7,2.4,6.4,4.2
			c1.8,1.8,3.1,3.9,4.1,6.4c1,2.5,1.4,5.2,1.4,8.2c0,1.9-0.2,3.7-0.5,5.4c-0.3,1.7-0.8,3.3-1.4,4.9c-0.6,1.6-1.3,3.1-2.2,4.6
			c-0.9,1.5-1.8,3-2.9,4.5l-14.1,20.1c-0.5,0.7-1.2,1.3-2.2,1.7c-1,0.5-2.1,0.7-3.3,0.7h-9.7L-116.3,448.1z M-130.2,428.9
			c0,3.4,0.9,6.1,2.7,7.9c1.8,1.8,4.3,2.7,7.6,2.7c1.7,0,3.2-0.3,4.6-0.8c1.3-0.5,2.5-1.3,3.4-2.2c0.9-0.9,1.6-2,2.1-3.3
			c0.5-1.3,0.7-2.7,0.7-4.1c0-1.7-0.3-3.2-0.8-4.5s-1.2-2.4-2.2-3.3c-0.9-0.9-2.1-1.6-3.3-2.1c-1.3-0.5-2.7-0.7-4.2-0.7
			c-1.6,0-3,0.3-4.3,0.8c-1.3,0.5-2.4,1.3-3.3,2.2c-0.9,0.9-1.6,2.1-2.1,3.3C-130,425.9-130.2,427.3-130.2,428.9z"/>
	</g>
</g>
</svg>
