<?xml version="1.0" encoding="utf-8"?>
<!-- Generator: Adobe Illustrator 19.0.0, SVG Export Plug-In . SVG Version: 6.00 Build 0)  -->
<svg version="1.1" id="Camada_1" xmlns="http://www.w3.org/2000/svg" xmlns:xlink="http://www.w3.org/1999/xlink" x="0px" y="0px"
	 viewBox="0 0 150 150" style="enable-background:new 0 0 150 150;" xml:space="preserve">
<style type="text/css">
	.st0{fill:#282828;}
</style>
<path id="XMLID_29_" class="st0" d="M143.5,6.5C139.2,2.2,133.7,0,127,0H23C17,0,11.7,2.2,7,6.5C2.3,10.8,0,16.3,0,23v70
	c0,6,2.3,11.2,7,15.5c4.7,4.3,10,6.5,16,6.5v35l23-35h81c6.7,0,12-2,16-6c4.7-4.7,7-10,7-16V23C150,16.3,147.8,10.8,143.5,6.5z
	 M41.9,86.6c0,2.4-1,4.6-2.9,6.5C37.1,95,34.8,96,32,96c-2.8,0-5.1-1-7-2.9c-1.9-1.9-2.9-4.2-2.9-7V41.4c0-2.4,1-4.6,2.9-6.5
	c1.9-1.9,4.2-2.9,7-2.9c2.8,0,5.1,1,7,2.9c1.9,1.9,2.9,4.1,2.9,6.5V86.6z M70,86.6c0,2.4-0.9,4.6-2.6,6.5c-1.7,1.9-4,2.9-6.8,2.9
	c-2.8,0-5.1-1-7-2.9c-1.9-1.9-2.9-4.2-2.9-7V27.8c0-2.8,1-5.1,2.9-7c1.9-1.9,4.2-2.9,7-2.9c2.8,0,5.1,1,7,2.9c1.9,1.9,2.9,4.3,2.9,7
	L70,86.6z M99.2,86.6c0,2.4-1,4.6-2.9,6.5c-1.9,1.9-4.3,2.9-7,2.9c-2.8,0-5.1-1-7-2.9c-1.9-1.9-2.9-4.2-2.9-7v-39c0-2.8,1-5,2.9-6.8
	c1.9-1.7,4.2-2.6,7-2.6c2.8,0,5.1,0.9,7,2.6c1.9,1.7,2.9,4,2.9,6.8V86.6z M127.9,86.6c0,2.4-1,4.6-2.9,6.5c-1.9,1.9-4.3,2.9-7,2.9
	c-2.8,0-5.1-1-7-2.9c-1.9-1.9-2.9-4.2-2.9-7V68.7c0-2.8,1-5,2.9-6.8c1.9-1.7,4.2-2.6,7-2.6c2.8,0,5.1,0.9,7,2.6
	c1.9,1.7,2.9,4,2.9,6.8V86.6z"/>
</svg>
