<?xml version="1.0" encoding="utf-8"?>
<!-- Generator: Adobe Illustrator 19.0.0, SVG Export Plug-In . SVG Version: 6.00 Build 0)  -->
<svg version="1.1" id="Camada_1" xmlns="http://www.w3.org/2000/svg" xmlns:xlink="http://www.w3.org/1999/xlink" x="0px" y="0px"
	 viewBox="0 0 150 150" style="enable-background:new 0 0 150 150;" xml:space="preserve">
<style type="text/css">
	.st0{fill:#575756;}
	.st1{fill:#090A0C;}
</style>
<g id="XMLID_27_">
	<path id="XMLID_83_" class="st0" d="M118.4,140.3c0.1,0.1,0.3,0.2,0.3,0.3c0,2.7,0.2,5.5-0.3,8.2
		C118.4,146,118.4,143.1,118.4,140.3z"/>
	<path id="XMLID_28_" class="st1" d="M149.9,53.7c-0.1-7.3-0.2-14.7-1.9-21.8c-3.5-14.3-12.1-24-26.1-28.8
		c-7.5-2.6-15.3-2.8-23.1-2.9C85.7,0,72.6,0,59.6,0c-8.2,0-16.4,0-24.6,1.3C23.8,3.3,14.5,8.6,7.9,18.1c-5.4,7.8-7.1,16.8-7.6,26
		C-0.1,54.4,0,64.7,0,75c0,7.1-0.1,14.1,0,21.2c0.1,6.9,0.1,13.8,1.6,20.6c3.2,14.6,11.6,24.9,25.9,30c7.7,2.7,15.7,3,23.8,3.1
		c15,0.2,29.9,0.2,44.9,0.1c7.4-0.1,14.8-0.1,22-2c14.1-3.5,23.7-12,28.6-25.8c2.7-7.6,3-15.5,3-23.4C150,83.7,150,68.7,149.9,53.7z
		 M136.4,94.1c-0.1,6.9,0,13.8-1.6,20.6c-2.9,12.5-11.6,19.3-23.9,20.8c-8.6,1.1-17.4,1-26.1,1c-14.5,0-29,0.4-43.5-0.7
		c-8.4-0.6-15.9-3.3-21.3-10.3c-3.3-4.3-4.9-9.2-5.6-14.5c-1.1-8.7-1-17.5-1-26.2c0-14.4-0.4-28.9,0.7-43.3
		c0.6-8.4,3.3-16,10.4-21.4c4.2-3.3,9.1-4.9,14.3-5.5c10.7-1.3,21.5-0.9,30.4-1c12.8,0,23.6-0.1,34.4,0.4c4.6,0.2,9.3,0.6,13.7,2.1
		c10.2,3.4,15.7,10.7,17.7,21c1.2,6.3,1.1,12.6,1.2,19C136.5,68.7,136.5,81.4,136.4,94.1z"/>
	<path id="XMLID_52_" class="st1" d="M124,35c0,5-4.1,9.1-9,9.1c-5,0-9.1-4.2-9.1-9.1c0-5,4.1-9,9.1-9C120.2,26,124,29.9,124,35z"/>
	<path id="XMLID_41_" class="st1" d="M75.4,36.5c-21.4-0.2-38.8,17.2-39,38.1c-0.3,21.5,17.3,39.1,38.4,39
		c21.6-0.1,38.7-17,38.7-38.4C113.5,53.8,96.5,36.7,75.4,36.5z M75,100c-13.7,0-24.9-11.3-25-24.9c0-13.7,11.2-25,25-25
		c13.6,0,24.9,11.3,25,24.9C100,88.7,88.7,100,75,100z"/>
</g>
</svg>
