<?xml version="1.0" encoding="utf-8"?>
<!-- Generator: Adobe Illustrator 19.0.0, SVG Export Plug-In . SVG Version: 6.00 Build 0)  -->
<svg version="1.1" id="Camada_1" xmlns="http://www.w3.org/2000/svg" xmlns:xlink="http://www.w3.org/1999/xlink" x="0px" y="0px"
	 viewBox="0 0 150 150" style="enable-background:new 0 0 150 150;" xml:space="preserve">
<style type="text/css">
	.st0{fill:#191919;}
</style>
<g id="XMLID_28_">
	<path id="XMLID_32_" class="st0" d="M103.8,31.8H46.2c-1,0-1.8,0.4-2.5,1.1c-0.7,0.7-1.1,1.6-1.1,2.5v79.2c0,1,0.4,1.8,1.1,2.5
		c0.7,0.7,1.6,1.1,2.5,1.1h57.6c1,0,1.8-0.4,2.5-1.1c0.7-0.7,1.1-1.6,1.1-2.5V35.4c0-1-0.4-1.8-1.1-2.5
		C105.6,32.1,104.8,31.8,103.8,31.8z M104.2,112c0,1.5-1.2,2.6-2.6,2.6H48.4c-1.5,0-2.6-1.2-2.6-2.6V38c0-1.5,1.2-2.6,2.6-2.6h53.1
		c1.5,0,2.6,1.2,2.6,2.6V112z"/>
	<path id="XMLID_35_" class="st0" d="M75,123.6c-2.5,0-4.6,0.9-6.4,2.6c-1.8,1.8-2.6,3.9-2.6,6.4s0.9,4.6,2.6,6.4
		c1.8,1.8,3.9,2.6,6.4,2.6s4.6-0.9,6.4-2.6c1.8-1.8,2.6-3.9,2.6-6.4s-0.9-4.6-2.6-6.4C79.6,124.5,77.5,123.6,75,123.6z M75,134
		c-0.7,0-1.3-0.6-1.3-1.3c0-0.7,0.6-1.3,1.3-1.3c0.7,0,1.3,0.6,1.3,1.3C76.3,133.4,75.7,134,75,134z"/>
	<path id="XMLID_38_" class="st0" d="M105.4,0H44.6c-8.8,0-16,7.2-16,16v118c0,8.8,7.2,16,16,16h60.8c8.8,0,16-7.2,16-16V16
		C121.4,7.2,114.2,0,105.4,0z M118.2,132.6c0,3.9-1.4,7.3-4.3,10.1c-2.9,2.9-6.2,4.3-10.1,4.3H46.2c-3.9,0-7.3-1.4-10.1-4.3
		c-2.9-2.8-4.3-6.2-4.3-10.1V17.4c0-3.9,1.4-7.3,4.3-10.1C38.9,4.4,42.3,3,46.2,3h57.6c3.9,0,7.3,1.4,10.1,4.3
		c2.8,2.9,4.3,6.2,4.3,10.1V132.6z"/>
	<path id="XMLID_39_" class="st0" d="M66,21h18c1.2,0,1.8-0.6,1.8-1.8c0-1.2-0.6-1.8-1.8-1.8H66c-1.2,0-1.8,0.6-1.8,1.8
		C64.2,20.4,64.8,21,66,21z"/>
</g>
</svg>
