<?xml version="1.0" encoding="utf-8"?>
<!-- Generator: Adobe Illustrator 19.0.0, SVG Export Plug-In . SVG Version: 6.00 Build 0)  -->
<svg version="1.1" id="Camada_1" xmlns="http://www.w3.org/2000/svg" xmlns:xlink="http://www.w3.org/1999/xlink" x="0px" y="0px"
	 viewBox="0 0 150 150" style="enable-background:new 0 0 150 150;" xml:space="preserve">
<style type="text/css">
	.st0{fill:#010101;}
</style>
<path id="XMLID_57_" class="st0" d="M143,126.1c-15.9-8.4-27.9-12.9-38.5-14.4l2.5-3.5l-2.6-10.5c1-1.4,2-2.9,2.9-4.5
	c12.2-4,14.5-10.9,14.8-16.8h0.5c4,0,7.2-3.2,7.2-7.2v-19c0-4-3.2-7.2-7.2-7.2h-0.5C121.3,4.2,89,0,75,0S28.7,4.2,27.9,43.1h-0.5
	c-4,0-7.2,3.2-7.2,7.2v19c0,4,3.2,7.2,7.2,7.2h3.8c1.8,0,3.5-0.7,4.8-1.8c1.3,8.2,4.6,16.3,9.5,23.1L43,108.3l2.5,3.5
	c-10.6,1.5-22.6,6-38.5,14.4c-4.3,2.3-7,6.7-7,11.5V150l61.7,0l88.3,0v-12.3C150,132.8,147.3,128.4,143,126.1z M63.1,137.3l-1.9,9.7
	H3v-9.4c0-3.8,2.1-7.2,5.4-8.9c16.3-8.6,28.3-13,38.8-14.2h0.3L63.2,136l-0.6,1.3H63.1z M27.5,46.1h3.8c2.3,0,4.2,1.9,4.2,4.2v19
	c0,2.3-1.9,4.2-4.2,4.2h-3.8c-2.3,0-4.2-1.9-4.2-4.2v-19C23.2,48,25.1,46.1,27.5,46.1z M31.3,43.1h-0.4C31.7,6.9,61.9,3,75,3
	s43.3,3.9,44.1,40.1h-0.4c-1.7,0-3.3,0.6-4.5,1.6C111.8,25.2,95,10.1,75,10.1c-20,0-36.8,15-39.2,34.6
	C34.5,43.7,32.9,43.1,31.3,43.1z M122.5,73.5h-3.8c-2.3,0-4.2-1.9-4.2-4.2v-19c0-2.3,1.9-4.2,4.2-4.2h3.8c2.3,0,4.2,1.9,4.2,4.2v19
	C126.8,71.6,124.9,73.5,122.5,73.5z M109.3,89.5c2.3-4.7,3.8-9.8,4.6-14.8c1.3,1.2,3,1.8,4.8,1.8h0.4
	C118.9,81.1,117.2,86.1,109.3,89.5z M86.8,136l15.7-21.5l0.3,0c10.6,1.3,22.6,5.7,38.9,14.2c3.3,1.8,5.4,5.2,5.4,8.9v9.4H88.9
	l-1.9-9.7h0.5L86.8,136z M67.1,134.4l7.9-17.7l7.9,17.7H67.1z M85.5,132.9l-8.2-18.5c0.1,0,0.1,0,0.2,0c0.2,0,0.5,0,0.7-0.1l0.2,0
	c0.4,0,0.7-0.1,1.1-0.1l0.4-0.1c8.2-1.3,15.9-6.1,22.1-13.4l1.7,6.9L85.5,132.9z M77.5,93.8h-1v3h1c10.5,0,19-0.8,25.6-2.3
	c-0.6,0.9-1.2,1.8-1.9,2.6l-0.2,0.2c-6.3,8.1-14.1,12.9-22.4,14l-0.4,0c-0.5,0.1-0.9,0.1-1.4,0.1c-0.3,0-0.6,0-0.9,0l-0.9-2.1
	l-0.9,2.1c-0.3,0-0.6,0-0.9,0c-0.5,0-0.9-0.1-1.4-0.1l-0.4,0c-8.4-1.1-16.1-6-22.4-14l-0.1-0.2l-0.1-0.1
	c-6.4-8.4-10.3-19.5-10.3-29.7V49.6c0-20.2,16.4-36.6,36.6-36.6c20.2,0,36.6,16.4,36.6,36.6v17.7c0,7.8-2.2,16.1-6.3,23.5
	C98.6,92.9,89.5,93.8,77.5,93.8z M47.9,100.7c6.2,7.3,14,12,22.1,13.4l0.4,0.1c0.4,0.1,0.7,0.1,1.2,0.1l0.2,0c0.2,0,0.5,0.1,0.7,0.1
	c0.1,0,0.1,0,0.2,0l-8.2,18.5l-18.4-25.3L47.9,100.7z M66.1,137.3h17.9l1.9,9.7l-21.7,0L66.1,137.3z"/>
</svg>
