<?xml version="1.0" encoding="utf-8"?>
<!-- Generator: Adobe Illustrator 19.0.0, SVG Export Plug-In . SVG Version: 6.00 Build 0)  -->
<svg version="1.1" id="Camada_1" xmlns="http://www.w3.org/2000/svg" xmlns:xlink="http://www.w3.org/1999/xlink" x="0px" y="0px"
	 viewBox="0 0 150 150" style="enable-background:new 0 0 150 150;" xml:space="preserve">
<style type="text/css">
	.st0{fill:#010101;}
</style>
<path id="XMLID_1_" class="st0" d="M137.5,55c-0.9,0-1.7,0.1-2.5,0.2V40c0-11-8.9-20-20-20H35c-11,0-20,9-20,20v15.2
	c-0.8-0.2-1.6-0.2-2.5-0.2C5.5,55,0,60.6,0,67.5v19.9C0,94.4,5.6,100,12.5,100H15v27.5c0,1.4,1.1,2.5,2.5,2.5h8
	c1.4,0,2.8-1.1,3.1-2.4l7.2-27.6h78.3l7.2,27.6c0.3,1.3,1.7,2.4,3.1,2.4h8c1.4,0,2.5-1.2,2.5-2.5V100h2.6c6.9,0,12.5-5.6,12.5-12.5
	V67.5C150,60.6,144.4,55,137.5,55z M20,40c0-8.3,6.7-15,15-15h80c8.3,0,15,6.7,15,15v17.4c-3,2.3-5,5.9-5,10V75H25v-7.5
	c0-4.1-2-7.7-5-10V40z M24.2,125H20v-25h10.7L24.2,125z M130,125h-4.2l-6.5-25H130V125z M145,87.5c0,4.1-3.3,7.5-7.5,7.5h-125
	C8.4,95,5,91.6,5,87.5v-20c0-4.1,3.3-7.5,7.5-7.5c4.1,0,7.5,3.4,7.5,7.5v10c0,1.4,1.1,2.5,2.5,2.5h105c1.4,0,2.5-1.1,2.5-2.5v-10
	c0-4.1,3.3-7.5,7.5-7.5c4.1,0,7.5,3.4,7.5,7.5V87.5z"/>
</svg>
