<?xml version="1.0" encoding="utf-8"?>
<!-- Generator: Adobe Illustrator 19.0.0, SVG Export Plug-In . SVG Version: 6.00 Build 0)  -->
<svg version="1.1" id="Camada_1" xmlns="http://www.w3.org/2000/svg" xmlns:xlink="http://www.w3.org/1999/xlink" x="0px" y="0px"
	 viewBox="0 0 150 150" style="enable-background:new 0 0 150 150;" xml:space="preserve">
<style type="text/css">
	.st0{fill-rule:evenodd;clip-rule:evenodd;fill:#020202;}
</style>
<path id="XMLID_27_" class="st0" d="M131.6,17.7H18.4C8.2,17.7,0,26,0,36.1v77.8c0,10.1,8.2,18.4,18.4,18.4h113.2
	c10.1,0,18.4-8.2,18.4-18.4V36.1C150,26,141.8,17.7,131.6,17.7z M144.4,109.5c0,9.7-7.9,17.6-17.6,17.6H23.2
	c-9.7,0-17.6-7.9-17.6-17.6V54.8L62.8,93c7.2,4.8,16.7,4.9,24,0l57.7-38.3V109.5z M144.4,46.1L82.5,87.3c-4.6,3.1-10.5,3.1-15.1,0
	L5.6,46.1v-5.6c0-9.7,7.9-17.6,17.6-17.6h103.7c9.7,0,17.6,7.9,17.6,17.6V46.1z"/>
</svg>
