<?xml version="1.0" encoding="utf-8"?>
<!-- Generator: Adobe Illustrator 19.0.0, SVG Export Plug-In . SVG Version: 6.00 Build 0)  -->
<svg version="1.1" id="Camada_1" xmlns="http://www.w3.org/2000/svg" xmlns:xlink="http://www.w3.org/1999/xlink" x="0px" y="0px"
	 viewBox="0 0 150 150" style="enable-background:new 0 0 150 150;" xml:space="preserve">
<style type="text/css">
	.st0{fill:#333333;}
</style>
<g id="XMLID_44_">
	<path id="XMLID_45_" class="st0" d="M135,128.2c0,3.6-1.7,6.8-5.2,9.7c-3.5,2.9-8.2,5.2-14,6.9c-5.8,1.7-12.2,3-19.2,3.9
		c-7,0.9-14.2,1.3-21.6,1.3c-7.4,0-14.6-0.4-21.6-1.3c-7-0.9-13.4-2.2-19.2-3.9c-5.8-1.7-10.5-4-14-6.9c-3.5-2.9-5.2-6.1-5.2-9.7
		c0-2.8,0.9-5.3,2.8-7.5c1.9-2.2,4.5-4.1,7.8-5.7c3.3-1.5,6.6-2.8,10.1-3.8c3.4-1,7.1-1.8,11.2-2.5c1.5-0.3,2.8,0,4.1,0.9
		c1.2,0.9,2,2.1,2.2,3.5c0.3,1.5,0,2.8-0.9,4.1c-0.9,1.2-2.1,2-3.5,2.2c-3.3,0.6-6.3,1.2-9,2c-2.7,0.8-4.9,1.5-6.5,2.2
		c-1.6,0.7-3,1.4-4.1,2c-1.1,0.7-1.9,1.2-2.3,1.7c-0.4,0.5-0.7,0.8-0.7,1c0.2,0.6,0.9,1.4,2.3,2.3c1.4,0.9,3.4,1.8,6.2,2.8
		c2.8,1,6,1.9,9.7,2.8c3.7,0.9,8.3,1.6,13.7,2.1c5.4,0.6,11.2,0.9,17.2,0.9c6,0,11.7-0.3,17.2-0.9c5.4-0.6,10-1.3,13.7-2.1
		c3.7-0.9,6.9-1.8,9.7-2.8c2.8-1,4.9-2,6.2-2.9c1.4-0.9,2.1-1.7,2.3-2.3c-0.1-0.2-0.3-0.5-0.7-0.9c-0.4-0.4-1.2-0.9-2.3-1.6
		c-1.1-0.7-2.5-1.3-4.1-2c-1.6-0.7-3.8-1.4-6.5-2.1s-5.7-1.4-9-2c-1.5-0.2-2.7-1-3.5-2.2c-0.9-1.2-1.2-2.6-0.9-4.1
		c0.2-1.5,1-2.7,2.2-3.5c1.2-0.9,2.6-1.2,4.1-0.9c4,0.7,7.8,1.5,11.2,2.5c3.4,1,6.8,2.3,10.1,3.8c3.3,1.5,5.9,3.4,7.8,5.7
		C134.1,122.9,135,125.4,135,128.2z M102.3,51.8v32.7c0,1.5-0.5,2.8-1.6,3.8c-1.1,1.1-2.4,1.6-3.8,1.6h-5.5v32.7
		c0,1.5-0.5,2.8-1.6,3.8c-1.1,1.1-2.4,1.6-3.8,1.6H64.1c-1.5,0-2.8-0.5-3.8-1.6c-1.1-1.1-1.6-2.4-1.6-3.8V90h-5.5
		c-1.5,0-2.8-0.5-3.8-1.6c-1.1-1.1-1.6-2.4-1.6-3.8V51.8c0-3,1.1-5.6,3.2-7.7c2.1-2.1,4.7-3.2,7.7-3.2h32.7c3,0,5.6,1.1,7.7,3.2
		C101.2,46.2,102.3,48.8,102.3,51.8z M88.5,5.6c3.7,3.7,5.6,8.2,5.6,13.5c0,5.3-1.9,9.8-5.6,13.5c-3.7,3.7-8.2,5.6-13.5,5.6
		s-9.8-1.9-13.5-5.6c-3.7-3.7-5.6-8.2-5.6-13.5c0-5.3,1.9-9.8,5.6-13.5C65.2,1.9,69.7,0,75,0S84.8,1.9,88.5,5.6z"/>
</g>
</svg>
