<?xml version="1.0" encoding="utf-8"?>
<!-- Generator: Adobe Illustrator 19.0.0, SVG Export Plug-In . SVG Version: 6.00 Build 0)  -->
<svg version="1.1" id="Camada_1" xmlns="http://www.w3.org/2000/svg" xmlns:xlink="http://www.w3.org/1999/xlink" x="0px" y="0px"
	 viewBox="0 0 150 150" style="enable-background:new 0 0 150 150;" xml:space="preserve">
<style type="text/css">
	.st0{fill:#010101;}
</style>
<path id="XMLID_60_" class="st0" d="M146.9,26.9h-10.6c-0.9,0-1.8,0.5-2.3,1.3h-3.6c-0.9,0-1.6,0.5-1.8,1.4l-3.8,17.2h-2.7
	C121.3,33.6,109.9,23,96.3,23c-4.5,0-8.8,1.1-12.8,3.2c-4.7-7.7-12.9-12.4-22.1-12.4c-11.5,0-21.6,7.5-24.8,18.5
	c-2.3-1.1-4.9-1.6-7.5-1.6c-9.3,0-17.1,7.2-18,16.3H7c-0.5,0-1.1,0.4-1.4,0.7c-0.4,0.5-0.4,1.1-0.2,1.6l10.4,30
	C6.5,84.6,0,94.5,0,106c0,16.5,13.5,30.2,30.2,30.2s30.2-13.7,30.2-30.2c0-1.3-0.2-2.3-0.2-3.6l22.1-4.1l24.1,34.1
	c0.4,0.5,0.9,0.7,1.4,0.7c0.2,0,0.2,0,0.4,0c0.7-0.2,1.3-0.7,1.4-1.4l22.3-99.9h2.2c0.5,0.7,1.4,1.3,2.3,1.3h10.6
	c1.6,0,3.1-1.4,3.1-3.1S148.6,26.9,146.9,26.9z M29.3,34.3c2.7,0,5.4,0.7,7.7,2.3c0.5,0.4,1.1,0.4,1.6,0.2c0.5-0.2,0.9-0.7,1.1-1.3
	c2-10.4,11.3-18,21.7-18c8.4,0,16,4.7,19.8,12.2c0.2,0.5,0.7,0.7,1.1,0.9c0.5,0.2,1.1,0,1.4-0.2c3.6-2.5,7.9-3.8,12.4-3.8
	c11.7,0,21.2,9,22.1,20.5H14.9C15.8,39.9,21.9,34.3,29.3,34.3z M30.2,132.4c-14.6,0-26.6-11.9-26.6-26.4c0-14.6,11.9-26.6,26.6-26.6
	c12.4,0,22.8,8.6,25.7,20.1l-13.3,2.3c-1.8-5.2-6.6-9-12.4-9c-7.2,0-13.1,5.9-13.1,13.1s5.9,13.1,13.1,13.1s13.1-5.9,13.1-13.1
	c0-0.2,0-0.4,0-0.5l13.3-2.3c0.2,0.9,0.2,2,0.2,2.9C56.8,120.5,44.7,132.4,30.2,132.4z M30.2,107.8c0.2,0,0.2,0,0.4,0l9.2-1.6
	c0,5.2-4.3,9.5-9.5,9.5s-9.5-4.3-9.5-9.5c0-5.2,4.3-9.5,9.5-9.5c4,0,7.5,2.5,8.8,6.1l-9.2,1.4c-0.9,0.2-1.6,1.1-1.4,2.2
	C28.6,107.1,29.3,107.8,30.2,107.8z M107.1,127L86.2,97.5l28.7-5.2L107.1,127z M115.7,88.6L59.3,98.8c-3.2-13.1-15.1-23-29.3-23
	c-4,0-7.7,0.7-11.1,2.2L9.5,50.7H124L115.7,88.6z"/>
</svg>
