<?xml version="1.0" encoding="utf-8"?>
<!-- Generator: Adobe Illustrator 19.0.0, SVG Export Plug-In . SVG Version: 6.00 Build 0)  -->
<svg version="1.1" id="Camada_1" xmlns="http://www.w3.org/2000/svg" xmlns:xlink="http://www.w3.org/1999/xlink" x="0px" y="0px"
	 viewBox="0 0 150 150" style="enable-background:new 0 0 150 150;" xml:space="preserve">
<style type="text/css">
	.st0{fill:#04A3C2;}
	.st1{fill:#12A5C4;}
</style>
<g id="XMLID_8_">
	<path id="XMLID_11_" class="st0" d="M150,18c0-4.5-1.6-5.6-5.8-5.6c-46.2,0.1-92.4,0.1-138.6,0c-4.5,0-5.6,1.4-5.5,5.7
		c0.2,37.8,0.2,75.7,0,113.5c0,5.1,1.7,6.1,6.4,6c22.8-0.2,45.6-0.1,68.4-0.1c23.2,0,46.4-0.1,69.6,0.1c3.6,0,5.6-0.4,5.6-4.9
		C149.8,94.4,149.8,56.2,150,18z M133.6,128.1c-19.7-0.2-39.4-0.1-59-0.1c-19.7,0-39.4-0.1-59,0.1c-4.5,0-6.1-1.1-6.1-5.9
		c0.2-31.6,0.2-63.1,0-94.7c0-4.7,1.4-5.9,6-5.9c39.6,0.2,79.1,0.2,118.7,0c4.9,0,6.5,1.6,6.5,6.4c-0.1,31.2-0.2,62.4,0,93.5
		C140.7,126.9,138.5,128.2,133.6,128.1z"/>
	<rect id="XMLID_1_" x="20" y="30.9" class="st1" width="16.2" height="87.7"/>
	<rect id="XMLID_17_" x="42.2" y="31.1" class="st1" width="21.1" height="87.5"/>
	<rect id="XMLID_12_" x="72.7" y="31.3" class="st1" width="9.3" height="87.5"/>
	<rect id="XMLID_18_" x="93.8" y="31.3" class="st1" width="16.3" height="87.5"/>
	<rect id="XMLID_13_" x="122" y="31" class="st1" width="8.1" height="87.5"/>
</g>
</svg>
