<?xml version="1.0" encoding="utf-8"?>
<!-- Generator: Adobe Illustrator 19.0.0, SVG Export Plug-In . SVG Version: 6.00 Build 0)  -->
<svg version="1.1" id="Camada_1" xmlns="http://www.w3.org/2000/svg" xmlns:xlink="http://www.w3.org/1999/xlink" x="0px" y="0px"
	 viewBox="0 0 150 150" style="enable-background:new 0 0 150 150;" xml:space="preserve">
<style type="text/css">
	.st0{fill:#26AAC7;}
</style>
<g id="XMLID_5_">
	<path id="XMLID_2_" class="st0" d="M72.3,87H60.8c-0.3,0-0.6-0.3-0.6-0.6v-3.9c0-0.3,0.3-0.6,0.6-0.6h11.5c0.3,0,0.6,0.3,0.6,0.6
		v3.9C72.8,86.8,72.6,87,72.3,87z"/>
	<path id="XMLID_3_" class="st0" d="M134.3,114.7H86c-0.4,0-0.8-0.4-0.8-0.8V85.2c0-0.4,0.4-0.8,0.8-0.8h48.3c0.4,0,0.8,0.4,0.8,0.8
		v28.7C135.1,114.3,134.7,114.7,134.3,114.7z"/>
	<path id="XMLID_4_" class="st0" d="M39.7,77.1H13.5c-0.3,0-0.6-0.2-0.6-0.6v-4c0-0.3,0.2-0.6,0.6-0.6h26.3c0.3,0,0.6,0.2,0.6,0.6v4
		C40.3,76.9,40,77.1,39.7,77.1z"/>
	<path id="XMLID_9_" class="st0" d="M54.7,87.1H13.5c-0.3,0-0.6-0.2-0.6-0.6v-4c0-0.3,0.2-0.6,0.6-0.6h41.2c0.3,0,0.6,0.2,0.6,0.6v4
		C55.2,86.9,55,87.1,54.7,87.1z"/>
	<path id="XMLID_6_" class="st0" d="M72.1,77.1H45.8c-0.3,0-0.6-0.2-0.6-0.6v-4c0-0.3,0.2-0.6,0.6-0.6h26.3c0.3,0,0.6,0.2,0.6,0.6v4
		C72.7,76.9,72.4,77.1,72.1,77.1z"/>
	<path id="XMLID_24_" class="st0" d="M138.4,20.4H11.6C5.2,20.4,0,25.6,0,32v86c0,6.4,5.2,11.6,11.6,11.6h126.8
		c6.4,0,11.6-5.2,11.6-11.6V32C150,25.6,144.8,20.4,138.4,20.4z M5.2,29.9c0-2.7,2.2-4.8,4.8-4.8h129.9c2.7,0,4.8,2.2,4.8,4.8
		c0,2.7,0,4.8,0,4.8H5.2C5.2,34.8,5.2,32.6,5.2,29.9z M145,118.3c0,3.6-2.9,6.5-6.5,6.5H12.2c-3.6,0-6.5-2.9-6.5-6.5V66.4
		c0-3.6,2.9-6.5,6.5-6.5h126.3c3.6,0,6.5,2.9,6.5,6.5V118.3z"/>
</g>
</svg>
