<?xml version="1.0" encoding="utf-8"?>
<!-- Generator: Adobe Illustrator 19.0.0, SVG Export Plug-In . SVG Version: 6.00 Build 0)  -->
<svg version="1.1" id="Camada_1" xmlns="http://www.w3.org/2000/svg" xmlns:xlink="http://www.w3.org/1999/xlink" x="0px" y="0px"
	 viewBox="-367 223.3 150 150" style="enable-background:new -367 223.3 150 150;" xml:space="preserve">
<style type="text/css">
	.st0{fill:#000100;}
</style>
<g>
	<path class="st0" d="M-342.3,244.2v-17.9h-3.4c-11.7,0-21.3,9.5-21.3,21.3V349c0,11.7,9.5,21.3,21.3,21.3H-217V244.2H-342.3z
		 M-349.1,233.5V328c-4.2,0.7-8.1,2.5-11.2,5.4v-85.9C-360.3,240.8-355.5,234.9-349.1,233.5z M-223.7,250.9v112.6h-122
		c-8,0-14.5-6.5-14.5-14.5s6.5-14.5,14.5-14.5h3.4v-83.6H-223.7z"/>
	<polygon class="st0" points="-245.4,286.7 -277.2,286.7 -277.2,284.8 -282.9,284.8 -282.9,292.4 -251.1,292.4 -251.1,335.3 
		-277.2,335.3 -277.2,301.6 -282.9,301.6 -282.9,335.3 -317.4,335.3 -317.4,292.4 -295.9,292.4 -295.9,283.9 -301.6,283.9 
		-301.6,286.7 -317.4,286.7 -317.4,273.7 -282.9,273.7 -282.9,275.5 -277.2,275.5 -277.2,268 -323.1,268 -323.1,341 -245.4,341 	"/>
</g>
</svg>
