<?xml version="1.0" encoding="utf-8"?>
<!-- Generator: Adobe Illustrator 19.0.0, SVG Export Plug-In . SVG Version: 6.00 Build 0)  -->
<svg version="1.1" id="Layer_1" xmlns="http://www.w3.org/2000/svg" xmlns:xlink="http://www.w3.org/1999/xlink" x="0px" y="0px"
	 viewBox="0 0 150 150" style="enable-background:new 0 0 150 150;" xml:space="preserve">
<style type="text/css">
	.st0{fill:#0F0F0F;}
</style>
<g>
	<path class="st0" d="M75,16.8c-18.3,0-33.1,14.9-33.1,33.1S56.7,83,75,83c18.3,0,33.1-14.9,33.1-33.1S93.3,16.8,75,16.8z M75,80.5
		c-16.9,0-30.6-13.7-30.6-30.6S58.1,19.3,75,19.3c16.9,0,30.6,13.7,30.6,30.6S91.9,80.5,75,80.5z"/>
	<path class="st0" d="M75,0C47.5,0,25.1,22.4,25.1,49.9c0,27,46.9,95.7,48.9,98.6l1,1.5l1-1.5c2-2.9,48.9-71.6,48.9-98.6
		C124.9,22.4,102.5,0,75,0z M75,145.6C68,135.1,27.6,74,27.6,49.9C27.6,23.8,48.8,2.5,75,2.5s47.4,21.3,47.4,47.4
		C122.4,74,82,135.1,75,145.6z"/>
	<path class="st0" d="M88.8,34.8c0-2.8-2.2-5-5-5c-2.3,0-4.2,1.5-4.8,3.6c-2.6-1.8-6.1-1.5-8.3,0.7L51.5,49.8h7.3v11.4
		c0,3.4,2.8,6.2,6.2,6.2c3.4,0,6.2-2.8,6.2-6.2v-2.3c0-2.1,1.5-4,3.4-4.1c1.1-0.1,2.1,0.3,2.9,1c0.8,0.7,1.2,1.7,1.2,2.8v2.6
		c0,3.4,2.8,6.3,6.3,6.3c3.4,0,6.3-2.8,6.3-6.3V49.8h7.2l-9.7-8.1V34.8z M91.6,47.3h-2.8v13.8c0,2.1-1.7,3.8-3.8,3.8
		c-2.1,0-3.8-1.7-3.8-3.8v-2.6c0-1.8-0.7-3.4-2-4.6c-1.2-1.1-2.7-1.7-4.3-1.7c-0.2,0-0.4,0-0.5,0c-3.2,0.3-5.7,3.2-5.7,6.6v2.3
		c0,2.1-1.7,3.7-3.7,3.7c-2.1,0-3.7-1.7-3.7-3.7V47.3h-2.8l13.9-11.4c1.6-1.6,4.2-1.6,5.9,0.1l3,2.6v-3.8c0-1.4,1.1-2.5,2.5-2.5
		c1.4,0,2.5,1.1,2.5,2.5v8L91.6,47.3z"/>
</g>
</svg>
