<?xml version="1.0" encoding="utf-8"?>
<!-- Generator: Adobe Illustrator 19.0.0, SVG Export Plug-In . SVG Version: 6.00 Build 0)  -->
<svg version="1.1" id="Layer_1" xmlns="http://www.w3.org/2000/svg" xmlns:xlink="http://www.w3.org/1999/xlink" x="0px" y="0px"
	 viewBox="-230 322 150 150" style="enable-background:new -230 322 150 150;" xml:space="preserve">
<g>
	<path d="M-153.9,322.8c-2.7,0-5.2,2.5-5.2,5.2v46c0,2.7,2.5,5.2,5.2,5.2s5.2-2.5,5.2-5.2v-46.5l-0.3-0.5
		C-149.8,325.3-151.1,322.8-153.9,322.8z"/>
	<path d="M-85.2,392.3h-46c-2.7,0-5.2,2.5-5.2,5.2c0,2.7,2.5,5.2,5.2,5.2h46c2.7,0,5.2-2.5,5.2-5.2C-80,394.8-82.5,392.3-85.2,392.3
		z"/>
	<path d="M-153.9,414.9c-2.7,0-5.2,2.5-5.2,5.2v46c0,2.7,2.5,5.2,5.2,5.2s5.2-2.5,5.2-5.2v-46.5l-0.3-0.5
		C-149.8,417.4-151.1,414.9-153.9,414.9z"/>
	<path d="M-173.7,397.4c0-2.7-2.5-5.2-5.2-5.2h-46c-2.7,0-5.2,2.5-5.2,5.2c0,2.7,2.5,5.2,5.2,5.2h46
		C-176.1,402.6-173.7,400.1-173.7,397.4z"/>
	<path d="M-98.9,407.4c-3.1,23.5-22,42.1-46,45.2l-1.7,0.2v9.6l2.2-0.3c28.6-3.3,51.7-26.2,55-54.2l0.3-2.2l-9.6,0L-98.9,407.4z"/>
	<path d="M-113.7,356.5c8.1,8.1,13.2,18.8,14.7,31.1l0.2,1.7h9.6l-0.3-2.2c-1.7-13.7-7.8-27-17.4-37.5
		c-10.2-10.2-23.5-16.7-37.5-18.3l-2.2-0.2v9.5l1.7,0.2C-133.1,342.5-122.3,347.9-113.7,356.5z"/>
	<path d="M-200.6,348.9c-10.8,10.8-17.5,24.1-19.2,38.3l-0.3,2.2h9.6l0.2-1.7c1.6-12.3,7-23.4,15.6-32c8.1-8.1,18.8-13.2,31.1-14.7
		l1.7-0.2v-9.6l-2.2,0.3C-177.4,333.1-190,339.1-200.6,348.9z"/>
	<path d="M-210.4,406.4l-0.3-1.6h-9.6l0.3,2.2c2,14.3,8.4,27.2,18.5,37.2c10.1,10,23,16.2,37.3,17.8l2.2,0.2v-9.6l-1.7-0.2
		C-187.6,449.3-206.4,430.8-210.4,406.4z"/>
	<path d="M-120.7,387.8l0.3,1.6h6.4l-0.4-2.3c-2.6-14.7-14.8-27.3-29.8-30.6l-2.4-0.5v6.4l1.5,0.4
		C-132.8,365.7-123,375.8-120.7,387.8z"/>
	<path d="M-194.9,387l-0.5,2.4h6.5l0.3-1.6c2.2-12.5,12.5-22.8,25-25l1.6-0.3v-6.5l-2.4,0.5C-179.5,359.8-191.5,371.8-194.9,387z"/>
	<path d="M-114.5,407.9l0.6-2.4h-6.6l-0.4,1.5c-3,11.9-11.8,20.5-24.2,23.6l-1.5,0.4v6.4l2.4-0.6
		C-129.4,433.4-117.8,422.1-114.5,407.9z"/>
	<path d="M-188.6,406.2l-0.4-1.5h-6.4l0.5,2.4c3.3,14.9,15,26.3,30.5,29.7l2.4,0.5v-6.5l-1.6-0.3
		C-175.5,428.4-185.6,418.6-188.6,406.2z"/>
</g>
</svg>
