<?xml version="1.0" encoding="utf-8"?>
<!-- Generator: Adobe Illustrator 19.0.0, SVG Export Plug-In . SVG Version: 6.00 Build 0)  -->
<svg version="1.1" id="Camada_1" xmlns="http://www.w3.org/2000/svg" xmlns:xlink="http://www.w3.org/1999/xlink" x="0px" y="0px"
	 viewBox="0 0 150 150" style="enable-background:new 0 0 150 150;" xml:space="preserve">
<style type="text/css">
	.st0{fill:#010101;}
</style>
<g id="XMLID_4_">
	<g id="XMLID_5_">
		<path id="XMLID_2_" class="st0" d="M98,98.1c-1.5,3.5-5.5,5.1-9,3.6L61,89.9c-2.5-1-4.1-3.5-4.1-6.3V45.9c0-3.7,3-6.8,6.8-6.8
			c3.7,0,6.8,3.1,6.8,6.8V79l23.8,10.1C97.9,90.6,99.5,94.6,98,98.1z"/>
		<path id="XMLID_1_" class="st0" d="M89.8,7.8c21.4,6.3,37.5,21.8,45.2,41l2.2-4.2c1.7-3.3,5.9-4.6,9.2-2.8
			c3.4,1.7,4.6,5.8,2.9,9.2L139,70.5c-1.5,2.8-4.6,4.2-7.6,3.5c-0.5-0.1-1.1-0.3-1.5-0.5l-19.6-10.3c-3.4-1.7-4.6-5.8-2.9-9.2
			c1.7-3.3,5.9-4.6,9.2-2.9l5.9,3.1c-6.2-15.5-19.2-28.2-36.6-33.3c-5.3-1.5-10.6-2.3-15.8-2.3c-24.4,0-46.9,16-54.1,40.6
			c-1.5,5.3-2.3,10.6-2.3,15.9c0,24.4,15.9,46.8,40.6,54.1c5.3,1.5,10.6,2.3,15.8,2.3c12.2,0,23.9-4,33.5-11.1
			c9.6-7.1,17-17.2,20.6-29.5c0.9-3,3.5-4.9,6.5-4.9c0.6,0,1.3,0.1,1.9,0.3c3.6,1.1,5.7,4.8,4.6,8.5c-9,30.6-36.8,50.4-67.2,50.4
			c-6.5,0-13.1-0.9-19.7-2.8C19.8,133.2,0,105.3,0,75c0-6.5,0.9-13.2,2.8-19.7C11.8,24.8,39.7,4.9,70,4.9
			C76.5,4.9,83.1,5.8,89.8,7.8z"/>
	</g>
</g>
</svg>
