<?xml version="1.0" encoding="utf-8"?>
<!-- Generator: Adobe Illustrator 19.0.0, SVG Export Plug-In . SVG Version: 6.00 Build 0)  -->
<svg version="1.1" id="Camada_1" xmlns="http://www.w3.org/2000/svg" xmlns:xlink="http://www.w3.org/1999/xlink" x="0px" y="0px"
	 viewBox="0 0 150 150" style="enable-background:new 0 0 150 150;" xml:space="preserve">
<g id="XMLID_2_">
	<path id="XMLID_3_" d="M150,34.2v81.6c0,2.1-1.1,3.6-3.3,4.4c-0.7,0.3-1.4,0.4-2.1,0.4c-1.5,0-2.8-0.5-3.8-1.4l-33.7-30.2v12.5
		c0,6-2.4,11-7.1,15.3c-4.7,4.2-10.4,6.3-17,6.3H24.1c-6.6,0-12.3-2.1-17-6.3c-4.7-4.2-7.1-9.3-7.1-15.3V48.6c0-5.9,2.4-11,7.1-15.3
		c4.7-4.2,10.4-6.3,17-6.3H83c6.6,0,12.3,2.1,17,6.3c4.7,4.2,7.1,9.3,7.1,15.3V61l33.7-30.2c1-0.9,2.3-1.4,3.8-1.4
		c0.7,0,1.4,0.1,2.1,0.4C148.9,30.6,150,32.1,150,34.2z"/>
</g>
</svg>
