<?xml version="1.0" encoding="utf-8"?>
<!-- Generator: Adobe Illustrator 19.0.0, SVG Export Plug-In . SVG Version: 6.00 Build 0)  -->
<svg version="1.1" id="Camada_1" xmlns="http://www.w3.org/2000/svg" xmlns:xlink="http://www.w3.org/1999/xlink" x="0px" y="0px"
	 viewBox="0 0 150 150" style="enable-background:new 0 0 150 150;" xml:space="preserve">
<g id="XMLID_3_">
	<path id="XMLID_4_" d="M150,28.1v93.7c0,7.7-2.8,14.4-8.3,19.9c-5.5,5.5-12.1,8.3-19.9,8.3H28.1c-7.7,0-14.4-2.7-19.9-8.3
		C2.7,136.2,0,129.6,0,121.9V28.1c0-7.7,2.7-14.4,8.3-19.9C13.8,2.8,20.4,0,28.1,0h93.8c7.7,0,14.4,2.8,19.9,8.3
		C147.2,13.8,150,20.4,150,28.1z M125,81.3V68.8c0-1.7-0.6-3.2-1.9-4.4c-1.2-1.2-2.7-1.9-4.4-1.9H31.2c-1.7,0-3.2,0.6-4.4,1.9
		c-1.2,1.2-1.9,2.7-1.9,4.4v12.5c0,1.7,0.6,3.2,1.9,4.4c1.2,1.2,2.7,1.9,4.4,1.9h87.5c1.7,0,3.2-0.6,4.4-1.9
		C124.4,84.4,125,82.9,125,81.3z"/>
</g>
</svg>
