<?xml version="1.0" encoding="utf-8"?>
<!-- Generator: Adobe Illustrator 19.0.0, SVG Export Plug-In . SVG Version: 6.00 Build 0)  -->
<svg version="1.1" id="Camada_1" xmlns="http://www.w3.org/2000/svg" xmlns:xlink="http://www.w3.org/1999/xlink" x="0px" y="0px"
	 viewBox="0 0 150 150" style="enable-background:new 0 0 150 150;" xml:space="preserve">
<g id="XMLID_31_">
	<path id="XMLID_32_" d="M150,30.7v88.6c0,8.5-3,15.7-9,21.7c-6,6-13.2,9-21.7,9H30.7c-8.5,0-15.7-3-21.7-9c-6-6-9-13.2-9-21.7V30.7
		C0,22.2,3,15,9,9c6-6,13.2-9,21.7-9h88.6c8.5,0,15.7,3,21.7,9C147,15,150,22.2,150,30.7z M136.4,119.3V30.7c0-4.7-1.7-8.7-5-12
		c-3.3-3.3-7.4-5-12-5H30.7c-4.7,0-8.7,1.7-12,5c-3.3,3.3-5,7.4-5,12v88.6c0,4.7,1.7,8.7,5,12c3.3,3.3,7.4,5,12,5h88.6
		c4.7,0,8.7-1.7,12-5C134.7,128,136.4,124,136.4,119.3z M122.7,71.6v6.8c0,1-0.3,1.8-1,2.5c-0.6,0.6-1.5,1-2.4,1H30.7
		c-1,0-1.8-0.3-2.5-1c-0.6-0.6-1-1.5-1-2.5v-6.8c0-1,0.3-1.8,1-2.4s1.5-1,2.5-1h88.6c1,0,1.8,0.3,2.4,1S122.7,70.6,122.7,71.6z"/>
</g>
</svg>
