<?xml version="1.0" encoding="utf-8"?>
<!-- Generator: Adobe Illustrator 19.2.1, SVG Export Plug-In . SVG Version: 6.00 Build 0)  -->
<svg version="1.1" id="block" xmlns="http://www.w3.org/2000/svg" xmlns:xlink="http://www.w3.org/1999/xlink" x="0px" y="0px"
	 width="150px" height="150px" viewBox="0 0 150 150" enable-background="new 0 0 150 150" xml:space="preserve">
<path id="block3" d="M40.9,64.8v20.5c0,2.8-1,5.3-3,7.2c-2,2-4.4,3-7.2,3H10.2c-2.8,0-5.3-1-7.2-3c-2-2-3-4.4-3-7.2V64.8
	c0-2.8,1-5.3,3-7.2c2-2,4.4-3,7.2-3h20.5c2.8,0,5.3,1,7.2,3C39.9,59.5,40.9,61.9,40.9,64.8z"/>
<path id="block2" d="M95.5,64.8v20.5c0,2.8-1,5.3-3,7.2c-2,2-4.4,3-7.2,3H64.8c-2.8,0-5.3-1-7.2-3c-2-2-3-4.4-3-7.2V64.8
	c0-2.8,1-5.3,3-7.2c2-2,4.4-3,7.2-3h20.5c2.8,0,5.3,1,7.2,3C94.5,59.5,95.5,61.9,95.5,64.8z"/>
<path id="block1" d="M150,64.8v20.5c0,2.8-1,5.3-3,7.2c-2,2-4.4,3-7.2,3h-20.5c-2.8,0-5.3-1-7.2-3c-2-2-3-4.4-3-7.2V64.8
	c0-2.8,1-5.3,3-7.2c2-2,4.4-3,7.2-3h20.5c2.8,0,5.3,1,7.2,3C149,59.5,150,61.9,150,64.8z"/>
</svg>
