<?xml version="1.0" encoding="utf-8"?>
<!-- Generator: Adobe Illustrator 19.2.1, SVG Export Plug-In . SVG Version: 6.00 Build 0)  -->
<svg version="1.1" id="block" xmlns="http://www.w3.org/2000/svg" xmlns:xlink="http://www.w3.org/1999/xlink" x="0px" y="0px"
	 width="150px" height="150px" viewBox="0 0 150 150" enable-background="new 0 0 150 150" xml:space="preserve">
<path id="block3" d="M85.2,40.9H64.8c-2.8,0-5.3-1-7.2-3c-2-2-3-4.4-3-7.2V10.2c0-2.8,1-5.3,3-7.2c2-2,4.4-3,7.2-3l20.5,0
	c2.8,0,5.3,1,7.2,3c2,2,3,4.4,3,7.2v20.5c0,2.8-1,5.3-3,7.2C90.5,39.9,88.1,40.9,85.2,40.9z"/>
<path id="block2" d="M85.2,95.5H64.8c-2.8,0-5.3-1-7.2-3c-2-2-3-4.4-3-7.2V64.8c0-2.8,1-5.3,3-7.2c2-2,4.4-3,7.2-3h20.5
	c2.8,0,5.3,1,7.2,3c2,2,3,4.4,3,7.2v20.5c0,2.8-1,5.3-3,7.2C90.5,94.5,88.1,95.5,85.2,95.5z"/>
<path id="block1" d="M85.2,150H64.8c-2.8,0-5.3-1-7.2-3c-2-2-3-4.4-3-7.2v-20.5c0-2.8,1-5.3,3-7.2c2-2,4.4-3,7.2-3h20.5
	c2.8,0,5.3,1,7.2,3c2,2,3,4.4,3,7.2v20.5c0,2.8-1,5.3-3,7.2C90.5,149,88.1,150,85.2,150z"/>
</svg>
