<?xml version="1.0" encoding="utf-8"?>
<!-- Generator: Adobe Illustrator 19.0.0, SVG Export Plug-In . SVG Version: 6.00 Build 0)  -->
<svg version="1.1" id="Layer_1" xmlns="http://www.w3.org/2000/svg" xmlns:xlink="http://www.w3.org/1999/xlink" x="0px" y="0px"
	 viewBox="-366 322 150 150" style="enable-background:new -366 322 150 150;" xml:space="preserve">
<style type="text/css">
	.st0{fill:#676767;}
</style>
<path class="st0" d="M-291,322c-41.4,0-75,33.6-75,75s33.6,75,75,75c41.4,0,75-33.6,75-75C-216,355.5-249.6,322-291,322z
	 M-293.9,442.2c-10.4,0-21.7-2.1-30.3-7.8v0.4c0,5.2-1.5,9.4-6.7,9.4c-5.2,0-8.1-4.2-8.1-9.4l0.5-27.7c0-0.4,0.3-1.2,0.3-1.5
	c0-5.2,4.6-10.3,9.8-10.3h28.5c5.2,0,9.4,3,9.4,8.2c0,5.2-4.2,8.2-9.4,8.2h-11.7c5.1,7.8,12.4,9.8,20.5,9.8
	c12.3,0,22.6-9.8,26.4-18.3h19.4C-249.7,428.1-271.2,442.2-293.9,442.2z M-253.6,395.3h-28.4c-5.2,0-9.5-3.2-9.5-8.4
	c0-5.2,4.2-8.4,9.5-8.4h11.4c-5.1-8.2-12.4-9.8-20.5-9.8c-12.1,0-22.3,1.6-26.2,17.9h-19.5c4.4-24.6,21.8-36.8,44.3-36.8
	c10.6,0,18,4,26.5,10v-0.8c0-5.2,5.6-9.4,10.8-9.4c5.2,0,10.1,4.2,10.1,9.4l0.6,27.6C-244.6,391.9-248.5,395.3-253.6,395.3z"/>
</svg>
