<?xml version="1.0" encoding="utf-8"?>
<!-- Generator: Adobe Illustrator 19.2.1, SVG Export Plug-In . SVG Version: 6.00 Build 0)  -->
<svg version="1.1" id="Camada_1" xmlns="http://www.w3.org/2000/svg" xmlns:xlink="http://www.w3.org/1999/xlink" x="0px" y="0px"
	 width="150px" height="150px" viewBox="0 0 150 150" enable-background="new 0 0 150 150" xml:space="preserve">
<path d="M132.5,32h-23.7c-0.3,0-0.6-0.3-0.6-0.6l0-30.8c0-0.3-0.3-0.6-0.6-0.6c-2.5,0-6.4,0.1-7.6,0.1H43.2c-1.7,0-3.4-0.1-5.4,0
	c-1.1,0-2.9-0.1-4.9,1.7L13.5,22c-1.2,1.2-1.9,2.5-2.8,4.6c-0.9,2.1-0.9,4.1-0.9,6.2V108v9.4c0,0.3,0.3,0.6,0.6,0.6l0,0h30.7
	c0.3,0,0.6,0.3,0.6,0.6v21.1v9.3c0,0.5,0.4,1,1,1h4.6h84.5h7.7c0.3,0,0.6-0.3,0.6-0.6v-9.6l0-107.8l-0.7,0
	C137.3,32,132.8,32,132.5,32z M18.4,29.6L39.4,8.3c0.8-0.8,2.4-0.4,2.4,0.7v22.4c0,0.3-0.3,0.6-0.6,0.6h-22
	C18.1,32,17.6,30.4,18.4,29.6z M46.1,53.7c-1.2,1.2-2.1,2.6-3.1,4.6c-1,2.1-1.2,4.1-1.2,6.2v43.1c0,0.3-0.3,0.6-0.6,0.6H20.3
	c-0.3,0-0.6-0.3-0.6-0.6V42.5c0-0.3,0.3-0.6,0.6-0.6h22.9c4.5,0,6.2-0.1,7.4-1.4c1.3-1.3,1-6.1,1-7.7V8.1c0-0.3,0.3-0.6,0.6-0.6
	h47.9c0.3,0,0.6,0.3,0.6,0.6v23.3c0,0.3-0.3,0.6-0.6,0.6H75.8c-1.7,0-3.4-0.1-5.4-0.1c-2.3,0-3.9,0.8-5,1.7L46.1,53.7z M50.9,61.5
	l20.8-21.4c0.8-0.8,2.1-0.4,2.1,0.7V63c0,0.5-0.4,1-1,1h-21C50.7,64,50.1,62.3,50.9,61.5z M132.8,139.2c0,0.5-0.4,1-1,1H52.3
	c-0.3,0-0.6-0.3-0.6-0.6V74.4c0-0.3,0.3-0.6,0.6-0.6h23.5c5.1,0,5.6,0.1,6.9-1.2c1.3-1.3,1-3.4,1-8V40c0-0.3,0.3-0.6,0.6-0.6h47.9
	c0.3,0,0.6,0.3,0.6,0.6V139.2z"/>
</svg>
