<?xml version="1.0" encoding="utf-8"?>
<!-- Generator: Adobe Illustrator 19.2.1, SVG Export Plug-In . SVG Version: 6.00 Build 0)  -->
<svg version="1.1" id="Camada_1" xmlns="http://www.w3.org/2000/svg" xmlns:xlink="http://www.w3.org/1999/xlink" x="0px" y="0px"
	 width="150px" height="150px" viewBox="0 0 150 150" enable-background="new 0 0 150 150" xml:space="preserve">
<g>
	<polygon fill="none" points="83.6,33 84.6,33 84.9,33 85.1,33 97.8,33 97.8,8.3 51.6,8.3 51.6,40.9 19.2,40.9 19.2,108.7 
		43.4,108.7 43.4,74.8 43.4,74.6 43.4,73.9 43.4,73.3 43.4,62.3 72.6,33 	"/>
	<polygon fill="none" points="42.6,9.5 19.3,32.7 19.3,32.8 42.6,32.8 	"/>
	<polygon fill="none" points="52.4,65.8 75.6,65.8 75.6,42.5 52.4,65.8 	"/>
	<polygon fill="none" points="84.6,73.9 52.2,73.9 52.2,141.7 130.8,141.7 130.8,41.3 84.6,41.3 	"/>
	<path fill="#333333" d="M106.6,33V0H52.1h-0.2h-0.3h-1.1h-11L10.3,29.2v11v0.7v0.7v0.2V117h33v33h96.3V33H106.6z M19.3,32.7
		L42.6,9.5v23.3L19.3,32.7L19.3,32.7z M43.4,73.3v0.7v0.7v0.2v33.9H19.2V40.9h32.4V8.3h46.2V33H85.1h-0.2h-0.3h-1.1h-11L43.4,62.3
		V73.3z M75.6,42.5v23.3H52.4v0L75.6,42.5z M130.8,141.7H52.2V73.9h32.4V41.3h46.2V141.7z"/>
</g>
</svg>
