<?xml version="1.0" encoding="utf-8"?>
<!-- Generator: Adobe Illustrator 19.2.1, SVG Export Plug-In . SVG Version: 6.00 Build 0)  -->
<svg version="1.1" id="Layer_1" xmlns="http://www.w3.org/2000/svg" xmlns:xlink="http://www.w3.org/1999/xlink" x="0px" y="0px"
	 width="150px" height="150px" viewBox="0 0 150 150" enable-background="new 0 0 150 150" xml:space="preserve">
<path fill="#818282" d="M5.4,88.5L5.4,88.5c7.2,7.2,18.9,7.2,26.2,0l24.9-24.9v67.8c0,10.2,8.3,18.5,18.5,18.5s18.5-8.3,18.5-18.5
	V63.5l24.9,24.9c7.2,7.2,18.9,7.2,26.2,0c7.2-7.2,7.2-18.9,0-26.2L88.9,6.5C85.5,2.6,80.6,0.1,75,0.1c-5.9,0-11.2,2.8-14.5,7.2
	l-55,55C-1.8,69.6-1.8,81.3,5.4,88.5"/>
</svg>
