<?xml version="1.0" encoding="utf-8"?>
<!-- Generator: Adobe Illustrator 19.2.1, SVG Export Plug-In . SVG Version: 6.00 Build 0)  -->
<svg version="1.1" id="Camada_1" xmlns="http://www.w3.org/2000/svg" xmlns:xlink="http://www.w3.org/1999/xlink" x="0px" y="0px"
	 width="150px" height="150px" viewBox="0 0 150 150" enable-background="new 0 0 150 150" xml:space="preserve">
<g>
	<g>
		<path fill="#00A2C2" d="M57.5,119.3c0,0.7-0.3,1.3-0.8,2l-26,26.1c-0.5,0.5-1.2,0.7-1.9,0.7c-0.7,0-1.3-0.2-1.9-0.7L0.8,121.2
			c-0.8-0.9-1-1.6-0.6-2.7s1.3-1.4,2.4-1.4h15.9V3.9c0-0.8,0.1-1,0.6-1.5s1-0.4,1.8-0.4h15.7c0.7,0,1.5-0.1,2,0.4s0.8,0.8,0.8,1.5
			v113.2h15.5c0.8,0,1.4,0,1.9,0.5S57.5,118.5,57.5,119.3z"/>
	</g>
	<g>
		<g>
			<path fill="#00A2C2" d="M58.3,30.4c-6.2,0-11.2,4.7-11.2,10.5s5,10.5,11.2,10.5h36.5c6.2,0,14.7-3.6,19.1-7.9l5-5
				c4.3-4.4,2.8-7.9-3.3-7.9L58.3,30.4L58.3,30.4z"/>
		</g>
		<g>
			<path fill="#00A2C2" d="M58.3,60.3c-6.2,0-11.2,4.7-11.2,10.5c0,5.7,5,10.5,11.2,10.5h7.1c6.2,0,14.7-3.6,19.1-7.9l5-5
				c4.3-4.4,2.8-7.9-3.3-7.9L58.3,60.3L58.3,60.3z"/>
		</g>
		<g>
			<path fill="#00A2C2" d="M58.3,2c-6.2,0-11.2,4.7-11.2,10.5c0,5.7,5,10.5,11.2,10.5h65.2c6.2,0,14.7-3.6,19.1-7.9l5-5
				c4.3-4.4,2.8-7.9-3.3-7.9L58.3,2L58.3,2z"/>
		</g>
		<g>
			<path fill="#00A2C2" d="M58.3,88.7c-6.2,0-11.2,5-11.2,11.2v0.6c0,6.1,3.6,7.6,7.9,3.3l7.2-7.2c4.4-4.4,2.9-7.9-3.3-7.9H58.3
				L58.3,88.7z"/>
		</g>
	</g>
</g>
</svg>
