<?xml version="1.0" encoding="utf-8"?>
<!-- Generator: Adobe Illustrator 19.2.1, SVG Export Plug-In . SVG Version: 6.00 Build 0)  -->
<svg version="1.1" id="Camada_1" xmlns="http://www.w3.org/2000/svg" xmlns:xlink="http://www.w3.org/1999/xlink" x="0px" y="0px"
	 width="150px" height="150px" viewBox="0 0 150 150" enable-background="new 0 0 150 150" xml:space="preserve">
<g>
	<path d="M115,45c-0.6,1.3-1.7,2-3,2H88.4v99.6c0,1-0.3,1.8-0.9,2.4s-1.4,0.9-2.4,0.9H64.9c-1,0-1.8-0.3-2.4-0.9s-0.9-1.4-0.9-2.4
		V47H38c-1.5,0-2.5-0.7-3-2c-0.6-1.3-0.4-2.6,0.5-3.7L72.3,1c0.7-0.7,1.5-1,2.4-1c1,0,1.8,0.3,2.5,1l37.3,40.3
		C115.4,42.5,115.6,43.7,115,45z"/>
</g>
</svg>
