<?xml version="1.0" encoding="utf-8"?>
<!-- Generator: Adobe Illustrator 19.2.1, SVG Export Plug-In . SVG Version: 6.00 Build 0)  -->
<svg version="1.1" id="Camada_1" xmlns="http://www.w3.org/2000/svg" xmlns:xlink="http://www.w3.org/1999/xlink" x="0px" y="0px"
	 width="150px" height="150px" viewBox="0 0 150 150" enable-background="new 0 0 150 150" xml:space="preserve">
<g>
	<path d="M35,105c0.6-1.3,1.7-2,3-2h23.5V3.4c0-1,0.3-1.8,0.9-2.4S63.9,0,64.9,0l20.2,0c1,0,1.8,0.3,2.4,0.9
		c0.6,0.6,0.9,1.4,0.9,2.4V103H112c1.5,0,2.5,0.7,3,2c0.6,1.3,0.4,2.6-0.5,3.7L77.7,149c-0.7,0.7-1.5,1-2.4,1c-1,0-1.8-0.3-2.5-1
		l-37.3-40.3C34.6,107.5,34.4,106.3,35,105z"/>
</g>
</svg>
