<?xml version="1.0" encoding="utf-8"?>
<!-- Generator: Adobe Illustrator 19.2.1, SVG Export Plug-In . SVG Version: 6.00 Build 0)  -->
<svg version="1.1" id="Camada_1" xmlns="http://www.w3.org/2000/svg" xmlns:xlink="http://www.w3.org/1999/xlink" x="0px" y="0px"
	 width="150px" height="150px" viewBox="0 0 150 150" enable-background="new 0 0 150 150" xml:space="preserve">
<g>
	<path d="M105,115c-1.3-0.6-2-1.7-2-3V88.4H3.4c-1,0-1.8-0.3-2.4-0.9S0,86.1,0,85.1l0-20.2c0-1,0.3-1.8,0.9-2.4s1.4-0.9,2.4-0.9H103
		V38c0-1.5,0.7-2.5,2-3c1.3-0.6,2.6-0.4,3.7,0.5L149,72.3c0.7,0.7,1,1.5,1,2.4c0,1-0.3,1.8-1,2.5l-40.3,37.3
		C107.5,115.4,106.3,115.6,105,115z"/>
</g>
</svg>
