<?xml version="1.0" encoding="utf-8"?>
<!-- Generator: Adobe Illustrator 19.2.1, SVG Export Plug-In . SVG Version: 6.00 Build 0)  -->
<svg version="1.1" id="Camada_1" xmlns="http://www.w3.org/2000/svg" xmlns:xlink="http://www.w3.org/1999/xlink" x="0px" y="0px"
	 width="150px" height="150px" viewBox="0 0 150 150" enable-background="new 0 0 150 150" xml:space="preserve">
<g>
	<path d="M45,35c1.3,0.6,2,1.7,2,3v23.5h99.6c1,0,1.8,0.3,2.4,0.9s0.9,1.4,0.9,2.4v20.2c0,1-0.3,1.8-0.9,2.4
		c-0.6,0.6-1.4,0.9-2.4,0.9H47V112c0,1.5-0.7,2.5-2,3c-1.3,0.6-2.6,0.4-3.7-0.5L1,77.7c-0.7-0.7-1-1.5-1-2.4c0-1,0.3-1.8,1-2.5
		l40.3-37.3C42.5,34.6,43.7,34.4,45,35z"/>
</g>
</svg>
