<?xml version="1.0" encoding="utf-8"?>
<!-- Generator: Adobe Illustrator 19.2.1, SVG Export Plug-In . SVG Version: 6.00 Build 0)  -->
<svg version="1.1" id="Camada_1" xmlns="http://www.w3.org/2000/svg" xmlns:xlink="http://www.w3.org/1999/xlink" x="0px" y="0px"
	 width="150px" height="150px" viewBox="0 0 150 150" enable-background="new 0 0 150 150" xml:space="preserve">
<path d="M72.3,1L35.5,41.3c-0.9,1.1-1.1,2.4-0.5,3.7c0.5,1.3,1.5,2,3,2h23.7v56h-0.2H38c-1.3,0-2.4,0.7-3,2s-0.4,2.5,0.5,3.7
	L72.8,149c0.7,0.7,1.5,1,2.5,1c0.9,0,1.7-0.3,2.4-1l36.8-40.3c0.9-1.1,1.1-2.4,0.5-3.7c-0.5-1.3-1.5-2-3-2H88.5V47H112
	c1.3,0,2.4-0.7,3-2s0.4-2.5-0.5-3.7L77.2,1c-0.7-0.7-1.5-1-2.5-1C73.8,0,73,0.3,72.3,1z"/>
</svg>
