<?xml version="1.0" encoding="utf-8"?>
<!-- Generator: Adobe Illustrator 19.2.1, SVG Export Plug-In . SVG Version: 6.00 Build 0)  -->
<svg version="1.1" id="Camada_1" xmlns="http://www.w3.org/2000/svg" xmlns:xlink="http://www.w3.org/1999/xlink" x="0px" y="0px"
	 width="150px" height="150px" viewBox="0 0 150 150" enable-background="new 0 0 150 150" xml:space="preserve">
<path d="M1,77.7l40.3,36.8c1.1,0.9,2.4,1.1,3.7,0.5c1.3-0.5,2-1.5,2-3V88.3h56v0.2V112c0,1.3,0.7,2.4,2,3s2.5,0.4,3.7-0.5L149,77.2
	c0.7-0.7,1-1.5,1-2.5c0-0.9-0.3-1.7-1-2.4l-40.3-36.8c-1.1-0.9-2.4-1.1-3.7-0.5c-1.3,0.5-2,1.5-2,3v23.5H47V38c0-1.3-0.7-2.4-2-3
	s-2.5-0.4-3.7,0.5L1,72.8c-0.7,0.7-1,1.5-1,2.5C0,76.2,0.3,77,1,77.7z"/>
</svg>
