<?xml version="1.0" encoding="utf-8"?>
<!-- Generator: Adobe Illustrator 19.2.1, SVG Export Plug-In . SVG Version: 6.00 Build 0)  -->
<svg version="1.1" id="Camada_1" xmlns="http://www.w3.org/2000/svg" xmlns:xlink="http://www.w3.org/1999/xlink" x="0px" y="0px"
	 width="150px" height="150px" viewBox="0 0 150 150" enable-background="new 0 0 150 150" xml:space="preserve">
<path d="M78.7,120.2c0,0.7-0.4,1.4-1,2.1L51,149c-0.7,0.7-1.4,1-2.1,1c-0.7,0-1.4-0.3-2.1-1l-26.7-26.7c-0.7-0.7-0.9-1.5-0.5-2.6
	c0.3-1,1.2-1.5,2.6-1.5h15.4V2.1c0-0.7,0.3-1.4,1-2.1h2.1h16.4c0.7,0,1.2,0.2,1.5,0.5c0.3,0.4,0.5,0.9,0.5,1.5v116.1h16.4
	c0.7,0,1.4,0.2,2.1,0.5C78.3,119,78.7,119.5,78.7,120.2z"/>
<g>
	<path d="M149.5,62h-8.9c-1,0-1.8-0.2-2.5-0.8c-0.6-0.5-1.1-1.1-1.4-1.9l-4.6-12.6h-25.7l-4.6,12.6c-0.2,0.7-0.7,1.3-1.3,1.8
		C99.8,61.7,98.9,62,98,62h-9l24.4-62h11.8L149.5,62z M109.4,38.6h19.8L121.6,18c-0.3-0.9-0.7-2-1.1-3.2s-0.8-2.6-1.2-4.1
		c-0.4,1.5-0.8,2.8-1.2,4.1c-0.4,1.3-0.8,2.4-1.1,3.3L109.4,38.6z"/>
</g>
<g>
	<path d="M144,88v4.2c0,1.3-0.4,2.5-1.3,3.6l-36.5,44.9h36.9v9.2H89v-4.5c0-0.6,0.1-1.1,0.3-1.7c0.2-0.5,0.5-1,0.9-1.5l36.6-45.1
		H91.3V88H144z"/>
</g>
</svg>
