<?xml version="1.0" encoding="utf-8"?>
<!-- Generator: Adobe Illustrator 19.2.1, SVG Export Plug-In . SVG Version: 6.00 Build 0)  -->
<svg version="1.1" id="Camada_1" xmlns="http://www.w3.org/2000/svg" xmlns:xlink="http://www.w3.org/1999/xlink" x="0px" y="0px"
	 width="150px" height="150px" viewBox="0 0 150 150" enable-background="new 0 0 150 150" xml:space="preserve">
<path fill="#111111" d="M149,72.4l-26.7-26.7c-0.7-0.6-1.4-1-2.1-1c-0.7,0-1.2,0.4-1.6,1.1c-0.3,0.7-0.5,1.4-0.5,2.1V64H86V32h15.2
	c1.4,0,2.3-0.6,2.6-1.6c0.4-1.1,0.2-2-0.5-2.6L76.6,1c-0.7-0.7-1.4-1-2.1-1c-0.7,0-1.4,0.3-2.1,1L45.7,27.7c-0.6,0.7-1,1.4-1,2.1
	s0.4,1.2,1.1,1.6c0.7,0.3,1.4,0.5,2.1,0.5H64v12.7c0,0,0,0.1,0,0.1V64H32V48.8c0-1.4-0.6-2.3-1.6-2.6c-1.1-0.4-2-0.2-2.7,0.5L1,73.4
	c-0.7,0.7-1,1.4-1,2.1c0,0.7,0.3,1.4,1,2.1l26.7,26.7c0.7,0.6,1.4,1,2.1,1s1.2-0.4,1.6-1.1c0.3-0.7,0.5-1.4,0.5-2.1V86h12.7
	c0,0,0.1,0,0.1,0H64v32H48.8c-1.4,0-2.3,0.6-2.6,1.6c-0.4,1.1-0.2,2,0.5,2.7L73.4,149c0.7,0.7,1.4,1,2.1,1c0.7,0,1.4-0.3,2.1-1
	l26.7-26.7c0.6-0.7,1-1.4,1-2.1c0-0.7-0.4-1.2-1.1-1.6c-0.7-0.3-1.4-0.5-2.1-0.5H86V86h32v15.2c0,1.4,0.6,2.3,1.6,2.6
	c1.1,0.4,2,0.2,2.7-0.5L149,76.6c0.7-0.7,1-1.4,1-2.1C150,73.8,149.7,73.1,149,72.4z"/>
</svg>
