<?xml version="1.0" encoding="utf-8"?>
<!-- Generator: Adobe Illustrator 19.2.1, SVG Export Plug-In . SVG Version: 6.00 Build 0)  -->
<svg version="1.1" id="Camada_1" xmlns="http://www.w3.org/2000/svg" xmlns:xlink="http://www.w3.org/1999/xlink" x="0px" y="0px"
	 width="150px" height="150px" viewBox="0 0 150 150" enable-background="new 0 0 150 150" xml:space="preserve">
<path fill="#111111" d="M129.2,125.5l0-37.8c-0.1-0.9-0.3-1.7-0.8-2.2c-0.5-0.5-1.1-0.6-1.9-0.4c-0.7,0.3-1.4,0.6-1.9,1.1
	l-11.4,11.4L90.6,75l22.6-22.6l10.7,10.7c1,1,2.1,1.2,3,0.7c1.1-0.5,1.5-1.2,1.5-2.2l0-37.8c0-1-0.3-1.7-0.8-2.2
	c-0.5-0.5-1.2-0.8-2.2-0.8l-37.8,0c-0.9,0.1-1.7,0.3-2.2,0.8c-0.5,0.5-0.6,1.2-0.4,1.9c0.3,0.7,0.6,1.4,1.1,1.9l11.4,11.4l-9,9
	c0,0,0,0-0.1,0.1L75,59.4L52.4,36.8l10.7-10.7c1-1,1.2-2.1,0.7-3c-0.5-1.1-1.2-1.5-2.2-1.5l-37.8,0c-1,0-1.7,0.3-2.2,0.8
	c-0.5,0.5-0.8,1.2-0.8,2.2l0,37.8c0.1,0.9,0.3,1.7,0.8,2.2c0.5,0.5,1.2,0.6,1.9,0.4c0.7-0.3,1.4-0.6,1.9-1.1l11.4-11.4l9,9
	c0,0,0,0,0.1,0.1L59.4,75L36.8,97.6L26.1,86.9c-1-1-2.1-1.2-3-0.7c-1.1,0.5-1.5,1.2-1.5,2.2l0,37.8c0,1,0.3,1.7,0.8,2.2
	c0.5,0.5,1.2,0.8,2.2,0.8l37.8,0c0.9-0.1,1.7-0.3,2.2-0.8c0.5-0.5,0.6-1.1,0.4-1.9c-0.3-0.7-0.6-1.4-1.1-1.9l-11.4-11.4L75,90.6
	l22.6,22.6l-10.7,10.7c-1,1-1.2,2.1-0.7,3c0.5,1.1,1.2,1.5,2.2,1.5l37.8,0c1,0,1.7-0.3,2.2-0.8C128.9,127.1,129.2,126.4,129.2,125.5
	z"/>
</svg>
