<?xml version="1.0" encoding="utf-8"?>
<!-- Generator: Adobe Illustrator 19.2.1, SVG Export Plug-In . SVG Version: 6.00 Build 0)  -->
<svg version="1.1" id="Camada_1" xmlns="http://www.w3.org/2000/svg" xmlns:xlink="http://www.w3.org/1999/xlink" x="0px" y="0px"
	 width="150px" height="150px" viewBox="0 0 150 150" enable-background="new 0 0 150 150" xml:space="preserve">
<path d="M130,0H20C9,0,0,9,0,20v110c0,11.1,9,20,20,20h110c11.1,0,20-9,20-20V20C150,9,141,0,130,0z M123.9,56.4L71,109.4
	c-2.4,2.4-6.4,2.4-8.8,0l-9.1-9.1L26.5,73.7c-2.4-2.4-2.4-6.4,0-8.8l9.2-9.2c2.4-2.4,6.4-2.4,8.8,0l22.2,22.2L106,38.5
	c2.4-2.4,6.4-2.4,8.8,0l9.1,9.1C126.4,50,126.4,54,123.9,56.4z"/>
</svg>
