<?xml version="1.0" encoding="utf-8"?>
<!-- Generator: Adobe Illustrator 19.2.1, SVG Export Plug-In . SVG Version: 6.00 Build 0)  -->
<svg version="1.1" id="Camada_1" xmlns="http://www.w3.org/2000/svg" xmlns:xlink="http://www.w3.org/1999/xlink" x="0px" y="0px"
	 width="150px" height="150px" viewBox="0 0 150 150" enable-background="new 0 0 150 150" xml:space="preserve">
<g>
	<path fill="#353535" d="M144,6c-4-4-8.7-6-14-6H20C14.7,0,10,2,6,6c-4,4-6,8.7-6,14v110c0,5.3,2,10,6,14s8.7,6,14,6h110
		c5.3,0,10-2,14-6c4-4,6-8.7,6-14V20C150,14.7,148,10,144,6z M123.2,58l-43.6,43.6l-1.6,1.6l-6.7,6.7c-2.7,2.7-7,2.7-9.7,0
		L26.8,75.1c-2.7-2.7-2.7-7,0-9.7l8.2-8.2c2.7-2.7,7-2.7,9.7,0l21.7,21.7l38.7-38.7c2.7-2.7,7-2.7,9.7,0l8.3,8.3
		C125.8,51.1,125.8,55.4,123.2,58z"/>
</g>
</svg>
