<?xml version="1.0" encoding="utf-8"?>
<!-- Generator: Adobe Illustrator 19.2.1, SVG Export Plug-In . SVG Version: 6.00 Build 0)  -->
<svg version="1.1" id="Camada_1" xmlns="http://www.w3.org/2000/svg" xmlns:xlink="http://www.w3.org/1999/xlink" x="0px" y="0px"
	 width="150px" height="150px" viewBox="0 0 150 150" enable-background="new 0 0 150 150" xml:space="preserve">
<g>
	<path fill="#353535" d="M129.8,0H20.2C9,0,0,9,0,20.2v109.6C0,141,9,150,20.2,150h109.6c11.2,0,20.2-9,20.2-20.2V20.2
		C150,9,141,0,129.8,0z M134.2,118.2c0,8.8-7.1,15.9-15.9,15.9H31.8c-8.8,0-15.9-7.1-15.9-15.9V31.8c0-8.8,7.1-15.9,15.9-15.9h86.5
		c8.8,0,15.9,7.1,15.9,15.9V118.2z"/>
	<path fill="#353535" d="M123.2,48.4l-8.3-8.3c-2.7-2.7-7-2.7-9.7,0L66.5,78.9L44.8,57.1c-2.7-2.7-7-2.7-9.7,0l-8.2,8.2
		c-2.7,2.7-2.7,7,0,9.7l34.8,34.8c2.7,2.7,7,2.7,9.7,0l6.7-6.7l1.6-1.6L123.2,58C125.8,55.4,125.8,51.1,123.2,48.4z"/>
</g>
</svg>
