<?xml version="1.0" encoding="utf-8"?>
<!-- Generator: Adobe Illustrator 19.2.1, SVG Export Plug-In . SVG Version: 6.00 Build 0)  -->
<svg version="1.1" id="Camada_1" xmlns="http://www.w3.org/2000/svg" xmlns:xlink="http://www.w3.org/1999/xlink" x="0px" y="0px"
	 width="150px" height="150px" viewBox="0 0 150 150" enable-background="new 0 0 150 150" xml:space="preserve">
<g>
	<path fill="#353535" d="M146.5,28.3l-25-24.9c-4.5-4.5-11.7-4.4-16.2,0l-5.7,5.7l41.3,41.1l5.7-5.7C151,40,151,32.7,146.5,28.3z"/>
	<path fill="#353535" d="M94.4,14.5L11,98.3l-10.8,50c-0.3,1.2,0.4,2,1.6,1.6L52,139.1l83.4-83.8L94.4,14.5z M42.9,137.8l-21.1,4.5
		l-1.4-12.7l-12.6-1.3l4.4-21.1c0.2-0.8,1.2-1,1.7-0.5l29.4,29.3C43.9,136.6,43.6,137.6,42.9,137.8z M95.1,21.2l4.5,4.5l-76,76.3
		l-4.5-4.5L95.1,21.2z"/>
</g>
</svg>
