<?xml version="1.0" encoding="utf-8"?>
<!-- Generator: Adobe Illustrator 19.2.1, SVG Export Plug-In . SVG Version: 6.00 Build 0)  -->
<svg version="1.1" id="Camada_1" xmlns="http://www.w3.org/2000/svg" xmlns:xlink="http://www.w3.org/1999/xlink" x="0px" y="0px"
	 width="150px" height="150px" viewBox="0 0 150 150" enable-background="new 0 0 150 150" xml:space="preserve">
<g>
	<g>
		<path fill="#353535" d="M149,31c0,2.7-0.8,5-2.5,7c-1.7,2-4.2,3-7.5,3h-20c-3.3,0-5.8-1-7.5-3c-1.7-2-2.5-4.3-2.5-7V10
			c0-2.7,0.8-5,2.5-7c1.7-2,3.8-3,6.5-3h22c2.7,0,4.8,1,6.5,3c1.7,2,2.5,4.3,2.5,7V31z M149,86c0,2.7-0.8,5-2.5,7
			c-1.7,2-4.2,3-7.5,3h-20c-3.3,0-5.8-1-7.5-3c-1.7-2-2.5-4.3-2.5-7V65c0-2.7,0.8-5,2.5-7c1.7-2,3.8-3,6.5-3h22c2.7,0,4.8,1,6.5,3
			c1.7,2,2.5,4.3,2.5,7V86z M149,140c0,2.7-0.8,5-2.5,7c-1.7,2-4.2,3-7.5,3h-20c-3.3,0-5.8-1-7.5-3c-1.7-2-2.5-4.3-2.5-7v-21
			c0-2.7,0.8-5,2.5-7c1.7-2,3.8-3,6.5-3h22c2.7,0,4.8,1,6.5,3c1.7,2,2.5,4.3,2.5,7V140z"/>
	</g>
	<g>
		<path fill="#353535" d="M95,31c0,2.7-0.8,5-2.5,7c-1.7,2-4.2,3-7.5,3H65c-3.3,0-5.8-1-7.5-3c-1.7-2-2.5-4.3-2.5-7V10
			c0-2.7,0.8-5,2.5-7c1.7-2,3.8-3,6.5-3h22c2.7,0,4.8,1,6.5,3c1.7,2,2.5,4.3,2.5,7V31z M95,86c0,2.7-0.8,5-2.5,7c-1.7,2-4.2,3-7.5,3
			H65c-3.3,0-5.8-1-7.5-3c-1.7-2-2.5-4.3-2.5-7V65c0-2.7,0.8-5,2.5-7c1.7-2,3.8-3,6.5-3h22c2.7,0,4.8,1,6.5,3c1.7,2,2.5,4.3,2.5,7
			V86z M95,140c0,2.7-0.8,5-2.5,7c-1.7,2-4.2,3-7.5,3H65c-3.3,0-5.8-1-7.5-3c-1.7-2-2.5-4.3-2.5-7v-21c0-2.7,0.8-5,2.5-7
			c1.7-2,3.8-3,6.5-3h22c2.7,0,4.8,1,6.5,3c1.7,2,2.5,4.3,2.5,7V140z"/>
	</g>
	<g>
		<path fill="#353535" d="M41,31c0,2.7-0.8,5-2.5,7c-1.7,2-4.2,3-7.5,3H11c-3.3,0-5.8-1-7.5-3C1.8,36,1,33.7,1,31V10
			c0-2.7,0.8-5,2.5-7C5.2,1,7.3,0,10,0h22c2.7,0,4.8,1,6.5,3c1.7,2,2.5,4.3,2.5,7V31z M41,86c0,2.7-0.8,5-2.5,7c-1.7,2-4.2,3-7.5,3
			H11c-3.3,0-5.8-1-7.5-3C1.8,91,1,88.7,1,86V65c0-2.7,0.8-5,2.5-7c1.7-2,3.8-3,6.5-3h22c2.7,0,4.8,1,6.5,3c1.7,2,2.5,4.3,2.5,7V86z
			 M41,140c0,2.7-0.8,5-2.5,7c-1.7,2-4.2,3-7.5,3H11c-3.3,0-5.8-1-7.5-3c-1.7-2-2.5-4.3-2.5-7v-21c0-2.7,0.8-5,2.5-7
			c1.7-2,3.8-3,6.5-3h22c2.7,0,4.8,1,6.5,3c1.7,2,2.5,4.3,2.5,7V140z"/>
	</g>
</g>
</svg>
