<?xml version="1.0" encoding="utf-8"?>
<!-- Generator: Adobe Illustrator 19.2.1, SVG Export Plug-In . SVG Version: 6.00 Build 0)  -->
<svg version="1.1" id="Camada_1" xmlns="http://www.w3.org/2000/svg" xmlns:xlink="http://www.w3.org/1999/xlink" x="0px" y="0px"
	 width="150px" height="150px" viewBox="0 0 150 150" enable-background="new 0 0 150 150" xml:space="preserve">
<g>
	<path fill="#353535" d="M38.3,130.9c0,6.4-5.2,11.6-11.6,11.6H11.6c-6.4,0-11.6-5.2-11.6-11.6v-0.5c0-6.4,5.2-11.6,11.6-11.6h15.1
		c6.4,0,11.6,5.2,11.6,11.6V130.9z"/>
	<path fill="#353535" d="M38.3,93.8c0,6.4-5.2,11.6-11.6,11.6H11.6C5.2,105.4,0,100.2,0,93.8v-0.5c0-6.4,5.2-11.6,11.6-11.6h15.1
		c6.4,0,11.6,5.2,11.6,11.6V93.8z"/>
	<path fill="#353535" d="M38.3,56.7c0,6.4-5.2,11.6-11.6,11.6H11.6C5.2,68.3,0,63.1,0,56.7v-0.5c0-6.4,5.2-11.6,11.6-11.6h15.1
		c6.4,0,11.6,5.2,11.6,11.6V56.7z"/>
	<path fill="#353535" d="M94.2,130.9c0,6.4-5.2,11.6-11.6,11.6H67.5c-6.4,0-11.6-5.2-11.6-11.6v-0.5c0-6.4,5.2-11.6,11.6-11.6h15.1
		c6.4,0,11.6,5.2,11.6,11.6V130.9z"/>
	<path fill="#353535" d="M94.2,93.8c0,6.4-5.2,11.6-11.6,11.6H67.5c-6.4,0-11.6-5.2-11.6-11.6v-0.5c0-6.4,5.2-11.6,11.6-11.6h15.1
		c6.4,0,11.6,5.2,11.6,11.6V93.8z"/>
	<path fill="#353535" d="M94.2,56.7c0,6.4-5.2,11.6-11.6,11.6H67.5c-6.4,0-11.6-5.2-11.6-11.6v-0.5c0-6.4,5.2-11.6,11.6-11.6h15.1
		c6.4,0,11.6,5.2,11.6,11.6V56.7z"/>
	<path fill="#353535" d="M150,130.9c0,6.4-5.2,11.6-11.6,11.6h-15.1c-6.4,0-11.6-5.2-11.6-11.6v-0.5c0-6.4,5.2-11.6,11.6-11.6h15.1
		c6.4,0,11.6,5.2,11.6,11.6V130.9z"/>
	<path fill="#353535" d="M150,93.8c0,6.4-5.2,11.6-11.6,11.6h-15.1c-6.4,0-11.6-5.2-11.6-11.6v-0.5c0-6.4,5.2-11.6,11.6-11.6h15.1
		c6.4,0,11.6,5.2,11.6,11.6V93.8z"/>
	<path fill="#353535" d="M150,56.7c0,6.4-5.2,11.6-11.6,11.6h-15.1c-6.4,0-11.6-5.2-11.6-11.6v-0.5c0-6.4,5.2-11.6,11.6-11.6h15.1
		c6.4,0,11.6,5.2,11.6,11.6V56.7z"/>
	<path fill="#353535" d="M38.3,19.6c0,6.4-5.2,11.6-11.6,11.6H11.6C5.2,31.3,0,26.1,0,19.6v-0.5C0,12.7,5.2,7.5,11.6,7.5h15.1
		c6.4,0,11.6,5.2,11.6,11.6V19.6z"/>
	<path fill="#353535" d="M94.2,19.6c0,6.4-5.2,11.6-11.6,11.6H67.5c-6.4,0-11.6-5.2-11.6-11.6v-0.5c0-6.4,5.2-11.6,11.6-11.6h15.1
		c6.4,0,11.6,5.2,11.6,11.6V19.6z"/>
	<path fill="#353535" d="M150,19.6c0,6.4-5.2,11.6-11.6,11.6h-15.1c-6.4,0-11.6-5.2-11.6-11.6v-0.5c0-6.4,5.2-11.6,11.6-11.6h15.1
		c6.4,0,11.6,5.2,11.6,11.6V19.6z"/>
</g>
</svg>
