<?xml version="1.0" encoding="utf-8"?>
<!-- Generator: Adobe Illustrator 19.2.1, SVG Export Plug-In . SVG Version: 6.00 Build 0)  -->
<svg version="1.1" id="Camada_1" xmlns="http://www.w3.org/2000/svg" xmlns:xlink="http://www.w3.org/1999/xlink" x="0px" y="0px"
	 width="150px" height="150px" viewBox="0 0 150 150" enable-background="new 0 0 150 150" xml:space="preserve">
<path fill="#353535" d="M131,9H19C8.5,9,0,17.5,0,28v94c0,10.5,8.5,19,19,19h112c10.5,0,19-8.5,19-19V28C150,17.5,141.5,9,131,9z
	 M47.2,114.1c0,4.9-3.9,8.8-8.8,8.8H27c-4.9,0-8.8-3.9-8.8-8.8v-0.4c0-4.9,3.9-8.8,8.8-8.8h11.4c4.9,0,8.8,3.9,8.8,8.8V114.1z
	 M47.2,86.6c0,4.9-3.9,8.8-8.8,8.8H27c-4.9,0-8.8-3.9-8.8-8.8v-0.4c0-4.9,3.9-8.8,8.8-8.8h11.4c4.9,0,8.8,3.9,8.8,8.8V86.6z
	 M47.2,59.1c0,4.9-3.9,8.8-8.8,8.8H27c-4.9,0-8.8-3.9-8.8-8.8v-0.4c0-4.9,3.9-8.8,8.8-8.8h11.4c4.9,0,8.8,3.9,8.8,8.8V59.1z
	 M89.5,114.1c0,4.9-3.9,8.8-8.8,8.8H69.3c-4.9,0-8.8-3.9-8.8-8.8v-0.4c0-4.9,3.9-8.8,8.8-8.8h11.4c4.9,0,8.8,3.9,8.8,8.8V114.1z
	 M89.5,86.6c0,4.9-3.9,8.8-8.8,8.8H69.3c-4.9,0-8.8-3.9-8.8-8.8v-0.4c0-4.9,3.9-8.8,8.8-8.8h11.4c4.9,0,8.8,3.9,8.8,8.8V86.6z
	 M89.5,59.1c0,4.9-3.9,8.8-8.8,8.8H69.3c-4.9,0-8.8-3.9-8.8-8.8v-0.4c0-4.9,3.9-8.8,8.8-8.8h11.4c4.9,0,8.8,3.9,8.8,8.8V59.1z
	 M131.8,114.1c0,4.9-3.9,8.8-8.8,8.8h-11.4c-4.9,0-8.8-3.9-8.8-8.8v-0.4c0-4.9,3.9-8.8,8.8-8.8H123c4.9,0,8.8,3.9,8.8,8.8V114.1z
	 M131.8,86.6c0,4.9-3.9,8.8-8.8,8.8h-11.4c-4.9,0-8.8-3.9-8.8-8.8v-0.4c0-4.9,3.9-8.8,8.8-8.8H123c4.9,0,8.8,3.9,8.8,8.8V86.6z
	 M131.8,59.1c0,4.9-3.9,8.8-8.8,8.8h-11.4c-4.9,0-8.8-3.9-8.8-8.8v-0.4c0-4.9,3.9-8.8,8.8-8.8H123c4.9,0,8.8,3.9,8.8,8.8V59.1z"/>
</svg>
