<?xml version="1.0" encoding="utf-8"?>
<!-- Generator: Adobe Illustrator 19.2.1, SVG Export Plug-In . SVG Version: 6.00 Build 0)  -->
<svg version="1.1" id="Camada_1" xmlns="http://www.w3.org/2000/svg" xmlns:xlink="http://www.w3.org/1999/xlink" x="0px" y="0px"
	 width="150px" height="150px" viewBox="0 0 150 150" enable-background="new 0 0 150 150" xml:space="preserve">
<path fill="#353535" d="M132.9,0H17.1C10.4,0,5,5.4,5,12.1v125.8c0,6.7,5.4,12.1,12.1,12.1h115.8c6.7,0,12.1-5.4,12.1-12.1V12.1
	C145,5.4,139.6,0,132.9,0z M36.6,136.7c0,1.4-1.2,2.6-2.6,2.6H18.1c-1.4,0-2.6-1.2-2.6-2.6v-15.9c0-1.4,1.2-2.6,2.6-2.6H34
	c1.4,0,2.6,1.2,2.6,2.6V136.7z M36.6,99.9c0,1.4-1.2,2.6-2.6,2.6H18.1c-1.4,0-2.6-1.2-2.6-2.6V84c0-1.4,1.2-2.6,2.6-2.6H34
	c1.4,0,2.6,1.2,2.6,2.6V99.9z M36.6,63c0,1.4-1.2,2.6-2.6,2.6H18.1c-1.4,0-2.6-1.2-2.6-2.6V47.1c0-1.4,1.2-2.6,2.6-2.6H34
	c1.4,0,2.6,1.2,2.6,2.6V63z M134.5,136.7c0,1.4-1.2,2.6-2.6,2.6h-85c-1.4,0-2.6-1.2-2.6-2.6v-15.9c0-1.4,1.2-2.6,2.6-2.6h85
	c1.4,0,2.6,1.2,2.6,2.6V136.7z M134.5,99.9c0,1.4-1.2,2.6-2.6,2.6h-85c-1.4,0-2.6-1.2-2.6-2.6V83.9c0-1.4,1.2-2.6,2.6-2.6h85
	c1.4,0,2.6,1.2,2.6,2.6V99.9z M134.5,63.1c0,1.4-1.2,2.6-2.6,2.6h-85c-1.4,0-2.6-1.2-2.6-2.6V47.1c0-1.4,1.2-2.6,2.6-2.6h85
	c1.4,0,2.6,1.2,2.6,2.6V63.1z M134.5,28.5c0,1.4-1.2,2.6-2.6,2.6H18.1c-1.4,0-2.6-1.2-2.6-2.6V12.6c0-1.4,1.2-2.6,2.6-2.6h113.8
	c1.4,0,2.6,1.2,2.6,2.6V28.5z"/>
</svg>
