<?xml version="1.0" encoding="utf-8"?>
<!-- Generator: Adobe Illustrator 19.2.1, SVG Export Plug-In . SVG Version: 6.00 Build 0)  -->
<svg version="1.1" xmlns="http://www.w3.org/2000/svg" xmlns:xlink="http://www.w3.org/1999/xlink" x="0px" y="0px" width="150px"
	 height="150px" viewBox="-490 -107 150 150" enable-background="new -490 -107 150 150" xml:space="preserve">
<g id="house">
	<g>
		<path d="M-343.7-42.3c-1.7-1.3-3.4-2.6-5.1-3.9c-2.7-2.1-5.4-4.2-8.1-6.2l-24.4-18.8l-4.8-3.7c-7.4-5.7-14.8-11.4-22.2-17
			c-1.3-1-2.6-1.6-3.8-2c-0.1,0-0.1,0-0.2-0.1c-0.4-0.1-0.8-0.2-1.1-0.3c-0.2,0-0.4-0.1-0.7-0.1c-0.3,0-0.5,0-0.8,0
			c-0.3,0-0.5,0-0.8,0c-0.2,0-0.5,0.1-0.7,0.1c-0.4,0.1-0.8,0.2-1.1,0.3c-0.1,0-0.1,0-0.2,0.1c-1.3,0.4-2.6,1.1-3.8,2
			c-9,6.9-18,13.8-27,20.7v-7.7c0-1.8-1.5-3.3-3.4-3.3h-12.7c-1.9,0-3.4,1.5-3.4,3.4c0,7.6,0.1,14-0.1,20.3c0,1.1-0.6,2.5-1.4,3.4
			c-3.8,3-7.7,5.9-11.6,8.9c-1.7,1.3-3.4,2.6-5.1,3.9c-2.3,1.8-3.9,3.8-3.7,6.4c0,1.4,0.3,2.7,1.1,3.9c1.9,2.8,6,4.3,9.7,3.2
			c0.8-0.2,1.7-0.6,2.5-1.1v50.2c0,0.2,0,0.5,0.1,0.7h-5.4v9.4H-348V21h-5.4c0-0.2,0.1-0.5,0.1-0.7v-50.2c0.8,0.5,1.6,0.8,2.5,1.1
			c3.7,1.1,7.7-0.4,9.7-3.2c0.8-1.2,1.2-2.5,1.1-3.9C-339.9-38.4-341.4-40.5-343.7-42.3z M-465.9,21c0-0.2,0.1-0.5,0.1-0.7v-39.6
			c0,0,0,0,0,0v-17.9c0-0.3,0.1-0.5,0.1-0.8c15.8-12.1,31.6-24.1,47.3-36.2l1.6-1.2c0.7-0.4,1.3-0.6,1.9-0.6
			c0.6,0.1,1.2,0.2,1.8,0.6l1.6,1.2c15.7,12.1,31.5,24.2,47.3,36.2c0,0.3,0.1,0.5,0.1,0.8v17.9c0,0,0,0,0,0v39.6
			c0,0.2,0,0.5,0.1,0.7L-465.9,21L-465.9,21z"/>
	</g>
</g>
<g id="chart">
	<path d="M-422.2-12.4c0-1.6,1-2.7,2.7-2.7c2.4,0,4.7,0,7.1,0c1.6,0,2.7,1,2.7,2.7c0,8.2,0,16.3,0,24.5c0,1.7-1,2.7-2.7,2.7
		c-2.3,0-4.6,0-6.9,0c-1.8,0-2.8-1-2.8-2.9c0-4,0-8,0-12C-422.2-4.2-422.2-8.3-422.2-12.4z"/>
	<path d="M-402.8-24.8c0-1.6,1-2.7,2.7-2.7c2.4,0,4.7,0,7.1,0c1.6,0,2.7,1,2.7,2.7c0,8.2,0.2,28.7,0.2,36.9c0,1.7-1,2.7-2.7,2.7
		c-2.3,0-4.6,0-6.9,0c-1.8,0-2.8-1-2.8-2.9c0-4,0-8,0-12C-402.7-4.2-402.8-20.7-402.8-24.8z"/>
	<path d="M-441.7,6c0-2,0-3.9,0-5.9c0-1.7,1-2.7,2.7-2.7c2.3,0,4.7,0,7,0c1.7,0,2.7,1,2.7,2.7c0,4,0,7.9,0,11.9c0,1.7-1,2.7-2.8,2.7
		c-2.3,0-4.6,0-6.9,0c-1.8,0-2.8-1-2.8-2.8C-441.7,10-441.7,8-441.7,6z"/>
</g>
<g id="arrow">
	<path d="M-400.8-54.5l3.1,19.1c0,0.3,0,0.6-0.1,0.8c0,0,0,0,0,0c0,0.1,0,0.2,0.1,0.3c-0.1,0-0.1-0.1-0.2-0.1
		c-0.4,0.7-1.4,1-2.2,0.5l-4.1-3.4c-0.4-0.2-0.8-0.3-1.1-0.5c-6,15.9-28.4,29.5-39.4,25.8c-0.8-0.3-0.8-1.5,0.1-1.7
		c16.5-3.1,28.9-17.6,31.4-27.3l-6-0.2c-1.3-0.2-1.8-1.9-0.8-2.8l0.6-0.5l7.7-6.2l6.8-5.5C-403.4-57.2-401.1-56.4-400.8-54.5z"/>
</g>
</svg>
