<?xml version="1.0" encoding="utf-8"?>
<!-- Generator: Adobe Illustrator 19.2.1, SVG Export Plug-In . SVG Version: 6.00 Build 0)  -->
<svg version="1.1" id="Camada_1" xmlns="http://www.w3.org/2000/svg" xmlns:xlink="http://www.w3.org/1999/xlink" x="0px" y="0px"
	 width="150px" height="150px" viewBox="0 0 150 150" style="enable-background:new 0 0 150 150;" xml:space="preserve">
<g>
	<g>
		<path d="M86.7,23.8H63c-8.7,0-16.6,5.4-19.8,13.5l-9.1,23.1h81.7l-9.4-23.3C103.1,29,95.4,23.8,86.7,23.8z M43.8,53.8l5.6-14.1
			c2.1-5.5,7.6-9.3,13.6-9.3h23.6c6,0,11.3,3.6,13.5,9.1l5.8,14.3H43.8z"/>
		<path d="M150,74.6c-0.3-10.7-8.6-19.7-19.2-20.8l-10.5-26.1c-4.6-11.4-15.6-18.8-27.9-18.8H57.1c-12.4,0-23.4,7.5-28,19.1L19,53.7
			C8.3,54.8,0,63.8,0,74.7v18.2c0,10.4,7.8,19.2,17.9,20.8v6.1c0,11.7,9.5,21.2,21.2,21.2c11.7,0,21.3-9.5,21.3-21.2v-6h29.1v6
			c0,11.7,9.5,21.2,21.3,21.2s21.3-9.5,21.3-21.2v-6.1c10.2-1.5,17.9-10.4,17.9-20.8L150,74.6z M110.8,134.4
			c-8.1,0-14.6-6.5-14.6-14.5v-12.5H53.7v12.5c0,8-6.6,14.5-14.6,14.5c-8,0-14.5-6.5-14.5-14.5v-12.5h-3.5
			c-7.9,0-14.4-6.5-14.4-14.4V74.6c0-7.9,6.5-14.4,14.4-14.4h2.5l11.5-29.8c3.6-9,12.2-14.9,21.9-14.9h35.3
			c9.6,0,18.2,5.8,21.8,14.7l12.2,30.1h2.5c7.8,0,14.3,6.4,14.6,14.3v18.2c0,7.9-6.5,14.4-14.4,14.4h-3.5v12.5
			C125.4,127.9,118.8,134.4,110.8,134.4z"/>
	</g>
	<g>
		<path d="M29.2,72c-6.1,0-11,4.9-11,11c0,6.1,4.9,11,11,11c6,0,10.9-4.8,11-11C40.2,77,35.3,72,29.2,72z"/>
		<path d="M120.8,72c-6.1,0-11,4.9-11,11c0,6.1,4.9,11,11,11c6.1,0,11-4.9,11-11C131.8,77,126.8,72,120.8,72z"/>
	</g>
</g>
</svg>
