<?xml version="1.0" encoding="utf-8"?>
<!-- Generator: Adobe Illustrator 19.0.0, SVG Export Plug-In . SVG Version: 6.00 Build 0)  -->
<svg version="1.1" xmlns="http://www.w3.org/2000/svg" xmlns:xlink="http://www.w3.org/1999/xlink" x="0px" y="0px" width="150px"
	 height="150px" viewBox="0 0 150 150" enable-background="new 0 0 150 150" xml:space="preserve">
<g id="carro">
	<g id="XMLID_2_">
		<path id="XMLID_11_" d="M111.5,141.5c-11.1,0-20.2-9-20.2-20.1v-7.6H58.6v7.6c0,11.1-9.1,20.1-20.2,20.1c-11.1,0-20.1-9-20.1-20.1
			v-7.6C8.1,112.9,0,104.3,0,93.9V75.3c0-10.7,8.4-19.4,18.9-20l10.6-27.1C34,17,44.6,9.7,56.7,9.7h36c11.9,0,22.6,7.1,27.1,18.2
			l11.1,27.5c10.3,0.6,18.8,9.2,19.1,19.8l0,18.7c0,10.5-8.1,19.1-18.3,19.9v7.6C131.7,132.5,122.6,141.5,111.5,141.5z M54.8,110.1
			h40.3v11.3c0,9,7.4,16.3,16.4,16.3s16.4-7.3,16.4-16.3v-11.3h2.1c9,0,16.2-7.3,16.2-16.2V75.3c-0.3-8.9-7.6-16.1-16.4-16.1h-1.5
			l-12.1-29.8c-3.9-9.6-13.2-15.9-23.6-15.9h-36c-10.5,0-19.8,6.3-23.7,16.1L21.5,59H20c-9,0-16.2,7.3-16.2,16.2v18.6
			c0,9,7.3,16.2,16.2,16.2h2.1v11.3c0,9,7.3,16.3,16.3,16.3c9.1,0,16.4-7.3,16.4-16.3V110.1z M114.4,59.2H35.5L44,37.7
			c3-7.6,10.5-12.8,18.8-12.8h24.1c8.2,0,15.6,4.9,18.7,12.6L114.4,59.2z M41,55.5h67.8l-6.7-16.6c-2.5-6.2-8.5-10.2-15.2-10.2H62.8
			c-6.7,0-12.9,4.2-15.3,10.4L41,55.5z"/>
	</g>
</g>
<g id="farol">
	<g id="XMLID_1_">
		<path id="XMLID_7_" stroke="#000000" stroke-width="3.8181" stroke-miterlimit="10" d="M28.3,93.1c-5.2,0-9.3-4.2-9.3-9.3
			c0-5.2,4.2-9.3,9.3-9.3s9.3,4.2,9.3,9.3C37.5,88.9,33.5,93.1,28.3,93.1z"/>
		<path id="XMLID_4_" stroke="#000000" stroke-width="3.8181" stroke-miterlimit="10" d="M121.7,93.1c-5.2,0-9.3-4.2-9.3-9.3
			c0-5.2,4.2-9.3,9.3-9.3c5.2,0,9.3,4.2,9.3,9.3C131,88.9,126.9,93.1,121.7,93.1z"/>
	</g>
</g>
</svg>
