<?xml version="1.0" encoding="utf-8"?>
<!-- Generator: Adobe Illustrator 19.2.1, SVG Export Plug-In . SVG Version: 6.00 Build 0)  -->
<svg version="1.1" id="Camada_1" xmlns="http://www.w3.org/2000/svg" xmlns:xlink="http://www.w3.org/1999/xlink" x="0px" y="0px"
	 width="150px" height="150px" viewBox="0 0 150 150" style="enable-background:new 0 0 150 150;" xml:space="preserve">
<path d="M143.8,113.1L120.7,90c-5-4.9-11.7-7-18.6-5.9L78.7,60.7l1.5-1.5c2.4-2.3,3.8-5.5,3.8-8.9c0,0,0.1,0,0.1,0
	c3.4,0,6.8-1.5,9.2-4.1c4.6-4.8,4.3-12.8-0.6-17.8L68.1,3.8c-2.5-2.4-5.9-3.8-9.4-3.8c-3.4,0-6.5,1.3-8.8,3.5
	c-2.5,2.5-3.9,5.4-4,8.2c-3,0.3-6,1.8-8.6,4.4L16,37.7l-0.1,0.1c-1.6,1.6-4.5,4.5-4.5,8.4c-2.8,0.2-5.5,1.5-7.6,3.6
	C1.3,52.1,0,55.3,0,58.6c0,3.4,1.3,6.6,3.7,9l25.2,25.2c4.8,4.8,12.4,5,17.4,0.5c2.6-2.4,4.1-5.3,4.2-8.5c3.8,0.1,6.5-2.1,8.5-4.1
	l1.9-1.9l23.4,23.4c-1,6.9,1.2,13.8,6,18.6l22.6,22.6c4.2,4.2,10,6.6,15.9,6.6c5.8,0,11-2.2,14.7-6.2c4.2-4,6.6-9.6,6.6-15.4
	C150.1,122.7,147.9,117.3,143.8,113.1z M60.9,68.3l-7.2,7.3c-2.1,2.1-2.8,2.5-5.3,1.2c-1.6-0.9-3.6-0.7-4.9,0.6
	c-1.3,1.3-1.6,3.3-0.9,4.7c1,2.3,0.7,4.1-1.2,5.9c-2,1.8-5.2,1.7-7.2-0.3L8.8,62.5c-2.1-2.1-2.1-5.3,0-7.4c1.4-1.4,3.6-1.9,5.6-1
	c1.7,0.6,3.6,0.1,4.6-1.2c1.2-1.4,1.3-3.3,0.2-4.9c-0.9-1.3-1.3-1.9,1.8-5.1l21.5-21.5c1.6-1.7,4.1-3.1,6.1-1.8
	c1.5,1,3.6,0.8,4.9-0.5c1.3-1.3,1.5-3.2,0.5-4.9c-0.8-1.1-1.5-2.9,1.1-5.5c0.8-0.8,2.2-1.4,3.5-1.4c1.6,0,3.1,0.6,4.2,1.8l24.7,24.7
	c2.1,2.1,2.3,5.6,0.5,7.6c-1.7,1.8-4.2,2.2-6.2,1.2c-1.6-0.8-3.6-0.5-4.8,0.8c-1.2,1.2-1.6,3.2-0.8,4.8c1,2,0.6,4.4-1,6l-6.7,6.7
	L100,92.3l2-0.5c5.1-1.3,10.2,0.1,13.7,3.6l23,23c2.7,2.7,4.1,6.3,4.1,10.1c-0.1,3.8-1.7,7.4-4.4,10.2c-5.5,5.4-14.6,5.1-20.4-0.6
	l-22.6-22.6c-3.5-3.5-4.9-8.7-3.6-13.7l0.5-2L60.9,68.3z"/>
</svg>
