<?xml version="1.0" encoding="utf-8"?>
<!-- Generator: Adobe Illustrator 19.0.0, SVG Export Plug-In . SVG Version: 6.00 Build 0)  -->
<svg version="1.1" id="Camada_1" xmlns="http://www.w3.org/2000/svg" xmlns:xlink="http://www.w3.org/1999/xlink" x="0px" y="0px"
	 width="150px" height="150px" viewBox="0 0 150 150" enable-background="new 0 0 150 150" xml:space="preserve">
<g id="XMLID_11_">
	<path fill="#222221" d="M128.9,148.9c-5.3,0-10.8-2.1-14.9-6.2L91.3,120c-4.7-4.7-6.7-11.6-5.5-18.2L60.7,76.7l-3,3
		c-2.3,2.4-5,4.4-9,3.5c0.4,3.3-0.8,6.5-3.7,9.1c-4.4,4-11.1,3.9-15.4-0.4L4.3,66.6c-4.4-4.4-4.4-11.5,0-15.8
		c2.2-2.2,5.1-3.4,8.2-3.2c-0.8-4.2,2.4-7.3,4.1-9L38,17c2.8-2.8,6.1-4.2,9.2-4c-0.4-3,0.8-6,3.5-8.7c2-2,4.8-3.1,7.8-3.1
		c0,0,0,0,0,0c3.2,0,6.2,1.3,8.4,3.4l24.7,24.7c4.4,4.4,4.7,11.5,0.6,15.8c-2.6,2.8-6.3,4.1-9.9,3.5c0.5,3.4-0.6,7-3.2,9.5l-2.6,2.6
		l25.1,25.1c6.7-1.3,13.4,0.7,18.2,5.4l23.2,23.2c3.8,3.9,5.9,9,5.8,14.3c0,5.4-2.2,10.6-6.2,14.4C139,147,134,148.9,128.9,148.9z
		 M60.7,70.4l30,30l-0.3,1.2c-1.4,5.5,0.1,11.3,4,15.2l22.7,22.7c6.3,6.3,16.5,6.6,22.6,0.6c3.1-3.1,4.8-7.1,4.9-11.3
		c0-4.2-1.6-8.2-4.6-11.2l-23.1-23.1c-3.9-3.9-9.6-5.4-15.2-4l-1.2,0.3l-30-30l5.7-5.7c2.1-2.1,2.6-5.2,1.3-7.8
		c-0.5-1-0.3-2.3,0.5-3.1c0.8-0.8,2.1-1,3.1-0.5c2.7,1.4,5.9,0.7,8-1.5c2.4-2.6,2.2-7-0.5-9.7L63.8,7.7c-1.4-1.4-3.3-2.2-5.3-2.2
		c0,0,0,0,0,0c-1.8,0-3.5,0.7-4.6,1.8c-2.5,2.5-2.9,5-1.3,7.4c0.6,1,0.5,2.2-0.3,3c-0.8,0.8-2.1,0.9-3,0.3c-2.7-1.8-6-0.2-8.1,2
		L19.6,41.6c-3.2,3.2-3.6,4.7-2,7c0.7,1,0.7,2.2-0.1,3.1c-0.7,0.9-1.9,1.2-3,0.8c-2.5-1-5.3-0.5-7.2,1.4c-2.7,2.7-2.7,6.9,0,9.6
		l25.4,25.4c2.5,2.5,6.7,2.7,9.3,0.3c2.4-2.2,2.9-4.7,1.6-7.6c-0.5-1-0.2-2.3,0.6-3.1c0.8-0.8,2.1-1,3.1-0.4
		c3.3,1.7,4.7,1.1,7.2-1.4L60.7,70.4z"/>
</g>
</svg>
