<?xml version="1.0" encoding="utf-8"?>
<!-- Generator: Adobe Illustrator 19.0.0, SVG Export Plug-In . SVG Version: 6.00 Build 0)  -->
<svg version="1.1" id="Camada_1" xmlns="http://www.w3.org/2000/svg" xmlns:xlink="http://www.w3.org/1999/xlink" x="0px" y="0px"
	 width="150px" height="150px" viewBox="0 0 150 150" enable-background="new 0 0 150 150" xml:space="preserve">
<g id="XMLID_13_">
	<path fill="#040506" d="M109.6,137.8c-10.5,0-19.1-8.6-19.1-19.2v-9.1c0-4.4-1.8-8.6-5.1-11.6c-3.3-3-7.5-4.4-12-4
		c-7.9,0.6-14.3,8.1-14.3,16.8v7.9c0,10.5-8.5,19-19,19c-10.5,0-19.1-8.5-19.1-19v-42H0.6l61-50c7.9-7.8,20.6-7.8,28.5,0l0.5,0.4v0
		c0-8.2,6.7-14.9,14.9-14.9s14.9,6.7,14.9,14.9v25.1l28.7,24.6h-20.4v41.9C128.7,129.2,120.1,137.8,109.6,137.8z M74.9,90.2
		c4.8,0,9.4,1.8,13,5c4,3.6,6.2,8.8,6.2,14.2v9.1c0,8.6,7,15.6,15.5,15.6s15.5-7,15.5-15.6V73.1h14.4l-22.7-19.4V27
		c0-6.2-5.1-11.3-11.3-11.3S94.2,20.8,94.2,27v7.8l-6.5-5.6c-6.5-6.5-17.1-6.5-23.6,0l-0.1,0.1L10.6,73h14.1v45.6
		c0,8.5,7,15.4,15.5,15.4c8.5,0,15.4-6.9,15.4-15.4v-7.9c0-10.7,7.7-19.6,17.5-20.4C73.7,90.3,74.3,90.2,74.9,90.2z"/>
</g>
</svg>
