<?xml version="1.0" encoding="utf-8"?>
<!-- Generator: Adobe Illustrator 19.2.1, SVG Export Plug-In . SVG Version: 6.00 Build 0)  -->
<svg version="1.1" id="Camada_1" xmlns="http://www.w3.org/2000/svg" xmlns:xlink="http://www.w3.org/1999/xlink" x="0px" y="0px"
	 width="150px" height="150px" viewBox="0 0 150 150" style="enable-background:new 0 0 150 150;" xml:space="preserve">
<path d="M119.8,52.6V29.9c0-8.8-7.1-15.9-15.9-15.9c-7.5,0-13.8,5.2-15.5,12.2c-8.1-6-19.7-5.3-27.1,1.9L0,78.4h22.6V116
	c0,10.9,8.9,19.7,19.8,19.7c10.9,0,19.7-8.9,19.7-19.7v-7.4c0-7.2,5.3-13.4,11.7-13.9c3.7-0.3,7.1,0.8,9.9,3.3
	c2.7,2.4,4.2,5.9,4.2,9.5v8.6c0,11,8.9,19.9,19.8,19.9s19.8-8.9,19.8-19.9V78.5H150L119.8,52.6z M88.6,92.6
	c-3.8-3.3-8.5-5.2-13.5-5.2c-0.3,0-0.7,0-1,0.1c-0.2,0-0.5,0-0.7,0l-0.2,0c-10.2,0.8-18.2,10.1-18.2,21.1v7.4
	c0,6.9-5.7,12.6-12.6,12.6c-7,0-12.7-5.7-12.7-12.6V71.3h-9.9l46.1-37.8l0.2-0.2c5.4-5.4,14.1-5.4,19.5,0l9.3,8V29.9
	c0-4.8,3.9-8.7,8.7-8.7c4.8,0,8.7,3.9,8.7,8.7v26l18.1,15.5h-10.3V116c0,7.1-5.7,12.8-12.7,12.8S95.1,123,95.1,116v-8.6
	C95.1,101.7,92.7,96.3,88.6,92.6z"/>
</svg>
