<?xml version="1.0" encoding="utf-8"?>
<!-- Generator: Adobe Illustrator 19.2.1, SVG Export Plug-In . SVG Version: 6.00 Build 0)  -->
<svg version="1.1" id="Camada_1" xmlns="http://www.w3.org/2000/svg" xmlns:xlink="http://www.w3.org/1999/xlink" x="0px" y="0px"
	 width="150px" height="150px" viewBox="0 0 150 150" style="enable-background:new 0 0 150 150;" xml:space="preserve">
<style type="text/css">
	.st0{fill:#040506;}
</style>
<g>
	<path class="st0" d="M103.5,44.4l9.3-29.4c1-3.5,0.4-7-1.6-9.7c-2.5-3.4-6.7-5.2-11.6-5.1c-4.8,0-9.6,1.8-12.8,4.8
		c-0.9-1-2-1.8-3.2-2.6c-2.8-1.6-5.8-2.3-9-2.3c-4.8,0-9.2,1.8-12.1,4.8C59.4,2,54.9,0.3,50.2,0.3c-5.1,0.1-9.4,2.1-11.6,5.3
		c-2,2.7-2.5,6.1-1.5,9.6l5.8,18.3l3.4,10.6c-11.2,1.8-21.6,7.1-29.6,15C6.6,69.1,1,82.5,1,96.8C1,126.1,24.9,150,54.3,150h41.5
		c14.2,0,27.6-5.5,37.6-15.4C143.4,124.5,149,111.1,149,97C149,70.5,129.6,48.2,103.5,44.4z M106.2,12.6L94.5,50.1l4.3,0.3
		c24.3,1.7,43.3,22.1,43.3,46.4c0,12.2-4.8,23.8-13.6,32.7c-8.7,8.8-20.3,13.6-32.7,13.6H54.4c-25.6,0-46.5-20.8-46.5-46.5
		c0-12.3,4.9-24.2,13.6-32.7c8-8,18.5-12.7,29.6-13.5l4.2-0.3l-11.5-37c-0.4-1.4-0.2-2.6,0.5-3.6c1.1-1.6,3.3-2.5,6-2.5
		c3.9,0,7.9,2.1,9.6,5l1.2,1.6h1.8c0.3,0,0.6,0,0.9-0.1h1.9l0.7-2.1c1-2.7,4.4-4.5,8.2-4.5c2,0,4,0.4,5.5,1.3c1.3,0.8,2.4,2,2.9,3.2
		l0.5,1.2l1.1,0.5l0.4,0.1c0.2,0.1,0.4,0.1,0.6,0.2l2.6,1l1.5-2.7c1.6-3,5.6-5.1,9.9-5.1c2.6,0,4.8,0.9,6,2.5
		C106.6,10.2,106.5,11.7,106.2,12.6z"/>
	<path class="st0" d="M77.6,88.1C71,86,69,84.6,69,82.7c0-1.8,2.1-3.4,6.5-3.4c5,0,7.9,1.4,9.4,2c0.3,0.1,0.6,0.2,0.9,0.2
		c0.8,0,1.6-0.5,1.9-1.2l2-4.3c0.3-0.5,0.3-1.1,0.1-1.6s-0.6-1-1.1-1.2c-2.5-1.2-5.1-1.9-8.1-2.3l-1.2-0.2v-4.3
		c0-1.2-0.9-2.1-2.1-2.1h-5.1c-1.2,0-2.1,0.9-2.1,2.1v4.8L69,71.5c-6.9,1.8-11.1,6.2-11.1,12c0,8.6,10,11.9,14.8,13.3
		c6.8,2.2,7.6,4.1,7.6,5.7c0,2.5-3.1,4.2-7.5,4.2c-3.8,0-7.6-1-10.7-2.5c-0.3-0.1-0.7-0.2-1-0.2c-0.2,0-0.5,0-0.7,0.1
		c-0.5,0.3-1,0.7-1.2,1.2l-1.9,4.4c-0.4,1.1,0,2.3,0.9,2.7c2.5,1.6,6.2,2.5,10.1,3l1.2,0.2v4.5c0,1.2,0.9,2.1,2.1,2.1h5.1
		c1.2,0,2.1-0.9,2.1-2.1v-4.9l1.1-0.2c8.7-2.3,11.8-8.1,11.8-12.9C91.6,93.8,84.5,90.4,77.6,88.1z"/>
</g>
</svg>
