<?xml version="1.0" encoding="utf-8"?>
<!-- Generator: Adobe Illustrator 19.0.0, SVG Export Plug-In . SVG Version: 6.00 Build 0)  -->
<svg version="1.1" id="Camada_1" xmlns="http://www.w3.org/2000/svg" xmlns:xlink="http://www.w3.org/1999/xlink" x="0px" y="0px"
	 width="150px" height="150px" viewBox="0 0 150 150" enable-background="new 0 0 150 150" xml:space="preserve">
<g>
	<g id="bag">
		<g id="XMLID_6_">
			<g id="XMLID_14_">
				<path d="M96.2,150H53.9c-29.1,0-52.8-23.7-52.8-52.8c0-14.2,5.5-27.4,15.5-37.4C25,51.5,36,46.2,47.7,44.7l-4-12.5l-5.9-18.7
					c-0.9-3-0.5-6,1.3-8.4c2.1-3,6-4.7,10.7-4.8c4.9,0,9.7,2,12.7,5.3C65,2.1,69.6,0,74.7,0c3.1,0,5.9,0.8,8.4,2.2
					c1.5,0.9,2.9,2.1,3.9,3.6C90,2.3,95,0.1,100.2,0.1c4.5-0.1,8.4,1.6,10.6,4.6c1.8,2.4,2.3,5.5,1.4,8.6l-10,31.7
					C128.6,48,149,70.6,149,97.4c0,14.1-5.5,27.3-15.5,37.3C123.5,144.6,110.3,150,96.2,150z M49.8,4.2c-3.4,0-6,1.2-7.4,3.2
					c-1,1.4-1.2,3.1-0.7,4.9l7.7,24.7l3.5,11.3l-2.4,0.2c-11.7,0.8-22.7,5.9-31.1,14.2C10.2,71.7,5.1,84.1,5.1,97.1
					C5.1,124,27,146,54,146h42.3c13,0,25.3-5.1,34.4-14.3S145,110.3,145,97.3c0-25.6-20.1-47-45.6-48.8l-2.5-0.2l11.4-36.5
					c0.5-1.8,0.3-3.6-0.8-5c-1.4-1.9-4.1-3.1-7.3-3.1c-4.8,0-9.5,2.4-11.4,6l-0.9,1.6l-1.6-0.6c-0.2,0-0.4-0.1-0.7-0.2l-0.6-0.3
					l-0.3-0.7c-0.6-1.5-1.9-3-3.6-4C79.2,4.5,77,4,74.7,4c-4.6,0-8.6,2.3-9.8,5.6l-0.4,1.2h-1.1c-0.2,0.1-0.4,0.1-0.7,0.1h-1.1
					L60.9,10C58.9,6.6,54.3,4.2,49.8,4.2z"/>
			</g>
		</g>
	</g>
	<g id="valor">
		<g id="XMLID_3_">
			<path fill="#040506" d="M80,115.8l-1.1,0.2v5c0,1.2-0.9,2.1-2.1,2.1h-5.2c-1.2,0-2.1-0.9-2.1-2.1v-4.6l-1.2-0.2
				c-4-0.5-7.7-1.5-10.3-3.1c-0.9-0.5-1.3-1.7-0.9-2.8l1.9-4.5c0.2-0.5,0.7-0.9,1.2-1.2c0.2-0.1,0.5-0.1,0.7-0.1
				c0.3,0,0.7,0.1,1,0.2c3.1,1.6,7,2.6,10.9,2.6c4.5,0,7.7-1.7,7.7-4.3c0-1.6-0.9-3.6-7.8-5.8c-4.9-1.5-15.1-4.8-15.1-13.6
				c0-5.9,4.3-10.4,11.3-12.2l1.1-0.2v-4.9c0-1.2,0.9-2.1,2.1-2.1h5.2c1.2,0,2.1,0.9,2.1,2.1v4.4l1.2,0.2c3.1,0.4,5.7,1.1,8.3,2.3
				c0.5,0.2,0.9,0.7,1.1,1.2c0.2,0.5,0.2,1.1-0.1,1.6l-2,4.4c-0.3,0.7-1.1,1.2-1.9,1.2c-0.3,0-0.6-0.1-0.9-0.2c-1.5-0.6-4.5-2-9.6-2
				c-4.5,0-6.6,1.7-6.6,3.5c0,1.9,2.1,3.3,8.8,5.5c7,2.3,14.3,5.8,14.3,14.2C92,107.5,88.9,113.5,80,115.8z"/>
		</g>
	</g>
</g>
</svg>
