<?xml version="1.0" encoding="utf-8"?>
<!-- Generator: Adobe Illustrator 19.2.1, SVG Export Plug-In . SVG Version: 6.00 Build 0)  -->
<svg version="1.1" id="Camada_1" xmlns="http://www.w3.org/2000/svg" xmlns:xlink="http://www.w3.org/1999/xlink" x="0px" y="0px"
	 width="150px" height="150px" viewBox="0 0 150 150" style="enable-background:new 0 0 150 150;" xml:space="preserve">
<g>
	<path d="M75.3,78.6c21.6,0,39.2-17.6,39.2-39.2S96.9,0.2,75.3,0.2S36.1,17.8,36.1,39.4S53.7,78.6,75.3,78.6z M43.3,39.4
		c0-17.6,14.3-31.9,32-31.9c17.5,0,31.8,14.3,31.8,31.9c0,17.6-14.3,31.9-31.9,31.9S43.3,57,43.3,39.4z"/>
	<path d="M149.8,146.1c-0.1-32.6-21.1-61.2-52.2-71.1l-1.5-0.5l-1.4,0.7c-6.1,3.3-12.7,5-19.6,5c-7,0-13.6-1.7-19.9-5.2L54,74.4
		l-1.4,0.3l-0.1,0C21.3,84.6,0.2,113.3,0,146v3.7h150L149.8,146.1z M7.4,142.5C9,114.6,26.9,91.1,53.4,82.2c7,3.5,14.3,5.3,21.9,5.3
		c7.7,0,14.9-1.7,21.5-5.2c26.3,9,44,32.4,45.6,60.1H7.4z"/>
</g>
</svg>
