<?xml version="1.0" encoding="utf-8"?>
<!-- Generator: Adobe Illustrator 19.0.0, SVG Export Plug-In . SVG Version: 6.00 Build 0)  -->
<svg version="1.1" id="Camada_1" xmlns="http://www.w3.org/2000/svg" xmlns:xlink="http://www.w3.org/1999/xlink" x="0px" y="0px"
	 width="150px" height="150px" viewBox="0 0 150 150" enable-background="new 0 0 150 150" xml:space="preserve">
<g>
	<g id="XMLID_12_">
		<path fill="#222221" d="M149.5,149.3H0.5V147C0.7,114.4,21.7,86,52.7,76.2l0.9-0.2l0.8,0.4c6.5,3.6,13.6,5.4,20.8,5.4
			c7.3,0,14.2-1.8,20.6-5.3l0.8-0.4l0.9,0.3c30.9,9.9,51.8,38.2,51.9,70.7L149.5,149.3z M4.9,144.9H145c-1-29.4-19.9-54.8-47.9-64.1
			c-6.7,3.6-14,5.4-21.7,5.4s-15.2-1.9-22.1-5.5C25.1,89.9,6,115.4,4.9,144.9z M75.3,77.1c-21.1,0-38.2-17.1-38.2-38.2
			s17-38.2,38.2-38.2c21.1,0,38.2,17.1,38.2,38.2S96.4,77.1,75.3,77.1z M75.3,5.1c-18.7,0-33.9,15.1-33.9,33.8s15.2,33.8,33.8,33.8
			c18.7,0,33.8-15.2,33.8-33.8S93.9,5.1,75.3,5.1z"/>
	</g>
</g>
</svg>
