<?xml version="1.0" encoding="utf-8"?>
<!-- Generator: Adobe Illustrator 19.0.0, SVG Export Plug-In . SVG Version: 6.00 Build 0)  -->
<svg version="1.1" id="Camada_1" xmlns="http://www.w3.org/2000/svg" xmlns:xlink="http://www.w3.org/1999/xlink" x="0px" y="0px"
	 viewBox="-530 206 150 150" style="enable-background:new -530 206 150 150;" xml:space="preserve">
<g>
	<path d="M-393.6,233.6h-27.3v-6.8c0-11.5-8.9-20.3-20.5-20.3h-27.3c-11.6,0-20.5,8.8-20.5,20.3v6.8h-27.3c-4.1,0-6.8,2.7-6.8,6.8
		s2.7,6.8,6.8,6.8h6.8v88c0,11.5,8.9,20.3,20.5,20.3h68.2c11.6,0,20.5-8.8,20.5-20.3v-88h6.8c4.1,0,6.8-2.7,6.8-6.8
		S-389.5,233.6-393.6,233.6z M-475.5,226.8c0-4.1,2.7-6.8,6.8-6.8h27.3c4.1,0,6.8,2.7,6.8,6.8v6.8h-40.9V226.8z M-414.1,335.2
		c0,4.1-2.7,6.8-6.8,6.8h-68.2c-4.1,0-6.8-2.7-6.8-6.8v-88h81.8V335.2z"/>
	<g>
		<path d="M-468.6,321.6c-4.1,0-6.8-2.7-6.8-6.8v-40.6c0-4.1,2.7-6.8,6.8-6.8c4.1,0,6.8,2.7,6.8,6.8v40.6
			C-461.8,318.9-464.5,321.6-468.6,321.6z"/>
	</g>
	<g>
		<path d="M-441.4,321.6c-4.1,0-6.8-2.7-6.8-6.8v-40.6c0-4.1,2.7-6.8,6.8-6.8c4.1,0,6.8,2.7,6.8,6.8v40.6
			C-434.5,318.9-437.3,321.6-441.4,321.6z"/>
	</g>
</g>
</svg>
