<?xml version="1.0" encoding="utf-8"?>
<!-- Generator: Adobe Illustrator 19.2.1, SVG Export Plug-In . SVG Version: 6.00 Build 0)  -->
<svg version="1.1" id="Camada_1" xmlns="http://www.w3.org/2000/svg" xmlns:xlink="http://www.w3.org/1999/xlink" x="0px" y="0px"
	 width="150px" height="141.7px" viewBox="0 0 150 141.7" style="enable-background:new 0 0 150 141.7;" xml:space="preserve">
<g>
	<path d="M141.7,0H8.3C3.3,0,0,3.3,0,8.3s3.3,8.3,8.3,8.3h133.3c5,0,8.3-3.3,8.3-8.3S146.7,0,141.7,0z"/>
	<path d="M116.7,41.7H33.3c-5,0-8.3,3.3-8.3,8.3s3.3,8.3,8.3,8.3h83.3c5,0,8.3-3.3,8.3-8.3S121.7,41.7,116.7,41.7z"/>
	<path d="M91.7,83.3H58.3c-5,0-8.3,3.3-8.3,8.3c0,5,3.3,8.3,8.3,8.3h33.3c5,0,8.3-3.3,8.3-8.3C100,86.7,96.7,83.3,91.7,83.3z"/>
	<circle cx="75" cy="133.3" r="8.3"/>
</g>
</svg>
