<?xml version="1.0" encoding="utf-8"?>
<!-- Generator: Adobe Illustrator 19.0.0, SVG Export Plug-In . SVG Version: 6.00 Build 0)  -->
<svg version="1.1" id="Camada_1" xmlns="http://www.w3.org/2000/svg" xmlns:xlink="http://www.w3.org/1999/xlink" x="0px" y="0px"
	 viewBox="0 0 75.1 89.8" style="enable-background:new 0 0 75.1 89.8;" xml:space="preserve">
<g id="XMLID_2_">
	<path id="XMLID_5_" d="M56,89.8H2.5v-1.4c0-5.9,1.7-11.2,5.2-15.9C11,68,15.5,64.9,21,63.2c0.3-0.1,0.6-0.1,0.8,0
		c1.3,0.4,5.4,1.7,7.4,1.7c2,0,6.5-1.3,7.8-1.7c0.2-0.1,0.5-0.1,0.7,0c5.3,1.7,9.6,4.9,13,9.5c3.4,4.8,5.2,10,5.2,15.7V89.8z
		 M53.1,87c-0.2-4.8-1.8-9.1-4.6-13c-2.5-3.5-5.9-6.1-9.9-7.8c-0.9-0.4-1.8-0.3-2.7,0.1c-2,1-4.2,1.4-6.5,1.3
		c-2.3-0.1-4.6-0.6-6.9-1.5c-0.8-0.3-1.6-0.3-2.4,0c-4,1.7-7.3,4.3-10,7.9c-3,3.9-4.7,8.3-5.2,13H53.1z M22.5,61.6
		c-2.1-1.3-3.9-3-5.2-5.2c-1.3-2.1-2-4.5-2-7c0-2.5,0.7-4.8,2-7c1.3-2.1,3-3.9,5.2-5.2c2.1-1.3,4.5-2,7-2s4.8,0.7,7,2
		c2.1,1.3,3.9,3,5.2,5.2c1.3,2.1,2,4.5,2,7c0,2.5-0.7,4.8-2,7c-1.3,2.1-3,3.9-5.2,5.2c-2.1,1.3-4.5,2-7.1,2
		C26.9,63.6,24.6,62.9,22.5,61.6z M19.4,55.2c1.1,1.8,2.5,3.2,4.3,4.1c1.8,1,3.7,1.4,5.7,1.4c2,0,3.9-0.5,5.7-1.4
		c1.8-0.9,3.1-2.3,4.1-4.1c0.9-1.8,1.4-3.7,1.4-5.7c0-2-0.5-3.9-1.4-5.7c-1-1.8-2.3-3.2-4.1-4.3s-3.7-1.5-5.7-1.4
		c-2,0.1-3.9,0.7-5.7,1.6c-1.8,1-3.2,2.3-4.3,4.1c-1.1,1.8-1.6,3.6-1.6,5.5C17.8,51.5,18.4,53.4,19.4,55.2z"/>
</g>
<g id="XMLID_6_">
	<path id="XMLID_4_" d="M31.6,0.2l-0.2,3C55.5,0.8,73.8,18.5,72,42.8l3-0.3C76.9,16.5,57.4-2.4,31.6,0.2z"/>
	<path id="XMLID_3_" d="M60.2,44c1.3-17.8-12-30.7-29.8-28.9l-0.2,3c16.1-1.6,28.2,10.1,27,26.2L60.2,44z"/>
</g>
</svg>
