<?xml version="1.0" encoding="utf-8"?>
<!-- Generator: Adobe Illustrator 19.0.0, SVG Export Plug-In . SVG Version: 6.00 Build 0)  -->
<svg version="1.1" id="Camada_1" xmlns="http://www.w3.org/2000/svg" xmlns:xlink="http://www.w3.org/1999/xlink" x="0px" y="0px"
	 viewBox="-263 351.6 84.9 90.4" style="enable-background:new -263 351.6 84.9 90.4;" xml:space="preserve">
<g id="XMLID_1_">
	<g id="XMLID_11_">
		<path id="XMLID_12_" d="M-202.8,414.9h-7v18.5c0,2.3-0.8,4.3-2.4,6.1c-1.6,1.7-3.5,2.6-5.9,2.6c-2.3,0-4.3-0.9-6.1-2.6
			c-1.7-1.7-2.6-3.8-2.6-6.1v-5.5c0-1.7-0.7-3.2-2-4.3c-1.3-1.2-2.7-1.7-4.1-1.5c-1.5,0.1-2.7,0.8-3.7,2s-1.5,2.6-1.5,4.3v5
			c0,2.3-0.8,4.3-2.4,6.1c-1.6,1.7-3.6,2.6-6.1,2.6s-4.5-0.9-6.1-2.6c-1.6-1.7-2.4-3.8-2.4-6.1v-18.5h-7c-1,0-1.4-1.2-0.7-1.9
			l24.2-19.8c1.7-1.4,3.7-2.2,5.9-2.4c2.2-0.1,4.1,0.4,5.9,1.5c0.6-1.4,1.4-2.7,2.6-3.7s2.7-1.5,4.6-1.5c1.9,0,3.5,0.7,4.8,2
			c1.3,1.3,2,3,2,5v10l10.7,9C-201.3,413.6-201.8,414.9-202.8,414.9z"/>
	</g>
	<g id="XMLID_6_">
		<path id="XMLID_4_" d="M-221.6,352.1l-0.2,4c24.1-2.4,40.6,14.8,39.6,38.6l4-0.3C-176.3,368.4-195.8,349.5-221.6,352.1z"/>
		<path id="XMLID_3_" d="M-193,395.9c1.3-17.8-12-30.7-29.8-28.9l-0.2,4c14.8-1.9,27.1,9.7,26,25.2L-193,395.9z"/>
	</g>
</g>
</svg>
