<?xml version="1.0" encoding="utf-8"?>
<!-- Generator: Adobe Illustrator 19.0.0, SVG Export Plug-In . SVG Version: 6.00 Build 0)  -->
<svg version="1.1" id="Camada_1" xmlns="http://www.w3.org/2000/svg" xmlns:xlink="http://www.w3.org/1999/xlink" x="0px" y="0px"
	 viewBox="-267 352.2 75.1 89.8" style="enable-background:new -267 352.2 75.1 89.8;" xml:space="preserve">
<g id="XMLID_2_">
	<path id="XMLID_5_" d="M-212.3,442h-53.5v-1.4c0-5.9,1.7-11.2,5.2-15.9c3.3-4.5,7.8-7.6,13.3-9.3c0.3-0.1,0.6-0.1,0.8,0
		c1.3,0.4,5.4,1.7,7.4,1.7s6.5-1.3,7.8-1.7c0.2-0.1,0.5-0.1,0.7,0c5.3,1.7,9.6,4.9,13,9.5c3.4,4.8,5.2,10,5.2,15.7L-212.3,442
		L-212.3,442L-212.3,442z M-245.8,413.8c-2.1-1.3-3.9-3-5.2-5.2c-1.3-2.1-2-4.5-2-7s0.7-4.8,2-7c1.3-2.1,3-3.9,5.2-5.2
		c2.1-1.3,4.5-2,7-2s4.8,0.7,7,2c2.1,1.3,3.9,3,5.2,5.2c1.3,2.1,2,4.5,2,7s-0.7,4.8-2,7c-1.3,2.1-3,3.9-5.2,5.2
		c-2.1,1.3-4.5,2-7.1,2C-241.4,415.8-243.7,415.1-245.8,413.8z"/>
</g>
<g id="XMLID_6_">
	<path id="XMLID_4_" d="M-235.4,352.4l-0.2,4c24.1-2.4,40.6,14.8,39.6,38.6l4-0.3C-190.1,368.7-209.6,349.8-235.4,352.4z"/>
	<path id="XMLID_3_" d="M-206.8,396.2c1.3-17.8-12-30.7-29.8-28.9l-0.2,4c14.8-1.9,27.1,9.7,26,25.2L-206.8,396.2z"/>
</g>
</svg>
