<?xml version="1.0" encoding="utf-8"?>
<!-- Generator: Adobe Illustrator 19.0.0, SVG Export Plug-In . SVG Version: 6.00 Build 0)  -->
<svg version="1.1" id="Camada_1" xmlns="http://www.w3.org/2000/svg" xmlns:xlink="http://www.w3.org/1999/xlink" x="0px" y="0px"
	 viewBox="196 330.3 150 133.3" style="enable-background:new 196 330.3 150 133.3;" xml:space="preserve">
<path d="M252.8,440.8c-0.8-1.5-2.1-1.7-2.6-1.7s-1.9,0.2-2.6,1.6l-2,4c-1.7,3.3-6.5,3-7.7-0.5l-4.4-13.1l-2.8,8.3
	c-1.5,4.6-5.8,7.7-10.7,7.7h-3.2c-2.3,0-4.2-1.9-4.2-4.2c0-2.3,1.9-4.2,4.2-4.2h3.2c1.3,0,2.4-0.8,2.8-2l4.7-14.2
	c0.9-2.6,3.2-4.3,5.9-4.3c2.7,0,5.1,1.7,5.9,4.3l3.6,10.8c5.1-4.2,14.1-2.5,17.2,3.7c0.5,1,1.4,1.5,2.4,1.6v-21.4l33.3-33.1V372
	h-35.4c-3.4,0-6.2-2.8-6.2-6.2v-35.4h-52.1c-3.5,0-6.2,2.8-6.2,6.2v120.8c0,3.5,2.8,6.2,6.2,6.2h87.5c3.5,0,6.3-2.8,6.3-6.2V447
	l-33.3,0C258.5,446.9,254.7,444.6,252.8,440.8z M296,362.1c0-1.6-0.7-3.2-1.8-4.4l-25.5-25.5c-1.2-1.2-2.8-1.8-4.4-1.8h-1.6v33.3
	H296V362.1z M271,420.7v18h18l42.1-42.4l-17.7-17.7L271,420.7z M344.1,373.9l-8.3-8.3c-2.6-2.6-6.8-2.6-9.4,0l-7.1,7.1l17.7,17.7
	l7.1-7.1C346.6,380.7,346.6,376.5,344.1,373.9L344.1,373.9z"/>
</svg>
