<?xml version="1.0" encoding="utf-8"?>
<!-- Generator: Adobe Illustrator 16.0.0, SVG Export Plug-In . SVG Version: 6.00 Build 0)  -->
<!DOCTYPE svg PUBLIC "-//W3C//DTD SVG 1.1//EN" "http://www.w3.org/Graphics/SVG/1.1/DTD/svg11.dtd">
<svg version="1.1" id="Layer_1" xmlns="http://www.w3.org/2000/svg" xmlns:xlink="http://www.w3.org/1999/xlink" x="0px" y="0px"
	 width="560.972px" height="640px" viewBox="715.103 0 560.972 640" enable-background="new 715.103 0 560.972 640"
	 xml:space="preserve">
<path d="M1195.344,154.518l0.958,3.227C1196.025,156.65,1195.7,155.577,1195.344,154.518z"/>
<path d="M1244.825,303.786c-6.828-6.826-17.494-14.08-31.574-14.08h-14.08h-87.467h-230.4h-0.667l-0.004-44.795l-0.004-42.233
	c-0.001-15.787,2.664-30.613,8.368-44.161c5.705-13.547,14.451-25.814,26.61-36.482c10.453-10.455,22.718-19.203,36.317-25.338
	s28.532-9.656,44.319-9.658c15.785-0.002,30.612,2.664,44.161,8.369c13.546,5.705,25.814,14.451,36.481,26.609
	c10.454,10.453,18.692,22.959,25.339,36.318c5.274,11.498,8.415,19.193,11.654,27.318l0.042-0.014
	c6.642,15.643,22.104,26.61,40.121,26.61c24.076,0,43.594-19.582,43.594-43.737c0-3.485-0.418-6.871-1.186-10.12l0.039-0.013
	l-0.188-0.635l-0.958-3.227l-0.854-2.872c-2.241-7.145-7.679-21.216-10.257-26.958c-10.858-24.188-25.856-44.491-45.059-65.396
	c-19.203-19.198-41.072-34.022-65.125-44.046C1049.995,5.221,1023.755-0.003,995.808,0c-27.947,0.003-53.334,5.232-76.958,15.262
	c-23.626,10.029-45.49,24.857-66.396,44.06c-19.199,19.202-34.022,41.07-44.046,65.124c-10.024,24.055-15.249,50.295-15.245,78.242
	l0.004,43.733l0.006,43.286h-13.415c-10.667,0-20.907,3.414-31.573,14.08c-6.826,6.827-14.08,17.493-14.08,31.573v258.987
	c0,10.666,3.414,20.906,14.08,31.573c6.826,6.826,17.493,14.08,31.573,14.08h433.493c10.666,0,20.906-3.414,31.574-14.08
	c6.826-6.827,14.08-17.493,14.08-31.573V335.359C1255.491,321.279,1251.651,311.04,1244.825,303.786z"/>
</svg>
