<?xml version="1.0" encoding="utf-8"?>
<!-- Generator: Adobe Illustrator 16.0.0, SVG Export Plug-In . SVG Version: 6.00 Build 0)  -->
<!DOCTYPE svg PUBLIC "-//W3C//DTD SVG 1.1//EN" "http://www.w3.org/Graphics/SVG/1.1/DTD/svg11.dtd">
<svg version="1.1" id="Camada_1" xmlns="http://www.w3.org/2000/svg" xmlns:xlink="http://www.w3.org/1999/xlink" x="0px" y="0px"
	 width="18.074px" height="18.134px" viewBox="0 0 18.074 18.134" enable-background="new 0 0 18.074 18.134" xml:space="preserve">
<g id="XMLID_28_">
	<g id="XMLID_139_">
		<path id="XMLID_140_" d="M17.357,5.537c0.478,1.117,0.717,2.292,0.717,3.524c0,1.232-0.239,2.408-0.717,3.531
			c-0.479,1.122-1.12,2.086-1.924,2.895c-0.805,0.808-1.766,1.452-2.883,1.931c-1.119,0.478-2.289,0.717-3.512,0.717
			c-1.224,0-2.396-0.239-3.513-0.717c-1.118-0.479-2.079-1.123-2.883-1.931c-0.804-0.808-1.445-1.772-1.924-2.895
			C0.239,11.469,0,10.293,0,9.061C0,7.83,0.239,6.654,0.718,5.537c0.479-1.118,1.12-2.081,1.924-2.89
			c0.805-0.807,1.765-1.45,2.883-1.929C6.643,0.239,7.814,0,9.038,0c1.224,0,2.394,0.239,3.512,0.718
			c1.117,0.479,2.079,1.123,2.883,1.929C16.238,3.456,16.879,4.419,17.357,5.537z M3.683,12.58l8.885-8.873
			c-1.059-0.713-2.237-1.071-3.53-1.071c-1.163,0-2.232,0.287-3.213,0.859s-1.757,1.353-2.33,2.341
			C2.922,6.826,2.636,7.9,2.636,9.061C2.636,10.333,2.985,11.505,3.683,12.58z M15.438,9.061c0-1.263-0.341-2.419-1.023-3.471
			l-8.872,8.861c1.075,0.698,2.24,1.047,3.495,1.047c0.87,0,1.7-0.17,2.488-0.511c0.789-0.342,1.47-0.799,2.042-1.372
			c0.573-0.571,1.027-1.256,1.364-2.053C15.27,10.765,15.438,9.933,15.438,9.061z"/>
	</g>
</g>
</svg>
