<?xml version="1.0" encoding="utf-8"?>
<!-- Generator: Adobe Illustrator 16.0.0, SVG Export Plug-In . SVG Version: 6.00 Build 0)  -->
<!DOCTYPE svg PUBLIC "-//W3C//DTD SVG 1.1//EN" "http://www.w3.org/Graphics/SVG/1.1/DTD/svg11.dtd">
<svg version="1.1" id="Layer_1" xmlns="http://www.w3.org/2000/svg" xmlns:xlink="http://www.w3.org/1999/xlink" x="0px" y="0px"
	 width="16.903px" height="16.903px" viewBox="0 0 16.903 16.903" enable-background="new 0 0 16.903 16.903" xml:space="preserve">
<g>
	<path fill-rule="evenodd" clip-rule="evenodd" fill="#818282" d="M12.526,6.115c0.887-0.885,0.887-2.309-0.004-3.193
		c-0.343-0.342-0.763-0.547-1.199-0.623V2.234h-5.9l-1.571-1.57v0.001C2.967-0.222,1.544-0.223,0.658,0.668
		c-0.88,0.885-0.879,2.279,0.01,3.168C0.67,3.839,0.674,3.84,0.675,3.842l1.564,1.564v5.912h0.06
		c0.076,0.445,0.285,0.873,0.638,1.223c0.889,0.881,2.285,0.881,3.169-0.004c0.005-0.006,0.008-0.012,0.013-0.018l0.001,0.002
		L12.526,6.115L12.526,6.115z"/>
	<circle fill-rule="evenodd" clip-rule="evenodd" fill="#818282" cx="13.583" cy="13.577" r="1.131"/>
	<circle fill-rule="evenodd" clip-rule="evenodd" fill="#818282" cx="11.315" cy="11.316" r="1.131"/>
	<circle fill-rule="evenodd" clip-rule="evenodd" fill="#818282" cx="13.579" cy="9.053" r="1.131"/>
	<circle fill-rule="evenodd" clip-rule="evenodd" fill="#818282" cx="11.322" cy="15.772" r="1.131"/>
	<circle fill-rule="evenodd" clip-rule="evenodd" fill="#818282" cx="15.771" cy="11.318" r="1.131"/>
	<circle fill-rule="evenodd" clip-rule="evenodd" fill="#818282" cx="15.771" cy="15.772" r="1.131"/>
	<circle fill-rule="evenodd" clip-rule="evenodd" fill="#818282" cx="9.052" cy="13.577" r="1.131"/>
</g>
</svg>
