<?xml version="1.0" encoding="utf-8"?>
<!-- Generator: Adobe Illustrator 16.0.0, SVG Export Plug-In . SVG Version: 6.00 Build 0)  -->
<!DOCTYPE svg PUBLIC "-//W3C//DTD SVG 1.1//EN" "http://www.w3.org/Graphics/SVG/1.1/DTD/svg11.dtd">
<svg version="1.1" id="Layer_1" xmlns="http://www.w3.org/2000/svg" xmlns:xlink="http://www.w3.org/1999/xlink" x="0px" y="0px"
	 width="18.052px" height="18.125px" viewBox="0 0 18.052 18.125" enable-background="new 0 0 18.052 18.125" xml:space="preserve">
<path fill="#818282" d="M15.717,0l-4.031,0.031H7.794c-1.232,0-2.232,0.983-2.232,2.217v2.278L2.232,4.5C1,4.5,0,5.517,0,6.75v9.126
	c0,1.232,1,2.232,2.232,2.232h5.406c0.053,0.004,0.103,0.017,0.157,0.017h7.985c1.232,0,2.25-1.018,2.25-2.25l0.031-13.563
	C18.061,1.079,16.95,0,15.717,0z M10.758,7.989c0,0.602-0.488,1.092-1.092,1.092H8.445c-0.604,0-1.093-0.49-1.093-1.092
	c0-0.605,0.489-1.094,1.093-1.094h1.221C10.27,6.896,10.758,7.384,10.758,7.989z M7.353,11.319c0-0.605,0.489-1.094,1.093-1.094
	h1.221c0.604,0,1.092,0.488,1.092,1.094c0,0.604-0.488,1.094-1.092,1.094H8.445C7.841,12.413,7.353,11.923,7.353,11.319z
	 M7.353,14.649c0-0.605,0.489-1.094,1.093-1.094h1.221c0.604,0,1.092,0.488,1.092,1.094c0,0.604-0.488,1.094-1.092,1.094H8.445
	C7.841,15.743,7.353,15.253,7.353,14.649z M8.445,3.55H9.67c0.604,0,1.094,0.489,1.094,1.094c0,0.291-0.119,0.553-0.305,0.748
	c-0.194,0.187-0.457,0.303-0.748,0.303H8.487c-0.604,0-1.093-0.49-1.093-1.092c0-0.025,0.013-0.047,0.014-0.071H7.375
	C7.434,3.982,7.881,3.55,8.445,3.55z M3.321,6.896h1.225c0.469,0,0.861,0.299,1.017,0.714v0.759
	C5.407,8.782,5.015,9.081,4.546,9.081H3.321c-0.604,0-1.093-0.49-1.093-1.092C2.228,7.384,2.717,6.896,3.321,6.896z M3.321,10.226
	h1.225c0.469,0,0.861,0.299,1.017,0.714v0.759c-0.155,0.415-0.548,0.715-1.017,0.715H3.321c-0.604,0-1.093-0.49-1.093-1.094
	C2.228,10.714,2.717,10.226,3.321,10.226z M4.546,15.743H3.321c-0.604,0-1.093-0.49-1.093-1.094c0-0.605,0.489-1.094,1.093-1.094
	h1.225c0.469,0,0.861,0.299,1.017,0.714v0.759C5.407,15.443,5.015,15.743,4.546,15.743z M14.791,15.743h-1.226
	c-0.604,0-1.092-0.49-1.092-1.094c0-0.605,0.488-1.094,1.092-1.094h1.226c0.604,0,1.093,0.488,1.093,1.094
	C15.883,15.253,15.395,15.743,14.791,15.743z M14.791,12.413h-1.226c-0.585,0-1.053-0.464-1.082-1.041l0.001-0.107
	c0.03-0.578,0.497-1.039,1.081-1.039h1.226c0.604,0,1.093,0.488,1.093,1.094C15.883,11.923,15.395,12.413,14.791,12.413z
	 M14.791,9.081h-1.226c-0.564,0-1.014-0.435-1.07-0.983V7.876c0.06-0.549,0.507-0.98,1.07-0.98h1.226
	c0.604,0,1.093,0.488,1.093,1.094C15.883,8.591,15.395,9.081,14.791,9.081z M14.791,5.736h-1.226c-0.604,0-1.092-0.49-1.092-1.093
	c0-0.604,0.488-1.094,1.092-1.094h1.226c0.604,0,1.093,0.489,1.093,1.094C15.883,5.246,15.395,5.736,14.791,5.736z"/>
</svg>
