<?xml version="1.0" encoding="utf-8"?>
<!-- Generator: Adobe Illustrator 16.0.0, SVG Export Plug-In . SVG Version: 6.00 Build 0)  -->
<!DOCTYPE svg PUBLIC "-//W3C//DTD SVG 1.1//EN" "http://www.w3.org/Graphics/SVG/1.1/DTD/svg11.dtd">
<svg version="1.1" id="Camada_1" xmlns="http://www.w3.org/2000/svg" xmlns:xlink="http://www.w3.org/1999/xlink" x="0px" y="0px"
	 width="18.106px" height="18.11px" viewBox="0 0 18.106 18.11" enable-background="new 0 0 18.106 18.11" xml:space="preserve">
<g id="XMLID_3151_">
	<g id="XMLID_181_">
		<path id="XMLID_183_" fill-rule="evenodd" clip-rule="evenodd" d="M15.836,2.256h-0.01c0.001-1.253-1.003-2.26-2.261-2.256
			c-1.248,0.003-2.233,0.989-2.233,2.247c0,0.003,0.001,0.006,0.001,0.009H6.773C6.774,1.003,5.769-0.004,4.513,0
			C3.265,0.003,2.281,0.989,2.281,2.247c0,0.003,0.001,0.006,0.001,0.009H2.27C1.017,2.256,0,3.272,0,4.524v11.318
			c0,1.253,1.017,2.267,2.27,2.267h13.566c1.254,0,2.27-1.014,2.27-2.267V4.524C18.106,3.272,17.09,2.256,15.836,2.256 M5.683,3.386
			c0,0.622-0.505,1.127-1.127,1.127S3.429,4.008,3.429,3.386V2.294c0-0.623,0.505-1.127,1.127-1.127s1.127,0.504,1.127,1.127V3.386z
			 M12.454,3.386V2.294c0-0.623,0.504-1.127,1.126-1.127c0.624,0,1.127,0.504,1.127,1.127v1.092c0,0.622-0.503,1.127-1.127,1.127
			C12.958,4.513,12.454,4.008,12.454,3.386 M17.003,15.498H1.17V5.394h15.833V15.498z M4.691,9.465c0.443-0.438,1.163-0.438,1.607,0
			l1.441,1.42l3.668-3.614c0.445-0.438,1.164-0.438,1.608,0c0.444,0.438,0.444,1.146,0,1.583l-4.457,4.391
			c-0.001,0.001-0.003,0.002-0.005,0.004c-0.003,0.004-0.006,0.008-0.009,0.011c-0.444,0.437-1.164,0.437-1.607,0l-2.245-2.212
			C4.247,10.612,4.247,9.903,4.691,9.465"/>
	</g>
</g>
</svg>
