<?xml version="1.0" encoding="utf-8"?>
<!-- Generator: Adobe Illustrator 16.0.0, SVG Export Plug-In . SVG Version: 6.00 Build 0)  -->
<!DOCTYPE svg PUBLIC "-//W3C//DTD SVG 1.1//EN" "http://www.w3.org/Graphics/SVG/1.1/DTD/svg11.dtd">
<svg version="1.1" id="Camada_1" xmlns="http://www.w3.org/2000/svg" xmlns:xlink="http://www.w3.org/1999/xlink" x="0px" y="0px"
	 width="18.106px" height="18.11px" viewBox="0 0 18.106 18.11" enable-background="new 0 0 18.106 18.11" xml:space="preserve">
<path id="XMLID_480_" fill-rule="evenodd" clip-rule="evenodd" d="M15.837,2.256h-0.01c0.001-1.253-1.004-2.26-2.261-2.256
	c-1.248,0.003-2.233,0.989-2.233,2.247c0,0.003,0.001,0.006,0.001,0.009H6.773C6.774,1.003,5.769-0.004,4.513,0
	C3.265,0.003,2.281,0.989,2.281,2.247c0,0.003,0.001,0.006,0.001,0.009H2.27C1.017,2.256,0,3.272,0,4.524v11.318
	c0,1.253,1.017,2.268,2.27,2.268h13.567c1.253,0,2.27-1.015,2.27-2.268V4.524C18.106,3.272,17.09,2.256,15.837,2.256 M5.683,3.386
	c0,0.622-0.505,1.127-1.127,1.127S3.429,4.008,3.429,3.386V2.294c0-0.623,0.505-1.127,1.127-1.127s1.127,0.504,1.127,1.127V3.386z
	 M12.454,3.386V2.294c0-0.623,0.504-1.127,1.126-1.127c0.624,0,1.127,0.504,1.127,1.127v1.092c0,0.622-0.503,1.127-1.127,1.127
	C12.958,4.513,12.454,4.008,12.454,3.386 M17.003,15.498H1.17V5.394h15.833V15.498z M12.674,12.835
	c0.002-0.369-0.195-0.688-0.488-0.864l0.002-0.002c-0.22-0.121-0.439-0.24-0.655-0.367c-0.135-0.083-0.301-0.24-0.463-0.24
	c-0.317,0-0.782,0.945-1.063,0.945c-0.141,0-0.323-0.131-0.447-0.205c-0.95-0.526-1.605-1.184-2.132-2.133
	C7.355,9.844,7.224,9.661,7.224,9.52c0-0.281,0.944-0.746,0.944-1.064c0-0.162-0.157-0.329-0.241-0.464
	C7.815,7.8,7.708,7.603,7.6,7.407C7.434,7.082,7.1,6.858,6.707,6.858C6.341,6.859,6.03,7.052,5.857,7.343L5.85,7.338
	c-0.03,0.05-0.059,0.099-0.084,0.146C5.598,7.793,5.499,8.105,5.499,8.456c0,0.484,0.198,0.923,0.36,1.367
	c0.114,0.319,0.255,0.626,0.431,0.914c0.547,0.887,1.616,1.957,2.502,2.504c0.287,0.177,0.593,0.318,0.911,0.433
	c0.444,0.162,0.881,0.36,1.366,0.36c0.35,0,0.663-0.099,0.969-0.267c0.002,0,0.003-0.001,0.005-0.004
	C12.415,13.619,12.674,13.263,12.674,12.835"/>
</svg>
