<?xml version="1.0" encoding="utf-8"?>
<!-- Generator: Adobe Illustrator 16.0.0, SVG Export Plug-In . SVG Version: 6.00 Build 0)  -->
<!DOCTYPE svg PUBLIC "-//W3C//DTD SVG 1.1//EN" "http://www.w3.org/Graphics/SVG/1.1/DTD/svg11.dtd">
<svg version="1.1" id="Layer_1" xmlns="http://www.w3.org/2000/svg" xmlns:xlink="http://www.w3.org/1999/xlink" x="0px" y="0px"
	 width="18.113px" height="14.769px" viewBox="0 0 18.113 14.769" enable-background="new 0 0 18.113 14.769" xml:space="preserve">
<g>
	<path fill="#818282" d="M15.84,2.319h-4.557V2.273C11.283,1.018,10.289,0,9.033,0H5.68C4.424,0,3.406,1.018,3.406,2.273v0.046
		H3.361l2.763,2.764c0.794-0.674,1.81-1.096,2.933-1.096c2.517,0,4.557,2.04,4.557,4.557c0,1.123-0.422,2.138-1.096,2.933
		l3.292,3.292h0.03c1.256,0,2.273-1.018,2.273-2.273V4.593C18.113,3.337,17.096,2.319,15.84,2.319z M14.674,5.68
		c-0.615,0-1.113-0.499-1.113-1.114s0.498-1.114,1.113-1.114s1.115,0.499,1.115,1.114S15.289,5.68,14.674,5.68z"/>
	<path fill="#818282" d="M9.057,13.101c-2.518,0-4.557-2.04-4.557-4.557c0-0.984,0.319-1.891,0.85-2.636L1.809,2.367
		C0.775,2.581,0,3.496,0,4.593v7.902c0,1.256,1.018,2.273,2.272,2.273H14.21l-2.519-2.519C10.947,12.781,10.041,13.101,9.057,13.101
		z"/>
	<path fill="#818282" d="M12.473,8.544c0-1.887-1.529-3.416-3.416-3.416c-0.809,0-1.543,0.293-2.127,0.763l4.78,4.78
		C12.18,10.086,12.473,9.353,12.473,8.544z"/>
	<path fill="#818282" d="M5.64,8.544c0,1.887,1.53,3.416,3.417,3.416c0.668,0,1.286-0.199,1.813-0.53L6.17,6.731
		C5.839,7.258,5.64,7.876,5.64,8.544z"/>
</g>
</svg>
