<?xml version="1.0" encoding="utf-8"?>
<!-- Generator: Adobe Illustrator 16.0.0, SVG Export Plug-In . SVG Version: 6.00 Build 0)  -->
<!DOCTYPE svg PUBLIC "-//W3C//DTD SVG 1.1//EN" "http://www.w3.org/Graphics/SVG/1.1/DTD/svg11.dtd">
<svg version="1.1" id="Layer_1" xmlns="http://www.w3.org/2000/svg" xmlns:xlink="http://www.w3.org/1999/xlink" x="0px" y="0px"
	 width="616.532px" height="616.531px" viewBox="5.833 127.4 616.532 616.531" enable-background="new 5.833 127.4 616.532 616.531"
	 xml:space="preserve">
<g>
	<path fill="#00A1C1" d="M581.566,281.533c27.2,45.334,40.799,99.734,40.799,154.133s-13.599,104.266-40.799,154.133
		c-27.201,45.334-63.467,81.6-113.334,113.334c-45.333,27.199-99.733,40.799-154.133,40.799c-54.4,0-104.267-13.6-154.133-40.799
		c-45.334-27.201-81.6-63.467-113.334-113.334c-27.2-45.332-40.8-99.734-40.8-154.133s13.6-104.266,40.8-154.133
		c27.2-45.334,63.467-81.6,113.334-113.334C205.3,141,259.7,127.4,314.1,127.4c54.4,0,104.266,13.6,154.133,40.799
		C513.566,195.4,554.365,231.668,581.566,281.533z M522.632,367.668c0-9.068-4.533-13.6-9.067-18.133l-36.266-36.268
		c-4.534-4.533-9.067-9.066-18.134-9.066s-13.599,4.533-18.133,9.066l-163.2,163.201l-90.667-90.666
		c-4.533-4.535-9.066-9.068-18.133-9.068c-9.067,0-13.6,4.533-18.133,9.068l-36.267,36.266c-4.533,4.533-9.066,9.066-9.066,18.133
		s4.533,13.6,9.066,18.133L259.7,603.402c4.534,4.533,9.067,9.066,18.133,9.066c9.067,0,13.6-4.533,18.134-9.066l217.6-217.6
		C518.099,381.268,522.632,376.734,522.632,367.668z"/>
</g>
</svg>
