<?xml version="1.0" encoding="utf-8"?>
<!-- Generator: Adobe Illustrator 16.0.0, SVG Export Plug-In . SVG Version: 6.00 Build 0)  -->
<!DOCTYPE svg PUBLIC "-//W3C//DTD SVG 1.1//EN" "http://www.w3.org/Graphics/SVG/1.1/DTD/svg11.dtd">
<svg version="1.1" id="Layer_1" xmlns="http://www.w3.org/2000/svg" xmlns:xlink="http://www.w3.org/1999/xlink" x="0px" y="0px"
	 width="14.061px" height="14.059px" viewBox="0 0 14.061 14.059" enable-background="new 0 0 14.061 14.059" xml:space="preserve">
<g>
	<path fill="#00A2C2" d="M2.712,8.845c0-0.075,0.029-0.142,0.087-0.199L6.83,4.615C6.888,4.557,6.954,4.528,7.03,4.528
		s0.142,0.029,0.199,0.087l4.031,4.031c0.058,0.058,0.086,0.124,0.086,0.199s-0.028,0.142-0.086,0.199l-0.433,0.433
		c-0.058,0.058-0.124,0.086-0.199,0.086s-0.142-0.028-0.198-0.086l-3.4-3.4l-3.4,3.4C3.572,9.534,3.505,9.563,3.431,9.563
		c-0.075,0-0.142-0.028-0.199-0.086L2.799,9.044C2.741,8.987,2.712,8.92,2.712,8.845z"/>
</g>
</svg>
