<?xml version="1.0" encoding="utf-8"?>
<!-- Generator: Adobe Illustrator 16.0.0, SVG Export Plug-In . SVG Version: 6.00 Build 0)  -->
<!DOCTYPE svg PUBLIC "-//W3C//DTD SVG 1.1//EN" "http://www.w3.org/Graphics/SVG/1.1/DTD/svg11.dtd">
<svg version="1.1" id="Layer_1" xmlns="http://www.w3.org/2000/svg" xmlns:xlink="http://www.w3.org/1999/xlink" x="0px" y="0px"
	 width="14.061px" height="14.059px" viewBox="0 0 14.061 14.059" enable-background="new 0 0 14.061 14.059" xml:space="preserve">
<g>
	<path fill="#00A2C2" d="M11.082,2.734L6.77,7.046l4.313,4.312c0.104,0.104,0.154,0.225,0.154,0.366
		c0,0.141-0.051,0.263-0.154,0.365l-1.348,1.349c-0.104,0.102-0.225,0.153-0.365,0.153c-0.142,0-0.264-0.052-0.366-0.153
		L2.978,7.412C2.875,7.308,2.823,7.187,2.823,7.046c0-0.141,0.052-0.262,0.154-0.365l6.025-6.025
		c0.103-0.103,0.225-0.154,0.366-0.154c0.141,0,0.262,0.051,0.365,0.154l1.348,1.348c0.104,0.103,0.154,0.225,0.154,0.365
		S11.186,2.631,11.082,2.734z"/>
</g>
</svg>
