<?xml version="1.0" encoding="utf-8"?>
<!-- Generator: Adobe Illustrator 16.0.0, SVG Export Plug-In . SVG Version: 6.00 Build 0)  -->
<!DOCTYPE svg PUBLIC "-//W3C//DTD SVG 1.1//EN" "http://www.w3.org/Graphics/SVG/1.1/DTD/svg11.dtd">
<svg version="1.1" id="Layer_1" xmlns="http://www.w3.org/2000/svg" xmlns:xlink="http://www.w3.org/1999/xlink" x="0px" y="0px"
	 width="14.061px" height="14.059px" viewBox="0 0 14.061 14.059" enable-background="new 0 0 14.061 14.059" xml:space="preserve">
<g>
	<path fill="#00A2C2" d="M2.979,11.358L7.29,7.046L2.979,2.734C2.875,2.631,2.823,2.509,2.823,2.368s0.052-0.263,0.155-0.365
		l1.348-1.349C4.429,0.552,4.551,0.5,4.692,0.5s0.263,0.052,0.365,0.154l6.025,6.026c0.104,0.103,0.154,0.225,0.154,0.366
		c0,0.14-0.051,0.262-0.154,0.365l-6.025,6.027c-0.103,0.102-0.225,0.154-0.365,0.154s-0.263-0.053-0.365-0.154l-1.348-1.35
		c-0.104-0.102-0.155-0.223-0.155-0.363C2.823,11.582,2.875,11.46,2.979,11.358z"/>
</g>
</svg>
