<?xml version="1.0" encoding="utf-8"?>
<!-- Generator: Adobe Illustrator 16.0.0, SVG Export Plug-In . SVG Version: 6.00 Build 0)  -->
<!DOCTYPE svg PUBLIC "-//W3C//DTD SVG 1.1//EN" "http://www.w3.org/Graphics/SVG/1.1/DTD/svg11.dtd">
<svg version="1.1" id="Layer_1" xmlns="http://www.w3.org/2000/svg" xmlns:xlink="http://www.w3.org/1999/xlink" x="0px" y="0px"
	 width="18.182px" height="18.18px" viewBox="0 0 18.182 18.18" enable-background="new 0 0 18.182 18.18" xml:space="preserve">
<path fill="#676767" d="M12.442,11.173L10.17,8.899V4.917h-0.002c0.002-0.646-0.516-1.166-1.166-1.164
	C8.358,3.755,7.85,4.265,7.85,4.911v0.006v4.494c0,0.363,0.164,0.658,0.414,0.863l2.531,2.533c0.459,0.457,1.283,0.547,1.74,0.088
	C12.99,12.439,12.901,11.632,12.442,11.173C12.442,11.171,12.442,11.173,12.442,11.173"/>
<path fill="#676767" d="M9.092,0c-5.02,0-9.09,4.07-9.09,9.09c0,5.021,4.07,9.09,9.09,9.09s9.089-4.069,9.089-9.09
	C18.181,4.07,14.112,0,9.092,0z M9.092,15.964c-3.796,0-6.874-3.077-6.874-6.874s3.078-6.874,6.874-6.874s6.874,3.077,6.874,6.874
	S12.888,15.964,9.092,15.964z"/>
</svg>
