<?xml version="1.0" encoding="utf-8"?>
<!-- Generator: Adobe Illustrator 16.0.0, SVG Export Plug-In . SVG Version: 6.00 Build 0)  -->
<!DOCTYPE svg PUBLIC "-//W3C//DTD SVG 1.1//EN" "http://www.w3.org/Graphics/SVG/1.1/DTD/svg11.dtd">
<svg version="1.1" id="Layer_1" xmlns="http://www.w3.org/2000/svg" xmlns:xlink="http://www.w3.org/1999/xlink" x="0px" y="0px"
	 width="616.603px" height="625.803px" viewBox="-4.603 83.099 616.603 625.803"
	 enable-background="new -4.603 83.099 616.603 625.803" xml:space="preserve">
<g id="XMLID_378_">
	<g>
		<g id="XMLID_46_">
			<path id="XMLID_47_" fill="#00A1C1" d="M303.699,708.901c-170.257,0-308.302-138.045-308.302-312.9
				c0-174.857,138.045-312.902,308.302-312.902C473.955,83.099,612,221.144,612,396.001
				C612,570.856,469.354,708.901,303.699,708.901z M303.699,138.315c-138.046,0-253.083,115.039-253.083,257.686
				s115.037,257.684,253.083,257.684c138.045,0,253.082-115.037,253.082-257.684S441.744,138.315,303.699,138.315z"/>
		</g>
		<g id="XMLID_44_">
			<polygon id="XMLID_45_" fill="#00A1C1" points="455.549,442.017 266.888,442.017 266.888,211.94 322.106,211.94 322.106,386.798 
				455.549,386.798 			"/>
		</g>
	</g>
</g>
</svg>
