<?xml version="1.0" encoding="utf-8"?>
<!-- Generator: Adobe Illustrator 16.0.0, SVG Export Plug-In . SVG Version: 6.00 Build 0)  -->
<!DOCTYPE svg PUBLIC "-//W3C//DTD SVG 1.1//EN" "http://www.w3.org/Graphics/SVG/1.1/DTD/svg11.dtd">
<svg version="1.1" id="Layer_1" xmlns="http://www.w3.org/2000/svg" xmlns:xlink="http://www.w3.org/1999/xlink" x="0px" y="0px"
	 width="13.539px" height="13.539px" viewBox="0 0 13.539 13.539" enable-background="new 0 0 13.539 13.539" xml:space="preserve">
<path fill-rule="evenodd" clip-rule="evenodd" fill="#818282" d="M12.878,9.806L9.854,6.782l3.049-3.048
	c0.848-0.85,0.848-2.225,0-3.073c-0.849-0.848-2.224-0.848-3.072,0L6.782,3.71L3.708,0.636c-0.848-0.848-2.223-0.848-3.072,0
	c-0.848,0.85-0.848,2.225,0,3.073L3.71,6.782L0.661,9.831c-0.848,0.848-0.848,2.224,0,3.072c0.848,0.848,2.224,0.848,3.072,0
	l3.049-3.049l3.024,3.023c0.848,0.849,2.223,0.85,3.072,0C13.726,12.03,13.726,10.654,12.878,9.806"/>
</svg>
