<?xml version="1.0" encoding="utf-8"?>
<!-- Generator: Adobe Illustrator 19.0.0, SVG Export Plug-In . SVG Version: 6.00 Build 0)  -->
<svg version="1.1" id="Layer_1" xmlns="http://www.w3.org/2000/svg" xmlns:xlink="http://www.w3.org/1999/xlink" x="0px" y="0px"
	 viewBox="-300 392 10 10" style="enable-background:new -300 392 10 10;" xml:space="preserve">
<style type="text/css">
	.st0{fill:#818282;}
</style>
<path class="st0" d="M-291.8,398.6l-1.6-1.6l1.6-1.6c0.4-0.4,0.4-1.2,0-1.6s-1.1-0.4-1.6,0l-1.6,1.6l-1.6-1.6
	c-0.4-0.4-1.1-0.4-1.6,0c-0.4,0.4-0.4,1.2,0,1.6l1.6,1.6l-1.6,1.6c-0.4,0.4-0.4,1.1,0,1.6c0.4,0.4,1.1,0.4,1.6,0l1.6-1.6l1.6,1.6
	c0.4,0.4,1.1,0.4,1.6,0S-291.3,399-291.8,398.6"/>
</svg>
