<?xml version="1.0" encoding="utf-8"?>
<!-- Generator: Adobe Illustrator 16.0.0, SVG Export Plug-In . SVG Version: 6.00 Build 0)  -->
<!DOCTYPE svg PUBLIC "-//W3C//DTD SVG 1.1//EN" "http://www.w3.org/Graphics/SVG/1.1/DTD/svg11.dtd">
<svg version="1.1" id="Layer_1" xmlns="http://www.w3.org/2000/svg" xmlns:xlink="http://www.w3.org/1999/xlink" x="0px" y="0px"
	 width="18.107px" height="18.109px" viewBox="0 0 18.107 18.109" enable-background="new 0 0 18.107 18.109" xml:space="preserve">
<path fill-rule="evenodd" clip-rule="evenodd" fill="#818282" d="M14.712,9.08V2.237C14.712,1.002,13.71,0,12.475,0H2.237
	C1.002,0,0,1.002,0,2.237V9.08c0,1.235,1.002,2.237,2.237,2.237h0.027v3.396l2.263-3.396h7.948
	C13.71,11.317,14.712,10.315,14.712,9.08 M15.87,3.396h-0.047v5.673c0,1.864-1.512,3.375-3.375,3.375H5.672v0.032
	c0,1.235,1.001,2.237,2.237,2.237h5.671l2.264,3.396v-3.396h0.026c1.235,0,2.237-1.002,2.237-2.237V5.633
	C18.107,4.397,17.105,3.396,15.87,3.396"/>
</svg>
