<?xml version="1.0" encoding="utf-8"?>
<!-- Generator: Adobe Illustrator 16.0.0, SVG Export Plug-In . SVG Version: 6.00 Build 0)  -->
<!DOCTYPE svg PUBLIC "-//W3C//DTD SVG 1.1//EN" "http://www.w3.org/Graphics/SVG/1.1/DTD/svg11.dtd">
<svg version="1.1" id="Layer_1" xmlns="http://www.w3.org/2000/svg" xmlns:xlink="http://www.w3.org/1999/xlink" x="0px" y="0px"
	 width="612px" height="487.465px" viewBox="0 176.207 612 487.465" enable-background="new 0 176.207 612 487.465"
	 xml:space="preserve">
<g id="XMLID_508_">
	<g>
		<path id="XMLID_33_" fill="#00A1C1" d="M306.001,261.603c-42.697,0-81.836,35.581-81.836,81.837
			c0,24.907,10.674,46.255,28.464,60.488l0,0c21.35,17.791,32.023,42.698,35.582,67.604h32.023
			c3.559-24.907,14.232-49.813,35.582-67.604l0,0c17.789-14.232,28.463-39.14,28.463-60.488
			C387.838,297.184,352.258,261.603,306.001,261.603z"/>
		<path id="XMLID_30_" fill="#00A1C1" d="M576.42,176.207H35.582C14.233,176.207,0,193.998,0,211.788v348.697
			c0,21.35,17.791,35.582,35.581,35.582h85.396v67.604l88.953-67.604h366.488c21.35,0,35.582-17.791,35.582-35.582V211.788
			C612,190.439,597.77,176.207,576.42,176.207z M377.164,425.277L377.164,425.277c-17.791,14.231-28.465,39.14-24.906,60.488l0,0
			v14.232l0,0v3.559c0,24.907-32.023,42.698-46.256,42.698c-14.232,0-46.255-14.232-46.255-42.698v-3.559l0,0v-10.675
			c3.559-24.907-7.117-46.256-24.907-60.489l0,0c-24.908-21.349-39.14-49.813-39.14-85.395c0-60.489,49.813-110.303,110.302-110.303
			c60.489,0,110.303,49.813,110.303,110.303C416.303,375.462,402.07,407.486,377.164,425.277z"/>
	</g>
</g>
</svg>
