<?xml version="1.0" encoding="utf-8"?>
<!-- Generator: Adobe Illustrator 16.0.0, SVG Export Plug-In . SVG Version: 6.00 Build 0)  -->
<!DOCTYPE svg PUBLIC "-//W3C//DTD SVG 1.1//EN" "http://www.w3.org/Graphics/SVG/1.1/DTD/svg11.dtd">
<svg version="1.1" id="Layer_1" xmlns="http://www.w3.org/2000/svg" xmlns:xlink="http://www.w3.org/1999/xlink" x="0px" y="0px"
	 width="18.132px" height="15.843px" viewBox="0 0 18.132 15.843" enable-background="new 0 0 18.132 15.843" xml:space="preserve">
<path fill-rule="evenodd" clip-rule="evenodd" fill="#818282" d="M14.737,13.58H3.421c-0.625,0-1.132,0.506-1.132,1.131
	s0.507,1.132,1.132,1.132h11.316c0.625,0,1.132-0.507,1.132-1.132S15.362,13.58,14.737,13.58 M15.894,0H2.238
	C1.002,0,0,1.002,0,2.238v9.104c0,1.235,1.002,2.237,2.238,2.237h13.656c1.236,0,2.238-1.002,2.238-2.237V2.238
	C18.132,1.002,17.13,0,15.894,0 M16.995,9.093c0,0.61-0.494,1.105-1.104,1.105H2.299c-0.61,0-1.105-0.495-1.105-1.105V2.273
	c0-0.61,0.495-1.104,1.105-1.104h13.592c0.61,0,1.104,0.494,1.104,1.104V9.093z"/>
</svg>
