<?xml version="1.0" encoding="utf-8"?>
<!-- Generator: Adobe Illustrator 16.0.0, SVG Export Plug-In . SVG Version: 6.00 Build 0)  -->
<!DOCTYPE svg PUBLIC "-//W3C//DTD SVG 1.1//EN" "http://www.w3.org/Graphics/SVG/1.1/DTD/svg11.dtd">
<svg version="1.1" id="Layer_1" xmlns="http://www.w3.org/2000/svg" xmlns:xlink="http://www.w3.org/1999/xlink" x="0px" y="0px"
	 width="15.917px" height="15.917px" viewBox="0 0 15.917 15.917" enable-background="new 0 0 15.917 15.917" xml:space="preserve">
<path fill="#818282" d="M9.125,13.618l-4.523-0.006V9.087l8.448-8.455c0.296-0.298,0.663-0.484,1.047-0.559
	C13.916,0.03,13.731,0,13.537,0H2.38C1.065,0,0,1.065,0,2.38v11.157c0,1.314,1.065,2.38,2.38,2.38h11.157
	c1.314,0,2.38-1.066,2.38-2.38V6.833L9.125,13.618z M5.658,11.301l1.093,0.015l0.043,1.168h2.259c0-1.875-1.52-3.395-3.395-3.395
	V11.301z"/>
</svg>
