<?xml version="1.0" encoding="utf-8"?>
<!-- Generator: Adobe Illustrator 16.0.0, SVG Export Plug-In . SVG Version: 6.00 Build 0)  -->
<!DOCTYPE svg PUBLIC "-//W3C//DTD SVG 1.1//EN" "http://www.w3.org/Graphics/SVG/1.1/DTD/svg11.dtd">
<svg version="1.1" id="Layer_1" xmlns="http://www.w3.org/2000/svg" xmlns:xlink="http://www.w3.org/1999/xlink" x="0px" y="0px"
	 width="18.163px" height="18.118px" viewBox="0 0 18.163 18.118" enable-background="new 0 0 18.163 18.118" xml:space="preserve">
<path fill-rule="evenodd" clip-rule="evenodd" fill="#818282" d="M2.263,7.928h13.58c0.009,0,0.017-0.003,0.027-0.003
	c0.589,0.009,1.18-0.21,1.63-0.66c0.884-0.884,0.884-2.316,0-3.199l-3.402-3.402c-0.884-0.884-2.316-0.884-3.2,0
	c-0.744,0.743-0.853,1.871-0.347,2.738H2.263C1.013,3.401,0,4.415,0,5.665S1.013,7.928,2.263,7.928 M15.9,10.191H2.32
	c-0.009,0-0.018,0.002-0.026,0.002c-0.589-0.007-1.181,0.211-1.631,0.661c-0.884,0.883-0.884,2.315,0,3.199l3.402,3.402
	c0.884,0.883,2.316,0.883,3.2,0c0.743-0.744,0.854-1.871,0.347-2.738H15.9c1.25,0,2.263-1.014,2.263-2.264S17.15,10.191,15.9,10.191
	"/>
</svg>
