<?xml version="1.0" encoding="utf-8"?>
<!-- Generator: Adobe Illustrator 16.0.0, SVG Export Plug-In . SVG Version: 6.00 Build 0)  -->
<!DOCTYPE svg PUBLIC "-//W3C//DTD SVG 1.1//EN" "http://www.w3.org/Graphics/SVG/1.1/DTD/svg11.dtd">
<svg version="1.1" id="Layer_1" xmlns="http://www.w3.org/2000/svg" xmlns:xlink="http://www.w3.org/1999/xlink" x="0px" y="0px"
	 width="13.582px" height="18.105px" viewBox="0 0 13.582 18.105" enable-background="new 0 0 13.582 18.105" xml:space="preserve">
<g>
	<path fill="#3689C9" d="M11.298,4.526h2.283L9.054,0v2.281C9.054,3.521,10.059,4.526,11.298,4.526z"/>
	<path fill="#3689C9" d="M7.921,2.268V0H2.328C1.042,0,0,1.042,0,2.326v13.452c0,1.286,1.042,2.327,2.327,2.327h8.926
		c1.285,0,2.328-1.042,2.328-2.327V5.657h-2.27C9.44,5.657,7.921,4.14,7.921,2.268z M11.904,9.111
		c0.53,0.188,0.808,0.766,0.618,1.291l-1.783,4.961c-0.189,0.526-0.773,0.802-1.305,0.614c-0.143-0.052-0.264-0.13-0.365-0.229
		c-0.143-0.098-0.264-0.229-0.344-0.394l-0.184-0.387l-0.186,0.389c-0.077,0.165-0.197,0.296-0.338,0.394
		c-0.1,0.099-0.223,0.177-0.361,0.229c-0.525,0.188-1.104-0.088-1.289-0.614l-1.765-4.961C4.417,9.877,4.691,9.299,5.217,9.111
		c0.523-0.187,1.101,0.087,1.287,0.614l0.98,2.759l0.121-0.255c0.168-0.355,0.52-0.563,0.888-0.573
		c0.015-0.001,0.03-0.002,0.048-0.002c0.014,0,0.029,0.001,0.045,0.002c0.373,0.01,0.729,0.217,0.898,0.573l0.123,0.255l0.99-2.759
		C10.79,9.198,11.374,8.925,11.904,9.111z"/>
</g>
</svg>
