<?xml version="1.0" encoding="utf-8"?>
<!-- Generator: Adobe Illustrator 16.0.0, SVG Export Plug-In . SVG Version: 6.00 Build 0)  -->
<!DOCTYPE svg PUBLIC "-//W3C//DTD SVG 1.1//EN" "http://www.w3.org/Graphics/SVG/1.1/DTD/svg11.dtd">
<svg version="1.1" id="Camada_1" xmlns="http://www.w3.org/2000/svg" xmlns:xlink="http://www.w3.org/1999/xlink" x="0px" y="0px"
	 width="18.108px" height="18.111px" viewBox="0 0 18.108 18.111" enable-background="new 0 0 18.108 18.111" xml:space="preserve">
<g id="XMLID_26_">
	<path id="XMLID_52_" d="M17.306,3.841c0.22,0.188,0.409,0.444,0.566,0.768s0.236,0.62,0.236,0.889v11.644
		c0,0.27-0.11,0.499-0.33,0.688c-0.22,0.188-0.487,0.283-0.802,0.283H1.131c-0.314,0-0.582-0.095-0.801-0.283
		C0.109,17.64,0,17.41,0,17.141V0.97C0,0.7,0.109,0.471,0.33,0.282C0.55,0.094,0.817,0,1.131,0h10.563
		c0.314,0,0.661,0.066,1.038,0.202c0.377,0.135,0.676,0.296,0.896,0.484L17.306,3.841z M16.599,16.817V6.468h-4.904
		c-0.314,0-0.582-0.094-0.802-0.283c-0.22-0.188-0.33-0.417-0.33-0.688V1.293H1.509v15.524H16.599z M10.539,10.824
		c0.259,0.175,0.589,0.363,0.99,0.565c0.464-0.047,0.923-0.07,1.379-0.07c1.155,0,1.851,0.165,2.086,0.495
		c0.126,0.148,0.134,0.323,0.024,0.525c0,0.007-0.004,0.014-0.012,0.021s-0.016,0.014-0.024,0.021v0.01
		c-0.047,0.256-0.326,0.384-0.837,0.384c-0.377,0-0.829-0.067-1.355-0.202c-0.527-0.135-1.038-0.313-1.533-0.535
		c-1.737,0.161-3.277,0.441-4.621,0.839c-1.203,1.765-2.154,2.647-2.853,2.647c-0.118,0-0.228-0.023-0.33-0.07l-0.283-0.121
		C3.163,15.325,3.14,15.308,3.1,15.281c-0.079-0.067-0.102-0.188-0.07-0.363c0.07-0.271,0.291-0.578,0.66-0.926
		c0.369-0.347,0.888-0.672,1.556-0.975c0.11-0.061,0.2-0.041,0.271,0.061c0.016,0.013,0.023,0.026,0.023,0.04
		c0.409-0.572,0.829-1.236,1.262-1.991c0.534-0.916,0.943-1.799,1.226-2.647C7.839,7.927,7.72,7.39,7.668,6.867
		S7.643,5.915,7.745,5.579C7.832,5.31,7.997,5.175,8.24,5.175h0.248H8.5c0.181,0,0.318,0.05,0.413,0.151
		c0.142,0.142,0.177,0.37,0.106,0.687C9.002,6.054,8.987,6.081,8.971,6.094c0.008,0.021,0.012,0.048,0.012,0.081v0.303
		C8.967,7.307,8.912,7.954,8.818,8.419C9.25,9.523,9.824,10.325,10.539,10.824z M3.749,14.978c0.409-0.161,0.947-0.693,1.615-1.597
		c-0.401,0.27-0.745,0.553-1.032,0.85C4.045,14.526,3.851,14.775,3.749,14.978z M6.979,12.36c1.061-0.364,2.177-0.637,3.348-0.818
		c-0.016-0.007-0.067-0.039-0.153-0.097c-0.087-0.057-0.149-0.103-0.189-0.136c-0.597-0.452-1.096-1.045-1.497-1.779
		c-0.212,0.58-0.539,1.243-0.979,1.991C7.273,11.898,7.097,12.179,6.979,12.36z M8.44,5.68C8.323,5.963,8.315,6.407,8.417,7.014
		C8.425,6.967,8.452,6.818,8.5,6.569c0-0.021,0.027-0.165,0.083-0.436c0.008-0.026,0.024-0.053,0.047-0.08
		C8.622,6.047,8.617,6.04,8.617,6.033S8.616,6.021,8.611,6.019C8.607,6.015,8.606,6.01,8.606,6.003
		C8.598,5.854,8.547,5.733,8.452,5.64c0,0.006-0.004,0.014-0.012,0.02V5.68z M12.072,1.374v3.801h4.433
		c-0.079-0.195-0.165-0.334-0.259-0.415l-3.69-3.163C12.461,1.516,12.299,1.441,12.072,1.374z M14.595,12.198
		c-0.188-0.161-0.739-0.242-1.651-0.242c0.598,0.188,1.085,0.283,1.462,0.283c0.11,0,0.181-0.004,0.212-0.011
		C14.618,12.222,14.61,12.212,14.595,12.198z"/>
</g>
</svg>
