<?xml version="1.0" encoding="utf-8"?>
<!-- Generator: Adobe Illustrator 16.0.0, SVG Export Plug-In . SVG Version: 6.00 Build 0)  -->
<!DOCTYPE svg PUBLIC "-//W3C//DTD SVG 1.1//EN" "http://www.w3.org/Graphics/SVG/1.1/DTD/svg11.dtd">
<svg version="1.1" id="Layer_1" xmlns="http://www.w3.org/2000/svg" xmlns:xlink="http://www.w3.org/1999/xlink" x="0px" y="0px"
	 width="18.106px" height="18.107px" viewBox="0 0 18.106 18.107" enable-background="new 0 0 18.106 18.107" xml:space="preserve">
<path fill="#818282" d="M17.444,14.243l-2.926-2.926c-0.591-0.591-1.425-0.777-2.179-0.578L8.86,7.259l0.525-0.525
	c0.442-0.442,0.442-1.159,0-1.601c0.442,0.442,1.159,0.442,1.601,0s0.442-1.158,0-1.6L7.785,0.332c-0.442-0.442-1.158-0.442-1.6,0
	c-0.442,0.442-0.442,1.159,0,1.6c-0.442-0.441-1.159-0.441-1.601,0l-2.71,2.711c-0.39,0.39-0.415,0.985-0.117,1.425
	c-0.44-0.299-1.035-0.274-1.425,0.116c-0.442,0.442-0.442,1.159,0,1.601l3.201,3.201c0.442,0.442,1.159,0.442,1.6,0
	c0.391-0.39,0.415-0.985,0.117-1.426c0.44,0.299,1.035,0.274,1.425-0.116L7.259,8.86l3.48,3.479
	c-0.199,0.754-0.013,1.588,0.578,2.179l2.926,2.926c0.884,0.884,2.317,0.884,3.201,0C18.328,16.56,18.328,15.127,17.444,14.243"/>
</svg>
