<?xml version="1.0" encoding="utf-8"?>
<!-- Generator: Adobe Illustrator 16.0.0, SVG Export Plug-In . SVG Version: 6.00 Build 0)  -->
<!DOCTYPE svg PUBLIC "-//W3C//DTD SVG 1.1//EN" "http://www.w3.org/Graphics/SVG/1.1/DTD/svg11.dtd">
<svg version="1.1" id="Layer_1" xmlns="http://www.w3.org/2000/svg" xmlns:xlink="http://www.w3.org/1999/xlink" x="0px" y="0px"
	 width="18.105px" height="18.105px" viewBox="0 0 18.105 18.105" enable-background="new 0 0 18.105 18.105" xml:space="preserve">
<g>
	<path fill="#676767" d="M12.029,8.319v1.703c0,0.062-0.022,0.123-0.065,0.179c-0.042,0.06-0.091,0.091-0.147,0.097l-1.426,0.224
		c-0.068,0.214-0.167,0.447-0.296,0.697c0.208,0.297,0.484,0.649,0.828,1.061c0.044,0.062,0.064,0.123,0.064,0.185
		c0,0.073-0.021,0.131-0.064,0.174c-0.142,0.187-0.395,0.46-0.758,0.826c-0.366,0.364-0.608,0.548-0.725,0.548
		c-0.067,0-0.131-0.021-0.193-0.063l-1.058-0.831c-0.227,0.118-0.465,0.212-0.71,0.287c-0.068,0.663-0.138,1.14-0.212,1.427
		c-0.043,0.148-0.135,0.222-0.276,0.222H5.277c-0.068,0-0.129-0.023-0.184-0.068c-0.055-0.046-0.086-0.1-0.093-0.161l-0.212-1.411
		c-0.208-0.062-0.438-0.156-0.69-0.285L3.01,13.948c-0.043,0.042-0.105,0.063-0.184,0.063c-0.068,0-0.133-0.025-0.194-0.073
		c-0.884-0.817-1.327-1.309-1.327-1.475c0-0.056,0.021-0.113,0.064-0.175c0.062-0.085,0.188-0.251,0.379-0.49
		c0.19-0.238,0.334-0.424,0.433-0.561c-0.141-0.27-0.248-0.521-0.322-0.756l-1.4-0.22c-0.062-0.008-0.114-0.036-0.157-0.088
		c-0.043-0.051-0.064-0.112-0.064-0.182V8.291c0-0.061,0.021-0.121,0.064-0.18c0.043-0.058,0.093-0.09,0.148-0.097l1.428-0.221
		c0.067-0.215,0.166-0.448,0.294-0.701C1.964,6.799,1.687,6.446,1.343,6.035C1.3,5.967,1.279,5.906,1.279,5.85
		c0-0.073,0.021-0.135,0.064-0.185C1.477,5.482,1.73,5.209,2.098,4.847c0.369-0.363,0.611-0.544,0.729-0.544
		c0.067,0,0.132,0.021,0.193,0.064l1.059,0.83c0.209-0.111,0.446-0.208,0.709-0.295C4.856,4.238,4.926,3.766,5,3.483
		c0.043-0.148,0.136-0.221,0.277-0.221H6.99c0.068,0,0.128,0.023,0.184,0.069c0.057,0.045,0.086,0.1,0.093,0.162l0.212,1.409
		c0.208,0.061,0.438,0.157,0.691,0.285l1.086-0.82c0.05-0.042,0.11-0.064,0.184-0.064c0.069,0,0.133,0.024,0.194,0.074
		c0.886,0.816,1.327,1.308,1.327,1.474c0,0.056-0.021,0.114-0.064,0.175c-0.074,0.099-0.204,0.265-0.387,0.498
		c-0.185,0.233-0.323,0.417-0.415,0.551c0.141,0.296,0.245,0.548,0.313,0.756l1.4,0.211c0.061,0.013,0.114,0.046,0.156,0.097
		C12.006,8.192,12.029,8.251,12.029,8.319z M7.801,10.823c0.461-0.461,0.69-1.016,0.69-1.667c0-0.65-0.229-1.207-0.69-1.666
		C7.34,7.029,6.784,6.799,6.134,6.799c-0.651,0-1.208,0.229-1.668,0.692c-0.459,0.459-0.69,1.016-0.69,1.666
		c0,0.651,0.231,1.206,0.69,1.667c0.46,0.46,1.017,0.691,1.668,0.691C6.784,11.515,7.34,11.283,7.801,10.823z M17.924,3.796v1.29
		c0,0.099-0.458,0.194-1.373,0.285c-0.074,0.167-0.166,0.326-0.276,0.479c0.313,0.694,0.469,1.118,0.469,1.271
		c0,0.025-0.012,0.047-0.035,0.064c-0.75,0.437-1.132,0.654-1.144,0.654c-0.048,0-0.189-0.146-0.423-0.433
		c-0.234-0.289-0.394-0.497-0.479-0.627c-0.123,0.013-0.216,0.019-0.275,0.019c-0.063,0-0.155-0.006-0.277-0.019
		c-0.086,0.13-0.246,0.338-0.48,0.627c-0.233,0.287-0.375,0.433-0.423,0.433c-0.012,0-0.394-0.218-1.142-0.654
		c-0.025-0.017-0.037-0.039-0.037-0.064c0-0.153,0.157-0.577,0.47-1.271c-0.11-0.154-0.203-0.313-0.277-0.479
		c-0.915-0.091-1.373-0.187-1.373-0.285v-1.29c0-0.099,0.458-0.193,1.373-0.286c0.079-0.178,0.173-0.337,0.277-0.479
		c-0.313-0.694-0.47-1.118-0.47-1.272c0-0.024,0.012-0.045,0.037-0.064c0.024-0.012,0.132-0.073,0.322-0.185
		c0.188-0.111,0.371-0.215,0.543-0.313c0.171-0.098,0.265-0.148,0.276-0.148c0.048,0,0.189,0.143,0.423,0.429
		c0.234,0.285,0.395,0.493,0.48,0.622c0.122-0.012,0.214-0.019,0.277-0.019c0.06,0,0.152,0.006,0.275,0.019
		c0.313-0.436,0.596-0.779,0.846-1.032l0.056-0.019c0.024,0,0.406,0.215,1.144,0.645c0.023,0.019,0.035,0.04,0.035,0.064
		c0,0.154-0.156,0.578-0.469,1.272c0.104,0.141,0.197,0.3,0.276,0.479C17.466,3.603,17.924,3.698,17.924,3.796z M17.924,13.229
		v1.289c0,0.097-0.458,0.194-1.373,0.285c-0.074,0.166-0.166,0.324-0.276,0.478c0.313,0.694,0.469,1.118,0.469,1.272
		c0,0.025-0.012,0.046-0.035,0.063c-0.75,0.436-1.132,0.655-1.144,0.655c-0.048,0-0.189-0.145-0.423-0.432
		c-0.234-0.291-0.394-0.499-0.479-0.628c-0.123,0.011-0.216,0.017-0.275,0.017c-0.063,0-0.155-0.006-0.277-0.017
		c-0.086,0.129-0.246,0.337-0.48,0.628c-0.233,0.287-0.375,0.432-0.423,0.432c-0.012,0-0.394-0.22-1.142-0.655
		c-0.025-0.018-0.037-0.038-0.037-0.063c0-0.154,0.157-0.578,0.47-1.272c-0.11-0.153-0.203-0.312-0.277-0.478
		c-0.915-0.091-1.373-0.188-1.373-0.285v-1.289c0-0.099,0.458-0.193,1.373-0.287c0.079-0.178,0.173-0.336,0.277-0.479
		c-0.313-0.693-0.47-1.118-0.47-1.27c0-0.025,0.012-0.047,0.037-0.066c0.024-0.011,0.132-0.073,0.322-0.185
		c0.188-0.109,0.371-0.214,0.543-0.313c0.171-0.098,0.265-0.148,0.276-0.148c0.048,0,0.189,0.143,0.423,0.428
		c0.234,0.288,0.395,0.496,0.48,0.623c0.122-0.012,0.214-0.018,0.277-0.018c0.06,0,0.152,0.006,0.275,0.018
		c0.313-0.436,0.596-0.778,0.846-1.031l0.056-0.02c0.024,0,0.406,0.216,1.144,0.646c0.023,0.02,0.035,0.041,0.035,0.066
		c0,0.151-0.156,0.576-0.469,1.27c0.104,0.143,0.197,0.301,0.276,0.479C17.466,13.035,17.924,13.13,17.924,13.229z M15.565,4.441
		c0-0.319-0.117-0.596-0.349-0.829c-0.234-0.233-0.511-0.35-0.828-0.35c-0.321,0-0.598,0.117-0.832,0.35
		c-0.231,0.233-0.349,0.51-0.349,0.829c0,0.326,0.115,0.603,0.345,0.833c0.23,0.23,0.509,0.346,0.836,0.346
		c0.324,0,0.602-0.116,0.832-0.346C15.45,5.044,15.565,4.767,15.565,4.441z M15.565,13.874c0-0.32-0.117-0.598-0.349-0.831
		c-0.234-0.235-0.511-0.349-0.828-0.349c-0.321,0-0.598,0.113-0.832,0.349c-0.231,0.233-0.349,0.511-0.349,0.831
		c0,0.323,0.115,0.601,0.345,0.832c0.23,0.231,0.509,0.346,0.836,0.346c0.324,0,0.602-0.114,0.832-0.346
		S15.565,14.198,15.565,13.874z"/>
</g>
</svg>
