<?xml version="1.0" encoding="utf-8"?>
<!-- Generator: Adobe Illustrator 16.0.0, SVG Export Plug-In . SVG Version: 6.00 Build 0)  -->
<!DOCTYPE svg PUBLIC "-//W3C//DTD SVG 1.1//EN" "http://www.w3.org/Graphics/SVG/1.1/DTD/svg11.dtd">
<svg version="1.1" id="Layer_1" xmlns="http://www.w3.org/2000/svg" xmlns:xlink="http://www.w3.org/1999/xlink" x="0px" y="0px"
	 width="18.105px" height="18.105px" viewBox="0 0 18.105 18.105" enable-background="new 0 0 18.105 18.105" xml:space="preserve">
<g>
	<path fill="#676767" d="M17.961,7.758v2.576c0,0.092-0.03,0.18-0.091,0.266c-0.064,0.086-0.144,0.136-0.234,0.151l-2.145,0.324
		c-0.149,0.418-0.298,0.77-0.453,1.056c0.271,0.388,0.684,0.921,1.241,1.602c0.078,0.093,0.115,0.189,0.115,0.29
		s-0.033,0.188-0.105,0.266c-0.206,0.286-0.592,0.704-1.146,1.253c-0.558,0.55-0.92,0.824-1.089,0.824
		c-0.095,0-0.196-0.035-0.305-0.104l-1.601-1.254c-0.338,0.18-0.69,0.325-1.056,0.442c-0.122,1.051-0.233,1.771-0.335,2.155
		c-0.055,0.217-0.192,0.325-0.42,0.325H7.764c-0.108,0-0.203-0.032-0.284-0.098c-0.081-0.064-0.125-0.149-0.132-0.249l-0.325-2.134
		c-0.379-0.125-0.728-0.268-1.045-0.43l-1.634,1.241c-0.078,0.069-0.176,0.104-0.291,0.104c-0.108,0-0.203-0.042-0.291-0.129
		c-0.974-0.881-1.61-1.53-1.911-1.948c-0.054-0.077-0.082-0.165-0.082-0.266c0-0.094,0.03-0.183,0.091-0.268
		c0.115-0.163,0.314-0.42,0.592-0.771c0.278-0.352,0.488-0.624,0.626-0.817c-0.21-0.387-0.365-0.77-0.473-1.148L0.48,10.704
		c-0.102-0.016-0.183-0.063-0.243-0.146c-0.061-0.081-0.092-0.171-0.092-0.271V7.711c0-0.093,0.031-0.182,0.092-0.266
		C0.297,7.36,0.371,7.31,0.456,7.294l2.159-0.325c0.108-0.355,0.26-0.711,0.454-1.066C2.757,5.462,2.344,4.928,1.826,4.301
		C1.748,4.208,1.711,4.116,1.711,4.023c0-0.077,0.034-0.167,0.102-0.267c0.203-0.279,0.582-0.694,1.144-1.248
		C3.518,1.956,3.883,1.68,4.052,1.68c0.102,0,0.203,0.039,0.301,0.116l1.601,1.241c0.342-0.178,0.693-0.325,1.055-0.441
		c0.126-1.051,0.237-1.77,0.339-2.157c0.054-0.217,0.193-0.325,0.416-0.325h2.574c0.108,0,0.203,0.033,0.285,0.099
		c0.08,0.066,0.128,0.149,0.135,0.25l0.325,2.134c0.379,0.124,0.728,0.267,1.042,0.43l1.647-1.242
		c0.071-0.069,0.162-0.104,0.281-0.104c0.098,0,0.195,0.039,0.287,0.116c0.998,0.92,1.638,1.578,1.915,1.972
		c0.055,0.062,0.081,0.147,0.081,0.255c0,0.093-0.03,0.182-0.091,0.266c-0.119,0.162-0.315,0.42-0.593,0.771
		c-0.28,0.353-0.486,0.625-0.626,0.818c0.199,0.388,0.358,0.765,0.474,1.137l2.125,0.325c0.099,0.016,0.18,0.064,0.244,0.145
		C17.931,7.567,17.961,7.657,17.961,7.758z M11.151,11.122c0.582-0.58,0.873-1.28,0.873-2.1c0-0.82-0.291-1.52-0.873-2.099
		c-0.578-0.581-1.279-0.871-2.098-0.871c-0.819,0-1.519,0.29-2.101,0.871c-0.579,0.579-0.87,1.279-0.87,2.099
		c0,0.819,0.291,1.52,0.87,2.1c0.582,0.58,1.282,0.87,2.101,0.87C9.871,11.992,10.573,11.702,11.151,11.122z"/>
</g>
</svg>
