<?xml version="1.0" encoding="utf-8"?>
<!-- Generator: Adobe Illustrator 16.0.0, SVG Export Plug-In . SVG Version: 6.00 Build 0)  -->
<!DOCTYPE svg PUBLIC "-//W3C//DTD SVG 1.1//EN" "http://www.w3.org/Graphics/SVG/1.1/DTD/svg11.dtd">
<svg version="1.1" id="Layer_1" xmlns="http://www.w3.org/2000/svg" xmlns:xlink="http://www.w3.org/1999/xlink" x="0px" y="0px"
	 width="14.061px" height="14.059px" viewBox="0 0 14.061 14.059" enable-background="new 0 0 14.061 14.059" xml:space="preserve">
<g>
	<path d="M13.59,7.208c0,1.429-0.416,2.714-1.251,3.856c-0.835,1.142-1.913,1.932-3.233,2.37c-0.154,0.027-0.267,0.008-0.336-0.06
		c-0.072-0.069-0.107-0.154-0.107-0.257v-1.802c0-0.553-0.149-0.958-0.446-1.213c0.327-0.034,0.618-0.085,0.877-0.154
		s0.526-0.179,0.803-0.334c0.276-0.153,0.509-0.341,0.692-0.567c0.185-0.225,0.337-0.523,0.454-0.897
		c0.114-0.371,0.174-0.8,0.174-1.285c0-0.689-0.225-1.275-0.675-1.76c0.212-0.518,0.187-1.099-0.068-1.742
		c-0.159-0.051-0.391-0.02-0.691,0.094C9.479,3.572,9.218,3.697,8.994,3.834L8.67,4.039C8.142,3.89,7.593,3.817,7.03,3.817
		S5.92,3.89,5.391,4.039C5.3,3.976,5.178,3.899,5.027,3.808c-0.15-0.092-0.388-0.201-0.712-0.329
		C3.99,3.351,3.745,3.313,3.579,3.364c-0.25,0.644-0.27,1.224-0.06,1.742C3.07,5.591,2.844,6.177,2.844,6.866
		c0,0.484,0.059,0.912,0.175,1.282c0.116,0.37,0.266,0.668,0.449,0.896C3.65,9.273,3.88,9.462,4.156,9.615
		C4.433,9.771,4.699,9.88,4.958,9.949c0.259,0.069,0.552,0.12,0.876,0.154c-0.228,0.205-0.368,0.498-0.419,0.88
		c-0.119,0.058-0.248,0.1-0.384,0.127c-0.137,0.029-0.298,0.044-0.486,0.044c-0.188,0-0.375-0.062-0.56-0.184
		C3.8,10.849,3.642,10.67,3.511,10.437c-0.108-0.184-0.247-0.33-0.414-0.445C2.929,9.878,2.789,9.81,2.674,9.788L2.503,9.762
		c-0.12,0-0.202,0.014-0.248,0.038c-0.046,0.024-0.06,0.059-0.042,0.099c0.017,0.04,0.042,0.079,0.077,0.12
		c0.033,0.039,0.071,0.072,0.111,0.101l0.06,0.045c0.125,0.057,0.249,0.164,0.371,0.323c0.122,0.16,0.211,0.305,0.269,0.437
		l0.086,0.196c0.073,0.217,0.199,0.391,0.375,0.524c0.177,0.133,0.367,0.221,0.573,0.256c0.204,0.037,0.402,0.057,0.593,0.061
		c0.191,0.004,0.349-0.006,0.475-0.029l0.197-0.034c0,0.217,0.001,0.468,0.004,0.76c0.002,0.289,0.003,0.443,0.003,0.461
		c0,0.103-0.036,0.188-0.11,0.257c-0.074,0.067-0.188,0.087-0.341,0.06c-1.322-0.438-2.399-1.229-3.232-2.37
		C0.888,9.922,0.47,8.637,0.47,7.208c0-1.19,0.293-2.288,0.879-3.293s1.383-1.8,2.388-2.387c1.005-0.587,2.103-0.88,3.292-0.88
		c1.191,0,2.288,0.293,3.294,0.88c1.004,0.587,1.798,1.382,2.387,2.387C13.296,4.92,13.59,6.018,13.59,7.208z"/>
</g>
</svg>
