<?xml version="1.0" encoding="utf-8"?>
<!-- Generator: Adobe Illustrator 16.0.0, SVG Export Plug-In . SVG Version: 6.00 Build 0)  -->
<!DOCTYPE svg PUBLIC "-//W3C//DTD SVG 1.1//EN" "http://www.w3.org/Graphics/SVG/1.1/DTD/svg11.dtd">
<svg version="1.1" id="Layer_1" xmlns="http://www.w3.org/2000/svg" xmlns:xlink="http://www.w3.org/1999/xlink" x="0px" y="0px"
	 width="15.937px" height="18.039px" viewBox="0 0 15.937 18.039" enable-background="new 0 0 15.937 18.039" xml:space="preserve">
<path fill="#818282" d="M10.915,13.961c-0.885,0.422-1.873,0.666-2.92,0.666c-1.063,0-2.064-0.251-2.96-0.687
	c-1.412,0.481-2.669,1.295-3.671,2.356c-0.622,0.659-0.174,1.741,0.732,1.741h11.708c0.906,0,1.354-1.082,0.732-1.741
	C13.545,15.25,12.306,14.443,10.915,13.961 M15.437,3.613L8.371,0.094c-0.253-0.126-0.551-0.126-0.804,0L0.5,3.612
	c-0.666,0.332-0.666,1.284,0,1.616L0.645,5.3v2.69C0.315,8.19,0.083,8.534,0.083,8.946c0,0.377,0.197,0.695,0.48,0.901
	C0.531,9.915,0.5,9.985,0.488,10.063l-0.421,2.5c-0.08,0.476,0.269,0.91,0.73,0.91h0.81c0.456,0,0.804-0.429,0.731-0.901
	l-0.389-2.499C1.936,9.99,1.906,9.916,1.872,9.844c0.281-0.206,0.476-0.522,0.476-0.898c0-0.435-0.254-0.801-0.615-0.989V5.841
	l5.834,2.906c0.253,0.127,0.551,0.127,0.804,0l7.066-3.52C16.104,4.896,16.104,3.945,15.437,3.613 M13.664,7.815
	c0-0.188-0.01-0.375-0.028-0.559L8.371,9.878c-0.253,0.126-0.551,0.126-0.804,0L2.352,7.281C2.335,7.458,2.326,7.635,2.326,7.815
	c0,3.131,2.538,5.669,5.669,5.669S13.664,10.946,13.664,7.815"/>
</svg>
