<?xml version="1.0" encoding="utf-8"?>
<!-- Generator: Adobe Illustrator 16.0.0, SVG Export Plug-In . SVG Version: 6.00 Build 0)  -->
<!DOCTYPE svg PUBLIC "-//W3C//DTD SVG 1.1//EN" "http://www.w3.org/Graphics/SVG/1.1/DTD/svg11.dtd">
<svg version="1.1" id="Layer_1" xmlns="http://www.w3.org/2000/svg" xmlns:xlink="http://www.w3.org/1999/xlink" x="0px" y="0px"
	 width="14.061px" height="14.059px" viewBox="0 0 14.061 14.059" enable-background="new 0 0 14.061 14.059" xml:space="preserve">
<g>
	<rect x="0.281" y="2.196" fill="#676767" width="13.5" height="10.104"/>
	<g>
		<circle fill="#FFFFFF" cx="3.701" cy="6.213" r="1.035"/>
		<path fill="#FFFFFF" d="M4.324,7.346C4.139,7.448,3.928,7.507,3.701,7.507c-0.229,0-0.442-0.06-0.629-0.165
			C2.23,7.607,1.619,8.39,1.615,9.319h4.156C5.767,8.394,5.161,7.614,4.324,7.346z"/>
	</g>
	<g>
		<path fill="#FFFFFF" d="M7.181,5.982c0,0.172,0.45,0.313,1,0.313h3.266c0.55,0,1-0.141,1-0.313c0-0.172-0.45-0.313-1-0.313H8.181
			C7.631,5.668,7.181,5.809,7.181,5.982z"/>
	</g>
	<g>
		<path fill="#FFFFFF" d="M7.181,8.798c0,0.173,0.45,0.313,1,0.313h3.266c0.55,0,1-0.141,1-0.313s-0.45-0.313-1-0.313H8.181
			C7.631,8.485,7.181,8.625,7.181,8.798z"/>
	</g>
	<g>
		<path fill="#FFFFFF" d="M7.181,7.39c0,0.173,0.45,0.314,1,0.314h3.266c0.55,0,1-0.142,1-0.314c0-0.172-0.45-0.314-1-0.314H8.181
			C7.631,7.076,7.181,7.218,7.181,7.39z"/>
	</g>
</g>
</svg>
