<?xml version="1.0" encoding="utf-8"?>
<!-- Generator: Adobe Illustrator 16.0.0, SVG Export Plug-In . SVG Version: 6.00 Build 0)  -->
<!DOCTYPE svg PUBLIC "-//W3C//DTD SVG 1.1//EN" "http://www.w3.org/Graphics/SVG/1.1/DTD/svg11.dtd">
<svg version="1.1" id="Layer_1" xmlns="http://www.w3.org/2000/svg" xmlns:xlink="http://www.w3.org/1999/xlink" x="0px" y="0px"
	 width="18.211px" height="5.771px" viewBox="0 4.149 18.211 5.771" enable-background="new 0 4.149 18.211 5.771"
	 xml:space="preserve">
<g>
	<path fill="#0B355E" d="M7.575,6.101c0-0.09,0.023-0.162,0.067-0.211c0.045-0.05,0.119-0.074,0.219-0.074S8.035,5.84,8.081,5.89
		c0.045,0.049,0.066,0.121,0.066,0.211c0,0.093-0.021,0.162-0.066,0.213C8.035,6.362,7.962,6.388,7.861,6.388
		S7.688,6.362,7.642,6.313C7.598,6.263,7.575,6.193,7.575,6.101 M7.622,6.788c0-0.023,0.008-0.043,0.024-0.058
		s0.035-0.022,0.055-0.022h0.32c0.021,0,0.04,0.008,0.056,0.022c0.017,0.015,0.024,0.034,0.024,0.058V8.81
		c0,0.023-0.007,0.045-0.024,0.059C8.062,8.884,8.042,8.89,8.021,8.89h-0.32c-0.021,0-0.039-0.006-0.055-0.021
		C7.63,8.854,7.622,8.833,7.622,8.81V6.788z"/>
	<path fill="#0B355E" d="M9.42,7.053c-0.092,0-0.18,0.018-0.265,0.05C9.07,7.136,8.999,7.187,8.939,7.251V8.81
		c0,0.023-0.008,0.045-0.024,0.059C8.899,8.884,8.88,8.89,8.86,8.89H8.536c-0.021,0-0.04-0.006-0.054-0.021
		C8.467,8.854,8.46,8.833,8.46,8.81V6.788c0-0.021,0.007-0.04,0.021-0.055c0.015-0.018,0.033-0.025,0.054-0.025H8.86
		c0.021,0,0.039,0.008,0.055,0.025c0.016,0.015,0.024,0.033,0.024,0.055v0.051c0.084-0.066,0.173-0.112,0.268-0.141
		c0.095-0.027,0.188-0.041,0.285-0.041c0.137,0,0.261,0.021,0.374,0.064c0.109,0.044,0.204,0.106,0.282,0.191
		c0.078,0.083,0.138,0.188,0.179,0.313s0.063,0.27,0.063,0.434v1.15c0,0.023-0.007,0.045-0.022,0.059
		c-0.015,0.016-0.032,0.021-0.054,0.021H9.983c-0.021,0-0.039-0.006-0.053-0.021C9.915,8.854,9.908,8.833,9.908,8.81V7.655
		c0-0.208-0.039-0.361-0.119-0.457C9.71,7.101,9.587,7.053,9.42,7.053"/>
	<path fill="#0B355E" d="M13.021,6.038c0.037,0.017,0.053,0.044,0.049,0.086l-0.027,0.332c-0.002,0.027-0.013,0.045-0.029,0.054
		c-0.018,0.009-0.04,0.006-0.067-0.009c-0.057-0.027-0.116-0.053-0.18-0.072c-0.063-0.021-0.128-0.039-0.193-0.055
		c-0.066-0.014-0.133-0.026-0.198-0.033c-0.067-0.008-0.131-0.012-0.191-0.012c-0.164,0-0.313,0.026-0.446,0.08
		c-0.132,0.053-0.245,0.129-0.34,0.223C11.304,6.73,11.23,6.845,11.18,6.978c-0.051,0.135-0.076,0.279-0.076,0.438
		c0,0.165,0.025,0.314,0.076,0.448s0.125,0.248,0.221,0.343c0.097,0.096,0.216,0.169,0.354,0.219
		c0.14,0.053,0.296,0.076,0.475,0.076c0.074,0,0.145-0.004,0.211-0.01s0.131-0.02,0.192-0.041V7.647h-0.693
		c-0.021,0-0.041-0.009-0.057-0.025c-0.017-0.016-0.024-0.033-0.024-0.055V7.299c0-0.025,0.008-0.044,0.024-0.06
		c0.016-0.014,0.035-0.021,0.057-0.021h1.111c0.022,0,0.042,0.008,0.057,0.021c0.015,0.016,0.023,0.034,0.023,0.06v1.403
		c0,0.023-0.007,0.043-0.018,0.059c-0.012,0.018-0.026,0.025-0.044,0.035c-0.133,0.049-0.269,0.088-0.408,0.111
		s-0.29,0.034-0.453,0.034c-0.244,0-0.466-0.037-0.663-0.114c-0.198-0.076-0.368-0.181-0.508-0.317
		c-0.141-0.135-0.249-0.295-0.324-0.481c-0.076-0.188-0.114-0.391-0.114-0.613c0-0.216,0.037-0.416,0.11-0.602
		c0.074-0.186,0.179-0.346,0.314-0.483c0.136-0.137,0.3-0.243,0.491-0.322c0.191-0.077,0.409-0.116,0.647-0.116
		c0.152,0,0.301,0.012,0.444,0.035C12.752,5.95,12.889,5.987,13.021,6.038"/>
	<path fill="#0B355E" d="M14.153,8.941c-0.115,0-0.226-0.017-0.326-0.046c-0.1-0.029-0.188-0.076-0.265-0.135
		c-0.075-0.059-0.135-0.132-0.177-0.223c-0.044-0.088-0.066-0.189-0.066-0.305c0-0.113,0.021-0.216,0.065-0.306
		c0.042-0.091,0.105-0.169,0.188-0.233c0.085-0.064,0.188-0.114,0.309-0.15c0.121-0.035,0.261-0.053,0.421-0.053h0.45V7.386
		c0-0.064-0.009-0.118-0.026-0.16c-0.017-0.043-0.045-0.078-0.083-0.102c-0.038-0.025-0.087-0.045-0.145-0.055
		c-0.059-0.011-0.128-0.017-0.21-0.017c-0.116,0-0.23,0.015-0.345,0.041c-0.115,0.028-0.219,0.065-0.315,0.115
		c-0.055,0.026-0.086,0.007-0.094-0.058l-0.03-0.253c-0.003-0.034,0.01-0.06,0.043-0.076c0.048-0.024,0.103-0.048,0.163-0.068
		s0.123-0.038,0.188-0.053c0.066-0.013,0.135-0.024,0.203-0.032c0.07-0.008,0.139-0.012,0.208-0.012
		c0.157,0,0.295,0.015,0.411,0.043c0.116,0.027,0.212,0.074,0.287,0.139c0.077,0.064,0.133,0.148,0.168,0.254
		c0.038,0.105,0.056,0.233,0.056,0.387v1.33c0,0.023-0.009,0.045-0.024,0.059C15.19,8.884,15.173,8.89,15.152,8.89h-0.321
		c-0.02,0-0.04-0.006-0.055-0.021c-0.016-0.014-0.024-0.035-0.024-0.059V8.761c-0.043,0.035-0.089,0.064-0.138,0.088
		c-0.048,0.023-0.1,0.041-0.151,0.056c-0.05,0.012-0.102,0.023-0.155,0.029C14.256,8.938,14.204,8.941,14.153,8.941 M14.221,8.544
		c0.11,0,0.211-0.014,0.302-0.047c0.091-0.031,0.168-0.082,0.229-0.15V7.88h-0.434c-0.092,0-0.17,0.007-0.233,0.023
		C14.02,7.917,13.967,7.94,13.926,7.97s-0.07,0.065-0.09,0.108c-0.02,0.042-0.029,0.091-0.029,0.146
		c0,0.113,0.038,0.195,0.112,0.244C13.994,8.519,14.096,8.544,14.221,8.544"/>
	<path fill="#0B355E" d="M15.522,6.101c0-0.09,0.021-0.162,0.067-0.211c0.044-0.05,0.118-0.074,0.221-0.074
		c0.098,0,0.171,0.024,0.216,0.074c0.047,0.049,0.07,0.121,0.07,0.211c0,0.093-0.023,0.162-0.07,0.213
		c-0.045,0.049-0.118,0.074-0.216,0.074c-0.103,0-0.177-0.025-0.221-0.074C15.544,6.263,15.522,6.193,15.522,6.101 M15.567,6.788
		c0-0.023,0.009-0.043,0.025-0.058c0.015-0.015,0.034-0.022,0.057-0.022h0.317c0.022,0,0.041,0.008,0.058,0.022
		s0.025,0.034,0.025,0.058V8.81c0,0.023-0.009,0.045-0.025,0.059c-0.017,0.016-0.035,0.021-0.058,0.021h-0.317
		c-0.022,0-0.042-0.006-0.057-0.021c-0.017-0.014-0.025-0.035-0.025-0.059V6.788z"/>
	<path fill="#0B355E" d="M17.094,8.941c-0.116,0-0.226-0.017-0.325-0.046c-0.104-0.029-0.191-0.076-0.266-0.135
		c-0.075-0.059-0.136-0.132-0.18-0.223c-0.042-0.088-0.064-0.189-0.064-0.305c0-0.113,0.022-0.216,0.064-0.306
		c0.043-0.091,0.107-0.169,0.19-0.233c0.081-0.064,0.186-0.114,0.307-0.15c0.12-0.035,0.262-0.053,0.421-0.053h0.449V7.386
		c0-0.064-0.009-0.118-0.025-0.16c-0.018-0.043-0.045-0.078-0.083-0.102c-0.037-0.025-0.088-0.045-0.145-0.055
		c-0.058-0.011-0.129-0.017-0.21-0.017c-0.115,0-0.232,0.015-0.345,0.041c-0.113,0.028-0.219,0.065-0.317,0.115
		c-0.052,0.026-0.082,0.007-0.091-0.058l-0.03-0.253c-0.003-0.034,0.01-0.06,0.044-0.076c0.046-0.024,0.1-0.048,0.159-0.068
		c0.062-0.021,0.127-0.038,0.191-0.053c0.065-0.013,0.133-0.024,0.203-0.032c0.069-0.008,0.139-0.012,0.207-0.012
		c0.158,0,0.296,0.015,0.412,0.043c0.115,0.027,0.212,0.074,0.287,0.139s0.132,0.148,0.168,0.254
		c0.037,0.105,0.056,0.233,0.056,0.387v1.33c0,0.023-0.009,0.045-0.024,0.059c-0.017,0.016-0.035,0.021-0.056,0.021h-0.32
		c-0.021,0-0.041-0.006-0.056-0.021C17.699,8.854,17.69,8.833,17.69,8.81V8.761c-0.043,0.035-0.088,0.064-0.137,0.088
		s-0.099,0.041-0.149,0.056c-0.053,0.012-0.104,0.023-0.157,0.029C17.197,8.938,17.145,8.941,17.094,8.941 M17.16,8.544
		c0.109,0,0.211-0.014,0.302-0.047c0.092-0.031,0.167-0.082,0.229-0.15V7.88h-0.433c-0.092,0-0.169,0.007-0.233,0.023
		C16.96,7.917,16.905,7.94,16.865,7.97c-0.039,0.029-0.069,0.065-0.088,0.108c-0.02,0.042-0.03,0.091-0.03,0.146
		c0,0.113,0.039,0.195,0.112,0.244C16.934,8.519,17.033,8.544,17.16,8.544"/>
	<path fill-rule="evenodd" clip-rule="evenodd" fill="#0B355E" d="M4.665,4.435c0.18,0,0.326,0.146,0.325,0.33
		c0,0.176-0.148,0.322-0.326,0.32C4.485,5.084,4.336,4.934,4.339,4.757C4.342,4.577,4.487,4.435,4.665,4.435"/>
	<path fill-rule="evenodd" clip-rule="evenodd" fill="#0B355E" d="M3.691,4.257c0.178,0,0.324,0.146,0.325,0.324
		c0.001,0.18-0.146,0.326-0.328,0.326C3.51,4.905,3.365,4.761,3.364,4.583C3.363,4.403,3.51,4.257,3.691,4.257"/>
	<path fill-rule="evenodd" clip-rule="evenodd" fill="#0B355E" d="M4.334,8.41C4.332,8.585,4.183,8.737,4.013,8.731
		c-0.197-0.006-0.324-0.138-0.33-0.333c-0.006-0.173,0.155-0.323,0.328-0.32C4.192,8.081,4.336,8.228,4.334,8.41"/>
	<path fill-rule="evenodd" clip-rule="evenodd" fill="#0B355E" d="M0.06,7.761c0-0.023,0-0.047-0.001-0.07
		C0.092,7.516,0.18,7.424,0.338,7.395c0.148-0.024,0.292,0.06,0.353,0.21c0.052,0.127,0.004,0.289-0.109,0.371
		C0.383,8.116,0.13,8.023,0.07,7.789C0.067,7.778,0.063,7.771,0.06,7.761"/>
	<path fill-rule="evenodd" clip-rule="evenodd" fill="#0B355E" d="M5.578,7.634c-0.18,0-0.327-0.146-0.326-0.326
		c0.001-0.179,0.146-0.324,0.324-0.324c0.181,0,0.328,0.146,0.327,0.326C5.903,7.488,5.756,7.634,5.578,7.634"/>
	<path fill-rule="evenodd" clip-rule="evenodd" fill="#0B355E" d="M0.894,6.744C0.893,6.925,0.75,7.069,0.572,7.069
		c-0.181,0-0.326-0.146-0.326-0.328c0.001-0.178,0.146-0.324,0.323-0.326C0.748,6.415,0.894,6.563,0.894,6.744"/>
	<path fill-rule="evenodd" clip-rule="evenodd" fill="#0B355E" d="M3.044,9.154C3.046,8.97,3.19,8.827,3.374,8.831
		c0.175,0,0.319,0.147,0.317,0.329C3.69,9.338,3.547,9.481,3.367,9.481C3.185,9.481,3.044,9.338,3.044,9.154"/>
	<path fill-rule="evenodd" clip-rule="evenodd" fill="#0B355E" d="M0.388,8.649c0.001-0.182,0.149-0.328,0.329-0.324
		c0.171,0.001,0.321,0.152,0.32,0.321c0,0.185-0.145,0.332-0.324,0.332C0.533,8.976,0.386,8.831,0.388,8.649"/>
	<path fill-rule="evenodd" clip-rule="evenodd" fill="#0B355E" d="M1.514,6.017c0.007,0.16-0.123,0.318-0.323,0.324
		c-0.18,0.004-0.324-0.147-0.324-0.33c0-0.176,0.146-0.322,0.324-0.322C1.373,5.688,1.514,5.831,1.514,6.017"/>
	<path fill-rule="evenodd" clip-rule="evenodd" fill="#0B355E" d="M4.612,8.056c0.004-0.182,0.15-0.324,0.333-0.319
		c0.178,0.003,0.319,0.15,0.316,0.33C5.258,8.247,5.112,8.39,4.929,8.384C4.75,8.381,4.608,8.234,4.612,8.056"/>
	<path fill-rule="evenodd" clip-rule="evenodd" fill="#0B355E" d="M2.436,4.915c0.001-0.18,0.146-0.323,0.325-0.323
		c0.18,0,0.327,0.149,0.325,0.33c-0.001,0.181-0.15,0.323-0.331,0.321C2.576,5.24,2.434,5.094,2.436,4.915"/>
	<path fill-rule="evenodd" clip-rule="evenodd" fill="#0B355E" d="M5.744,5.405c-0.002,0.184-0.149,0.324-0.332,0.32
		c-0.177-0.002-0.32-0.15-0.318-0.33c0.003-0.18,0.147-0.32,0.327-0.318C5.604,5.078,5.746,5.224,5.744,5.405"/>
	<path fill-rule="evenodd" clip-rule="evenodd" fill="#0B355E" d="M3.864,7.43c0-0.183,0.138-0.323,0.318-0.323
		C4.364,7.104,4.51,7.249,4.51,7.43c0,0.181-0.14,0.323-0.32,0.324C4.007,7.757,3.864,7.614,3.864,7.43"/>
	<path fill-rule="evenodd" clip-rule="evenodd" fill="#0B355E" d="M1.453,8.976c0.178-0.009,0.33,0.129,0.334,0.315
		C1.792,9.47,1.666,9.61,1.49,9.622C1.306,9.636,1.146,9.496,1.138,9.323C1.128,9.131,1.258,8.984,1.453,8.976"/>
	<path fill-rule="evenodd" clip-rule="evenodd" fill="#0B355E" d="M4.334,8.407C4.333,8.585,4.185,8.733,4.01,8.731
		c-0.182-0.004-0.327-0.149-0.327-0.33C3.682,8.228,3.832,8.078,4.008,8.078C4.188,8.078,4.335,8.226,4.334,8.407"/>
	<path fill-rule="evenodd" clip-rule="evenodd" fill="#0B355E" d="M2.12,6.003c-0.18,0-0.326-0.148-0.326-0.328
		c0.002-0.176,0.152-0.324,0.328-0.32c0.182,0.002,0.326,0.146,0.325,0.328C2.447,5.858,2.298,6.005,2.12,6.003"/>
	<path fill-rule="evenodd" clip-rule="evenodd" fill="#0B355E" d="M0.06,7.761c0-0.023,0-0.047-0.001-0.07
		c0.036-0.178,0.125-0.271,0.285-0.297c0.122-0.02,0.253,0.045,0.318,0.152c0.071,0.119,0.064,0.259-0.018,0.369
		C0.571,8.012,0.433,8.063,0.316,8.034C0.171,7.999,0.092,7.901,0.06,7.761"/>
	<path fill-rule="evenodd" clip-rule="evenodd" fill="#0B355E" d="M3.095,6.181c-0.178,0-0.327-0.149-0.325-0.323
		C2.773,5.674,2.917,5.53,3.098,5.53c0.18,0,0.325,0.149,0.324,0.33C3.42,6.038,3.274,6.182,3.095,6.181"/>
	<path fill-rule="evenodd" clip-rule="evenodd" fill="#0B355E" d="M3.853,6.823c-0.178,0-0.326-0.145-0.326-0.322
		c-0.001-0.183,0.14-0.326,0.323-0.33c0.176-0.002,0.329,0.15,0.328,0.327C4.176,6.678,4.031,6.822,3.853,6.823"/>
	<path fill-rule="evenodd" clip-rule="evenodd" fill="#0B355E" d="M0.246,6.743c0-0.18,0.145-0.324,0.323-0.326
		c0.179-0.002,0.326,0.145,0.325,0.327c0,0.179-0.143,0.323-0.321,0.325C0.391,7.069,0.246,6.925,0.246,6.743"/>
	<path fill-rule="evenodd" clip-rule="evenodd" fill="#0B355E" d="M3.044,9.151c0.003-0.182,0.147-0.32,0.328-0.32
		c0.178,0,0.323,0.15,0.32,0.332C3.689,9.344,3.541,9.484,3.358,9.481C3.179,9.479,3.042,9.332,3.044,9.151"/>
	<path fill-rule="evenodd" clip-rule="evenodd" fill="#0B355E" d="M1.037,8.652c-0.003,0.185-0.15,0.329-0.329,0.323
		c-0.183-0.003-0.325-0.154-0.32-0.338c0.004-0.172,0.153-0.316,0.329-0.313C0.893,8.327,1.04,8.479,1.037,8.652"/>
	<path fill-rule="evenodd" clip-rule="evenodd" fill="#0B355E" d="M1.515,6.015c0,0.18-0.146,0.326-0.322,0.326
		c-0.18,0-0.325-0.147-0.325-0.328c0-0.178,0.146-0.323,0.323-0.323C1.373,5.689,1.516,5.833,1.515,6.015"/>
	<path fill-rule="evenodd" clip-rule="evenodd" fill="#0B355E" d="M3.863,7.429c0-0.182,0.142-0.322,0.322-0.322
		C4.365,7.104,4.511,7.25,4.511,7.431c0,0.18-0.143,0.323-0.323,0.323C4.005,7.755,3.862,7.612,3.863,7.429"/>
	<path fill-rule="evenodd" clip-rule="evenodd" fill="#0B355E" d="M1.461,9.625c-0.181,0-0.325-0.149-0.324-0.331
		c0-0.184,0.145-0.321,0.337-0.321c0.167,0.003,0.316,0.158,0.313,0.33C1.787,9.481,1.641,9.625,1.461,9.625"/>
	<path fill-rule="evenodd" clip-rule="evenodd" fill="#0B355E" d="M6.079,6.336C6.077,6.519,5.93,6.66,5.747,6.657
		c-0.177-0.003-0.32-0.152-0.317-0.33c0.002-0.18,0.147-0.32,0.327-0.319C5.938,6.008,6.08,6.153,6.079,6.336"/>
	<path fill-rule="evenodd" clip-rule="evenodd" fill="#0B355E" d="M2.109,9.479C2.111,9.3,2.257,9.157,2.437,9.157
		C2.615,9.16,2.76,9.309,2.757,9.493C2.754,9.674,2.606,9.814,2.423,9.812C2.246,9.806,2.106,9.659,2.109,9.479"/>
</g>
</svg>
