<?xml version="1.0" encoding="utf-8"?>
<!-- Generator: Adobe Illustrator 16.0.0, SVG Export Plug-In . SVG Version: 6.00 Build 0)  -->
<!DOCTYPE svg PUBLIC "-//W3C//DTD SVG 1.1//EN" "http://www.w3.org/Graphics/SVG/1.1/DTD/svg11.dtd">
<svg version="1.1" id="Layer_1" xmlns="http://www.w3.org/2000/svg" xmlns:xlink="http://www.w3.org/1999/xlink" x="0px" y="0px"
	 width="18px" height="18px" viewBox="0 0 18 18" enable-background="new 0 0 18 18" xml:space="preserve">
<path fill="#818282" d="M12.305,0C9.16,0,6.611,2.55,6.611,5.694c0,0.739,0.145,1.443,0.401,2.091l-6.349,6.351
	c-0.884,0.884-0.884,2.316,0,3.201c0.883,0.884,2.316,0.884,3.2,0l1.844-1.845c-0.169-0.206-0.284-0.458-0.284-0.746
	c0-0.654,0.532-1.188,1.188-1.188c0.286,0,0.539,0.115,0.745,0.284l2.856-2.856c0.648,0.257,1.353,0.402,2.093,0.402
	c3.146,0,5.694-2.551,5.694-5.695S15.451,0,12.305,0z M14.563,4.577c-0.655,0-1.187-0.531-1.187-1.188
	c0-0.656,0.531-1.188,1.187-1.188s1.187,0.531,1.187,1.188C15.75,4.045,15.218,4.577,14.563,4.577z"/>
</svg>
