<?xml version="1.0" encoding="utf-8"?>
<!-- Generator: Adobe Illustrator 16.0.0, SVG Export Plug-In . SVG Version: 6.00 Build 0)  -->
<!DOCTYPE svg PUBLIC "-//W3C//DTD SVG 1.1//EN" "http://www.w3.org/Graphics/SVG/1.1/DTD/svg11.dtd">
<svg version="1.1" id="Layer_1" xmlns="http://www.w3.org/2000/svg" xmlns:xlink="http://www.w3.org/1999/xlink" x="0px" y="0px"
	 width="18.105px" height="15.773px" viewBox="0 0 18.105 15.773" enable-background="new 0 0 18.105 15.773" xml:space="preserve">
<path fill="#818282" d="M15.884,2.256H9.068C9.068,1.01,8.058,0,6.813,0H2.337C1.092,0,0.082,1.01,0.082,2.256H0v11.296
	c0,1.228,0.994,2.223,2.222,2.223h13.662c1.227,0,2.222-0.995,2.222-2.223V4.478C18.106,3.25,17.111,2.256,15.884,2.256z
	 M3.419,13.59c-0.64,0-1.156-0.518-1.156-1.155c0-0.639,0.517-1.156,1.156-1.156c0.639,0,1.156,0.518,1.156,1.156
	C4.575,13.072,4.058,13.59,3.419,13.59z M3.419,10.194c-0.64,0-1.156-0.518-1.156-1.155S2.78,7.883,3.419,7.883
	c0.639,0,1.156,0.518,1.156,1.156S4.058,10.194,3.419,10.194z M3.419,6.801c-0.64,0-1.156-0.519-1.156-1.155
	c0-0.64,0.517-1.156,1.156-1.156c0.639,0,1.156,0.518,1.156,1.156C4.575,6.282,4.058,6.801,3.419,6.801z M6.626,4.511h7.96
	c0.625,0,1.132,0.507,1.132,1.132s-0.507,1.131-1.132,1.131h-7.96c-0.625,0-1.132-0.506-1.132-1.131S6.001,4.511,6.626,4.511z
	 M14.711,13.541h-7.96c-0.625,0-1.132-0.507-1.132-1.132s0.507-1.132,1.132-1.132h7.96c0.625,0,1.132,0.507,1.132,1.132
	S15.336,13.541,14.711,13.541z M14.711,10.146h-7.96c-0.625,0-1.132-0.507-1.132-1.132s0.507-1.133,1.132-1.133h7.96
	c0.625,0,1.132,0.508,1.132,1.133S15.336,10.146,14.711,10.146z"/>
</svg>
