<?xml version="1.0" encoding="utf-8"?>
<!-- Generator: Adobe Illustrator 16.0.0, SVG Export Plug-In . SVG Version: 6.00 Build 0)  -->
<!DOCTYPE svg PUBLIC "-//W3C//DTD SVG 1.1//EN" "http://www.w3.org/Graphics/SVG/1.1/DTD/svg11.dtd">
<svg version="1.1" id="Layer_1" xmlns="http://www.w3.org/2000/svg" xmlns:xlink="http://www.w3.org/1999/xlink" x="0px" y="0px"
	 width="18.105px" height="15.881px" viewBox="0 0 18.105 15.881" enable-background="new 0 0 18.105 15.881" xml:space="preserve">
<path fill="#676767" d="M13.951,5.997V2.152c0-1.141-0.933-2.074-2.072-2.074H6.205c-1.14,0-2.074,0.933-2.074,2.074v3.847
	c-1.096,0.14-1.953,1.073-1.953,2.206v5.384c0,1.229,1.005,2.234,2.234,2.234h9.28c1.229,0,2.235-1.005,2.235-2.234V8.205
	C15.927,7.065,15.059,6.128,13.951,5.997 M7.119,2.042h3.843c0.576,0,1.047,0.471,1.047,1.046v2.883H6.073V3.088
	C6.073,2.512,6.544,2.042,7.119,2.042 M10.023,11.879c0,0.539-0.441,0.981-0.981,0.981s-0.982-0.442-0.982-0.981V9.915
	c0-0.54,0.442-0.982,0.982-0.982s0.981,0.442,0.981,0.982V11.879z"/>
</svg>
