<?xml version="1.0" encoding="utf-8"?>
<!-- Generator: Adobe Illustrator 16.0.0, SVG Export Plug-In . SVG Version: 6.00 Build 0)  -->
<!DOCTYPE svg PUBLIC "-//W3C//DTD SVG 1.1//EN" "http://www.w3.org/Graphics/SVG/1.1/DTD/svg11.dtd">
<svg version="1.1" id="Camada_1" xmlns="http://www.w3.org/2000/svg" xmlns:xlink="http://www.w3.org/1999/xlink" x="0px" y="0px"
	 width="17.14px" height="18.109px" viewBox="0 0 17.14 18.109" enable-background="new 0 0 17.14 18.109" xml:space="preserve">
<g id="XMLID_3513_">
	<path id="XMLID_3460_" d="M12.761,1.266L12.05,3.538l-0.217,0.698l-0.338,1.083H5.634L5.296,4.236L5.077,3.538L4.379,1.303
		C4.171,0.639,4.695,0.044,5.568,0.044c0.652,0,1.255,0.34,1.538,0.796c0.018-0.004,0.035-0.013,0.053-0.018
		C7.338,0.355,7.882,0,8.547,0c0.331,0,0.629,0.088,0.871,0.232c0.239,0.145,0.423,0.347,0.518,0.579
		c0.022,0.009,0.044,0.016,0.068,0.024C10.28,0.36,10.898,0,11.569,0C12.442,0,12.969,0.597,12.761,1.266z"/>
	<path id="XMLID_3514_" d="M11.395,6.013L6.041,6.004C4.383,6.006,2.874,6.686,1.779,7.783C0.682,8.879,0,10.393,0,12.058
		c0,3.328,2.725,6.052,6.052,6.052h5.036c1.665,0,3.179-0.682,4.275-1.779s1.777-2.61,1.777-4.273
		C17.14,8.831,14.584,6.173,11.395,6.013z M9.428,15.21l-0.165,0.042v0.763c0,0.182-0.147,0.329-0.329,0.329H8.142
		c-0.182,0-0.329-0.147-0.329-0.329v-0.695l-0.195-0.022c-0.608-0.068-1.176-0.234-1.56-0.454c-0.149-0.085-0.206-0.265-0.138-0.419
		l0.303-0.673c0.037-0.083,0.107-0.147,0.195-0.178c0.033-0.011,0.07-0.017,0.105-0.017c0.053,0,0.107,0.013,0.154,0.039
		c0.463,0.246,1.079,0.393,1.654,0.393c0.687,0,1.167-0.27,1.167-0.656c0-0.246-0.141-0.544-1.193-0.884
		c-0.748-0.235-2.299-0.724-2.299-2.051c0-0.889,0.647-1.584,1.73-1.858l0.165-0.042V7.763c0-0.182,0.147-0.329,0.329-0.329h0.781
		c0.182,0,0.329,0.147,0.329,0.329v0.661l0.193,0.024c0.462,0.055,0.871,0.169,1.25,0.347c0.079,0.037,0.138,0.103,0.169,0.184
		c0.029,0.083,0.024,0.173-0.013,0.252l-0.313,0.665c-0.053,0.114-0.171,0.188-0.296,0.188c-0.048,0-0.092-0.011-0.136-0.031
		C9.97,9.952,9.504,9.741,8.746,9.741c-0.693,0-1.002,0.268-1.002,0.536c0,0.296,0.322,0.5,1.332,0.833
		c1.075,0.351,2.174,0.882,2.174,2.151C11.249,13.949,10.77,14.872,9.428,15.21z"/>
</g>
</svg>
