<?xml version="1.0" encoding="utf-8"?>
<!-- Generator: Adobe Illustrator 16.0.0, SVG Export Plug-In . SVG Version: 6.00 Build 0)  -->
<!DOCTYPE svg PUBLIC "-//W3C//DTD SVG 1.1//EN" "http://www.w3.org/Graphics/SVG/1.1/DTD/svg11.dtd">
<svg version="1.1" id="Layer_1" xmlns="http://www.w3.org/2000/svg" xmlns:xlink="http://www.w3.org/1999/xlink" x="0px" y="0px"
	 width="484.316px" height="809.092px" viewBox="67.941 -8.546 484.316 809.092"
	 enable-background="new 67.941 -8.546 484.316 809.092" xml:space="preserve">
<g>
	<path id="XMLID_2825_" fill="#00A1C1" d="M392.719,521.353C387.02,515.655,387.02,515.655,392.719,521.353l-159.539-5.697
		l-5.699,5.697c0,0-11.396,17.094-22.791,51.281c-11.396,28.488-22.791,11.395-22.791,74.07c0,0,0,5.697,5.699,5.697h5.697
		l28.49-22.791c-5.699,17.094-11.396,51.281-5.699,91.166c0,0,0,5.699,5.699,5.699h5.697l28.49-28.49c0,5.699,0,11.396,0,22.791
		c5.697,28.49,22.791,56.979,45.582,74.072c0,0,0,5.697,5.697,5.697l0,0c0,0,0,0,5.699-5.697
		c22.791-17.094,39.885-45.582,45.582-74.072c0-5.697,0-17.092,0-22.791l28.488,28.49h5.699c0,0,5.697,0,5.697-5.699
		c5.699-34.188,0-68.375-5.697-91.166l28.488,22.791h5.699l5.697-5.697c0-56.979-11.396-45.582-22.791-74.07
		C404.113,538.446,392.719,521.353,392.719,521.353z"/>
	<path id="XMLID_2787_" fill="#00A1C1" d="M233.178,481.47H387.02c5.699,0,5.699,0,5.699-5.699
		c17.092-91.166,22.791-113.957,17.092-193.727c-5.697-62.676-11.396-119.654-28.488-170.936
		C352.832,25.642,312.947-8.546,312.947-8.546s-5.699,0-11.396,0c0,0-39.885,39.885-68.375,125.354
		c-17.092,51.279-28.488,108.258-28.488,170.936c-5.699,79.77,0,102.561,17.092,193.727
		C227.479,481.47,227.479,481.47,233.178,481.47z M307.25,219.368c28.49,0,51.281,22.791,51.281,51.279
		c0,28.49-22.791,51.281-51.281,51.281c-28.488,0-51.279-22.791-51.279-51.281C255.969,242.159,278.762,219.368,307.25,219.368z"/>
	<path id="XMLID_1248_" fill="#00A1C1" d="M193.293,481.47c0,0,0-5.699,0-11.396c-5.697-34.188-11.396-74.072-17.092-108.26
		c0,0,0-5.697-5.699-5.697h-5.697l-85.469,51.279l-11.395,5.699v56.979c0,5.697,11.395,22.791,17.092,22.791h96.863
		C187.596,492.864,193.293,481.47,193.293,481.47z"/>
	<path id="XMLID_348_" fill="#00A1C1" d="M426.904,481.47c0,0,0-5.699,0-11.396c5.697-34.188,11.396-74.072,17.092-108.26
		c0,0,0-5.697,5.699-5.697h5.697l85.469,51.279l11.396,5.699v56.979c0,5.697-11.396,22.791-17.094,22.791h-96.863
		C426.904,492.864,426.904,481.47,426.904,481.47z"/>
</g>
</svg>
