<?xml version="1.0" encoding="utf-8"?>
<!-- Generator: Adobe Illustrator 16.0.0, SVG Export Plug-In . SVG Version: 6.00 Build 0)  -->
<!DOCTYPE svg PUBLIC "-//W3C//DTD SVG 1.1//EN" "http://www.w3.org/Graphics/SVG/1.1/DTD/svg11.dtd">
<svg version="1.1" id="Layer_1" xmlns="http://www.w3.org/2000/svg" xmlns:xlink="http://www.w3.org/1999/xlink" x="0px" y="0px"
	 width="14.061px" height="14.059px" viewBox="0 0 14.061 14.059" enable-background="new 0 0 14.061 14.059" xml:space="preserve">
<path fill="#089EBF" d="M7.064,0.821c-3.455,0-6.255,2.801-6.255,6.256c0,3.455,2.801,6.255,6.255,6.255
	c3.455,0,6.256-2.801,6.256-6.255C13.32,3.622,10.519,0.821,7.064,0.821z M5.006,3.862c0.571,0,1.029,0.458,1.029,1.028
	c0,0.57-0.458,1.029-1.029,1.029c-0.57,0-1.028-0.458-1.028-1.029C3.978,4.32,4.436,3.862,5.006,3.862z M10.005,8.606
	c-0.402,1.295-1.582,2.162-2.941,2.162c-1.358,0-2.539-0.867-2.941-2.162c-0.088-0.272,0.064-0.555,0.33-0.643
	c0.273-0.089,0.563,0.064,0.651,0.338C5.369,9.16,6.164,9.739,7.064,9.739c0.9,0,1.695-0.578,1.96-1.438
	c0.088-0.273,0.377-0.427,0.644-0.338C9.941,8.051,10.093,8.333,10.005,8.606z M9.12,5.919c-0.57,0-1.028-0.458-1.028-1.029
	c0-0.571,0.458-1.028,1.028-1.028S10.15,4.32,10.15,4.89C10.15,5.461,9.691,5.919,9.12,5.919z"/>
</svg>
