<?xml version="1.0" encoding="utf-8"?>
<!-- Generator: Adobe Illustrator 16.0.0, SVG Export Plug-In . SVG Version: 6.00 Build 0)  -->
<!DOCTYPE svg PUBLIC "-//W3C//DTD SVG 1.1//EN" "http://www.w3.org/Graphics/SVG/1.1/DTD/svg11.dtd">
<svg version="1.1" id="Layer_1" xmlns="http://www.w3.org/2000/svg" xmlns:xlink="http://www.w3.org/1999/xlink" x="0px" y="0px"
	 width="18.106px" height="18.106px" viewBox="0 0 18.106 18.106" enable-background="new 0 0 18.106 18.106" xml:space="preserve">
<path fill="#818282" d="M17.823,7.564l-3.95,4.039l0.936,5.704c0.011,0.08,0.011,0.148,0.011,0.229c0,0.296-0.131,0.57-0.446,0.57
	c-0.153,0-0.305-0.058-0.436-0.138l-4.885-2.691l-4.886,2.691c-0.141,0.08-0.283,0.138-0.435,0.138c-0.316,0-0.457-0.274-0.457-0.57
	c0-0.08,0.011-0.148,0.022-0.229l0.935-5.704l-3.96-4.039C0.141,7.416,0,7.223,0,7.017c0-0.343,0.337-0.479,0.609-0.524l5.462-0.833
	L8.52,0.468C8.618,0.251,8.803,0,9.053,0s0.435,0.251,0.533,0.468l2.448,5.191l5.463,0.833c0.261,0.045,0.609,0.182,0.609,0.524
	C18.106,7.223,17.964,7.416,17.823,7.564"/>
</svg>
