<?xml version="1.0" encoding="utf-8"?>
<!-- Generator: Adobe Illustrator 16.0.0, SVG Export Plug-In . SVG Version: 6.00 Build 0)  -->
<!DOCTYPE svg PUBLIC "-//W3C//DTD SVG 1.1//EN" "http://www.w3.org/Graphics/SVG/1.1/DTD/svg11.dtd">
<svg version="1.1" id="Layer_1" xmlns="http://www.w3.org/2000/svg" xmlns:xlink="http://www.w3.org/1999/xlink" x="0px" y="0px"
	 width="18.107px" height="15.843px" viewBox="0 0 18.107 15.843" enable-background="new 0 0 18.107 15.843" xml:space="preserve">
<g>
	<path fill-rule="evenodd" clip-rule="evenodd" fill="#818282" d="M4.526,5.656c0.627,0,1.133-0.508,1.133-1.133
		c0-0.623-0.507-1.129-1.134-1.129c-0.623,0-1.128,0.506-1.129,1.129C3.396,5.148,3.902,5.656,4.526,5.656z"/>
	<path fill-rule="evenodd" clip-rule="evenodd" fill="#818282" d="M8.465,4.525c0.944,0,1.706-0.766,1.706-1.707
		c0-0.94-0.764-1.702-1.708-1.702c-0.938,0-1.699,0.762-1.701,1.702C6.762,3.76,7.525,4.525,8.465,4.525z"/>
	<path fill-rule="evenodd" clip-rule="evenodd" fill="#818282" d="M11.333,6.788c0.627,0,1.133-0.508,1.133-1.133
		c0-0.624-0.508-1.13-1.135-1.13c-0.623,0-1.127,0.506-1.129,1.13C10.203,6.28,10.708,6.788,11.333,6.788z"/>
	<circle fill-rule="evenodd" clip-rule="evenodd" fill="#818282" cx="7.342" cy="6.234" r="0.552"/>
	<circle fill-rule="evenodd" clip-rule="evenodd" fill="#818282" cx="5.077" cy="0.552" r="0.552"/>
	<path fill-rule="evenodd" clip-rule="evenodd" fill="#818282" d="M15.859,7.938c0,0-0.014,0-0.032,0v1.113h-0.002
		c0,0.007,0.002,0.013,0.002,0.021c0,0.673-0.291,1.263-0.749,1.671c-0.098,0.088-0.203,0.166-0.315,0.236
		c-0.003,0.002-0.006,0.003-0.009,0.004c-0.107,0.067-0.223,0.125-0.342,0.173c-0.033,0.013-0.069,0.021-0.104,0.032
		c-0.094,0.032-0.188,0.064-0.287,0.084c-0.141,0.027-0.283,0.043-0.432,0.044c-0.194,0.001-0.379-0.028-0.557-0.071
		c-0.045-0.012-0.087-0.026-0.13-0.039c-0.146-0.047-0.286-0.104-0.417-0.177c-0.023-0.013-0.048-0.024-0.07-0.038
		c-0.324-0.197-0.593-0.473-0.781-0.805l0,0c-0.188-0.334-0.303-0.717-0.302-1.135V7.938H2.265C0.99,7.936-0.007,8.928,0,10.193
		c0.006,1.252,0.993,2.238,2.244,2.238c0.008,0,0.013-0.002,0.02-0.002c0,0.004-0.001,0.007-0.001,0.011
		c0.006,1.251,0.993,2.237,2.244,2.237c0.008,0,0.014-0.002,0.021-0.002v0.002h0.004c0,0.009-0.005,0.016-0.005,0.024
		c0,0.63,0.511,1.141,1.141,1.141s1.141-0.511,1.141-1.141c0-0.009-0.004-0.016-0.005-0.024h4.539c0,0.016-0.009,0.028-0.009,0.044
		c0,0.619,0.502,1.121,1.121,1.121s1.121-0.502,1.121-1.121c0-0.016-0.009-0.028-0.009-0.044h0.02l0,0
		c1.249,0,2.251-0.998,2.255-2.248h0.009c1.253,0.002,2.26-1.004,2.256-2.259C18.104,8.922,17.117,7.938,15.859,7.938z"/>
</g>
</svg>
