<?xml version="1.0" encoding="utf-8"?>
<!-- Generator: Adobe Illustrator 16.0.0, SVG Export Plug-In . SVG Version: 6.00 Build 0)  -->
<!DOCTYPE svg PUBLIC "-//W3C//DTD SVG 1.1//EN" "http://www.w3.org/Graphics/SVG/1.1/DTD/svg11.dtd">
<svg version="1.1" id="Layer_1" xmlns="http://www.w3.org/2000/svg" xmlns:xlink="http://www.w3.org/1999/xlink" x="0px" y="0px"
	 width="612.207px" height="717.089px" viewBox="-0.104 27.119 612.207 717.089"
	 enable-background="new -0.104 27.119 612.207 717.089" xml:space="preserve">
<path id="XMLID_2677_" fill="#00A1C1" d="M488.675,414.857l-180,313.713c-10.286,15.43-25.714,20.572-41.143,10.287l-251.999-144
	C0.105,584.572-5.038,569.145,5.247,553.717l180-313.715l149.142-92.572l72,41.143c5.144-15.428,5.144-15.428,5.144-25.713
	c5.143-30.857,15.428-82.287,71.999-123.43c20.571-15.428,51.429-15.428,77.144-5.143c15.428,5.143,25.714,15.428,36,30.857
	c10.287,15.428,15.429,30.857,15.429,41.143c0,15.428-10.287,41.143-46.286,61.715c-30.857,15.428-56.571,15.428-82.286,20.57
	c-20.57,5.145-36,5.145-51.428,15.428l66.856,41.143L488.675,414.857z M416.675,322.285c15.429-25.715,10.287-56.572-5.143-77.145
	l-30.857-20.57c-25.715-10.287-61.715,5.143-77.144,30.857c-15.428,30.857-5.143,72,25.715,92.57
	C360.104,363.428,401.246,353.143,416.675,322.285z M426.96,162.857c0,5.143,0,5.143,0,10.285c0,5.145,0,5.145,0,15.428
	c15.428-10.285,36.001-10.285,56.571-15.428c20.571-5.143,46.286-5.143,77.144-20.57c25.714-10.287,41.142-25.715,41.142-46.285
	c0-20.572-15.428-46.285-41.142-56.572c0,0-5.144,0-5.144-5.143c-20.571-10.287-46.285-10.287-61.715,0
	C437.246,85.715,432.104,132,426.96,162.857z"/>
</svg>
