<?xml version="1.0" encoding="utf-8"?>
<!-- Generator: Adobe Illustrator 16.0.0, SVG Export Plug-In . SVG Version: 6.00 Build 0)  -->
<!DOCTYPE svg PUBLIC "-//W3C//DTD SVG 1.1//EN" "http://www.w3.org/Graphics/SVG/1.1/DTD/svg11.dtd">
<svg version="1.1" id="Layer_1" xmlns="http://www.w3.org/2000/svg" xmlns:xlink="http://www.w3.org/1999/xlink" x="0px" y="0px"
	 width="16.139px" height="16.286px" viewBox="0 0 16.139 16.286" enable-background="new 0 0 16.139 16.286" xml:space="preserve">
<g>
	<path fill-rule="evenodd" clip-rule="evenodd" fill="#818282" d="M0,2.32c0-1.257,0.985-2.245,2.233-2.247
		c1.26-0.004,2.268,1.008,2.261,2.267c0,1.252-0.986,2.239-2.238,2.245C0.99,4.592-0.002,3.594,0,2.32"/>
	<path fill-rule="evenodd" clip-rule="evenodd" fill="#818282" d="M5.822,2.32c0-1.257,0.985-2.245,2.233-2.247
		c1.26-0.004,2.268,1.008,2.261,2.267c0,1.252-0.986,2.239-2.238,2.245C6.813,4.592,5.82,3.594,5.822,2.32"/>
	<path fill-rule="evenodd" clip-rule="evenodd" fill="#818282" d="M11.645,2.32c0-1.257,0.985-2.245,2.233-2.247
		c1.26-0.004,2.268,1.008,2.261,2.267c0,1.252-0.986,2.239-2.238,2.245C12.635,4.592,11.643,3.594,11.645,2.32"/>
	<path fill-rule="evenodd" clip-rule="evenodd" fill="#818282" d="M0,8.161c0-1.257,0.985-2.245,2.233-2.247
		c1.26-0.004,2.268,1.008,2.261,2.267c0,1.252-0.986,2.239-2.238,2.245C0.99,10.433-0.002,9.435,0,8.161"/>
	<path fill-rule="evenodd" clip-rule="evenodd" fill="#818282" d="M5.822,8.161c0-1.257,0.985-2.245,2.233-2.247
		c1.26-0.004,2.268,1.008,2.261,2.267c0,1.252-0.986,2.239-2.238,2.245C6.813,10.433,5.82,9.435,5.822,8.161"/>
	<path fill-rule="evenodd" clip-rule="evenodd" fill="#818282" d="M11.645,8.161c0-1.257,0.985-2.245,2.233-2.247
		c1.26-0.004,2.268,1.008,2.261,2.267c0,1.252-0.986,2.239-2.238,2.245C12.635,10.433,11.643,9.435,11.645,8.161"/>
	<path fill-rule="evenodd" clip-rule="evenodd" fill="#818282" d="M0,14.021c0-1.257,0.985-2.245,2.233-2.247
		c1.26-0.004,2.268,1.008,2.261,2.267c0,1.252-0.986,2.239-2.238,2.245C0.99,16.293-0.002,15.295,0,14.021"/>
	<path fill-rule="evenodd" clip-rule="evenodd" fill="#818282" d="M5.822,14.021c0-1.257,0.985-2.245,2.233-2.247
		c1.26-0.004,2.268,1.008,2.261,2.267c0,1.252-0.986,2.239-2.238,2.245C6.813,16.293,5.82,15.295,5.822,14.021"/>
	<path fill-rule="evenodd" clip-rule="evenodd" fill="#818282" d="M11.645,14.021c0-1.257,0.985-2.245,2.233-2.247
		c1.26-0.004,2.268,1.008,2.261,2.267c0,1.252-0.986,2.239-2.238,2.245C12.635,16.293,11.643,15.295,11.645,14.021"/>
</g>
</svg>
