<?xml version="1.0" encoding="utf-8"?>
<!-- Generator: Adobe Illustrator 16.0.0, SVG Export Plug-In . SVG Version: 6.00 Build 0)  -->
<!DOCTYPE svg PUBLIC "-//W3C//DTD SVG 1.1//EN" "http://www.w3.org/Graphics/SVG/1.1/DTD/svg11.dtd">
<svg version="1.1" id="Layer_1" xmlns="http://www.w3.org/2000/svg" xmlns:xlink="http://www.w3.org/1999/xlink" x="0px" y="0px"
	 width="18.065px" height="15.836px" viewBox="0 0 18.065 15.836" enable-background="new 0 0 18.065 15.836" xml:space="preserve">
<path fill="#818282" d="M15.854,5.274l-2.926-0.66l0.383-1.356c0.123-0.246,0.2-0.515,0.225-0.8l0.009-0.031L13.54,2.425
	c0.004-0.057,0.017-0.111,0.017-0.169C13.557,1.015,12.542,0,11.301,0c-0.651,0-1.235,0.284-1.648,0.728L9.65,0.726L4.901,5.391
	l-2.692,0.26C0.99,5.651,0,6.64,0,7.86v4.636c0,1.22,0.99,2.208,2.209,2.208h2.07c0.146,0,0.295,0.015,0.438,0.045l9.635,1.042
	c1.199,0.244,2.367-0.533,2.606-1.732l1.061-6.145C18.293,6.548,17.286,5.651,15.854,5.274 M4.515,12.305
	c0,0.644-0.522,1.167-1.167,1.167H2.182c-0.645,0-1.167-0.523-1.167-1.167V7.972c0-0.645,0.522-1.167,1.167-1.167h1.166
	c0.645,0,1.167,0.522,1.167,1.167V12.305z"/>
</svg>
