<?xml version="1.0" encoding="utf-8"?>
<!-- Generator: Adobe Illustrator 16.0.0, SVG Export Plug-In . SVG Version: 6.00 Build 0)  -->
<!DOCTYPE svg PUBLIC "-//W3C//DTD SVG 1.1//EN" "http://www.w3.org/Graphics/SVG/1.1/DTD/svg11.dtd">
<svg version="1.1" id="Layer_1" xmlns="http://www.w3.org/2000/svg" xmlns:xlink="http://www.w3.org/1999/xlink" x="0px" y="0px"
	 width="607.289px" height="663.781px" viewBox="2.355 51.465 607.289 663.781"
	 enable-background="new 2.355 51.465 607.289 663.781" xml:space="preserve">
<g>
	<path fill="#00A1C1" d="M609.645,352.754c0,23.537-4.708,47.076-18.831,65.906c4.708,9.416,4.708,18.83,4.708,28.246
		c0,18.832-4.708,37.662-14.122,56.494c0,4.707,0,9.416,0,18.83c0,28.246-9.416,51.785-23.539,70.615
		c0,37.66-9.416,65.908-32.954,89.445c-23.538,23.539-51.785,32.955-89.445,32.955h-14.123h-37.661
		c-23.538,0-51.784-4.709-75.323-9.416c-23.538-4.709-51.785-14.123-84.737-28.246c-32.955-9.416-47.077-14.123-56.493-14.123
		H54.139c-14.123,0-28.246-4.707-37.661-14.123c-9.414-9.414-14.122-23.537-14.122-37.66V357.463
		c0-14.123,4.708-28.246,14.122-37.662c9.415-9.414,23.538-14.121,37.661-14.121h108.276c9.416-4.709,28.246-28.248,56.493-61.199
		c14.122-18.832,28.246-37.662,42.368-51.785c4.708-4.709,9.416-18.832,14.123-32.955c4.708-14.123,9.416-32.955,14.122-51.785
		c4.708-18.83,14.123-32.955,23.539-42.369c9.416-9.416,23.538-14.121,37.66-14.121c23.539,0,42.369,4.707,61.2,14.121
		c18.83,9.416,32.954,23.539,42.368,42.369c9.416,18.83,14.123,42.369,14.123,75.324c0,23.537-4.708,51.785-18.831,75.322h70.616
		c28.246,0,51.784,9.416,70.615,28.246C600.229,305.676,609.645,329.215,609.645,352.754z M91.798,602.262
		c4.708-4.709,9.416-9.416,9.416-18.83c0-4.709-4.708-14.123-9.416-18.83c-4.708-4.709-9.416-9.416-18.83-9.416
		c-4.708,0-14.123,4.707-18.831,9.416c-4.708,4.707-9.416,9.416-9.416,18.83c0,4.707,4.708,14.121,9.416,18.83
		c4.708,4.707,9.416,9.416,18.831,9.416C82.382,611.676,87.09,606.969,91.798,602.262z M557.859,357.461
		c0-14.123-4.708-23.539-14.122-37.66c-9.416-9.416-23.539-14.123-37.661-14.123H364.845c0-14.123,4.708-37.66,18.831-61.199
		c14.122-28.246,18.83-47.078,18.83-65.908c0-28.246-4.708-47.076-14.122-56.492c-9.416-14.123-23.539-18.83-51.785-18.83
		c-4.708,4.707-14.122,18.83-14.122,32.953c-4.708,14.123-9.416,32.955-14.123,51.785c-4.708,18.83-14.122,32.955-23.538,42.369
		c-4.708,4.709-14.123,18.83-28.247,37.662c0,0-4.708,4.707-9.416,14.121s-9.416,14.123-14.122,14.123
		c-4.708,4.707-9.416,9.416-14.122,18.83c-4.708,4.709-9.416,14.123-14.123,18.83c-4.708,4.709-9.416,9.416-14.122,14.123
		c-4.707,4.707-9.416,9.416-14.123,9.416c-4.708,4.709-9.416,4.709-14.122,4.709h-14.123v254.215h14.123c4.708,0,9.416,0,14.122,0
		c4.708,0,9.416,0,14.123,4.707c4.708,0,9.416,4.709,14.122,4.709c4.708,0,9.416,4.707,14.123,4.707
		c4.708,0,9.415,4.709,14.122,4.709c4.708,0,9.416,4.707,9.416,4.707c56.493,18.83,98.861,28.246,136.522,28.246h47.077
		c51.785,0,75.323-23.537,75.323-65.906c0-4.709,0-14.123,0-23.539c9.416-4.707,14.123-9.416,18.831-18.83s4.708-18.83,4.708-28.246
		s0-18.832-9.416-28.248c14.122-14.121,18.83-28.246,18.83-47.076c0-4.707,0-14.123-4.708-23.539s-4.708-14.121-9.416-18.83
		c9.416,0,14.123-4.707,23.539-18.83C553.151,376.291,557.859,362.17,557.859,357.461z"/>
</g>
</svg>
