<?xml version="1.0" encoding="utf-8"?>
<!-- Generator: Adobe Illustrator 16.0.0, SVG Export Plug-In . SVG Version: 6.00 Build 0)  -->
<!DOCTYPE svg PUBLIC "-//W3C//DTD SVG 1.1//EN" "http://www.w3.org/Graphics/SVG/1.1/DTD/svg11.dtd">
<svg version="1.1" id="Layer_1" xmlns="http://www.w3.org/2000/svg" xmlns:xlink="http://www.w3.org/1999/xlink" x="0px" y="0px"
	 width="607.289px" height="663.781px" viewBox="2.355 60.109 607.289 663.781"
	 enable-background="new 2.355 60.109 607.289 663.781" xml:space="preserve">
<g>
	<path fill="#00A1C1" d="M2.355,422.602c0-23.537,4.708-47.076,18.83-65.906c-4.708-9.416-4.708-18.83-4.708-28.246
		c0-18.832,4.708-37.662,14.123-56.494c0-4.707,0-9.416,0-18.83c0-28.246,9.416-51.785,23.538-70.615
		c0-37.66,9.416-65.908,32.954-89.445c23.539-23.539,51.785-32.955,89.446-32.955h14.122h37.661c23.538,0,51.785,4.709,75.323,9.416
		c23.539,4.709,51.785,14.123,84.738,28.246c32.954,9.416,47.077,14.123,56.493,14.123h112.984c14.122,0,28.246,4.707,37.66,14.123
		c9.416,9.416,14.123,23.537,14.123,37.66v254.215c0,14.123-4.708,28.246-14.123,37.662c-9.416,9.416-23.538,14.121-37.66,14.121
		H449.585c-9.416,4.709-28.247,28.248-56.493,61.199c-14.123,18.832-28.247,37.662-42.369,51.785
		c-4.708,4.709-9.416,18.832-14.122,32.955c-4.708,14.123-4.708,32.955-14.123,51.785c-4.708,18.83-14.122,32.955-23.538,42.369
		c-9.416,9.416-23.539,14.121-37.661,14.121c-23.538,0-42.369-4.707-61.199-14.121c-18.831-9.416-32.955-23.539-42.369-42.369
		c-9.416-18.83-14.123-42.369-14.123-75.324c0-23.537,4.708-51.785,18.831-75.322H91.803c-28.247,0-51.785-9.416-70.615-28.246
		C11.771,474.387,2.355,450.85,2.355,422.602z M54.14,422.602c0,14.123,4.708,23.539,14.123,37.662
		c9.416,9.416,23.538,14.123,37.661,14.123h141.23c0,14.121-4.708,37.66-18.83,61.199c-14.123,28.246-18.831,47.076-18.831,65.906
		c0,28.246,4.708,47.078,14.123,56.494c9.416,14.121,23.538,18.83,51.784,18.83c4.708-4.709,14.123-18.83,14.123-32.955
		c4.708-14.123,9.416-32.953,14.122-51.785c4.708-18.83,14.123-32.953,23.539-42.369c4.708-4.707,14.122-18.83,28.246-37.66
		c0,0,4.708-4.707,9.416-14.123c4.708-4.707,9.416-14.121,14.122-14.121c4.708-4.709,9.416-9.416,14.123-18.832
		c4.708-4.707,9.416-14.121,14.122-18.83c4.708-4.707,9.416-9.416,14.123-14.123c4.708-4.707,9.416-9.416,14.122-9.416
		c4.707,0,9.416-4.707,14.123-4.707h14.122V163.68h-14.122c-4.708,0-9.416,0-14.123,0c-4.708,0-9.416,0-14.122-4.709
		c-4.708,0-9.416-4.707-14.123-4.707c-4.708,0-9.416-4.709-14.122-4.709c-4.708,0-9.416-4.707-14.123-4.707
		c-4.708,0-9.416-4.709-9.416-4.709c-56.492-18.83-98.861-28.246-136.522-28.246h-47.077c-51.784,0-75.323,23.539-75.323,65.908
		c0,4.707,0,14.123,0,23.539c-9.416,4.707-14.122,9.414-18.83,18.83s-4.708,18.83-4.708,28.246s4.708,18.83,9.416,28.246
		c-14.123,14.123-18.831,28.246-18.831,47.076c0,4.709,0,14.123,4.708,23.539s4.708,14.123,9.416,18.83
		c-9.416,0-14.122,4.709-23.538,18.832C58.848,403.771,54.14,413.186,54.14,422.602z M520.201,177.803
		c-4.708,4.707-9.416,9.416-9.416,18.83c0,4.707,4.708,14.121,9.416,18.83c4.708,4.707,9.416,9.416,18.831,9.416
		c4.708,0,14.122-4.709,18.83-9.416c4.708-4.709,9.416-9.416,9.416-18.83c0-4.709-4.708-14.123-9.416-18.83
		c-4.708-4.709-9.416-9.416-18.83-9.416C529.617,168.387,524.909,173.096,520.201,177.803z"/>
</g>
</svg>
