<?xml version="1.0" encoding="utf-8"?>
<!-- Generator: Adobe Illustrator 16.0.0, SVG Export Plug-In . SVG Version: 6.00 Build 0)  -->
<!DOCTYPE svg PUBLIC "-//W3C//DTD SVG 1.1//EN" "http://www.w3.org/Graphics/SVG/1.1/DTD/svg11.dtd">
<svg version="1.1" id="Camada_1" xmlns="http://www.w3.org/2000/svg" xmlns:xlink="http://www.w3.org/1999/xlink" x="0px" y="0px"
	 width="16.622px" height="18.134px" viewBox="0 0 16.622 18.134" enable-background="new 0 0 16.622 18.134" xml:space="preserve">
<g id="XMLID_1_">
	<path id="XMLID_43_" d="M16.622,3.4v0.756c0,0.11-0.036,0.2-0.105,0.271c-0.071,0.071-0.162,0.106-0.272,0.106h-1.133v11.192
		c0,0.653-0.185,1.218-0.556,1.694c-0.37,0.476-0.814,0.714-1.334,0.714H3.4c-0.519,0-0.964-0.23-1.334-0.69
		c-0.37-0.461-0.554-1.018-0.554-1.67V4.534H0.378c-0.11,0-0.201-0.036-0.271-0.106C0.036,4.356,0,4.266,0,4.156V3.4
		c0-0.11,0.036-0.201,0.107-0.271c0.07-0.071,0.161-0.106,0.271-0.106h3.647l0.826-1.972C4.97,0.76,5.182,0.512,5.49,0.307
		C5.796,0.103,6.107,0,6.422,0H10.2c0.314,0,0.625,0.103,0.932,0.307c0.308,0.205,0.52,0.453,0.638,0.744l0.826,1.972h3.648
		c0.11,0,0.201,0.035,0.272,0.106C16.586,3.199,16.622,3.29,16.622,3.4z M6.044,14.734V6.422c0-0.11-0.036-0.2-0.106-0.271
		C5.868,6.08,5.777,6.045,5.667,6.045H4.912c-0.11,0-0.201,0.035-0.272,0.106c-0.07,0.071-0.105,0.161-0.105,0.271v8.312
		c0,0.11,0.036,0.2,0.105,0.271c0.071,0.071,0.162,0.106,0.272,0.106h0.755c0.11,0,0.201-0.036,0.272-0.106
		C6.009,14.934,6.044,14.844,6.044,14.734z M5.667,3.023h5.289l-0.567-1.382c-0.055-0.071-0.122-0.114-0.2-0.129H6.446
		C6.367,1.527,6.3,1.57,6.245,1.641L5.667,3.023z M9.066,14.734V6.422c0-0.11-0.035-0.2-0.105-0.271
		C8.89,6.08,8.799,6.045,8.689,6.045H7.934c-0.11,0-0.201,0.035-0.272,0.106c-0.07,0.071-0.106,0.161-0.106,0.271v8.312
		c0,0.11,0.036,0.2,0.106,0.271c0.071,0.071,0.162,0.106,0.272,0.106h0.755c0.11,0,0.201-0.036,0.272-0.106
		C9.032,14.934,9.066,14.844,9.066,14.734z M12.089,14.734V6.422c0-0.11-0.035-0.2-0.106-0.271
		c-0.071-0.071-0.162-0.106-0.272-0.106h-0.755c-0.11,0-0.201,0.035-0.271,0.106c-0.071,0.071-0.106,0.161-0.106,0.271v8.312
		c0,0.11,0.036,0.2,0.106,0.271c0.07,0.071,0.161,0.106,0.271,0.106h0.755c0.11,0,0.201-0.036,0.272-0.106
		C12.054,14.934,12.089,14.844,12.089,14.734z"/>
</g>
</svg>
