<?xml version="1.0" encoding="utf-8"?>
<!-- Generator: Adobe Illustrator 16.0.0, SVG Export Plug-In . SVG Version: 6.00 Build 0)  -->
<!DOCTYPE svg PUBLIC "-//W3C//DTD SVG 1.1//EN" "http://www.w3.org/Graphics/SVG/1.1/DTD/svg11.dtd">
<svg version="1.1" id="Layer_1" xmlns="http://www.w3.org/2000/svg" xmlns:xlink="http://www.w3.org/1999/xlink" x="0px" y="0px"
	 width="616.371px" height="612px" viewBox="-2.186 77 616.371 612" enable-background="new -2.186 77 616.371 612"
	 xml:space="preserve">
<path id="XMLID_84_" fill="#00A1C1" d="M373.757,111.971c-4.372-4.371-4.372-8.744-8.744-13.113
	C351.899,85.742,330.042,77,308.186,77c-21.857,0-39.343,8.742-56.828,21.857c-4.372,4.371-8.744,8.742-8.744,13.113
	L102.728,251.857c-30.601,30.6-30.601,78.684,0,109.285c30.601,30.6,78.686,30.6,109.285,0l26.229-26.229v122.398
	c0,43.715,34.971,74.314,74.314,74.314c43.715,0,74.315-34.971,74.315-74.314V339.285l21.856,21.857
	c30.601,30.6,78.686,30.6,109.286,0c30.601-30.602,30.601-78.686,0-109.285L373.757,111.971z M535.499,457.314h-65.572
	l-87.428,83.057c-21.857,17.486-48.086,30.602-78.686,30.602c-30.601,0-56.828-13.115-78.686-30.602l0,0L220.757,536l0,0
	l-78.686-78.686H76.5c-43.714,0-78.686,34.971-78.686,78.686v74.314C-2.186,654.029,32.786,689,76.5,689h459
	c43.714,0,78.686-34.971,78.686-78.686V536C614.186,492.285,579.213,457.314,535.499,457.314 M535.499,649.656
	c-21.857,0-39.343-17.484-39.343-39.342s17.485-39.342,39.343-39.342c21.856,0,39.342,17.484,39.342,39.342
	C574.843,632.172,557.355,649.656,535.499,649.656"/>
</svg>
