<?xml version="1.0" encoding="utf-8"?>
<!-- Generator: Adobe Illustrator 16.0.0, SVG Export Plug-In . SVG Version: 6.00 Build 0)  -->
<!DOCTYPE svg PUBLIC "-//W3C//DTD SVG 1.1//EN" "http://www.w3.org/Graphics/SVG/1.1/DTD/svg11.dtd">
<svg version="1.1" id="Layer_1" xmlns="http://www.w3.org/2000/svg" xmlns:xlink="http://www.w3.org/1999/xlink" x="0px" y="0px"
	 width="18.107px" height="18.105px" viewBox="0 0 18.107 18.105" enable-background="new 0 0 18.107 18.105" xml:space="preserve">
<path fill="#818282" d="M9.053,0C4.053,0,0,4.053,0,9.053s4.053,9.053,9.053,9.053s9.054-4.053,9.054-9.053S14.053,0,9.053,0
	 M12.255,7.931c0.065-0.011,0.125-0.039,0.193-0.039c0.62,0,1.121,0.503,1.121,1.122v0.013c0.001,0.01,0.006,0.018,0.006,0.026
	s-0.005,0.017-0.006,0.026v4.437c0.001,0.009,0.006,0.017,0.006,0.026c0,0.466-0.285,0.865-0.69,1.034
	c-0.134,0.057-0.282,0.088-0.437,0.088c-0.002,0-0.004-0.001-0.006-0.001h-2.305v0.011c0,0.619-0.502,1.122-1.121,1.122
	c-0.619,0-1.121-0.503-1.121-1.122v-0.011H5.638c-0.619,0-1.121-0.502-1.121-1.121c0-0.62,0.502-1.122,1.121-1.122h2.257v-2.245
	H5.638c-0.619,0-1.121-0.503-1.121-1.122c0-0.035,0.017-0.065,0.02-0.1V4.604c-0.003-0.034-0.02-0.063-0.02-0.1
	c0-0.619,0.502-1.121,1.121-1.121h2.26c0.01-0.611,0.505-1.104,1.118-1.104c0.614,0,1.108,0.493,1.118,1.104h2.319
	c0.62,0,1.122,0.502,1.122,1.121c0,0.62-0.502,1.122-1.122,1.122h-2.316v2.304H12.255z M6.78,7.931h1.115V5.626H6.78V7.931z
	 M10.137,12.42h1.189v-2.246h-1.189V12.42z"/>
</svg>
