<?xml version="1.0" encoding="utf-8"?>
<!-- Generator: Adobe Illustrator 16.0.0, SVG Export Plug-In . SVG Version: 6.00 Build 0)  -->
<!DOCTYPE svg PUBLIC "-//W3C//DTD SVG 1.1//EN" "http://www.w3.org/Graphics/SVG/1.1/DTD/svg11.dtd">
<svg version="1.1" id="Layer_1" xmlns="http://www.w3.org/2000/svg" xmlns:xlink="http://www.w3.org/1999/xlink" x="0px" y="0px"
	 width="14.061px" height="14.059px" viewBox="0 0 14.061 14.059" enable-background="new 0 0 14.061 14.059" xml:space="preserve">
<g>
	<path fill="#00A2C2" d="M7.507,1.999v10.046c0,0.16-0.059,0.299-0.176,0.416c-0.117,0.115-0.255,0.174-0.416,0.174
		S6.617,12.576,6.5,12.461L2.383,9.385H1.007c-0.16,0-0.299-0.059-0.416-0.176C0.474,9.094,0.416,8.955,0.416,8.795V5.249
		c0-0.16,0.059-0.299,0.175-0.416c0.117-0.117,0.255-0.175,0.416-0.175h1.376L6.5,1.583c0.117-0.116,0.255-0.175,0.416-0.175
		s0.298,0.059,0.416,0.175C7.448,1.7,7.507,1.839,7.507,1.999z"/>
	<path fill="#00A2C2" d="M10.868,4.833c0.438,0.669,0.659,1.399,0.659,2.189c0,0.791-0.221,1.52-0.659,2.189
		c-0.439,0.67-1.021,1.156-1.744,1.461c-0.067,0.025-0.132,0.039-0.194,0.039c-0.139,0-0.258-0.049-0.355-0.148
		c-0.099-0.096-0.148-0.213-0.148-0.348c0-0.201,0.102-0.354,0.303-0.457c0.289-0.15,0.485-0.264,0.59-0.342
		c0.382-0.279,0.68-0.629,0.895-1.051c0.215-0.42,0.321-0.869,0.321-1.344s-0.106-0.923-0.321-1.345
		C9.998,5.256,9.7,4.906,9.319,4.627c-0.104-0.078-0.301-0.191-0.59-0.341C8.528,4.182,8.426,4.03,8.426,3.829
		c0-0.135,0.05-0.251,0.148-0.35c0.098-0.098,0.214-0.146,0.348-0.146c0.067,0,0.135,0.013,0.202,0.038
		C9.847,3.676,10.429,4.163,10.868,4.833z"/>
	<path fill="#00A2C2" d="M12.823,3.747c0.655,0.995,0.984,2.086,0.984,3.274c0,1.188-0.329,2.281-0.984,3.275
		c-0.656,0.994-1.53,1.727-2.62,2.197c-0.066,0.025-0.135,0.039-0.201,0.039c-0.135,0-0.252-0.049-0.35-0.148
		c-0.098-0.098-0.146-0.213-0.146-0.348c0-0.186,0.1-0.34,0.302-0.457c0.036-0.021,0.095-0.049,0.175-0.082s0.138-0.061,0.174-0.082
		c0.238-0.129,0.45-0.262,0.636-0.395c0.636-0.471,1.132-1.057,1.489-1.76c0.355-0.703,0.534-1.449,0.534-2.24
		c0-0.79-0.179-1.537-0.534-2.24c-0.357-0.702-0.854-1.29-1.489-1.759c-0.186-0.134-0.397-0.267-0.636-0.395
		c-0.036-0.021-0.094-0.048-0.174-0.082S9.844,2.484,9.808,2.464C9.606,2.345,9.506,2.193,9.506,2.007
		c0-0.135,0.049-0.251,0.146-0.349c0.098-0.099,0.215-0.147,0.35-0.147c0.066,0,0.135,0.013,0.201,0.039
		C11.293,2.02,12.167,2.752,12.823,3.747z"/>
	<path fill="#00A2C2" d="M8.529,6.856c0-0.637-0.435-1.168-1.021-1.326v2.652C8.094,8.024,8.529,7.492,8.529,6.856z"/>
</g>
</svg>
