<?xml version="1.0" encoding="utf-8"?>
<!-- Generator: Adobe Illustrator 16.0.0, SVG Export Plug-In . SVG Version: 6.00 Build 0)  -->
<!DOCTYPE svg PUBLIC "-//W3C//DTD SVG 1.1//EN" "http://www.w3.org/Graphics/SVG/1.1/DTD/svg11.dtd">
<svg version="1.1" id="Layer_1" xmlns="http://www.w3.org/2000/svg" xmlns:xlink="http://www.w3.org/1999/xlink" x="0px" y="0px"
	 width="14.061px" height="14.059px" viewBox="0 0 14.061 14.059" enable-background="new 0 0 14.061 14.059" xml:space="preserve">
<g>
	<path fill="#089EBF" d="M4.559,0.655c0.836-0.36,1.713-0.54,2.63-0.54c0.917,0,1.794,0.18,2.631,0.54
		c0.835,0.359,1.557,0.841,2.162,1.448c0.606,0.605,1.089,1.327,1.447,2.163c0.36,0.837,0.542,1.714,0.542,2.631
		c0,0.917-0.182,1.795-0.542,2.63c-0.358,0.836-0.841,1.558-1.447,2.163c-0.605,0.606-1.327,1.09-2.162,1.448
		c-0.837,0.36-1.715,0.541-2.631,0.541c-1.169,0-2.264-0.284-3.283-0.846l-3.751,1.205l1.223-3.645
		C0.731,9.328,0.407,8.162,0.407,6.897c0-0.917,0.18-1.794,0.54-2.631c0.359-0.836,0.842-1.558,1.448-2.163
		C3.001,1.496,3.722,1.014,4.559,0.655z M7.189,12.546c0.761,0,1.491-0.151,2.19-0.453c0.699-0.298,1.3-0.699,1.805-1.203
		c0.503-0.504,0.904-1.104,1.203-1.804c0.301-0.698,0.45-1.429,0.45-2.189c0-0.761-0.149-1.492-0.45-2.191
		c-0.299-0.698-0.7-1.3-1.203-1.803c-0.505-0.504-1.105-0.905-1.805-1.205c-0.699-0.3-1.429-0.45-2.19-0.45
		c-0.762,0-1.492,0.15-2.19,0.45c-0.698,0.3-1.3,0.701-1.804,1.205C2.692,3.406,2.29,4.008,1.99,4.706
		c-0.3,0.699-0.45,1.43-0.45,2.191c0,1.217,0.36,2.319,1.08,3.308l-0.711,2.099l2.178-0.695C5.034,12.233,6.068,12.546,7.189,12.546
		z M8.545,8.214c0.236-0.291,0.392-0.437,0.471-0.437c0.077,0,0.369,0.132,0.876,0.396c0.507,0.265,0.774,0.424,0.807,0.477
		c0.01,0.031,0.018,0.076,0.018,0.137c0,0.196-0.052,0.425-0.155,0.683C10.466,9.701,10.253,9.9,9.923,10.06
		c-0.33,0.156-0.635,0.237-0.917,0.237c-0.341,0-0.911-0.186-1.71-0.56C6.708,9.469,6.199,9.115,5.768,8.677
		S4.893,7.686,4.437,7.013C4.005,6.372,3.792,5.79,3.798,5.268V5.196c0.019-0.544,0.24-1.02,0.666-1.42
		c0.144-0.132,0.299-0.198,0.468-0.198c0.035,0,0.089,0.004,0.161,0.014C5.166,3.6,5.223,3.604,5.264,3.604
		c0.113,0,0.193,0.02,0.238,0.059c0.045,0.039,0.091,0.121,0.14,0.247C5.69,4.03,5.789,4.295,5.939,4.701
		C6.09,5.11,6.164,5.334,6.164,5.376c0,0.126-0.104,0.298-0.31,0.517C5.647,6.113,5.543,6.252,5.543,6.311
		c0,0.042,0.016,0.087,0.045,0.136c0.204,0.437,0.509,0.848,0.917,1.231C6.842,7.996,7.294,8.3,7.865,8.586
		C7.935,8.629,8,8.65,8.062,8.65C8.151,8.65,8.314,8.505,8.545,8.214z"/>
</g>
</svg>
