<?xml version="1.0" encoding="utf-8"?>
<!-- Generator: Adobe Illustrator 16.0.0, SVG Export Plug-In . SVG Version: 6.00 Build 0)  -->
<!DOCTYPE svg PUBLIC "-//W3C//DTD SVG 1.1//EN" "http://www.w3.org/Graphics/SVG/1.1/DTD/svg11.dtd">
<svg version="1.1" id="Layer_1" xmlns="http://www.w3.org/2000/svg" xmlns:xlink="http://www.w3.org/1999/xlink" x="0px" y="0px"
	 width="18.105px" height="18.105px" viewBox="0 0 18.105 18.105" enable-background="new 0 0 18.105 18.105" xml:space="preserve">
<g>
	<path fill="#676767" d="M18.12,3.398v11.326c0,0.936-0.334,1.733-0.998,2.397c-0.664,0.667-1.464,0.997-2.399,0.997H3.398
		c-0.936,0-1.736-0.33-2.401-0.997C0.332,16.457,0,15.659,0,14.724V3.398c0-0.936,0.332-1.736,0.996-2.4
		C1.662,0.333,2.462,0,3.398,0h11.325c0.936,0,1.735,0.333,2.399,0.997C17.786,1.662,18.12,2.462,18.12,3.398z M15.548,12.293
		c0-1.393-0.075-2.414-0.225-3.068c-0.078-0.346-0.248-0.635-0.506-0.867c-0.26-0.232-0.56-0.368-0.898-0.406
		c-1.068-0.119-2.688-0.179-4.86-0.179c-2.162,0-3.778,0.06-4.848,0.179C3.866,7.99,3.565,8.126,3.308,8.359
		c-0.254,0.232-0.421,0.521-0.5,0.867C2.65,9.91,2.572,10.932,2.572,12.293c0,1.385,0.078,2.406,0.236,3.067
		c0.079,0.337,0.246,0.624,0.5,0.859c0.256,0.237,0.554,0.375,0.891,0.413c1.077,0.117,2.698,0.179,4.86,0.179
		c2.163,0,3.783-0.062,4.86-0.179c0.339-0.038,0.637-0.176,0.892-0.413c0.256-0.235,0.423-0.522,0.502-0.859
		C15.469,14.699,15.548,13.678,15.548,12.293z M6.276,9.284v0.826H5.331v4.991H4.459V10.11h-0.92V9.284H6.276z M6.642,4.614
		l1.062-3.493H6.818l-0.6,2.3l-0.626-2.3h-0.92c0.063,0.182,0.158,0.453,0.284,0.814C5.08,2.297,5.172,2.569,5.227,2.749
		C5.502,3.56,5.682,4.18,5.768,4.614v2.37h0.874V4.614z M8.647,10.771v4.33h-0.79v-0.474c-0.306,0.354-0.605,0.531-0.896,0.531
		c-0.26,0-0.425-0.109-0.496-0.33c-0.048-0.125-0.07-0.339-0.07-0.637v-3.421h0.777v3.186c0,0.189,0.003,0.291,0.012,0.307
		c0.007,0.116,0.067,0.177,0.177,0.177c0.156,0,0.322-0.122,0.495-0.366v-3.303H8.647z M10.05,5.568V4.035
		c0-0.457-0.082-0.798-0.247-1.027C9.575,2.71,9.268,2.56,8.882,2.56c-0.401,0-0.707,0.149-0.918,0.448
		c-0.165,0.229-0.248,0.57-0.248,1.027v1.533c0,0.457,0.083,0.799,0.248,1.027c0.211,0.299,0.518,0.448,0.918,0.448
		c0.386,0,0.693-0.149,0.921-0.448C9.968,6.383,10.05,6.04,10.05,5.568z M9.26,3.881v1.841c0,0.401-0.125,0.602-0.378,0.602
		c-0.251,0-0.376-0.201-0.376-0.602V3.881c0-0.408,0.125-0.613,0.376-0.613C9.135,3.268,9.26,3.473,9.26,3.881z M11.619,12.081v1.72
		c0,0.41-0.027,0.697-0.083,0.862c-0.095,0.33-0.303,0.495-0.624,0.495c-0.275,0-0.544-0.159-0.802-0.483v0.426H9.319V9.284h0.792
		v1.899c0.251-0.313,0.518-0.471,0.802-0.471c0.321,0,0.529,0.165,0.624,0.495C11.592,11.372,11.619,11.663,11.619,12.081z
		 M10.842,13.862v-1.853c0-0.393-0.115-0.589-0.343-0.589c-0.134,0-0.263,0.063-0.389,0.188v2.643
		c0.126,0.126,0.255,0.189,0.389,0.189C10.727,14.44,10.842,14.247,10.842,13.862z M12.185,6.984h0.792V2.619h-0.792v3.338
		c-0.172,0.244-0.337,0.366-0.495,0.366c-0.117,0-0.181-0.063-0.188-0.188c-0.009-0.016-0.012-0.118-0.012-0.307V2.619h-0.792v3.456
		c0,0.292,0.024,0.508,0.072,0.648c0.087,0.213,0.255,0.319,0.506,0.319c0.284,0,0.587-0.177,0.908-0.531V6.984z M14.58,13.602
		v0.106c0,0.228-0.007,0.396-0.022,0.506c-0.024,0.174-0.083,0.331-0.178,0.474c-0.213,0.314-0.526,0.471-0.944,0.471
		c-0.407,0-0.728-0.149-0.955-0.448c-0.165-0.212-0.247-0.551-0.247-1.014v-1.522c0-0.465,0.077-0.802,0.235-1.015
		c0.229-0.298,0.542-0.447,0.944-0.447c0.401,0,0.707,0.149,0.919,0.447c0.165,0.22,0.248,0.559,0.248,1.015v0.898h-1.569v0.766
		c0,0.4,0.134,0.602,0.402,0.602c0.188,0,0.307-0.102,0.353-0.308c0-0.007,0.002-0.034,0.007-0.083
		c0.004-0.046,0.006-0.11,0.006-0.192c0-0.083,0-0.169,0-0.255H14.58z M13.011,12.422h0.779v-0.401c0-0.4-0.129-0.601-0.389-0.601
		s-0.391,0.2-0.391,0.601V12.422z"/>
</g>
</svg>
